#N canvas 2434 554 888 708 12;
#X declare -path moonlib;
#X declare -path moonlib;
#X obj 46 468 r fromTeleco;
#X obj 46 493 route \$1;
#X obj 187 528 oscformat \$1;
#X obj 187 495 list;
#X obj 187 555 s toTelecoDirect;
#X obj 46 518 s \$1-fromTeleco;
#X obj 187 464 r \$1-toTeleco;
#X obj 369 464 r \$1-fromTeleco;
#X obj 31 642 list trim;
#X obj 31 670 s CONTROL;
#X obj 316 595 r PLAYED_CONTROL;
#X obj 316 620 route \$1;
#X obj 316 646 s \$1-PLAYED_CONTROL;
#X obj 31 615 list prepend \$1;
#X obj 31 586 r \$1-toMachine;
#X obj 156 643 list trim;
#X obj 156 616 list prepend \$1;
#X obj 156 671 s REC_CONTROL;
#X obj 156 587 r \$1-toRecord;
#N canvas 2480 824 666 478 olds 0;
#X obj 58 71 Pixel 1 10 \$1;
#X obj 58 89 Pixel 2 13 \$1;
#X obj 57 112 Pixel 3 16 \$1;
#X obj 57 130 Pixel 4 19 \$1;
#X obj 57 154 Pixel 5 22 \$1;
#X obj 56 45 rem Automatic 1 1 \$1;
#X obj 212 48 rem presets_teleco \$1_auto PRESETS_\$1_auto 32;
#X obj 234 204 s toTeleco;
#X msg 234 154 led_1 \$1;
#X obj 238 120 tgl 20 0 empty empty empty 0 -10 0 12 -262144 -1 -1
0 1;
#X obj 336 343 s toTelecoDirect;
#X msg 341 233 symbol red;
#X msg 423 235 symbol blue;
#X msg 517 237 symbol #FF0000;
#X msg 310 154 led_1 color red;
#X obj 336 307 oscformat led_I0 color;
#X connect 8 0 7 0;
#X connect 9 0 8 0;
#X connect 11 0 15 0;
#X connect 12 0 15 0;
#X connect 13 0 15 0;
#X connect 14 0 7 0;
#X connect 15 0 10 0;
#X restore 700 668 pd olds;
#X obj 20 346 presets_teleco2 \$1 Interieur 32;
#X obj 21 292 RGB Interieur1 Interieur \$1;
#X obj 21 317 RGB Interieur2 Interieur \$1;
#X obj 25 10 mode \$1 Imode1;
#X obj 25 54 mode \$1 Imode2;
#X obj 25 92 mode \$1 Imode3;
#X obj 369 519 s \$1-line-Interieur;
#X obj 26 173 param_f \$1 Imode1 \$1-Interieur NONE \$1-line-Interieur
;
#X obj 27 200 param_f \$1 Imode2 \$1-Interieur NONE \$1-line-Interieur
;
#X obj 26 225 param_f \$1 Imode3 \$1-Interieur NONE \$1-line-Interieur
;
#X obj 26 250 param_f \$1 Imode4 \$1-Interieur NONE \$1-line-Interieur
;
#X obj 25 130 mode \$1 Imode4;
#N canvas 2085 528 1154 655 modes-Interieur 0;
#X obj 203 128 tgl 15 0 empty empty empty 17 7 0 10 -262144 -1 -1 1
1;
#X text 98 3 mode1:vitesse-sym-gauche=alterné \, droite=ensemble;
#X text 99 30 mode3: amplitude;
#X obj 30 84 * 2;
#X obj 30 107 - 1;
#X obj 30 130 abs;
#X obj 30 204 / 100;
#X obj 203 289 + 0;
#X obj 203 312 fmod 1;
#X obj 203 266 f;
#X obj 30 155 pow 3;
#X text 97 16 mode2: smooth \, si à ZÉRO=rnd;
#X obj 30 181 * 30;
#X obj 203 198 sel 0 1, f 42;
#X obj 327 260 / 1e+06;
#X obj 327 331 * 0.05;
#X obj 371 354 * 0.95;
#X obj 300 143 < 0.01;
#X obj 368 422 * 0.95;
#X obj 327 400 * 0.05;
#X obj 327 237 random 2e+06;
#X obj 327 283 - 1;
#X obj 327 354 + 0;
#X obj 327 377 clip -1 1;
#X obj 327 423 + 0;
#X obj 327 447 clip -1 1;
#X obj 402 308 * -1;
#X obj 402 331 + 1;
#X obj 406 377 * -1;
#X obj 406 400 + 1;
#X obj 421 279 f;
#X floatatom 508 214 5 0 0 0 - - -;
#X obj 508 236 / 100;
#X obj 327 307 * 3;
#X obj 428 225 pow 3;
#X obj 203 105 loadbang;
#X obj 203 173 f 1, f 12;
#X obj 203 149 metro 20;
#X msg 203 495 phase \$1;
#X obj 433 35 r \$1-Imode4-val;
#X obj 203 525 s \$0-mode-interieur;
#X obj 424 166 s \$0-mode-interieur;
#X msg 433 91 dephase \$1;
#X obj 300 36 r \$1-Imode2-val;
#X obj 30 61 r \$1-Imode1-val;
#X msg 359 65 dur \$1;
#X obj 570 35 r \$1-Imode3-val;
#X msg 570 60 amp \$1;
#X obj 102 101 > 0;
#X obj 102 126 change -1;
#X msg 102 151 together \$1;
#X obj 690 32 r RGB-Interieur1;
#X msg 690 57 col1 \$1 \$2 \$3;
#X obj 699 89 r RGB-Interieur2;
#X msg 699 114 col2 \$1 \$2 \$3;
#X obj 327 471 +;
#X obj 327 494 * 2;
#X obj 426 251 * 0.4;
#X obj 71 399 hsl 170 20 0 1 0 0 empty empty empty -2 -10 0 12 -262144
-1 -1 6252 1;
#X obj 689 173 r \$1-Master;
#X msg 689 242 master \$1;
#X obj 896 235 r \$1-BeatCtl;
#X obj 878 56 r IN_BEATMS;
#X msg 878 181 1 \, 0 \$1;
#X obj 878 206 line;
#X obj 689 208 * 1;
#X obj 720 205 t b f;
#X obj 896 260 t f f;
#X obj 928 287 * -1;
#X obj 928 312 + 1;
#X obj 878 287 *;
#X obj 878 345 + 1;
#X obj 864 8 declare -path moonlib;
#X obj 878 151 * 1;
#X msg 967 107 0 \$1;
#X obj 978 191 bng 20 250 50 0 empty empty empty 0 -10 0 12 -262144
-1 -1;
#X obj 967 136 ndmetro 1 0.5;
#X msg 1019 92 nd 2 2;
#X msg 1083 100 -1;
#X obj 122 235 tgl 20 0 empty empty empty 0 -10 0 12 -262144 -1 -1
0 1;
#X obj 121 187 > 0.1;
#X obj 121 212 change;
#N canvas 2881 891 450 394 bpm 0;
#X obj 70 16 inlet;
#X obj 70 66 /;
#X msg 70 40 20 \$1;
#X obj 166 26 r IN_BEATMS;
#X obj 70 91 /;
#X obj 102 90 t b f;
#X obj 70 116 log;
#X obj 70 141 /;
#X obj 152 95 loadbang;
#X msg 152 120 2;
#X obj 152 145 log;
#X obj 70 168 + 0.5;
#X obj 70 193 i;
#X msg 70 218 2 \$1;
#X obj 70 243 pow;
#X obj 70 268 *, f 8;
#X obj 70 355 outlet;
#X obj 70 323 /;
#X msg 70 297 20 \$1;
#X floatatom 195 364 5 0 0 0 - - -;
#X floatatom 25 53 5 0 0 0 - - -;
#X floatatom 154 298 5 0 0 0 - - -;
#X floatatom 191 61 5 0 0 0 - - -;
#X floatatom 15 107 5 0 0 0 - - -;
#X connect 0 0 2 0;
#X connect 0 0 20 0;
#X connect 1 0 4 0;
#X connect 1 0 23 0;
#X connect 2 0 1 0;
#X connect 3 0 5 0;
#X connect 3 0 15 1;
#X connect 3 0 22 0;
#X connect 4 0 6 0;
#X connect 5 0 4 0;
#X connect 5 1 4 1;
#X connect 6 0 7 0;
#X connect 7 0 11 0;
#X connect 8 0 9 0;
#X connect 9 0 10 0;
#X connect 10 0 7 1;
#X connect 11 0 12 0;
#X connect 12 0 13 0;
#X connect 13 0 14 0;
#X connect 14 0 15 0;
#X connect 14 0 21 0;
#X connect 15 0 18 0;
#X connect 17 0 19 0;
#X connect 17 0 16 0;
#X connect 18 0 17 0;
#X restore 72 257 pd bpm;
#X msg 30 281 0 \$1;
#X msg 72 282 1 \$1;
#X obj 30 229 f;
#X obj 30 312 route 0, f 12;
#X floatatom 829 159 5 0 0 0 - - -;
#X obj 837 197 bng 20 250 50 0 empty empty empty 0 -10 0 12 -262144
-1 -1;
#X obj 205 573 clone dmxmode_chan2 10 \$1 \$0-mode-interieur led_I
1;
#X connect 0 0 37 0;
#X connect 3 0 4 0;
#X connect 4 0 5 0;
#X connect 4 0 48 0;
#X connect 5 0 10 0;
#X connect 5 0 34 0;
#X connect 6 0 85 0;
#X connect 7 0 8 0;
#X connect 8 0 9 1;
#X connect 8 0 38 0;
#X connect 8 0 58 0;
#X connect 9 0 7 0;
#X connect 10 0 12 0;
#X connect 12 0 6 0;
#X connect 13 0 9 0;
#X connect 13 1 20 0;
#X connect 14 0 21 0;
#X connect 15 0 22 0;
#X connect 16 0 22 1;
#X connect 17 0 36 1;
#X connect 18 0 24 1;
#X connect 19 0 24 0;
#X connect 20 0 14 0;
#X connect 21 0 33 0;
#X connect 22 0 23 0;
#X connect 23 0 16 0;
#X connect 23 0 19 0;
#X connect 24 0 25 0;
#X connect 25 0 18 0;
#X connect 25 0 55 0;
#X connect 26 0 27 0;
#X connect 27 0 16 1;
#X connect 28 0 29 0;
#X connect 29 0 18 1;
#X connect 30 0 15 1;
#X connect 30 0 26 0;
#X connect 30 0 28 0;
#X connect 30 0 19 1;
#X connect 31 0 32 0;
#X connect 32 0 30 0;
#X connect 33 0 15 0;
#X connect 34 0 57 0;
#X connect 35 0 0 0;
#X connect 36 0 13 0;
#X connect 37 0 36 0;
#X connect 38 0 40 0;
#X connect 39 0 42 0;
#X connect 42 0 41 0;
#X connect 43 0 17 0;
#X connect 43 0 45 0;
#X connect 44 0 3 0;
#X connect 45 0 41 0;
#X connect 46 0 47 0;
#X connect 47 0 41 0;
#X connect 48 0 49 0;
#X connect 49 0 50 0;
#X connect 50 0 41 0;
#X connect 51 0 52 0;
#X connect 52 0 41 0;
#X connect 53 0 54 0;
#X connect 54 0 41 0;
#X connect 55 0 56 0;
#X connect 56 0 8 0;
#X connect 57 0 30 0;
#X connect 59 0 65 0;
#X connect 60 0 41 0;
#X connect 61 0 67 0;
#X connect 61 0 80 0;
#X connect 62 0 73 0;
#X connect 62 0 87 0;
#X connect 63 0 64 0;
#X connect 64 0 70 0;
#X connect 65 0 60 0;
#X connect 66 0 65 0;
#X connect 66 1 65 1;
#X connect 67 0 70 1;
#X connect 67 1 68 0;
#X connect 68 0 69 0;
#X connect 69 0 71 1;
#X connect 70 0 71 0;
#X connect 71 0 66 0;
#X connect 73 0 63 0;
#X connect 74 0 76 0;
#X connect 76 0 75 0;
#X connect 77 0 76 0;
#X connect 78 0 76 0;
#X connect 79 0 86 1;
#X connect 80 0 81 0;
#X connect 81 0 79 0;
#X connect 82 0 84 0;
#X connect 83 0 86 0;
#X connect 84 0 86 0;
#X connect 85 0 83 0;
#X connect 85 0 82 0;
#X connect 86 0 7 1;
#X connect 87 0 88 0;
#X restore 22 383 pd modes-Interieur;
#X obj 659 525 s \$1-BeatCtl;
#X obj 536 519 s \$1-leds_visu;
#X obj 370 490 route line-Interieur line-Exterieur leds_visu BeatCtl
Master;
#X obj 756 524 s \$1-Master;
#X obj 764 413 loadbang;
#X msg 764 438 1;
#N canvas 2085 528 1154 655 modes-Exterieur 0;
#X obj 203 128 tgl 15 0 empty empty empty 17 7 0 10 -262144 -1 -1 1
1;
#X text 98 3 mode1:vitesse-sym-gauche=alterné \, droite=ensemble;
#X text 99 30 mode3: amplitude;
#X obj 30 84 * 2;
#X obj 30 107 - 1;
#X obj 30 130 abs;
#X obj 30 204 / 100;
#X obj 203 289 + 0;
#X obj 203 312 fmod 1;
#X obj 203 266 f;
#X obj 30 155 pow 3;
#X text 97 16 mode2: smooth \, si à ZÉRO=rnd;
#X obj 30 181 * 30;
#X obj 203 198 sel 0 1, f 42;
#X obj 327 260 / 1e+06;
#X obj 327 331 * 0.05;
#X obj 371 354 * 0.95;
#X obj 300 143 < 0.01;
#X obj 368 422 * 0.95;
#X obj 327 400 * 0.05;
#X obj 327 237 random 2e+06;
#X obj 327 283 - 1;
#X obj 327 354 + 0;
#X obj 327 377 clip -1 1;
#X obj 327 423 + 0;
#X obj 327 447 clip -1 1;
#X obj 402 308 * -1;
#X obj 402 331 + 1;
#X obj 406 377 * -1;
#X obj 406 400 + 1;
#X obj 421 279 f;
#X floatatom 508 214 5 0 0 0 - - -;
#X obj 508 236 / 100;
#X obj 327 307 * 3;
#X obj 428 225 pow 3;
#X obj 203 105 loadbang;
#X obj 203 173 f 1, f 12;
#X obj 203 149 metro 20;
#X msg 203 495 phase \$1;
#X msg 433 91 dephase \$1;
#X msg 359 65 dur \$1;
#X msg 570 60 amp \$1;
#X obj 102 101 > 0;
#X obj 102 126 change -1;
#X msg 102 151 together \$1;
#X msg 690 57 col1 \$1 \$2 \$3;
#X msg 699 114 col2 \$1 \$2 \$3;
#X obj 327 471 +;
#X obj 327 494 * 2;
#X obj 426 251 * 0.4;
#X obj 71 399 hsl 170 20 0 1 0 0 empty empty empty -2 -10 0 12 -262144
-1 -1 1221 1;
#N canvas 2881 891 450 394 bpm 0;
#X obj 70 16 inlet;
#X obj 70 66 /;
#X msg 70 40 20 \$1;
#X obj 166 26 r IN_BEATMS;
#X obj 70 91 /;
#X obj 102 90 t b f;
#X obj 70 116 log;
#X obj 70 141 /;
#X obj 152 95 loadbang;
#X msg 152 120 2;
#X obj 152 145 log;
#X obj 70 168 + 0.5;
#X obj 70 193 i;
#X msg 70 218 2 \$1;
#X obj 70 243 pow;
#X obj 70 268 *, f 8;
#X obj 70 355 outlet;
#X obj 70 323 /;
#X msg 70 297 20 \$1;
#X floatatom 195 364 5 0 0 0 - - -;
#X floatatom 25 53 5 0 0 0 - - -;
#X floatatom 154 298 5 0 0 0 - - -;
#X floatatom 191 61 5 0 0 0 - - -;
#X floatatom 15 107 5 0 0 0 - - -;
#X connect 0 0 2 0;
#X connect 0 0 20 0;
#X connect 1 0 4 0;
#X connect 1 0 23 0;
#X connect 2 0 1 0;
#X connect 3 0 5 0;
#X connect 3 0 15 1;
#X connect 3 0 22 0;
#X connect 4 0 6 0;
#X connect 5 0 4 0;
#X connect 5 1 4 1;
#X connect 6 0 7 0;
#X connect 7 0 11 0;
#X connect 8 0 9 0;
#X connect 9 0 10 0;
#X connect 10 0 7 1;
#X connect 11 0 12 0;
#X connect 12 0 13 0;
#X connect 13 0 14 0;
#X connect 14 0 15 0;
#X connect 14 0 21 0;
#X connect 15 0 18 0;
#X connect 17 0 19 0;
#X connect 17 0 16 0;
#X connect 18 0 17 0;
#X restore 72 257 pd bpm;
#X obj 689 173 r \$1-Master;
#X msg 689 242 master \$1;
#X obj 896 235 r \$1-BeatCtl;
#X obj 878 56 r IN_BEATMS;
#X msg 878 181 1 \, 0 \$1;
#X obj 878 206 line;
#X obj 689 208 * 1;
#X obj 720 205 t b f;
#X obj 896 260 t f f;
#X obj 928 287 * -1;
#X obj 928 312 + 1;
#X obj 878 287 *;
#X obj 878 345 + 1;
#X obj 864 8 declare -path moonlib;
#X obj 878 151 * 1;
#X msg 967 107 0 \$1;
#X obj 978 191 bng 20 250 50 0 empty empty empty 0 -10 0 12 -262144
-1 -1;
#X obj 967 136 ndmetro 1 0.5;
#X msg 1019 92 nd 2 2;
#X msg 1083 100 -1;
#X obj 142 252 tgl 20 0 empty empty empty 0 -10 0 12 -262144 -1 -1
0 1;
#X obj 30 366 f;
#X obj 203 525 s \$0-mode-exterieur;
#X obj 424 166 s \$0-mode-exterieur;
#X obj 30 61 r \$1-Emode1-val;
#X obj 300 36 r \$1-Emode2-val;
#X obj 433 35 r \$1-Emode4-val;
#X obj 570 35 r \$1-Emode3-val;
#X obj 690 32 r RGB-Exterieur1;
#X obj 699 89 r RGB-Exterieur2;
#X obj 142 201 > 0.1;
#X obj 142 226 change;
#X floatatom 104 206 5 0 0 0 - - -;
#X floatatom 30 432 5 0 0 0 - - -;
#X floatatom 152 85 5 0 0 0 - - -;
#X msg 30 281 0 \$1;
#X msg 72 282 1 \$1;
#X obj 30 229 f;
#X obj 30 312 route 0, f 12;
#X obj 204 573 clone dmxmode_chan2 10 \$1 \$0-mode-exterieur led_E
31;
#X connect 0 0 37 0;
#X connect 3 0 4 0;
#X connect 4 0 5 0;
#X connect 4 0 42 0;
#X connect 5 0 10 0;
#X connect 5 0 34 0;
#X connect 6 0 84 0;
#X connect 6 0 89 0;
#X connect 7 0 8 0;
#X connect 8 0 9 1;
#X connect 8 0 38 0;
#X connect 8 0 50 0;
#X connect 9 0 7 0;
#X connect 10 0 12 0;
#X connect 12 0 6 0;
#X connect 13 0 9 0;
#X connect 13 1 20 0;
#X connect 14 0 21 0;
#X connect 15 0 22 0;
#X connect 16 0 22 1;
#X connect 17 0 36 1;
#X connect 18 0 24 1;
#X connect 19 0 24 0;
#X connect 20 0 14 0;
#X connect 21 0 33 0;
#X connect 22 0 23 0;
#X connect 23 0 16 0;
#X connect 23 0 19 0;
#X connect 24 0 25 0;
#X connect 25 0 18 0;
#X connect 25 0 47 0;
#X connect 26 0 27 0;
#X connect 27 0 16 1;
#X connect 28 0 29 0;
#X connect 29 0 18 1;
#X connect 30 0 15 1;
#X connect 30 0 26 0;
#X connect 30 0 28 0;
#X connect 30 0 19 1;
#X connect 31 0 32 0;
#X connect 32 0 30 0;
#X connect 33 0 15 0;
#X connect 34 0 49 0;
#X connect 35 0 0 0;
#X connect 36 0 13 0;
#X connect 37 0 36 0;
#X connect 38 0 74 0;
#X connect 39 0 75 0;
#X connect 40 0 75 0;
#X connect 41 0 75 0;
#X connect 42 0 43 0;
#X connect 43 0 44 0;
#X connect 44 0 75 0;
#X connect 45 0 75 0;
#X connect 46 0 75 0;
#X connect 47 0 48 0;
#X connect 48 0 8 0;
#X connect 49 0 30 0;
#X connect 51 0 88 0;
#X connect 52 0 58 0;
#X connect 53 0 75 0;
#X connect 54 0 60 0;
#X connect 54 0 82 0;
#X connect 55 0 66 0;
#X connect 56 0 57 0;
#X connect 57 0 63 0;
#X connect 58 0 53 0;
#X connect 59 0 58 0;
#X connect 59 1 58 1;
#X connect 60 0 63 1;
#X connect 60 1 61 0;
#X connect 61 0 62 0;
#X connect 62 0 64 1;
#X connect 63 0 64 0;
#X connect 64 0 59 0;
#X connect 66 0 56 0;
#X connect 67 0 69 0;
#X connect 69 0 68 0;
#X connect 70 0 69 0;
#X connect 71 0 69 0;
#X connect 72 0 90 1;
#X connect 73 0 7 1;
#X connect 76 0 3 0;
#X connect 76 0 86 0;
#X connect 77 0 17 0;
#X connect 77 0 40 0;
#X connect 78 0 39 0;
#X connect 79 0 41 0;
#X connect 80 0 45 0;
#X connect 81 0 46 0;
#X connect 82 0 83 0;
#X connect 83 0 72 0;
#X connect 87 0 90 0;
#X connect 88 0 90 0;
#X connect 89 0 87 0;
#X connect 89 0 51 0;
#X connect 90 0 73 0;
#X restore 472 380 pd modes-Exterieur;
#X obj 452 555 s \$1-line-Exterieur;
#X obj 472 350 presets_teleco2 \$1 Exterieur 32;
#X obj 473 296 RGB Exterieur1 Exterieur \$1;
#X obj 473 321 RGB Exterieur2 Exterieur \$1;
#X obj 478 177 param_f \$1 Emode1 \$1-Exterieur NONE \$1-line-Exterieur
;
#X obj 477 14 mode \$1 Emode1;
#X obj 477 58 mode \$1 Emode2;
#X obj 478 96 mode \$1 Emode3;
#X obj 477 134 mode \$1 Emode4;
#X obj 479 204 param_f \$1 Emode2 \$1-Exterieur NONE \$1-line-Exterieur
;
#X obj 478 229 param_f \$1 Emode3 \$1-Exterieur NONE \$1-line-Exterieur
;
#X obj 478 254 param_f \$1 Emode4 \$1-Exterieur NONE \$1-line-Exterieur
;
#X connect 0 0 1 0;
#X connect 1 0 5 0;
#X connect 2 0 4 0;
#X connect 3 0 2 0;
#X connect 6 0 3 0;
#X connect 7 0 35 0;
#X connect 8 0 9 0;
#X connect 10 0 11 0;
#X connect 11 0 12 0;
#X connect 13 0 8 0;
#X connect 14 0 13 0;
#X connect 15 0 17 0;
#X connect 16 0 15 0;
#X connect 18 0 16 0;
#X connect 35 0 26 0;
#X connect 35 1 40 0;
#X connect 35 2 34 0;
#X connect 35 3 33 0;
#X connect 35 4 36 0;
#X connect 37 0 38 0;
#X connect 38 0 36 0;
