#N canvas 405 82 960 661 12;
#X obj 103 207 + 0.1;
#X obj 103 182 * 1000;
#X obj 103 160 pow 10;
#X obj 35 338 + 0.5;
#X obj 35 361 *;
#X obj 35 384 * -1;
#X obj 35 407 + 1;
#X obj 34 222 sin;
#X obj 34 245 * 1;
#X obj 34 268 atan;
#X obj 34 291 /;
#X obj 71 268 atan 1;
#X obj 71 245 f;
#X obj 34 156 fmod 1;
#X obj 34 178 * 3.14159;
#X obj 34 315 * 0.5;
#X obj 34 200 * 2;
#X obj 433 14 inlet;
#X obj 34 104 + 0;
#X obj 34 6 r \$3;
#X obj 52 57 * \$1;
#X obj 652 727 s toTelecoDirect;
#X obj 652 700 oscformat \$4\$1 color;
#X obj 230 90 loadbang;
#X obj 230 115 f \$1;
#X obj 230 140 / 10;
#X obj 230 169 * 1;
#X obj 216 59 == 0;
#X obj 266 168 t b f;
#X obj 35 432 pow 1;
#X obj 35 457 moses 0.05;
#X msg 35 482 0;
#X obj 35 507 f;
#X obj 169 259 pow 2;
#X obj 169 284 * 20;
#X obj 169 309 + 0.3;
#N canvas 2191 806 508 346 mix 0;
#X obj 151 17 inlet col1;
#X obj 290 16 inlet col2;
#X obj 151 53 unpack f f f;
#X obj 37 14 inlet mix;
#X obj 37 39 t f f;
#X obj 37 68 * -1;
#X obj 37 93 + 1;
#X obj 133 163 *;
#X obj 173 162 *;
#X obj 214 162 *;
#X obj 290 51 unpack f f f;
#X obj 272 161 *;
#X obj 312 160 *;
#X obj 353 160 *;
#X obj 37 118 t f f;
#X obj 133 208 +;
#X obj 173 207 +;
#X obj 214 207 +;
#X obj 133 237 pack f f f, f 12;
#X obj 133 262 outlet;
#X floatatom 421 124 5 0 0 0 - - -;
#X connect 0 0 2 0;
#X connect 1 0 10 0;
#X connect 2 0 7 1;
#X connect 2 1 8 1;
#X connect 2 2 9 1;
#X connect 3 0 4 0;
#X connect 4 0 5 0;
#X connect 4 1 11 0;
#X connect 4 1 13 0;
#X connect 4 1 12 0;
#X connect 5 0 6 0;
#X connect 6 0 14 0;
#X connect 7 0 15 0;
#X connect 8 0 16 0;
#X connect 9 0 17 0;
#X connect 10 0 11 1;
#X connect 10 1 12 1;
#X connect 10 2 13 1;
#X connect 10 2 20 0;
#X connect 11 0 15 1;
#X connect 12 0 16 1;
#X connect 13 0 17 1;
#X connect 14 0 7 0;
#X connect 14 1 8 0;
#X connect 14 1 9 0;
#X connect 15 0 18 0;
#X connect 16 0 18 1;
#X connect 17 0 18 2;
#X connect 18 0 19 0;
#X restore 35 534 pd mix;
#X f 35;
#X obj 35 594 unpack f f f, f 19;
#X obj 35 619 i;
#X obj 35 644 change;
#X obj 35 669 t b f;
#X obj 35 707 del 0;
#X obj 35 732 f;
#X obj 99 620 i;
#X obj 99 645 change;
#X obj 165 619 i;
#X obj 165 644 change;
#X obj 35 757 pack f f f, f 22;
#X obj 99 670 t b f;
#X obj 165 669 t b f;
#X obj 652 523 unpack f f f;
#X obj 652 551 makefilename %02X;
#X obj 692 581 makefilename %02X;
#X obj 733 606 makefilename %02X;
#X obj 652 647 pack s s s, f 12;
#X msg 652 675 symbol #\$1\$2\$3;
#X obj 91 334 pow 1;
#X obj 763 497 tgl 20 0 empty empty empty 0 -10 0 12 -262144 -1 -1
0 1;
#N canvas 2495 800 450 300 master 0;
#X obj 37 37 inlet;
#X obj 37 62 unpack f f f;
#X obj 37 112 pack f f f, f 12;
#X obj 203 28 inlet master;
#X obj 37 137 outlet;
#X obj 37 87 * 1;
#X obj 77 88 * 1;
#X obj 117 86 * 1;
#X connect 0 0 1 0;
#X connect 1 0 5 0;
#X connect 1 1 6 0;
#X connect 1 2 7 0;
#X connect 2 0 4 0;
#X connect 3 0 5 1;
#X connect 3 0 6 1;
#X connect 3 0 7 1;
#X connect 5 0 2 0;
#X connect 6 0 2 1;
#X connect 7 0 2 2;
#X restore 35 559 pd master;
#X f 37;
#X obj 34 31 route phase dephase dur amp together col1 col2 master
;
#X obj 463 190 unpack f f;
#X obj 463 242 pack f f;
#X obj 463 269 s 2DMX;
#X obj 463 217 + 1;
#X obj 596 162 loadbang;
#X obj 596 214 * 3;
#X obj 596 240 + \$5;
#X obj 596 188 f \$1;
#X floatatom 596 269 5 0 0 0 - - -;
#X obj 705 467 r \$2-leds_visu;
#X obj 386 444 unpack f f f, f 25;
#X obj 386 526 i;
#X obj 386 611 change;
#X obj 386 638 t b f;
#X obj 386 676 del 0;
#X obj 386 701 f;
#X obj 472 527 i;
#X obj 472 612 change;
#X obj 558 526 i;
#X obj 558 611 change;
#X obj 386 726 pack f f f, f 22;
#X obj 472 639 t b f;
#X obj 558 638 t b f;
#X obj 386 470 / 10;
#X obj 472 471 / 10;
#X obj 386 553 * 10;
#X obj 472 554 * 10;
#X obj 558 553 * 10;
#X obj 558 469 / 10;
#X obj 386 498 + 0.5;
#X obj 472 499 + 0.5;
#X obj 558 498 + 0.5;
#X obj 652 495 spigot;
#X msg 463 161 0 \$1 \, 1 \$2 \, 2 \$3;
#X obj 386 582 clip 0 254;
#X obj 472 583 clip 0 254;
#X obj 558 582 clip 0 254;
#X connect 0 0 12 0;
#X connect 1 0 0 0;
#X connect 2 0 1 0;
#X connect 3 0 4 0;
#X connect 4 0 5 0;
#X connect 5 0 6 0;
#X connect 6 0 29 0;
#X connect 7 0 8 0;
#X connect 8 0 9 0;
#X connect 9 0 10 0;
#X connect 10 0 15 0;
#X connect 11 0 10 1;
#X connect 12 0 11 0;
#X connect 12 0 8 1;
#X connect 13 0 14 0;
#X connect 14 0 16 0;
#X connect 15 0 3 0;
#X connect 16 0 7 0;
#X connect 18 0 13 0;
#X connect 19 0 59 0;
#X connect 22 0 21 0;
#X connect 23 0 24 0;
#X connect 24 0 25 0;
#X connect 25 0 26 0;
#X connect 26 0 18 1;
#X connect 27 0 28 0;
#X connect 28 0 26 0;
#X connect 28 1 26 1;
#X connect 29 0 30 0;
#X connect 30 0 31 0;
#X connect 30 1 32 0;
#X connect 31 0 32 0;
#X connect 32 0 36 0;
#X connect 33 0 34 0;
#X connect 34 0 35 0;
#X connect 35 0 29 1;
#X connect 36 0 58 0;
#X connect 37 0 38 0;
#X connect 37 1 43 0;
#X connect 37 2 45 0;
#X connect 38 0 39 0;
#X connect 39 0 40 0;
#X connect 40 0 41 0;
#X connect 40 1 42 1;
#X connect 41 0 42 0;
#X connect 42 0 47 0;
#X connect 43 0 44 0;
#X connect 44 0 48 0;
#X connect 45 0 46 0;
#X connect 46 0 49 0;
#X connect 47 0 93 0;
#X connect 47 0 70 0;
#X connect 48 0 41 0;
#X connect 48 1 47 1;
#X connect 49 0 41 0;
#X connect 49 1 47 2;
#X connect 50 0 51 0;
#X connect 50 1 52 0;
#X connect 50 2 53 0;
#X connect 51 0 54 0;
#X connect 52 0 54 1;
#X connect 53 0 54 2;
#X connect 54 0 55 0;
#X connect 55 0 22 0;
#X connect 56 0 4 1;
#X connect 58 0 37 0;
#X connect 59 0 18 0;
#X connect 59 1 20 0;
#X connect 59 1 33 0;
#X connect 59 2 2 0;
#X connect 59 3 56 0;
#X connect 59 4 27 0;
#X connect 59 5 36 1;
#X connect 59 6 36 2;
#X connect 59 7 58 1;
#X connect 60 0 63 0;
#X connect 60 1 61 1;
#X connect 61 0 62 0;
#X connect 63 0 61 0;
#X connect 64 0 67 0;
#X connect 65 0 66 0;
#X connect 66 0 68 0;
#X connect 66 0 63 1;
#X connect 67 0 65 0;
#X connect 69 0 57 0;
#X connect 69 0 92 1;
#X connect 70 0 83 0;
#X connect 70 1 84 0;
#X connect 70 2 88 0;
#X connect 71 0 85 0;
#X connect 72 0 73 0;
#X connect 73 0 74 0;
#X connect 73 1 75 1;
#X connect 74 0 75 0;
#X connect 75 0 80 0;
#X connect 76 0 86 0;
#X connect 77 0 81 0;
#X connect 78 0 87 0;
#X connect 79 0 82 0;
#X connect 80 0 92 0;
#X connect 81 0 74 0;
#X connect 81 1 80 1;
#X connect 82 0 74 0;
#X connect 82 1 80 2;
#X connect 83 0 89 0;
#X connect 84 0 90 0;
#X connect 85 0 94 0;
#X connect 86 0 95 0;
#X connect 87 0 96 0;
#X connect 88 0 91 0;
#X connect 89 0 71 0;
#X connect 90 0 76 0;
#X connect 91 0 78 0;
#X connect 92 0 50 0;
#X connect 93 0 60 0;
#X connect 94 0 72 0;
#X connect 95 0 77 0;
#X connect 96 0 79 0;
