#N canvas 2105 610 740 658 10;
#X msg 50 140 \$2 \$1;
#X obj 50 69 unpack s f;
#X obj 50 92 f;
#X obj 50 115 pack f f, f 10;
#X obj 50 163 route 1 0, f 51;
#X obj 50 339 sel 1;
#X obj 50 430 route 0 1, f 29;
#X obj 50 407 list prepend 0, f 21;
#X obj 403 92 bng 15 250 50 0 empty empty empty 17 7 0 10 #00fc04 #000000 #000000;
#X obj 641 90 bng 15 250 50 0 empty empty empty 17 7 0 10 #fc0400 #000000 #000000;
#X obj 404 71 loadbang;
#X obj 324 510 del 50;
#X msg 74 580 _all_ load \$1;
#X msg 170 580 _all_ store \$1;
#X obj 170 464 t f b, f 10;
#X obj 50 206 t b f f, f 22;
#X obj 180 243 bng 15 250 50 0 empty empty empty 17 7 0 10 #fcfcfc #000000 #000000;
#X obj 404 167 route loaded saved;
#X obj 404 193 b;
#X obj 523 166 loadbang;
#X obj 50 232 f \$3;
#X obj 50 255 t f b;
#X obj 50 278 until;
#X obj 50 301 i;
#X obj 87 301 + 1;
#X obj 404 144 r \$2-apmaster-snd;
#X obj 404 218 f \$3;
#X msg 404 244 _all_ _nbpattern_ \$1;
#X obj 475 70 r RELOAD_PRESETS;
#X obj 50 23 r \$1-fromTeleco;
#X obj 50 46 route preset_\$2 store_\$2, f 42;
#X msg 95 276 0;
#X obj 170 557 - 0;
#X obj 74 555 - 0;
#X obj 227 544 s \$1-toTeleco;
#X obj 324 536 s \$1-\$2-save;
#X obj 641 64 r \$1-\$2-save;
#X obj 404 44 apmaster \$1-\$2;
#X obj 227 496 symbol \$2;
#X obj 74 605 s \$1-\$2-pattern-snd;
#X obj 404 111 apmasterfile \$1-\$2 ../data/presets_\$1-\$2.txt;
#X obj 404 268 s \$1-\$2-setap-snd;
#X obj 279 390 s toTelecoDirect;
#X obj 279 312 list prepend \$1 \$2;
#X msg 279 339 set \$1 preset_\$2 \$3 \, \$4;
#X msg 208 226 \$1 1;
#X msg 87 370 \$1 0;
#X obj 279 366 oscformat;
#X obj 208 197 spigot 1;
#X obj 278 447 bng 18 250 50 0 empty empty empty 0 -9 0 10 #fcfcfc #000000 #000000;
#X msg 227 519 store_\$1 0;
#X obj 203 89 tgl 18 0 empty empty empty 0 -9 0 10 #fcfcfc #000000 #000000 0 1;
#X msg 193 496 0;
#X connect 0 0 4 0;
#X connect 1 0 2 0;
#X connect 1 1 3 1;
#X connect 2 0 3 0;
#X connect 3 0 0 0;
#X connect 4 0 15 0;
#X connect 4 1 16 0;
#X connect 4 1 48 0;
#X connect 4 1 15 0;
#X connect 5 1 46 0;
#X connect 6 0 33 0;
#X connect 6 1 14 0;
#X connect 7 0 6 0;
#X connect 8 0 40 0;
#X connect 9 0 40 1;
#X connect 10 0 8 0;
#X connect 11 0 35 0;
#X connect 12 0 39 0;
#X connect 13 0 39 0;
#X connect 14 0 32 0;
#X connect 14 1 11 0;
#X connect 14 1 38 0;
#X connect 14 1 52 0;
#X connect 15 0 20 0;
#X connect 15 1 7 0;
#X connect 15 2 5 1;
#X connect 17 0 18 0;
#X connect 17 1 18 0;
#X connect 18 0 26 0;
#X connect 19 0 18 0;
#X connect 20 0 21 0;
#X connect 21 0 22 0;
#X connect 21 1 31 0;
#X connect 22 0 23 0;
#X connect 23 0 24 0;
#X connect 23 0 5 0;
#X connect 24 0 23 1;
#X connect 25 0 17 0;
#X connect 26 0 27 0;
#X connect 27 0 41 0;
#X connect 28 0 8 0;
#X connect 29 0 30 0;
#X connect 30 0 1 0;
#X connect 30 1 7 1;
#X connect 30 1 51 0;
#X connect 31 0 23 1;
#X connect 32 0 13 0;
#X connect 33 0 12 0;
#X connect 36 0 9 0;
#X connect 38 0 50 0;
#X connect 43 0 44 0;
#X connect 44 0 47 0;
#X connect 45 0 43 0;
#X connect 46 0 43 0;
#X connect 47 0 42 0;
#X connect 48 0 45 0;
#X connect 49 0 38 0;
#X connect 50 0 34 0;
#X connect 52 0 7 1;
