#N canvas 2047 492 490 485 12;
#X obj 22 12 r \$3-toMachine;
#X obj 22 74 t a b, f 12;
#X msg 103 101 0;
#X obj 22 126 pack f f f f;
#X obj 22 160 unpack f f f f, f 50;
#X obj 22 192 line_f;
#X obj 139 194 line_f;
#X obj 257 193 line_f;
#X obj 210 92 r Pixel\$1-mult;
#X obj 55 225 t b f;
#X obj 22 280 change;
#X obj 22 254 i;
#X obj 22 227 * 1;
#X obj 172 230 t b f;
#X obj 139 285 change;
#X obj 139 259 i;
#X obj 139 232 * 1;
#X obj 290 234 t b f;
#X obj 257 289 change;
#X obj 257 263 i;
#X obj 257 236 * 1;
#X obj 22 40 route \$1 stop;
#X obj 22 305 t b f;
#X obj 22 385 f;
#X obj 22 360 del 2;
#X obj 139 310 t b f;
#X obj 257 314 t b f;
#X obj 22 410 pack f f f;
#X obj 22 435 s RGB-\$1;
#X floatatom 79 304 5 0 0 0 - - - 0;
#X obj 185 12 param_3f \$3 \$1 \$3-\$2 NONE \$3-line-\$2;
#X connect 0 0 21 0;
#X connect 1 0 3 0;
#X connect 1 1 2 0;
#X connect 2 0 3 3;
#X connect 3 0 4 0;
#X connect 4 0 5 0;
#X connect 4 1 6 0;
#X connect 4 2 7 0;
#X connect 4 3 7 1;
#X connect 4 3 6 1;
#X connect 4 3 5 1;
#X connect 5 0 12 0;
#X connect 6 0 16 0;
#X connect 7 0 20 0;
#X connect 8 0 9 0;
#X connect 8 0 13 0;
#X connect 8 0 17 0;
#X connect 9 0 12 0;
#X connect 9 1 12 1;
#X connect 10 0 22 0;
#X connect 11 0 10 0;
#X connect 11 0 29 0;
#X connect 12 0 11 0;
#X connect 13 0 16 0;
#X connect 13 1 16 1;
#X connect 14 0 25 0;
#X connect 15 0 14 0;
#X connect 16 0 15 0;
#X connect 17 0 20 0;
#X connect 17 1 20 1;
#X connect 18 0 26 0;
#X connect 19 0 18 0;
#X connect 20 0 19 0;
#X connect 21 0 1 0;
#X connect 22 0 24 0;
#X connect 22 1 23 1;
#X connect 23 0 27 0;
#X connect 24 0 23 0;
#X connect 25 0 24 0;
#X connect 25 1 27 1;
#X connect 26 0 24 0;
#X connect 26 1 27 2;
#X connect 27 0 28 0;
