#N canvas 1169 77 879 553 10;
#X declare -lib Gem;
#X obj 26 177 gemframebuffer;
#X obj 139 9 loadbang;
#X obj 26 232 translateXYZ 0 0 -4;
#X obj 278 357 pix_texture;
#X obj 306 298 loadbang;
#N canvas 70 136 503 739 14_pass_blur 0;
#X obj 213 108 inlet;
#X obj 87 527 outlet;
#X obj 87 161 single_blur 76 0 64 \$0;
#X obj 87 186 single_blur 77 64 0 \$0;
#X obj 87 215 single_blur 78 0 32 \$0;
#X obj 87 239 single_blur 79 32 0 \$0;
#X obj 87 263 single_blur 80 0 16 \$0;
#X obj 87 284 single_blur 81 16 0 \$0;
#X obj 87 305 single_blur 82 0 8 \$0;
#X obj 87 326 single_blur 83 8 0 \$0;
#X obj 88 347 single_blur 84 0 4 \$0;
#X obj 87 368 single_blur 85 4 0 \$0;
#X obj 87 389 single_blur 86 0 2 \$0;
#X obj 87 410 single_blur 87 2 0 \$0;
#X obj 87 430 single_blur 88 0 1 \$0;
#X obj 87 451 single_blur 89 1 0 \$0;
#X obj 192 522 outlet;
#X obj 87 120 inlet;
#X connect 0 0 2 1;
#X connect 2 0 3 0;
#X connect 2 1 3 1;
#X connect 3 0 4 0;
#X connect 3 1 4 1;
#X connect 4 0 5 0;
#X connect 4 1 5 1;
#X connect 5 0 6 0;
#X connect 5 1 6 1;
#X connect 6 0 7 0;
#X connect 6 1 7 1;
#X connect 7 0 8 0;
#X connect 7 1 8 1;
#X connect 8 0 9 0;
#X connect 8 1 9 1;
#X connect 9 0 10 0;
#X connect 9 1 10 1;
#X connect 10 0 11 0;
#X connect 10 1 11 1;
#X connect 11 0 12 0;
#X connect 11 1 12 1;
#X connect 12 0 13 0;
#X connect 12 1 13 1;
#X connect 13 0 14 0;
#X connect 13 1 14 1;
#X connect 14 0 15 0;
#X connect 14 1 15 1;
#X connect 15 0 1 0;
#X connect 15 1 16 0;
#X connect 17 0 2 0;
#X restore 226 209 pd 14_pass_blur;
#X obj 557 245 pack f f;
#X obj 575 205 cos;
#X obj 557 151 / 500;
#X obj 557 171 t f f;
#X obj 610 226 *;
#X obj 628 205 sin;
#X floatatom 596 129 5 0 6.28 0 - - - 0;
#X obj 596 150 t b f;
#X obj 383 89 cnv 15 150 25 empty empty empty 20 12 0 14 #f8fc00 #404040 0;
#X obj 392 95 hsl 128 15 0 1 0 0 empty empty empty -2 -8 0 10 #fcfcfc #000000 #000000 0 1;
#X obj 389 115 / 500;
#X text 389 69 blur;
#X obj 551 91 cnv 15 150 25 empty empty empty 20 12 0 14 #f8fc00 #404040 0;
#X obj 560 97 hsl 128 15 0 1 0 0 empty empty empty -2 -8 0 10 #fcfcfc #000000 #000000 0 1;
#X text 556 67 motion blur;
#X obj 557 226 * 1;
#X text 640 129 angle (radian);
#X obj 663 7 declare -lib Gem;
#X obj 139 50 s \$0-to_fb;
#X obj 40 150 r \$0-to_fb;
#X obj 389 140 s \$0-blur;
#X obj 557 264 s \$0-motion_blur;
#X obj 26 255 pix_texture;
#X obj 26 278 square 4;
#X obj 266 151 inlet;
#X obj 278 439 outlet;
#X obj 370 210 s \$0-reloadshader;
#X obj 370 182 bng 18 250 50 0 empty empty empty 0 -9 0 10 #fcfcfc #000000 #000000;
#X obj 278 384 pix_texture;
#X msg 205 365 texunit 1;
#X obj 278 411 _glsl add;
#X obj 143 390 r \$0-reloadshader;
#X obj 412 373 hsl 153 18 0 2 0 0 empty empty empty -2 -9 0 10 #fcfcfc #000000 #000000 0 1;
#X msg 373 474 tex1 1;
#X msg 416 404 mix1 \$1;
#X obj 508 417 hsl 153 18 0 2 0 0 empty empty empty -2 -9 0 10 #fcfcfc #000000 #000000 0 1;
#X msg 512 448 mix0 \$1;
#X obj 244 418 bng 18 250 50 0 empty empty empty 0 -9 0 10 #fcfcfc #000000 #000000;
#X floatatom 375 398 5 0 0 0 - - - 0;
#X floatatom 575 449 5 0 0 0 - - - 0;
#X msg 437 461 0.75;
#X msg 451 493 0.55;
#X msg 306 319 quality 0 \, rectangle 0;
#X floatatom 319 134 5 0 0 0 - - - 0;
#X msg 139 29 dimen 800 600 \, rectangle 0;
#X obj 671 243 r \$0-recallparams;
#X msg 671 266 0.06;
#X obj 447 50 bng 18 250 50 0 empty empty empty 0 -9 0 10 #fcfcfc #000000 #000000;
#X obj 27 8 inlet;
#X obj 27 31 t a a a;
#X obj 26 126 separator;
#X obj 191 155 separator;
#X obj 206 290 separator;
#X msg 211 61 dimen 1000 500 \, rectangle 0;
#X obj 627 314 hsl 128 15 0 1 0 0 empty empty empty -2 -8 0 10 #fcfcfc #000000 #000000 0 1;
#X obj 624 334 / 500;
#X obj 624 357 t f f;
#X obj 624 380 pack f f;
#X obj 666 356 * 1.5;
#X msg 186 91 dimen 1200 800 \, rectangle 0;
#X connect 0 0 2 0;
#X connect 0 1 5 1;
#X connect 1 0 50 0;
#X connect 2 0 28 0;
#X connect 3 0 34 0;
#X connect 4 0 48 0;
#X connect 4 0 35 0;
#X connect 5 1 3 1;
#X connect 6 0 27 0;
#X connect 7 0 21 1;
#X connect 8 0 9 0;
#X connect 9 0 21 0;
#X connect 9 1 10 0;
#X connect 10 0 6 1;
#X connect 11 0 10 1;
#X connect 12 0 13 0;
#X connect 13 0 8 0;
#X connect 13 1 11 0;
#X connect 13 1 7 0;
#X connect 15 0 16 0;
#X connect 15 0 49 0;
#X connect 16 0 26 0;
#X connect 19 0 8 0;
#X connect 21 0 6 0;
#X connect 25 0 0 0;
#X connect 28 0 29 0;
#X connect 30 0 28 1;
#X connect 30 0 34 1;
#X connect 33 0 32 0;
#X connect 34 0 36 0;
#X connect 35 0 3 0;
#X connect 36 0 31 0;
#X connect 36 1 39 0;
#X connect 36 1 46 0;
#X connect 36 1 47 0;
#X connect 37 0 36 0;
#X connect 38 0 40 0;
#X connect 38 0 44 0;
#X connect 39 0 36 1;
#X connect 40 0 36 1;
#X connect 41 0 42 0;
#X connect 41 0 45 0;
#X connect 42 0 36 1;
#X connect 43 0 36 0;
#X connect 46 0 38 0;
#X connect 47 0 41 0;
#X connect 48 0 3 0;
#X connect 48 0 34 0;
#X connect 50 0 24 0;
#X connect 51 0 52 0;
#X connect 52 0 60 0;
#X connect 54 0 55 0;
#X connect 55 0 58 0;
#X connect 55 1 57 0;
#X connect 55 2 56 0;
#X connect 56 0 0 0;
#X connect 57 0 5 0;
#X connect 58 0 3 0;
#X connect 59 0 24 0;
#X connect 60 0 61 0;
#X connect 61 0 62 0;
#X connect 62 0 63 0;
#X connect 62 1 64 0;
#X connect 63 0 26 0;
#X connect 64 0 63 1;
#X connect 65 0 24 0;
