#N canvas 310 229 681 595 10;
#X obj 205 54 inlet;
#X obj 132 140 gemframebuffer;
#X obj 132 210 translateXYZ 0 0 -4;
#X obj 132 280 pix_texture;
#X obj 132 300 square 4;
#X msg 149 259 quality 1 \, rectangle 0;
#X obj 149 238 loadbang;
#X obj 234 426 outlet;
#X obj 132 190 _glsl blur;
#X obj 153 161 bng 15 250 50 0 empty empty empty 17 7 0 10 #fcfcfc #000000 #000000;
#X obj 354 80 t f f;
#X obj 354 128 pack f f;
#X obj 354 107 * \$2;
#X obj 407 106 * \$3;
#X msg 354 148 distance \$1 \$2;
#X obj 354 34 route float;
#X obj 428 56 unpack f f;
#X obj 547 85 pack f f;
#X obj 547 60 * \$2;
#X obj 547 36 unpack f f;
#X obj 614 60 * \$2;
#X obj 148 114 r \$4-to_fb;
#X obj 354 12 r \$4-blur;
#X obj 546 13 r \$4-motion_blur;
#X obj 235 92 r \$4-reloadshader;
#X obj 269 188 s \$4-recallparams;
#X obj 103 22 inlet;
#X obj 132 78 separator;
#X obj 103 53 t a a;
#X obj 103 342 separator;
#X obj 103 365 outlet;
#X connect 0 0 3 1;
#X connect 1 0 8 0;
#X connect 1 1 7 0;
#X connect 2 0 3 0;
#X connect 3 0 4 0;
#X connect 5 0 3 0;
#X connect 6 0 5 0;
#X connect 8 0 2 0;
#X connect 8 1 25 0;
#X connect 9 0 8 0;
#X connect 10 0 12 0;
#X connect 10 1 13 0;
#X connect 11 0 14 0;
#X connect 12 0 11 0;
#X connect 13 0 11 1;
#X connect 14 0 8 1;
#X connect 15 0 10 0;
#X connect 15 1 16 0;
#X connect 16 0 12 0;
#X connect 16 1 13 0;
#X connect 17 0 14 0;
#X connect 18 0 17 0;
#X connect 19 0 18 0;
#X connect 19 1 20 0;
#X connect 20 0 17 1;
#X connect 21 0 1 0;
#X connect 22 0 15 0;
#X connect 23 0 19 0;
#X connect 24 0 9 0;
#X connect 26 0 28 0;
#X connect 27 0 1 0;
#X connect 28 0 29 0;
#X connect 28 1 27 0;
#X connect 29 0 30 0;
