#N canvas 803 19 527 481 10;
#X declare -path motex;
#X declare -lib zexy;
#X declare -path .. -path Gem -lib Gem -lib iemlib;
#X msg 37 37 frame \$1;
#X floatatom 37 19 5 0 0 0 - - - 0;
#N canvas 797 549 913 354 Gem.init 0;
#X obj 57 6 loadbang;
#X obj 108 204 outlet;
#X msg 108 140 reset \, frame 100 \, lighting 1;
#X msg 42 143 reset;
#X obj 55 48 t b b;
#X msg 9 96 1;
#X obj 7 116 s \$0-gemstart;
#X obj 9 73 del 1000;
#X obj 468 135 t b b;
#X msg 422 183 1;
#X obj 420 203 s \$0-gemstart;
#X obj 422 160 del 1000;
#X obj 471 18 gemkeyname;
#X obj 470 43 pack f s;
#X msg 467 64 \$2 \$1;
#X obj 465 86 route F11;
#X obj 467 107 sel 1;
#X msg 141 116 destroy;
#X obj 32 18 bng 15 250 50 0 empty empty empty 17 7 0 10 #fcfcfc #000000 #000000;
#X msg 130 20 reset \, dimen 2560 960 \, border 0 \, cursor 0 \, frame 30 \, lighting 0 \, offset 0 0 \, view 0 0 3;
#X msg 256 265 view 0 0 20 \, perspec -1 1 -1 1 4 50;
#X msg 513 163 0 \, destroy \, reset \, dimen 1280 480 \, border 1 \, cursor 1 \, frame 30 \, lighting 1 \, offset 0 0 \, view 0 0 20 \, perspec -1 1 -1 1 4 50;
#X obj 14 3 inlet;
#X msg 218 173 view 0 0 4;
#X msg 81 74 reset \, dimen 1920 1080 \, border 0 \, cursor 0 \, frame 50 \, lighting 0 \, offset 0 0 \, view 0 0 4 \, perspec -1 1 -1 1 4 50;
#X msg 187 246 frame 50;
#X connect 0 0 4 0;
#X connect 2 0 1 0;
#X connect 3 0 1 0;
#X connect 4 0 7 0;
#X connect 4 1 24 0;
#X connect 5 0 6 0;
#X connect 7 0 5 0;
#X connect 8 0 11 0;
#X connect 8 1 21 0;
#X connect 9 0 10 0;
#X connect 11 0 9 0;
#X connect 12 0 13 0;
#X connect 12 1 13 1;
#X connect 13 0 14 0;
#X connect 14 0 15 0;
#X connect 15 0 16 0;
#X connect 16 0 8 0;
#X connect 17 0 1 0;
#X connect 18 0 4 0;
#X connect 21 0 1 0;
#X connect 22 0 4 0;
#X connect 23 0 1 0;
#X connect 24 0 1 0;
#X connect 25 0 1 0;
#X restore 102 48 pd Gem.init;
#N canvas 394 488 682 322 gemwin 0;
#X obj 102 122 tgl 15 0 \$0-gemstart \$0-gemstart empty 17 7 0 10 #fcfcfc #000000 #000000 0 1;
#X obj 102 161 r \$0-gemstart;
#X obj 102 182 select 1 0;
#X msg 202 214 destroy;
#X obj 102 239 t a;
#X obj 318 54 inlet;
#X obj 318 255 gemwin;
#X obj 318 100 t a a;
#X obj 318 287 outlet;
#X obj 350 128 route create destroy;
#X obj 350 150 t b;
#X msg 350 172 1;
#X obj 390 150 t b;
#X msg 390 172 0;
#X obj 350 195 t f;
#X msg 350 219 set \$1;
#X text 118 122 rendering;
#X msg 102 214 create :0 \, 1;
#X connect 1 0 2 0;
#X connect 2 0 17 0;
#X connect 2 1 3 0;
#X connect 3 0 4 0;
#X connect 4 0 7 0;
#X connect 5 0 7 0;
#X connect 6 0 8 0;
#X connect 7 0 6 0;
#X connect 7 1 9 0;
#X connect 9 0 10 0;
#X connect 9 1 12 0;
#X connect 10 0 11 0;
#X connect 11 0 14 0;
#X connect 12 0 13 0;
#X connect 13 0 14 0;
#X connect 14 0 15 0;
#X connect 15 0 0 0;
#X connect 17 0 4 0;
#X coords 0 -1 1 1 85 40 1 100 100;
#X restore 37 79 pd gemwin;
#X msg 389 34 \; pd dsp 1;
#X obj 389 14 loadbang;
#N canvas 338 516 450 300 dpms 0;
#X obj 85 57 loadbang;
#X obj 86 25 declare -path motex;
#X obj 85 174 system;
#X msg 85 146 /usr/bin/xset -display :0 dpms force on -dpms;
#X obj 85 120 metro 10000;
#X obj 85 89 tgl 18 0 empty empty empty 0 -9 0 10 #fcfcfc #000000 #000000 0 1;
#X connect 0 0 5 0;
#X connect 3 0 2 0;
#X connect 4 0 3 0;
#X connect 5 0 4 0;
#X restore 397 154 pd dpms;
#X floatatom 155 170 5 0 0 0 - - - 0;
#X obj 101 24 bng 18 250 50 0 empty empty empty 0 -9 0 10 #fcfcfc #000000 #000000;
#N canvas 167 380 398 199 network 0;
#X obj 32 14 netreceive -u 23477;
#X obj 32 37 s fromAudio;
#X obj 32 63 r toAudio;
#X obj 32 86 list prepend send;
#X obj 32 109 list trim;
#X obj 32 132 netsend -u;
#X obj 155 68 loadbang;
#X msg 155 91 connect localhost 23478;
#X connect 0 0 1 0;
#X connect 2 0 3 0;
#X connect 3 0 4 0;
#X connect 4 0 5 0;
#X connect 6 0 7 0;
#X connect 7 0 5 0;
#X restore 397 130 pd network;
#X floatatom 242 195 5 0 0 0 - - - 0;
#X obj 91 198 translateXYZ 0 0 0;
#X obj 125 265 rectangle 16 9;
#X floatatom 217 83 5 0 0 0 - - - 0;
#X obj 217 105 / 100;
#X obj 91 235 scaleXYZ 0.111 0.111 0.111;
#X obj 91 299 Plans;
#N canvas 1 89 450 300 fps 0;
#X obj 46 -61 gemhead;
#X obj 46 -21 realtime;
#X obj 46 -41 t b b;
#X obj 46 41 /;
#X msg 46 21 1000 \$1;
#X obj 46 106 outlet;
#X obj 46 63 + 0.5;
#X obj 46 85 i;
#X obj 118 107 outlet;
#X connect 0 0 2 0;
#X connect 1 0 4 0;
#X connect 2 0 1 0;
#X connect 2 1 1 1;
#X connect 3 0 6 0;
#X connect 3 0 8 0;
#X connect 4 0 3 0;
#X connect 6 0 7 0;
#X connect 7 0 5 0;
#X restore 291 45 pd fps;
#X floatatom 291 68 5 0 0 1 fps - - 0;
#X floatatom 308 129 5 0 0 0 - - - 0;
#X obj 396 99 declare -lib zexy;
#X obj 39 124 gemhead 50;
#X obj 308 106 mavg 100;
#X obj 91 172 separator;
#X obj 39 394 Warnings/Warnings;
#X obj 87 4 declare -path .. -path Gem -lib Gem -lib iemlib;
#X obj 73 330 Diagramme/Diagramme;
#X obj 39 148 t a a a a;
#X obj 56 359 Playlist/Playlist;
#X obj 331 251 r fromAudio;
#X obj 331 274 route MODE;
#X obj 331 297 s MODE;
#X connect 0 0 3 0;
#X connect 1 0 0 0;
#X connect 2 0 3 0;
#X connect 5 0 4 0;
#X connect 7 0 11 1;
#X connect 8 0 2 0;
#X connect 10 0 15 1;
#X connect 10 0 15 2;
#X connect 11 0 15 0;
#X connect 13 0 14 0;
#X connect 14 0 10 0;
#X connect 15 0 16 0;
#X connect 17 0 18 0;
#X connect 17 1 22 0;
#X connect 21 0 27 0;
#X connect 22 0 19 0;
#X connect 23 0 11 0;
#X connect 27 0 24 0;
#X connect 27 1 28 0;
#X connect 27 2 26 0;
#X connect 27 3 23 0;
#X connect 29 0 30 0;
#X connect 30 0 31 0;
