#N canvas 823 254 1112 407 12;
#X obj 104 120 fpar \$1 alpha \$0;
#X obj 362 10 r \$1-\$0;
#X msg 362 224 alpha \$1;
#X obj 520 299 s \$1-\$2;
#X obj 362 165 pow 3;
#X obj 362 195 + 0.01;
#X obj 104 150 fpar \$1 chroma \$0;
#X obj 105 180 fpar \$1 chromaThres \$0;
#X obj 106 211 fpar \$1 chromaFade \$0;
#X msg 433 226 chromaR \$1 \, chromaG \$1 \, chromaB \$1;
#X obj 106 241 fpar \$1 brightness \$0;
#X obj 107 270 fpar \$1 contrast \$0;
#X obj 107 301 fpar \$1 saturation \$0;
#X obj 362 35 route alpha chroma chromaThres chromaFade brightness contrast saturation;
#X msg 516 156 chromaFade \$1;
#X msg 567 129 brightness \$1;
#X msg 685 221 contrast \$1;
#X msg 783 221 saturation \$1;
#X obj 568 80 * 2;
#X obj 568 105 - 1;
#X obj 685 170 * 4;
#X obj 685 195 - 2;
#X obj 784 118 * 2;
#X obj 784 143 - 1;
#X obj 784 168 pow 3;
#X obj 784 193 * 10;
#X msg 465 185 chromaThreshold \$1;
#X connect 1 0 13 0;
#X connect 2 0 3 0;
#X connect 4 0 5 0;
#X connect 5 0 2 0;
#X connect 9 0 3 0;
#X connect 13 0 4 0;
#X connect 13 1 9 0;
#X connect 13 2 26 0;
#X connect 13 3 14 0;
#X connect 13 4 18 0;
#X connect 13 5 20 0;
#X connect 13 6 22 0;
#X connect 14 0 3 0;
#X connect 15 0 3 0;
#X connect 16 0 3 0;
#X connect 17 0 3 0;
#X connect 18 0 19 0;
#X connect 19 0 15 0;
#X connect 20 0 21 0;
#X connect 21 0 16 0;
#X connect 22 0 23 0;
#X connect 23 0 24 0;
#X connect 24 0 25 0;
#X connect 25 0 17 0;
#X connect 26 0 3 0;
#X coords 0 -1 1 1 160 230 1 100 100;
