#N canvas 482 241 1285 693 12;
#X obj 73 74 inlet;
#X obj 73 281 outlet;
#X obj 73 256 pix_coordinate;
#X floatatom 173 192 5 0 0 0 - - - 0;
#X msg 172 226 \$1 0 1 0 1 1 \$1 1;
#X obj 381 61 inlet;
#X obj 381 90 unpack f f;
#X obj 331 80 bng 20 250 50 0 empty empty empty 0 -10 0 12 #fcfcfc #000000 #000000;
#X floatatom 312 135 5 0 0 0 - - - 0;
#X obj 381 481 / 2;
#X obj 381 506 t f f;
#X obj 413 533 * -1;
#X obj 413 558 + 1;
#X obj 479 487 / 2;
#X obj 479 512 t f f;
#X obj 511 539 * -1;
#X obj 511 564 + 1;
#X obj 381 633 pack f f f f, f 19;
#X msg 381 658 \$1 \$3 \$2 \$3 \$2 \$4 \$1 \$4;
#X obj 381 386 * -1;
#X obj 381 412 + 1;
#X obj 479 393 * -1;
#X obj 479 419 + 1;
#X floatatom 468 149 5 0 0 0 - - - 0;
#X msg 180 159 0;
#X msg 434 432 0;
#X obj 381 128 /;
#X obj 331 195 * 9;
#X floatatom 324 235 5 0 0 0 - - - 0;
#X obj 381 256 t f f, f 14;
#X msg 394 179 1 \$1;
#X obj 394 204 /;
#X obj 567 218 t b f;
#X obj 479 326 * 1;
#X obj 381 320 * 1;
#X floatatom 589 179 5 0 0 0 - - - 0;
#X obj 520 196 b;
#X obj 381 596 +;
#X obj 418 596 +;
#X obj 467 599 +;
#X obj 511 599 +;
#X obj 575 494 t b f;
#X obj 657 488 t b f;
#X obj 725 443 unpack f f f;
#X msg 631 104 0 0 1;
#X obj 778 353 pack f f f;
#X obj 799 304 t b f;
#X obj 848 304 t b f;
#X floatatom 728 251 5 0 0 0 - - - 0;
#X floatatom 814 252 5 0 0 0 - - - 0;
#X floatatom 877 252 5 0 0 0 - - - 0;
#X obj 728 84 t b b b, f 34;
#X obj 728 109 random 1e+06;
#X obj 728 134 / 1e+06;
#X obj 844 108 random 1e+06;
#X obj 844 133 / 1e+06;
#X obj 963 109 random 1e+06;
#X obj 963 134 / 1e+06;
#X obj 731 48 bng 20 250 50 0 empty empty empty 0 -10 0 12 #fcfcfc #000000 #000000;
#X obj 728 217 +;
#X obj 761 217 f;
#X obj 844 208 +;
#X obj 877 208 f;
#X obj 963 159 * 0.45;
#X obj 963 184 + 0.09;
#X obj 728 183 * 0.15;
#X obj 844 182 * 0.15;
#X obj 105 115 b;
#X obj 105 165 sel 0;
#X obj 728 159 - 0.5;
#X obj 844 158 - 0.5;
#X obj 331 170 / 16;
#X msg 679 363 0 0 1;
#X floatatom 428 226 5 0 0 0 - - - 0;
#X obj 381 294 max 1;
#X obj 479 299 min 1;
#X obj 541 106 spigot 1;
#X obj 567 39 t f f, f 7;
#X obj 613 65 == 0;
#X obj 567 64 sel 1;
#X obj 630 132 unpack f f f;
#X obj 105 139 random 120;
#X obj 724 403 inertie3D 6 150 200;
#X obj 732 9 r \$1-plan_changecoord;
#X obj 568 14 r \$1-stabilo;
#X obj 1001 349 *;
#X obj 963 221 f;
#X obj 1099 230 *;
#X msg 1156 156 0.9;
#X msg 1162 187 1.1;
#X obj 1098 255 clip 0.1 1.3;
#X obj 1089 53 route x y z;
#X obj 1040 349 *;
#X obj 1099 182 + 1;
#X obj 1089 28 r \$1-plan_offsetcoord;
#X obj 1118 118 * -1;
#X connect 0 0 2 0;
#X connect 0 0 67 0;
#X connect 2 0 1 0;
#X connect 3 0 4 0;
#X connect 4 0 2 1;
#X connect 5 0 6 0;
#X connect 6 0 8 0;
#X connect 6 0 26 0;
#X connect 6 1 23 0;
#X connect 6 1 26 1;
#X connect 9 0 10 0;
#X connect 10 0 37 0;
#X connect 10 1 11 0;
#X connect 11 0 12 0;
#X connect 12 0 38 0;
#X connect 13 0 14 0;
#X connect 14 0 39 0;
#X connect 14 1 15 0;
#X connect 15 0 16 0;
#X connect 16 0 40 0;
#X connect 17 0 18 0;
#X connect 18 0 2 1;
#X connect 19 0 20 0;
#X connect 20 0 9 0;
#X connect 21 0 22 0;
#X connect 22 0 13 0;
#X connect 24 0 3 0;
#X connect 25 0 9 0;
#X connect 25 0 13 0;
#X connect 26 0 71 0;
#X connect 27 0 28 0;
#X connect 27 0 29 0;
#X connect 29 0 74 0;
#X connect 29 1 75 0;
#X connect 30 0 31 0;
#X connect 31 0 29 0;
#X connect 32 0 36 0;
#X connect 32 1 33 1;
#X connect 32 1 34 1;
#X connect 33 0 21 0;
#X connect 34 0 19 0;
#X connect 35 0 32 0;
#X connect 36 0 26 0;
#X connect 37 0 17 0;
#X connect 38 0 17 1;
#X connect 39 0 17 2;
#X connect 40 0 17 3;
#X connect 41 0 36 0;
#X connect 41 1 37 1;
#X connect 41 1 38 1;
#X connect 42 0 36 0;
#X connect 42 1 40 1;
#X connect 42 1 39 1;
#X connect 43 0 41 0;
#X connect 43 1 42 0;
#X connect 43 2 32 0;
#X connect 44 0 80 0;
#X connect 45 0 82 0;
#X connect 46 0 45 0;
#X connect 46 1 45 1;
#X connect 47 0 45 0;
#X connect 47 1 45 2;
#X connect 48 0 45 0;
#X connect 49 0 46 0;
#X connect 50 0 47 0;
#X connect 50 0 85 1;
#X connect 50 0 92 1;
#X connect 51 0 52 0;
#X connect 51 1 54 0;
#X connect 51 2 56 0;
#X connect 52 0 53 0;
#X connect 53 0 69 0;
#X connect 54 0 55 0;
#X connect 55 0 70 0;
#X connect 56 0 57 0;
#X connect 57 0 63 0;
#X connect 58 0 51 0;
#X connect 59 0 60 0;
#X connect 60 0 59 1;
#X connect 60 0 48 0;
#X connect 61 0 62 0;
#X connect 62 0 61 1;
#X connect 62 0 49 0;
#X connect 63 0 64 0;
#X connect 64 0 86 0;
#X connect 65 0 59 0;
#X connect 66 0 61 0;
#X connect 67 0 81 0;
#X connect 68 0 76 0;
#X connect 69 0 65 0;
#X connect 70 0 66 0;
#X connect 71 0 27 0;
#X connect 72 0 43 0;
#X connect 73 0 29 0;
#X connect 74 0 34 0;
#X connect 75 0 33 0;
#X connect 77 0 79 0;
#X connect 77 1 78 0;
#X connect 78 0 76 1;
#X connect 79 0 44 0;
#X connect 80 0 60 0;
#X connect 80 1 62 0;
#X connect 80 2 86 0;
#X connect 81 0 68 0;
#X connect 82 0 43 0;
#X connect 83 0 58 0;
#X connect 84 0 77 0;
#X connect 85 0 59 0;
#X connect 86 0 50 0;
#X connect 86 0 87 1;
#X connect 87 0 90 0;
#X connect 88 0 87 0;
#X connect 89 0 87 0;
#X connect 90 0 86 0;
#X connect 91 0 85 0;
#X connect 91 1 92 0;
#X connect 91 2 95 0;
#X connect 92 0 61 0;
#X connect 93 0 87 0;
#X connect 94 0 91 0;
#X connect 95 0 93 0;
