#N canvas 911 312 389 386 10;
#X obj 105 115 hsl 120 12 0 1 0 0 empty empty empty -2 -8 0 10 #dcdcdc #000000 #000000 0 1;
#X obj 257 123 apf \$1 \$2;
#X obj 245 154 r \$1-fadeTime;
#X obj 245 176 pow 2;
#X obj 245 198 * 10000;
#X obj 102 156 line3;
#X obj 102 133 pack f f;
#X text 32 6 fpar ref name shader;
#X obj 102 240 s \$1-\$3;
#X obj 102 207 list trim;
#X obj 102 184 list prepend \$2;
#X connect 0 0 1 0;
#X connect 0 0 6 0;
#X connect 1 0 0 0;
#X connect 2 0 3 0;
#X connect 3 0 4 0;
#X connect 4 0 6 1;
#X connect 5 0 10 0;
#X connect 6 0 5 0;
#X connect 9 0 8 0;
#X connect 10 0 9 0;
#X coords 0 -1 1 1 130 27 1 100 100;
