#N canvas 238 41 667 413 12;
#X declare -path pmpd;
#X obj 356 237 vsl 15 128 0 127 0 0 empty empty empty 0 -8 0 8 #fcfcfc #000000 #000000 0 0;
#X obj 169 109 hradio 15 1 0 5 empty empty empty 0 -6 0 8 #fcfcfc #000000 #000000 0;
#N canvas 1043 83 445 299 preset 0;
#X msg 36 193 setK 0.05 \, setD 0 \, setD2 30;
#X msg 55 166 setK 1 \, setD 0 \, setD2 30;
#X msg 75 138 setK 1 \, setD 0 \, setD2 200;
#X obj 36 16 inlet;
#X obj 115 254 outlet;
#X obj 36 43 sel 2 1 0 3 4;
#X msg 115 78 setK 3000 \, setD 1000 \, setD2 5000;
#X msg 95 108 setK 150 \, setD 200 \, setD2 5;
#X msg 172 223 setK 150 \, setD 600 \, setD2 10;
#X connect 0 0 4 0;
#X connect 1 0 4 0;
#X connect 2 0 4 0;
#X connect 3 0 5 0;
#X connect 5 0 0 0;
#X connect 5 1 1 0;
#X connect 5 2 2 0;
#X connect 5 3 7 0;
#X connect 5 4 6 0;
#X connect 6 0 4 0;
#X connect 7 0 4 0;
#X connect 8 0 4 0;
#X restore 169 130 pd preset;
#X obj 336 237 vsl 15 128 0 127 0 0 empty empty empty 0 -8 0 8 #fcfcfc #000000 #000000 0 0;
#N canvas 50 110 268 186 stuff 0;
#X obj 13 20 loadbang;
#X obj 48 97 s \$0-link;
#X obj 13 72 t b b;
#X obj 13 123 s \$0-mass;
#X obj 13 45 metro 5;
#X obj 89 20 bng 15 250 50 0 empty empty empty 0 -6 0 8 #fcfcfc #000000 #000000;
#X msg 124 92 reset;
#X msg 89 66 resetL \, resetF;
#X obj 89 40 t b b;
#X connect 0 0 4 0;
#X connect 2 0 3 0;
#X connect 2 1 1 0;
#X connect 4 0 2 0;
#X connect 5 0 8 0;
#X connect 6 0 3 0;
#X connect 7 0 1 0;
#X connect 8 0 7 0;
#X connect 8 1 6 0;
#X restore 75 65 pd stuff;
#X obj 356 167 mass \$0-mass 10000 0;
#X text 268 106 <- differents comportement of the link;
#X msg 100 266 setL 0;
#X obj 169 167 link \$0-link 0 \$1 \$2 \$3;
#X obj 282 55 inlet;
#X obj 426 233 outlet;
#X obj 371 19 declare -path pmpd;
#X obj 566 60 inlet set;
#X msg 566 120 setX \$1;
#X connect 1 0 2 0;
#X connect 2 0 8 0;
#X connect 3 0 8 0;
#X connect 5 0 0 0;
#X connect 5 0 8 1;
#X connect 5 0 10 0;
#X connect 7 0 8 0;
#X connect 8 1 5 0;
#X connect 9 0 8 0;
#X connect 12 0 8 0;
#X connect 12 0 13 0;
#X connect 13 0 5 0;
