#N canvas 238 41 688 413 12;
#X declare -path pmpd;
#X obj 76 116 hradio 15 1 0 5 empty empty empty 0 -6 0 8 #fcfcfc #000000 #000000 0;
#N canvas 1043 83 445 299 preset 0;
#X msg 36 193 setK 0.05 \, setD 0 \, setD2 30;
#X msg 55 166 setK 1 \, setD 0 \, setD2 30;
#X msg 75 138 setK 1 \, setD 0 \, setD2 200;
#X obj 36 16 inlet;
#X obj 115 254 outlet;
#X obj 36 43 sel 2 1 0 3 4;
#X msg 115 78 setK 3000 \, setD 1000 \, setD2 5000;
#X msg 172 223 setK 150 \, setD 600 \, setD2 10;
#X msg 95 108 setK 150 \, setD 500 \, setD2 500;
#X connect 0 0 4 0;
#X connect 1 0 4 0;
#X connect 2 0 4 0;
#X connect 3 0 5 0;
#X connect 5 0 0 0;
#X connect 5 1 1 0;
#X connect 5 2 2 0;
#X connect 5 3 8 0;
#X connect 5 4 6 0;
#X connect 6 0 4 0;
#X connect 7 0 4 0;
#X connect 8 0 4 0;
#X restore 76 137 pd preset;
#N canvas 50 110 268 186 stuff 0;
#X obj 13 20 loadbang;
#X obj 48 97 s \$0-link;
#X obj 13 72 t b b;
#X obj 13 123 s \$0-mass;
#X obj 13 45 metro 5;
#X obj 89 20 bng 15 250 50 0 empty empty empty 0 -6 0 8 #fcfcfc #000000 #000000;
#X msg 124 92 reset;
#X msg 89 66 resetL \, resetF;
#X obj 89 40 t b b;
#X connect 0 0 4 0;
#X connect 2 0 3 0;
#X connect 2 1 1 0;
#X connect 4 0 2 0;
#X connect 5 0 8 0;
#X connect 6 0 3 0;
#X connect 7 0 1 0;
#X connect 8 0 7 0;
#X connect 8 1 6 0;
#X restore 75 65 pd stuff;
#X text 156 115 <- differents comportement of the link;
#X msg 80 236 setL 0;
#X obj 168 44 inlet;
#X obj 356 222 outlet;
#X obj 371 19 declare -path pmpd;
#X obj 566 60 inlet set;
#X obj 169 166 link3D \$0-link 0 \$1 \$2 \$3;
#X obj 356 167 mass3D \$0-mass 10000 0;
#X msg 169 135 position3D \$1 \$2 \$3;
#X obj 356 196 route position3D;
#X msg 566 120 setXYZ \$1 \$2 \$3;
#X msg 532 251 setD \$1;
#X floatatom 540 203 5 0 0 0 - - - 0;
#X connect 0 0 1 0;
#X connect 1 0 9 0;
#X connect 4 0 9 0;
#X connect 5 0 11 0;
#X connect 8 0 13 0;
#X connect 8 0 11 0;
#X connect 9 1 10 0;
#X connect 10 0 9 1;
#X connect 10 0 12 0;
#X connect 11 0 9 0;
#X connect 12 0 6 0;
#X connect 13 0 10 0;
#X connect 14 0 10 0;
#X connect 15 0 14 0;
