#N canvas 550 264 1180 739 12;
#X declare -path nusmuk-utils -path AutoPreset;
#X obj 38 19 inlet;
#X obj 807 289 pix_imageInPlace;
#X msg 727 199 download;
#X msg 728 226 purge;
#N canvas 173 274 618 602 shader 0;
#X obj 37 37 inlet;
#X obj 37 101 outlet;
#N canvas 206 414 804 667 _glsl 0;
#X obj 80 426 glsl_program;
#X obj 343 250 bng 15 250 50 0 empty empty empty 0 -6 0 8 #fcfcfc #000000 #000000;
#N canvas 0 22 450 300 open 0;
#X obj 75 103 openpanel;
#X obj 75 173 outlet;
#X obj 75 127 t b s;
#X msg 105 152 set open \$1;
#X obj 75 80 inlet;
#X connect 0 0 2 0;
#X connect 2 0 1 0;
#X connect 2 1 3 0;
#X connect 3 0 1 0;
#X connect 4 0 0 0;
#X restore 286 249 pd open;
#X msg 33 296 print;
#X obj 166 331 change;
#X msg 34 420 print;
#X obj 80 310 glsl_fragment;
#X floatatom 166 355 2 0 0 0 ID - - 0;
#X obj 184 400 print linking;
#X obj 13 52 inlet;
#X obj 80 462 outlet;
#X msg 286 273 open \$1;
#X obj 422 77 inlet;
#X obj 13 75 route bang;
#X obj 140 83 bng 15 250 50 0 empty empty empty 17 7 0 10 #fcfcfc #000000 #000000;
#X obj 140 109 t b b;
#X msg 140 202 symbol \$1/\$2;
#X obj 255 11 gemhead 1;
#X msg 255 33 1;
#X obj 255 57 change;
#X obj 255 81 t b;
#X obj 161 452 change;
#X obj 161 473 t b;
#X obj 161 496 outlet;
#X msg 166 379 link \$1;
#X msg 93 273 open shaders/\$1.frag;
#X obj 140 133 symbol colorEngine;
#X connect 0 0 10 0;
#X connect 0 1 21 0;
#X connect 1 0 2 0;
#X connect 2 0 11 0;
#X connect 3 0 6 0;
#X connect 4 0 7 0;
#X connect 5 0 0 0;
#X connect 6 0 0 0;
#X connect 6 1 4 0;
#X connect 7 0 24 0;
#X connect 9 0 13 0;
#X connect 11 0 6 0;
#X connect 12 0 0 0;
#X connect 13 0 15 0;
#X connect 13 1 6 0;
#X connect 14 0 15 0;
#X connect 15 0 26 0;
#X connect 16 0 25 0;
#X connect 17 0 18 0;
#X connect 18 0 19 0;
#X connect 19 0 20 0;
#X connect 20 0 15 0;
#X connect 21 0 22 0;
#X connect 22 0 23 0;
#X connect 24 0 0 0;
#X connect 24 0 8 0;
#X connect 25 0 6 0;
#X connect 26 0 25 0;
#X restore 37 70 pd _glsl;
#X obj 90 32 bng 20 250 50 0 empty empty empty 0 -10 0 12 #fcfcfc #000000 #000000;
#X obj 23 144 hsl 128 15 0 10000 0 0 PlanShader-fadeToScene-time PlanShader-fadeToScene-time fadeTime:4.9_sec -2 -8 0 10 #fcfcfc #000000 #000000 0 1;
#X obj 286 535 bng 15 250 50 0 empty empty empty 17 7 0 10 #fc0400 #000000 #000000;
#X obj 25 539 bng 15 250 50 0 empty empty empty 17 7 0 10 #00fc04 #000000 #000000;
#X obj 25 517 loadbang;
#X obj 21 276 colorEngineParams PlanShader shader1;
#X obj 21 162 64patterns PlanShader-fade;
#X obj 25 559 apmasterfile PlanShader PlanShader.txt;
#X obj 315 36 patternFade PlanShader;
#X obj 316 63 apmaster PlanShader;
#X obj 316 278 s PlanShader-fadeToScene;
#X obj 114 30 r PlanShader-shader1;
#X obj 316 91 r \$0-plan_changeshader;
#X obj 314 345 r \$0-plan_stopchangeshader;
#X obj 314 370 s PlanShader-fadeToScene-stop;
#X obj 316 247 pack f 300;
#X obj 316 116 t a b;
#X obj 316 165 f, f 5;
#X msg 348 141 300;
#X obj 316 193 t b f, f 10;
#X obj 316 221 shuffle 0 5 0.4;
#X connect 0 0 2 0;
#X connect 2 0 1 0;
#X connect 3 0 2 0;
#X connect 5 0 10 1;
#X connect 6 0 10 0;
#X connect 7 0 6 0;
#X connect 14 0 2 1;
#X connect 15 0 19 0;
#X connect 16 0 17 0;
#X connect 18 0 13 0;
#X connect 19 0 20 0;
#X connect 19 1 21 0;
#X connect 20 0 22 0;
#X connect 21 0 20 1;
#X connect 22 0 23 0;
#X connect 22 1 18 1;
#X connect 23 0 18 0;
#X restore 47 332 pd shader;
#X obj 907 253 unpack f s;
#X obj 807 318 s, f 20;
#X obj 807 202 r _drawPlan;
#X obj 47 214 drawPlan 0;
#X obj 807 227 list split 3, f 29;
#X obj 102 17 tgl 20 0 empty empty empty 0 -10 0 12 #fcfcfc #000000 #000000 0 1;
#X obj 807 259 list trim;
#X obj 177 362 hradio 15 1 0 16 empty empty empty 0 -10 0 12 #fcfcfc #000000 #000000 0;
#X obj 708 260 t a;
#X obj 47 175 separator;
#X obj 192 213 drawPlan 0;
#X obj 192 172 separator;
#X obj 277 217 hradio 15 1 0 16 empty empty empty 0 -10 0 12 #fcfcfc #000000 #000000 0;
#X obj 221 10 r fromAudio;
#X obj 295 172 random 16;
#X obj 374 173 random 16;
#X obj 487 314 t b b, f 7;
#X msg 487 342 1;
#X obj 532 342 del 50;
#X msg 532 367 0;
#X obj 487 401 change;
#X msg 487 426 Gled \$1;
#X obj 487 451 list prepend IfTreuil;
#X obj 487 476 s toAudio;
#X obj 596 282 metro 250;
#X obj 596 311 t b b, f 7;
#X msg 596 339 1;
#X obj 641 339 del 50;
#X msg 641 364 0;
#X obj 596 398 change;
#X msg 596 422 Dled \$1;
#X obj 38 69 alpha;
#X obj 704 413 text define imSize;
#X obj 38 94 t a a a;
#X obj 6 391 separator;
#N canvas 742 273 832 640 film 1;
#X obj 33 16 inlet;
#X obj 290 410 pix_film;
#X obj 290 484 pix_texture;
#X floatatom 461 479 5 0 0 0 - - - 0;
#X obj 290 188 gemframebuffer;
#X obj 290 249 translateXYZ 0 0 -4;
#X obj 310 31 loadbang;
#X obj 329 348 loadbang;
#X obj 33 480 pix_texture;
#X obj 34 453 colorRGB 1 1 1 0;
#X obj 107 413 hsl 170 20 0 1 0 0 empty empty empty -2 -10 0 12 #fcfcfc #000000 #000000 0 1;
#X obj 300 562 rectangle 4 4;
#X obj 459 177 gemframebuffer;
#X obj 290 279 t a a;
#X obj 326 311 pix_texture;
#X obj 33 109 t a a a, f 28;
#X obj 459 247 pix_texture;
#X obj 459 280 rectangle 4 4;
#X obj 459 209 translateXYZ 0 0 -4;
#X obj 290 219 alpha;
#X obj 63 371 hsl 170 20 0 1 0 0 empty empty empty -2 -10 0 12 #fcfcfc #000000 #000000 0 1;
#X obj 321 438 unpack f;
#X floatatom 321 463 5 0 0 0 - - - 0;
#X obj 579 478 i;
#X obj 579 503 + 1;
#X obj 579 528 mod 9370;
#X obj 619 399 tgl 20 0 empty empty empty 0 -10 0 12 #fcfcfc #000000 #000000 0 1;
#X obj 696 496 bng 20 250 50 0 empty empty empty 0 -10 0 12 #fcfcfc #000000 #000000;
#X obj 579 453 metro 120;
#X obj 696 522 random 8370;
#X obj 695 549 + 1000;
#X floatatom 695 574 5 0 0 0 - - - 0;
#X obj 33 250 alpha;
#X obj 33 151 separator;
#X obj 707 178 loadbang;
#X obj 696 470 sel 0;
#X obj 696 445 random 80;
#X msg 423 27 dimen 1920 1080 \, type RGB32;
#X obj 310 86 t a;
#X msg 591 61 format RGB32;
#X msg 593 87 format RGB;
#X msg 182 32 dimen 1280 720;
#X msg 594 122 type FLOAT;
#X msg 595 149 type BYTE;
#X obj 190 485 inlet;
#N canvas 396 179 1399 633 shader 1;
#X obj 37 37 inlet;
#X obj 37 101 outlet;
#N canvas 206 414 804 667 _glsl 0;
#X obj 80 426 glsl_program;
#X obj 343 250 bng 15 250 50 0 empty empty empty 0 -6 0 8 #fcfcfc #000000 #000000;
#N canvas 0 22 450 300 open 0;
#X obj 75 103 openpanel;
#X obj 75 173 outlet;
#X obj 75 127 t b s;
#X msg 105 152 set open \$1;
#X obj 75 80 inlet;
#X connect 0 0 2 0;
#X connect 2 0 1 0;
#X connect 2 1 3 0;
#X connect 3 0 1 0;
#X connect 4 0 0 0;
#X restore 286 249 pd open;
#X msg 33 296 print;
#X obj 166 331 change;
#X msg 34 420 print;
#X obj 80 310 glsl_fragment;
#X floatatom 166 355 2 0 0 0 ID - - 0;
#X obj 184 400 print linking;
#X obj 13 52 inlet;
#X obj 80 462 outlet;
#X msg 286 273 open \$1;
#X obj 422 77 inlet;
#X obj 13 75 route bang;
#X obj 140 83 bng 15 250 50 0 empty empty empty 17 7 0 10 #fcfcfc #000000 #000000;
#X obj 140 109 t b b;
#X msg 140 202 symbol \$1/\$2;
#X obj 255 11 gemhead 1;
#X msg 255 33 1;
#X obj 255 57 change;
#X obj 255 81 t b;
#X obj 161 452 change;
#X obj 161 473 t b;
#X obj 161 496 outlet;
#X msg 166 379 link \$1;
#X msg 93 273 open shaders/\$1.frag;
#X obj 140 133 symbol colorEngine;
#X connect 0 0 10 0;
#X connect 0 1 21 0;
#X connect 1 0 2 0;
#X connect 2 0 11 0;
#X connect 3 0 6 0;
#X connect 4 0 7 0;
#X connect 5 0 0 0;
#X connect 6 0 0 0;
#X connect 6 1 4 0;
#X connect 7 0 24 0;
#X connect 9 0 13 0;
#X connect 11 0 6 0;
#X connect 12 0 0 0;
#X connect 13 0 15 0;
#X connect 13 1 6 0;
#X connect 14 0 15 0;
#X connect 15 0 26 0;
#X connect 16 0 25 0;
#X connect 17 0 18 0;
#X connect 18 0 19 0;
#X connect 19 0 20 0;
#X connect 20 0 15 0;
#X connect 21 0 22 0;
#X connect 22 0 23 0;
#X connect 24 0 0 0;
#X connect 24 0 8 0;
#X connect 25 0 6 0;
#X connect 26 0 25 0;
#X restore 37 70 pd _glsl;
#X obj 285 239 t a;
#X obj 324 108 hsl 128 15 0 1 0 0 empty empty empty -2 -8 0 10 #fc0400 #000000 #000000 0 1;
#X obj 62 216 tgl 15 0 empty empty empty 17 7 0 10 #fcfcfc #000000 #000000 0 1;
#X obj 325 29 hsl 128 15 0.01 1 1 0 empty empty empty -2 -8 0 10 #fcfcfc #000000 #000000 0 1;
#X obj 330 177 hsl 128 15 0 1 0 0 empty empty empty -2 -8 0 10 #7c7c7c #000000 #000000 0 1;
#X obj 68 268 tgl 15 0 empty empty empty 17 7 0 10 #fcfcfc #000000 #000000 0 1;
#X obj 588 179 hsl 128 15 0 1 0 0 empty empty empty -2 -8 0 10 #fcfcfc #000000 #000000 0 1;
#X obj 588 221 hsl 128 15 0 1 0 0 empty empty empty -2 -8 0 10 #fcfcfc #000000 #000000 0 1;
#X obj 321 282 hsl 128 15 -1 1 0 0 empty empty empty -2 -8 0 10 #fcfcfc #000000 #000000 0 1;
#X obj 56 320 tgl 15 0 empty empty empty 17 7 0 10 #fcfcfc #000000 #000000 0 1;
#X obj 458 281 hsl 128 15 -2 2 0 0 empty empty empty -2 -8 0 10 #fcfcfc #000000 #000000 0 1;
#X floatatom 455 301 5 0 0 0 - - - 0;
#X floatatom 318 302 5 0 0 0 - - - 0;
#X obj 597 280 hsl 128 15 -10 10 0 0 empty empty empty -2 -8 0 10 #fcfcfc #000000 #000000 0 1;
#X floatatom 594 300 5 0 0 0 - - - 0;
#X msg 322 48 alpha \$1;
#X msg 62 233 colorOn \$1;
#X msg 68 285 chromaKeyOn \$1;
#X msg 585 199 chromaThreshold \$1;
#X msg 585 239 chromaFade \$1;
#X msg 56 337 bcsOn \$1;
#X msg 318 319 brightness \$1;
#X msg 455 321 contrast \$1;
#X msg 594 320 saturation \$1;
#X obj 131 32 r toShader;
#X obj 90 32 bng 20 250 50 0 empty empty empty 0 -10 0 12 #fcfcfc #000000 #000000;
#X msg 321 126 colorR \$1;
#X msg 327 196 chromaR \$1 \, chromaG \$1 \, chromaB \$1;
#X floatatom 254 87 5 0 0 0 - - - 0;
#X obj 781 25 hsl 128 15 0 10000 0 0 FilmMaster-fadeToScene-time FilmMaster-fadeToScene-time fadeTime:0_sec -2 -8 0 10 #fcfcfc #000000 #000000 0 1;
#X obj 777 334 apmaster FilmMaster;
#X obj 776 307 patternFade FilmMaster;
#X obj 793 54 64patterns FilmMaster-fade;
#X obj 1076 191 colorEngineParams FilmMaster shader1;
#X obj 510 57 r FilmMaster-shader1;
#X obj 1037 241 bng 15 250 50 0 empty empty empty 17 7 0 10 #fc0400 #000000 #000000;
#X obj 776 245 bng 15 250 50 0 empty empty empty 17 7 0 10 #00fc04 #000000 #000000;
#X obj 776 223 loadbang;
#X obj 776 265 apmasterfile FilmMaster FilmMaster.txt;
#X obj 768 389 loadbang;
#X obj 768 414 tgl 20 0 empty empty empty 0 -10 0 12 #fcfcfc #000000 #000000 0 1;
#X obj 768 439 metro 100;
#X obj 768 489 sel 0;
#X obj 768 565 s FilmMaster-fadeToScene;
#X floatatom 672 517 5 0 0 0 - - - 0;
#X obj 768 514 random 13;
#X obj 768 464 random 40;
#X msg 768 542 \$1 8500;
#X connect 0 0 2 0;
#X connect 2 0 1 0;
#X connect 3 0 2 1;
#X connect 4 0 29 0;
#X connect 5 0 19 0;
#X connect 6 0 18 0;
#X connect 6 0 31 0;
#X connect 7 0 30 0;
#X connect 8 0 20 0;
#X connect 9 0 21 0;
#X connect 10 0 22 0;
#X connect 11 0 15 0;
#X connect 12 0 23 0;
#X connect 13 0 14 0;
#X connect 14 0 25 0;
#X connect 15 0 24 0;
#X connect 16 0 17 0;
#X connect 17 0 26 0;
#X connect 18 0 3 0;
#X connect 19 0 3 0;
#X connect 20 0 3 0;
#X connect 21 0 3 0;
#X connect 22 0 3 0;
#X connect 23 0 3 0;
#X connect 24 0 3 0;
#X connect 25 0 3 0;
#X connect 26 0 3 0;
#X connect 27 0 2 1;
#X connect 28 0 2 0;
#X connect 29 0 3 0;
#X connect 30 0 3 0;
#X connect 37 0 3 0;
#X connect 38 0 41 1;
#X connect 39 0 41 0;
#X connect 40 0 39 0;
#X connect 42 0 43 0;
#X connect 43 0 44 0;
#X connect 44 0 49 0;
#X connect 45 0 48 0;
#X connect 48 0 50 0;
#X connect 48 0 47 0;
#X connect 49 0 45 0;
#X connect 50 0 46 0;
#X restore 290 515 pd shader;
#X floatatom 579 567 5 0 0 0 - - - 0;
#X msg 310 59 dimen 1280 720 \, type FLOAT;
#X obj 33 561 rectangle 16 9.01;
#X obj 33 63 spigot;
#X obj 190 510 != 0;
#X msg 329 373 open ../../data/borne/film/TerrilLent.mov;
#X obj 209 149 separator;
#X obj 342 143 separator;
#X connect 0 0 49 0;
#X connect 1 0 2 0;
#X connect 1 1 21 0;
#X connect 2 0 45 0;
#X connect 3 0 1 1;
#X connect 4 0 19 0;
#X connect 4 1 8 1;
#X connect 4 1 16 1;
#X connect 5 0 13 0;
#X connect 6 0 47 0;
#X connect 7 0 51 0;
#X connect 8 0 48 0;
#X connect 9 0 8 0;
#X connect 10 0 9 4;
#X connect 12 0 18 0;
#X connect 12 1 14 1;
#X connect 13 0 1 0;
#X connect 13 1 14 0;
#X connect 14 0 11 0;
#X connect 15 0 33 0;
#X connect 15 1 52 0;
#X connect 15 2 53 0;
#X connect 16 0 17 0;
#X connect 18 0 16 0;
#X connect 19 0 5 0;
#X connect 20 0 9 2;
#X connect 20 0 9 3;
#X connect 21 0 22 0;
#X connect 23 0 24 0;
#X connect 24 0 25 0;
#X connect 25 0 23 1;
#X connect 25 0 1 1;
#X connect 25 0 46 0;
#X connect 26 0 28 0;
#X connect 27 0 29 0;
#X connect 28 0 23 0;
#X connect 28 0 36 0;
#X connect 29 0 30 0;
#X connect 30 0 23 1;
#X connect 30 0 31 0;
#X connect 32 0 9 0;
#X connect 33 0 32 0;
#X connect 34 0 26 0;
#X connect 35 0 27 0;
#X connect 36 0 35 0;
#X connect 37 0 38 0;
#X connect 38 0 12 0;
#X connect 38 0 4 0;
#X connect 39 0 38 0;
#X connect 40 0 38 0;
#X connect 41 0 38 0;
#X connect 42 0 38 0;
#X connect 43 0 38 0;
#X connect 44 0 9 4;
#X connect 44 0 50 0;
#X connect 45 0 11 0;
#X connect 47 0 38 0;
#X connect 49 0 15 0;
#X connect 50 0 49 1;
#X connect 51 0 1 0;
#X connect 52 0 4 0;
#X connect 53 0 12 0;
#X restore 6 452 pd film;
#X obj 6 422 alpha;
#X obj 47 356 rectangle 16 -9;
#X obj 83 452 hsl 170 20 0 1 0 0 empty empty empty -2 -10 0 12 #fcfcfc #000000 #000000 0 1;
#X obj 110 395 r fromAudio;
#X obj 110 420 route presenceFilm;
#X obj 47 281 translateXYZ 0 0 0;
#X obj 192 280 translateXYZ 0 0 0;
#X obj 185 595 hsl 170 20 0 1 0 0 empty empty empty -2 -10 0 12 #fcfcfc #000000 #000000 0 1;
#X obj 183 646 t f f;
#X obj 222 672 - 18;
#X obj 182 621 * 18;
#X obj 306 393 bng 20 250 50 0 empty empty empty 0 -10 0 12 #fcfcfc #000000 #000000;
#X obj 306 418 tgl 20 0 empty empty empty 0 -10 0 12 #fcfcfc #000000 #000000 0 1;
#X obj 384 515 sel 0 1;
#X obj 183 671 -;
#X obj 250 637 unpack f f;
#X msg 381 551 0 18;
#X msg 420 551 18 0;
#X obj 291 546 line3;
#X obj 306 443 t b f b;
#X obj 292 496 f 250;
#X obj 291 113 metro 350;
#X obj 579 176 tgl 20 0 empty empty empty 0 -10 0 12 #fcfcfc #000000 #000000 0 1;
#X obj 579 201 s \$0-stabilo;
#X msg 290 520 0 \, 1.001 \$1;
#X obj 704 357 loadbang;
#X obj 789 13 declare -path nusmuk-utils -path AutoPreset;
#X obj 703 605 s \$0-plan_changecoord;
#X obj 703 454 r fromAudio;
#X obj 703 479 route plan;
#X obj 138 75 route nextPlan stabilo;
#X obj 908 558 s \$0-plan_changeshader;
#X obj 579 78 once;
#X obj 579 46 gemhead;
#X obj 47 146 t a a, f 21;
#X obj 80 477 != 1;
#X obj 47 120 spigot 1;
#X msg 727 173 preload ../../data/borne/plans/links/im*.jpg 15 \, download;
#X msg 704 385 clear \, read -c ../../data/borne/plans/links/sizes.txt;
#X obj 378 29 r MODE;
#X msg 378 79 1;
#X msg 438 80 0;
#X obj 38 44 spigot 0;
#X obj 378 54 route Plans;
#X obj 47 242 coords \$0;
#X obj 192 241 coords \$0;
#X obj 805 581 s \$0-plan_offsetcoord;
#X msg 579 103 1 \, 0;
#X obj 703 504 route changecoord offsetcoord changeshader stopchangeshader;
#X obj 948 531 s \$0-plan_stopchangeshader;
#X obj 968 467 bng 20 250 50 0 empty empty empty 0 -10 0 12 #fcfcfc #000000 #000000;
#X connect 0 0 83 0;
#X connect 1 0 6 0;
#X connect 2 0 13 0;
#X connect 3 0 13 0;
#X connect 4 0 42 0;
#X connect 5 0 1 1;
#X connect 5 1 6 1;
#X connect 7 0 9 0;
#X connect 8 0 85 0;
#X connect 8 1 85 1;
#X connect 9 0 11 0;
#X connect 9 1 5 0;
#X connect 10 0 83 1;
#X connect 11 0 1 0;
#X connect 12 0 8 1;
#X connect 13 0 1 0;
#X connect 14 0 8 0;
#X connect 15 0 86 0;
#X connect 15 1 86 1;
#X connect 16 0 15 0;
#X connect 17 0 15 1;
#X connect 18 0 71 0;
#X connect 19 0 8 1;
#X connect 20 0 17 0;
#X connect 21 0 22 0;
#X connect 21 1 23 0;
#X connect 22 0 25 0;
#X connect 23 0 24 0;
#X connect 24 0 25 0;
#X connect 25 0 26 0;
#X connect 26 0 27 0;
#X connect 27 0 28 0;
#X connect 29 0 30 0;
#X connect 30 0 31 0;
#X connect 30 1 32 0;
#X connect 31 0 34 0;
#X connect 32 0 33 0;
#X connect 33 0 34 0;
#X connect 34 0 35 0;
#X connect 35 0 27 0;
#X connect 36 0 38 0;
#X connect 38 0 39 0;
#X connect 38 1 77 0;
#X connect 39 0 41 0;
#X connect 41 0 40 0;
#X connect 43 0 40 1;
#X connect 43 0 76 0;
#X connect 44 0 45 0;
#X connect 45 0 43 0;
#X connect 46 0 4 0;
#X connect 47 0 4 0;
#X connect 48 0 51 0;
#X connect 49 0 55 0;
#X connect 49 1 50 0;
#X connect 50 0 47 2;
#X connect 51 0 49 0;
#X connect 52 0 53 0;
#X connect 53 0 60 0;
#X connect 54 0 57 0;
#X connect 54 0 20 0;
#X connect 54 1 58 0;
#X connect 54 1 19 0;
#X connect 55 0 46 2;
#X connect 56 0 55 1;
#X connect 56 1 50 1;
#X connect 57 0 56 0;
#X connect 58 0 56 0;
#X connect 59 0 48 0;
#X connect 60 0 61 0;
#X connect 60 1 54 0;
#X connect 61 0 65 0;
#X connect 62 0 21 0;
#X connect 63 0 64 0;
#X connect 65 0 59 0;
#X connect 66 0 79 0;
#X connect 69 0 70 0;
#X connect 70 0 89 0;
#X connect 71 0 52 0;
#X connect 71 1 63 0;
#X connect 73 0 78 0;
#X connect 73 0 88 0;
#X connect 73 0 52 0;
#X connect 74 0 73 0;
#X connect 75 0 14 0;
#X connect 75 1 16 0;
#X connect 76 0 77 1;
#X connect 77 0 75 0;
#X connect 78 0 13 0;
#X connect 79 0 37 0;
#X connect 80 0 84 0;
#X connect 81 0 10 0;
#X connect 82 0 10 0;
#X connect 83 0 36 0;
#X connect 84 0 81 0;
#X connect 84 1 82 0;
#X connect 85 0 46 0;
#X connect 86 0 47 0;
#X connect 88 0 63 0;
#X connect 89 0 68 0;
#X connect 89 1 87 0;
#X connect 89 2 72 0;
#X connect 89 3 90 0;
#X connect 91 0 90 0;
