#N canvas 567 94 1149 739 12;
#X declare -path nusmuk-utils -path AutoPreset;
#X obj 38 19 inlet;
#X obj 808 156 pix_imageInPlace;
#X msg 728 66 download;
#X msg 729 93 purge;
#X obj 691 6 loadbang;
#N canvas 312 191 562 602 shader 0;
#X obj 37 37 inlet;
#X obj 37 101 outlet;
#N canvas 206 414 804 667 _glsl 0;
#X obj 80 426 glsl_program;
#X obj 343 250 bng 15 250 50 0 empty empty empty 0 -6 0 8 #fcfcfc #000000 #000000;
#N canvas 0 22 450 300 open 0;
#X obj 75 103 openpanel;
#X obj 75 173 outlet;
#X obj 75 127 t b s;
#X msg 105 152 set open \$1;
#X obj 75 80 inlet;
#X connect 0 0 2 0;
#X connect 2 0 1 0;
#X connect 2 1 3 0;
#X connect 3 0 1 0;
#X connect 4 0 0 0;
#X restore 286 249 pd open;
#X msg 33 296 print;
#X obj 166 331 change;
#X msg 34 420 print;
#X obj 80 310 glsl_fragment;
#X floatatom 166 355 2 0 0 0 ID - - 0;
#X obj 184 400 print linking;
#X obj 13 52 inlet;
#X obj 80 462 outlet;
#X msg 286 273 open \$1;
#X obj 422 77 inlet;
#X obj 13 75 route bang;
#X obj 140 83 bng 15 250 50 0 empty empty empty 17 7 0 10 #fcfcfc #000000 #000000;
#X obj 140 109 t b b;
#X msg 140 202 symbol \$1/\$2;
#X obj 255 11 gemhead 1;
#X msg 255 33 1;
#X obj 255 57 change;
#X obj 255 81 t b;
#X obj 161 452 change;
#X obj 161 473 t b;
#X obj 161 496 outlet;
#X msg 166 379 link \$1;
#X msg 93 273 open shaders/\$1.frag;
#X obj 140 133 symbol colorEngine;
#X connect 0 0 10 0;
#X connect 0 1 21 0;
#X connect 1 0 2 0;
#X connect 2 0 11 0;
#X connect 3 0 6 0;
#X connect 4 0 7 0;
#X connect 5 0 0 0;
#X connect 6 0 0 0;
#X connect 6 1 4 0;
#X connect 7 0 24 0;
#X connect 9 0 13 0;
#X connect 11 0 6 0;
#X connect 12 0 0 0;
#X connect 13 0 15 0;
#X connect 13 1 6 0;
#X connect 14 0 15 0;
#X connect 15 0 26 0;
#X connect 16 0 25 0;
#X connect 17 0 18 0;
#X connect 18 0 19 0;
#X connect 19 0 20 0;
#X connect 20 0 15 0;
#X connect 21 0 22 0;
#X connect 22 0 23 0;
#X connect 24 0 0 0;
#X connect 24 0 8 0;
#X connect 25 0 6 0;
#X connect 26 0 25 0;
#X restore 37 70 pd _glsl;
#X obj 90 32 bng 20 250 50 0 empty empty empty 0 -10 0 12 #fcfcfc #000000 #000000;
#X obj 23 144 hsl 128 15 0 10000 0 0 PlanShader-fadeToScene-time PlanShader-fadeToScene-time fadeTime:0_sec -2 -8 0 10 #fcfcfc #000000 #000000 0 1;
#X obj 286 535 bng 15 250 50 0 empty empty empty 17 7 0 10 #fc0400 #000000 #000000;
#X obj 25 539 bng 15 250 50 0 empty empty empty 17 7 0 10 #00fc04 #000000 #000000;
#X obj 25 517 loadbang;
#X obj 316 93 loadbang;
#X obj 316 118 tgl 20 0 empty empty empty 0 -10 0 12 #fcfcfc #000000 #000000 0 1;
#X obj 316 143 metro 100;
#X obj 316 193 sel 0;
#X obj 21 276 colorEngineParams PlanShader shader1;
#X obj 21 162 64patterns PlanShader-fade;
#X obj 25 559 apmasterfile PlanShader PlanShader.txt;
#X obj 315 36 patternFade PlanShader;
#X obj 316 63 apmaster PlanShader;
#X obj 316 269 s PlanShader-fadeToScene;
#X obj 114 30 r PlanShader-shader1;
#X obj 316 168 random 20;
#X obj 316 218 random 6;
#X obj 390 143 r \$0-plan_changeshader;
#X msg 316 246 \$1 300;
#X connect 0 0 2 0;
#X connect 2 0 1 0;
#X connect 3 0 2 0;
#X connect 5 0 14 1;
#X connect 6 0 14 0;
#X connect 7 0 6 0;
#X connect 9 0 10 0;
#X connect 10 0 19 0;
#X connect 11 0 20 0;
#X connect 18 0 2 1;
#X connect 19 0 11 0;
#X connect 20 0 22 0;
#X connect 21 0 20 0;
#X connect 22 0 17 0;
#X restore 47 332 pd shader;
#N canvas 453 283 772 561 tests 0;
#X obj 344 32 loadbang;
#X obj 440 169 file glob;
#X obj 440 292 text set imList 1e+06;
#X msg 537 84 clear;
#X obj 411 32 bng 20 250 50 0 empty empty empty 0 -10 0 12 #fcfcfc #000000 #000000;
#X obj 323 91 text size imList;
#X floatatom 323 116 5 0 0 0 - - - 0;
#X obj 344 58 t b b b, f 28;
#X obj 440 195 list split 1;
#X obj 78 87 text get imList;
#X obj 78 43 hradio 15 1 0 16 empty empty empty 0 -10 0 12 #fcfcfc #000000 #000000 0;
#X floatatom 78 63 5 0 0 0 - - - 0;
#X listbox 161 140 20 0 0 0 - - - 0;
#X obj 537 112 text define imList;
#X msg 440 138 symbol GemPart/img/*.jpg;
#X obj 78 144 pix_image;
#X obj 78 169 pix_texture;
#X obj 440 228 file splitname;
#X obj 440 256 list split 1;
#X msg 78 112 open img/\$1;
#X obj 78 194 rectangle 16 9;
#X connect 0 0 7 0;
#X connect 1 0 8 0;
#X connect 3 0 13 0;
#X connect 4 0 7 0;
#X connect 5 0 6 0;
#X connect 7 0 5 0;
#X connect 7 1 14 0;
#X connect 7 2 3 0;
#X connect 8 0 17 0;
#X connect 9 0 19 0;
#X connect 9 0 12 0;
#X connect 10 0 11 0;
#X connect 11 0 9 0;
#X connect 14 0 1 0;
#X connect 15 0 16 0;
#X connect 16 0 20 0;
#X connect 17 0 18 0;
#X connect 18 1 2 0;
#X connect 19 0 15 0;
#X restore 532 15 pd tests;
#X obj 908 120 unpack f s;
#X obj 808 185 s, f 20;
#X obj 808 69 r _drawPlan;
#X obj 47 214 drawPlan 0;
#X obj 808 94 list split 3, f 29;
#X obj 97 28 tgl 20 0 empty empty empty 0 -10 0 12 #fcfcfc #000000 #000000 0 1;
#X obj 808 126 list trim;
#X obj 177 362 hradio 15 1 0 16 empty empty empty 0 -10 0 12 #fcfcfc #000000 #000000 0;
#X obj 709 127 t a;
#X obj 47 175 separator;
#X obj 192 213 drawPlan 0;
#X obj 192 172 separator;
#X obj 277 217 hradio 15 1 0 16 empty empty empty 0 -10 0 12 #fcfcfc #000000 #000000 0;
#X obj 221 10 r fromAudio;
#X obj 295 172 random 16;
#X obj 386 176 random 16;
#X obj 487 314 t b b, f 7;
#X msg 487 342 1;
#X obj 532 342 del 50;
#X msg 532 367 0;
#X obj 487 401 change;
#X msg 487 426 Gled \$1;
#X obj 487 451 list prepend IfTreuil;
#X obj 487 476 s toAudio;
#X obj 596 282 metro 250;
#X obj 596 311 t b b, f 7;
#X msg 596 339 1;
#X obj 641 339 del 50;
#X msg 641 364 0;
#X obj 596 398 change;
#X msg 596 422 Dled \$1;
#X obj 547 542 rectangle 16 -9;
#X obj 38 69 alpha;
#N canvas 765 256 1134 772 coords 0;
#X obj 73 74 inlet;
#X obj 73 281 outlet;
#X obj 73 256 pix_coordinate;
#X floatatom 173 192 5 0 0 0 - - - 0;
#X msg 172 226 \$1 0 1 0 1 1 \$1 1;
#X obj 381 61 inlet;
#X obj 381 90 unpack f f;
#X obj 331 80 bng 20 250 50 0 empty empty empty 0 -10 0 12 #fcfcfc #000000 #000000;
#X floatatom 312 135 5 0 0 0 - - - 0;
#X obj 381 481 / 2;
#X obj 381 506 t f f;
#X obj 413 533 * -1;
#X obj 413 558 + 1;
#X obj 479 487 / 2;
#X obj 479 512 t f f;
#X obj 511 539 * -1;
#X obj 511 564 + 1;
#X obj 381 633 pack f f f f, f 19;
#X msg 381 658 \$1 \$3 \$2 \$3 \$2 \$4 \$1 \$4;
#X obj 381 386 * -1;
#X obj 381 412 + 1;
#X obj 479 393 * -1;
#X obj 479 419 + 1;
#X floatatom 468 149 5 0 0 0 - - - 0;
#X msg 180 159 0;
#X msg 434 432 0;
#X obj 381 128 /;
#X obj 331 195 * 9;
#X floatatom 324 235 5 0 0 0 - - - 0;
#X obj 381 256 t f f, f 14;
#X msg 394 179 1 \$1;
#X obj 394 204 /;
#X obj 567 218 t b f;
#X obj 479 326 * 1;
#X obj 381 320 * 1;
#X floatatom 589 179 5 0 0 0 - - - 0;
#X obj 520 196 b;
#X obj 381 596 +;
#X obj 418 596 +;
#X obj 467 599 +;
#X obj 511 599 +;
#X obj 575 494 t b f;
#X obj 657 488 t b f;
#X obj 725 443 unpack f f f;
#X msg 631 104 0 0 1;
#X obj 778 353 pack f f f;
#X obj 799 304 t b f;
#X obj 848 304 t b f;
#X floatatom 728 251 5 0 0 0 - - - 0;
#X floatatom 814 252 5 0 0 0 - - - 0;
#X floatatom 877 252 5 0 0 0 - - - 0;
#X obj 728 84 t b b b, f 34;
#X obj 728 109 random 1e+06;
#X obj 728 134 / 1e+06;
#X obj 844 108 random 1e+06;
#X obj 844 133 / 1e+06;
#X obj 963 109 random 1e+06;
#X obj 963 134 / 1e+06;
#X obj 731 48 bng 20 250 50 0 empty empty empty 0 -10 0 12 #fcfcfc #000000 #000000;
#X obj 728 217 +;
#X obj 761 217 f;
#X obj 844 208 +;
#X obj 877 208 f;
#X obj 963 159 * 0.45;
#X obj 963 184 + 0.09;
#X obj 728 183 * 0.15;
#X obj 844 182 * 0.15;
#X obj 764 44 inlet;
#X obj 105 115 b;
#X obj 105 165 sel 0;
#X obj 728 159 - 0.5;
#X obj 844 158 - 0.5;
#X obj 331 170 / 16;
#X msg 679 363 0 0 1;
#X floatatom 428 226 5 0 0 0 - - - 0;
#X obj 381 294 max 1;
#X obj 479 299 min 1;
#X obj 541 106 spigot 1;
#X obj 567 14 r \$0-stabilo;
#X obj 567 39 t f f, f 7;
#X obj 613 65 == 0;
#X obj 567 64 sel 1;
#X obj 630 132 unpack f f f;
#X obj 105 139 random 120;
#X obj 732 9 r \$0-plan_changecoord;
#X obj 724 403 inertie3D 6 150 200;
#X connect 0 0 2 0;
#X connect 0 0 68 0;
#X connect 2 0 1 0;
#X connect 3 0 4 0;
#X connect 4 0 2 1;
#X connect 5 0 6 0;
#X connect 6 0 8 0;
#X connect 6 0 26 0;
#X connect 6 1 23 0;
#X connect 6 1 26 1;
#X connect 9 0 10 0;
#X connect 10 0 37 0;
#X connect 10 1 11 0;
#X connect 11 0 12 0;
#X connect 12 0 38 0;
#X connect 13 0 14 0;
#X connect 14 0 39 0;
#X connect 14 1 15 0;
#X connect 15 0 16 0;
#X connect 16 0 40 0;
#X connect 17 0 18 0;
#X connect 18 0 2 1;
#X connect 19 0 20 0;
#X connect 20 0 9 0;
#X connect 21 0 22 0;
#X connect 22 0 13 0;
#X connect 24 0 3 0;
#X connect 25 0 9 0;
#X connect 25 0 13 0;
#X connect 26 0 72 0;
#X connect 27 0 28 0;
#X connect 27 0 29 0;
#X connect 29 0 75 0;
#X connect 29 1 76 0;
#X connect 30 0 31 0;
#X connect 31 0 29 0;
#X connect 32 0 36 0;
#X connect 32 1 33 1;
#X connect 32 1 34 1;
#X connect 33 0 21 0;
#X connect 34 0 19 0;
#X connect 35 0 32 0;
#X connect 36 0 26 0;
#X connect 37 0 17 0;
#X connect 38 0 17 1;
#X connect 39 0 17 2;
#X connect 40 0 17 3;
#X connect 41 0 36 0;
#X connect 41 1 37 1;
#X connect 41 1 38 1;
#X connect 42 0 36 0;
#X connect 42 1 40 1;
#X connect 42 1 39 1;
#X connect 43 0 41 0;
#X connect 43 1 42 0;
#X connect 43 2 32 0;
#X connect 44 0 82 0;
#X connect 45 0 85 0;
#X connect 46 0 45 0;
#X connect 46 1 45 1;
#X connect 47 0 45 0;
#X connect 47 1 45 2;
#X connect 48 0 45 0;
#X connect 49 0 46 0;
#X connect 50 0 47 0;
#X connect 51 0 52 0;
#X connect 51 1 54 0;
#X connect 51 2 56 0;
#X connect 52 0 53 0;
#X connect 53 0 70 0;
#X connect 54 0 55 0;
#X connect 55 0 71 0;
#X connect 56 0 57 0;
#X connect 57 0 63 0;
#X connect 58 0 51 0;
#X connect 59 0 60 0;
#X connect 60 0 59 1;
#X connect 60 0 48 0;
#X connect 61 0 62 0;
#X connect 62 0 61 1;
#X connect 62 0 49 0;
#X connect 63 0 64 0;
#X connect 64 0 50 0;
#X connect 65 0 59 0;
#X connect 66 0 61 0;
#X connect 67 0 51 0;
#X connect 68 0 83 0;
#X connect 69 0 77 0;
#X connect 70 0 65 0;
#X connect 71 0 66 0;
#X connect 72 0 27 0;
#X connect 73 0 43 0;
#X connect 74 0 29 0;
#X connect 75 0 34 0;
#X connect 76 0 33 0;
#X connect 78 0 79 0;
#X connect 79 0 81 0;
#X connect 79 1 80 0;
#X connect 80 0 77 1;
#X connect 81 0 44 0;
#X connect 82 0 60 0;
#X connect 82 1 62 0;
#X connect 82 2 50 0;
#X connect 83 0 69 0;
#X connect 84 0 58 0;
#X connect 85 0 43 0;
#X restore 47 246 pd coords;
#X obj 730 280 text define imSize;
#X obj 38 94 t a a a;
#X obj 6 391 separator;
#N canvas 742 273 832 640 film 0;
#X obj 33 16 inlet;
#X obj 290 410 pix_film;
#X obj 290 484 pix_texture;
#X floatatom 461 479 5 0 0 0 - - - 0;
#X obj 290 188 gemframebuffer;
#X obj 290 249 translateXYZ 0 0 -4;
#X obj 310 31 loadbang;
#X obj 329 348 loadbang;
#X obj 33 480 pix_texture;
#X obj 34 453 colorRGB 1 1 1 0;
#X obj 107 413 hsl 170 20 0 1 0 0 empty empty empty -2 -10 0 12 #fcfcfc #000000 #000000 0 1;
#X obj 300 562 rectangle 4 4;
#X obj 459 177 gemframebuffer;
#X obj 290 279 t a a;
#X obj 326 311 pix_texture;
#X obj 33 109 t a a a, f 28;
#X obj 459 247 pix_texture;
#X obj 459 280 rectangle 4 4;
#X obj 459 209 translateXYZ 0 0 -4;
#X obj 290 219 alpha;
#X obj 63 371 hsl 170 20 0 1 0 0 empty empty empty -2 -10 0 12 #fcfcfc #000000 #000000 0 1;
#X obj 321 438 unpack f;
#X floatatom 321 463 5 0 0 0 - - - 0;
#X obj 579 478 i;
#X obj 579 503 + 1;
#X obj 579 528 mod 9370;
#X obj 619 399 tgl 20 0 empty empty empty 0 -10 0 12 #fcfcfc #000000 #000000 0 1;
#X obj 696 496 bng 20 250 50 0 empty empty empty 0 -10 0 12 #fcfcfc #000000 #000000;
#X obj 579 453 metro 120;
#X obj 696 522 random 8370;
#X obj 695 549 + 1000;
#X floatatom 695 574 5 0 0 0 - - - 0;
#X obj 33 250 alpha;
#X obj 33 151 separator;
#X obj 707 178 loadbang;
#X obj 696 470 sel 0;
#X obj 696 445 random 80;
#X msg 423 27 dimen 1920 1080 \, type RGB32;
#X obj 310 86 t a;
#X msg 591 61 format RGB32;
#X msg 593 87 format RGB;
#X msg 182 32 dimen 1280 720;
#X msg 594 122 type FLOAT;
#X msg 595 149 type BYTE;
#X obj 190 485 inlet;
#N canvas 407 187 1399 633 shader 0;
#X obj 37 37 inlet;
#X obj 37 101 outlet;
#N canvas 206 414 804 667 _glsl 0;
#X obj 80 426 glsl_program;
#X obj 343 250 bng 15 250 50 0 empty empty empty 0 -6 0 8 #fcfcfc #000000 #000000;
#N canvas 0 22 450 300 open 0;
#X obj 75 103 openpanel;
#X obj 75 173 outlet;
#X obj 75 127 t b s;
#X msg 105 152 set open \$1;
#X obj 75 80 inlet;
#X connect 0 0 2 0;
#X connect 2 0 1 0;
#X connect 2 1 3 0;
#X connect 3 0 1 0;
#X connect 4 0 0 0;
#X restore 286 249 pd open;
#X msg 33 296 print;
#X obj 166 331 change;
#X msg 34 420 print;
#X obj 80 310 glsl_fragment;
#X floatatom 166 355 2 0 0 0 ID - - 0;
#X obj 184 400 print linking;
#X obj 13 52 inlet;
#X obj 80 462 outlet;
#X msg 286 273 open \$1;
#X obj 422 77 inlet;
#X obj 13 75 route bang;
#X obj 140 83 bng 15 250 50 0 empty empty empty 17 7 0 10 #fcfcfc #000000 #000000;
#X obj 140 109 t b b;
#X msg 140 202 symbol \$1/\$2;
#X obj 255 11 gemhead 1;
#X msg 255 33 1;
#X obj 255 57 change;
#X obj 255 81 t b;
#X obj 161 452 change;
#X obj 161 473 t b;
#X obj 161 496 outlet;
#X msg 166 379 link \$1;
#X msg 93 273 open shaders/\$1.frag;
#X obj 140 133 symbol colorEngine;
#X connect 0 0 10 0;
#X connect 0 1 21 0;
#X connect 1 0 2 0;
#X connect 2 0 11 0;
#X connect 3 0 6 0;
#X connect 4 0 7 0;
#X connect 5 0 0 0;
#X connect 6 0 0 0;
#X connect 6 1 4 0;
#X connect 7 0 24 0;
#X connect 9 0 13 0;
#X connect 11 0 6 0;
#X connect 12 0 0 0;
#X connect 13 0 15 0;
#X connect 13 1 6 0;
#X connect 14 0 15 0;
#X connect 15 0 26 0;
#X connect 16 0 25 0;
#X connect 17 0 18 0;
#X connect 18 0 19 0;
#X connect 19 0 20 0;
#X connect 20 0 15 0;
#X connect 21 0 22 0;
#X connect 22 0 23 0;
#X connect 24 0 0 0;
#X connect 24 0 8 0;
#X connect 25 0 6 0;
#X connect 26 0 25 0;
#X restore 37 70 pd _glsl;
#X obj 285 239 t a;
#X obj 324 108 hsl 128 15 0 1 0 0 empty empty empty -2 -8 0 10 #fc0400 #000000 #000000 0 1;
#X obj 62 216 tgl 15 0 empty empty empty 17 7 0 10 #fcfcfc #000000 #000000 0 1;
#X obj 325 29 hsl 128 15 0.01 1 1 0 empty empty empty -2 -8 0 10 #fcfcfc #000000 #000000 0 1;
#X obj 330 177 hsl 128 15 0 1 0 0 empty empty empty -2 -8 0 10 #7c7c7c #000000 #000000 0 1;
#X obj 68 268 tgl 15 0 empty empty empty 17 7 0 10 #fcfcfc #000000 #000000 0 1;
#X obj 588 179 hsl 128 15 0 1 0 0 empty empty empty -2 -8 0 10 #fcfcfc #000000 #000000 0 1;
#X obj 588 221 hsl 128 15 0 1 0 0 empty empty empty -2 -8 0 10 #fcfcfc #000000 #000000 0 1;
#X obj 321 282 hsl 128 15 -1 1 0 0 empty empty empty -2 -8 0 10 #fcfcfc #000000 #000000 0 1;
#X obj 56 320 tgl 15 0 empty empty empty 17 7 0 10 #fcfcfc #000000 #000000 0 1;
#X obj 458 281 hsl 128 15 -2 2 0 0 empty empty empty -2 -8 0 10 #fcfcfc #000000 #000000 0 1;
#X floatatom 455 301 5 0 0 0 - - - 0;
#X floatatom 318 302 5 0 0 0 - - - 0;
#X obj 597 280 hsl 128 15 -10 10 0 0 empty empty empty -2 -8 0 10 #fcfcfc #000000 #000000 0 1;
#X floatatom 594 300 5 0 0 0 - - - 0;
#X msg 322 48 alpha \$1;
#X msg 62 233 colorOn \$1;
#X msg 68 285 chromaKeyOn \$1;
#X msg 585 199 chromaThreshold \$1;
#X msg 585 239 chromaFade \$1;
#X msg 56 337 bcsOn \$1;
#X msg 318 319 brightness \$1;
#X msg 455 321 contrast \$1;
#X msg 594 320 saturation \$1;
#X obj 131 32 r toShader;
#X obj 90 32 bng 20 250 50 0 empty empty empty 0 -10 0 12 #fcfcfc #000000 #000000;
#X msg 321 126 colorR \$1;
#X msg 327 196 chromaR \$1 \, chromaG \$1 \, chromaB \$1;
#X floatatom 254 87 5 0 0 0 - - - 0;
#X obj 781 25 hsl 128 15 0 10000 0 0 FilmMaster-fadeToScene-time FilmMaster-fadeToScene-time fadeTime:0_sec -2 -8 0 10 #fcfcfc #000000 #000000 0 1;
#X obj 777 334 apmaster FilmMaster;
#X obj 776 307 patternFade FilmMaster;
#X obj 778 43 64patterns FilmMaster-fade;
#X obj 1071 190 colorEngineParams FilmMaster shader1;
#X obj 510 57 r FilmMaster-shader1;
#X obj 1037 241 bng 15 250 50 0 empty empty empty 17 7 0 10 #fc0400 #000000 #000000;
#X obj 776 245 bng 15 250 50 0 empty empty empty 17 7 0 10 #00fc04 #000000 #000000;
#X obj 776 223 loadbang;
#X obj 776 265 apmasterfile FilmMaster FilmMaster.txt;
#X obj 768 389 loadbang;
#X obj 768 414 tgl 20 0 empty empty empty 0 -10 0 12 #fcfcfc #000000 #000000 0 1;
#X obj 768 439 metro 100;
#X obj 768 489 sel 0;
#X obj 768 565 s FilmMaster-fadeToScene;
#X floatatom 672 517 5 0 0 0 - - - 0;
#X msg 768 542 \$1 7000;
#X obj 768 464 random 30;
#X obj 768 514 random 10;
#X connect 0 0 2 0;
#X connect 2 0 1 0;
#X connect 3 0 2 1;
#X connect 4 0 29 0;
#X connect 5 0 19 0;
#X connect 6 0 18 0;
#X connect 6 0 31 0;
#X connect 7 0 30 0;
#X connect 8 0 20 0;
#X connect 9 0 21 0;
#X connect 10 0 22 0;
#X connect 11 0 15 0;
#X connect 12 0 23 0;
#X connect 13 0 14 0;
#X connect 14 0 25 0;
#X connect 15 0 24 0;
#X connect 16 0 17 0;
#X connect 17 0 26 0;
#X connect 18 0 3 0;
#X connect 19 0 3 0;
#X connect 20 0 3 0;
#X connect 21 0 3 0;
#X connect 22 0 3 0;
#X connect 23 0 3 0;
#X connect 24 0 3 0;
#X connect 25 0 3 0;
#X connect 26 0 3 0;
#X connect 27 0 2 1;
#X connect 28 0 2 0;
#X connect 29 0 3 0;
#X connect 30 0 3 0;
#X connect 37 0 3 0;
#X connect 38 0 41 1;
#X connect 39 0 41 0;
#X connect 40 0 39 0;
#X connect 42 0 43 0;
#X connect 43 0 44 0;
#X connect 44 0 49 0;
#X connect 45 0 50 0;
#X connect 48 0 46 0;
#X connect 49 0 45 0;
#X connect 50 0 48 0;
#X connect 50 0 47 0;
#X restore 290 515 pd shader;
#X floatatom 579 567 5 0 0 0 - - - 0;
#X msg 310 59 dimen 1280 720 \, type FLOAT;
#X obj 33 561 rectangle 16 9.01;
#X obj 33 63 spigot;
#X obj 190 510 != 0;
#X msg 329 373 open ../../data/borne/film/TerrilLent.mov;
#X connect 0 0 49 0;
#X connect 1 0 2 0;
#X connect 1 1 21 0;
#X connect 2 0 45 0;
#X connect 3 0 1 1;
#X connect 4 0 19 0;
#X connect 4 1 8 1;
#X connect 4 1 16 1;
#X connect 5 0 13 0;
#X connect 6 0 47 0;
#X connect 7 0 51 0;
#X connect 8 0 48 0;
#X connect 9 0 8 0;
#X connect 10 0 9 4;
#X connect 12 0 18 0;
#X connect 12 1 14 1;
#X connect 13 0 1 0;
#X connect 13 1 14 0;
#X connect 14 0 11 0;
#X connect 15 0 33 0;
#X connect 15 1 4 0;
#X connect 15 2 12 0;
#X connect 16 0 17 0;
#X connect 18 0 16 0;
#X connect 19 0 5 0;
#X connect 20 0 9 2;
#X connect 20 0 9 3;
#X connect 21 0 22 0;
#X connect 23 0 24 0;
#X connect 24 0 25 0;
#X connect 25 0 23 1;
#X connect 25 0 1 1;
#X connect 25 0 46 0;
#X connect 26 0 28 0;
#X connect 27 0 29 0;
#X connect 28 0 23 0;
#X connect 28 0 36 0;
#X connect 29 0 30 0;
#X connect 30 0 23 1;
#X connect 30 0 31 0;
#X connect 32 0 9 0;
#X connect 33 0 32 0;
#X connect 34 0 26 0;
#X connect 35 0 27 0;
#X connect 36 0 35 0;
#X connect 37 0 38 0;
#X connect 38 0 12 0;
#X connect 38 0 4 0;
#X connect 39 0 38 0;
#X connect 40 0 38 0;
#X connect 41 0 38 0;
#X connect 42 0 38 0;
#X connect 43 0 38 0;
#X connect 44 0 9 4;
#X connect 44 0 50 0;
#X connect 45 0 11 0;
#X connect 47 0 38 0;
#X connect 49 0 15 0;
#X connect 50 0 49 1;
#X connect 51 0 1 0;
#X restore 6 452 pd film;
#X obj 6 422 alpha;
#X obj 38 44 spigot 1;
#X obj 47 356 rectangle 16 -9;
#X obj 83 452 hsl 170 20 0 1 0 0 empty empty empty -2 -10 0 12 #fcfcfc #000000 #000000 0 1;
#X obj 110 395 r fromAudio;
#X obj 110 420 route presenceFilm;
#X obj 47 281 translateXYZ 0 0 0;
#X obj 192 280 translateXYZ 0 0 0;
#X obj 185 595 hsl 170 20 0 1 0 0 empty empty empty -2 -10 0 12 #fcfcfc #000000 #000000 0 1;
#X obj 183 646 t f f;
#X obj 222 672 - 18;
#X obj 182 621 * 18;
#N canvas 323 110 1134 772 coords 0;
#X obj 88 122 inlet;
#X obj 88 329 outlet;
#X obj 88 304 pix_coordinate;
#X floatatom 188 240 5 0 0 0 - - - 0;
#X msg 187 274 \$1 0 1 0 1 1 \$1 1;
#X obj 396 109 inlet;
#X obj 396 138 unpack f f;
#X obj 346 128 bng 20 250 50 0 empty empty empty 0 -10 0 12 #fcfcfc #000000 #000000;
#X floatatom 327 183 5 0 0 0 - - - 0;
#X obj 396 529 / 2;
#X obj 396 554 t f f;
#X obj 428 581 * -1;
#X obj 428 606 + 1;
#X obj 494 535 / 2;
#X obj 494 560 t f f;
#X obj 526 587 * -1;
#X obj 526 612 + 1;
#X obj 396 681 pack f f f f, f 19;
#X msg 396 706 \$1 \$3 \$2 \$3 \$2 \$4 \$1 \$4;
#X obj 396 434 * -1;
#X obj 396 460 + 1;
#X obj 494 441 * -1;
#X obj 494 467 + 1;
#X floatatom 571 167 5 0 0 0 - - - 0;
#X msg 195 207 0;
#X msg 449 480 0;
#X obj 396 176 /;
#X obj 346 243 * 9;
#X floatatom 339 283 5 0 0 0 - - - 0;
#X obj 396 304 t f f, f 14;
#X msg 409 227 1 \$1;
#X obj 409 252 /;
#X obj 615 247 t b f;
#X obj 494 374 * 1;
#X obj 396 368 * 1;
#X floatatom 637 208 5 0 0 0 - - - 0;
#X obj 535 244 b;
#X obj 396 644 +;
#X obj 433 644 +;
#X obj 482 647 +;
#X obj 526 647 +;
#X obj 590 542 t b f;
#X obj 672 536 t b f;
#X obj 740 491 unpack f f f;
#X msg 642 140 0 0 1;
#X obj 793 401 pack f f f;
#X obj 814 352 t b f;
#X obj 863 352 t b f;
#X floatatom 743 299 5 0 0 0 - - - 0;
#X floatatom 824 300 5 0 0 0 - - - 0;
#X floatatom 908 304 5 0 0 0 - - - 0;
#X obj 743 132 t b b b, f 34;
#X obj 743 157 random 1e+06;
#X obj 743 182 / 1e+06;
#X obj 859 156 random 1e+06;
#X obj 859 181 / 1e+06;
#X obj 978 157 random 1e+06;
#X obj 978 182 / 1e+06;
#X obj 746 96 bng 20 250 50 0 empty empty empty 0 -10 0 12 #fcfcfc #000000 #000000;
#X obj 743 265 +;
#X obj 776 265 f;
#X obj 859 256 +;
#X obj 892 256 f;
#X obj 978 207 * 0.45;
#X obj 978 232 + 0.09;
#X obj 743 231 * 0.15;
#X obj 859 230 * 0.15;
#X obj 779 92 inlet;
#X obj 120 163 b;
#X obj 120 213 sel 0;
#X obj 743 207 - 0.5;
#X obj 859 206 - 0.5;
#X obj 346 218 / 16;
#X msg 694 411 0 0 1;
#X floatatom 443 274 5 0 0 0 - - - 0;
#X obj 396 342 max 1;
#X obj 494 347 min 1;
#X obj 541 106 spigot 1;
#X obj 567 14 r \$0-stabilo;
#X obj 567 39 t f f, f 7;
#X obj 613 65 == 0;
#X obj 567 64 sel 1;
#X obj 642 165 unpack f f f;
#X obj 120 188 random 120;
#X obj 746 62 r \$0-plan_changecoord;
#X obj 739 451 inertie3D 6 150 200;
#X connect 0 0 2 0;
#X connect 0 0 68 0;
#X connect 2 0 1 0;
#X connect 3 0 4 0;
#X connect 4 0 2 1;
#X connect 5 0 6 0;
#X connect 6 0 8 0;
#X connect 6 0 26 0;
#X connect 6 1 23 0;
#X connect 6 1 26 1;
#X connect 9 0 10 0;
#X connect 10 0 37 0;
#X connect 10 1 11 0;
#X connect 11 0 12 0;
#X connect 12 0 38 0;
#X connect 13 0 14 0;
#X connect 14 0 39 0;
#X connect 14 1 15 0;
#X connect 15 0 16 0;
#X connect 16 0 40 0;
#X connect 17 0 18 0;
#X connect 18 0 2 1;
#X connect 19 0 20 0;
#X connect 20 0 9 0;
#X connect 21 0 22 0;
#X connect 22 0 13 0;
#X connect 24 0 3 0;
#X connect 25 0 9 0;
#X connect 25 0 13 0;
#X connect 26 0 72 0;
#X connect 27 0 28 0;
#X connect 27 0 29 0;
#X connect 29 0 75 0;
#X connect 29 1 76 0;
#X connect 30 0 31 0;
#X connect 31 0 29 0;
#X connect 32 0 36 0;
#X connect 32 1 33 1;
#X connect 32 1 34 1;
#X connect 33 0 21 0;
#X connect 34 0 19 0;
#X connect 35 0 32 0;
#X connect 36 0 26 0;
#X connect 37 0 17 0;
#X connect 38 0 17 1;
#X connect 39 0 17 2;
#X connect 40 0 17 3;
#X connect 41 0 36 0;
#X connect 41 1 37 1;
#X connect 41 1 38 1;
#X connect 42 0 36 0;
#X connect 42 1 40 1;
#X connect 42 1 39 1;
#X connect 43 0 41 0;
#X connect 43 1 42 0;
#X connect 43 2 32 0;
#X connect 44 0 82 0;
#X connect 45 0 85 0;
#X connect 46 0 45 0;
#X connect 46 1 45 1;
#X connect 47 0 45 0;
#X connect 47 1 45 2;
#X connect 48 0 45 0;
#X connect 49 0 46 0;
#X connect 50 0 47 0;
#X connect 51 0 52 0;
#X connect 51 1 54 0;
#X connect 51 2 56 0;
#X connect 52 0 53 0;
#X connect 53 0 70 0;
#X connect 54 0 55 0;
#X connect 55 0 71 0;
#X connect 56 0 57 0;
#X connect 57 0 63 0;
#X connect 58 0 51 0;
#X connect 59 0 60 0;
#X connect 60 0 59 1;
#X connect 60 0 48 0;
#X connect 61 0 62 0;
#X connect 62 0 61 1;
#X connect 62 0 49 0;
#X connect 63 0 64 0;
#X connect 64 0 50 0;
#X connect 65 0 59 0;
#X connect 66 0 61 0;
#X connect 67 0 51 0;
#X connect 68 0 83 0;
#X connect 70 0 65 0;
#X connect 71 0 66 0;
#X connect 72 0 27 0;
#X connect 73 0 43 0;
#X connect 74 0 29 0;
#X connect 75 0 34 0;
#X connect 76 0 33 0;
#X connect 78 0 79 0;
#X connect 79 0 81 0;
#X connect 79 1 80 0;
#X connect 80 0 77 1;
#X connect 81 0 44 0;
#X connect 82 0 60 0;
#X connect 82 1 62 0;
#X connect 82 2 50 0;
#X connect 83 0 69 0;
#X connect 84 0 58 0;
#X connect 85 0 43 0;
#X restore 192 250 pd coords;
#X obj 306 393 bng 20 250 50 0 empty empty empty 0 -10 0 12 #fcfcfc #000000 #000000;
#X obj 306 418 tgl 20 0 empty empty empty 0 -10 0 12 #fcfcfc #000000 #000000 0 1;
#X obj 384 515 sel 0 1;
#X obj 183 671 -;
#X obj 250 637 unpack f f;
#X msg 381 551 0 18;
#X msg 420 551 18 0;
#X obj 291 546 line3;
#X obj 306 443 t b f b;
#X obj 292 496 f 250;
#X obj 291 113 metro 350;
#X obj 543 158 tgl 20 0 empty empty empty 0 -10 0 12 #fcfcfc #000000 #000000 0 1;
#X obj 543 183 s \$0-stabilo;
#X msg 290 520 0 \, 1.001 \$1;
#X obj 730 224 loadbang;
#X obj 724 519 declare -path nusmuk-utils -path AutoPreset;
#X obj 783 438 s \$0-plan_changecoord;
#X obj 783 362 r fromAudio;
#X obj 783 387 route plan;
#X obj 783 412 route changecoord;
#X obj 138 75 route nextPlan stabilo;
#X obj 751 476 s \$0-plan_changeshader;
#X obj 582 76 once;
#X obj 582 44 gemhead;
#X obj 47 146 t a a, f 21;
#X obj 80 477 != 1;
#X obj 47 120 spigot 1;
#X msg 728 40 preload ../../data/borne/plans/links/im*.jpg 15 \, download;
#X msg 730 252 clear \, read -c ../../data/borne/plans/links/sizes.txt;
#X connect 0 0 46 0;
#X connect 1 0 8 0;
#X connect 2 0 15 0;
#X connect 3 0 15 0;
#X connect 5 0 47 0;
#X connect 7 0 1 1;
#X connect 7 1 8 1;
#X connect 9 0 11 0;
#X connect 10 0 40 0;
#X connect 10 1 40 1;
#X connect 11 0 13 0;
#X connect 11 1 7 0;
#X connect 12 0 46 1;
#X connect 13 0 1 0;
#X connect 14 0 10 1;
#X connect 15 0 1 0;
#X connect 16 0 10 0;
#X connect 17 0 57 0;
#X connect 17 1 57 1;
#X connect 18 0 17 0;
#X connect 19 0 17 1;
#X connect 20 0 78 0;
#X connect 21 0 10 1;
#X connect 22 0 19 0;
#X connect 23 0 24 0;
#X connect 23 1 25 0;
#X connect 24 0 27 0;
#X connect 25 0 26 0;
#X connect 26 0 27 0;
#X connect 27 0 28 0;
#X connect 28 0 29 0;
#X connect 29 0 30 0;
#X connect 31 0 32 0;
#X connect 32 0 33 0;
#X connect 32 1 34 0;
#X connect 33 0 36 0;
#X connect 34 0 35 0;
#X connect 35 0 36 0;
#X connect 36 0 37 0;
#X connect 37 0 29 0;
#X connect 39 0 42 0;
#X connect 40 0 51 0;
#X connect 42 0 43 0;
#X connect 42 1 84 0;
#X connect 43 0 45 0;
#X connect 45 0 44 0;
#X connect 46 0 39 0;
#X connect 48 0 44 1;
#X connect 48 0 83 0;
#X connect 49 0 50 0;
#X connect 50 0 48 0;
#X connect 51 0 5 0;
#X connect 52 0 5 0;
#X connect 53 0 56 0;
#X connect 54 0 61 0;
#X connect 54 1 55 0;
#X connect 55 0 52 2;
#X connect 56 0 54 0;
#X connect 57 0 52 0;
#X connect 58 0 59 0;
#X connect 59 0 66 0;
#X connect 60 0 63 0;
#X connect 60 0 22 0;
#X connect 60 1 64 0;
#X connect 60 1 21 0;
#X connect 61 0 51 2;
#X connect 62 0 61 1;
#X connect 62 1 55 1;
#X connect 63 0 62 0;
#X connect 64 0 62 0;
#X connect 65 0 53 0;
#X connect 66 0 67 0;
#X connect 66 1 60 0;
#X connect 67 0 71 0;
#X connect 68 0 23 0;
#X connect 69 0 70 0;
#X connect 71 0 65 0;
#X connect 72 0 86 0;
#X connect 75 0 76 0;
#X connect 76 0 77 0;
#X connect 77 0 74 0;
#X connect 77 0 79 0;
#X connect 78 0 58 0;
#X connect 78 1 69 0;
#X connect 80 0 85 0;
#X connect 81 0 80 0;
#X connect 82 0 16 0;
#X connect 82 1 18 0;
#X connect 83 0 84 1;
#X connect 84 0 82 0;
#X connect 85 0 15 0;
#X connect 86 0 41 0;
