#N canvas 739 90 1000 675 12;
#X declare -lib Gem;
#X declare -path creb;
#X floatatom 507 98 5 0 0 0 - - - 0;
#X obj 554 264 mod 24;
#X obj 554 86 tgl 15 0 empty empty empty 17 7 0 10 #fcfcfc #000000 #000000 0 1;
#X floatatom 638 111 5 0 0 0 - - - 0;
#X msg 639 73 10;
#X msg 634 179 1;
#X msg 670 180 2;
#X msg 708 182 3;
#X floatatom 643 208 5 0 0 0 - - - 0;
#X obj 601 107 bng 15 250 50 0 empty empty empty 17 7 0 10 #fcfcfc #000000 #000000;
#X obj 446 56 t b b;
#X obj 446 81 realtime;
#X obj 446 28 spigot;
#X obj 492 0 tgl 15 0 empty empty empty 17 7 0 10 #fcfcfc #000000 #000000 0 1;
#X obj 719 100 world_light;
#X obj 554 312 t f f;
#X obj 565 347 s film1-frame;
#X obj 120 644 tgl 20 0 empty empty empty 0 -10 0 12 #fcfcfc #000000 #000000 0 1;
#X msg 729 219 24;
#X msg 765 219 1;
#X floatatom 729 244 5 0 0 0 - - - 0;
#X obj 87 8 declare -lib Gem;
#X msg 801 217 48;
#X obj 554 288 +;
#X floatatom 595 290 5 0 0 0 - - - 0;
#X obj 432 544 bufferedFilm 1;
#X obj 64 98 s gemPreHead;
#X obj 425 325 s \$0-frame;
#X floatatom 521 359 5 0 0 0 - - - 0;
#X obj 491 151 bng 20 250 50 0 empty empty empty 0 -10 0 12 #fcfcfc #000000 #000000;
#X obj 651 302 tgl 20 0 empty empty empty 0 -10 0 12 #fcfcfc #000000 #000000 0 1;
#X obj 560 386 hradio 20 1 0 8 empty empty empty 0 -10 0 12 #fcfcfc #000000 #000000 0;
#X floatatom 690 313 5 0 0 0 - - - 0;
#X obj 18 36 inlet;
#X obj 41 127 gemframebuffer;
#X obj 170 54 loadbang;
#X obj 41 177 translateXYZ 0 0 -4;
#X obj 64 529 pix_texture;
#X floatatom 174 558 5 0 0 0 - - - 0;
#X obj 64 554 square 1;
#X obj 41 152 alpha;
#X obj 64 500 colorRGB 1 1 1 1;
#X obj 41 206 t a a a, f 13;
#N canvas 119 286 450 300 cache_rond 0;
#X obj 84 24 inlet;
#X obj 84 49 separator;
#X obj 84 104 colorRGB 0 0 0 1;
#X obj 84 155 pix_texture;
#X floatatom 164 213 5 0 0 0 - - - 0;
#X obj 84 129 pix_image cacheRond.png;
#X obj 84 77 alpha;
#X obj 194 78 inlet;
#X obj 84 180 square 1;
#X connect 0 0 1 0;
#X connect 1 0 6 0;
#X connect 2 0 5 0;
#X connect 3 0 8 0;
#X connect 4 0 8 1;
#X connect 5 0 3 0;
#X connect 6 0 2 0;
#X connect 7 0 2 4;
#X restore 18 646 pd cache_rond;
#X obj 199 496 hsl 170 20 0 1 0 0 empty empty empty -2 -10 0 12 #fcfcfc #000000 #000000 0 1;
#X obj 64 445 alpha;
#X floatatom 446 106 5 0 0 0 - - - 0;
#X obj 634 151 s \$0-metrotime;
#X obj 85 237 separator;
#X obj 18 70 t a a a;
#X obj 719 9 r gemPreHead;
#X obj 719 43 separator;
#X obj 860 101 world_light;
#X obj 860 44 separator;
#X floatatom 799 44 5 0 0 0 - - - 0;
#X obj 691 72 tgl 20 0 empty empty empty 0 -10 0 12 #fcfcfc #000000 #000000 0 1;
#X obj 955 96 tgl 20 0 empty empty empty 0 -10 0 12 #fcfcfc #000000 #000000 0 1;
#X floatatom 814 12 5 0 0 0 - - - 0;
#X obj 860 73 rotateXYZ 0 0 0;
#X obj 719 72 rotateXYZ -55 0 0;
#X obj 429 515 Set;
#X msg 170 79 dimen 768 768 \, format RGB \, perspec -1 1 -1 1 1 40, f 26;
#X obj 117 291 viewFilm 1;
#X obj 416 361 s vf-frame;
#X obj 85 264 t a a;
#X obj 117 346 rectangle 34 34;
#N canvas 159 196 816 448 shader 0;
#X obj 37 37 inlet;
#X obj 37 101 outlet;
#N canvas 206 414 804 667 _glsl 0;
#X obj 80 426 glsl_program;
#X obj 343 250 bng 15 250 50 0 empty empty empty 0 -6 0 8 #fcfcfc #000000 #000000;
#N canvas 0 22 450 300 open 0;
#X obj 75 103 openpanel;
#X obj 75 173 outlet;
#X obj 75 127 t b s;
#X msg 105 152 set open \$1;
#X obj 75 80 inlet;
#X connect 0 0 2 0;
#X connect 2 0 1 0;
#X connect 2 1 3 0;
#X connect 3 0 1 0;
#X connect 4 0 0 0;
#X restore 286 249 pd open;
#X msg 33 296 print;
#X obj 166 331 change;
#X msg 34 420 print;
#X obj 80 310 glsl_fragment;
#X floatatom 166 355 2 0 0 0 ID - - 0;
#X obj 184 400 print linking;
#X obj 13 52 inlet;
#X obj 80 462 outlet;
#X msg 286 273 open \$1;
#X obj 422 77 inlet;
#X obj 13 75 route bang;
#X obj 140 83 bng 15 250 50 0 empty empty empty 17 7 0 10 #fcfcfc #000000 #000000;
#X obj 140 109 t b b;
#X msg 140 202 symbol \$1/\$2;
#X obj 255 11 gemhead 1;
#X msg 255 33 1;
#X obj 255 57 change;
#X obj 255 81 t b;
#X obj 161 452 change;
#X obj 161 473 t b;
#X obj 161 496 outlet;
#X msg 166 379 link \$1;
#X msg 93 273 open shaders/\$1.frag;
#X obj 140 133 symbol colorEngine;
#X connect 0 0 10 0;
#X connect 0 1 21 0;
#X connect 1 0 2 0;
#X connect 2 0 11 0;
#X connect 3 0 6 0;
#X connect 4 0 7 0;
#X connect 5 0 0 0;
#X connect 6 0 0 0;
#X connect 6 1 4 0;
#X connect 7 0 24 0;
#X connect 9 0 13 0;
#X connect 11 0 6 0;
#X connect 12 0 0 0;
#X connect 13 0 15 0;
#X connect 13 1 6 0;
#X connect 14 0 15 0;
#X connect 15 0 26 0;
#X connect 16 0 25 0;
#X connect 17 0 18 0;
#X connect 18 0 19 0;
#X connect 19 0 20 0;
#X connect 20 0 15 0;
#X connect 21 0 22 0;
#X connect 22 0 23 0;
#X connect 24 0 0 0;
#X connect 24 0 8 0;
#X connect 25 0 6 0;
#X connect 26 0 25 0;
#X restore 37 70 pd _glsl;
#X obj 285 239 t a;
#X obj 324 108 hsl 128 15 0 1 0 0 empty empty empty -2 -8 0 10 #fc0400 #000000 #000000 0 1;
#X obj 62 216 tgl 15 0 empty empty empty 17 7 0 10 #fcfcfc #000000 #000000 0 1;
#X obj 325 29 hsl 128 15 0 1 0 0 empty empty empty -2 -8 0 10 #fcfcfc #000000 #000000 0 1;
#X obj 321 194 hsl 128 15 0 1 0 0 empty empty empty -2 -8 0 10 #7c7c7c #000000 #000000 0 1;
#X obj 68 268 tgl 15 0 empty empty empty 17 7 0 10 #fcfcfc #000000 #000000 0 1;
#X obj 487 154 hsl 128 15 0 1 0 0 empty empty empty -2 -8 0 10 #fcfcfc #000000 #000000 0 1;
#X obj 487 196 hsl 128 15 0 1 0 0 empty empty empty -2 -8 0 10 #fcfcfc #000000 #000000 0 1;
#X obj 321 282 hsl 128 15 -1 1 0 0 empty empty empty -2 -8 0 10 #fcfcfc #000000 #000000 0 1;
#X obj 56 320 tgl 15 0 empty empty empty 17 7 0 10 #fcfcfc #000000 #000000 0 1;
#X obj 458 281 hsl 128 15 1 8 1 0 empty empty empty -2 -8 0 10 #fcfcfc #000000 #000000 0 1;
#X floatatom 455 301 5 0 0 0 - - - 0;
#X floatatom 318 302 5 0 0 0 - - - 0;
#X obj 597 280 hsl 128 15 -10 10 0 0 empty empty empty -2 -8 0 10 #fcfcfc #000000 #000000 0 1;
#X floatatom 594 300 5 0 0 0 - - - 0;
#X msg 322 48 alpha \$1;
#X msg 62 233 colorOn \$1;
#X msg 321 126 color 1 \$1 \$1;
#X msg 68 285 chromaKeyOn \$1;
#X msg 318 213 chromaKey \$1 \$1 \$1;
#X msg 484 174 chromaThreshold \$1;
#X msg 484 214 chromaFade \$1;
#X msg 56 337 bcsOn \$1;
#X msg 318 319 brightness \$1;
#X msg 455 321 contrast \$1;
#X msg 594 320 saturation \$1;
#X obj 131 32 r toShader;
#X obj 90 32 bng 20 250 50 0 empty empty empty 0 -10 0 12 #fcfcfc #000000 #000000;
#X connect 0 0 2 0;
#X connect 2 0 1 0;
#X connect 3 0 2 1;
#X connect 4 0 20 0;
#X connect 5 0 19 0;
#X connect 6 0 18 0;
#X connect 7 0 22 0;
#X connect 8 0 21 0;
#X connect 9 0 23 0;
#X connect 10 0 24 0;
#X connect 11 0 15 0;
#X connect 12 0 25 0;
#X connect 13 0 14 0;
#X connect 14 0 27 0;
#X connect 15 0 26 0;
#X connect 16 0 17 0;
#X connect 17 0 28 0;
#X connect 18 0 3 0;
#X connect 19 0 3 0;
#X connect 20 0 3 0;
#X connect 21 0 3 0;
#X connect 22 0 3 0;
#X connect 23 0 3 0;
#X connect 24 0 3 0;
#X connect 25 0 3 0;
#X connect 26 0 3 0;
#X connect 27 0 3 0;
#X connect 28 0 3 0;
#X connect 29 0 2 1;
#X connect 30 0 2 0;
#X restore 117 316 pd shader;
#X obj 277 159 tgl 20 0 empty empty empty 0 -10 0 12 #fcfcfc #000000 #000000 0 1;
#X msg 242 220 rectangle \$1;
#X obj 211 10 declare -path creb;
#X obj 554 205 fmod 360000;
#X obj 554 154 f;
#X obj 554 129 metro 10;
#X obj 554 59 loadbang;
#X obj 778 138 r Gspeed;
#X floatatom 737 191 5 0 0 0 - - - 0;
#N canvas 743 58 1130 985 tourne_disque 0;
#X obj 32 2 inlet;
#X floatatom 307 333 5 0 0 0 - - - 0;
#X floatatom 171 218 5 0 0 0 - - - 0;
#X floatatom 60 150 5 0 0 0 - - - 0;
#X floatatom 108 148 5 0 0 0 - - - 0;
#X obj 192 74 hsl 128 15 0 1 0 0 empty empty empty -2 -8 0 10 #fcfcfc #000000 #000000 0 1;
#X obj 260 280 hsl 128 15 0 10 0 0 empty empty empty -2 -8 0 10 #fcfcfc #000000 #000000 0 1;
#X floatatom 179 144 5 0 0 0 - - - 0;
#X floatatom 172 251 5 0 0 0 - - - 0;
#X floatatom 260 450 5 0 0 0 - - - 0;
#X floatatom 13 576 5 0 0 0 - - - 0;
#X floatatom 143 634 5 0 0 0 - - - 0;
#X obj 244 581 hsl 128 15 180 133 0 0 empty empty empty -2 -8 0 10 #fcfcfc #000000 #000000 0 1;
#X obj 61 573 nbx 5 14 -1e+37 1e+37 0 0 empty empty empty 0 -8 0 10 #fcfcfc #000000 #000000 0 256;
#X obj 135 573 nbx 5 14 -1e+37 1e+37 0 0 empty empty empty 0 -8 0 10 #fcfcfc #000000 #000000 0 256;
#X obj 170 766 nbx 5 14 -1e+37 1e+37 0 1 empty empty empty 0 -8 0 10 #fcfcfc #000000 #000000 3 256;
#X floatatom 259 334 5 0 0 0 - - - 0;
#X obj 32 28 separator;
#X obj 32 183 translateXYZ;
#X obj 32 254 rotate 0 1 0;
#X obj 32 285 rotate 1 0 0;
#X obj 78 384 rotate 0 0 1;
#X obj 32 544 rotate 0 0 1;
#X obj 32 718 colorRGB 0.25 0.15 0 1;
#X obj 32 82 alpha;
#X obj 32 774 translateXYZ;
#X obj 257 305 * 2;
#X obj 179 798 nbx 5 14 -1e+37 1e+37 0 1 empty empty empty 0 -8 0 10 #fcfcfc #000000 #000000 0.25 256;
#X obj 78 359 separator;
#X obj 93 747 * 1;
#X floatatom 216 553 5 0 0 0 - - - 0;
#X obj 34 801 cuboid 2 0.15 0.15;
#X obj 59 53 ortho;
#X obj 321 473 rotate 0 0 1;
#X obj 321 524 pix_texture;
#X obj 321 393 separator;
#X obj 32 313 t a a a;
#X obj 434 400 hsl 128 15 0 1 0 0 empty empty empty -2 -8 0 10 #fcfcfc #000000 #000000 0 1;
#X obj 321 447 translateXYZ 0 0 0.01;
#X obj 321 422 colorRGB 1 1 1 0;
#X obj 225 257 line;
#X obj 321 499 pix_image TerrilRond2.png;
#X obj 53 874 translateXYZ;
#X obj 53 949 cuboid 2 0.15 0.15;
#X obj 187 848 nbx 5 14 -1e+37 1e+37 0 1 empty empty empty 0 -8 0 10 #fcfcfc #000000 #000000 0.58 256;
#X obj 186 871 nbx 5 14 -1e+37 1e+37 0 1 empty empty empty 0 -8 0 10 #fcfcfc #000000 #000000 0.4 256;
#X obj 58 832 nbx 5 14 -1e+37 1e+37 0 1 empty empty empty 0 -8 0 10 #fcfcfc #000000 #000000 2.93 256;
#X obj 92 851 nbx 5 14 -1e+37 1e+37 0 1 empty empty empty 0 -8 0 10 #fcfcfc #000000 #000000 -0.14 256;
#X obj 154 831 nbx 5 14 -1e+37 1e+37 0 1 empty empty empty 0 -8 0 10 #fcfcfc #000000 #000000 0.05 256;
#X obj 204 892 nbx 5 14 -1e+37 1e+37 0 1 empty empty empty 0 -8 0 10 #fcfcfc #000000 #000000 0.19 256;
#X obj 53 912 rotateXYZ;
#X obj 108 894 nbx 5 14 -1e+37 1e+37 0 1 empty empty empty 0 -8 0 10 #fcfcfc #000000 #000000 -16.74 256;
#X obj 351 608 hsl 128 15 180 133 0 0 empty empty empty -2 -8 0 10 #fcfcfc #000000 #000000 0 1;
#X obj 225 207 r \$0-frame;
#X obj 32 219 scaleXYZ 1 1 1;
#X floatatom 241 158 5 0 0 0 - - - 0;
#X obj 310 206 r \$0-metrotime;
#X obj 225 232 pack f 20;
#X obj 332 16 r disquectl;
#X msg 391 326 1.73;
#X obj 165 317 * -1.73;
#X obj 332 41 route x y z size ry rx rz speed;
#X obj 439 217 * -1;
#X obj 321 549 rectangle 5.7 5.7;
#X obj 512 585 loadbang;
#X msg 512 610 180;
#X obj 348 633 inertie 150 600 10;
#X floatatom 141 661 5 0 0 0 - - - 0;
#X obj 32 631 rotate 0 0 1;
#X obj 32 665 rotate 0 1 0;
#X obj 351 766 hsl 128 15 -7 0.5 0 0 empty empty empty -2 -8 0 10 #fcfcfc #000000 #000000 0 1;
#X obj 371 701 hsl 128 15 -7 0 0 0 empty empty empty -2 -8 0 10 #fcfcfc #000000 #000000 0 1;
#X obj 368 726 inertie 150 600 10;
#X obj 535 678 loadbang;
#X msg 535 703 -7;
#X obj 619 379 r fromAudio;
#X obj 619 404 route disque;
#X obj 619 603 maxlib/scale 0 1 -7 0;
#X obj 666 464 moses 0.25;
#X obj 745 464 moses 0.5;
#X obj 818 465 moses 0.75;
#X obj 785 321 hsl 128 15 0 1 0 0 empty empty empty -2 -8 0 10 #fcfcfc #000000 #000000 0 1;
#X obj 666 495 maxlib/scale 0 0.25 180 162;
#X obj 745 522 maxlib/scale 0.25 0.5 162 159;
#X obj 818 552 maxlib/scale 0.5 0.75 159 145;
#X obj 885 592 maxlib/scale 0.75 1 145 139;
#X obj 810 631 f;
#X msg 786 242 0 2000;
#X obj 786 267 line;
#X msg 622 240 0 \, 0.25 2000;
#X msg 664 208 0.5 1000;
#X msg 738 203 0.75 180000;
#X obj 536 233 fmod 360;
#X obj 536 258 / 180;
#X obj 536 283 * 3.14159;
#X obj 536 308 cos;
#X obj 535 335 *;
#X obj 533 767 == 1;
#X obj 528 494 hsl 128 15 0 1 0 0 empty empty empty -2 -8 0 10 #fcfcfc #000000 #000000 0 1;
#X obj 619 516 f;
#X obj 568 334 t b f;
#X obj 421 580 +;
#X obj 456 582 t b f;
#X floatatom 559 152 5 0 0 0 - - - 0;
#X obj 520 162 * 2;
#X obj 490 447 * 0.3;
#X msg 660 92 excentre \$1;
#X obj 660 117 s toAudio;
#X obj 32 606 translateXYZ 3 -6.5 0.25;
#X obj 78 412 colorRGB 1 1 1 0.5;
#X obj 490 369 change;
#N canvas 468 140 1320 646 disque 0;
#X obj 20 11 inlet;
#X obj 20 408 pix_texture;
#X obj 20 433 rectangle 6 6;
#X obj 235 17 r gemPreHead;
#X obj 237 354 pix_texture;
#X obj 237 111 gemframebuffer;
#X obj 237 162 translateXYZ 0 0 -4;
#X obj 237 134 alpha;
#X obj 138 24 loadbang;
#X msg 138 55 dimen 1024 1024 \, format RGBA;
#X obj 237 518 rectangle 4 4;
#N canvas 195 240 804 667 _glsl 0;
#X obj 80 426 glsl_program;
#X obj 343 250 bng 15 250 50 0 empty empty empty 0 -6 0 8 #fcfcfc #000000 #000000;
#N canvas 0 22 450 300 open 0;
#X obj 75 103 openpanel;
#X obj 75 173 outlet;
#X obj 75 127 t b s;
#X msg 105 152 set open \$1;
#X obj 75 80 inlet;
#X connect 0 0 2 0;
#X connect 2 0 1 0;
#X connect 2 1 3 0;
#X connect 3 0 1 0;
#X connect 4 0 0 0;
#X restore 286 249 pd open;
#X msg 33 296 print;
#X obj 166 331 change;
#X msg 34 420 print;
#X obj 80 310 glsl_fragment;
#X floatatom 166 355 2 0 0 0 ID - - 0;
#X obj 184 400 print linking;
#X obj 13 52 inlet;
#X obj 80 462 outlet;
#X msg 286 273 open \$1;
#X obj 422 77 inlet;
#X obj 13 75 route bang;
#X obj 140 83 bng 15 250 50 0 empty empty empty 17 7 0 10 #fcfcfc #000000 #000000;
#X obj 140 109 t b b;
#X msg 140 202 symbol \$1/\$2;
#X obj 255 11 gemhead 1;
#X msg 255 33 1;
#X obj 255 57 change;
#X obj 255 81 t b;
#X obj 161 452 change;
#X obj 161 473 t b;
#X obj 161 496 outlet;
#X msg 166 379 link \$1;
#X msg 93 273 open shaders/\$1.frag;
#X obj 140 133 symbol disque;
#X msg 628 274 scale \$1;
#X msg 508 264 x \$1;
#X msg 574 277 y \$1;
#X floatatom 509 221 5 0 0 0 - - - 0;
#X obj 631 242 hsl 170 20 0.1 10 1 0 empty empty empty -2 -10 0 12 #fcfcfc #000000 #000000 0 1;
#X obj 547 329 t a;
#X floatatom 569 236 5 0 0 0 - - - 0;
#X obj 567 114 bng 20 250 50 0 empty empty empty 0 -10 0 12 #fcfcfc #000000 #000000;
#X msg 485 531 mixDisque \$1;
#X obj 489 496 hsl 170 20 0 1 0 0 empty empty empty -2 -10 0 12 #fcfcfc #000000 #000000 0 1;
#X msg 409 410 maskImage 0 \, image 10 \, disque 1;
#X connect 0 0 10 0;
#X connect 0 1 21 0;
#X connect 1 0 2 0;
#X connect 2 0 11 0;
#X connect 3 0 6 0;
#X connect 4 0 7 0;
#X connect 5 0 0 0;
#X connect 6 0 0 0;
#X connect 6 1 4 0;
#X connect 7 0 24 0;
#X connect 9 0 13 0;
#X connect 11 0 6 0;
#X connect 12 0 0 0;
#X connect 13 0 15 0;
#X connect 13 1 6 0;
#X connect 14 0 15 0;
#X connect 15 0 26 0;
#X connect 16 0 25 0;
#X connect 17 0 18 0;
#X connect 18 0 19 0;
#X connect 19 0 20 0;
#X connect 20 0 15 0;
#X connect 21 0 22 0;
#X connect 22 0 23 0;
#X connect 22 0 37 0;
#X connect 24 0 0 0;
#X connect 24 0 8 0;
#X connect 25 0 6 0;
#X connect 26 0 25 0;
#X connect 27 0 32 0;
#X connect 28 0 32 0;
#X connect 29 0 32 0;
#X connect 30 0 28 0;
#X connect 31 0 27 0;
#X connect 32 0 0 0;
#X connect 33 0 29 0;
#X connect 34 0 30 0;
#X connect 34 0 33 0;
#X connect 34 0 31 0;
#X connect 35 0 0 0;
#X connect 36 0 35 0;
#X connect 37 0 0 0;
#X restore 237 468 pd _glsl;
#X obj 237 440 pix_texture;
#X msg 152 415 texunit 0;
#X obj 150 273 loadbang;
#X obj 204 485 bng 20 250 50 0 empty empty empty 0 -10 0 12 #fcfcfc #000000 #000000;
#X obj 237 329 pix_image disque2.png;
#X msg 1014 193 scale \$1;
#X msg 917 136 x \$1;
#X msg 964 165 y \$1;
#X obj 955 226 t a;
#X obj 237 215 pix_texture;
#N canvas 69 174 804 667 _glsl 0;
#X obj 80 426 glsl_program;
#X obj 343 250 bng 15 250 50 0 empty empty empty 0 -6 0 8 #fcfcfc #000000 #000000;
#N canvas 0 22 450 300 open 0;
#X obj 75 103 openpanel;
#X obj 75 173 outlet;
#X obj 75 127 t b s;
#X msg 105 152 set open \$1;
#X obj 75 80 inlet;
#X connect 0 0 2 0;
#X connect 2 0 1 0;
#X connect 2 1 3 0;
#X connect 3 0 1 0;
#X connect 4 0 0 0;
#X restore 286 249 pd open;
#X msg 33 296 print;
#X obj 166 331 change;
#X msg 34 420 print;
#X obj 80 310 glsl_fragment;
#X floatatom 166 355 2 0 0 0 ID - - 0;
#X obj 184 400 print linking;
#X obj 13 52 inlet;
#X obj 80 462 outlet;
#X msg 286 273 open \$1;
#X obj 422 77 inlet;
#X obj 13 75 route bang;
#X obj 140 83 bng 15 250 50 0 empty empty empty 17 7 0 10 #fcfcfc #000000 #000000;
#X obj 140 109 t b b;
#X msg 140 202 symbol \$1/\$2;
#X obj 255 11 gemhead 1;
#X msg 255 33 1;
#X obj 255 57 change;
#X obj 255 81 t b;
#X obj 161 452 change;
#X obj 161 473 t b;
#X obj 161 496 outlet;
#X msg 166 379 link \$1;
#X msg 93 273 open shaders/\$1.frag;
#X obj 140 133 symbol disque;
#X msg 628 274 scale \$1;
#X msg 508 264 x \$1;
#X msg 574 277 y \$1;
#X floatatom 509 221 5 0 0 0 - - - 0;
#X obj 631 242 hsl 170 20 0.1 10 1 0 empty empty empty -2 -10 0 12 #fcfcfc #000000 #000000 0 1;
#X obj 547 329 t a;
#X floatatom 569 236 5 0 0 0 - - - 0;
#X obj 567 114 bng 20 250 50 0 empty empty empty 0 -10 0 12 #fcfcfc #000000 #000000;
#X obj 415 453 bng 20 250 50 0 empty empty empty 0 -10 0 12 #fcfcfc #000000 #000000;
#X msg 479 604 alpha \$1;
#X obj 469 568 hsl 170 20 0 1 0 0 empty empty empty -2 -10 0 12 #fcfcfc #000000 #000000 0 1;
#X msg 485 531 mixDisque \$1;
#X obj 489 496 hsl 170 20 0 1 0 0 empty empty empty -2 -10 0 12 #fcfcfc #000000 #000000 0 1;
#X msg 411 409 maskImage 4 \, image 10 \, disque 6 \, mixDisque 0;
#X connect 0 0 10 0;
#X connect 0 1 21 0;
#X connect 1 0 2 0;
#X connect 2 0 11 0;
#X connect 3 0 6 0;
#X connect 4 0 7 0;
#X connect 5 0 0 0;
#X connect 6 0 0 0;
#X connect 6 1 4 0;
#X connect 7 0 24 0;
#X connect 9 0 13 0;
#X connect 11 0 6 0;
#X connect 12 0 0 0;
#X connect 13 0 15 0;
#X connect 13 1 6 0;
#X connect 14 0 15 0;
#X connect 15 0 26 0;
#X connect 16 0 25 0;
#X connect 17 0 18 0;
#X connect 18 0 19 0;
#X connect 19 0 20 0;
#X connect 20 0 15 0;
#X connect 21 0 22 0;
#X connect 22 0 23 0;
#X connect 22 0 40 0;
#X connect 24 0 0 0;
#X connect 24 0 8 0;
#X connect 25 0 6 0;
#X connect 26 0 25 0;
#X connect 27 0 32 0;
#X connect 28 0 32 0;
#X connect 29 0 32 0;
#X connect 30 0 28 0;
#X connect 31 0 27 0;
#X connect 32 0 0 0;
#X connect 33 0 29 0;
#X connect 34 0 30 0;
#X connect 34 0 33 0;
#X connect 34 0 31 0;
#X connect 36 0 0 0;
#X connect 37 0 36 0;
#X connect 38 0 0 0;
#X connect 39 0 38 0;
#X connect 40 0 0 0;
#X connect 40 0 35 0;
#X restore 577 531 pd _glsl;
#X obj 577 503 pix_texture;
#X obj 491 317 loadbang;
#X obj 544 502 bng 20 250 50 0 empty empty empty 0 -10 0 12 #fcfcfc #000000 #000000;
#X obj 237 242 t a a, f 49;
#X msg 1089 418 scale \$1;
#X msg 994 367 x \$1;
#X msg 1038 394 y \$1;
#X obj 1011 446 t a;
#X obj 492 23 inlet rotate;
#X obj 237 300 rotate 0 0 1;
#X obj 237 271 separator;
#X obj 577 303 separator;
#X obj 577 349 rotate 0 0 1;
#X obj 784 301 separator;
#X obj 784 438 pix_texture;
#X obj 577 446 pix_texture;
#X obj 784 412 pix_image CD2.png;
#X msg 491 381 texunit 4;
#X msg 500 351 texunit 6;
#X msg 315 470 alpha \$1;
#X obj 608 45 hsl 170 20 0 1 0 0 empty empty empty -2 -10 0 12 #fcfcfc #000000 #000000 0 1;
#X obj 577 409 pix_image CD2.png;
#X obj 156 167 loadbang;
#X obj 237 413 pix_image disque_etiquette_blanc.png;
#X msg 156 193 texunit 10;
#X msg 159 317 texunit 1;
#X obj 784 385 colorRGB 1 1 1 1;
#X msg 765 591 alpha \$1;
#X obj 768 560 hsl 170 20 0 1 0 0 empty empty empty -2 -10 0 12 #fcfcfc #000000 #000000 0 1;
#X obj 764 487 * -1;
#X obj 764 512 + 1;
#X obj 577 581 rectangle 3.64 3.64;
#X obj 577 271 t a a, f 30;
#X obj 605 18 inlet vinyl;
#X obj 765 535 pow 0.25;
#X obj 605 106 pow 1;
#X obj 492 48 * 1;
#X obj 577 475 pix_image CD2_etiquette.png;
#X floatatom 885 325 5 0 0 0 - - - 0;
#X floatatom 933 327 5 0 0 0 - - - 0;
#X floatatom 673 352 5 0 0 0 - - - 0;
#X floatatom 721 354 5 0 0 0 - - - 0;
#X msg 453 31 0;
#X floatatom 441 65 5 0 0 0 - - - 0;
#X obj 784 223 rotate 0 0 1;
#X obj 784 329 rotate 0 0 1;
#X obj 833 69 metro 200;
#X obj 843 21 tgl 20 0 empty empty empty 0 -10 0 12 #fcfcfc #000000 #000000 0 1;
#X obj 833 94 tgl 20 0 empty empty empty 0 -10 0 12 #fcfcfc #000000 #000000 0 1;
#X obj 784 359 translateXYZ 0 -0.04 0;
#X msg 864 286 0;
#X obj 832 125 * 90;
#X obj 577 380 translateXYZ 0 -0.04 0;
#X floatatom 936 272 5 0 0 0 - - - 0;
#X obj 917 110 r TUNE-vx-snd;
#X obj 964 138 r TUNE-vy-snd;
#X obj 1014 167 r TUNE-vscale-snd;
#X obj 994 341 r TUNE-cx-snd;
#X obj 1038 369 r TUNE-cy-snd;
#X obj 1089 393 r TUNE-cscale-snd;
#X obj 653 300 * 3;
#X obj 370 69 r TUNE;
#X obj 370 92 symbol;
#X msg 369 119 open ../../data/tunes/\$1/cover.jpg;
#X obj 237 191 pix_image;
#X connect 0 0 1 0;
#X connect 1 0 2 0;
#X connect 3 0 5 0;
#X connect 4 0 46 0;
#X connect 5 0 7 0;
#X connect 5 1 1 1;
#X connect 6 0 87 0;
#X connect 7 0 6 0;
#X connect 8 0 9 0;
#X connect 9 0 5 0;
#X connect 11 0 10 0;
#X connect 12 0 11 0;
#X connect 13 0 12 0;
#X connect 14 0 48 0;
#X connect 14 0 13 0;
#X connect 15 0 11 0;
#X connect 16 0 4 0;
#X connect 17 0 20 0;
#X connect 18 0 20 0;
#X connect 19 0 20 0;
#X connect 20 0 11 1;
#X connect 21 0 26 0;
#X connect 22 0 54 0;
#X connect 23 0 22 0;
#X connect 24 0 41 0;
#X connect 24 0 40 0;
#X connect 25 0 22 0;
#X connect 26 0 33 0;
#X connect 26 1 55 0;
#X connect 27 0 30 0;
#X connect 28 0 30 0;
#X connect 29 0 30 0;
#X connect 30 0 22 1;
#X connect 31 0 59 0;
#X connect 32 0 16 0;
#X connect 33 0 32 0;
#X connect 34 0 35 0;
#X connect 35 0 75 0;
#X connect 36 0 68 0;
#X connect 37 0 54 0;
#X connect 38 0 60 0;
#X connect 39 0 37 0;
#X connect 40 0 23 0;
#X connect 41 0 38 0;
#X connect 42 0 11 1;
#X connect 43 0 58 0;
#X connect 44 0 38 0;
#X connect 45 0 47 0;
#X connect 46 0 12 0;
#X connect 47 0 21 0;
#X connect 48 0 4 0;
#X connect 49 0 39 0;
#X connect 50 0 22 1;
#X connect 51 0 49 4;
#X connect 51 0 50 0;
#X connect 52 0 53 0;
#X connect 53 0 57 0;
#X connect 55 0 34 0;
#X connect 55 1 36 0;
#X connect 56 0 43 0;
#X connect 57 0 51 0;
#X connect 58 0 42 0;
#X connect 58 0 52 0;
#X connect 59 0 32 1;
#X connect 59 0 83 0;
#X connect 60 0 23 0;
#X connect 61 0 72 1;
#X connect 62 0 72 2;
#X connect 63 0 75 1;
#X connect 64 0 75 2;
#X connect 65 0 59 0;
#X connect 66 0 59 0;
#X connect 68 0 72 0;
#X connect 69 0 71 0;
#X connect 70 0 69 0;
#X connect 71 0 74 0;
#X connect 72 0 49 0;
#X connect 73 0 68 1;
#X connect 74 0 83 0;
#X connect 75 0 44 0;
#X connect 76 0 68 1;
#X connect 77 0 18 0;
#X connect 78 0 19 0;
#X connect 79 0 17 0;
#X connect 80 0 28 0;
#X connect 81 0 29 0;
#X connect 82 0 27 0;
#X connect 83 0 35 1;
#X connect 84 0 85 0;
#X connect 85 0 86 0;
#X connect 86 0 87 0;
#X connect 87 0 21 0;
#X restore 78 441 pd disque;
#X obj 188 686 * 2;
#X obj 200 384 min 1;
#X obj 536 202 + 210;
#X msg 112 477 0;
#X obj 619 429 route down pos vinyl;
#X obj 179 14 r fromAudio;
#X obj 179 39 route disquealpha;
#X obj 32 108 colorRGB 1 1 1 0;
#X connect 0 0 17 0;
#X connect 2 0 19 1;
#X connect 3 0 18 1;
#X connect 4 0 18 2;
#X connect 5 0 112 0;
#X connect 5 0 113 0;
#X connect 5 0 119 4;
#X connect 6 0 26 0;
#X connect 7 0 18 3;
#X connect 8 0 20 1;
#X connect 9 0 22 1;
#X connect 10 0 108 1;
#X connect 11 0 68 1;
#X connect 12 0 11 0;
#X connect 13 0 108 1;
#X connect 14 0 108 2;
#X connect 15 0 29 0;
#X connect 15 0 31 1;
#X connect 17 0 24 0;
#X connect 18 0 54 0;
#X connect 19 0 20 0;
#X connect 20 0 36 0;
#X connect 21 0 109 0;
#X connect 22 0 108 0;
#X connect 23 0 25 0;
#X connect 24 0 119 0;
#X connect 25 0 31 0;
#X connect 26 0 16 0;
#X connect 26 0 60 1;
#X connect 27 0 31 2;
#X connect 28 0 21 0;
#X connect 29 0 25 1;
#X connect 30 0 108 3;
#X connect 31 0 42 0;
#X connect 33 0 41 0;
#X connect 34 0 63 0;
#X connect 35 0 39 0;
#X connect 36 0 22 0;
#X connect 36 1 35 0;
#X connect 36 2 28 0;
#X connect 37 0 39 4;
#X connect 38 0 33 0;
#X connect 39 0 38 0;
#X connect 40 0 60 0;
#X connect 41 0 34 0;
#X connect 42 0 50 0;
#X connect 44 0 43 1;
#X connect 45 0 43 2;
#X connect 46 0 42 1;
#X connect 47 0 42 2;
#X connect 48 0 42 3;
#X connect 49 0 43 3;
#X connect 50 0 43 0;
#X connect 51 0 50 3;
#X connect 52 0 66 0;
#X connect 53 0 57 0;
#X connect 54 0 19 0;
#X connect 55 0 54 1;
#X connect 55 0 54 2;
#X connect 55 0 54 3;
#X connect 56 0 57 1;
#X connect 57 0 40 0;
#X connect 58 0 61 0;
#X connect 59 0 60 1;
#X connect 60 0 33 1;
#X connect 60 0 104 0;
#X connect 60 0 111 1;
#X connect 61 0 18 1;
#X connect 61 1 18 2;
#X connect 61 2 7 0;
#X connect 61 3 55 0;
#X connect 61 4 2 0;
#X connect 61 5 8 0;
#X connect 61 6 9 0;
#X connect 61 7 62 0;
#X connect 62 0 60 1;
#X connect 64 0 65 0;
#X connect 65 0 66 1;
#X connect 66 0 12 0;
#X connect 67 0 69 1;
#X connect 68 0 69 0;
#X connect 69 0 23 0;
#X connect 70 0 69 1;
#X connect 71 0 72 0;
#X connect 72 0 70 0;
#X connect 73 0 74 0;
#X connect 74 0 72 1;
#X connect 75 0 76 0;
#X connect 76 0 116 0;
#X connect 77 0 71 0;
#X connect 78 0 82 0;
#X connect 78 1 79 0;
#X connect 79 0 83 0;
#X connect 79 1 80 0;
#X connect 80 0 84 0;
#X connect 80 1 85 0;
#X connect 81 0 78 0;
#X connect 82 0 86 0;
#X connect 83 0 86 0;
#X connect 84 0 86 0;
#X connect 85 0 86 0;
#X connect 86 0 101 0;
#X connect 87 0 88 0;
#X connect 88 0 81 0;
#X connect 89 0 88 0;
#X connect 90 0 88 0;
#X connect 91 0 88 0;
#X connect 92 0 93 0;
#X connect 93 0 94 0;
#X connect 94 0 95 0;
#X connect 95 0 96 0;
#X connect 96 0 110 0;
#X connect 97 0 100 0;
#X connect 98 0 99 0;
#X connect 99 0 77 0;
#X connect 99 0 97 0;
#X connect 100 0 96 0;
#X connect 100 1 96 1;
#X connect 101 0 52 0;
#X connect 102 0 101 0;
#X connect 102 1 101 1;
#X connect 103 0 114 1;
#X connect 104 0 114 0;
#X connect 105 0 102 0;
#X connect 106 0 107 0;
#X connect 108 0 68 0;
#X connect 109 0 111 0;
#X connect 110 0 105 0;
#X connect 110 0 106 0;
#X connect 112 0 23 4;
#X connect 113 0 109 4;
#X connect 114 0 92 0;
#X connect 115 0 21 1;
#X connect 116 0 99 0;
#X connect 116 1 78 0;
#X connect 116 2 111 2;
#X connect 117 0 118 0;
#X connect 118 0 5 0;
#X connect 119 0 18 0;
#X restore 85 377 pd tourne_disque;
#X obj 429 486 Tunes;
#X obj 864 169 r fromAudio;
#X obj 864 194 route speed light;
#X obj 778 165 * 1;
#X obj 810 165 t b f;
#X obj 18 417 t a a a;
#X obj 41 603 Warnings/Warnings;
#X obj 64 473 separator;
#X msg 410 286 0;
#X obj 554 230 change -1;
#X obj 554 178 + 0;
#X connect 0 0 71 0;
#X connect 1 0 23 0;
#X connect 2 0 72 0;
#X connect 3 0 47 0;
#X connect 3 0 72 1;
#X connect 4 0 3 0;
#X connect 5 0 8 0;
#X connect 6 0 8 0;
#X connect 7 0 8 0;
#X connect 8 0 87 1;
#X connect 10 0 11 0;
#X connect 10 1 11 1;
#X connect 11 0 46 0;
#X connect 12 0 10 0;
#X connect 13 0 12 1;
#X connect 15 1 16 0;
#X connect 15 1 28 0;
#X connect 17 0 43 1;
#X connect 18 0 20 0;
#X connect 19 0 20 0;
#X connect 20 0 1 1;
#X connect 22 0 20 0;
#X connect 23 0 15 0;
#X connect 24 0 23 1;
#X connect 29 0 71 0;
#X connect 30 0 16 0;
#X connect 31 0 16 0;
#X connect 32 0 16 0;
#X connect 33 0 12 0;
#X connect 33 0 49 0;
#X connect 34 0 40 0;
#X connect 34 1 37 1;
#X connect 35 0 61 0;
#X connect 36 0 42 0;
#X connect 37 0 39 0;
#X connect 38 0 39 1;
#X connect 40 0 36 0;
#X connect 41 0 37 0;
#X connect 42 1 48 0;
#X connect 44 0 41 4;
#X connect 45 0 84 0;
#X connect 48 0 64 0;
#X connect 49 0 82 0;
#X connect 49 1 34 0;
#X connect 49 2 26 0;
#X connect 50 0 51 0;
#X connect 50 0 53 0;
#X connect 51 0 59 0;
#X connect 53 0 58 0;
#X connect 54 0 59 2;
#X connect 55 0 14 0;
#X connect 56 0 52 0;
#X connect 57 0 59 1;
#X connect 58 0 52 0;
#X connect 59 0 14 0;
#X connect 61 0 34 0;
#X connect 62 0 66 0;
#X connect 64 0 76 0;
#X connect 64 1 62 0;
#X connect 66 0 65 0;
#X connect 67 0 68 0;
#X connect 68 0 34 0;
#X connect 70 0 1 0;
#X connect 70 0 71 1;
#X connect 70 0 86 0;
#X connect 71 0 87 0;
#X connect 72 0 71 0;
#X connect 73 0 2 0;
#X connect 74 0 80 0;
#X connect 75 0 8 0;
#X connect 78 0 79 0;
#X connect 79 0 81 0;
#X connect 79 1 44 0;
#X connect 80 0 75 0;
#X connect 81 0 80 0;
#X connect 81 1 80 1;
#X connect 82 0 43 0;
#X connect 82 1 83 0;
#X connect 82 2 45 0;
#X connect 84 0 41 0;
#X connect 85 0 27 0;
#X connect 86 0 27 0;
#X connect 86 0 63 0;
#X connect 87 0 70 0;
