#N canvas 680 19 913 930 12;
#X obj 274 16 text define bfTex\$1;
#X obj 24 70 separator;
#X obj 24 128 pix_film;
#X obj 24 210 pix_texture;
#X obj 186 28 inlet;
#X obj 186 53 route open;
#X obj 186 103 t b s b;
#X msg 209 128 open \$1;
#X obj 31 746 clone filmbuf 48;
#X obj 216 378 loadbang;
#X obj 31 665 list prepend 0;
#X obj 50 156 unpack f;
#X floatatom 50 181 5 0 0 0 - - - 0;
#X msg 315 209 clear;
#X obj 315 234 s bfTex\$1;
#X obj 179 827 list split 1;
#X obj 56 390 i;
#X msg 175 472 0;
#X msg 128 24 1;
#X floatatom 56 416 5 0 0 0 - - - 0;
#X obj 456 279 bng 20 250 50 0 empty empty empty 0 -10 0 12 #fcfcfc #000000 #000000;
#X obj 88 391 + 1;
#X text 273 55 filename looplen filmoffset;
#X obj 186 78 unpack s f f, f 27;
#X obj 216 208 +;
#X obj 137 138 b;
#X obj 31 774 list split 1;
#X obj 31 857 pix_texture;
#X obj 31 827 translateXYZ 0 0 -4;
#X obj 31 883 rectangle 4 4;
#X obj 31 802 list trim;
#X obj 400 359 t a b;
#X obj 400 424 list prepend;
#X obj 400 474 print;
#X msg 376 316 frame \$1;
#X msg 293 316 texture \$1;
#X msg 172 135 0;
#X obj 216 238 t a a;
#X obj 431 392 realtime;
#X obj 31 636 gemhead;
#X obj 41 588 loadbang;
#X msg 41 613 0;
#X msg 240 450 all dimen 1600 800;
#X obj 24 99 colorRGB 1 1 1 1;
#X obj 497 14 r bfctl\$1;
#X obj 497 64 t b f;
#X obj 617 64 t b f;
#X obj 737 64 t b f;
#X obj 497 148 del 10;
#X obj 497 203 pack s f f, f 44;
#X obj 529 90 + 1;
#X obj 497 176 symbol;
#X obj 497 39 route film length firstframe, f 52;
#X floatatom 383 99 5 0 0 0 - - - 0;
#X obj 360 157 v bfLen\$1;
#X obj 360 131 s bfLen\$1;
#X obj 279 103 clip 1 48;
#X msg 74 342 0;
#X obj 24 235 spigot;
#X obj 78 236 tgl 20 0 empty empty empty 0 -10 0 12 #fcfcfc #000000 #000000 0 1;
#X obj 24 44 spigot 1;
#X floatatom 206 305 5 0 0 0 - - - 0;
#X obj 24 257 translateXYZ 0 0 0;
#X obj 24 17 r gemPreHead;
#X obj 24 280 rectangle 1.8 1;
#X obj 27 350 bng 20 250 50 0 empty empty empty 0 -10 0 12 #fcfcfc #000000 #000000;
#X obj 121 433 b;
#X obj 533 569 r bfLen\$1;
#X floatatom 493 617 5 0 0 0 - - - 0;
#X obj 496 542 hsl 170 20 0 1 0 0 empty empty empty -2 -10 0 12 #fcfcfc #000000 #000000 0 1;
#X obj 493 566 * 24;
#X obj 493 591 i;
#X obj 558 607 tgl 20 0 empty empty empty 0 -10 0 12 #fcfcfc #000000 #000000 0 1;
#X obj 619 386 text size bfTex\$1;
#X floatatom 619 411 5 0 0 0 - - - 0;
#X obj 619 358 bng 20 250 50 0 empty empty empty 0 -10 0 12 #fcfcfc #000000 #000000;
#X obj 400 449 spigot;
#X obj 455 449 tgl 20 0 empty empty empty 0 -10 0 12 #fcfcfc #000000 #000000 0 1;
#X obj 31 701 t a a;
#X obj 31 553 t b f;
#X msg 269 209 48;
#X obj 269 234 until;
#X obj 269 258 text set bfTex\$1 1e+06;
#X obj 269 186 t b b, f 7;
#X obj 179 801 t a a, f 14;
#X obj 274 827 list split 1;
#X obj 219 858 text set bfTex\$1, f 24;
#X msg 267 610 0;
#X msg 216 403 all format RGB \, all dimen 2048 1024, f 19;
#X msg 305 611 1;
#X obj 31 444 t b f;
#X obj 121 390 moses 48;
#X obj 31 498 f;
#X obj 31 526 t f f;
#X obj 31 473 del 50;
#X obj 121 458 del 60;
#X obj 174 326 r bfLen\$1;
#X obj 138 162 del 150;
#X obj 174 422 b;
#X obj 174 447 del 60;
#X floatatom 418 204 5 0 0 0 - - - 0;
#X msg 529 114 symbol ../../data/machines/film\$1.mov;
#X connect 1 0 43 0;
#X connect 2 0 3 0;
#X connect 2 1 11 0;
#X connect 3 0 58 0;
#X connect 3 1 27 1;
#X connect 3 1 35 0;
#X connect 4 0 5 0;
#X connect 5 0 23 0;
#X connect 6 0 18 0;
#X connect 6 1 7 0;
#X connect 6 2 57 0;
#X connect 6 2 20 0;
#X connect 6 2 36 0;
#X connect 6 2 83 0;
#X connect 7 0 2 0;
#X connect 8 0 26 0;
#X connect 8 1 31 0;
#X connect 8 1 84 0;
#X connect 9 0 88 0;
#X connect 10 0 78 0;
#X connect 11 0 12 0;
#X connect 11 0 25 0;
#X connect 13 0 14 0;
#X connect 15 1 86 0;
#X connect 16 0 19 0;
#X connect 16 0 21 0;
#X connect 16 0 34 0;
#X connect 16 0 90 0;
#X connect 17 0 60 1;
#X connect 18 0 60 1;
#X connect 20 0 38 0;
#X connect 21 0 91 0;
#X connect 23 0 6 0;
#X connect 23 1 56 0;
#X connect 23 2 24 1;
#X connect 24 0 37 0;
#X connect 24 0 100 0;
#X connect 25 0 36 0;
#X connect 25 0 97 0;
#X connect 26 1 30 0;
#X connect 27 0 29 0;
#X connect 28 0 27 0;
#X connect 30 0 28 0;
#X connect 31 0 32 0;
#X connect 31 1 38 1;
#X connect 32 0 76 0;
#X connect 34 0 31 0;
#X connect 36 0 2 1;
#X connect 37 0 2 1;
#X connect 38 0 32 1;
#X connect 39 0 10 0;
#X connect 40 0 41 0;
#X connect 41 0 39 0;
#X connect 42 0 78 0;
#X connect 43 0 2 0;
#X connect 44 0 52 0;
#X connect 45 0 48 0;
#X connect 45 1 50 0;
#X connect 46 0 48 0;
#X connect 46 1 49 1;
#X connect 47 0 48 0;
#X connect 47 1 49 2;
#X connect 48 0 51 0;
#X connect 49 0 23 0;
#X connect 50 0 101 0;
#X connect 51 0 49 0;
#X connect 52 0 45 0;
#X connect 52 1 46 0;
#X connect 52 2 47 0;
#X connect 53 0 55 0;
#X connect 56 0 55 0;
#X connect 57 0 16 1;
#X connect 58 0 62 0;
#X connect 59 0 58 1;
#X connect 60 0 1 0;
#X connect 61 0 62 3;
#X connect 62 0 64 0;
#X connect 63 0 60 0;
#X connect 65 0 16 0;
#X connect 66 0 95 0;
#X connect 67 0 70 1;
#X connect 68 0 2 1;
#X connect 69 0 70 0;
#X connect 70 0 71 0;
#X connect 71 0 68 0;
#X connect 72 0 68 0;
#X connect 73 0 74 0;
#X connect 75 0 73 0;
#X connect 76 0 33 0;
#X connect 77 0 76 1;
#X connect 78 0 8 0;
#X connect 78 1 31 0;
#X connect 79 0 39 0;
#X connect 79 1 10 1;
#X connect 80 0 81 0;
#X connect 81 0 82 0;
#X connect 83 0 80 0;
#X connect 83 1 13 0;
#X connect 84 0 15 0;
#X connect 84 1 85 0;
#X connect 85 0 86 1;
#X connect 88 0 78 0;
#X connect 90 0 94 0;
#X connect 90 1 24 0;
#X connect 90 1 92 1;
#X connect 91 0 16 1;
#X connect 91 0 66 0;
#X connect 91 1 98 0;
#X connect 92 0 93 0;
#X connect 93 0 79 0;
#X connect 93 1 79 0;
#X connect 94 0 92 0;
#X connect 95 0 16 0;
#X connect 96 0 91 1;
#X connect 97 0 65 0;
#X connect 98 0 99 0;
#X connect 99 0 17 0;
#X connect 101 0 51 1;
