#N canvas 819 31 913 930 12;
#X obj 274 16 text define bfTex\$1;
#X obj 24 17 r gemPreHead;
#X obj 24 70 separator;
#X obj 24 128 pix_film;
#X obj 24 210 pix_texture;
#X obj 24 44 spigot;
#X obj 186 28 inlet;
#X obj 186 53 route open;
#X obj 186 103 t b s b;
#X msg 209 128 open \$1;
#X obj 27 683 clone filmbuf 48;
#X msg 223 422 all dimen 2048 1024;
#X obj 223 395 loadbang;
#X obj 27 654 t a;
#X obj 27 587 list prepend 0;
#X obj 50 156 unpack f;
#X floatatom 50 181 5 0 0 0 - - - 0;
#X msg 272 132 clear;
#X obj 272 157 s bfTex\$1;
#X obj 136 710 list split 1;
#X obj 176 738 text set bfTex\$1 1e+06;
#X obj 56 390 i;
#X obj 121 390 moses 48;
#X msg 175 417 0;
#X msg 88 43 1;
#X floatatom 56 416 5 0 0 0 - - - 0;
#X obj 456 279 bng 20 250 50 0 empty empty empty 0 -10 0 12 #fcfcfc #000000 #000000;
#X obj 88 391 + 1;
#X text 273 55 filename looplen filmoffset;
#X obj 186 78 unpack s f f, f 27;
#X obj 216 208 +;
#X obj 137 138 b;
#X obj 24 295 spigot;
#X msg 63 270 1;
#X msg 106 270 0;
#X obj 27 711 list split 1;
#X obj 27 794 pix_texture;
#X obj 27 764 translateXYZ 0 0 -4;
#X obj 27 820 rectangle 4 4;
#X obj 27 739 list trim;
#X obj 400 359 t a b;
#X obj 400 424 list prepend;
#X obj 400 449 print;
#X msg 376 316 frame \$1;
#X msg 293 316 texture \$1;
#X msg 171 135 0;
#X obj 216 238 t a a;
#X obj 431 392 realtime;
#X obj 20 551 gemhead;
#X obj 30 503 loadbang;
#X msg 30 528 0;
#X obj 24 336 t b b;
#X obj 20 467 b;
#X msg 74 342 -1;
#X msg 240 450 all dimen 1600 800;
#X obj 24 99 colorRGB 1 1 1 1;
#X obj 497 14 r bfctl\$1;
#X obj 497 64 t b f;
#X obj 617 64 t b f;
#X obj 737 64 t b f;
#X obj 497 148 del 10;
#X obj 497 203 pack s f f, f 44;
#X obj 529 90 + 1;
#X msg 529 114 symbol films/film\$1.mov;
#X obj 497 176 symbol;
#X obj 497 39 route film length firstframe, f 52;
#X floatatom 385 127 5 0 0 0 - - - 0;
#X obj 362 185 v bfLen\$1;
#X obj 362 159 s bfLen\$1;
#X obj 279 103 clip 1 48;
#X obj 138 162 del 250;
#X connect 1 0 5 0;
#X connect 2 0 55 0;
#X connect 3 0 4 0;
#X connect 3 1 15 0;
#X connect 4 0 32 0;
#X connect 4 1 36 1;
#X connect 4 1 44 0;
#X connect 5 0 2 0;
#X connect 6 0 7 0;
#X connect 7 0 29 0;
#X connect 8 0 24 0;
#X connect 8 1 9 0;
#X connect 8 2 17 0;
#X connect 8 2 53 0;
#X connect 8 2 34 0;
#X connect 8 2 26 0;
#X connect 9 0 3 0;
#X connect 10 0 35 0;
#X connect 10 1 19 0;
#X connect 11 0 13 0;
#X connect 12 0 11 0;
#X connect 13 0 10 0;
#X connect 14 0 13 0;
#X connect 15 0 16 0;
#X connect 15 0 31 0;
#X connect 17 0 18 0;
#X connect 19 1 20 0;
#X connect 21 0 14 1;
#X connect 21 0 25 0;
#X connect 21 0 27 0;
#X connect 21 0 30 0;
#X connect 21 0 43 0;
#X connect 22 0 21 1;
#X connect 22 1 23 0;
#X connect 23 0 5 1;
#X connect 24 0 5 1;
#X connect 26 0 47 0;
#X connect 27 0 22 0;
#X connect 29 0 8 0;
#X connect 29 1 69 0;
#X connect 29 2 30 1;
#X connect 30 0 46 0;
#X connect 31 0 45 0;
#X connect 31 0 70 0;
#X connect 32 0 51 0;
#X connect 33 0 32 1;
#X connect 34 0 32 1;
#X connect 35 1 39 0;
#X connect 36 0 38 0;
#X connect 37 0 36 0;
#X connect 39 0 37 0;
#X connect 40 0 41 0;
#X connect 40 1 47 1;
#X connect 41 0 42 0;
#X connect 43 0 40 0;
#X connect 44 0 40 0;
#X connect 45 0 3 1;
#X connect 46 0 3 1;
#X connect 47 0 41 1;
#X connect 48 0 14 0;
#X connect 49 0 50 0;
#X connect 50 0 48 0;
#X connect 51 0 52 0;
#X connect 51 1 21 0;
#X connect 52 0 48 0;
#X connect 53 0 21 1;
#X connect 54 0 13 0;
#X connect 55 0 3 0;
#X connect 56 0 65 0;
#X connect 57 0 60 0;
#X connect 57 1 62 0;
#X connect 58 0 60 0;
#X connect 58 1 61 1;
#X connect 59 0 60 0;
#X connect 59 1 61 2;
#X connect 60 0 64 0;
#X connect 61 0 29 0;
#X connect 62 0 63 0;
#X connect 63 0 64 1;
#X connect 64 0 61 0;
#X connect 65 0 57 0;
#X connect 65 1 58 0;
#X connect 65 2 59 0;
#X connect 66 0 68 0;
#X connect 69 0 68 0;
#X connect 70 0 33 0;
