#N canvas 735 420 340 304 12;
#X obj 38 80 inlet;
#X obj 38 210 +, f 12;
#X obj 119 182 * \$2;
#X obj 87 80 r \$1;
#X obj 87 105 t f f;
#X obj 57 136 t b f;
#X obj 119 132 * -1;
#X obj 119 157 + 1;
#X text 80 26 fade parameter CHAN VAL0;
#X obj 38 235 outlet;
#X obj 38 165 * 1;
#X connect 0 0 10 0;
#X connect 1 0 9 0;
#X connect 2 0 1 1;
#X connect 3 0 4 0;
#X connect 4 0 5 0;
#X connect 4 1 6 0;
#X connect 5 0 10 0;
#X connect 5 1 10 1;
#X connect 6 0 7 0;
#X connect 7 0 2 0;
#X connect 10 0 1 0;
