#N canvas 1120 19 602 450 12;
#X declare -path AutoPreset;
#X obj 35 29 hradio 20 1 0 6 \$0-film-snd \$0-film-rcv film 0 -10 0 12 #fcfcfc #000000 #000000 0;
#X obj 349 14 declare -path AutoPreset;
#X obj 349 39 apmaster \$0-MASTER;
#X obj 563 94 bng 15 250 50 0 empty empty empty 17 7 0 10 #fc0400 #000000 #000000;
#X obj 349 97 bng 15 250 50 0 empty empty empty 17 7 0 10 #00fc04 #000000 #000000;
#X obj 401 63 loadbang;
#X obj 349 117 apmasterfile \$0-MASTER Sets.txt;
#X obj 348 147 64patterns \$0-MASTER;
#X obj 164 30 nbx 5 18 0 400 0 0 \$0-firstframe-snd \$0-firstframe-rcv first\ frame 0 -10 0 12 #fcfcfc #000000 #000000 0 256;
#X obj 251 31 nbx 5 18 1 48 0 0 \$0-length-snd \$0-length-rcv length 0 -10 0 12 #fcfcfc #000000 #000000 0 256;
#X obj 39 55 hsl 100 20 -30 30 0 0 \$0-x-snd \$0-x-rcv x 10 10 0 12 #fcfcfc #000000 #000000 0 1;
#X obj 148 55 hsl 100 20 -20 20 0 0 \$0-y-snd \$0-y-rcv y 10 10 0 12 #fcfcfc #000000 #000000 0 1;
#X obj 39 79 hsl 100 20 1 200 1 0 \$0-w-snd \$0-w-rcv w 10 10 0 12 #fcfcfc #000000 #000000 0 1;
#X obj 148 79 hsl 100 20 1 200 1 0 \$0-h-snd \$0-h-rcv h 10 10 0 12 #fcfcfc #000000 #000000 0 1;
#X msg 2 57 0;
#X obj 30 117 hsl 80 20 -8 8 0 0 \$0-dx-snd \$0-dx-rcv dx 10 10 0 12 #fcfcfc #000000 #000000 0 1;
#X obj 119 117 hsl 80 20 -8 8 0 0 \$0-dy-snd \$0-dy-rcv dy 10 10 0 12 #fcfcfc #000000 #000000 0 1;
#X obj 210 117 hsl 80 20 0 -20 0 0 \$0-dz-snd \$0-dz-rcv dz 10 10 0 12 #fcfcfc #000000 #000000 0 1;
#X obj 30 142 hsl 80 20 0.02 2 1 0 \$0-ds-snd \$0-ds-rcv dsize 10 10 0 12 #fcfcfc #000000 #000000 0 1;
#X obj 30 192 hsl 80 20 -150 150 0 0 \$0-drx-snd \$0-drx-rcv drx 10 10 0 12 #fcfcfc #000000 #000000 0 1;
#X obj 119 191 hsl 80 20 -90 90 0 0 \$0-dry-snd \$0-dry-rcv dry 10 10 0 12 #fcfcfc #000000 #000000 0 1;
#X obj 207 191 hsl 80 20 -180 180 0 0 \$0-drz-snd \$0-drz-rcv drz 10 10 0 12 #fcfcfc #000000 #000000 0 1;
#X msg 117 167 0;
#X msg 28 167 0;
#X obj 265 78 tgl 20 0 \$0-dir-snd \$0-dir-rcv dir 0 -10 0 12 #fcfcfc #000000 #000000 0 1;
#X obj 135 142 hsl 80 20 0.1 20 1 0 \$0-dspeed-snd \$0-dspeed-rcv dspeed 10 10 0 12 #fcfcfc #000000 #000000 0 1;
#X floatatom 221 143 5 0 0 0 - - - 0;
#X obj 28 222 hsl 100 20 0 1 0 0 \$0-sr-snd \$0-sr-rcv empty -2 -10 0 12 #ff0400 #000000 #000000 0 1;
#X obj 28 243 hsl 100 20 0 1 0 0 \$0-sg-snd \$0-sg-rcv empty -2 -10 0 12 #00ff04 #000000 #000000 0 1;
#X obj 28 264 hsl 100 20 0 1 0 0 \$0-sb-snd \$0-sb-rcv empty -2 -10 0 12 #045cff #000000 #000000 0 1;
#X obj 27 319 hsl 100 20 0 1 0 0 \$0-skr-snd \$0-skr-rcv empty -2 -10 0 12 #ff0400 #000000 #000000 0 1;
#X obj 27 340 hsl 100 20 0 1 0 0 \$0-skg-snd \$0-skg-rcv empty -2 -10 0 12 #00ff04 #000000 #000000 0 1;
#X obj 27 361 hsl 100 20 0 1 0 0 \$0-skb-snd \$0-skb-rcv empty -2 -10 0 12 #045cff #000000 #000000 0 1;
#X obj 27 299 hsl 100 20 0 1 0 0 \$0-ska-snd \$0-ska-rcv empty -2 -10 0 12 #ffffff #000000 #000000 0 1;
#X obj 139 300 hsl 100 20 0 1 0 0 \$0-skt-snd \$0-skt-rcv threshold 10 10 0 12 #ffffff #000000 #000000 0 1;
#X obj 139 322 hsl 100 20 0 1 0 0 \$0-skf-snd \$0-skf-rcv fade 10 10 0 12 #ffffff #000000 #000000 0 1;
#X obj 145 220 hsl 100 20 -1 1 0 0 \$0-sbr-snd \$0-sbr-rcv brightness 10 10 0 12 #ffffff #000000 #000000 0 1;
#X obj 145 242 hsl 100 20 -8 8 0 0 \$0-sc-snd \$0-sc-rcv contrast 10 10 0 12 #ffffff #000000 #000000 0 1;
#X obj 145 265 hsl 100 20 -10 10 0 0 \$0-ss-snd \$0-ss-rcv saturation 10 10 0 12 #ffffff #000000 #000000 0 1;
#N canvas -112 105 1572 789 aps 1;
#X obj 8 8 apf \$0-MASTER film \$0-film;
#X obj 8 34 apf \$0-MASTER firstframe \$0-firstframe;
#X obj 8 57 apf \$0-MASTER length \$0-length;
#X obj 324 26 r \$0-film-snd;
#X msg 324 51 film \$1;
#X obj 428 26 r \$0-firstframe-snd;
#X msg 428 51 firstframe \$1;
#X obj 572 26 r \$0-length-snd;
#X msg 572 51 length \$1;
#X obj 324 87 s bfctl1;
#X obj 323 125 r \$0-x-snd;
#X msg 323 150 x \$1;
#X obj 408 126 r \$0-y-snd;
#X msg 408 151 y \$1;
#X obj 489 125 r \$0-w-snd;
#X msg 489 150 w \$1;
#X msg 574 151 h \$1;
#X obj 573 126 r \$0-h-snd;
#X obj 323 189 s vfctl1;
#X obj 8 88 apf \$0-MASTER x \$0-x;
#X obj 8 111 apf \$0-MASTER y \$0-y;
#X obj 8 135 apf \$0-MASTER w \$0-w;
#X obj 8 158 apf \$0-MASTER h \$0-h;
#X msg 323 269 x \$1;
#X msg 408 270 y \$1;
#X obj 323 214 r \$0-dx-snd;
#X obj 408 215 r \$0-dy-snd;
#X obj 489 214 r \$0-dz-snd;
#X msg 573 270 size \$1;
#X obj 660 215 r \$0-drx-snd;
#X obj 752 216 r \$0-dry-snd;
#X obj 843 215 r \$0-drz-snd;
#X msg 660 270 rx \$1;
#X msg 752 271 ry \$1;
#X msg 843 270 rz \$1;
#X msg 489 269 z \$1;
#X obj 323 308 s disquectl;
#X obj 573 215 r \$0-ds-snd;
#X obj 9 211 apf \$0-MASTER dx \$0-dx;
#X obj 9 234 apf \$0-MASTER dy \$0-dy;
#X obj 9 258 apf \$0-MASTER dz \$0-dz;
#X obj 9 281 apf \$0-MASTER ds \$0-ds;
#X obj 9 304 apf \$0-MASTER drx \$0-drx;
#X obj 9 328 apf \$0-MASTER dry \$0-dry;
#X obj 9 351 apf \$0-MASTER drz \$0-drz;
#X obj 8 181 apf \$0-MASTER dir \$0-dir;
#X obj 657 123 r \$0-dir-snd;
#X msg 658 148 dir \$1;
#X obj 944 213 r \$0-dspeed-snd;
#X msg 944 269 speed \$1;
#X obj 9 375 apf \$0-MASTER dspeed \$0-dspeed;
#X obj 300 500 s toShader;
#X obj 300 375 r \$0-sr-snd;
#X msg 300 439 colorR \$1;
#X obj 385 375 r \$0-sg-snd;
#X obj 470 375 r \$0-sb-snd;
#X msg 385 439 colorG \$1;
#X msg 470 438 colorB \$1;
#X obj 559 375 r \$0-skr-snd;
#X obj 650 374 r \$0-skg-snd;
#X obj 743 374 r \$0-skb-snd;
#X msg 559 439 chromaR \$1;
#X msg 650 438 chromaG \$1;
#X msg 743 437 chromaB \$1;
#X obj 1037 477 r \$0-ska-snd;
#X obj 1037 502 s \$0-skr-rcv;
#X obj 1132 502 s \$0-skg-rcv;
#X obj 1225 502 s \$0-skb-rcv;
#X obj 1143 370 r \$0-skt-snd;
#X msg 1143 433 chromaThreshold \$1;
#X obj 1283 368 r \$0-skf-snd;
#X msg 1283 431 chromaFade \$1;
#X obj 841 345 r \$0-sbr-snd;
#X msg 841 437 brightness \$1;
#X obj 947 373 r \$0-sc-snd;
#X msg 947 436 contrast \$1;
#X obj 1036 372 r \$0-ss-snd;
#X msg 1036 435 saturation \$1;
#X obj 12 419 apf \$0-MASTER sr \$0-sr;
#X obj 12 443 apf \$0-MASTER sg \$0-sg;
#X obj 12 466 apf \$0-MASTER sb \$0-sb;
#X obj 12 490 apf \$0-MASTER skr \$0-skr;
#X obj 12 513 apf \$0-MASTER skg \$0-skg;
#X obj 12 537 apf \$0-MASTER skb \$0-skb;
#X obj 12 560 apf \$0-MASTER sbr \$0-sbr;
#X obj 12 584 apf \$0-MASTER sc \$0-sc;
#X obj 12 607 apf \$0-MASTER ss \$0-ss;
#X obj 12 631 apf \$0-MASTER skt \$0-skt;
#X obj 12 654 apf \$0-MASTER skf \$0-skf;
#X obj 300 406 fp \$0fs 1;
#X obj 385 405 fp \$0fs 1;
#X obj 470 407 fp \$0fs 1;
#X obj 559 407 fp \$0fs 0;
#X obj 650 406 fp \$0fs 0;
#X obj 743 406 fp \$0fs 0;
#X obj 841 377 fp \$0fs 0;
#X obj 947 405 fp \$0fs 1;
#X obj 1036 404 fp \$0fs 1;
#X obj 1283 400 fp \$0fs 0;
#X obj 304 543 hsl 170 20 0 1 0 0 \$0fs \$0fs fadeShader -2 -10 0 12 #fcfcfc #000000 #000000 0 1;
#X obj 1143 402 fp \$0fs2 0;
#X obj 368 595 pow 2;
#X obj 368 620 s \$0fs2;
#X obj 368 569 r \$0fs;
#X obj 792 577 r \$0-initShader;
#X obj 321 682 s \$0-sr-rcv;
#X obj 406 683 s \$0-sg-rcv;
#X obj 491 683 s \$0-sb-rcv;
#X obj 580 683 s \$0-skr-rcv;
#X obj 671 682 s \$0-skg-rcv;
#X obj 764 682 s \$0-skb-rcv;
#X obj 862 682 s \$0-sbr-rcv;
#X obj 967 681 s \$0-sc-rcv;
#X obj 1057 680 s \$0-ss-rcv;
#X obj 1164 678 s \$0-skt-rcv;
#X obj 1267 678 s \$0-skf-rcv;
#X msg 784 616 1;
#X msg 825 615 0;
#X obj 24 697 apf \$0-MASTER gspeed \$0-gspeed;
#X obj 334 725 r \$0-gspeed-snd;
#X obj 334 750 s Gspeed;
#X obj 841 407 * 1;
#X obj 872 406 t b f;
#X obj 1075 260 hsl 170 20 0 1 0 0 \$0fd \$0fd fadeDisquePos -2 -10 0 12 #fcfcfc #000000 #000000 0 1;
#X obj 323 242 fp \$0fd 0;
#X obj 408 243 fp \$0fd 0;
#X obj 489 242 fp \$0fd 0;
#X obj 660 243 fp \$0fd 0;
#X obj 752 244 fp \$0fd 0;
#X floatatom 947 154 5 0 0 0 - - - 0;
#X obj 843 243 fp \$0fd 90;
#X obj 573 243 fp \$0fd 0.4;
#X obj 1123 105 r fromAudio;
#X obj 1198 169 s \$0fd;
#X obj 1123 170 s \$0fs;
#X obj 1270 166 random 12;
#X msg 1270 191 _all_ load \$1;
#X obj 1270 216 s \$0-MASTER-pattern-snd;
#X obj 1246 208 bng 20 250 50 0 empty empty empty 0 -10 0 12 #fcfcfc #000000 #000000;
#X msg 1446 191 zoom \$1;
#X obj 1446 216 s vfctl1;
#X obj 1123 134 route shader disquepos changeset vzoom;
#X connect 3 0 4 0;
#X connect 4 0 9 0;
#X connect 5 0 6 0;
#X connect 6 0 9 0;
#X connect 7 0 8 0;
#X connect 8 0 9 0;
#X connect 10 0 11 0;
#X connect 11 0 18 0;
#X connect 12 0 13 0;
#X connect 13 0 18 0;
#X connect 14 0 15 0;
#X connect 15 0 18 0;
#X connect 16 0 18 0;
#X connect 17 0 16 0;
#X connect 23 0 36 0;
#X connect 24 0 36 0;
#X connect 25 0 124 0;
#X connect 26 0 125 0;
#X connect 27 0 126 0;
#X connect 28 0 36 0;
#X connect 29 0 127 0;
#X connect 30 0 128 0;
#X connect 31 0 130 0;
#X connect 32 0 36 0;
#X connect 33 0 36 0;
#X connect 34 0 36 0;
#X connect 35 0 36 0;
#X connect 37 0 131 0;
#X connect 46 0 47 0;
#X connect 47 0 18 0;
#X connect 48 0 49 0;
#X connect 49 0 36 0;
#X connect 52 0 89 0;
#X connect 53 0 51 0;
#X connect 54 0 90 0;
#X connect 55 0 91 0;
#X connect 56 0 51 0;
#X connect 57 0 51 0;
#X connect 58 0 92 0;
#X connect 59 0 93 0;
#X connect 60 0 94 0;
#X connect 61 0 51 0;
#X connect 62 0 51 0;
#X connect 63 0 51 0;
#X connect 64 0 65 0;
#X connect 64 0 66 0;
#X connect 64 0 67 0;
#X connect 68 0 100 0;
#X connect 69 0 51 0;
#X connect 70 0 98 0;
#X connect 71 0 51 0;
#X connect 72 0 95 0;
#X connect 73 0 51 0;
#X connect 74 0 96 0;
#X connect 75 0 51 0;
#X connect 76 0 97 0;
#X connect 77 0 51 0;
#X connect 89 0 53 0;
#X connect 90 0 56 0;
#X connect 91 0 57 0;
#X connect 92 0 61 0;
#X connect 93 0 62 0;
#X connect 94 0 63 0;
#X connect 95 0 121 0;
#X connect 96 0 75 0;
#X connect 97 0 77 0;
#X connect 98 0 71 0;
#X connect 100 0 69 0;
#X connect 101 0 102 0;
#X connect 103 0 101 0;
#X connect 104 0 116 0;
#X connect 104 0 117 0;
#X connect 116 0 105 0;
#X connect 116 0 106 0;
#X connect 116 0 107 0;
#X connect 116 0 112 0;
#X connect 116 0 113 0;
#X connect 117 0 108 0;
#X connect 117 0 109 0;
#X connect 117 0 110 0;
#X connect 117 0 111 0;
#X connect 117 0 114 0;
#X connect 117 0 115 0;
#X connect 119 0 120 0;
#X connect 121 0 73 0;
#X connect 124 0 23 0;
#X connect 125 0 24 0;
#X connect 126 0 35 0;
#X connect 127 0 32 0;
#X connect 128 0 33 0;
#X connect 129 0 34 0;
#X connect 130 0 34 0;
#X connect 131 0 28 0;
#X connect 132 0 141 0;
#X connect 135 0 136 0;
#X connect 136 0 137 0;
#X connect 138 0 135 0;
#X connect 139 0 140 0;
#X connect 141 0 134 0;
#X connect 141 1 133 0;
#X connect 141 2 135 0;
#X connect 141 3 139 0;
#X restore 289 295 pd aps;
#X obj 249 341 bng 20 250 50 0 \$0-initShader \$0-initShader initShader 0 -10 0 12 #fcfcfc #000000 #000000;
#X obj 339 345 hsl 170 20 0 1 0 0 \$0fs \$0fs fadeShader -2 -10 0 12 #fcfcfc #000000 #000000 0 1;
#X obj 491 268 tgl 20 0 empty empty empty 0 -10 0 12 #fcfcfc #000000 #000000 0 1;
#X msg 491 293 zoom \$1;
#X obj 491 318 s vfctl1;
#X obj 25 392 hsl 80 20 0.1 2 1 0 \$0-gspeed-snd \$0-gspeed-rcv speed 10 10 0 12 #fcfcfc #000000 #000000 0 1;
#X msg 124 390 1;
#X floatatom 23 416 5 0 0 0 - - - 0;
#X obj 339 390 hsl 170 20 0 1 0 0 \$0fd \$0fd fadeDisquePos -2 -10 0 12 #fcfcfc #000000 #000000 0 1;
#X obj 401 88 del 5000;
#X connect 3 0 6 1;
#X connect 4 0 6 0;
#X connect 5 0 49 0;
#X connect 14 0 10 0;
#X connect 14 0 11 0;
#X connect 22 0 20 0;
#X connect 23 0 19 0;
#X connect 25 0 26 0;
#X connect 42 0 43 0;
#X connect 43 0 44 0;
#X connect 45 0 47 0;
#X connect 46 0 45 0;
#X connect 49 0 4 0;
#X coords 0 0 1 1 85 60 0;
