#N canvas 1026 51 646 406 12;
#X obj 220 260 t a;
#X obj 259 129 hsl 128 15 0 1 0 0 empty empty empty -2 -8 0 10 #fc0400 #000000 #000000 0 1;
#X obj 257 92 tgl 15 0 empty empty empty 17 7 0 10 #fcfcfc #000000 #000000 0 1;
#X obj 260 50 hsl 128 15 0 1 0 0 empty empty empty -2 -8 0 10 #fcfcfc #000000 #000000 0 1;
#X msg 257 69 f alpha \$1;
#X obj 256 215 hsl 128 15 0 1 0 0 empty empty empty -2 -8 0 10 #7c7c7c #000000 #000000 0 1;
#X obj 254 176 tgl 15 0 empty empty empty 17 7 0 10 #fcfcfc #000000 #000000 0 1;
#X obj 422 175 hsl 128 15 0 1 0 0 empty empty empty -2 -8 0 10 #fcfcfc #000000 #000000 0 1;
#X obj 422 217 hsl 128 15 0 1 0 0 empty empty empty -2 -8 0 10 #fcfcfc #000000 #000000 0 1;
#X msg 256 147 3f color 1 \$1 \$1;
#X msg 257 109 f colorOn \$1;
#X msg 253 234 3f chromaKey \$1 \$1 \$1;
#X msg 419 195 f chromaThreshold \$1;
#X msg 419 235 f chromaFade \$1;
#X msg 254 193 f chromaKeyOn \$1;
#X obj 256 303 hsl 128 15 -1 1 0 0 empty empty empty -2 -8 0 10 #fcfcfc #000000 #000000 0 1;
#X msg 253 340 f brightness \$1;
#X obj 253 266 tgl 15 0 empty empty empty 17 7 0 10 #fcfcfc #000000 #000000 0 1;
#X msg 253 283 f bcsOn \$1;
#X obj 393 302 hsl 128 15 1 8 1 0 empty empty empty -2 -8 0 10 #fcfcfc #000000 #000000 0 1;
#X msg 390 342 f contrast \$1;
#X floatatom 390 322 5 0 0 0 - - - 0;
#X floatatom 253 323 5 0 0 0 - - - 0;
#X connect 1 0 9 0;
#X connect 2 0 10 0;
#X connect 3 0 4 0;
#X connect 4 0 0 0;
#X connect 5 0 11 0;
#X connect 6 0 14 0;
#X connect 7 0 12 0;
#X connect 8 0 13 0;
#X connect 9 0 0 0;
#X connect 10 0 0 0;
#X connect 11 0 0 0;
#X connect 12 0 0 0;
#X connect 13 0 0 0;
#X connect 14 0 0 0;
#X connect 15 0 22 0;
#X connect 16 0 0 0;
#X connect 17 0 18 0;
#X connect 18 0 0 0;
#X connect 19 0 21 0;
#X connect 20 0 0 0;
#X connect 21 0 20 0;
#X connect 22 0 16 0;
