#N canvas 83 24 684 399 12;
#X declare -path AutoPreset;
#X text 23 55 Vinyl:;
#X obj 55 84 hsl 100 20 -1 1 0 0 TUNE-vx-snd TUNE-vx-rcv vx 10 10 0 12 #fcfcfc #000000 #000000 0 1;
#X obj 164 84 hsl 100 20 -1 1 0 0 TUNE-vy-snd TUNE-vy-rcv vy 10 10 0 12 #fcfcfc #000000 #000000 0 1;
#X obj 274 84 hsl 100 20 0.1 10 1 0 TUNE-vscale-snd TUNE-vscale-rcv vscale 10 10 0 12 #fcfcfc #000000 #000000 0 1;
#X msg 18 111 1;
#X obj 55 179 hsl 100 20 -1 1 0 0 TUNE-cx-snd TUNE-cx-rcv cx 10 10 0 12 #fcfcfc #000000 #000000 0 1;
#X obj 164 179 hsl 100 20 -1 1 0 0 TUNE-cy-snd TUNE-cy-rcv cy 10 10 0 12 #fcfcfc #000000 #000000 0 1;
#X obj 274 179 hsl 100 20 0.1 10 1 0 TUNE-cscale-snd TUNE-cscale-rcv cscale 10 10 0 12 #fcfcfc #000000 #000000 0 1;
#X msg 18 206 1;
#X text 23 150 CD:;
#X obj 276 45 bng 20 250 50 0 TUNE-save TUNE-save save 0 -10 0 12 #ff0400 #000000 #000000;
#N canvas 97 391 460 531 guts 1;
#X obj 31 7 declare -path AutoPreset;
#X obj 31 32 apmaster TUNE;
#X obj 31 81 apf TUNE vx TUNE-vx 2;
#X obj 31 105 apf TUNE vy TUNE-vy 2;
#X obj 31 130 apf TUNE vscale TUNE-vscale 2;
#X obj 31 155 apf TUNE cx TUNE-cx 2;
#X obj 31 179 apf TUNE cy TUNE-cy 2;
#X obj 31 204 apf TUNE cscale TUNE-cscale 2;
#X obj 35 235 r TUNE;
#X obj 32 383 symbol;
#X obj 244 79 s TUNE;
#X msg 244 49 aldebert;
#X msg 123 409 loadfile \$1;
#X msg 32 409 savefile \$1;
#X obj 32 435 s TUNE-apmaster-rcv;
#X obj 35 258 symbol;
#X obj 35 289 pack s s;
#X obj 110 284 pdcontrol;
#X msg 110 259 dir;
#X obj 110 234 loadbang;
#X msg 35 320 symbol \$2/../../data/tunes/\$1/cover.txt;
#X obj 32 355 r TUNE-save;
#X obj 337 27 r fromAudio;
#X obj 337 52 route tune;
#X obj 337 77 s TUNE;
#X listbox 246 239 20 0 0 0 - - - 0;
#X obj 278 407 file isfile;
#X obj 278 475 tgl 20 0 \$0-fileExists empty empty 0 -10 0 12 #fcfcfc #000000 #000000 0 1;
#X msg 352 430 0;
#X msg 243 447 1;
#X connect 8 0 15 0;
#X connect 9 0 13 0;
#X connect 11 0 10 0;
#X connect 12 0 14 0;
#X connect 13 0 14 0;
#X connect 15 0 16 0;
#X connect 15 0 25 0;
#X connect 16 0 20 0;
#X connect 17 0 16 1;
#X connect 18 0 17 0;
#X connect 19 0 18 0;
#X connect 20 0 9 1;
#X connect 20 0 12 0;
#X connect 20 0 26 0;
#X connect 21 0 9 0;
#X connect 21 0 29 0;
#X connect 22 0 23 0;
#X connect 23 0 24 0;
#X connect 26 0 27 0;
#X connect 26 1 28 0;
#X connect 28 0 27 0;
#X connect 29 0 27 0;
#X restore 321 44 pd guts;
#X msg 18 86 0.5;
#X msg 18 181 0.5;
#X obj 237 358 s fromAudio;
#X obj 358 248 tgl 20 0 empty empty empty 0 -10 0 12 #fcfcfc #000000 #000000 0 1;
#X msg 358 274 disque vinyl \$1;
#X msg 79 259 disquealpha 1 \, disquepos 0 \, speed 0;
#X msg 84 341 size \$1;
#X obj 84 370 s disquectl;
#X msg 84 311 0.7;
#X obj 433 129 tgl 40 0 \$0-fileExists \$0-fileExists Settings\ Exists 0 -10 0 12 #fcfcfc #000000 #000000 0 1;
#X obj 437 11 r TUNE;
#X listbox 437 78 30 0 0 0 - - - 0;
#X obj 437 45 symbol;
#X connect 4 0 3 0;
#X connect 8 0 7 0;
#X connect 12 0 1 0;
#X connect 12 0 2 0;
#X connect 12 0 4 0;
#X connect 13 0 5 0;
#X connect 13 0 6 0;
#X connect 13 0 8 0;
#X connect 15 0 16 0;
#X connect 16 0 14 0;
#X connect 17 0 14 0;
#X connect 18 0 19 0;
#X connect 20 0 18 0;
#X connect 22 0 24 0;
#X connect 24 0 23 0;
