#N canvas 83 97 673 428 12;
#X obj 27 146 pix_texture, f 27;
#X obj 27 95 separator;
#X obj 146 118 route bang;
#X obj 27 121 colorRGB 1 1 1 1;
#X obj 27 17 inlet;
#X obj 27 345 translateXYZ 0 0 -30;
#X obj 146 95 text get bfTex\$1;
#X obj 58 188 r vfctl\$1;
#X obj 27 313 scaleXYZ 1 1 1;
#X obj 191 42 r bfLen\$1;
#X obj 146 16 r vf-frame;
#X obj 146 41 * 1;
#X obj 146 69 mod 24;
#X obj 111 16 * 2;
#X obj 111 41 - 1;
#X floatatom 279 138 5 0 0 0 - - - 24;
#X floatatom 357 106 5 0 0 0 - - - 0;
#X obj 360 31 hsl 170 20 0 1 0 0 empty empty empty -2 -10 0 12 #fcfcfc #000000 #000000 0 1;
#X obj 357 55 * 24;
#X obj 357 80 i;
#X obj 403 57 tgl 20 0 empty empty empty 0 -10 0 12 #fcfcfc #000000 #000000 0 1;
#X listbox 336 184 20 0 0 0 - - - 0;
#X obj 27 386 outlet;
#X msg 319 301 quality 1 \, rectangle \$1;
#X obj 354 240 tgl 20 0 empty empty empty 0 -10 0 12 #fcfcfc #000000 #000000 0 1;
#N canvas 913 630 645 332 zoom 0;
#X obj 25 63 inlet w;
#X obj 96 63 inlet h;
#X obj 164 61 inlet x;
#X obj 237 60 inlet y;
#X obj 25 273 outlet w;
#X obj 92 273 outlet h;
#X obj 162 272 outlet x;
#X obj 235 271 outlet y;
#X obj 50 135 pack f f;
#X obj 130 133 pack f f;
#X obj 219 129 pack f f;
#X obj 299 127 pack f f;
#X obj 50 185 line3;
#X obj 130 184 line3;
#X obj 219 179 line3;
#X obj 299 178 line3;
#X msg 457 88 2 1 0 0;
#X obj 457 113 unpack f f f f;
#X msg 50 160 \$2 \$1;
#X msg 130 158 \$2 \$1;
#X msg 219 153 \$2 \$1;
#X msg 299 152 \$2 \$1;
#X obj 405 55 sel 1 0;
#X obj 406 31 tgl 20 0 empty empty empty 0 -10 0 12 #fcfcfc #000000 #000000 0 1;
#X obj 405 7 inlet;
#X msg 392 85 5000;
#X connect 0 0 8 1;
#X connect 0 0 4 0;
#X connect 1 0 9 1;
#X connect 1 0 5 0;
#X connect 2 0 10 1;
#X connect 2 0 6 0;
#X connect 3 0 11 1;
#X connect 3 0 7 0;
#X connect 8 0 18 0;
#X connect 9 0 19 0;
#X connect 10 0 20 0;
#X connect 11 0 21 0;
#X connect 12 0 4 0;
#X connect 13 0 5 0;
#X connect 14 0 6 0;
#X connect 15 0 7 0;
#X connect 16 0 17 0;
#X connect 17 0 12 0;
#X connect 17 1 13 0;
#X connect 17 2 14 0;
#X connect 17 3 15 0;
#X connect 18 0 12 0;
#X connect 19 0 13 0;
#X connect 20 0 14 0;
#X connect 21 0 15 0;
#X connect 22 0 25 0;
#X connect 22 1 16 0;
#X connect 23 0 22 0;
#X connect 24 0 23 0;
#X connect 25 0 11 0;
#X connect 25 0 10 0;
#X connect 25 0 9 0;
#X connect 25 0 8 0;
#X restore 74 256 pd zoom;
#X obj 58 213 route w h x y dir zoom;
#X connect 0 0 8 0;
#X connect 1 0 3 0;
#X connect 2 1 0 1;
#X connect 3 0 0 0;
#X connect 4 0 1 0;
#X connect 5 0 22 0;
#X connect 6 0 2 0;
#X connect 7 0 26 0;
#X connect 8 0 5 0;
#X connect 9 0 12 1;
#X connect 9 0 18 1;
#X connect 10 0 11 0;
#X connect 11 0 12 0;
#X connect 12 0 6 0;
#X connect 13 0 14 0;
#X connect 14 0 11 1;
#X connect 16 0 12 0;
#X connect 17 0 18 0;
#X connect 18 0 19 0;
#X connect 19 0 16 0;
#X connect 20 0 19 0;
#X connect 23 0 0 0;
#X connect 24 0 23 0;
#X connect 25 0 8 1;
#X connect 25 1 8 2;
#X connect 25 2 5 1;
#X connect 25 3 5 2;
#X connect 26 0 25 0;
#X connect 26 1 25 1;
#X connect 26 2 25 2;
#X connect 26 3 25 3;
#X connect 26 4 13 0;
#X connect 26 5 25 4;
