#N canvas 164 88 500 459 12;
#X declare -path Fraise;
#X declare -path nusmuk-utils;
#X declare -path motex -path ggee -path maxlib -path zexy -lib zexy -path iemlib -lib iemlib -path hcs -path creb -lib creb -path cyclone -path moonlib;
#X obj 34 97 runGem;
#N canvas 1108 660 450 300 declares 0;
#X obj 41 15 declare -path Fraise;
#X obj 42 54 declare -path nusmuk-utils;
#X obj 41 77 declare -path motex -path ggee -path maxlib -path zexy -lib zexy -path iemlib -lib iemlib -path hcs -path creb -lib creb -path cyclone -path moonlib, f 24;
#X restore 34 11 pd declares;
#N canvas 132 138 812 262 network 0;
#X obj 153 31 loadbang;
#X msg 153 54 connect localhost 23477;
#X obj 153 114 netsend -u;
#X obj 15 32 r toGem;
#X obj 15 55 list prepend send;
#X obj 15 78 list trim;
#X obj 62 197 netreceive -u 23478;
#X obj 62 220 s fromGem;
#X obj 499 9 loadbang;
#X obj 490 103 netsend -u;
#X obj 352 44 list prepend send;
#X obj 352 67 list trim;
#X obj 352 21 r toJuke;
#X obj 283 200 netreceive -u 23487;
#X obj 283 223 s fromJuke;
#X msg 501 72 disconnect;
#X obj 490 131 tgl 20 0 empty empty empty 0 -10 0 12 #fcfcfc #000000 #000000 0 1;
#X obj 631 95 loadbang;
#X msg 490 43 disconnect \, connect metalu99bis.local 23487;
#X obj 631 120 tgl 20 0 empty empty empty 0 -10 0 12 #fcfcfc #000000 #000000 0 1;
#X obj 631 145 metro 5000;
#X obj 631 170 spigot 1, f 9;
#X obj 583 169 == 0;
#X connect 0 0 1 0;
#X connect 1 0 2 0;
#X connect 3 0 4 0;
#X connect 4 0 5 0;
#X connect 5 0 2 0;
#X connect 6 0 7 0;
#X connect 9 0 16 0;
#X connect 10 0 11 0;
#X connect 11 0 9 0;
#X connect 12 0 10 0;
#X connect 13 0 14 0;
#X connect 15 0 9 0;
#X connect 16 0 22 0;
#X connect 17 0 19 0;
#X connect 18 0 9 0;
#X connect 19 0 20 0;
#X connect 20 0 21 0;
#X connect 21 0 18 0;
#X connect 22 0 21 1;
#X restore 34 42 pd network;
#X msg 290 71 \; pd dsp 1;
#X obj 290 20 loadbang;
#X obj 124 8 r PiedFraiseOn;
#X obj 290 45 del 1000;
#N canvas 1347 33 544 620 Master 0;
#X obj 102 120 vsl 15 120 0 1 0 1 \$0-Master-snd \$0-Master-rcv empty 0 -9 0 10 #fc0400 #000000 #000000 10800 1;
#X obj 216 120 vu 15 120 \$0-vu6 empty -1 -8 0 10 #404040 #000000 1 0;
#X obj 178 120 vu 15 120 \$0-vu4 empty -1 -8 0 10 #404040 #000000 0 0;
#X obj 159 120 vu 15 120 \$0-vu3 empty -1 -8 0 10 #404040 #000000 0 0;
#X obj 140 120 vu 15 120 \$0-vu2 empty -1 -8 0 10 #404040 #000000 0 0;
#X obj 121 120 vu 15 120 \$0-vu1 empty -1 -8 0 10 #404040 #000000 0 0;
#X obj 197 120 vu 15 120 \$0-vu5 empty -1 -8 0 10 #404040 #000000 0 0;
#X obj 350 131 r \$0-Master-snd;
#X obj 350 163 pow 3;
#X msg 350 234 \$1 10;
#X obj 351 256 line~;
#X obj 350 283 s~ \$0-Mastersig;
#X obj 315 64 s \$0-tapestop-snd;
#X obj 325 43 tgl 15 0 empty empty empty 17 7 0 10 #fcfcfc #000000 #000000 0 1;
#X obj 338 491 s \$0-hpf;
#X obj 338 468 mtof;
#X obj 341 448 hsl 128 15 0 130 0 0 empty empty empty -2 -8 0 10 #fcfcfc #000000 #000000 0 1;
#X floatatom 418 487 5 0 0 0 - - - 0;
#X obj 339 541 mtof;
#X obj 342 521 hsl 128 15 0 130 0 0 empty empty empty -2 -8 0 10 #fcfcfc #000000 #000000 0 1;
#X obj 339 564 s \$0-lpf;
#X obj 27 297 *~;
#X obj 43 276 pow 3;
#X obj 44 256 hsl 128 15 0 1 0 1 empty empty empty -2 -8 0 10 #fcfcfc #000000 #000000 0 1;
#X obj 74 330 *~;
#X obj 90 309 pow 3;
#X obj 91 289 hsl 128 15 0 1 0 1 empty empty empty -2 -8 0 10 #fcfcfc #000000 #000000 0 1;
#X obj 123 359 *~;
#X obj 139 338 pow 3;
#X obj 140 318 hsl 128 15 0 1 0 1 empty empty empty -2 -8 0 10 #fcfcfc #000000 #000000 0 1;
#X obj 47 492 dac~;
#X obj 174 395 *~;
#X obj 190 374 pow 3;
#X obj 191 354 hsl 128 15 0 1 0 1 empty empty empty -2 -8 0 10 #fcfcfc #000000 #000000 0 1;
#X obj 223 424 *~;
#X obj 239 403 pow 3;
#X obj 240 383 hsl 128 15 0 1 0 1 empty empty empty -2 -8 0 10 #fcfcfc #000000 #000000 0 1;
#X obj 123 491 pow 3;
#X obj 124 471 hsl 128 15 0 1 0 1 empty empty empty -2 -8 0 10 #fcfcfc #000000 #000000 9800 1;
#X obj 55 461 *~;
#X obj 20 11 Mout \$0 2 1;
#X obj 108 10 Mout \$0 3 2;
#X obj 92 72 MoutS \$0 1 6;
#X obj 198 6 Mout \$0 4 1;
#X obj 288 8 Mout \$0 5 2;
#X obj 385 9 Mout \$0 6 2;
#X obj 426 172 r STANDBY;
#X obj 426 197 == 0;
#X obj 350 199 * 1;
#X obj 381 198 t b f;
#X connect 7 0 8 0;
#X connect 8 0 48 0;
#X connect 9 0 10 0;
#X connect 10 0 11 0;
#X connect 13 0 12 0;
#X connect 15 0 14 0;
#X connect 16 0 15 0;
#X connect 16 0 17 0;
#X connect 18 0 20 0;
#X connect 19 0 18 0;
#X connect 21 0 39 0;
#X connect 22 0 21 1;
#X connect 23 0 22 0;
#X connect 24 0 39 0;
#X connect 25 0 24 1;
#X connect 26 0 25 0;
#X connect 27 0 39 0;
#X connect 28 0 27 1;
#X connect 29 0 28 0;
#X connect 31 0 39 0;
#X connect 32 0 31 1;
#X connect 33 0 32 0;
#X connect 34 0 39 0;
#X connect 35 0 34 1;
#X connect 36 0 35 0;
#X connect 37 0 39 1;
#X connect 38 0 37 0;
#X connect 39 0 30 0;
#X connect 39 0 30 1;
#X connect 40 0 21 0;
#X connect 40 0 42 0;
#X connect 41 0 24 0;
#X connect 41 0 42 0;
#X connect 43 0 27 0;
#X connect 43 0 42 0;
#X connect 44 0 31 0;
#X connect 44 0 42 0;
#X connect 45 0 34 0;
#X connect 45 0 42 0;
#X connect 46 0 47 0;
#X connect 47 0 49 0;
#X connect 48 0 9 0;
#X connect 49 0 48 0;
#X connect 49 1 48 1;
#X coords 0 -1 1 1 160 145 1 100 100;
#X restore 32 128 pd Master;
#X obj 32 290 InterfaceTreuils/0InterfaceTreuils;
#X obj 124 35 pied/pied 0 12346;
#X obj 298 189 Film \$0;
#X obj 296 227 SonMachines \$0;
#X obj 34 71 bng 20 250 50 0 empty empty empty 0 -10 0 12 #ff8300 #000000 #000000;
#X obj 33 353 InterfaceCommandes;
#N canvas 169 420 558 300 toGem 0;
#X obj 130 12 r Commandes-manettes;
#X obj 130 37 route 0 1, f 11;
#X obj 312 26 r IfTreuil-snd;
#X obj 312 51 list prepend IfTreuil;
#X obj 312 76 s toGem;
#X obj 312 115 r fromGem;
#X obj 312 140 route IfTreuil;
#X obj 312 165 s IfTreuil-rcv;
#X obj 307 204 r fromJuke;
#X obj 307 229 list prepend juke;
#X obj 307 254 s toGem;
#X connect 0 0 1 0;
#X connect 2 0 3 0;
#X connect 3 0 4 0;
#X connect 5 0 6 0;
#X connect 6 0 7 0;
#X connect 8 0 9 0;
#X connect 9 0 10 0;
#X restore 306 356 pd toGem;
#X obj 297 286 ManettesToBleus;
#X obj 32 317 Treuils/0treuils;
#X obj 298 257 Controles;
#N canvas 735 420 450 300 shutdown 0;
#X obj 60 226 system;
#X msg 60 192 sudo shutdown now;
#X obj 60 137 t b b, f 28;
#X obj 60 162 del 2000;
#X msg 255 196 __shutdown__;
#X obj 255 221 s toJuke;
#X obj 60 58 bng 40 250 50 0 empty __SHUTDOWN__ SHUTDOWN 0 -10 0 12 #ff0400 #000000 #000000;
#X connect 1 0 0 0;
#X connect 2 0 3 0;
#X connect 2 1 4 0;
#X connect 3 0 1 0;
#X connect 4 0 5 0;
#X connect 6 0 2 0;
#X restore 373 15 pd shutdown;
#X obj 26 400 InterfaceAscenceur/InterfaceAscenceur;
#N canvas 725 192 924 624 Ascenceur-controles 0;
#X obj 164 15 r IfAscenceur-snd;
#X obj 164 95 tgl 20 0 empty empty empty 0 -10 0 12 #fcfcfc #000000 #000000 0 1;
#X obj 189 95 tgl 20 0 empty empty empty 0 -10 0 12 #fcfcfc #000000 #000000 0 1;
#X obj 164 42 route button;
#X obj 59 169 sel 1;
#X obj 59 194 s TREUIL_STOP;
#X msg 35 229 0;
#X obj 35 254 s TREUIL_ENABLE;
#X obj 168 141 sel 1 0;
#X msg 168 224 1;
#X obj 203 224 del 1500;
#X msg 191 249 0;
#X obj 168 279 tgl 20 0 empty empty empty 0 -10 0 12 #fcfcfc #000000 #000000 0 1;
#X msg 169 329 1;
#X msg 202 354 0;
#X obj 169 386 f;
#X msg 169 464 led \$1 \$2;
#X obj 169 489 s IfAscenceur-rcv;
#X obj 168 304 metro 180;
#X obj 202 330 del 100;
#X msg 190 167 stop;
#X obj 262 274 s TREUIL_REWIND;
#X obj 168 198 del 500;
#X obj 277 152 sel 1;
#X msg 277 177 1;
#X msg 169 411 1 \$1;
#X obj 268 311 r TREUIL_ENABLE;
#X msg 267 416 2 \$1;
#X obj 268 363 metro 500;
#X obj 268 388 tgl 20 0 empty empty empty 0 -10 0 12 #fcfcfc #000000 #000000 0 1;
#X msg 298 389 0;
#X msg 61 318 1;
#X msg 94 343 0;
#X obj 61 375 f;
#X obj 94 318 del 250;
#X msg 61 399 1 \$1 \, 2 \$1;
#X obj 164 68 route 1 2, f 18;
#X obj 268 336 t f f;
#X obj 593 31 r IfAscenceur-snd;
#X obj 593 111 tgl 20 0 empty empty empty 0 -10 0 12 #fcfcfc #000000 #000000 0 1;
#X obj 654 113 tgl 20 0 empty empty empty 0 -10 0 12 #fcfcfc #000000 #000000 0 1;
#X obj 593 58 route button;
#X obj 597 157 sel 1 0;
#X msg 597 240 1;
#X msg 632 265 0;
#X obj 597 295 tgl 20 0 empty empty empty 0 -10 0 12 #fcfcfc #000000 #000000 0 1;
#X msg 598 345 1;
#X msg 631 370 0;
#X obj 598 402 f;
#X msg 598 520 led \$1 \$2;
#X obj 598 545 s IfAscenceur-rcv;
#X obj 631 345 del 100;
#X msg 619 183 stop;
#X obj 597 214 del 500;
#X obj 706 168 sel 1;
#X obj 697 379 metro 500;
#X obj 697 404 tgl 20 0 empty empty empty 0 -10 0 12 #fcfcfc #000000 #000000 0 1;
#X msg 727 405 0;
#X msg 490 334 1;
#X msg 523 359 0;
#X obj 490 391 f;
#X obj 523 334 del 250;
#X obj 697 352 t f f;
#X obj 593 84 route 4 5, f 18;
#X obj 483 261 s STANDBY;
#X msg 483 236 1;
#X msg 706 193 0;
#X obj 697 294 r STANDBY;
#X msg 696 432 5 \$1;
#X obj 697 323 == 0;
#X msg 209 276 stop;
#X msg 640 295 stop;
#X obj 597 320 metro 150;
#X msg 598 467 3 \$1 \, 4 \$1 \, 5 \$1;
#X obj 632 240 del 2000;
#X msg 490 434 3 \$1 \, 4 \$1 \, 5 \$1;
#X obj 810 251 s STANDBY;
#X obj 810 197 loadbang;
#X msg 810 222 0;
#X obj 817 291 r STANDBY;
#X msg 817 316 STANDBY \$1;
#X obj 817 341 s toGem;
#X obj 794 369 s toJuke;
#X obj 795 515 s __SHUTDOWN__;
#X obj 795 485 del 200;
#X connect 0 0 3 0;
#X connect 1 0 6 0;
#X connect 1 0 4 0;
#X connect 1 0 8 0;
#X connect 2 0 23 0;
#X connect 3 0 36 0;
#X connect 4 0 5 0;
#X connect 6 0 7 0;
#X connect 8 0 22 0;
#X connect 8 1 20 0;
#X connect 9 0 12 0;
#X connect 10 0 11 0;
#X connect 10 0 21 0;
#X connect 10 0 31 0;
#X connect 10 0 34 0;
#X connect 10 0 70 0;
#X connect 11 0 12 0;
#X connect 12 0 18 0;
#X connect 13 0 15 0;
#X connect 14 0 15 0;
#X connect 15 0 25 0;
#X connect 16 0 17 0;
#X connect 18 0 13 0;
#X connect 18 0 19 0;
#X connect 19 0 14 0;
#X connect 20 0 10 0;
#X connect 20 0 11 0;
#X connect 20 0 22 0;
#X connect 22 0 9 0;
#X connect 22 0 10 0;
#X connect 23 0 24 0;
#X connect 24 0 7 0;
#X connect 25 0 16 0;
#X connect 26 0 37 0;
#X connect 27 0 16 0;
#X connect 28 0 29 0;
#X connect 29 0 27 0;
#X connect 30 0 29 0;
#X connect 31 0 33 0;
#X connect 32 0 33 0;
#X connect 33 0 35 0;
#X connect 34 0 32 0;
#X connect 35 0 16 0;
#X connect 36 0 1 0;
#X connect 36 1 2 0;
#X connect 37 0 28 0;
#X connect 37 1 30 0;
#X connect 38 0 41 0;
#X connect 39 0 65 0;
#X connect 39 0 42 0;
#X connect 40 0 54 0;
#X connect 41 0 63 0;
#X connect 42 0 53 0;
#X connect 42 1 52 0;
#X connect 43 0 45 0;
#X connect 44 0 45 0;
#X connect 45 0 72 0;
#X connect 46 0 48 0;
#X connect 47 0 48 0;
#X connect 48 0 73 0;
#X connect 49 0 50 0;
#X connect 51 0 47 0;
#X connect 52 0 44 0;
#X connect 52 0 53 0;
#X connect 52 0 74 0;
#X connect 53 0 43 0;
#X connect 53 0 74 0;
#X connect 54 0 66 0;
#X connect 55 0 56 0;
#X connect 56 0 68 0;
#X connect 57 0 56 0;
#X connect 58 0 60 0;
#X connect 59 0 60 0;
#X connect 60 0 75 0;
#X connect 61 0 59 0;
#X connect 62 0 55 0;
#X connect 62 1 57 0;
#X connect 63 0 39 0;
#X connect 63 1 40 0;
#X connect 65 0 64 0;
#X connect 66 0 64 0;
#X connect 67 0 69 0;
#X connect 68 0 49 0;
#X connect 69 0 62 0;
#X connect 70 0 19 0;
#X connect 71 0 51 0;
#X connect 72 0 46 0;
#X connect 72 0 51 0;
#X connect 73 0 49 0;
#X connect 74 0 44 0;
#X connect 74 0 58 0;
#X connect 74 0 61 0;
#X connect 74 0 71 0;
#X connect 74 0 84 0;
#X connect 75 0 49 0;
#X connect 77 0 78 0;
#X connect 78 0 76 0;
#X connect 79 0 80 0;
#X connect 80 0 81 0;
#X connect 80 0 82 0;
#X connect 84 0 83 0;
#X restore 301 401 pd Ascenceur-controles;
#X connect 4 0 6 0;
#X connect 5 0 9 0;
#X connect 6 0 3 0;
#X connect 12 0 0 0;
