#N canvas 189 60 548 498 12;
#X declare -path Fraise;
#X declare -path nusmuk-utils;
#X declare -path motex -path ggee -path maxlib -path zexy -lib zexy -path iemlib -lib iemlib -path hcs -path creb -lib creb -path cyclone -path moonlib;
#X obj 34 97 runGem;
#N canvas 1108 660 450 300 declares 0;
#X obj 41 15 declare -path Fraise;
#X obj 42 54 declare -path nusmuk-utils;
#X obj 41 77 declare -path motex -path ggee -path maxlib -path zexy -lib zexy -path iemlib -lib iemlib -path hcs -path creb -lib creb -path cyclone -path moonlib, f 24;
#X restore 34 11 pd declares;
#N canvas 143 135 684 300 network 0;
#X obj 176 34 loadbang;
#X msg 176 57 connect localhost 23477;
#X obj 176 117 netsend -u;
#X obj 56 25 r toGem;
#X obj 56 48 list prepend send;
#X obj 56 71 list trim;
#X obj 85 200 netreceive -u 23478;
#X obj 85 223 s fromGem;
#X obj 450 14 r IfTreuil-snd;
#X obj 450 39 list prepend IfTreuil;
#X obj 450 64 s toGem;
#X obj 450 103 r fromGem;
#X obj 450 128 route IfTreuil;
#X obj 450 153 s IfTreuil-rcv;
#X connect 0 0 1 0;
#X connect 1 0 2 0;
#X connect 3 0 4 0;
#X connect 4 0 5 0;
#X connect 5 0 2 0;
#X connect 6 0 7 0;
#X connect 8 0 9 0;
#X connect 9 0 10 0;
#X connect 11 0 12 0;
#X connect 12 0 13 0;
#X restore 34 42 pd network;
#X msg 290 71 \; pd dsp 1;
#X obj 290 20 loadbang;
#X obj 124 8 r PiedFraiseOn;
#X obj 290 45 del 1000;
#N canvas 1347 33 482 620 Master 0;
#X obj 102 120 vsl 15 120 0 1 0 1 \$0-Master-snd \$0-Master-rcv empty 0 -9 0 10 #fc0400 #000000 #000000 11000 1;
#X obj 216 120 vu 15 120 \$0-vu6 empty -1 -8 0 10 #404040 #000000 1 0;
#X obj 178 120 vu 15 120 \$0-vu4 empty -1 -8 0 10 #404040 #000000 0 0;
#X obj 159 120 vu 15 120 \$0-vu3 empty -1 -8 0 10 #404040 #000000 0 0;
#X obj 140 120 vu 15 120 \$0-vu2 empty -1 -8 0 10 #404040 #000000 0 0;
#X obj 121 120 vu 15 120 \$0-vu1 empty -1 -8 0 10 #404040 #000000 0 0;
#X obj 197 120 vu 15 120 \$0-vu5 empty -1 -8 0 10 #404040 #000000 0 0;
#X obj 312 87 r \$0-Master-snd;
#X obj 312 108 pow 3;
#X msg 310 128 \$1 10;
#X obj 311 148 line~;
#X obj 310 177 s~ \$0-Mastersig;
#X obj 315 64 s \$0-tapestop-snd;
#X obj 325 43 tgl 15 0 empty empty empty 17 7 0 10 #fcfcfc #000000 #000000 0 1;
#X obj 304 252 s \$0-hpf;
#X obj 304 229 mtof;
#X obj 307 209 hsl 128 15 0 130 0 0 empty empty empty -2 -8 0 10 #fcfcfc #000000 #000000 0 1;
#X floatatom 384 248 5 0 0 0 - - - 0;
#X obj 305 302 mtof;
#X obj 308 282 hsl 128 15 0 130 0 0 empty empty empty -2 -8 0 10 #fcfcfc #000000 #000000 0 1;
#X obj 305 325 s \$0-lpf;
#X obj 27 297 *~;
#X obj 43 276 pow 3;
#X obj 44 256 hsl 128 15 0 1 0 1 empty empty empty -2 -8 0 10 #fcfcfc #000000 #000000 0 1;
#X obj 74 330 *~;
#X obj 90 309 pow 3;
#X obj 91 289 hsl 128 15 0 1 0 1 empty empty empty -2 -8 0 10 #fcfcfc #000000 #000000 0 1;
#X obj 123 359 *~;
#X obj 139 338 pow 3;
#X obj 140 318 hsl 128 15 0 1 0 1 empty empty empty -2 -8 0 10 #fcfcfc #000000 #000000 0 1;
#X obj 47 492 dac~;
#X obj 174 395 *~;
#X obj 190 374 pow 3;
#X obj 191 354 hsl 128 15 0 1 0 1 empty empty empty -2 -8 0 10 #fcfcfc #000000 #000000 0 1;
#X obj 223 424 *~;
#X obj 239 403 pow 3;
#X obj 240 383 hsl 128 15 0 1 0 1 empty empty empty -2 -8 0 10 #fcfcfc #000000 #000000 0 1;
#X obj 123 491 pow 3;
#X obj 124 471 hsl 128 15 0 1 0 1 empty empty empty -2 -8 0 10 #fcfcfc #000000 #000000 9800 1;
#X obj 55 461 *~;
#X obj 20 11 Mout \$0 2 1;
#X obj 108 10 Mout \$0 3 2;
#X obj 92 72 MoutS \$0 1 6;
#X obj 198 6 Mout \$0 4 1;
#X obj 288 8 Mout \$0 5 2;
#X obj 385 9 Mout \$0 6 2;
#X connect 7 0 8 0;
#X connect 8 0 9 0;
#X connect 9 0 10 0;
#X connect 10 0 11 0;
#X connect 13 0 12 0;
#X connect 15 0 14 0;
#X connect 16 0 15 0;
#X connect 16 0 17 0;
#X connect 18 0 20 0;
#X connect 19 0 18 0;
#X connect 21 0 39 0;
#X connect 22 0 21 1;
#X connect 23 0 22 0;
#X connect 24 0 39 0;
#X connect 25 0 24 1;
#X connect 26 0 25 0;
#X connect 27 0 39 0;
#X connect 28 0 27 1;
#X connect 29 0 28 0;
#X connect 31 0 39 0;
#X connect 32 0 31 1;
#X connect 33 0 32 0;
#X connect 34 0 39 0;
#X connect 35 0 34 1;
#X connect 36 0 35 0;
#X connect 37 0 39 1;
#X connect 38 0 37 0;
#X connect 39 0 30 0;
#X connect 39 0 30 1;
#X connect 40 0 21 0;
#X connect 40 0 42 0;
#X connect 41 0 24 0;
#X connect 41 0 42 0;
#X connect 43 0 27 0;
#X connect 43 0 42 0;
#X connect 44 0 31 0;
#X connect 44 0 42 0;
#X connect 45 0 34 0;
#X connect 45 0 42 0;
#X coords 0 -1 1 1 160 145 1 100 100;
#X restore 32 128 pd Master;
#X obj 32 290 InterfaceTreuils/0InterfaceTreuils;
#X obj 124 35 pied/pied 0 12346;
#X obj 298 189 Film \$0;
#X obj 410 322 tgl 20 0 showFilm showFilm showFilm 0 -10 0 12 #fcfcfc #000000 #000000 0 1;
#X obj 403 157 r IfTreuil-snd;
#X obj 403 182 route MA MR;
#X obj 440 208 == 0;
#X obj 440 233 t b f;
#X obj 403 235 && 1;
#X obj 403 260 s showFilm;
#X obj 296 227 SonMachines \$0;
#X obj 34 71 bng 20 250 50 0 empty empty empty 0 -10 0 12 #ff8300 #000000 #000000;
#X obj 33 353 InterfaceCommandes;
#N canvas 169 420 450 300 toGem 0;
#X obj 130 12 r Commandes-manettes;
#X obj 130 37 route 0 1, f 11;
#X connect 0 0 1 0;
#X restore 306 356 pd toGem;
#X obj 80 391 ManettesToBleus;
#X obj 32 317 Treuils/0treuils;
#X msg 250 421 sudo shutdown now;
#X obj 250 446 system;
#X obj 298 257 Controles;
#X connect 4 0 6 0;
#X connect 5 0 9 0;
#X connect 6 0 3 0;
#X connect 12 0 13 0;
#X connect 13 0 16 0;
#X connect 13 1 14 0;
#X connect 14 0 15 0;
#X connect 15 0 16 0;
#X connect 15 1 16 1;
#X connect 16 0 17 0;
#X connect 19 0 0 0;
#X connect 24 0 25 0;
