#N canvas 969 249 719 675 12;
#X obj 31 11 r IfTreuil-snd;
#X obj 77 65 * 2;
#X obj 31 97 +;
#X obj 61 96 t b f;
#X obj 31 129 t b f;
#X obj 31 154 del 100;
#X obj 31 198 change;
#X obj 31 176 f;
#X obj 31 253 sel 0 1 2, f 16;
#X obj 103 282 f 0;
#X obj 103 307 sel 1 0;
#X msg 31 358 Diag;
#X msg 74 359 Playlist;
#X msg 144 358 Plans;
#X obj 74 457 t s s;
#X obj 74 405 symbol;
#X obj 74 430 sel _;
#X listbox 74 482 6 0 0 0 - - - 0;
#X obj 224 445 s toGem;
#X msg 224 420 warning Fonction inaccessible.##Mettez en Marche d'abord !, f 62;
#X obj 74 506 s MODE;
#X obj 71 541 r MODE;
#X msg 71 566 MODE \$1;
#X obj 71 591 s toGem;
#X obj 31 36 route Gentree Gsortie MA MR;
#X obj 317 159 tgl 20 0 empty empty empty 0 -10 0 12 #fcfcfc #000000 #000000 0 1;
#X obj 317 186 spigot;
#X obj 317 211 change;
#X obj 317 241 s showFilm;
#X obj 292 247 tgl 20 0 empty empty empty 0 -10 0 12 #fcfcfc #000000 #000000 0 1;
#N canvas 1062 524 702 478 Playlist 1;
#X obj 31 11 r IfTreuil-snd;
#X obj 152 11 isMode Playlist;
#X obj 31 48 spigot;
#X msg 31 192 prevtune;
#X msg 100 190 nexttune;
#X obj 31 217 s toGem;
#X obj 62 311 r fromGem;
#X obj 62 336 route selectedtune;
#X floatatom 14 443 5 0 0 0 - - - 0;
#X obj 152 36 sel 0;
#X msg 152 61 0;
#X obj 31 110 route iar iav, f 20;
#X obj 31 135 metro 500;
#X obj 100 136 metro 500;
#X obj 409 223 delOnOff 0 100;
#X msg 329 266 Gled \$1;
#X obj 329 291 s IfTreuil-rcv;
#X msg 402 266 Dled \$1;
#X obj 423 194 b;
#X obj 516 224 delOnOff 80 100;
#X obj 299 220 delOnOff 0 100;
#X obj 185 191 b;
#X obj 185 221 delOnOff 80 100;
#X listbox 187 387 20 0 0 0 - - - 0;
#X obj 62 361 symbol;
#X msg 62 386 selectedtune \$1;
#X obj 62 411 s toJuke;
#X connect 0 0 2 0;
#X connect 1 0 2 1;
#X connect 1 0 9 0;
#X connect 2 0 11 0;
#X connect 3 0 5 0;
#X connect 4 0 5 0;
#X connect 6 0 7 0;
#X connect 7 0 24 0;
#X connect 9 0 10 0;
#X connect 10 0 12 0;
#X connect 11 0 12 0;
#X connect 11 1 13 0;
#X connect 12 0 3 0;
#X connect 12 0 21 0;
#X connect 13 0 4 0;
#X connect 13 0 18 0;
#X connect 14 0 15 0;
#X connect 15 0 16 0;
#X connect 17 0 16 0;
#X connect 18 0 14 0;
#X connect 18 0 19 0;
#X connect 19 0 17 0;
#X connect 20 0 17 0;
#X connect 21 0 20 0;
#X connect 21 0 22 0;
#X connect 22 0 15 0;
#X connect 24 0 23 0;
#X connect 24 0 25 0;
#X connect 25 0 26 0;
#X restore 484 94 pd Playlist;
#X obj 356 159 isMode Plans;
#X obj 178 248 s IfTreuil-rcv;
#X obj 178 198 tgl 20 0 empty empty empty 0 -10 0 12 #fcfcfc #000000 #000000 0 1;
#X msg 178 223 MAled \$1;
#X msg 373 212 0;
#X obj 293 274 sel 0 1;
#X msg 285 326 Rled \$1 \, Mled \$2;
#X msg 286 301 1 0;
#X msg 322 301 0 1;
#X msg 407 213 0 0;
#X obj 285 351 s IfTreuil-rcv;
#X obj 373 187 sel 0 1, f 24;
#X obj 167 100 sel 0;
#X obj 31 226 f;
#X msg 167 125 0;
#X obj 406 276 tgl 20 0 showFilm showFilm showFilm 0 -10 0 12 #fcfcfc #000000 #000000 0 1;
#X connect 0 0 24 0;
#X connect 1 0 3 0;
#X connect 2 0 4 0;
#X connect 3 0 2 0;
#X connect 3 1 2 1;
#X connect 4 0 5 0;
#X connect 4 1 7 1;
#X connect 5 0 7 0;
#X connect 6 0 44 0;
#X connect 7 0 6 0;
#X connect 8 0 11 0;
#X connect 8 1 12 0;
#X connect 8 2 9 0;
#X connect 9 0 10 0;
#X connect 10 0 13 0;
#X connect 10 1 19 0;
#X connect 11 0 15 0;
#X connect 12 0 15 0;
#X connect 13 0 15 0;
#X connect 14 0 17 0;
#X connect 14 1 16 1;
#X connect 15 0 16 0;
#X connect 16 1 14 0;
#X connect 17 0 20 0;
#X connect 19 0 18 0;
#X connect 21 0 22 0;
#X connect 22 0 23 0;
#X connect 24 0 2 0;
#X connect 24 1 1 0;
#X connect 24 2 9 1;
#X connect 24 2 33 0;
#X connect 24 2 43 0;
#X connect 24 3 25 0;
#X connect 25 0 26 0;
#X connect 26 0 27 0;
#X connect 27 0 28 0;
#X connect 27 0 29 0;
#X connect 29 0 36 0;
#X connect 31 0 26 1;
#X connect 31 0 42 0;
#X connect 33 0 34 0;
#X connect 34 0 32 0;
#X connect 35 0 27 0;
#X connect 36 0 38 0;
#X connect 36 1 39 0;
#X connect 37 0 41 0;
#X connect 38 0 37 0;
#X connect 39 0 37 0;
#X connect 40 0 37 0;
#X connect 42 0 35 0;
#X connect 42 0 40 0;
#X connect 42 1 38 0;
#X connect 43 0 45 0;
#X connect 44 0 8 0;
#X connect 45 0 1 0;
