#N canvas 2412 540 799 717 12;
#X obj 31 11 r IfTreuil-snd;
#X obj 77 65 * 2;
#X obj 31 97 +;
#X obj 61 96 t b f;
#X obj 31 129 t b f;
#X obj 31 154 del 100;
#X obj 31 198 change;
#X obj 31 176 f;
#X obj 31 293 sel 0 1 2, f 20;
#X obj 144 347 f 0;
#X obj 144 372 sel 1 0;
#X msg 31 398 Diag;
#X msg 74 399 Playlist;
#X msg 144 398 Plans;
#X obj 74 497 t s s;
#X obj 74 445 symbol;
#X obj 74 470 sel _;
#X listbox 74 522 6 0 0 0 - - - 0;
#X obj 191 445 s toGem;
#X obj 74 546 s MODE;
#X obj 71 581 r MODE;
#X msg 71 606 MODE \$1;
#X obj 71 631 s toGem;
#X obj 31 36 route Gentree Gsortie MA MR;
#N canvas 2227 716 702 478 Playlist 0;
#X obj 31 11 r IfTreuil-snd;
#X obj 152 11 isMode Playlist;
#X obj 31 48 spigot;
#X msg 31 192 prevtune;
#X msg 100 190 nexttune;
#X obj 31 217 s toGem;
#X obj 62 311 r fromGem;
#X obj 62 336 route selectedtune;
#X floatatom 14 443 5 0 0 0 - - - 0;
#X obj 152 36 sel 0;
#X msg 152 61 0;
#X obj 31 110 route iar iav, f 20;
#X obj 31 135 metro 500;
#X obj 100 136 metro 500;
#X obj 409 223 delOnOff 0 100;
#X msg 329 266 Gled \$1;
#X obj 329 291 s IfTreuil-rcv;
#X msg 402 266 Dled \$1;
#X obj 423 194 b;
#X obj 299 220 delOnOff 0 100;
#X obj 185 191 b;
#X listbox 187 387 20 0 0 0 - - - 0;
#X obj 62 361 symbol;
#X msg 62 386 selectedtune \$1;
#X obj 62 411 s toJuke;
#X obj 185 221 delOnOff 200 100;
#X obj 516 223 delOnOff 200 100;
#X connect 0 0 2 0;
#X connect 1 0 2 1;
#X connect 1 0 9 0;
#X connect 2 0 11 0;
#X connect 3 0 5 0;
#X connect 4 0 5 0;
#X connect 6 0 7 0;
#X connect 7 0 22 0;
#X connect 9 0 10 0;
#X connect 10 0 12 0;
#X connect 11 0 12 0;
#X connect 11 1 13 0;
#X connect 12 0 3 0;
#X connect 12 0 20 0;
#X connect 13 0 4 0;
#X connect 13 0 18 0;
#X connect 14 0 15 0;
#X connect 15 0 16 0;
#X connect 17 0 16 0;
#X connect 18 0 14 0;
#X connect 18 0 26 0;
#X connect 19 0 17 0;
#X connect 20 0 19 0;
#X connect 20 0 25 0;
#X connect 22 0 21 0;
#X connect 22 0 23 0;
#X connect 23 0 24 0;
#X connect 25 0 15 0;
#X connect 26 0 17 0;
#X restore 603 213 pd Playlist;
#X obj 202 656 s IfTreuil-rcv;
#X obj 202 606 tgl 20 0 empty empty empty 0 -10 0 12 #fcfcfc #000000 #000000 0 1;
#X msg 202 631 MAled \$1;
#X obj 113 104 sel 0;
#X obj 31 226 f;
#X msg 113 129 0;
#N canvas 2189 560 1122 627 Plans 0;
#X obj 21 428 s toGem;
#X obj 21 371 list prepend plan offsetcoord;
#X msg 21 332 x \$1;
#X msg 64 333 y \$1;
#X msg 107 334 z \$1;
#X obj 663 17 r IfTreuil-snd;
#X obj 663 81 tgl 20 0 empty empty empty 0 -10 0 12 #fcfcfc #000000 #000000 0 1;
#X obj 663 108 spigot;
#X obj 663 133 change;
#X obj 663 163 s showFilm;
#X obj 638 169 tgl 20 0 empty empty empty 0 -10 0 12 #fcfcfc #000000 #000000 0 1;
#X obj 702 81 isMode Plans;
#X msg 719 134 0;
#X obj 639 196 sel 0 1;
#X msg 631 248 Rled \$1 \, Mled \$2;
#X msg 632 223 1 0;
#X msg 668 223 0 1;
#X msg 753 135 0 0;
#X obj 631 273 s IfTreuil-rcv;
#X obj 719 109 sel 0 1, f 24;
#X obj 752 198 tgl 20 0 showFilm showFilm showFilm 0 -10 0 12 #fcfcfc #000000 #000000 0 1;
#X obj 663 42 route MR;
#X obj 21 14 r IfTreuil-snd;
#X obj 21 99 spigot;
#X obj 148 15 isMode Plans;
#X obj 278 76 route Dentree Dsortie;
#X obj 278 102 +;
#X obj 308 101 t b f;
#X obj 278 134 t b f;
#X obj 278 203 change;
#X obj 278 181 f;
#X obj 350 102 * 2;
#X obj 278 159 del 50;
#X obj 21 189 metro 100;
#X obj 96 191 metro 100;
#X msg 21 214 -1;
#X msg 96 216 1;
#X obj 21 251 * 0.1;
#X obj 21 276 list prepend 0;
#X obj 21 301 route 1 2 0, f 19;
#X obj 148 40 sel 0;
#X msg 134 76 0;
#X obj 21 124 route manut route stabilo, f 33;
#X obj 238 341 sel 1 0, f 46;
#X msg 412 371 plan stopchangeshader;
#X msg 238 370 plan changeshader 1200;
#X obj 21 157 f;
#X obj 96 158 f;
#X msg 182 532 Gled \$1;
#X msg 297 534 Dled \$1;
#X obj 182 578 s IfTreuil-rcv;
#X obj 652 318 == 0;
#X obj 599 344 spigot 1;
#X obj 599 517 s toGem;
#X obj 599 369 route manut route stabilo Dentree Dsortie MR;
#X obj 599 422 sel 1;
#X msg 599 475 warning Fonction inactive.##Commutez le stabilisateur# Gauche vers SORTIE., f 62;
#X obj 182 489 delOnOff 0 30;
#X obj 297 488 delOnOff 0 30;
#X connect 1 0 0 0;
#X connect 2 0 1 0;
#X connect 3 0 1 0;
#X connect 4 0 1 0;
#X connect 5 0 21 0;
#X connect 6 0 7 0;
#X connect 7 0 8 0;
#X connect 8 0 9 0;
#X connect 8 0 10 0;
#X connect 10 0 13 0;
#X connect 11 0 7 1;
#X connect 11 0 19 0;
#X connect 12 0 8 0;
#X connect 13 0 15 0;
#X connect 13 1 16 0;
#X connect 14 0 18 0;
#X connect 15 0 14 0;
#X connect 16 0 14 0;
#X connect 17 0 14 0;
#X connect 19 0 12 0;
#X connect 19 0 17 0;
#X connect 19 1 15 0;
#X connect 21 0 6 0;
#X connect 22 0 23 0;
#X connect 22 0 25 0;
#X connect 22 0 52 0;
#X connect 23 0 42 0;
#X connect 24 0 23 1;
#X connect 24 0 40 0;
#X connect 24 0 51 0;
#X connect 25 0 26 0;
#X connect 25 1 31 0;
#X connect 26 0 28 0;
#X connect 27 0 26 0;
#X connect 27 1 26 1;
#X connect 28 0 32 0;
#X connect 28 1 30 1;
#X connect 29 0 38 1;
#X connect 30 0 29 0;
#X connect 31 0 27 0;
#X connect 32 0 30 0;
#X connect 33 0 35 0;
#X connect 33 0 57 0;
#X connect 34 0 36 0;
#X connect 34 0 58 0;
#X connect 35 0 37 0;
#X connect 36 0 37 0;
#X connect 37 0 38 0;
#X connect 38 0 39 0;
#X connect 39 0 2 0;
#X connect 39 1 3 0;
#X connect 39 2 4 0;
#X connect 40 0 41 0;
#X connect 41 0 46 0;
#X connect 41 0 47 0;
#X connect 41 0 43 0;
#X connect 42 0 46 0;
#X connect 42 1 47 0;
#X connect 42 2 43 0;
#X connect 43 0 45 0;
#X connect 43 1 44 0;
#X connect 44 0 0 0;
#X connect 45 0 0 0;
#X connect 46 0 33 0;
#X connect 47 0 34 0;
#X connect 48 0 50 0;
#X connect 49 0 50 0;
#X connect 51 0 52 1;
#X connect 52 0 54 0;
#X connect 54 0 55 0;
#X connect 54 1 55 0;
#X connect 54 2 55 0;
#X connect 54 3 56 0;
#X connect 54 4 56 0;
#X connect 54 5 56 0;
#X connect 55 0 56 0;
#X connect 56 0 53 0;
#X connect 57 0 48 0;
#X connect 58 0 49 0;
#X restore 603 241 pd Plans;
#X obj 202 577 r MARCHE;
#X obj 162 322 r MARCHE;
#X obj 221 268 s MARCHE;
#X obj 604 12 r fromJuke;
#X obj 604 37 route jauge;
#X obj 604 62 route Tr/min;
#X obj 605 89 > 1e-05;
#X obj 113 77 r MARCHE;
#X obj 605 114 change;
#X obj 605 139 tgl 20 0 empty empty empty 0 -10 0 12 #fcfcfc #000000 #000000 0 1;
#X obj 605 164 s \$0-moteurTourne;
#X obj 221 135 sel 0 1, f 13;
#X msg 221 160 0;
#X obj 221 242 change;
#X obj 278 160 f;
#X obj 295 40 r \$0-moteurTourne;
#X obj 278 185 sel 1 0, f 11;
#X msg 278 210 1;
#X msg 294 279 warning stop;
#X msg 154 472 warning stop;
#X obj 259 107 sel 0;
#X obj 221 107 f;
#X msg 321 210 0;
#X msg 191 399 warning Fonction inaccessible.##Mettez l'Autorépartiteur de# Levage sur Marche d'abord !#, f 62;
#X msg 302 326 warning Moteur principal arrêté !##Impossible de mettre en Marche.##Allez démarrer le Moteur principal#dans la Chambre des Machines., f 62;
#X obj 191 276 bng 20 250 50 0 empty empty empty 0 -10 0 12 #fcfcfc #000000 #000000;
#X obj 360 214 bng 20 250 50 0 empty empty empty 0 -10 0 12 #fcfcfc #000000 #000000;
#X obj 234 29 t b f;
#X obj 234 54 del 10;
#X obj 234 79 f;
#X connect 0 0 23 0;
#X connect 1 0 3 0;
#X connect 2 0 4 0;
#X connect 3 0 2 0;
#X connect 3 1 2 1;
#X connect 4 0 5 0;
#X connect 4 1 7 1;
#X connect 5 0 7 0;
#X connect 6 0 29 0;
#X connect 7 0 6 0;
#X connect 8 0 11 0;
#X connect 8 0 51 0;
#X connect 8 1 12 0;
#X connect 8 1 51 0;
#X connect 8 2 9 0;
#X connect 9 0 10 0;
#X connect 10 0 13 0;
#X connect 10 1 55 0;
#X connect 11 0 15 0;
#X connect 12 0 15 0;
#X connect 13 0 15 0;
#X connect 14 0 17 0;
#X connect 14 1 16 1;
#X connect 15 0 16 0;
#X connect 16 1 14 0;
#X connect 17 0 19 0;
#X connect 20 0 21 0;
#X connect 21 0 22 0;
#X connect 23 0 2 0;
#X connect 23 1 1 0;
#X connect 23 2 59 0;
#X connect 26 0 27 0;
#X connect 27 0 25 0;
#X connect 28 0 30 0;
#X connect 29 0 8 0;
#X connect 30 0 1 0;
#X connect 32 0 26 0;
#X connect 33 0 9 1;
#X connect 35 0 36 0;
#X connect 36 0 37 0;
#X connect 37 0 38 0;
#X connect 38 0 40 0;
#X connect 39 0 28 0;
#X connect 40 0 41 0;
#X connect 41 0 42 0;
#X connect 43 0 44 0;
#X connect 43 1 46 0;
#X connect 44 0 45 0;
#X connect 44 0 50 0;
#X connect 45 0 34 0;
#X connect 45 0 57 0;
#X connect 46 0 48 0;
#X connect 47 0 46 1;
#X connect 47 0 52 0;
#X connect 48 0 49 0;
#X connect 48 1 56 0;
#X connect 48 1 54 0;
#X connect 48 1 58 0;
#X connect 49 0 45 0;
#X connect 50 0 18 0;
#X connect 51 0 18 0;
#X connect 52 0 44 0;
#X connect 53 0 43 0;
#X connect 54 0 45 0;
#X connect 55 0 18 0;
#X connect 56 0 18 0;
#X connect 59 0 60 0;
#X connect 59 1 61 1;
#X connect 60 0 61 0;
#X connect 61 0 53 0;
