#N canvas 1228 151 450 300 12;
#X obj 161 118 sel 1 0, f 23;
#X msg 161 206 1;
#X obj 161 231 change;
#X obj 59 3 inlet;
#X obj 161 181 del \$1;
#X msg 176 155 stop;
#X msg 217 154 stop;
#X obj 257 180 del \$2;
#X msg 257 205 0;
#X obj 161 256 outlet;
#X msg 31 77 1;
#X msg 68 100 0;
#X obj 68 76 del \$1;
#X msg 120 73 stop;
#X obj 59 37 route bang stop;
#X connect 0 0 4 0;
#X connect 0 0 6 0;
#X connect 0 1 7 0;
#X connect 0 1 5 0;
#X connect 1 0 2 0;
#X connect 2 0 9 0;
#X connect 3 0 14 0;
#X connect 4 0 1 0;
#X connect 5 0 4 0;
#X connect 6 0 7 0;
#X connect 7 0 8 0;
#X connect 8 0 2 0;
#X connect 10 0 0 0;
#X connect 11 0 0 0;
#X connect 12 0 11 0;
#X connect 13 0 12 0;
#X connect 14 0 10 0;
#X connect 14 0 12 0;
#X connect 14 1 13 0;
#X connect 14 1 5 0;
#X connect 14 1 6 0;
#X connect 14 2 0 0;
#X connect 14 2 13 0;
