#N canvas 651 115 874 701 12;
#X obj 14 16 fruit/fruit 1 Comm 12 Commandes;
#X obj 102 273 vsl 15 128 0 1 0 0 empty empty empty 0 -9 0 10 #fcfcfc #000000 #000000 0 1;
#X obj 246 296 vsl 15 128 0 1 0 0 empty empty empty 0 -9 0 10 #fcfcfc #000000 #000000 0 1;
#X obj 382 337 vsl 15 128 0 1 0 0 empty empty empty 0 -9 0 10 #fcfcfc #000000 #000000 0 1;
#X obj 574 132 vsl 15 128 0 1 0 0 empty empty empty 0 -9 0 10 #fcfcfc #000000 #000000 0 1;
#X obj 667 342 spigot 1;
#X obj 729 339 tgl 15 0 empty empty empty 17 7 0 10 #fcfcfc #000000 #000000 0 1;
#X msg 667 318 c \$1 i \$2;
#X msg 667 279 14 \$1;
#X obj 113 508 s \$0-Diesel-comm;
#X obj 237 532 s \$0-Gene-comm;
#X obj 355 535 s \$0-Comp-comm;
#X obj 237 467 clip 0 1;
#X obj 237 507 change;
#X obj 355 479 clip 0 1;
#X obj 355 510 change;
#X obj 101 222 speedlim 100;
#X msg 101 243 set \$1;
#X obj 244 251 speedlim 100;
#X msg 244 272 set \$1;
#X obj 387 294 speedlim 100;
#X msg 387 315 set \$1;
#X obj 484 152 speedlim 100;
#X msg 486 172 set \$1;
#X obj 54 431 clip 0 1;
#X obj 113 477 change;
#X obj 355 266 maxlib/scale 3800 8100 0.05 1;
#X obj 54 192 maxlib/scale 4590 6800 0.05 1;
#N canvas 752 340 357 365 analog 0;
#X obj 51 12 inlet;
#X obj 113 303 outlet;
#X obj 51 57 unwonk f;
#X obj 140 176 l;
#X obj 51 108 moses 100;
#X obj 113 131 - 100;
#X obj 113 154 t f b;
#X obj 140 199 unwonk f f;
#X obj 140 222 * 256;
#X obj 140 245 +;
#X obj 113 278 pack f f;
#X obj 51 34 route list;
#X obj 113 108 moses 150;
#X connect 0 0 11 0;
#X connect 2 0 4 0;
#X connect 2 1 3 1;
#X connect 3 0 7 0;
#X connect 4 1 12 0;
#X connect 5 0 6 0;
#X connect 6 0 10 0;
#X connect 6 1 3 0;
#X connect 7 0 8 0;
#X connect 7 1 9 1;
#X connect 7 2 2 0;
#X connect 8 0 9 0;
#X connect 9 0 10 1;
#X connect 10 0 1 0;
#X connect 11 0 2 0;
#X connect 12 0 5 0;
#X restore 54 134 pd analog;
#X obj 418 64 / 8192;
#X obj 417 114 clip 0 1;
#X obj 400 162 s \$0-Vanne;
#X obj 54 161 route 0 1 2 3, f 29;
#X obj 418 86 maxlib/scale 0.002 0.7 0 1;
#X obj 228 224 maxlib/scale 5700 8100 0.05 1;
#X obj 54 107 fruit/receive Comm;
#X obj 667 364 fruit/send2 Comm;
#X msg 100 584 0 \$1;
#X msg 147 586 1 \$1;
#X msg 194 583 2 \$1;
#X obj 139 643 s Commandes-manettes;
#X msg 799 279 16 \$1;
#X msg 728 280 15 \$1;
#X obj 667 125 r Commandes-lights;
#X obj 667 150 unpack f f;
#X obj 667 219 pack f f, f 10;
#X obj 734 186 * 300;
#X obj 667 244 route 0 1 2;
#X obj 552 454 r Commandes-manettes;
#X obj 552 479 route 0 1;
#X msg 552 541 manette Gauche \$1;
#X msg 582 508 manette Droite \$1;
#X obj 552 566 s toGem;
#X connect 1 0 25 0;
#X connect 2 0 12 0;
#X connect 3 0 14 0;
#X connect 5 0 36 0;
#X connect 6 0 5 1;
#X connect 7 0 5 0;
#X connect 8 0 7 0;
#X connect 12 0 13 0;
#X connect 13 0 10 0;
#X connect 13 0 38 0;
#X connect 14 0 15 0;
#X connect 15 0 11 0;
#X connect 15 0 39 0;
#X connect 16 0 17 0;
#X connect 17 0 1 0;
#X connect 18 0 19 0;
#X connect 19 0 2 0;
#X connect 20 0 21 0;
#X connect 21 0 3 0;
#X connect 22 0 23 0;
#X connect 23 0 4 0;
#X connect 24 0 25 0;
#X connect 25 0 9 0;
#X connect 25 0 37 0;
#X connect 26 0 14 0;
#X connect 26 0 20 0;
#X connect 27 0 16 0;
#X connect 27 0 24 0;
#X connect 28 0 32 0;
#X connect 29 0 33 0;
#X connect 30 0 22 0;
#X connect 30 0 31 0;
#X connect 32 0 27 0;
#X connect 32 1 34 0;
#X connect 32 2 26 0;
#X connect 32 3 29 0;
#X connect 33 0 30 0;
#X connect 34 0 18 0;
#X connect 34 0 12 0;
#X connect 35 0 28 0;
#X connect 37 0 40 0;
#X connect 38 0 40 0;
#X connect 39 0 40 0;
#X connect 41 0 7 0;
#X connect 42 0 7 0;
#X connect 43 0 44 0;
#X connect 44 0 45 0;
#X connect 44 1 46 0;
#X connect 45 0 47 0;
#X connect 46 0 45 1;
#X connect 47 0 8 0;
#X connect 47 1 42 0;
#X connect 47 2 41 0;
#X connect 48 0 49 0;
#X connect 49 0 50 0;
#X connect 49 1 51 0;
#X connect 50 0 52 0;
#X connect 51 0 52 0;
