#N canvas 162 570 259 193 10;
#X obj 15 56 *~;
#X obj 82 5 r \$1-Master;
#X obj 16 4 inlet~;
#X obj 16 86 out \$2 \$3;
#X msg 82 28 \$1 10;
#X obj 82 51 line~;
#X connect 0 0 3 0;
#X connect 1 0 4 0;
#X connect 2 0 0 0;
#X connect 4 0 5 0;
#X connect 5 0 0 1;
