#N canvas 153 32 870 873 12;
#X declare -path AutoPreset;
#X obj 31 20 r Commandes-manettes;
#X obj 31 50 list prepend 0, f 23;
#X obj 189 20 r Mannettes-enable;
#X obj 31 80 route 0 1, f 25;
#X obj 117 107 route 0 1;
#N canvas 0 0 616 375 inactive 0;
#X obj 42 68 route 0 1, f 27;
#X obj 42 131 -;
#X obj 42 104 t f f;
#X obj 42 156 abs;
#X obj 42 181 moses 0.1;
#X obj 75 131 f;
#X obj 102 206 t b b;
#X obj 102 301 s toGem;
#X msg 102 242 warning Commande interdite:#Moteur principal arrêté !##Allez démarrer le Moteur principal#dans la Chambre des Machines., f 62;
#X obj 135 123 -;
#X obj 135 96 t f f;
#X obj 135 148 abs;
#X obj 135 173 moses 0.1;
#X obj 168 123 f;
#X obj 195 198 t b b;
#X obj 42 35 inlet;
#X connect 0 0 2 0;
#X connect 0 1 10 0;
#X connect 1 0 3 0;
#X connect 2 0 1 0;
#X connect 2 1 5 1;
#X connect 3 0 4 0;
#X connect 4 1 6 0;
#X connect 5 0 1 1;
#X connect 6 0 8 0;
#X connect 6 1 5 0;
#X connect 8 0 7 0;
#X connect 9 0 11 0;
#X connect 10 0 9 0;
#X connect 10 1 13 1;
#X connect 11 0 12 0;
#X connect 12 1 14 0;
#X connect 13 0 9 1;
#X connect 14 0 8 0;
#X connect 14 1 13 0;
#X connect 15 0 0 0;
#X restore 31 107 pd inactive;
#X obj 392 9 r Commandes-manettes;
#X obj 392 34 route 0 1;
#X msg 392 96 manette Gauche \$1;
#X msg 422 63 manette Droite \$1;
#X obj 429 120 s toGem;
#X obj 593 47 tgl 20 0 empty empty empty 0 -10 0 12 #fcfcfc #000000 #000000 0 1;
#X obj 593 72 s Mannettes-enable;
#X obj 252 76 s toGem;
#X msg 252 51 Mannettes-enable \$1;
#X obj 625 141 declare -path AutoPreset;
#X obj 624 168 apmaster MANETTES;
#X obj 335 224 64patterns MANETTES;
#X obj 336 357 vsl 20 170 0 1 0 0 \$0-bleu1-snd \$0-bleu1-rcv 1 0 -9 0 12 #fcfcfc #000000 #000000 0 1;
#X obj 359 357 vsl 20 170 0 1 0 0 \$0-bleu2-snd \$0-bleu2-rcv 2 0 -9 0 12 #fcfcfc #000000 #000000 0 1;
#X obj 383 357 vsl 20 170 0 1 0 0 \$0-bleu3-snd \$0-bleu3-rcv 3 0 -9 0 12 #fcfcfc #000000 #000000 0 1;
#X obj 406 357 vsl 20 170 0 1 0 0 \$0-bleu4-snd \$0-bleu4-rcv 4 0 -9 0 12 #fcfcfc #000000 #000000 0 1;
#X obj 429 357 vsl 20 170 0 1 0 0 \$0-bleu5-snd \$0-bleu5-rcv 5 0 -9 0 12 #fcfcfc #000000 #000000 0 1;
#X obj 452 357 vsl 20 170 0 1 0 0 \$0-bleu6-snd \$0-bleu6-rcv 6 0 -9 0 12 #fcfcfc #000000 #000000 0 1;
#X obj 624 196 apf MANETTES bleu1 \$0-bleu1;
#X obj 624 218 apf MANETTES bleu2 \$0-bleu2;
#X obj 624 241 apf MANETTES bleu3 \$0-bleu3;
#X obj 624 263 apf MANETTES bleu4 \$0-bleu4;
#X obj 624 286 apf MANETTES bleu5 \$0-bleu5;
#X obj 624 308 apf MANETTES bleu6 \$0-bleu6;
#X obj 335 197 apmasterfile MANETTES Manettes.txt;
#X obj 334 147 loadbang;
#X obj 334 172 bng 20 250 50 0 empty empty empty 0 -10 0 12 #00ff04 #000000 #000000;
#X obj 570 172 bng 20 250 50 0 empty empty empty 0 -10 0 12 #ff0400 #000000 #000000;
#X obj 652 398 t b f;
#X msg 652 423 1 \, 2 \, 3 \, 4 \, 5 \, 6;
#X obj 624 337 dispatch \$0-bleu 1 6;
#X obj 652 448 pack f f;
#X obj 652 473 s \$0-bleu-rcv;
#X msg 661 370 0.5;
#X msg 623 370 0;
#X msg 697 371 1;
#X msg 149 308 _all_ load \$1;
#X obj 152 254 hsl 170 20 0 1 0 0 empty empty empty -2 -10 0 12 #fcfcfc #000000 #000000 0 1;
#X obj 149 335 s MANETTES-pattern-snd;
#X obj 31 206 r \$0-bleu-snd;
#X obj 31 231 unpack f f;
#X obj 98 257 +;
#X obj 98 284 + 1;
#X obj 98 309 fmod 2;
#X obj 98 334 - 1;
#X obj 98 360 abs;
#X obj 31 389 pack f f, f 10;
#X msg 31 414 bleu \$1 target \$2;
#X obj 31 439 s toGem;
#X obj 147 134 t b f;
#X obj 117 165 f;
#X obj 179 159 * 4;
#X obj 179 184 - 2;
#X obj 149 279 * 13;
#X obj 593 18 r MoteurTourne;
#X obj 92 502 r \$0-bleu-snd;
#X obj 92 527 unpack f f, f 14;
#X obj 187 611 * 4;
#X obj 187 556 * -1;
#X obj 187 584 + 1;
#X obj 92 667 pack f f, f 14;
#X obj 92 692 spigot, f 20;
#X obj 243 664 r TREUIL_ENABLE;
#X obj 243 689 tgl 20 0 empty empty empty 0 -10 0 12 #fcfcfc #000000 #000000 0 1;
#X msg 92 720 \; treuil\$1-dest \$2;
#X obj 92 582 + 1;
#X obj 187 639 * 250;
#X text 235 639 1tour=250pas;
#X msg 209 129 0;
#X connect 0 0 1 0;
#X connect 1 0 3 0;
#X connect 2 0 1 1;
#X connect 2 0 14 0;
#X connect 3 0 5 0;
#X connect 3 1 4 0;
#X connect 4 0 56 0;
#X connect 4 1 55 0;
#X connect 6 0 7 0;
#X connect 7 0 8 0;
#X connect 7 1 9 0;
#X connect 8 0 10 0;
#X connect 9 0 10 0;
#X connect 11 0 12 0;
#X connect 14 0 13 0;
#X connect 31 0 32 0;
#X connect 32 0 30 0;
#X connect 33 0 30 1;
#X connect 34 0 35 0;
#X connect 34 1 37 1;
#X connect 35 0 37 0;
#X connect 37 0 38 0;
#X connect 39 0 34 0;
#X connect 40 0 34 0;
#X connect 41 0 34 0;
#X connect 42 0 44 0;
#X connect 43 0 59 0;
#X connect 45 0 46 0;
#X connect 46 0 52 0;
#X connect 46 1 47 0;
#X connect 47 0 48 0;
#X connect 48 0 49 0;
#X connect 49 0 50 0;
#X connect 50 0 51 0;
#X connect 51 0 52 1;
#X connect 52 0 53 0;
#X connect 53 0 54 0;
#X connect 55 0 56 0;
#X connect 55 1 57 0;
#X connect 56 0 43 0;
#X connect 57 0 58 0;
#X connect 58 0 47 1;
#X connect 59 0 42 0;
#X connect 60 0 11 0;
#X connect 61 0 62 0;
#X connect 62 0 71 0;
#X connect 62 1 64 0;
#X connect 63 0 72 0;
#X connect 64 0 65 0;
#X connect 65 0 63 0;
#X connect 66 0 67 0;
#X connect 67 0 70 0;
#X connect 68 0 69 0;
#X connect 69 0 67 1;
#X connect 71 0 66 0;
#X connect 72 0 66 1;
#X connect 74 0 55 0;
