#N canvas 796 568 320 340 10;
#X obj 13 -1 catch~ \$1-out\$2;
#X obj 18 292 dac~ \$2;
#X obj 93 269 prvu~;
#X obj 55 225 limiter~;
#X obj 16 199 *~;
#X obj 30 175 r~ \$1-Mastersig;
#X obj 15 226 z~ 64;
#X obj 14 248 *~;
#X obj 93 289 s \$1-vu\$2;
#X obj 17 154 AudioDelayStop \$1;
#X obj 16 75 lp2_cheb~ 22000 50;
#X obj 183 -5 inlet~;
#X obj 60 97 r \$1-hpf;
#X obj 17 121 hp2_cheb~ 10 50;
#X obj 69 54 r \$1-lpf;
#X obj 161 36 lp4_butt~ 90;
#X obj 16 35 hip~ 50;
#X obj 161 68 *~ 0.8;
#X connect 0 0 16 0;
#X connect 0 0 15 0;
#X connect 2 0 8 0;
#X connect 3 0 7 1;
#X connect 4 0 6 0;
#X connect 4 0 3 0;
#X connect 5 0 4 1;
#X connect 6 0 7 0;
#X connect 7 0 2 0;
#X connect 7 0 1 0;
#X connect 9 0 4 0;
#X connect 10 0 13 0;
#X connect 11 0 15 0;
#X connect 12 0 13 1;
#X connect 13 0 9 0;
#X connect 14 0 10 1;
#X connect 15 0 17 0;
#X connect 16 0 10 0;
#X connect 17 0 10 0;
