#N canvas 1072 95 445 268 10;
#X obj 25 79 pack s s;
#X obj 127 55 getdir;
#X obj 127 33 loadbang;
#X obj 186 33 bng 15 250 50 0 empty empty empty 17 7 0 10 #fcfcfc #000000 #000000;
#X obj 25 52 getenv DISPLAY;
#X obj 25 24 bng 15 250 50 0 empty empty empty 17 7 0 10 #fcfcfc #000000 #000000;
#X obj 59 8 loadbang;
#X obj 58 29 del 4000;
#X obj 25 221 system;
#X obj 25 104 t a b;
#X msg 25 137 screen -S ScreenGem -d -m \$2 \$1;
#X msg 127 77 symbol \$1/GemPart/runGem.sh;
#X obj 24 3 inlet;
#X msg 53 184 pkill -f "pd -lib Gem" \, pkill -f runGem.sh \, screen -wipe;
#X connect 0 0 9 0;
#X connect 1 0 11 0;
#X connect 2 0 1 0;
#X connect 3 0 1 0;
#X connect 4 0 0 0;
#X connect 5 0 4 0;
#X connect 6 0 7 0;
#X connect 7 0 5 0;
#X connect 9 0 10 0;
#X connect 9 1 13 0;
#X connect 10 0 8 0;
#X connect 11 0 0 1;
#X connect 12 0 5 0;
#X connect 13 0 8 0;
