#N canvas 178 179 1677 823 12;
#X obj 824 356 wavplayer;
#X obj 482 352 wavplayertab_loop 22-Compresseurs 1 5 34;
#X obj 484 325 tgl 20 0 empty empty empty 0 -10 0 12 #fcfcfc #000000 #000000 0 1;
#X obj 203 240 tgl 20 0 empty empty empty 0 -10 0 12 #fcfcfc #000000 #000000 0 1;
#X obj 626 665 r showFilm;
#X obj 80 14 r IfTreuil-snd;
#X obj 80 39 route MA MR;
#X obj 561 280 tgl 20 0 empty empty empty 0 -10 0 12 #fcfcfc #000000 #000000 0 1;
#X obj 393 405 tgl 20 0 empty empty empty 0 -10 0 12 #fcfcfc #000000 #000000 0 1;
#X obj 393 436 wavplayertab_loop 2-Cuvelage_bruit_métallique 1 1 99;
#X obj 273 514 rev3~ 99 85;
#X floatatom 580 415 5 0 0 0 - - - 0;
#X floatatom 765 269 5 0 0 0 - - - 0;
#X obj 312 35 r IfTreuil-snd;
#X obj 312 159 tgl 20 0 empty empty empty 0 -10 0 12 #fcfcfc #000000 #000000 0 1;
#X floatatom 347 240 5 0 0 0 - - - 0;
#X obj 203 266 wavplayertab_loop 17-Sondeuse 0.5 10 39;
#X obj 360 160 tgl 20 0 empty empty empty 0 -10 0 12 #fcfcfc #000000 #000000 0 1;
#N canvas 1512 380 348 401 env_to_changecoord 0;
#X obj 63 41 env~;
#X obj 63 91 change;
#X obj 63 242 sel 1;
#X obj 63 271 bng 20 250 50 0 empty empty empty 0 -10 0 12 #fcfcfc #000000 #000000;
#X obj 63 66 > 80;
#X obj 63 321 s toGem;
#X obj 63 116 sel 1 0, f 13;
#X msg 63 141 1;
#X msg 97 140 stop;
#X msg 104 192 0;
#X obj 63 214 change;
#X obj 63 13 inlet~;
#X obj 32 356 outlet;
#X obj 104 167 del 80;
#X msg 63 296 plan changecoord \, plan changeshader;
#X connect 0 0 4 0;
#X connect 1 0 6 0;
#X connect 2 0 3 0;
#X connect 3 0 14 0;
#X connect 3 0 12 0;
#X connect 4 0 1 0;
#X connect 6 0 7 0;
#X connect 6 0 8 0;
#X connect 6 1 13 0;
#X connect 7 0 10 0;
#X connect 8 0 13 0;
#X connect 9 0 10 0;
#X connect 10 0 2 0;
#X connect 11 0 0 0;
#X connect 13 0 9 0;
#X connect 14 0 5 0;
#X restore 420 476 pd env_to_changecoord;
#X obj 312 194 delOnOff 2000 1000;
#X msg 518 244 1 \, 0;
#X msg 567 176 1;
#X obj 599 178 del 200;
#X msg 599 203 0;
#X obj 508 106 tgl 20 0 empty empty empty 0 -10 0 12 #fcfcfc #000000 #000000 0 1;
#X obj 567 151 metro 750;
#X obj 650 238 s toGem;
#X msg 650 212 nextPlan;
#X obj 567 126 delOnOff 3000 0;
#X msg 724 118 stabilo \$1;
#X obj 312 128 route iav iar stabilo;
#X obj 467 186 ||;
#X obj 495 186 t b f;
#X obj 823 214 tgl 20 0 empty empty empty 0 -10 0 12 #fcfcfc #000000 #000000 0 1;
#X obj 824 158 bng 20 250 50 0 empty empty empty 0 -10 0 12 #fcfcfc #000000 #000000;
#X msg 823 239 Gled \$1;
#X obj 823 264 s IfTreuil-rcv;
#X obj 420 532 tgl 20 0 empty empty empty 0 -10 0 12 #fcfcfc #000000 #000000 0 1;
#X obj 420 582 s IfTreuil-rcv;
#X msg 420 557 Dled \$1;
#X obj 421 504 delOnOff 0 150;
#X obj 824 187 delOnOff 120 150;
#X obj 239 685 lout \$0 \$1 2;
#X obj 343 686 lout \$0 \$1 3;
#X obj 524 723 s \$0-Master;
#X obj 527 629 hsl 170 20 0 1 0 1 empty empty empty -2 -10 0 12 #ff0400 #000000 #000000 15600 1;
#X obj 524 696 pow 2;
#X obj 557 665 t b f;
#X obj 524 666 * 1;
#X obj 626 689 sel 1 0;
#X obj 626 739 line;
#X obj 359 650 retard 15;
#X obj 446 391 retard 5;
#X obj 148 575 retard 2;
#X obj 149 606 *~ -1;
#X msg 626 714 0 4000;
#X msg 683 713 1 8000;
#X obj 559 307 wavplayertab_loop 30-Triage_tapis 2.5 2 84;
#X obj 440 34 isMode Plans;
#X obj 312 82 spigot;
#X obj 440 59 sel 0;
#X msg 440 84 0;
#X obj 724 42 delOnOff 1500 0;
#X obj 724 67 sel 1;
#X msg 724 92 1 \, 0;
#X obj 69 408 hum1;
#X obj 69 433 *~;
#X obj 115 468 retard 2;
#X obj 116 407 tgl 20 0 empty empty empty 0 -10 0 12 #fcfcfc #000000 #000000 0 1;
#X obj 116 381 r MARCHE;
#X obj 922 50 bng 20 250 50 0 empty empty empty 0 -10 0 12 #fcfcfc #000000 #000000;
#X obj 1071 380 lout \$0 \$1 2;
#X obj 1175 381 lout \$0 \$1 3;
#X obj 1072 349 retard 15;
#X obj 1175 353 *~ -1;
#X obj 923 21 r MARCHE;
#X obj 1320 17 r MODE;
#X obj 1302 78 bng 20 250 50 0 empty empty empty 0 -10 0 12 #fcfcfc #000000 #000000;
#X obj 1301 103 wavplayertab agraf-07;
#X obj 922 76 wavplayertab agraf-05 0.75;
#X obj 1354 157 bng 20 250 50 0 empty empty empty 0 -10 0 12 #fcfcfc #000000 #000000;
#X obj 1354 186 wavplayertab agraf-09;
#X listbox 1477 51 20 0 0 0 - - - 0;
#X obj 1302 50 sel Diag Plans Playlist;
#X obj 1202 176 bng 20 250 50 0 empty empty empty 0 -10 0 12 #fcfcfc #000000 #000000;
#N canvas 745 321 568 512 melody 0;
#X obj 45 1 inlet;
#X obj 43 486 outlet~;
#X msg 45 95 60 64 67 72;
#X obj 45 151 list split 1;
#X obj 94 199 list;
#X obj 45 204 t f b;
#X obj 77 232 del 100;
#X obj 45 274 t b f, f 13;
#X obj 133 300 mtof;
#X obj 133 325 osc~;
#X obj 133 375 atan~;
#X obj 44 326 line~;
#X obj 44 457 *~, f 13;
#X msg 139 96 60 67 64;
#X msg 234 96 72 67 64 60;
#X msg 328 97 64 67 72;
#X msg 423 98 60 64 67;
#X obj 45 26 random 5;
#X obj 45 51 sel 0 1 2 3 4, f 68;
#X obj 133 400 hip~ 2000;
#X obj 133 350 *~ 200;
#X obj 132 429 lop~ 6000;
#X msg 44 301 0.1 \, 0 150;
#X connect 0 0 17 0;
#X connect 2 0 3 0;
#X connect 3 0 5 0;
#X connect 3 1 4 1;
#X connect 4 0 3 0;
#X connect 5 0 7 0;
#X connect 5 1 6 0;
#X connect 6 0 4 0;
#X connect 7 0 22 0;
#X connect 7 1 8 0;
#X connect 8 0 9 0;
#X connect 9 0 20 0;
#X connect 10 0 19 0;
#X connect 11 0 12 0;
#X connect 12 0 1 0;
#X connect 13 0 3 0;
#X connect 14 0 3 0;
#X connect 15 0 3 0;
#X connect 16 0 3 0;
#X connect 17 0 18 0;
#X connect 18 0 2 0;
#X connect 18 1 13 0;
#X connect 18 2 14 0;
#X connect 18 3 15 0;
#X connect 18 4 16 0;
#X connect 19 0 21 0;
#X connect 20 0 10 0;
#X connect 21 0 12 1;
#X connect 22 0 11 0;
#X restore 1519 186 pd melody;
#N canvas 2049 714 422 567 warning 0;
#X obj 114 430 outlet~;
#X obj 103 48 r toGem;
#X obj 103 73 route warning;
#X obj 103 98 route stop;
#X obj 172 285 t b b;
#X msg 205 336 0;
#X obj 136 366 *~;
#X obj 172 256 bng 20 250 50 0 empty empty empty 0 -10 0 12 #fcfcfc #000000 #000000;
#X obj 79 281 *~ 1000;
#X obj 79 306 clip~ -1 1;
#X obj 79 256 osc~ 120;
#X obj 205 311 del 150;
#X msg 172 310 0.2;
#X obj 78 332 hip~ 1000;
#X obj 170 149 list length;
#X floatatom 104 169 5 0 0 0 - - - 0;
#X obj 170 124 fudiformat -u;
#X floatatom 216 242 5 0 0 0 - - - 0;
#X obj 170 174 / 1;
#X obj 170 202 + 30;
#X connect 1 0 2 0;
#X connect 2 0 3 0;
#X connect 3 1 16 0;
#X connect 4 0 12 0;
#X connect 4 1 11 0;
#X connect 5 0 6 1;
#X connect 6 0 0 0;
#X connect 7 0 4 0;
#X connect 8 0 9 0;
#X connect 9 0 13 0;
#X connect 10 0 8 0;
#X connect 11 0 5 0;
#X connect 12 0 6 1;
#X connect 13 0 6 0;
#X connect 14 0 15 0;
#X connect 14 0 18 0;
#X connect 16 0 14 0;
#X connect 18 0 19 0;
#X connect 19 0 10 0;
#X connect 19 0 7 0;
#X connect 19 0 17 0;
#X restore 1110 207 pd warning;
#X obj 116 432 * 0.5;
#X obj 1128 20 r toGem;
#X obj 1048 144 wavplayertab agraf-05 1.2;
#X obj 1128 87 bng 20 250 50 0 empty empty empty 0 -10 0 12 #fcfcfc #000000 #000000;
#X obj 1128 45 route prevtune nexttune;
#X msg 1185 88 1.2;
#X msg 1224 86 1.5;
#X obj 1088 116 del 0;
#X obj 1067 170 retard 5;
#X obj 1203 204 wavplayertab bing-01 2;
#X obj 1136 117 del 200;
#X obj 1347 657 bng 20 250 50 0 empty empty empty 0 -10 0 12 #fcfcfc #000000 #000000;
#X obj 1309 544 hradio 20 1 0 8 empty empty empty 0 -10 0 12 #fcfcfc #000000 #000000 0;
#X obj 1347 630 t b s;
#X msg 1309 592 symbol ../data/borne/wavs/bing-0\$1.wav;
#X msg 1427 674 1;
#X msg 1468 672 2;
#X obj 1322 703 wavplayertab bing-01 2;
#N canvas 166 71 804 650 Plans 0;
#X obj 179 513 outlet~;
#X obj 276 514 outlet~;
#X obj 26 42 r toGem;
#X obj 26 98 route plan;
#X obj 26 128 route changeshader stopchangeshader offsetcoord;
#X obj 26 153 route bang;
#X msg 88 182 1;
#X obj 118 183 del;
#X msg 118 208 0;
#X obj 64 253 tgl 20 0 empty empty empty 0 -10 0 12 #fcfcfc #000000 #000000 0 1;
#X obj 243 173 route x y z;
#X obj 26 70 list trim;
#X obj 188 318 wavplayertab agraf-09 2;
#X obj 250 211 f;
#X obj 250 236 moses 0;
#X obj 219 348 wavplayertab agraf-09 3;
#X obj 475 312 wavplayertab agraf-03 1;
#X obj 528 38 isMode Plans;
#X obj 475 13 r IfTreuil-snd;
#X obj 475 38 spigot;
#X msg 613 275 0.5;
#X obj 475 337 *~ 0.2;
#X obj 408 339 retard 3;
#X obj 475 64 route Dentree Dsortie;
#X obj 475 90 +;
#X obj 505 89 t b f;
#X obj 475 122 t b f;
#X obj 475 191 change;
#X obj 475 169 f;
#X obj 547 90 * 2;
#X obj 475 147 del 50;
#X obj 475 216 t b f;
#X obj 511 271 + 0.5;
#X obj 511 246 / 5;
#X obj 64 279 metro 30;
#X obj 64 329 line~;
#X obj 64 354 *~;
#X obj 162 233 *~ 100;
#X obj 162 258 clip~ 0 1;
#X obj 162 208 osc~ 2500;
#X obj 134 319 hip~ 500;
#X obj 162 283 *~ 0.2;
#X obj 153 408 retard 8;
#X obj 153 383 *~ -1;
#X obj 181 176 noise~;
#X msg 64 304 1 \, 0 8;
#X obj 38 598 s IfTreuil-rcv;
#X msg 39 571 Mled \$1;
#X obj 39 543 delOnOff 0 15;
#X connect 2 0 11 0;
#X connect 3 0 4 0;
#X connect 4 0 5 0;
#X connect 4 1 8 0;
#X connect 4 2 10 0;
#X connect 5 1 6 0;
#X connect 5 1 7 0;
#X connect 6 0 9 0;
#X connect 7 0 8 0;
#X connect 8 0 9 0;
#X connect 9 0 34 0;
#X connect 10 0 13 0;
#X connect 10 1 13 0;
#X connect 10 2 13 0;
#X connect 11 0 3 0;
#X connect 12 0 0 0;
#X connect 13 0 14 0;
#X connect 14 0 12 0;
#X connect 14 1 15 0;
#X connect 15 0 1 0;
#X connect 16 0 21 0;
#X connect 17 0 19 1;
#X connect 18 0 19 0;
#X connect 19 0 23 0;
#X connect 20 0 16 2;
#X connect 21 0 22 0;
#X connect 21 0 1 0;
#X connect 22 0 0 0;
#X connect 23 0 24 0;
#X connect 23 1 29 0;
#X connect 24 0 26 0;
#X connect 25 0 24 0;
#X connect 25 1 24 1;
#X connect 26 0 30 0;
#X connect 26 1 28 1;
#X connect 27 0 31 0;
#X connect 28 0 27 0;
#X connect 29 0 25 0;
#X connect 30 0 28 0;
#X connect 31 0 16 0;
#X connect 31 1 33 0;
#X connect 32 0 16 2;
#X connect 33 0 32 0;
#X connect 34 0 45 0;
#X connect 34 0 48 0;
#X connect 35 0 36 0;
#X connect 36 0 0 0;
#X connect 36 0 43 0;
#X connect 37 0 38 0;
#X connect 38 0 41 0;
#X connect 39 0 37 0;
#X connect 40 0 36 1;
#X connect 41 0 40 0;
#X connect 42 0 1 0;
#X connect 43 0 42 0;
#X connect 44 0 37 0;
#X connect 45 0 35 0;
#X connect 47 0 46 0;
#X connect 48 0 47 0;
#X restore 1258 348 pd Plans;
#X obj 1387 412 hradio 20 1 0 12 empty empty empty 0 -10 0 12 #fcfcfc #000000 #000000 0;
#X obj 1387 459 makefilename %02d;
#X msg 1387 499 symbol ../data/borne/wavs/agraf-\$1.wav;
#X obj 1387 436 + 1;
#X obj 1309 568 + 1;
#X listbox 1519 468 7 0 0 0 - - - 0;
#X connect 1 0 43 0;
#X connect 1 0 52 0;
#X connect 2 0 1 0;
#X connect 3 0 16 0;
#X connect 4 0 49 0;
#X connect 5 0 6 0;
#X connect 7 0 57 0;
#X connect 8 0 9 0;
#X connect 9 0 10 0;
#X connect 9 0 18 0;
#X connect 9 0 42 0;
#X connect 9 0 51 0;
#X connect 10 0 42 0;
#X connect 10 1 43 0;
#X connect 11 0 9 2;
#X connect 12 0 57 2;
#X connect 13 0 59 0;
#X connect 14 0 3 0;
#X connect 14 0 19 0;
#X connect 15 0 16 2;
#X connect 16 0 43 0;
#X connect 16 0 53 0;
#X connect 17 0 2 0;
#X connect 17 0 28 0;
#X connect 17 0 62 0;
#X connect 18 0 40 0;
#X connect 19 0 8 0;
#X connect 20 0 7 0;
#X connect 21 0 7 0;
#X connect 22 0 23 0;
#X connect 23 0 7 0;
#X connect 24 0 25 0;
#X connect 25 0 21 0;
#X connect 25 0 22 0;
#X connect 25 0 27 0;
#X connect 27 0 26 0;
#X connect 27 0 34 0;
#X connect 28 0 25 0;
#X connect 28 0 31 0;
#X connect 29 0 26 0;
#X connect 30 0 14 0;
#X connect 30 1 17 0;
#X connect 30 2 32 0;
#X connect 32 0 31 0;
#X connect 32 1 31 1;
#X connect 33 0 35 0;
#X connect 34 0 41 0;
#X connect 35 0 36 0;
#X connect 37 0 39 0;
#X connect 39 0 38 0;
#X connect 40 0 37 0;
#X connect 41 0 33 0;
#X connect 45 0 48 0;
#X connect 46 0 44 0;
#X connect 47 0 48 0;
#X connect 47 1 48 1;
#X connect 48 0 46 0;
#X connect 49 0 55 0;
#X connect 49 1 56 0;
#X connect 50 0 47 0;
#X connect 51 0 43 0;
#X connect 52 0 42 0;
#X connect 53 0 54 0;
#X connect 54 0 42 0;
#X connect 55 0 50 0;
#X connect 56 0 50 0;
#X connect 57 0 10 1;
#X connect 57 0 42 0;
#X connect 58 0 59 1;
#X connect 58 0 60 0;
#X connect 59 0 30 0;
#X connect 60 0 61 0;
#X connect 61 0 14 0;
#X connect 61 0 17 0;
#X connect 62 0 63 0;
#X connect 63 0 64 0;
#X connect 64 0 29 0;
#X connect 65 0 66 0;
#X connect 66 0 42 0;
#X connect 66 0 67 0;
#X connect 67 0 43 0;
#X connect 68 0 87 0;
#X connect 69 0 68 0;
#X connect 70 0 79 0;
#X connect 73 0 71 0;
#X connect 74 0 72 0;
#X connect 75 0 70 0;
#X connect 76 0 82 0;
#X connect 76 0 83 0;
#X connect 77 0 78 0;
#X connect 78 0 72 0;
#X connect 79 0 71 0;
#X connect 80 0 81 0;
#X connect 81 0 72 0;
#X connect 83 0 77 0;
#X connect 83 1 80 0;
#X connect 83 2 85 0;
#X connect 84 0 96 0;
#X connect 85 0 72 0;
#X connect 85 0 73 0;
#X connect 86 0 73 0;
#X connect 86 0 74 0;
#X connect 87 0 66 1;
#X connect 88 0 91 0;
#X connect 89 0 71 0;
#X connect 89 0 95 0;
#X connect 90 0 94 0;
#X connect 90 0 97 0;
#X connect 91 0 90 0;
#X connect 91 0 92 0;
#X connect 91 1 90 0;
#X connect 91 1 93 0;
#X connect 92 0 89 2;
#X connect 93 0 89 2;
#X connect 94 0 89 0;
#X connect 95 0 74 0;
#X connect 96 0 72 0;
#X connect 97 0 84 0;
#X connect 98 0 104 0;
#X connect 99 0 110 0;
#X connect 100 0 98 0;
#X connect 100 1 104 1;
#X connect 101 0 100 0;
#X connect 102 0 104 2;
#X connect 103 0 104 2;
#X connect 104 0 71 0;
#X connect 105 0 71 0;
#X connect 105 1 72 0;
#X connect 106 0 109 0;
#X connect 107 0 108 0;
#X connect 107 0 111 0;
#X connect 108 0 100 0;
#X connect 109 0 107 0;
#X connect 110 0 101 0;
