#N canvas 530 138 1257 823 12;
#X obj 824 356 wavplayer;
#X obj 903 359 wavplayertab;
#X obj 482 352 wavplayertab_loop 22-Compresseurs 1 5 34;
#X obj 484 325 tgl 20 0 empty empty empty 0 -10 0 12 #fcfcfc #000000 #000000 0 1;
#X obj 203 240 tgl 20 0 empty empty empty 0 -10 0 12 #fcfcfc #000000 #000000 0 1;
#X obj 919 626 r showFilm;
#X obj 80 14 r IfTreuil-snd;
#X obj 80 39 route MA MR;
#X obj 561 280 tgl 20 0 empty empty empty 0 -10 0 12 #fcfcfc #000000 #000000 0 1;
#X obj 393 405 tgl 20 0 empty empty empty 0 -10 0 12 #fcfcfc #000000 #000000 0 1;
#X obj 393 436 wavplayertab_loop 2-Cuvelage_bruit_métallique 1 1 99;
#X obj 273 514 rev3~ 99 85;
#X floatatom 580 415 5 0 0 0 - - - 0;
#X floatatom 765 269 5 0 0 0 - - - 0;
#X obj 312 35 r IfTreuil-snd;
#X obj 312 159 tgl 20 0 empty empty empty 0 -10 0 12 #fcfcfc #000000 #000000 0 1;
#X floatatom 347 240 5 0 0 0 - - - 0;
#X obj 203 266 wavplayertab_loop 17-Sondeuse 0.5 10 39;
#X obj 360 160 tgl 20 0 empty empty empty 0 -10 0 12 #fcfcfc #000000 #000000 0 1;
#N canvas 735 420 348 401 env_to_changecoord 0;
#X obj 63 41 env~;
#X obj 63 91 change;
#X obj 63 242 sel 1;
#X obj 63 271 bng 20 250 50 0 empty empty empty 0 -10 0 12 #fcfcfc #000000 #000000;
#X obj 63 66 > 80;
#X msg 63 296 plan changecoord;
#X obj 63 321 s toGem;
#X obj 63 116 sel 1 0, f 13;
#X msg 63 141 1;
#X msg 97 140 stop;
#X msg 104 192 0;
#X obj 63 214 change;
#X obj 63 13 inlet~;
#X obj 194 299 outlet;
#X obj 104 167 del 80;
#X connect 0 0 4 0;
#X connect 1 0 7 0;
#X connect 2 0 3 0;
#X connect 3 0 5 0;
#X connect 3 0 13 0;
#X connect 4 0 1 0;
#X connect 5 0 6 0;
#X connect 7 0 8 0;
#X connect 7 0 9 0;
#X connect 7 1 14 0;
#X connect 8 0 11 0;
#X connect 9 0 14 0;
#X connect 10 0 11 0;
#X connect 11 0 2 0;
#X connect 12 0 0 0;
#X connect 14 0 10 0;
#X restore 420 476 pd env_to_changecoord;
#X obj 312 194 delOnOff 2000 1000;
#X msg 518 244 1 \, 0;
#X msg 567 176 1;
#X obj 599 178 del 200;
#X msg 599 203 0;
#X obj 508 106 tgl 20 0 empty empty empty 0 -10 0 12 #fcfcfc #000000 #000000 0 1;
#X obj 567 151 metro 750;
#X obj 650 238 s toGem;
#X msg 650 212 nextPlan;
#X obj 567 126 delOnOff 3000 0;
#X msg 467 215 stabilo \$1;
#X obj 312 128 route iav iar stabilo;
#X obj 467 186 ||;
#X obj 495 186 t b f;
#X obj 876 201 tgl 20 0 empty empty empty 0 -10 0 12 #fcfcfc #000000 #000000 0 1;
#X obj 877 145 bng 20 250 50 0 empty empty empty 0 -10 0 12 #fcfcfc #000000 #000000;
#X msg 876 226 Gled \$1;
#X obj 876 251 s IfTreuil-rcv;
#X obj 420 532 tgl 20 0 empty empty empty 0 -10 0 12 #fcfcfc #000000 #000000 0 1;
#X obj 420 582 s IfTreuil-rcv;
#X msg 420 557 Dled \$1;
#X obj 421 504 delOnOff 0 150;
#X obj 877 174 delOnOff 120 150;
#X obj 239 685 lout \$0 \$1 2;
#X obj 343 686 lout \$0 \$1 3;
#X obj 691 670 s \$0-Master;
#X obj 694 576 hsl 170 20 0 1 0 1 empty empty empty -2 -10 0 12 #ff0400 #000000 #000000 15700 1;
#X obj 691 643 pow 2;
#X obj 724 612 t b f;
#X obj 691 613 * 1;
#X obj 919 650 sel 1 0;
#X obj 919 700 line;
#X obj 359 650 retard 15;
#X obj 890 504 r presenceFilm;
#X obj 890 529 * -1;
#X obj 890 554 + 1;
#X obj 446 391 retard 5;
#X obj 148 575 retard 2;
#X obj 149 606 *~ -1;
#X msg 919 675 0 4000;
#X msg 976 674 1 8000;
#X obj 559 307 wavplayertab_loop 30-Triage_tapis 2.5 2 84;
#X obj 440 34 isMode Plans;
#X obj 312 82 spigot;
#X obj 440 59 sel 0;
#X msg 440 84 0;
#X connect 2 0 44 0;
#X connect 2 0 56 0;
#X connect 3 0 2 0;
#X connect 4 0 17 0;
#X connect 5 0 50 0;
#X connect 6 0 7 0;
#X connect 8 0 61 0;
#X connect 9 0 10 0;
#X connect 10 0 11 0;
#X connect 10 0 19 0;
#X connect 10 0 43 0;
#X connect 10 0 52 0;
#X connect 11 0 43 0;
#X connect 11 1 44 0;
#X connect 12 0 10 2;
#X connect 13 0 61 2;
#X connect 14 0 63 0;
#X connect 15 0 4 0;
#X connect 15 0 20 0;
#X connect 16 0 17 2;
#X connect 17 0 44 0;
#X connect 17 0 57 0;
#X connect 18 0 3 0;
#X connect 18 0 29 0;
#X connect 19 0 41 0;
#X connect 20 0 9 0;
#X connect 21 0 8 0;
#X connect 22 0 8 0;
#X connect 23 0 24 0;
#X connect 24 0 8 0;
#X connect 25 0 26 0;
#X connect 26 0 22 0;
#X connect 26 0 23 0;
#X connect 26 0 28 0;
#X connect 28 0 27 0;
#X connect 28 0 35 0;
#X connect 29 0 26 0;
#X connect 29 0 32 0;
#X connect 30 0 27 0;
#X connect 31 0 15 0;
#X connect 31 1 18 0;
#X connect 31 2 33 0;
#X connect 32 0 30 0;
#X connect 33 0 32 0;
#X connect 33 1 32 1;
#X connect 34 0 36 0;
#X connect 35 0 42 0;
#X connect 36 0 37 0;
#X connect 38 0 40 0;
#X connect 40 0 39 0;
#X connect 41 0 38 0;
#X connect 42 0 34 0;
#X connect 46 0 49 0;
#X connect 47 0 45 0;
#X connect 48 0 49 0;
#X connect 48 1 49 1;
#X connect 49 0 47 0;
#X connect 50 0 59 0;
#X connect 50 1 60 0;
#X connect 51 0 48 0;
#X connect 52 0 44 0;
#X connect 53 0 54 0;
#X connect 54 0 55 0;
#X connect 56 0 43 0;
#X connect 57 0 58 0;
#X connect 58 0 43 0;
#X connect 59 0 51 0;
#X connect 60 0 51 0;
#X connect 61 0 11 1;
#X connect 61 0 43 0;
#X connect 62 0 63 1;
#X connect 62 0 64 0;
#X connect 63 0 31 0;
#X connect 64 0 65 0;
#X connect 65 0 15 0;
#X connect 65 0 18 0;
