#N canvas 363 125 842 554 12;
#X declare -path moonlib;
#X obj 141 190 file glob;
#X obj 141 339 list store, f 13;
#X obj 28 34 bng 18 250 50 0 empty empty empty 0 -9 0 10 #fcfcfc #000000 #000000;
#X obj 141 369 t a;
#X obj 141 222 list split 1;
#X obj 141 429 list length;
#X obj 141 399 t a a, f 13;
#X floatatom 133 457 5 0 0 0 - - - 0;
#X obj 72 55 t a b b;
#X obj 141 273 list split 1;
#X obj 233 40 declare -path moonlib;
#X obj 141 246 basedir;
#X obj 72 32 inlet;
#X obj 98 491 list;
#X obj 98 516 outlet;
#X msg 141 306 append \$1;
#X obj 118 84 t b b b;
#X obj 247 513 outlet len;
#X obj 141 137 pdcontrol;
#X msg 141 112 dir;
#X msg 141 163 symbol \$1/../data/tunes/*/;
#X connect 0 0 4 0;
#X connect 1 0 3 0;
#X connect 2 0 8 0;
#X connect 3 0 6 0;
#X connect 4 0 11 0;
#X connect 5 0 7 0;
#X connect 5 0 17 0;
#X connect 6 0 5 0;
#X connect 6 1 13 1;
#X connect 8 1 13 0;
#X connect 8 2 16 0;
#X connect 9 0 15 0;
#X connect 11 0 9 0;
#X connect 12 0 8 0;
#X connect 13 0 14 0;
#X connect 15 0 1 0;
#X connect 16 0 1 0;
#X connect 16 1 19 0;
#X connect 16 2 1 1;
#X connect 18 0 20 0;
#X connect 19 0 18 0;
#X connect 20 0 0 0;
