#N canvas 820 19 927 918 10;
#X obj 15 781 outlet~;
#X obj 13 1 inlet;
#X obj 289 24 loadbang;
#X obj 253 20 bng 15 250 50 0 empty empty empty 17 7 0 10 #fcfcfc #000000 #000000;
#X obj 503 104 init \$2;
#X obj 503 129 sel 0;
#X obj 530 190 f;
#X obj 579 55 inlet speed;
#X obj 356 27 inlet file;
#X msg 503 149 1;
#X obj 527 263 table \$0-tab 1;
#X obj 289 247 soundfiler;
#X obj 289 206 pack s s;
#X obj 334 181 symbol \$0-tab;
#X obj 289 159 t s b;
#X msg 289 227 read -resize \$1 \$2;
#X obj 289 297 s \$0-size;
#X floatatom 300 273 0 0 0 0 - - - 0;
#X obj 530 214 s \$0-speed;
#X obj 16 646 line~;
#X obj 15 668 tabread4~ \$0-tab;
#X obj 15 759 hip~ 5;
#X obj 262 70 t b b;
#X obj 723 708 outlet end;
#X obj 289 101 symbol ../data/borne/wavs/\$1.wav;
#X obj 670 54 inlet loopstart;
#X obj 787 54 inlet loopend;
#X obj 289 129 file which -v;
#X obj 135 645 line~;
#X obj 134 667 tabread4~ \$0-tab;
#X obj 15 714 *~;
#X obj 133 711 *~;
#X obj 670 77 f \$3;
#X obj 787 77 f \$4;
#X obj 742 16 loadbang;
#X obj 787 100 sel 0;
#X msg 787 123 180;
#X obj 787 161 s \$0-loopend;
#X obj 670 100 s \$0-loopstart;
#X obj 13 52 sel 1 0, f 15;
#X obj 16 482 t a b;
#X obj 43 506 i;
#X obj 76 506 == 0;
#X obj 16 539 list prepend 0;
#X obj 16 562 route 0 1;
#X msg 16 622 \$1 \, \$2 \$3;
#X msg 135 621 \$1 \, \$2 \$3;
#X obj 110 404 r \$0-speed;
#X obj 74 430 / 1;
#X obj 110 427 t b f;
#X obj 16 275 unpack f f;
#X text 85 276 from to (secs);
#X obj 43 349 * -1;
#X obj 43 372 +;
#X obj 16 301 * 1000;
#X obj 73 300 * 1000;
#X obj 16 456 pack f f f;
#X obj 16 325 * 44.1;
#X obj 78 331 * 44.1;
#X obj 141 559 line~;
#X obj 84 616 *~ -1;
#X obj 84 639 +~ 1;
#X obj 247 324 / 44100;
#X obj 247 347 s \$0-size-sec;
#X floatatom 301 323 10 0 0 0 - - - 0;
#X msg 570 151 0.7;
#X obj 90 194 r \$0-loopend;
#X obj 710 17 bng 18 250 50 0 empty empty empty 0 -9 0 10 #fcfcfc #000000 #000000;
#X obj 75 219 f;
#X msg 75 243 \$1 1000;
#X obj 466 672 r \$0-loopend;
#X obj 434 642 r \$0-loopstart;
#X obj 317 653 random 1e+06;
#X obj 317 676 / 1e+06;
#X obj 317 699 *;
#X obj 317 722 +;
#X obj 380 707 -;
#X obj 410 707 t b f;
#X msg 317 745 \$1 1000;
#X obj 317 624 bng 18 250 50 0 empty empty empty 0 -9 0 10 #fcfcfc #000000 #000000;
#X msg 141 536 \$1 500;
#X msg 217 531 0.5;
#X obj 161 707 sqrt~;
#X obj 50 705 sqrt~;
#X msg 361 519 0;
#X obj 12 76 s \$0-start;
#X obj 79 76 s \$0-stop;
#X obj 372 463 r \$0-stop;
#X obj 317 552 metro 50;
#X obj 317 602 sel 0;
#X obj 16 133 r \$0-start;
#X obj 317 428 f;
#X obj 332 403 r \$0-loopstart;
#X obj 317 451 * 1000;
#X obj 317 474 - 500;
#X obj 317 378 r \$0-start;
#X obj 317 497 del;
#X msg 317 520 1;
#X msg 347 495 stop;
#X msg 16 242 0 1000;
#X obj 78 19 tgl 18 0 empty empty empty 0 -9 0 10 #fcfcfc #000000 #000000 0 1;
#X obj 317 579 random 30;
#X obj 75 170 r \$0-stop;
#X obj 13 27 change;
#X obj 380 752 * -1;
#X obj 380 776 +;
#X obj 380 803 * 1000;
#X obj 380 826 del;
#X connect 1 0 103 0;
#X connect 2 0 22 0;
#X connect 3 0 22 0;
#X connect 4 0 5 0;
#X connect 5 0 9 0;
#X connect 5 1 6 0;
#X connect 6 0 18 0;
#X connect 7 0 6 0;
#X connect 8 0 24 0;
#X connect 9 0 6 0;
#X connect 11 0 16 0;
#X connect 11 0 17 0;
#X connect 11 0 62 0;
#X connect 12 0 15 0;
#X connect 13 0 12 1;
#X connect 14 0 12 0;
#X connect 14 1 13 0;
#X connect 15 0 11 0;
#X connect 19 0 20 0;
#X connect 20 0 30 0;
#X connect 21 0 0 0;
#X connect 22 1 4 0;
#X connect 22 1 24 0;
#X connect 24 0 27 0;
#X connect 25 0 32 0;
#X connect 26 0 33 0;
#X connect 27 0 14 0;
#X connect 28 0 29 0;
#X connect 29 0 31 0;
#X connect 30 0 21 0;
#X connect 31 0 21 0;
#X connect 32 0 38 0;
#X connect 33 0 35 0;
#X connect 34 0 32 0;
#X connect 34 0 33 0;
#X connect 35 0 36 0;
#X connect 35 1 37 0;
#X connect 36 0 37 0;
#X connect 39 0 85 0;
#X connect 39 1 86 0;
#X connect 40 0 43 0;
#X connect 40 1 41 0;
#X connect 41 0 42 0;
#X connect 41 0 43 1;
#X connect 41 0 80 0;
#X connect 42 0 41 1;
#X connect 43 0 44 0;
#X connect 44 0 45 0;
#X connect 44 1 46 0;
#X connect 45 0 19 0;
#X connect 46 0 28 0;
#X connect 47 0 49 0;
#X connect 48 0 56 2;
#X connect 49 0 48 0;
#X connect 49 1 48 1;
#X connect 50 0 54 0;
#X connect 50 1 55 0;
#X connect 52 0 53 0;
#X connect 53 0 48 0;
#X connect 54 0 52 0;
#X connect 54 0 57 0;
#X connect 55 0 53 1;
#X connect 55 0 58 0;
#X connect 56 0 40 0;
#X connect 57 0 56 0;
#X connect 58 0 56 1;
#X connect 59 0 60 0;
#X connect 59 0 82 0;
#X connect 60 0 61 0;
#X connect 61 0 83 0;
#X connect 62 0 63 0;
#X connect 62 0 64 0;
#X connect 65 0 6 0;
#X connect 66 0 68 1;
#X connect 67 0 32 0;
#X connect 67 0 33 0;
#X connect 68 0 69 0;
#X connect 69 0 50 0;
#X connect 70 0 76 0;
#X connect 70 0 105 1;
#X connect 71 0 75 1;
#X connect 71 0 77 0;
#X connect 72 0 73 0;
#X connect 73 0 74 0;
#X connect 74 0 75 0;
#X connect 75 0 78 0;
#X connect 75 0 104 0;
#X connect 76 0 74 1;
#X connect 77 0 76 0;
#X connect 77 1 76 1;
#X connect 78 0 50 0;
#X connect 79 0 72 0;
#X connect 80 0 59 0;
#X connect 81 0 59 0;
#X connect 82 0 31 1;
#X connect 83 0 30 1;
#X connect 84 0 88 0;
#X connect 87 0 84 0;
#X connect 87 0 98 0;
#X connect 88 0 101 0;
#X connect 89 0 79 0;
#X connect 90 0 99 0;
#X connect 91 0 93 0;
#X connect 92 0 91 1;
#X connect 93 0 94 0;
#X connect 94 0 96 0;
#X connect 95 0 91 0;
#X connect 96 0 97 0;
#X connect 97 0 88 0;
#X connect 98 0 96 0;
#X connect 98 0 107 0;
#X connect 99 0 50 0;
#X connect 100 0 39 0;
#X connect 101 0 89 0;
#X connect 102 0 68 0;
#X connect 103 0 39 0;
#X connect 104 0 105 0;
#X connect 105 0 106 0;
#X connect 106 0 107 0;
#X connect 107 0 79 0;
