#N canvas 1235 552 601 291 10;
#X obj 70 238 outlet~;
#X obj 50 0 inlet;
#X obj 287 27 loadbang;
#X obj 286 8 bng 15 250 50 0 empty empty empty 17 7 0 10 #fcfcfc #000000 #000000;
#X obj 490 128 init \$2;
#X obj 490 153 sel 0;
#X obj 517 179 f;
#X obj 536 89 inlet speed;
#X obj 371 28 inlet file;
#X msg 491 176 1;
#X obj 381 207 table \$0-tab 1;
#X obj 316 190 soundfiler;
#X obj 316 149 pack s s;
#X obj 361 130 symbol \$0-tab;
#X obj 316 108 t s b;
#X msg 316 170 read -resize \$1 \$2;
#X obj 316 240 s \$0-size;
#X floatatom 327 216 0 0 0 0 - - - 0;
#X obj 517 203 s \$0-speed;
#X obj 169 62 r \$0-speed;
#X obj 86 36 r \$0-size;
#X obj 71 109 pack f f;
#X obj 71 171 line~;
#X obj 70 193 tabread4~ \$0-tab;
#X obj 70 216 hip~ 5;
#X msg 71 147 0 \, \$1 \$2;
#X obj 123 65 / 44.1;
#X obj 123 86 / 1;
#X obj 148 85 t b f;
#X obj 50 28 b;
#X obj 226 180 + 1;
#X obj 169 121 unpack f f;
#X obj 226 201 del;
#X obj 274 154 sel 0;
#X obj 71 77 f 10000;
#X obj 199 160 sel 0;
#X obj 207 27 t b b;
#X obj 226 261 outlet end;
#X obj 255 205 init \$3;
#X obj 238 227 spigot;
#X obj 316 85 symbol ../data/borne/wavs/\$1.wav;
#X connect 1 0 29 0;
#X connect 2 0 36 0;
#X connect 3 0 36 0;
#X connect 4 0 5 0;
#X connect 5 0 9 0;
#X connect 5 1 6 0;
#X connect 6 0 18 0;
#X connect 7 0 6 0;
#X connect 8 0 40 0;
#X connect 9 0 6 0;
#X connect 11 0 16 0;
#X connect 11 0 17 0;
#X connect 12 0 15 0;
#X connect 13 0 12 1;
#X connect 14 0 12 0;
#X connect 14 1 13 0;
#X connect 15 0 11 0;
#X connect 19 0 28 0;
#X connect 20 0 26 0;
#X connect 20 0 34 1;
#X connect 21 0 25 0;
#X connect 21 0 31 0;
#X connect 22 0 23 0;
#X connect 23 0 24 0;
#X connect 24 0 0 0;
#X connect 25 0 22 0;
#X connect 26 0 27 0;
#X connect 27 0 21 1;
#X connect 28 0 27 0;
#X connect 28 1 27 1;
#X connect 29 0 34 0;
#X connect 30 0 32 0;
#X connect 31 1 35 0;
#X connect 32 0 37 0;
#X connect 32 0 39 0;
#X connect 34 0 21 0;
#X connect 35 1 30 0;
#X connect 36 0 39 0;
#X connect 36 1 4 0;
#X connect 36 1 40 0;
#X connect 38 0 39 1;
#X connect 39 0 29 0;
#X connect 40 0 14 0;
