#N canvas 709 45 1028 778 12;
#X obj 49 38 separator;
#X obj 456 198 colorRGB 0 0.75 0 1;
#X msg 533 275 draw line \, width 2;
#X obj 234 296 text2d;
#X msg 253 266 alias 0;
#X obj 234 232 translateXYZ;
#X msg 361 326 text \$1;
#X obj 418 249 bng 20 250 50 0 empty empty empty 0 -10 0 12 #fcfcfc #000000 #000000;
#X obj 288 208 nbx 5 18 -1e+37 1e+37 0 1 empty empty empty 0 -10 0 12 #fcfcfc #000000 #000000 1.76 256;
#X obj 234 181 separator;
#X obj 81 317 separator;
#X obj 81 456 translateXYZ;
#X obj 456 168 separator;
#X obj 265 440 hsl 170 20 0 1 0 0 empty empty empty -2 -10 0 12 #fcfcfc #000000 #000000 0 1;
#X floatatom 204 37 5 0 0 0 - - - 0;
#X obj 533 250 b;
#X obj 570 249 loadbang;
#X obj 637 249 bng 20 250 50 0 empty empty empty 0 -10 0 12 #fcfcfc #000000 #000000;
#X floatatom 316 284 5 0 0 0 - - - 0;
#X floatatom 158 36 5 0 0 0 - - - 0;
#X obj 49 64 translateXYZ \$2 \$3 0;
#X msg 316 259 18;
#X obj 49 13 r Diagramme-head;
#X obj 81 402 colorRGB 0.75 0.75 0 1;
#X obj 540 149 unpack f f f;
#X obj 120 377 unpack f f f;
#X obj 268 12 r Diagramme-bghead;
#X obj 268 38 separator;
#X obj 234 69 translateXYZ \$2 \$3 0;
#X obj 234 146 t a a, f 32;
#X obj 361 300 + 1;
#X obj 481 16 inlet;
#X obj 234 114 translateXYZ 0 0 0;
#X obj 49 113 translateXYZ 0 0 0;
#X obj 415 16 loadbang;
#X obj 415 41 f \$4;
#X obj 415 66 * \$1;
#X obj 361 273 f \$1;
#X obj 529 340 rectangle 0.001 1.6;
#X obj 81 489 circle 0.15;
#X obj 136 432 - 1.4;
#X obj 215 441 * 2.8;
#X obj 457 225 t a a a;
#X obj 480 373 translateXYZ 0 1.6 0;
#X obj 458 397 translateXYZ 0 -3.2 0;
#X obj 481 431 rectangle 0.1 0.001;
#X obj 831 134 r Diagramme-couleur;
#X obj 831 159 route 1 2, f 16;
#X obj 806 196 list;
#X obj 860 196 list;
#X obj 860 221 s \$0-col2;
#X obj 779 226 s \$0-col1;
#X obj 732 108 sel 0 1, f 16;
#X msg 732 138 0.2 0.2 0.2;
#X obj 732 81 tgl 20 0 empty empty empty 0 -10 0 12 #fcfcfc #000000 #000000 0 1;
#X obj 539 123 r \$0-col1;
#X obj 120 351 r \$0-col2;
#X obj 732 56 r Mannettes-enable;
#X obj 284 502 r fromAudio;
#X obj 284 527 route bleu;
#X obj 284 552 route 0, f 13;
#X obj 372 527 + 1;
#X obj 372 500 f \$1;
#X obj 372 472 loadbang;
#X obj 284 577 route current target;
#X obj 49 290 t a a;
#X obj 49 522 separator;
#X obj 49 661 translateXYZ;
#X obj 233 645 hsl 170 20 0 1 0 0 empty empty empty -2 -10 0 12 #fcfcfc #000000 #000000 0 1;
#X obj 49 607 colorRGB 0.75 0.75 0 1;
#X obj 88 582 unpack f f f;
#X obj 104 637 - 1.4;
#X obj 183 646 * 2.8;
#X obj 88 556 r \$0-col2;
#X obj 49 690 rectangle 0.05 0.02;
#X obj 657 56 loadbang;
#X connect 0 0 20 0;
#X connect 1 0 42 0;
#X connect 2 0 38 0;
#X connect 2 0 39 0;
#X connect 2 0 45 0;
#X connect 4 0 3 0;
#X connect 5 0 3 0;
#X connect 6 0 3 0;
#X connect 7 0 37 0;
#X connect 8 0 5 2;
#X connect 9 0 5 0;
#X connect 10 0 23 0;
#X connect 11 0 39 0;
#X connect 12 0 1 0;
#X connect 13 0 41 0;
#X connect 14 0 20 2;
#X connect 14 0 28 2;
#X connect 15 0 2 0;
#X connect 15 0 4 0;
#X connect 15 0 21 0;
#X connect 15 0 37 0;
#X connect 16 0 15 0;
#X connect 17 0 15 0;
#X connect 18 0 3 1;
#X connect 19 0 20 1;
#X connect 19 0 28 1;
#X connect 20 0 33 0;
#X connect 21 0 18 0;
#X connect 22 0 0 0;
#X connect 23 0 11 0;
#X connect 24 0 1 1;
#X connect 24 1 1 2;
#X connect 24 2 1 3;
#X connect 25 0 23 1;
#X connect 25 1 23 2;
#X connect 25 2 23 3;
#X connect 26 0 27 0;
#X connect 27 0 28 0;
#X connect 28 0 32 0;
#X connect 29 0 9 0;
#X connect 29 1 12 0;
#X connect 30 0 6 0;
#X connect 31 0 35 0;
#X connect 32 0 29 0;
#X connect 33 0 65 0;
#X connect 34 0 35 0;
#X connect 35 0 36 0;
#X connect 36 0 32 1;
#X connect 36 0 33 1;
#X connect 37 0 30 0;
#X connect 40 0 11 2;
#X connect 41 0 40 0;
#X connect 42 0 44 0;
#X connect 42 1 43 0;
#X connect 42 2 38 0;
#X connect 43 0 45 0;
#X connect 44 0 45 0;
#X connect 46 0 47 0;
#X connect 47 0 48 1;
#X connect 47 1 49 1;
#X connect 48 0 51 0;
#X connect 49 0 50 0;
#X connect 52 0 53 0;
#X connect 52 1 48 0;
#X connect 52 1 49 0;
#X connect 53 0 51 0;
#X connect 53 0 50 0;
#X connect 54 0 52 0;
#X connect 55 0 24 0;
#X connect 56 0 25 0;
#X connect 57 0 54 0;
#X connect 58 0 59 0;
#X connect 59 0 60 0;
#X connect 60 0 64 0;
#X connect 61 0 60 1;
#X connect 62 0 61 0;
#X connect 63 0 62 0;
#X connect 64 0 41 0;
#X connect 64 1 72 0;
#X connect 65 0 66 0;
#X connect 65 1 10 0;
#X connect 66 0 69 0;
#X connect 67 0 74 0;
#X connect 68 0 72 0;
#X connect 69 0 67 0;
#X connect 70 0 69 1;
#X connect 70 1 69 2;
#X connect 70 2 69 3;
#X connect 71 0 67 2;
#X connect 72 0 71 0;
#X connect 73 0 70 0;
#X connect 75 0 53 0;
