#N canvas 709 45 811 622 12;
#X obj 49 38 separator;
#X obj 456 198 colorRGB 0 0.75 0 1;
#X msg 533 275 draw line \, width 2;
#X obj 234 296 text2d;
#X msg 253 266 alias 0;
#X obj 234 232 translateXYZ;
#X msg 368 386 text \$1;
#X obj 425 309 bng 20 250 50 0 empty empty empty 0 -10 0 12 #fcfcfc #000000 #000000;
#X obj 288 208 nbx 5 18 -1e+37 1e+37 0 1 empty empty empty 0 -10 0 12 #fcfcfc #000000 #000000 1.76 256;
#X obj 234 181 separator;
#X obj 49 322 separator;
#X obj 49 503 translateXYZ;
#X obj 456 168 separator;
#X obj 274 488 hsl 170 20 0 1 0 0 empty empty empty -2 -10 0 12 #fcfcfc #000000 #000000 0 1;
#X floatatom 204 37 5 0 0 0 - - - 0;
#X obj 533 250 b;
#X obj 570 249 loadbang;
#X obj 637 249 bng 20 250 50 0 empty empty empty 0 -10 0 12 #fcfcfc #000000 #000000;
#X floatatom 316 284 5 0 0 0 - - - 0;
#X floatatom 158 36 5 0 0 0 - - - 0;
#X obj 49 64 translateXYZ \$2 \$3 0;
#X msg 316 259 18;
#X obj 49 13 r Diagramme-head;
#X obj 49 449 colorRGB 0.75 0.75 0 1;
#X obj 537 120 r Diagramme-couleur;
#X obj 537 145 route 1 2;
#X obj 537 172 unpack f f f;
#X obj 88 424 unpack f f f;
#X obj 268 12 r Diagramme-bghead;
#X obj 268 38 separator;
#X obj 234 69 translateXYZ \$2 \$3 0;
#X obj 219 425 r manette-\$1;
#X obj 219 450 route level;
#X obj 234 146 t a a, f 32;
#X obj 368 360 + 1;
#X obj 481 16 inlet;
#X obj 234 114 translateXYZ 0 0 0;
#X obj 49 113 translateXYZ 0 0 0;
#X obj 415 16 loadbang;
#X obj 415 41 f \$4;
#X obj 415 66 * \$1;
#X obj 368 333 f \$1;
#X obj 529 340 rectangle 0.001 1.6;
#X obj 49 536 circle 0.15;
#X obj 104 479 - 1.4;
#X obj 183 488 * 2.8;
#X obj 457 225 t a a a;
#X obj 480 373 translateXYZ 0 1.6 0;
#X obj 458 397 translateXYZ 0 -3.2 0;
#X obj 481 431 rectangle 0.1 0.001;
#X connect 0 0 20 0;
#X connect 1 0 46 0;
#X connect 2 0 42 0;
#X connect 2 0 43 0;
#X connect 2 0 49 0;
#X connect 4 0 3 0;
#X connect 5 0 3 0;
#X connect 6 0 3 0;
#X connect 7 0 41 0;
#X connect 8 0 5 2;
#X connect 9 0 5 0;
#X connect 10 0 23 0;
#X connect 11 0 43 0;
#X connect 12 0 1 0;
#X connect 13 0 45 0;
#X connect 14 0 20 2;
#X connect 14 0 30 2;
#X connect 15 0 2 0;
#X connect 15 0 4 0;
#X connect 15 0 21 0;
#X connect 15 0 41 0;
#X connect 16 0 15 0;
#X connect 17 0 15 0;
#X connect 18 0 3 1;
#X connect 19 0 20 1;
#X connect 19 0 30 1;
#X connect 20 0 37 0;
#X connect 21 0 18 0;
#X connect 22 0 0 0;
#X connect 23 0 11 0;
#X connect 24 0 25 0;
#X connect 25 0 26 0;
#X connect 25 1 27 0;
#X connect 26 0 1 1;
#X connect 26 1 1 2;
#X connect 26 2 1 3;
#X connect 27 0 23 1;
#X connect 27 1 23 2;
#X connect 27 2 23 3;
#X connect 28 0 29 0;
#X connect 29 0 30 0;
#X connect 30 0 36 0;
#X connect 31 0 32 0;
#X connect 32 0 45 0;
#X connect 33 0 9 0;
#X connect 33 1 12 0;
#X connect 34 0 6 0;
#X connect 35 0 39 0;
#X connect 36 0 33 0;
#X connect 37 0 10 0;
#X connect 38 0 39 0;
#X connect 39 0 40 0;
#X connect 40 0 36 1;
#X connect 40 0 37 1;
#X connect 41 0 34 0;
#X connect 44 0 11 2;
#X connect 45 0 44 0;
#X connect 46 0 48 0;
#X connect 46 1 47 0;
#X connect 46 2 42 0;
#X connect 47 0 49 0;
#X connect 48 0 49 0;
