#N canvas 322 309 1066 680 12;
#X declare -path nusmuk-utils;
#X obj 12 80 inlet;
#X obj 12 130 separator;
#X obj 170 227 gemframebuffer;
#X obj 333 2 loadbang;
#X obj 170 252 translateXYZ 0 0 -4;
#X obj 12 317 pix_texture, f 17;
#X obj 85 80 tgl 20 0 empty empty empty 0 -10 0 12 #fcfcfc #000000 #000000 0 1;
#X msg 32 275 quality \$1;
#X obj 32 256 tgl 15 0 empty empty empty 0 -6 0 8 #fcfcfc #000000 #000000 0 1;
#X obj 32 208 loadbang;
#X msg 32 233 0;
#X obj 12 377 rectangle 1.8 1;
#X obj 170 336 scaleXYZ 1 1.8 1;
#X obj 333 55 t f f, f 8;
#X obj 333 131 pack f f;
#X obj 385 79 * 9;
#X obj 385 104 / 16;
#X msg 333 156 dimen \$1 \$2;
#X msg 333 30 800;
#X obj 142 182 separator;
#X obj 12 182 colorRGB 1 1 1 1;
#X obj 17 482 jauge Tank -3.5 1.49;
#X obj 495 188 text define -k jaugesLabels;
#A set Tank 0 1/4 1/2 3/4 1 \; Tr/min 0 20 60 100 140 180 220 260 300 \; Amperes 0 8 16 32 64 128 256 512 1024 \; Pression 0 5 10 15 20 25 30 35 40 \;;
#X obj 165 482 jauge Tr/min -2.5 1.49;
#X obj 330 482 jauge Amperes -1.5 1.49;
#X msg 419 25 800;
#X obj 170 388 s Diagramme-head;
#X obj 12 592 inter Moteur -3.5 -1.9;
#X obj 10 551 inter Eclairage -3.5 -1.1;
#X obj 179 593 inter Turbine -2.5 -1.9;
#X obj 349 591 inter Compresseur -1.5 -1.9;
#X obj 353 547 inter Filtr.basse -1.5 -1.1;
#X obj 354 520 inter Filtr.haute -1.5 -0.2;
#X obj 173 519 jauge Pression -2.5 0.17;
#X obj 12 154 t a a a, f 38;
#X obj 440 275 gemframebuffer;
#X obj 440 300 translateXYZ 0 0 -4;
#X obj 440 332 scaleXYZ 1 1.8 1;
#X obj 298 195 separator;
#X obj 440 414 s Diagramme-bghead;
#X obj 170 280 t a a, f 19;
#X obj 300 329 pix_texture;
#X obj 300 354 square 4 4;
#X obj 300 305 colorRGB 1 1 1 1;
#X obj 493 9 declare -path nusmuk-utils;
#X obj 348 239 once;
#X obj 406 200 bng 20 250 50 0 empty empty empty 0 -10 0 12 #fcfcfc #000000 #000000;
#X obj 391 241 spigot;
#X obj 437 206 tgl 20 0 empty empty empty 0 -10 0 12 #fcfcfc #000000 #000000 0 1;
#X obj 719 128 s Diagramme-couleur;
#N canvas 229 535 436 195 shader 0;
#X obj 37 37 inlet;
#X obj 37 101 outlet;
#N canvas 601 276 804 667 _glsl 0;
#X obj 80 426 glsl_program;
#X obj 343 250 bng 15 250 50 0 empty empty empty 0 -6 0 8 #fcfcfc #000000 #000000;
#N canvas 0 22 450 300 open 0;
#X obj 75 103 openpanel;
#X obj 75 173 outlet;
#X obj 75 127 t b s;
#X msg 105 152 set open \$1;
#X obj 75 80 inlet;
#X connect 0 0 2 0;
#X connect 2 0 1 0;
#X connect 2 1 3 0;
#X connect 3 0 1 0;
#X connect 4 0 0 0;
#X restore 286 249 pd open;
#X msg 33 296 print;
#X obj 166 331 change;
#X msg 34 420 print;
#X obj 80 310 glsl_fragment;
#X floatatom 166 355 2 0 0 0 ID - - 0;
#X obj 184 400 print linking;
#X obj 13 52 inlet;
#X obj 80 462 outlet;
#X msg 286 273 open \$1;
#X obj 422 77 inlet;
#X obj 13 75 route bang;
#X obj 140 83 bng 15 250 50 0 empty empty empty 17 7 0 10 #fcfcfc #000000 #000000;
#X obj 140 109 t b b;
#X msg 140 202 symbol \$1/\$2;
#X obj 255 11 gemhead 1;
#X msg 255 33 1;
#X obj 255 57 change;
#X obj 255 81 t b;
#X obj 161 452 change;
#X obj 161 473 t b;
#X obj 161 496 outlet;
#X msg 166 379 link \$1;
#X obj 80 193 t a a;
#X msg 93 273 open ../shaders/\$1.frag;
#X obj 140 133 symbol VCRw;
#X connect 0 0 10 0;
#X connect 0 1 21 0;
#X connect 1 0 2 0;
#X connect 2 0 11 0;
#X connect 3 0 6 0;
#X connect 4 0 7 0;
#X connect 5 0 0 0;
#X connect 6 0 0 0;
#X connect 6 1 4 0;
#X connect 7 0 24 0;
#X connect 9 0 13 0;
#X connect 11 0 6 0;
#X connect 12 0 0 0;
#X connect 13 0 15 0;
#X connect 13 1 25 0;
#X connect 14 0 15 0;
#X connect 15 0 27 0;
#X connect 16 0 26 0;
#X connect 17 0 18 0;
#X connect 18 0 19 0;
#X connect 19 0 20 0;
#X connect 20 0 15 0;
#X connect 21 0 22 0;
#X connect 22 0 23 0;
#X connect 24 0 0 0;
#X connect 24 0 8 0;
#X connect 25 1 6 0;
#X connect 26 0 6 0;
#X connect 27 0 26 0;
#X restore 37 70 pd _glsl;
#X obj 218 105 t a;
#X obj 131 32 r toShader;
#X obj 90 32 bng 20 250 50 0 empty empty empty 0 -10 0 12 #fcfcfc #000000 #000000;
#X msg 218 79 delta \$1;
#X obj 219 55 / 1000;
#X floatatom 219 31 5 0 0 0 - - - 0;
#X connect 0 0 2 0;
#X connect 2 0 1 0;
#X connect 3 0 2 1;
#X connect 4 0 2 1;
#X connect 5 0 2 0;
#X connect 6 0 3 0;
#X connect 7 0 6 0;
#X connect 8 0 7 0;
#X restore 12 348 pd shader;
#X obj 170 362 colorRGB 1 1 1 1;
#X obj 440 382 colorRGB 1 1 1 1;
#X obj 601 474 manette Gauche -0.3 0;
#X obj 759 473 manette Droite 3.5 0;
#X obj 614 563 clone bleu 6 0.47 0 0.45;
#X obj 18 515 tune Tune -3.45 0.21;
#X obj 12 105 spigot 1, f 9;
#X obj 330 270 once;
#X obj 504 91 b;
#X obj 504 116 del 4000;
#X obj 134 22 r MODE;
#X msg 134 72 1;
#X msg 194 73 0;
#X obj 134 47 route Diag;
#X obj 722 222 s Diagramme-couleur;
#X obj 440 357 t a a, f 24;
#X obj 605 407 square 200;
#X obj 631 305 r Diagramme-couleur;
#X obj 631 330 route 0;
#X obj 631 355 unpack f f f;
#X obj 738 63 s Diagramme-couleur;
#X msg 719 99 0 0 0 0 \, 1 0 0.75 0 \, 2 0.75 0.75 0;
#X obj 86 346 bng 20 250 50 0 empty empty empty 0 -10 0 12 #fcfcfc #000000 #000000;
#X msg 722 193 0 0.5 0.5 0.5 \, 1 0 0 0 \, 2 0 0.75 0;
#X obj 77 444 rectangle 1.8 1;
#X floatatom 172 131 5 0 0 0 - - - 0;
#X obj 605 382 colorRGB 0 0 0 1;
#X obj 738 10 loadbang;
#X msg 737 35 0 0 0 0 \, 1 0.7 1 1 \, 2 0 0.5 0;
#X obj 78 417 blur/blur;
#X connect 0 0 57 0;
#X connect 1 0 34 0;
#X connect 2 0 4 0;
#X connect 2 1 5 1;
#X connect 2 1 80 1;
#X connect 3 0 18 0;
#X connect 4 0 40 0;
#X connect 5 0 50 0;
#X connect 6 0 57 1;
#X connect 7 0 5 0;
#X connect 8 0 7 0;
#X connect 9 0 10 0;
#X connect 10 0 8 0;
#X connect 12 0 51 0;
#X connect 13 0 14 0;
#X connect 13 1 15 0;
#X connect 14 0 17 0;
#X connect 15 0 16 0;
#X connect 16 0 14 1;
#X connect 17 0 2 0;
#X connect 17 0 35 0;
#X connect 18 0 13 0;
#X connect 19 0 2 0;
#X connect 20 0 80 0;
#X connect 25 0 13 0;
#X connect 34 0 20 0;
#X connect 34 1 19 0;
#X connect 34 2 38 0;
#X connect 35 0 36 0;
#X connect 35 1 41 1;
#X connect 36 0 37 0;
#X connect 37 0 66 0;
#X connect 38 0 45 0;
#X connect 38 0 47 0;
#X connect 38 0 58 0;
#X connect 40 0 12 0;
#X connect 40 1 43 0;
#X connect 41 0 42 0;
#X connect 43 0 41 0;
#X connect 45 0 35 0;
#X connect 45 0 58 1;
#X connect 45 0 59 0;
#X connect 46 0 45 1;
#X connect 47 0 35 0;
#X connect 48 0 47 1;
#X connect 50 0 11 0;
#X connect 51 0 26 0;
#X connect 52 0 39 0;
#X connect 57 0 1 0;
#X connect 58 0 35 0;
#X connect 59 0 60 0;
#X connect 60 0 45 1;
#X connect 61 0 64 0;
#X connect 62 0 57 1;
#X connect 62 0 76 0;
#X connect 63 0 57 1;
#X connect 63 0 76 0;
#X connect 64 0 62 0;
#X connect 64 1 63 0;
#X connect 66 0 52 0;
#X connect 66 1 77 0;
#X connect 68 0 69 0;
#X connect 69 0 70 0;
#X connect 70 0 77 1;
#X connect 70 1 77 2;
#X connect 70 2 77 3;
#X connect 72 0 49 0;
#X connect 73 0 50 0;
#X connect 74 0 65 0;
#X connect 77 0 67 0;
#X connect 78 0 79 0;
#X connect 79 0 71 0;
#X connect 80 0 75 0;
