#N canvas 923 37 642 426 12;
#X obj 23 39 separator;
#X obj 396 162 colorRGB 0 0.75 0 1;
#X msg 422 213 draw line \, width 2;
#X obj 257 345 text2d;
#X msg 276 315 alias 0;
#X obj 257 274 translateXYZ;
#X obj 394 332 symbol \$1;
#X msg 394 357 text \$1;
#X obj 458 303 bng 20 250 50 0 empty empty empty 0 -10 0 12 #fcfcfc #000000 #000000;
#X obj 282 242 nbx 5 18 -1e+37 1e+37 0 1 empty empty empty 0 -10 0 12 #fcfcfc #000000 #000000 0.39 256;
#X obj 257 167 separator;
#X obj 23 207 separator;
#X obj 23 289 translateXYZ;
#X obj 396 132 separator;
#X floatatom 210 29 5 0 0 0 - - - 0;
#X obj 422 188 b;
#X obj 459 187 loadbang;
#X obj 526 187 bng 20 250 50 0 empty empty empty 0 -10 0 12 #fcfcfc #000000 #000000;
#X floatatom 341 335 5 0 0 0 - - - 0;
#X floatatom 149 30 5 0 0 0 - - - 0;
#X obj 23 65 translateXYZ \$2 \$3 0;
#X obj 77 265 - 0.48;
#X msg 341 310 18;
#X obj 23 14 r Diagramme-head;
#X msg 195 310 alias 1;
#X obj 23 235 colorRGB 0.75 0.75 0 1;
#X obj 396 240 circle 0.25;
#X obj 23 322 circle 0.22;
#X obj 23 180 spigot;
#X obj 61 153 tgl 20 0 empty empty empty 0 -10 0 12 #fcfcfc #000000 #000000 0 1;
#X obj 466 76 r Diagramme-couleur;
#X obj 466 101 route 1 2;
#X obj 466 134 unpack f f f;
#X obj 103 209 unpack f f f;
#X obj 257 40 separator;
#X obj 257 66 translateXYZ \$2 \$3 0;
#X obj 257 99 t a a, f 20;
#X obj 257 15 r Diagramme-bghead;
#X obj 93 95 r fromAudio;
#X obj 93 174 route \$1;
#X obj 93 122 route juke;
#X obj 93 149 route inter;
#X connect 0 0 20 0;
#X connect 1 0 26 0;
#X connect 2 0 26 0;
#X connect 4 0 3 0;
#X connect 5 0 3 0;
#X connect 6 0 7 0;
#X connect 7 0 3 0;
#X connect 8 0 6 0;
#X connect 9 0 5 2;
#X connect 10 0 5 0;
#X connect 11 0 25 0;
#X connect 12 0 27 0;
#X connect 13 0 1 0;
#X connect 14 0 20 2;
#X connect 14 0 35 2;
#X connect 15 0 2 0;
#X connect 15 0 4 0;
#X connect 15 0 6 0;
#X connect 15 0 22 0;
#X connect 16 0 15 0;
#X connect 17 0 15 0;
#X connect 18 0 3 1;
#X connect 19 0 20 1;
#X connect 19 0 35 1;
#X connect 20 0 28 0;
#X connect 21 0 12 2;
#X connect 22 0 18 0;
#X connect 23 0 0 0;
#X connect 24 0 3 0;
#X connect 25 0 12 0;
#X connect 28 0 11 0;
#X connect 29 0 28 1;
#X connect 30 0 31 0;
#X connect 31 0 32 0;
#X connect 31 1 33 0;
#X connect 32 0 1 1;
#X connect 32 1 1 2;
#X connect 32 2 1 3;
#X connect 33 0 25 1;
#X connect 33 1 25 2;
#X connect 33 2 25 3;
#X connect 34 0 35 0;
#X connect 35 0 36 0;
#X connect 36 0 10 0;
#X connect 36 1 13 0;
#X connect 37 0 34 0;
#X connect 38 0 40 0;
#X connect 39 0 29 0;
#X connect 40 0 41 0;
#X connect 41 0 39 0;
