#N canvas 709 45 921 832 12;
#X obj 49 38 separator;
#X obj 396 159 colorRGB 0 0.75 0 1;
#X obj 396 237 rectangle 0.25 0.5;
#X msg 422 210 draw line \, width 2;
#X obj 257 279 text2d;
#X msg 276 249 alias 0;
#X obj 257 215 translateXYZ;
#X obj 403 284 symbol \$1;
#X msg 403 309 text \$1;
#X obj 467 255 bng 20 250 50 0 empty empty empty 0 -10 0 12 #fcfcfc #000000 #000000;
#X obj 311 191 nbx 5 18 -1e+37 1e+37 0 1 empty empty empty 0 -10 0 12 #fcfcfc #000000 #000000 0.66 256;
#X obj 257 164 separator;
#X obj 169 255 separator;
#X obj 169 469 rectangle 0.23 0.48;
#X obj 169 436 translateXYZ;
#X obj 303 421 * 0.48;
#X obj 234 96 t a a a a;
#X obj 16 173 separator;
#X obj 16 260 t b a, f 14;
#X obj 16 231 translateXYZ;
#X obj 16 285 f 5;
#X obj 16 310 t f f, f 12;
#X obj 16 335 until;
#X obj 16 360 i;
#X obj 52 361 + 1;
#X msg 59 336 0;
#X obj 16 385 t f f, f 9;
#X obj 16 410 /;
#X obj 16 435 t b f, f 7;
#X obj 17 569 translateXYZ;
#X obj 16 460 gemlist, f 14;
#X obj 396 129 separator;
#X obj 361 422 hsl 170 20 0 1 0 0 empty empty empty -2 -10 0 12 #fcfcfc #000000 #000000 0 1;
#X obj 112 229 nbx 5 18 -1e+37 1e+37 0 1 empty empty empty 0 -10 0 12 #fcfcfc #000000 #000000 0.27 256;
#X obj 16 203 colorRGB 0 0.75 0 1;
#X obj 183 227 nbx 5 18 -1e+37 1e+37 0 1 empty empty empty 0 -10 0 12 #fcfcfc #000000 #000000 -0.5 256;
#X msg 91 387 1 \$1;
#X obj 91 412 /;
#X obj 71 544 * 1;
#X obj 94 349 - 1;
#X floatatom 204 37 5 0 0 0 - - - 0;
#X obj 16 492 rectangle 0.03 0.0001;
#X obj 17 520 t a a, f 17;
#X obj 133 728 separator;
#X obj 133 785 text2d;
#X obj 422 185 b;
#X obj 459 184 loadbang;
#X obj 526 184 bng 20 250 50 0 empty empty empty 0 -10 0 12 #fcfcfc #000000 #000000;
#X floatatom 339 267 5 0 0 0 - - - 0;
#X floatatom 232 780 5 0 0 0 - - - 0;
#X obj 133 757 translateXYZ;
#X obj 225 726 nbx 5 18 -1e+37 1e+37 0 1 empty empty empty 0 -10 0 12 #fcfcfc #000000 #000000 0.06 256;
#X obj 299 725 nbx 5 18 -1e+37 1e+37 0 1 empty empty empty 0 -10 0 12 #fcfcfc #000000 #000000 0 256;
#X msg 195 669 text \$1;
#X floatatom 158 36 5 0 0 0 - - - 0;
#X obj 49 64 translateXYZ \$2 \$3 0;
#X msg 232 755 10;
#X msg 465 586 justify left base;
#X obj 264 591 text search jaugesLabels;
#X obj 264 566 symbol \$1;
#X obj 196 640 list store;
#X obj 264 616 text get jaugesLabels;
#X obj 196 587 + 1;
#X msg 196 612 get \$1;
#X floatatom 226 536 5 0 0 0 - - - 0;
#X obj 278 646 list length;
#X obj 278 671 - 1;
#X obj 278 697 s \$0-nblabels;
#X obj 54 285 r \$0-nblabels;
#X obj 223 412 - 0.48;
#X msg 339 242 18;
#X obj 49 13 r Diagramme-head;
#X obj 169 382 colorRGB 0.75 0.75 0 1;
#X obj 497 68 r Diagramme-couleur;
#X obj 497 93 route 1 2;
#X obj 477 133 unpack f f f;
#X obj 88 171 unpack f f f;
#X obj 208 357 unpack f f f;
#X obj 268 12 r Diagramme-bghead;
#X obj 268 38 separator;
#X obj 234 69 translateXYZ \$2 \$3 0;
#X obj 675 75 r fromAudio;
#X obj 675 129 route jauge;
#X obj 675 154 route \$1;
#X obj 675 102 route juke;
#X connect 0 0 55 0;
#X connect 1 0 2 0;
#X connect 3 0 2 0;
#X connect 3 0 41 0;
#X connect 5 0 4 0;
#X connect 5 0 44 0;
#X connect 6 0 4 0;
#X connect 7 0 8 0;
#X connect 8 0 4 0;
#X connect 9 0 7 0;
#X connect 10 0 6 2;
#X connect 11 0 6 0;
#X connect 12 0 72 0;
#X connect 14 0 13 0;
#X connect 15 0 13 2;
#X connect 15 0 69 0;
#X connect 16 0 17 0;
#X connect 16 2 11 0;
#X connect 16 3 31 0;
#X connect 17 0 34 0;
#X connect 18 0 20 0;
#X connect 18 1 30 1;
#X connect 19 0 18 0;
#X connect 20 0 21 0;
#X connect 21 0 22 0;
#X connect 21 1 25 0;
#X connect 21 1 27 1;
#X connect 21 1 39 0;
#X connect 22 0 23 0;
#X connect 23 0 24 0;
#X connect 23 0 26 0;
#X connect 24 0 23 1;
#X connect 25 0 23 1;
#X connect 26 0 27 0;
#X connect 26 1 62 0;
#X connect 27 0 28 0;
#X connect 28 0 30 0;
#X connect 30 0 41 0;
#X connect 31 0 1 0;
#X connect 32 0 15 0;
#X connect 33 0 19 1;
#X connect 34 0 19 0;
#X connect 35 0 19 2;
#X connect 36 0 37 0;
#X connect 37 0 38 0;
#X connect 38 0 29 2;
#X connect 39 0 36 0;
#X connect 40 0 55 2;
#X connect 40 0 80 2;
#X connect 41 0 42 0;
#X connect 42 0 29 0;
#X connect 42 1 43 0;
#X connect 43 0 50 0;
#X connect 45 0 3 0;
#X connect 45 0 5 0;
#X connect 45 0 7 0;
#X connect 45 0 70 0;
#X connect 45 0 56 0;
#X connect 45 0 57 0;
#X connect 45 0 59 0;
#X connect 46 0 45 0;
#X connect 47 0 45 0;
#X connect 48 0 4 1;
#X connect 49 0 44 1;
#X connect 50 0 44 0;
#X connect 51 0 50 1;
#X connect 52 0 50 2;
#X connect 53 0 44 0;
#X connect 54 0 55 1;
#X connect 54 0 80 1;
#X connect 55 0 12 0;
#X connect 56 0 49 0;
#X connect 57 0 44 0;
#X connect 58 0 61 0;
#X connect 59 0 58 0;
#X connect 60 0 53 0;
#X connect 61 0 60 1;
#X connect 61 0 65 0;
#X connect 62 0 63 0;
#X connect 63 0 60 0;
#X connect 64 0 62 0;
#X connect 65 0 66 0;
#X connect 66 0 67 0;
#X connect 68 0 20 1;
#X connect 69 0 14 2;
#X connect 70 0 48 0;
#X connect 71 0 0 0;
#X connect 72 0 14 0;
#X connect 73 0 74 0;
#X connect 74 0 75 0;
#X connect 74 0 76 0;
#X connect 74 1 77 0;
#X connect 75 0 1 1;
#X connect 75 1 1 2;
#X connect 75 2 1 3;
#X connect 76 0 34 1;
#X connect 76 1 34 2;
#X connect 76 2 34 3;
#X connect 77 0 72 1;
#X connect 77 1 72 2;
#X connect 77 2 72 3;
#X connect 78 0 79 0;
#X connect 79 0 80 0;
#X connect 80 0 16 0;
#X connect 81 0 84 0;
#X connect 82 0 83 0;
#X connect 83 0 15 0;
#X connect 84 0 82 0;
