#N canvas 768 104 1029 545 12;
#X obj 49 38 separator;
#X obj 456 148 colorRGB 0 0.75 0 1;
#X msg 482 199 draw line \, width 2;
#X obj 234 246 text2d;
#X msg 253 216 alias 0;
#X obj 234 182 translateXYZ;
#X obj 368 283 symbol \$1;
#X msg 368 308 text \$1;
#X obj 425 259 bng 20 250 50 0 empty empty empty 0 -10 0 12 #fcfcfc #000000 #000000;
#X obj 288 158 nbx 5 18 -1e+37 1e+37 0 1 empty empty empty 0 -10 0 12 #fcfcfc #000000 #000000 1.96 256;
#X obj 234 131 separator;
#X obj 49 272 separator;
#X obj 49 453 translateXYZ;
#X obj 456 118 separator;
#X obj 274 438 hsl 170 20 0 1 0 0 empty empty empty -2 -10 0 12 #fcfcfc #000000 #000000 0 1;
#X obj 63 244 nbx 5 18 -1e+37 1e+37 0 1 empty empty empty 0 -10 0 12 #fcfcfc #000000 #000000 -0.5 256;
#X floatatom 204 37 5 0 0 0 - - - 0;
#X obj 482 174 b;
#X obj 519 173 loadbang;
#X obj 586 173 bng 20 250 50 0 empty empty empty 0 -10 0 12 #fcfcfc #000000 #000000;
#X floatatom 316 234 5 0 0 0 - - - 0;
#X floatatom 158 36 5 0 0 0 - - - 0;
#X obj 49 64 translateXYZ \$2 \$3 0;
#X msg 316 209 18;
#X obj 49 13 r Diagramme-head;
#X obj 49 399 colorRGB 0.75 0.75 0 1;
#X obj 537 122 unpack f f f;
#X obj 88 374 unpack f f f;
#X obj 268 12 r Diagramme-bghead;
#X obj 268 38 separator;
#X obj 234 69 translateXYZ \$2 \$3 0;
#X obj 456 226 rectangle 0.35 1.8;
#X obj 468 268 rectangle 0.001 1.8;
#X obj 49 486 rectangle 0.33 0.1;
#X obj 104 429 - 1.68;
#X obj 183 438 * 3.36;
#X obj 324 378 r manette-\$1;
#X obj 234 96 t a a, f 32;
#X obj 219 323 r fromAudio;
#X obj 219 348 route manette;
#X obj 219 373 route \$1;
#X obj 831 134 r Diagramme-couleur;
#X obj 831 159 route 1 2, f 16;
#X obj 806 196 list;
#X obj 860 196 list;
#X obj 860 221 s \$0-col2;
#X obj 779 226 s \$0-col1;
#X obj 732 108 sel 0 1, f 16;
#X msg 732 138 0.2 0.2 0.2;
#X obj 732 81 tgl 20 0 empty empty empty 0 -10 0 12 #fcfcfc #000000 #000000 0 1;
#X obj 732 56 r Mannettes-enable;
#X obj 537 97 r \$0-col1;
#X obj 88 345 r \$0-col2;
#X obj 659 56 loadbang;
#X connect 0 0 22 0;
#X connect 1 0 31 0;
#X connect 1 0 32 0;
#X connect 2 0 31 0;
#X connect 2 0 32 0;
#X connect 4 0 3 0;
#X connect 5 0 3 0;
#X connect 6 0 7 0;
#X connect 7 0 3 0;
#X connect 8 0 6 0;
#X connect 9 0 5 2;
#X connect 10 0 5 0;
#X connect 11 0 25 0;
#X connect 12 0 33 0;
#X connect 13 0 1 0;
#X connect 14 0 35 0;
#X connect 16 0 22 2;
#X connect 16 0 30 2;
#X connect 17 0 2 0;
#X connect 17 0 4 0;
#X connect 17 0 6 0;
#X connect 17 0 23 0;
#X connect 18 0 17 0;
#X connect 19 0 17 0;
#X connect 20 0 3 1;
#X connect 21 0 22 1;
#X connect 21 0 30 1;
#X connect 22 0 11 0;
#X connect 23 0 20 0;
#X connect 24 0 0 0;
#X connect 25 0 12 0;
#X connect 26 0 1 1;
#X connect 26 1 1 2;
#X connect 26 2 1 3;
#X connect 27 0 25 1;
#X connect 27 1 25 2;
#X connect 27 2 25 3;
#X connect 28 0 29 0;
#X connect 29 0 30 0;
#X connect 30 0 37 0;
#X connect 34 0 12 2;
#X connect 35 0 34 0;
#X connect 37 0 10 0;
#X connect 37 1 13 0;
#X connect 38 0 39 0;
#X connect 39 0 40 0;
#X connect 40 0 35 0;
#X connect 41 0 42 0;
#X connect 42 0 43 1;
#X connect 42 1 44 1;
#X connect 43 0 46 0;
#X connect 44 0 45 0;
#X connect 47 0 48 0;
#X connect 47 1 43 0;
#X connect 47 1 44 0;
#X connect 48 0 46 0;
#X connect 48 0 45 0;
#X connect 49 0 47 0;
#X connect 50 0 49 0;
#X connect 51 0 26 0;
#X connect 52 0 27 0;
#X connect 53 0 48 0;
