#N canvas 792 211 1051 870 12;
#X obj 23 39 separator;
#X obj 396 162 colorRGB 0 0.75 0 1;
#X msg 422 213 draw line \, width 2;
#X obj 257 425 text2d;
#X msg 281 255 alias 0;
#X obj 257 354 translateXYZ;
#X obj 394 332 symbol \$1;
#X msg 394 357 text \$1;
#X obj 458 303 bng 20 250 50 0 empty empty empty 0 -10 0 12 #fcfcfc #000000 #000000;
#X obj 282 322 nbx 5 18 -1e+37 1e+37 0 1 empty empty empty 0 -10 0 12 #fcfcfc #000000 #000000 0.59 256;
#X obj 257 129 separator;
#X obj 55 186 separator;
#X obj 55 264 translateXYZ;
#X obj 396 132 separator;
#X floatatom 210 29 5 0 0 0 - - - 0;
#X obj 422 188 b;
#X obj 459 187 loadbang;
#X obj 526 187 bng 20 250 50 0 empty empty empty 0 -10 0 12 #fcfcfc #000000 #000000;
#X floatatom 341 415 5 0 0 0 - - - 0;
#X floatatom 149 30 5 0 0 0 - - - 0;
#X obj 23 65 translateXYZ \$2 \$3 0;
#X msg 341 390 18;
#X obj 23 14 r Diagramme-head;
#X msg 195 390 alias 1;
#X obj 55 210 colorRGB 0.75 0.75 0 1;
#X obj 102 124 tgl 20 0 empty empty empty 0 -10 0 12 #fcfcfc #000000 #000000 0 1;
#X obj 486 69 r Diagramme-couleur;
#X obj 486 94 route 1 2;
#X obj 466 134 unpack f f f;
#X obj 135 184 unpack f f f;
#X obj 257 40 separator;
#X obj 257 66 translateXYZ \$2 \$3 0;
#X obj 257 99 t a a, f 20;
#X obj 257 15 r Diagramme-bghead;
#X obj 55 321 text2d;
#X floatatom 114 319 5 0 0 0 - - - 0;
#X obj 23 162 t a a;
#X obj 109 241 nbx 5 18 -1e+37 1e+37 0 1 empty empty empty 0 -10 0 12 #fcfcfc #000000 #000000 -0.7 256;
#X msg 114 295 12;
#X obj 47 386 colorRGB 1 1 1 1;
#X obj 475 573 pix_image, f 15;
#X obj 47 466 pix_texture;
#X obj 47 526 square 0.43;
#X msg 835 270 symbol Cali-ElleMaDit;
#X obj 475 477 gemframebuffer;
#X obj 475 543 translateXYZ 0 0 -4;
#X obj 475 597 pix_texture;
#X obj 475 652 square 4;
#X obj 396 240 square 0.45;
#X obj 47 359 separator;
#X obj 23 96 separator;
#X msg 498 381 0;
#X obj 475 438 gemhead -1;
#X msg 457 398 1;
#X obj 475 510 colorRGB 1 1 1 1;
#X obj 603 478 t b a;
#X msg 833 246 symbol Ez3kiel-DeadInValhalla;
#X obj 536 386 bng 20 250 50 0 empty empty empty 0 -10 0 12 #fcfcfc #000000 #000000;
#X obj 599 577 b;
#X obj 599 602 del 100;
#N canvas 239 542 436 195 shader_NB 0;
#X obj 37 37 inlet;
#X obj 37 101 outlet;
#N canvas 601 276 785 667 _glsl 0;
#X obj 80 426 glsl_program;
#X obj 343 250 bng 15 250 50 0 empty empty empty 0 -6 0 8 #fcfcfc #000000 #000000;
#N canvas 0 22 450 300 open 0;
#X obj 75 103 openpanel;
#X obj 75 173 outlet;
#X obj 75 127 t b s;
#X msg 105 152 set open \$1;
#X obj 75 80 inlet;
#X connect 0 0 2 0;
#X connect 2 0 1 0;
#X connect 2 1 3 0;
#X connect 3 0 1 0;
#X connect 4 0 0 0;
#X restore 286 249 pd open;
#X msg 33 296 print;
#X obj 166 331 change;
#X msg 34 420 print;
#X obj 80 310 glsl_fragment;
#X floatatom 166 355 2 0 0 0 ID - - 0;
#X obj 184 400 print linking;
#X obj 13 52 inlet;
#X obj 80 462 outlet;
#X msg 286 273 open \$1;
#X obj 422 77 inlet;
#X obj 13 75 route bang;
#X obj 140 83 bng 15 250 50 0 empty empty empty 17 7 0 10 #fcfcfc #000000 #000000;
#X obj 140 109 t b b;
#X msg 140 202 symbol \$1/\$2;
#X obj 255 11 gemhead 1;
#X msg 255 33 1;
#X obj 255 57 change;
#X obj 255 81 t b;
#X obj 161 452 change;
#X obj 161 473 t b;
#X obj 161 496 outlet;
#X msg 166 379 link \$1;
#X obj 80 193 t a a;
#X msg 93 273 open ../shaders/\$1.frag;
#X obj 140 133 symbol NB;
#X connect 0 0 10 0;
#X connect 0 1 21 0;
#X connect 1 0 2 0;
#X connect 2 0 11 0;
#X connect 3 0 6 0;
#X connect 4 0 7 0;
#X connect 5 0 0 0;
#X connect 6 0 0 0;
#X connect 6 1 4 0;
#X connect 7 0 24 0;
#X connect 9 0 13 0;
#X connect 11 0 6 0;
#X connect 12 0 0 0;
#X connect 13 0 15 0;
#X connect 13 1 25 0;
#X connect 14 0 15 0;
#X connect 15 0 27 0;
#X connect 16 0 26 0;
#X connect 17 0 18 0;
#X connect 18 0 19 0;
#X connect 19 0 20 0;
#X connect 20 0 15 0;
#X connect 21 0 22 0;
#X connect 22 0 23 0;
#X connect 24 0 0 0;
#X connect 24 0 8 0;
#X connect 25 1 6 0;
#X connect 26 0 6 0;
#X connect 27 0 26 0;
#X restore 37 70 pd _glsl;
#X obj 218 105 t a;
#X obj 90 32 bng 20 250 50 0 empty empty empty 0 -10 0 12 #fcfcfc #000000 #000000;
#X msg 218 79 delta \$1;
#X obj 219 55 / 1000;
#X floatatom 219 31 5 0 0 0 - - - 0;
#X connect 0 0 2 0;
#X connect 2 0 1 0;
#X connect 3 0 2 1;
#X connect 4 0 2 0;
#X connect 5 0 3 0;
#X connect 6 0 5 0;
#X connect 7 0 6 0;
#X restore 475 626 pd shader_NB;
#X obj 450 606 bng 20 250 50 0 empty empty empty 0 -10 0 12 #fcfcfc #000000 #000000;
#X obj 47 496 colorRGB 0.75 0.75 0 1;
#X obj 135 468 unpack f f f;
#X obj 625 11 r Tune;
#X obj 78 411 loadbang;
#X msg 78 438 quality 0;
#X msg 588 357 dimen 20 20;
#X msg 561 400 dimen 100 100;
#X obj 292 603 text define \$0-tunetxt;
#X msg 679 315 symbol ../../../JukeBox/data/tunes/\$1;
#X msg 603 453 open \$1/cover.jpg;
#X msg 292 575 read -c \$1/tune.txt;
#X obj 260 549 t b a;
#X obj 232 628 text get \$0-tunetxt;
#X msg 232 603 0;
#X obj 24 710 text2d;
#X msg 43 680 alias 0;
#X obj 24 652 translateXYZ;
#X obj 100 622 nbx 5 18 -1e+37 1e+37 0 1 empty empty empty 0 -10 0 12 #fcfcfc #000000 #000000 -0.49 256;
#X obj 24 624 separator;
#X obj 726 141 t f f, f 9;
#X obj 786 165 mod 60;
#X obj 786 190 makefilename %02d;
#X obj 726 170 div 60;
#X obj 726 214 makefilename %02d;
#X obj 726 239 pack s s;
#X msg 726 264 text \$1:\$2;
#X floatatom 813 140 5 0 0 0 - - - 0;
#X obj 679 340 s \$0-dir;
#X obj 603 431 r \$0-dir;
#X floatatom 123 684 5 0 0 0 - - - 0;
#X obj 261 522 r \$0-dir;
#X obj 165 634 loadbang;
#X obj 165 659 bng 20 250 50 0 empty empty empty 0 -10 0 12 #fcfcfc #000000 #000000;
#X msg 165 684 10;
#X obj 13 827 text2d;
#X msg 32 797 alias 0;
#X obj 13 769 translateXYZ;
#X obj 89 739 nbx 5 18 -1e+37 1e+37 0 1 empty empty empty 0 -10 0 12 #fcfcfc #000000 #000000 -0.58 256;
#X obj 13 744 separator;
#X floatatom 112 801 5 0 0 0 - - - 0;
#X obj 154 751 loadbang;
#X obj 154 776 bng 20 250 50 0 empty empty empty 0 -10 0 12 #fcfcfc #000000 #000000;
#X msg 154 801 10;
#X obj 232 653 list prepend text;
#X obj 232 678 list trim;
#X obj 23 584 colorRGB 0 0.75 0 1;
#X obj 93 556 unpack f f f;
#X obj 679 91 route dir secs playing;
#X obj 779 115 s \$0-show;
#X obj 102 97 r \$0-show;
#X obj 309 702 text get \$0-tunetxt;
#X obj 309 727 list prepend text;
#X obj 309 752 list trim;
#X msg 309 677 1;
#X obj 679 11 r fromAudio;
#X obj 679 66 route tune;
#X obj 679 39 route juke;
#X obj 23 130 spigot 0;
#X obj 679 203 symbol;
#X connect 0 0 20 0;
#X connect 1 0 48 0;
#X connect 2 0 48 0;
#X connect 4 0 3 0;
#X connect 4 0 34 0;
#X connect 5 0 3 0;
#X connect 6 0 7 0;
#X connect 7 0 3 0;
#X connect 8 0 6 0;
#X connect 9 0 5 2;
#X connect 10 0 5 0;
#X connect 11 0 24 0;
#X connect 12 0 34 0;
#X connect 13 0 1 0;
#X connect 14 0 20 2;
#X connect 14 0 31 2;
#X connect 15 0 2 0;
#X connect 15 0 4 0;
#X connect 15 0 6 0;
#X connect 15 0 21 0;
#X connect 15 0 38 0;
#X connect 15 0 68 0;
#X connect 15 0 51 0;
#X connect 16 0 15 0;
#X connect 17 0 15 0;
#X connect 18 0 3 1;
#X connect 19 0 20 1;
#X connect 19 0 31 1;
#X connect 20 0 50 0;
#X connect 21 0 18 0;
#X connect 22 0 0 0;
#X connect 23 0 3 0;
#X connect 24 0 12 0;
#X connect 25 0 119 1;
#X connect 26 0 27 0;
#X connect 27 0 28 0;
#X connect 27 1 29 0;
#X connect 27 1 63 0;
#X connect 28 0 1 1;
#X connect 28 1 1 2;
#X connect 28 2 1 3;
#X connect 29 0 24 1;
#X connect 29 1 24 2;
#X connect 29 2 24 3;
#X connect 30 0 31 0;
#X connect 31 0 32 0;
#X connect 32 0 10 0;
#X connect 32 1 13 0;
#X connect 33 0 30 0;
#X connect 35 0 34 1;
#X connect 36 0 49 0;
#X connect 36 0 107 0;
#X connect 36 1 11 0;
#X connect 37 0 12 2;
#X connect 38 0 35 0;
#X connect 39 0 41 0;
#X connect 40 0 46 0;
#X connect 40 1 58 0;
#X connect 41 0 62 0;
#X connect 43 0 70 0;
#X connect 44 0 54 0;
#X connect 44 1 41 1;
#X connect 45 0 40 0;
#X connect 46 0 60 0;
#X connect 49 0 39 0;
#X connect 50 0 119 0;
#X connect 51 0 52 0;
#X connect 52 0 44 0;
#X connect 53 0 52 0;
#X connect 54 0 45 0;
#X connect 55 0 57 0;
#X connect 55 1 40 0;
#X connect 56 0 70 0;
#X connect 57 0 52 0;
#X connect 58 0 59 0;
#X connect 59 0 52 0;
#X connect 60 0 47 0;
#X connect 61 0 60 0;
#X connect 61 0 57 0;
#X connect 62 0 42 0;
#X connect 63 0 62 1;
#X connect 63 1 62 2;
#X connect 63 2 62 3;
#X connect 65 0 66 0;
#X connect 66 0 41 0;
#X connect 67 0 44 0;
#X connect 68 0 44 0;
#X connect 70 0 89 0;
#X connect 71 0 55 0;
#X connect 72 0 69 0;
#X connect 73 0 75 0;
#X connect 73 0 115 0;
#X connect 73 1 72 0;
#X connect 74 0 105 0;
#X connect 75 0 74 0;
#X connect 77 0 76 0;
#X connect 78 0 76 0;
#X connect 79 0 78 2;
#X connect 80 0 78 0;
#X connect 81 0 84 0;
#X connect 81 1 82 0;
#X connect 82 0 83 0;
#X connect 83 0 86 1;
#X connect 84 0 85 0;
#X connect 85 0 86 0;
#X connect 86 0 87 0;
#X connect 87 0 34 0;
#X connect 88 0 81 0;
#X connect 90 0 71 0;
#X connect 91 0 76 1;
#X connect 92 0 73 0;
#X connect 93 0 94 0;
#X connect 94 0 77 0;
#X connect 94 0 95 0;
#X connect 95 0 91 0;
#X connect 97 0 96 0;
#X connect 98 0 96 0;
#X connect 99 0 98 2;
#X connect 100 0 98 0;
#X connect 101 0 96 1;
#X connect 102 0 103 0;
#X connect 103 0 97 0;
#X connect 103 0 104 0;
#X connect 104 0 101 0;
#X connect 105 0 106 0;
#X connect 106 0 76 0;
#X connect 107 0 80 0;
#X connect 107 0 100 0;
#X connect 108 0 107 1;
#X connect 108 1 107 2;
#X connect 108 2 107 3;
#X connect 109 0 120 0;
#X connect 109 1 81 0;
#X connect 109 2 110 0;
#X connect 111 0 25 0;
#X connect 112 0 113 0;
#X connect 113 0 114 0;
#X connect 114 0 96 0;
#X connect 115 0 112 0;
#X connect 116 0 118 0;
#X connect 117 0 109 0;
#X connect 118 0 117 0;
#X connect 119 0 36 0;
#X connect 120 0 70 0;
