#N canvas 2139 648 559 381 10;
#X obj 68 197 pack f f;
#X obj 68 155 t a b;
#X obj 68 220 unpack f f;
#X obj 68 269 pack f f;
#X obj 68 291 line;
#X obj 14 28 hsl 100 15 0 1 0 0 \$1-\$2-val \$1-\$2-val empty 5 8 0 10 #fcc4c4 #000000 #000000 0 1;
#X obj 68 247 clip 0 100;
#X obj 122 29 nbx 3 14 0 100 0 0 \$1-\$2-val \$1-\$2-val empty 0 -8 0 10 #fcfcfc #000000 #000000 0 256;
#X msg 181 267 stop;
#X obj 286 349 s MONITOR;
#X obj 286 302 f;
#X obj 260 69 r reSend;
#X msg 100 175 0;
#X obj 429 123 r STOPLAMPS;
#X msg 429 145 0;
#X obj 68 80 r CONTROL;
#X obj 68 102 route \$1 stop;
#X obj 135 247 * 1;
#X obj 68 128 route \$2;
#X obj 68 314 s \$1-\$2-val;
#X obj 286 326 list prepend \$1-\$2;
#X obj 313 94 r \$1-\$2-val;
#X obj 429 167 s \$1-\$2-val;
#X obj 335 223 s \$1-toTeleco;
#X obj 335 198 list prepend \$2;
#X connect 0 0 2 0;
#X connect 1 0 0 0;
#X connect 1 1 12 0;
#X connect 2 0 6 0;
#X connect 2 1 17 0;
#X connect 3 0 4 0;
#X connect 4 0 19 0;
#X connect 6 0 3 0;
#X connect 8 0 4 0;
#X connect 10 0 20 0;
#X connect 11 0 10 0;
#X connect 12 0 0 1;
#X connect 13 0 14 0;
#X connect 14 0 22 0;
#X connect 15 0 16 0;
#X connect 16 0 18 0;
#X connect 16 1 8 0;
#X connect 17 0 3 1;
#X connect 18 0 1 0;
#X connect 20 0 9 0;
#X connect 21 0 10 0;
#X connect 21 0 24 0;
#X connect 24 0 23 0;
#X coords 0 -1 1 1 150 34 1 10 10;
