#N canvas 798 110 487 489 10;
#N canvas 85 80 951 688 Rond 0;
#X obj 39 190 r \$0-rond1-head;
#X obj 80 4 gemhead 40;
#X obj 365 239 pix_texture;
#X obj 172 360 pix_texture;
#X obj 197 439 rotate 5 0 0 1;
#X floatatom 240 411 5 0 0 0 - - - 0;
#X obj 39 226 t a a;
#X obj 39 264 separator;
#X obj 147 260 separator;
#X obj 19 575 circle 0.2;
#X obj 75 49 t a a;
#X obj 469 251 gemhead;
#X obj 463 336 pix_texture;
#X obj 370 182 r \$0-rond2-head;
#X obj 431 210 r \$0-rond1-tex;
#X floatatom 135 468 5 0 0 0 - - - 0;
#X msg 222 25 color 0 0 0 1;
#X obj 464 280 alpha;
#X obj 382 556 alpha;
#X obj 72 25 alpha;
#X obj 235 337 r \$0-rond2-tex;
#X obj 365 213 separator;
#X obj 453 309 color 1 1 1 1;
#X obj 359 540 tgl 15 0 empty empty empty 17 7 0 10 #fcfcfc #000000 #000000 0 1;
#X floatatom 301 509 5 0 0 0 - - - 0;
#X obj 137 317 color 1 1 1 1;
#X msg 305 430 quality \$1;
#X obj 307 409 tgl 15 0 empty empty empty 17 7 0 10 #fcfcfc #000000 #000000 0 1;
#X msg 392 141 quality \$1;
#X obj 394 120 tgl 15 0 empty empty empty 17 7 0 10 #fcfcfc #000000 #000000 0 1;
#X msg 347 30 type BYTE;
#X obj 39 319 t a a;
#X floatatom 67 411 5 0 0 0 - - - 0;
#X obj 109 406 separator;
#X obj 9 397 t a a a;
#X obj 31 453 separator;
#X obj 26 433 rotate 180 0 0 1;
#X msg 233 204 env \$1;
#X obj 234 184 hradio 15 1 0 6 empty empty empty 0 -6 0 8 #fcfcfc #000000 #000000 0;
#X obj 340 356 rotate 5 0 0 1;
#X obj 338 292 color 1 1 1 1;
#X floatatom 369 316 5 0 0 0 - - - 0;
#X floatatom 410 462 5 0 0 0 - - - 0;
#X obj 494 52 tgl 15 0 empty empty empty 17 7 0 10 #fcfcfc #000000 #000000 0 1;
#X obj 284 376 * -1;
#X obj 70 128 gemFB \$0-rond2 1024 1024 FLOAT RGB 0 0 0 1;
#X obj 110 83 gemFB \$0-rond1 1024 1024 FLOAT RGB 1 1 1 1;
#X obj 548 225 r \$0-anle;
#X msg 282 237 1 1 1 1;
#X obj 535 270 r \$0-rond2-tex;
#X msg 222 258 0.995 1 0.998 1;
#X msg 205 281 0.992 0.998 0.992 1;
#X obj 20 372 spigot 1;
#X obj 96 367 spigot 1;
#X obj 94 334 f;
#X obj 91 308 tgl 15 0 empty empty empty 17 7 0 10 #fcfcfc #000000 #000000 0 1;
#X floatatom 86 540 5 0 0 0 - - - 0;
#X obj 603 532 /;
#X obj 603 510 swap 180;
#X obj 640 358 pow 2;
#X obj 638 402 + 1;
#X obj 639 382 * 6;
#X obj 692 -9 r \$0-clock;
#X obj 679 288 hsl 128 15 0 1 0 0 empty empty empty -2 -8 0 10 #fcfcfc #000000 #000000 0 1;
#X floatatom 734 494 5 0 0 0 - - - 0;
#X obj 692 17 unpack f f;
#X obj 693 225 line;
#X msg 847 149 -1 \, 1 \$1;
#X obj 598 567 +;
#X obj 708 397 t b f;
#X floatatom 727 578 5 0 0 0 - - - 0;
#X obj 692 197 pack f f;
#X obj 886 249 * 2;
#X obj 886 272 - 1;
#X obj 599 595 f;
#X obj 587 442 + 1;
#X obj 462 383 rotate 0 0 0 1;
#X obj 558 59 unpack f f;
#X obj 562 195 line;
#X msg 585 162 0 \, -180 \$1;
#X obj 374 417 square 3.93;
#X obj 559 141 pack f f;
#X obj 558 115 * 180;
#X obj 764 386 swap 1000;
#X obj 761 414 /;
#X obj 770 461 s \$0-tempo;
#X floatatom 496 79 5 0 0 0 - - - 0;
#X obj 765 314 + 0.05;
#X floatatom 672 335 5 0 0 0 - - - 0;
#X obj 512 474 + 3.93;
#X obj 514 447 * 0.09;
#X obj 38 286 color 1 0 0 1;
#X msg 603 465 \$1 2000;
#X floatatom 557 425 5 0 0 0 - - - 0;
#X obj 766 342 * 6;
#X obj 29 512 translate 3.5 1 0 0;
#X obj 636 432 adjust 5;
#X obj 604 487 line;
#X obj 889 90 change;
#X floatatom 874 347 5 0 0 0 - - - 0;
#X obj 814 5 r \$0-sign;
#X obj 816 26 + 1;
#X obj 811 -8 hradio 15 1 0 8 empty empty empty 0 -8 0 10 #fcfcfc #000000 #000000 0;
#X obj 886 228 tgl 15 0 empty empty empty 17 7 0 10 #fcfcfc #000000 #000000 0 1;
#X obj 688 46 demux;
#X obj 726 44 != 1;
#X obj 688 73 b;
#X msg 688 162 1;
#X obj 697 122 del;
#X msg 700 142 0;
#X obj 770 196 pack f f;
#X obj 767 136 %;
#X obj 764 163 == 0;
#X floatatom 730 249 5 0 0 0 - - - 0;
#X obj 183 466 square 3.8;
#X obj 675 267 r \$0-DieselSpeed;
#X floatatom 461 499 5 0 0 0 - - - 0;
#X floatatom 466 530 5 0 0 0 - - - 0;
#X text 529 562 4.8;
#X text 499 563 -8;
#X obj 382 520 gemhead 10;
#X floatatom 512 597 5 0 0 0 - - - 0;
#X obj 382 626 circle 0.1;
#X obj 382 584 translateXYZ -4 0 0.01;
#X obj 462 412 circle 3;
#X obj 462 362 translateXYZ;
#X obj 552 310 nbx 5 14 -1e+37 1e+37 0 1 empty empty empty 0 -8 0 10 #fcfcfc #000000 #000000 1.81 256;
#X obj 570 337 nbx 5 14 -1e+37 1e+37 0 1 empty empty empty 0 -8 0 10 #fcfcfc #000000 #000000 0.45 256;
#X floatatom 835 88 5 0 0 0 - - - 0;
#X floatatom 604 291 5 0 0 0 - - - 0;
#X obj 598 -10 ndmetro;
#X floatatom 503 179 8 0 0 0 - - - 0;
#X obj 519 102 / 16;
#X obj 600 17 bng 15 250 50 0 empty empty empty 17 7 0 10 #fcfcfc #000000 #000000;
#X obj 531 -6 loadbang;
#X obj 769 97 * 0.5;
#X floatatom 639 66 5 0 0 0 - - - 0;
#X obj 587 402 * 0.144;
#X obj 583 378 * 0.036;
#X obj 625 103 * 0.5;
#X obj 558 87 / 8;
#X floatatom 638 250 5 0 0 0 - - - 0;
#X msg 540 21 nd 256 2;
#X obj 719 96 * 0.25;
#X obj 707 372 * -4;
#X floatatom 556 363 5 0 0 0 - - - 0;
#X connect 0 0 6 0;
#X connect 1 0 19 0;
#X connect 2 0 40 0;
#X connect 3 0 4 0;
#X connect 4 0 114 0;
#X connect 5 0 4 1;
#X connect 5 0 44 0;
#X connect 6 0 7 0;
#X connect 6 1 8 0;
#X connect 7 0 91 0;
#X connect 8 0 25 0;
#X connect 10 0 46 0;
#X connect 10 1 45 0;
#X connect 11 0 17 0;
#X connect 12 0 125 0;
#X connect 13 0 21 0;
#X connect 14 0 2 1;
#X connect 15 0 95 1;
#X connect 16 0 45 0;
#X connect 16 0 46 0;
#X connect 17 0 22 0;
#X connect 18 0 123 0;
#X connect 19 0 10 0;
#X connect 20 0 3 1;
#X connect 21 0 2 0;
#X connect 22 0 12 0;
#X connect 23 0 120 0;
#X connect 24 0 114 1;
#X connect 25 0 3 0;
#X connect 26 0 3 0;
#X connect 27 0 26 0;
#X connect 28 0 2 0;
#X connect 29 0 28 0;
#X connect 30 0 45 0;
#X connect 30 0 46 0;
#X connect 31 0 52 0;
#X connect 31 1 53 0;
#X connect 32 0 36 1;
#X connect 33 0 95 0;
#X connect 34 0 36 0;
#X connect 35 0 95 0;
#X connect 36 0 35 0;
#X connect 37 0 3 0;
#X connect 37 0 2 0;
#X connect 38 0 37 0;
#X connect 39 0 80 0;
#X connect 40 0 39 0;
#X connect 41 0 39 1;
#X connect 42 0 80 1;
#X connect 43 0 11 0;
#X connect 44 0 39 1;
#X connect 48 0 25 1;
#X connect 49 0 12 1;
#X connect 50 0 25 1;
#X connect 51 0 25 1;
#X connect 52 0 34 0;
#X connect 53 0 33 0;
#X connect 54 0 53 1;
#X connect 54 0 52 1;
#X connect 55 0 54 0;
#X connect 56 0 9 1;
#X connect 57 0 68 0;
#X connect 58 0 57 0;
#X connect 58 1 57 1;
#X connect 59 0 61 0;
#X connect 60 0 96 0;
#X connect 61 0 60 0;
#X connect 62 0 65 0;
#X connect 62 0 77 0;
#X connect 62 0 130 0;
#X connect 63 0 87 0;
#X connect 63 0 88 0;
#X connect 63 0 138 0;
#X connect 65 0 104 0;
#X connect 65 1 67 0;
#X connect 65 1 128 0;
#X connect 65 1 143 0;
#X connect 66 0 90 0;
#X connect 66 0 141 0;
#X connect 66 0 144 0;
#X connect 68 0 74 0;
#X connect 69 0 68 0;
#X connect 69 1 68 1;
#X connect 71 0 66 0;
#X connect 72 0 73 0;
#X connect 73 0 71 0;
#X connect 74 0 39 1;
#X connect 75 0 92 0;
#X connect 76 0 124 0;
#X connect 77 0 86 0;
#X connect 77 0 140 0;
#X connect 77 1 81 1;
#X connect 78 0 76 1;
#X connect 78 0 131 0;
#X connect 79 0 78 0;
#X connect 81 0 78 0;
#X connect 82 0 81 0;
#X connect 83 0 84 0;
#X connect 83 1 84 1;
#X connect 84 0 85 0;
#X connect 84 0 64 0;
#X connect 87 0 94 0;
#X connect 89 0 80 1;
#X connect 90 0 89 0;
#X connect 91 0 31 0;
#X connect 92 0 97 0;
#X connect 93 0 75 0;
#X connect 94 0 83 0;
#X connect 95 0 9 0;
#X connect 96 0 92 0;
#X connect 97 0 58 0;
#X connect 100 0 101 0;
#X connect 101 0 105 0;
#X connect 101 0 111 1;
#X connect 102 0 101 0;
#X connect 103 0 72 0;
#X connect 104 0 106 0;
#X connect 104 1 111 0;
#X connect 105 0 104 1;
#X connect 106 0 107 0;
#X connect 106 0 108 0;
#X connect 107 0 71 0;
#X connect 108 0 109 0;
#X connect 109 0 71 0;
#X connect 110 0 66 0;
#X connect 111 0 112 0;
#X connect 111 0 99 0;
#X connect 112 0 110 0;
#X connect 115 0 63 0;
#X connect 116 0 123 1;
#X connect 117 0 123 2;
#X connect 121 0 123 3;
#X connect 123 0 122 0;
#X connect 125 0 76 0;
#X connect 126 0 125 1;
#X connect 127 0 125 2;
#X connect 129 0 125 1;
#X connect 130 0 133 0;
#X connect 134 0 142 0;
#X connect 138 0 93 0;
#X connect 139 0 81 1;
#X connect 140 0 82 0;
#X connect 142 0 130 0;
#X connect 143 0 108 1;
#X connect 143 0 71 1;
#X connect 143 0 110 1;
#X connect 144 0 69 0;
#X connect 145 0 125 1;
#X restore 230 84 pd Rond;
#X obj 98 390 s \$0-clock;
#X obj 99 327 pack f f;
#X obj 88 231 t f f;
#X msg 87 260 tempo \$1 \, bang;
#X obj 99 289 ndmetro 1e+06 1;
#X floatatom 43 404 5 0 0 0 - - - 0;
#X msg 164 194 0;
#X msg 84 200 500;
#X obj 125 134 loadbang;
#X obj 107 161 t b b;
#X msg 55 169 200;
#X obj 33 135 r \$0-tempo;
#N canvas 197 80 962 688 olds 0;
#X obj 33 260 world_light;
#X msg 289 127 bang;
#X obj 289 107 metro 500;
#X obj 289 89 tgl 15 0 empty empty empty 0 -6 0 8 #fcfcfc #000000 #000000 0 1;
#X obj 810 28 gemhead -1;
#X obj 810 149 pix_snap2tex;
#X msg 855 125 0 0;
#X msg 901 124 500 500;
#X obj 855 102 t b b;
#X obj 810 109 t b a;
#X obj 810 187 alpha;
#X floatatom 983 177 5 0 0 0 - - - 0;
#X obj 988 29 vsl 15 128 0 1 0 0 empty empty empty 0 -8 0 8 #fcfcfc #000000 #000000 0 1;
#X obj 810 211 colorRGB 1 1 1 0.888;
#X obj 33 236 gemhead;
#X obj 855 83 loadbang;
#N canvas 436 433 749 590 moving 0;
#X obj 193 81 gemhead;
#X obj 276 67 t b b;
#X obj 276 104 random 100;
#X obj 230 109 inlet;
#X obj 453 495 teapot;
#X obj 276 181 / 100;
#X obj 276 201 * 8;
#X obj 276 221 - 4;
#X obj 375 104 random 100;
#X obj 375 181 / 100;
#X obj 375 201 * 8;
#X obj 375 221 - 4;
#X obj 276 159 line 50 10;
#X obj 375 159 line 50 10;
#X obj 480 151 gemhead;
#X obj 485 223 b;
#X obj 485 291 +;
#X floatatom 380 303 5 0 0 0 - - - 0;
#X obj 528 361 *;
#X obj 554 303 pi;
#X obj 523 288 wrap;
#X obj 554 327 * 2;
#X obj 556 282 loadbang;
#X obj 560 260 bng 15 250 50 0 empty empty empty 17 7 0 10 #fcfcfc #000000 #000000;
#X obj 529 381 cos;
#X obj 619 295 +;
#X obj 662 365 *;
#X obj 688 307 pi;
#X obj 657 292 wrap;
#X obj 688 331 * 2;
#X obj 690 286 loadbang;
#X obj 694 264 bng 15 250 50 0 empty empty empty 17 7 0 10 #fcfcfc #000000 #000000;
#X obj 663 385 sin;
#X floatatom 489 470 5 0 0 0 - - - 0;
#X obj 486 260 f 0.001;
#X obj 619 261 f 0.001;
#X obj 586 215 unpack f f;
#X msg 599 152 0.001 0.00314159;
#X msg 562 120 0.001 0.001;
#X msg 584 76 0.002 0.00314159;
#X obj 169 43 inlet;
#X msg 463 45 0.005 0.0071416;
#X obj 531 408 * 2;
#X obj 661 407 * 2;
#X msg 567 40 0.01 0.0191416;
#X obj 193 389 translateXYZ 0 0 0;
#X msg 502 9 0.02 0.0271416;
#X msg 352 451 0.3;
#X obj 456 181 spigot 1;
#X obj 518 192 tgl 15 0 empty empty empty 17 7 0 10 #fcfcfc #000000 #000000 0 1;
#X msg 369 356 0;
#X obj 195 570 rectangle 0.01 0.1;
#X msg 314 347 0.2;
#X obj 76 364 rotateXYZ 0 0 180;
#X obj 187 303 t a a;
#X obj 234 344 separator;
#X obj 144 331 separator;
#X obj 144 520 rectangle 0.01 0.04;
#X obj 392 29 inlet;
#X obj 359 254 del 200;
#X obj 276 135 pack 0 50;
#X obj 375 135 pack 0 50;
#X msg 308 256 0;
#X msg 350 276 1;
#X floatatom 209 486 5 0 0 0 - - - 0;
#X floatatom 262 466 5 0 0 0 - - - 0;
#X obj 136 455 rotateXYZ 0 0 0;
#X floatatom 184 428 5 0 0 0 - - - 0;
#X obj 253 541 circle 0.015;
#X msg 334 497 0.05;
#X floatatom 381 482 5 0 0 0 - - - 0;
#X obj 187 276 colorRGB 1 1 1 1;
#X floatatom 281 305 5 0 0 0 - - - 0;
#X floatatom 196 201 5 0 0 0 - - - 0;
#X floatatom 227 224 5 0 0 0 - - - 0;
#X floatatom 261 244 5 0 0 0 - - - 0;
#X connect 1 0 2 0;
#X connect 1 1 8 0;
#X connect 2 0 60 0;
#X connect 3 0 59 0;
#X connect 3 0 62 0;
#X connect 5 0 6 0;
#X connect 5 0 71 1;
#X connect 6 0 7 0;
#X connect 8 0 61 0;
#X connect 9 0 10 0;
#X connect 9 0 71 2;
#X connect 10 0 11 0;
#X connect 12 0 5 0;
#X connect 13 0 9 0;
#X connect 14 0 48 0;
#X connect 15 0 34 0;
#X connect 15 0 35 0;
#X connect 16 0 20 0;
#X connect 17 0 45 1;
#X connect 18 0 24 0;
#X connect 19 0 21 0;
#X connect 20 0 16 1;
#X connect 20 0 18 0;
#X connect 21 0 18 1;
#X connect 22 0 19 0;
#X connect 24 0 42 0;
#X connect 25 0 28 0;
#X connect 26 0 32 0;
#X connect 27 0 29 0;
#X connect 28 0 25 1;
#X connect 28 0 26 0;
#X connect 29 0 26 1;
#X connect 30 0 27 0;
#X connect 32 0 43 0;
#X connect 34 0 16 0;
#X connect 35 0 25 0;
#X connect 36 0 34 1;
#X connect 36 1 35 1;
#X connect 37 0 36 0;
#X connect 38 0 36 0;
#X connect 39 0 36 0;
#X connect 40 0 71 0;
#X connect 41 0 36 0;
#X connect 42 0 33 0;
#X connect 42 0 45 1;
#X connect 43 0 45 2;
#X connect 44 0 36 0;
#X connect 45 0 66 0;
#X connect 46 0 36 0;
#X connect 47 0 68 1;
#X connect 48 0 15 0;
#X connect 49 0 48 1;
#X connect 50 0 45 2;
#X connect 52 0 45 1;
#X connect 53 0 45 0;
#X connect 54 0 56 0;
#X connect 54 1 55 0;
#X connect 55 0 45 0;
#X connect 56 0 53 0;
#X connect 59 0 63 0;
#X connect 60 0 12 0;
#X connect 61 0 13 0;
#X connect 62 0 71 1;
#X connect 63 0 71 1;
#X connect 64 0 57 1;
#X connect 65 0 57 2;
#X connect 66 0 68 0;
#X connect 67 0 66 3;
#X connect 69 0 68 1;
#X connect 70 0 68 1;
#X connect 71 0 54 0;
#X connect 72 0 71 4;
#X connect 73 0 71 1;
#X connect 74 0 71 2;
#X connect 75 0 71 3;
#X restore 247 154 pd moving object;
#X obj 740 190 t a a;
#X obj 741 227 separator;
#X obj 722 293 separator;
#X obj 423 101 gemframebuffer;
#X obj 541 113 gemhead;
#X obj 543 172 pix_texture;
#X obj 400 51 gemhead 20;
#X obj 542 140 alpha;
#X obj 320 250 t a a;
#X obj 369 241 separator;
#X obj 238 207 separator;
#X obj 384 307 pix_texture;
#X obj 321 227 alpha;
#X obj 397 438 gemframebuffer;
#X msg 397 413 dimen 1024 768;
#X obj 395 535 pix_texture;
#X obj 291 565 colorRGB 1 1 1;
#X obj 396 502 translateXYZ 0 0 -4;
#X obj 382 392 gemhead 15;
#X obj 385 357 square 4;
#X obj 385 287 rotateXYZ 0 0 -0.5;
#X obj 812 289 circle 4;
#X obj 412 571 square 4.01;
#X obj 385 329 colorRGB 1 0.99 0.99 0.99;
#X obj 253 366 separator;
#X obj 174 424 spigot;
#X obj 263 409 tgl 15 0 empty empty empty 17 7 0 10 #fcfcfc #000000 #000000 0 1;
#X obj 382 157 translateXYZ 0 0 -4;
#X msg 290 436 0;
#X msg 193 378 1;
#X obj 157 335 metro 500;
#X obj 147 315 tgl 15 0 empty empty empty 17 7 0 10 #fcfcfc #000000 #000000 0 1;
#X msg 512 547 3.99;
#X obj 592 492 * 2;
#X obj 593 511 - 1;
#X obj 588 530 * 0.01;
#X obj 577 383 tgl 15 0 empty empty empty 17 7 0 10 #fcfcfc #000000 #000000 0 1;
#X obj 667 457 hsl 128 15 0 1 0 0 empty empty empty -2 -8 0 10 #fcfcfc #000000 #000000 0 1;
#X obj 662 494 pow 3;
#X obj 620 428 line3;
#X floatatom 512 409 5 0 0 0 - - - 0;
#X obj 197 286 f;
#X obj 614 404 pack f 500;
#X msg 174 239 300;
#X msg 144 255 150;
#X obj 504 615 rotateXYZ 0 0 0;
#X obj 469 306 unpack f f f f;
#X obj 620 265 t a;
#X msg 646 187 1 0 1 1;
#X msg 512 56 dimen 1024 1024;
#X obj 818 257 rotateXYZ 0 0 0;
#X floatatom 941 246 5 0 0 0 - - - 0;
#X obj 699 371 rotateXYZ 0 0 0;
#X floatatom 1013 669 5 0 0 0 - - - 0;
#X obj 828 426 line;
#X obj 707 398 square 7;
#X msg 626 221 1 0.999 0.999 1;
#X msg 512 517 4.05;
#X obj 587 554 + 4.1;
#X obj 16 619 rectangle 1 6;
#X obj 26 574 colorRGB 1 0 0;
#X obj 34 522 gemhead;
#X floatatom 104 428 5 0 0 0 - - - 0;
#X floatatom 60 597 5 0 0 0 - - - 0;
#X obj 139 613 hsl 128 15 0 127 0 0 empty empty empty -2 -8 0 10 #fcfcfc #000000 #000000 0 1;
#X msg 497 266 -2;
#X obj 160 536 circle 0.03;
#X floatatom 215 140 5 0 0 0 - - - 0;
#X obj 245 122 sel 0;
#X obj 213 95 counter 4;
#X msg 848 388 0 \, -40000 1e+06;
#X obj 162 501 translateXYZ -0.5 0 0;
#X obj 483 35 t a;
#X msg 312 503 quality \$1;
#X obj 312 484 tgl 15 0 empty empty empty 0 -6 0 8 #fcfcfc #000000 #000000 0 1;
#X msg 853 340 0 \, -400000 1e+06;
#X msg 863 359 0 \, -100000 1e+06;
#X msg 889 427 0;
#X floatatom 494 580 5 0 0 0 - - - 0;
#X floatatom 477 236 5 0 0 0 - - - 0;
#X msg 678 271 1 1 1 1;
#X msg 315 448 quality \$1;
#X obj 315 429 tgl 15 0 empty empty empty 0 -6 0 8 #fcfcfc #000000 #000000 0 1;
#X msg 534 467 0;
#X msg 630 117 1 0.999 0.995 0.995;
#X msg 530 441 -0.0001;
#X msg 392 215 env \$1;
#X obj 393 195 hradio 15 1 0 6 empty empty empty 0 -6 0 8 #fcfcfc #000000 #000000 0;
#X msg 343 636 env \$1;
#X obj 344 616 hradio 15 1 0 6 empty empty empty 0 -6 0 8 #fcfcfc #000000 #000000 0;
#X floatatom 542 240 5 0 0 0 - - - 0;
#X floatatom 586 316 5 0 0 0 - - - 0;
#X obj 880 477 tgl 15 0 empty empty empty 17 7 0 10 #fcfcfc #000000 #000000 0 1;
#X msg 654 565 color 1 1 1;
#X msg 657 599 color 1 1 0;
#X obj 880 507 metro 300;
#X floatatom 411 264 5 0 0 0 - - - 0;
#X floatatom 437 220 5 0 0 0 - - - 0;
#X floatatom 196 480 5 0 0 0 - - - 0;
#X obj 170 452 colorRGB 1 0 0;
#X floatatom 246 540 5 0 0 0 - - - 0;
#X msg 657 625 color 0 0 0.2;
#X obj 872 656 alpha;
#X obj 872 749 rectangle 0.03 20;
#X floatatom 1028 715 5 0 0 0 - - - 0;
#X obj 873 719 translate -0.1 0 0 1;
#X obj 872 622 gemhead 40;
#X obj 641 342 colorRGB 1 1 1 0.8;
#X obj 399 127 alpha;
#X obj 394 471 alpha;
#X msg 666 48 color 0 0 0.3 0.5;
#X msg 692 79 color 0.2 0.5 0 0.5;
#X msg 491 12 dimen 1024 1024 \, type FLOAT \, format RGBA;
#X msg 660 145 1 0.999 0.995 0.99;
#X floatatom 765 332 5 0 0 0 - - - 0;
#X obj 875 689 colorRGB 0 1 0 1;
#X msg 566 338 0.998;
#X msg 647 692 color 0 0 0 1;
#X obj 980 461 drunk;
#X msg 924 476 30;
#X msg 818 599 \$1 300;
#X floatatom 1073 456 5 0 0 0 - - - 0;
#X obj 1073 525 /;
#X obj 1073 503 swap 180;
#X obj 880 560 / 10000;
#X obj 969 575 pow 2;
#X floatatom 823 554 5 0 0 0 - - - 0;
#X floatatom 1084 572 5 0 0 0 - - - 0;
#X obj 1006 607 + 1;
#X obj 1010 633 adjust 7;
#X obj 968 599 * 6;
#X obj 880 535 drunk 10000 100;
#X obj 815 628 line3;
#X obj 598 110 tgl 15 0 empty empty empty 17 7 0 10 #fcfcfc #000000 #000000 0 1;
#X obj 806 662 s \$0-anle;
#X connect 1 0 16 1;
#X connect 2 0 1 0;
#X connect 3 0 2 0;
#X connect 5 0 10 0;
#X connect 6 0 5 1;
#X connect 7 0 5 2;
#X connect 8 0 6 0;
#X connect 8 1 7 0;
#X connect 9 0 5 0;
#X connect 9 1 5 0;
#X connect 10 0 13 0;
#X connect 11 0 13 4;
#X connect 12 0 11 0;
#X connect 13 0 67 0;
#X connect 15 0 8 0;
#X connect 17 0 19 0;
#X connect 17 1 18 0;
#X connect 18 0 9 0;
#X connect 20 0 125 0;
#X connect 20 1 32 1;
#X connect 22 0 124 0;
#X connect 24 0 22 0;
#X connect 25 0 27 0;
#X connect 25 0 41 0;
#X connect 25 1 26 0;
#X connect 26 0 37 0;
#X connect 27 0 16 0;
#X connect 28 0 40 0;
#X connect 29 0 25 0;
#X connect 30 0 126 0;
#X connect 30 1 28 1;
#X connect 30 1 22 1;
#X connect 31 0 30 0;
#X connect 32 0 39 0;
#X connect 33 0 39 0;
#X connect 34 0 32 0;
#X connect 37 0 28 0;
#X connect 40 0 36 0;
#X connect 41 0 42 0;
#X connect 42 0 45 0;
#X connect 42 0 116 0;
#X connect 43 0 42 1;
#X connect 44 0 29 0;
#X connect 45 0 42 1;
#X connect 46 0 42 1;
#X connect 47 0 46 0;
#X connect 47 0 53 0;
#X connect 47 0 86 0;
#X connect 48 0 47 0;
#X connect 49 0 39 1;
#X connect 50 0 51 0;
#X connect 51 0 52 0;
#X connect 52 0 75 0;
#X connect 53 0 59 0;
#X connect 54 0 55 0;
#X connect 55 0 52 1;
#X connect 56 0 50 0;
#X connect 57 0 34 1;
#X connect 58 0 47 1;
#X connect 58 0 59 1;
#X connect 59 0 56 0;
#X connect 60 0 58 0;
#X connect 61 0 58 0;
#X connect 63 0 40 1;
#X connect 63 1 40 2;
#X connect 63 2 40 3;
#X connect 63 3 40 4;
#X connect 64 0 63 0;
#X connect 65 0 64 0;
#X connect 66 0 20 0;
#X connect 66 0 30 0;
#X connect 67 0 38 0;
#X connect 68 0 67 3;
#X connect 69 0 72 0;
#X connect 71 0 69 3;
#X connect 73 0 64 0;
#X connect 74 0 39 1;
#X connect 77 0 76 0;
#X connect 79 0 76 2;
#X connect 80 0 76 1;
#X connect 82 0 37 3;
#X connect 85 0 16 1;
#X connect 86 0 84 0;
#X connect 86 0 85 0;
#X connect 87 0 71 0;
#X connect 88 0 83 0;
#X connect 89 0 20 0;
#X connect 89 0 30 0;
#X connect 90 0 32 0;
#X connect 91 0 90 0;
#X connect 92 0 71 0;
#X connect 93 0 71 0;
#X connect 94 0 71 0;
#X connect 95 0 39 1;
#X connect 96 0 37 3;
#X connect 97 0 64 0;
#X connect 98 0 28 0;
#X connect 99 0 98 0;
#X connect 100 0 34 1;
#X connect 101 0 64 0;
#X connect 102 0 34 1;
#X connect 103 0 28 0;
#X connect 104 0 103 0;
#X connect 105 0 32 0;
#X connect 106 0 105 0;
#X connect 107 0 40 1;
#X connect 108 0 40 4;
#X connect 109 0 112 0;
#X connect 110 0 30 0;
#X connect 111 0 30 0;
#X connect 112 0 148 0;
#X connect 113 0 37 1;
#X connect 113 0 37 2;
#X connect 114 0 37 2;
#X connect 115 0 88 1;
#X connect 116 0 88 0;
#X connect 117 0 83 1;
#X connect 118 0 30 0;
#X connect 119 0 132 0;
#X connect 121 0 122 1;
#X connect 122 0 120 0;
#X connect 124 0 69 0;
#X connect 125 0 44 0;
#X connect 126 0 34 0;
#X connect 127 0 20 0;
#X connect 128 0 20 0;
#X connect 129 0 89 0;
#X connect 130 0 64 0;
#X connect 131 0 124 4;
#X connect 132 0 122 0;
#X connect 133 0 40 4;
#X connect 134 0 30 0;
#X connect 136 0 112 1;
#X connect 137 0 149 0;
#X connect 138 0 140 0;
#X connect 139 0 137 0;
#X connect 140 0 139 0;
#X connect 140 1 139 1;
#X connect 141 0 142 0;
#X connect 142 0 147 0;
#X connect 145 0 146 0;
#X connect 146 0 140 0;
#X connect 147 0 145 0;
#X connect 148 0 141 0;
#X connect 149 0 37 3;
#X connect 149 0 151 0;
#X connect 150 0 21 0;
#X restore 218 10 pd olds;
#X msg 37 37 frame \$1;
#X floatatom 37 19 5 0 0 0 - - - 0;
#N canvas 827 587 827 260 Gem.init 1;
#X obj 57 27 loadbang;
#X obj 108 204 outlet;
#X msg 108 140 reset \, frame 100 \, lighting 1;
#X msg 42 143 reset;
#X msg 218 173 view 0 0 3;
#X obj 55 48 t b b;
#X msg 9 96 1;
#X obj 7 116 s \$0-gemstart;
#X obj 9 73 del 1000;
#X obj 366 114 t b b;
#X msg 320 162 1;
#X obj 318 182 s \$0-gemstart;
#X obj 320 139 del 1000;
#X obj 471 18 gemkeyname;
#X obj 470 43 pack f s;
#X msg 467 64 \$2 \$1;
#X obj 465 86 route F11;
#X obj 467 107 sel 1;
#X msg 380 144 0 \, destroy \, reset \, dimen 1280 480 \, border 1 \, cursor 1 \, frame 30 \, lighting 0 \, offset 0 0 \, view 0 0 3;
#X msg 141 116 destroy;
#X obj 32 18 bng 15 250 50 0 empty empty empty 17 7 0 10 #fcfcfc #000000 #000000;
#X msg 130 20 reset \, dimen 2560 960 \, border 0 \, cursor 0 \, frame 30 \, lighting 0 \, offset 0 0 \, view 0 0 3;
#X msg 81 74 reset \, dimen 2732 768 \, border 0 \, cursor 0 \, frame 30 \, lighting 0 \, offset 0 0 \, view 0 0 3;
#X connect 0 0 5 0;
#X connect 2 0 1 0;
#X connect 3 0 1 0;
#X connect 4 0 1 0;
#X connect 5 0 8 0;
#X connect 5 1 22 0;
#X connect 6 0 7 0;
#X connect 8 0 6 0;
#X connect 9 0 12 0;
#X connect 9 1 18 0;
#X connect 10 0 11 0;
#X connect 12 0 10 0;
#X connect 13 0 14 0;
#X connect 13 1 14 1;
#X connect 14 0 15 0;
#X connect 15 0 16 0;
#X connect 16 0 17 0;
#X connect 17 0 9 0;
#X connect 18 0 1 0;
#X connect 19 0 1 0;
#X connect 20 0 5 0;
#X connect 22 0 1 0;
#X restore 90 49 pd Gem.init;
#N canvas 329 152 682 322 gemwin 0;
#X obj 102 122 tgl 15 0 \$0-gemstart \$0-gemstart empty 17 7 0 10 #fcfcfc #000000 #000000 0 1;
#X obj 102 161 r \$0-gemstart;
#X obj 102 182 select 1 0;
#X msg 202 214 destroy;
#X obj 102 239 t a;
#X obj 318 54 inlet;
#X obj 318 255 gemwin;
#X obj 318 100 t a a;
#X obj 318 287 outlet;
#X obj 350 128 route create destroy;
#X obj 350 150 t b;
#X msg 350 172 1;
#X obj 390 150 t b;
#X msg 390 172 0;
#X obj 350 195 t f;
#X msg 350 219 set \$1;
#X text 118 122 rendering;
#X msg 102 214 create :0.0 \, 1;
#X connect 1 0 2 0;
#X connect 2 0 17 0;
#X connect 2 1 3 0;
#X connect 3 0 4 0;
#X connect 4 0 7 0;
#X connect 5 0 7 0;
#X connect 6 0 8 0;
#X connect 7 0 6 0;
#X connect 7 1 9 0;
#X connect 9 0 10 0;
#X connect 9 1 12 0;
#X connect 10 0 11 0;
#X connect 11 0 14 0;
#X connect 12 0 13 0;
#X connect 13 0 14 0;
#X connect 14 0 15 0;
#X connect 15 0 0 0;
#X connect 17 0 4 0;
#X coords 0 -1 1 1 85 40 1 100 100;
#X restore 37 79 pd gemwin;
#N canvas 378 80 768 688 Oscill 0;
#X obj 90 14 gemhead 40;
#X obj 85 59 t a a;
#X msg 232 35 color 0 0 0 1;
#X obj 82 35 alpha;
#X obj 375 249 pix_texture;
#X obj 138 345 pix_texture;
#X obj 49 236 t a a;
#X obj 49 274 separator;
#X obj 139 279 separator;
#X obj 528 257 gemhead;
#X obj 601 398 pix_texture;
#X obj 523 286 alpha;
#X obj 375 223 separator;
#X msg 154 230 quality \$1;
#X obj 156 209 tgl 15 0 empty empty empty 17 7 0 10 #fcfcfc #000000 #000000 0 1;
#X msg 402 151 quality \$1;
#X obj 404 130 tgl 15 0 empty empty empty 17 7 0 10 #fcfcfc #000000 #000000 0 1;
#X obj 49 329 t a a;
#X msg 243 214 env \$1;
#X obj 244 194 hradio 15 1 0 6 empty empty empty 0 -6 0 8 #fcfcfc #000000 #000000 0;
#X obj 504 62 tgl 15 0 empty empty empty 17 7 0 10 #fcfcfc #000000 #000000 0 1;
#X obj 25 402 spigot 1;
#X obj 51 177 r \$0-osc1-head;
#X obj 201 322 r \$0-osc2-tex;
#X obj 441 221 r \$0-osc1-tex;
#X obj 380 192 r \$0-osc2-head;
#X obj 639 374 r \$0-osc2-tex;
#X obj 28 379 color 0 1 0 1;
#X msg 245 263 0.992 0.992 0.992 1;
#X obj 41 856 scopeXYZ 2048;
#X obj 266 796 ac;
#X obj 224 687 bang~;
#X msg 226 711 0;
#X obj 483 731 block~ 2048;
#X msg 376 781 44100;
#X floatatom 392 842 5 0 0 0 - - - 0;
#X obj 376 803 / 2048;
#X obj 267 756 phasor~ 21.53;
#X obj 70 742 osc~ 35;
#X obj 106 785 osc~ 51;
#X floatatom 105 757 5 0 0 0 - - - 0;
#X obj 137 366 translate -4 0 0 1;
#X floatatom 299 694 5 0 0 0 - - - 0;
#X obj 83 208 ortho;
#X obj 138 388 square 7.95;
#X obj 153 858 hsl 128 15 0 1 0 0 empty empty empty -2 -8 0 10 #fcfcfc #000000 #000000 0 1;
#X obj 57 653 +~ 134;
#X obj 36 581 osc~ 0.1;
#X floatatom 399 325 5 0 0 0 - - - 0;
#X floatatom 44 560 5 0 0 0 - - - 0;
#X obj 187 801 *~ 4;
#X obj 187 822 -~ 0;
#X msg 316 840 \$1 2000;
#X obj 316 868 line;
#X floatatom 324 822 5 0 0 0 - - - 0;
#X msg 87 607 \$1 2000;
#X obj 87 630 line;
#X floatatom 89 587 5 0 0 0 - - - 0;
#X obj 189 754 osc~ 42.6877;
#X msg 295 300 1 1 1 1;
#X obj 451 814 / 100;
#X obj 449 788 counter 100;
#X obj 523 332 t a a;
#X obj 601 335 separator;
#X obj 574 546 separator;
#X obj 608 582 r \$0-clock;
#X obj 663 531 unpack f f;
#X msg 663 550 0 \, 1 \$1;
#X obj 575 739 translate 0 0 1 0;
#X obj 347 302 color 0.99 0.99 0.99 1;
#X msg 357 40 type FLOAT;
#X obj 31 359 separator;
#X obj 601 355 color 1 1 1 1;
#X obj 138 301 color 0.97 0.97 0.97 1;
#X obj 111 437 r \$0-clock;
#X obj 112 463 unpack f f;
#X msg 145 548 0 \, 1 \$1;
#X obj 594 674 line;
#X obj 145 570 line;
#X obj 122 717 f;
#X obj 112 527 pack f f;
#X obj 113 491 / 4;
#X obj 181 463 r \$0-sign;
#X obj 178 485 + 1;
#X obj 591 606 unpack f f;
#X obj 593 655 pack f f;
#X obj 592 634 / 4;
#X obj 660 606 r \$0-sign;
#X obj 657 628 + 1;
#X obj 595 696 wrap;
#X obj 119 93 gemFB \$0-osc1 512 512 FLOAT RGB 0 0 0 1;
#X obj 79 138 gemFB \$0-osc2 512 512 FLOAT RGB 0 0 0 1;
#X obj 347 359 translate -0.05 1 0 0;
#X obj 191 598 r \$0-GeneSpeed;
#X obj 193 624 hsl 128 15 0 1 0 0 empty empty empty -2 -8 0 10 #fcfcfc #000000 #000000 0 1;
#X obj 363 635 hsl 128 15 0 1 0 0 empty empty empty -2 -8 0 10 #fcfcfc #000000 #000000 0 1;
#X obj 361 608 r \$0-CompSpeed;
#X obj 98 811 *~ 0.8;
#X obj 317 530 r \$0-DieselSpeed;
#X obj 139 811 *~ 1;
#X obj 188 647 maxlib/scale 0 1 0 200;
#X obj 358 658 maxlib/scale 0 1 0 200;
#X obj 322 551 pow 2;
#X obj 701 648 * 3.14159;
#X obj 741 687 * 2;
#X obj 700 691 cos;
#X obj 69 780 *~ 2;
#X obj 608 716 maxlib/scale -1 1 -2.8 2.8;
#X obj 348 384 square 4;
#X obj 667 424 nbx 5 14 -1e+37 1e+37 0 1 empty empty empty 0 -8 0 10 #fcfcfc #000000 #000000 2.15 256;
#X obj 576 273 nbx 5 14 -1e+37 1e+37 0 1 empty empty empty 0 -8 0 10 #fcfcfc #000000 #000000 -4.38 256;
#X obj 641 273 nbx 5 14 -1e+37 1e+37 0 1 empty empty empty 0 -8 0 10 #fcfcfc #000000 #000000 0.36 256;
#X obj 524 309 translateXYZ;
#X obj 601 423 square 3;
#X obj 366 452 color 0.55 0.1 0.5 1;
#X obj 238 407 r \$0-CompSpeed;
#X obj 266 431 r \$0-GeneSpeed;
#X obj 256 478 pack f f;
#X obj 266 454 t b f;
#X msg 240 520 \$1 1 \$2 1;
#X obj 247 497 speedlim 50;
#X floatatom 613 222 5 0 0 0 - - - 0;
#X floatatom 663 229 5 0 0 0 - - - 0;
#X obj 574 794 rectangle 4 0.05;
#X obj 574 764 color 1 0.1 0 0.9;
#X connect 0 0 3 0;
#X connect 1 0 90 0;
#X connect 1 1 91 0;
#X connect 2 0 90 0;
#X connect 2 0 91 0;
#X connect 3 0 1 0;
#X connect 4 0 69 0;
#X connect 4 0 114 0;
#X connect 5 0 41 0;
#X connect 6 0 7 0;
#X connect 6 1 8 0;
#X connect 7 0 17 0;
#X connect 8 0 73 0;
#X connect 9 0 11 0;
#X connect 10 0 113 0;
#X connect 11 0 112 0;
#X connect 12 0 4 0;
#X connect 13 0 5 0;
#X connect 14 0 13 0;
#X connect 15 0 4 0;
#X connect 16 0 15 0;
#X connect 17 0 71 0;
#X connect 18 0 5 0;
#X connect 18 0 4 0;
#X connect 19 0 18 0;
#X connect 20 0 9 0;
#X connect 21 0 29 0;
#X connect 22 0 6 0;
#X connect 23 0 5 1;
#X connect 24 0 4 1;
#X connect 25 0 12 0;
#X connect 26 0 10 1;
#X connect 27 0 21 0;
#X connect 28 0 69 1;
#X connect 28 0 73 1;
#X connect 31 0 32 0;
#X connect 31 0 79 0;
#X connect 32 0 37 1;
#X connect 32 0 39 1;
#X connect 34 0 36 0;
#X connect 36 0 35 0;
#X connect 37 0 30 0;
#X connect 37 0 50 0;
#X connect 38 0 106 0;
#X connect 39 0 97 0;
#X connect 39 0 99 0;
#X connect 40 0 39 0;
#X connect 41 0 44 0;
#X connect 42 0 37 0;
#X connect 45 0 97 1;
#X connect 48 0 92 1;
#X connect 49 0 47 0;
#X connect 50 0 51 0;
#X connect 51 0 29 1;
#X connect 52 0 53 0;
#X connect 53 0 40 0;
#X connect 54 0 52 0;
#X connect 55 0 56 0;
#X connect 56 0 46 1;
#X connect 57 0 55 0;
#X connect 59 0 73 1;
#X connect 61 0 60 0;
#X connect 62 0 64 0;
#X connect 62 1 63 0;
#X connect 63 0 72 0;
#X connect 64 0 68 0;
#X connect 65 0 84 0;
#X connect 66 1 67 0;
#X connect 68 0 124 0;
#X connect 69 0 92 0;
#X connect 70 0 90 0;
#X connect 70 0 91 0;
#X connect 71 0 27 0;
#X connect 72 0 10 0;
#X connect 73 0 5 0;
#X connect 74 0 75 0;
#X connect 75 0 81 0;
#X connect 75 1 80 1;
#X connect 76 0 78 0;
#X connect 77 0 103 0;
#X connect 78 0 79 1;
#X connect 79 0 38 1;
#X connect 80 0 78 0;
#X connect 81 0 80 0;
#X connect 82 0 83 0;
#X connect 83 0 81 1;
#X connect 84 0 86 0;
#X connect 84 1 85 1;
#X connect 85 0 77 0;
#X connect 86 0 85 0;
#X connect 87 0 88 0;
#X connect 88 0 86 1;
#X connect 89 0 107 0;
#X connect 92 0 108 0;
#X connect 93 0 94 0;
#X connect 94 0 100 0;
#X connect 95 0 101 0;
#X connect 96 0 95 0;
#X connect 97 0 29 1;
#X connect 98 0 102 0;
#X connect 99 0 29 3;
#X connect 100 0 38 0;
#X connect 101 0 39 0;
#X connect 102 0 97 1;
#X connect 103 0 105 0;
#X connect 104 0 105 0;
#X connect 105 0 107 0;
#X connect 106 0 29 2;
#X connect 107 0 68 1;
#X connect 109 0 113 1;
#X connect 110 0 112 1;
#X connect 111 0 112 2;
#X connect 112 0 62 0;
#X connect 115 0 117 0;
#X connect 116 0 118 0;
#X connect 117 0 120 0;
#X connect 118 0 117 0;
#X connect 118 1 117 1;
#X connect 119 0 27 1;
#X connect 120 0 119 0;
#X connect 121 0 112 1;
#X connect 122 0 112 2;
#X connect 124 0 123 0;
#X restore 237 121 pd Oscill;
#X obj 249 318 hradio 15 1 0 8 \$0-sign \$0-sign-rcv sign 0 -8 0 10 #fcfcfc #000000 #000000 0;
#X obj 246 173 hsl 128 15 0 1 0 0 \$0-DieselSpeed \$0-DieselSpeed-rcv DieselSpeed -2 -8 0 10 #fcfcfc #000000 #000000 0 1;
#X obj 248 210 hsl 128 15 0 1 0 0 \$0-GeneSpeed \$0-GeneSpeed-rcv GeneSpeed -2 -8 0 10 #fcfcfc #000000 #000000 0 1;
#X obj 250 254 hsl 128 15 0 1 0 0 \$0-CompSpeed \$0-CompSpeed-rcv CompSpeed -2 -8 0 10 #fcfcfc #000000 #000000 0 1;
#N canvas 193 294 585 327 Client 0;
#X obj 138 39 r \$0-fromserver;
#X obj 138 207 s \$0-DieselSpeed-rcv;
#X obj 170 182 s \$0-GeneSpeed-rcv;
#X obj 202 156 s \$0-CompSpeed-rcv;
#X obj 404 161 s \$0-toclients;
#X obj 404 134 list trim;
#X obj 406 111 list prepend Gem;
#X msg 398 69 DSp \$1;
#X obj 400 42 hsl 128 15 0 1 0 0 empty empty empty -2 -8 0 10 #fcfcfc #000000 #000000 0 1;
#X obj 236 132 s \$0-sign-rcv;
#X obj 258 106 s \$0-clock;
#X obj 138 78 route DSp GSp CSp sign clock general;
#X obj 324 134 s \$0-General;
#X connect 0 0 11 0;
#X connect 5 0 4 0;
#X connect 6 0 5 0;
#X connect 7 0 6 0;
#X connect 8 0 7 0;
#X connect 11 0 1 0;
#X connect 11 1 2 0;
#X connect 11 2 3 0;
#X connect 11 3 9 0;
#X connect 11 4 10 0;
#X connect 11 5 12 0;
#X restore 231 429 pd Client;
#X obj 229 395 PdClient \$0 Gem;
#X obj 333 394 l PdServeur \$0 23456;
#X msg 336 46 \; pd dsp 1;
#X obj 336 26 loadbang;
#N canvas 224 183 450 300 General-fade 0;
#X obj 182 168 color 0 0 0 1;
#X obj 183 130 alpha;
#X obj 181 219 square 20;
#X obj 183 191 translate 1 0 0 1;
#X msg 271 139 0 0 0 \$1;
#X obj 278 120 hsl 128 15 0 1 0 0 empty empty empty -2 -8 0 10 #fcfcfc #000000 #000000 0 1;
#X obj 180 106 gemhead 60;
#X obj 293 12 r \$0-General;
#X obj 292 36 == 0;
#X msg 291 57 \$1 2000;
#X obj 290 77 line;
#X connect 0 0 3 0;
#X connect 1 0 0 0;
#X connect 3 0 2 0;
#X connect 4 0 0 1;
#X connect 5 0 4 0;
#X connect 6 0 1 0;
#X connect 7 0 8 0;
#X connect 8 0 9 0;
#X connect 9 0 10 0;
#X connect 10 0 5 0;
#X restore 314 114 pd General-fade;
#X obj 97 367 spigot;
#X obj 147 365 tgl 15 0 empty empty test_clock 17 7 0 10 #fcfcfc #000000 #000000 0 1;
#N canvas 246 212 450 300 dpms 0;
#X obj 71 106 metro 30000;
#X obj 86 194 system;
#X msg 85 146 echo "/usr/bin/xset -display :0.0 dpms force on -dpms" |at now;
#X obj 175 101 loadbang;
#X connect 0 0 2 0;
#X connect 2 0 1 0;
#X connect 3 0 2 0;
#X restore 84 440 pd dpms;
#N canvas 270 137 590 484 Feu 0;
#X obj -462 98 pix_film;
#X obj -462 134 pix_texture;
#X obj -462 158 t a a;
#X obj -462 194 separator;
#X obj -195 203 separator;
#X obj -425 46 loadbang;
#X floatatom -334 153 5 0 0 0 - - - 0;
#X obj -367 125 bng 15 250 50 0 empty empty empty 17 7 0 10 #fcfcfc #000000 #000000;
#X msg -519 66 auto 1;
#X msg -275 175 0;
#X msg -426 68 open /home/arsene/Datas/feu/feu_gauche.avi \, auto 1;
#X obj -340 126 del 10;
#X obj -462 48 alpha;
#X obj -387 199 r \$0-DieselSpeed;
#X obj -462 23 gemhead 55;
#X obj -462 274 colorRGB 1 1 1 1;
#X obj -439 315 nbx 5 14 -1e+37 1e+37 0 1 empty empty empty 0 -8 0 10 #fcfcfc #000000 #000000 1.6 256;
#X obj -375 314 nbx 5 14 -1e+37 1e+37 0 1 empty empty empty 0 -8 0 10 #fcfcfc #000000 #000000 0.86 256;
#X obj -462 341 translateXYZ -4 0 0;
#X obj -462 365 rectangle 2.5 2;
#X obj -195 349 rectangle 2.5 2;
#X obj -376 229 pow 0.25;
#X floatatom -356 257 5 0 0 0 - - - 0;
#X obj -195 323 translateXYZ 4 0 0;
#X obj -172 296 nbx 5 14 -1e+37 1e+37 0 1 empty empty empty 0 -8 0 10 #fcfcfc #000000 #000000 -4.22 256;
#X obj -108 295 nbx 5 14 -1e+37 1e+37 0 0 empty empty empty 0 -8 0 10 #fcfcfc #000000 #000000 0 256;
#X obj -195 267 colorRGB 1 1 1 1;
#X obj -94 222 pow 0.25;
#X floatatom -74 250 5 0 0 0 - - - 0;
#X floatatom -489 298 5 0 0 0 - - - 0;
#X obj -105 192 r \$0-CompSpeed;
#X connect 0 0 1 0;
#X connect 0 2 7 0;
#X connect 1 0 2 0;
#X connect 2 0 3 0;
#X connect 2 1 4 0;
#X connect 3 0 15 0;
#X connect 4 0 26 0;
#X connect 5 0 10 0;
#X connect 7 0 11 0;
#X connect 8 0 0 0;
#X connect 9 0 0 1;
#X connect 10 0 0 0;
#X connect 11 0 9 0;
#X connect 12 0 0 0;
#X connect 13 0 15 1;
#X connect 13 0 15 2;
#X connect 13 0 15 3;
#X connect 13 0 21 0;
#X connect 14 0 12 0;
#X connect 15 0 18 0;
#X connect 16 0 18 1;
#X connect 17 0 18 2;
#X connect 18 0 19 0;
#X connect 21 0 15 4;
#X connect 21 0 22 0;
#X connect 23 0 20 0;
#X connect 24 0 23 1;
#X connect 25 0 23 2;
#X connect 26 0 23 0;
#X connect 27 0 26 4;
#X connect 27 0 28 0;
#X connect 29 0 18 1;
#X connect 30 0 26 1;
#X connect 30 0 26 2;
#X connect 30 0 26 3;
#X connect 30 0 27 0;
#X restore 315 91 pd Feu;
#X connect 2 0 29 0;
#X connect 3 0 4 0;
#X connect 3 1 2 1;
#X connect 4 0 5 0;
#X connect 5 0 2 0;
#X connect 5 0 6 0;
#X connect 7 0 5 0;
#X connect 8 0 3 0;
#X connect 9 0 10 0;
#X connect 10 0 8 0;
#X connect 10 1 7 0;
#X connect 11 0 3 0;
#X connect 12 0 3 0;
#X connect 14 0 17 0;
#X connect 15 0 14 0;
#X connect 16 0 17 0;
#X connect 27 0 26 0;
#X connect 29 0 1 0;
#X connect 30 0 29 1;
