#N canvas 156 214 1207 502 10;
#X declare -path Infernal/Decoupeur -path Decoupeur;
#X declare -path AutoPreset -path ../AutoPreset;
#X declare -lib libdir -lib ggee -stdpath ggee;
#X declare -lib libdir -lib ggee -stdpath ggee;
#X declare -lib libdir -lib ggee -stdpath ggee;
#X declare -lib libdir -lib ggee -stdpath ggee;
#X declare -lib libdir -lib ggee -stdpath ggee;
#X declare -lib libdir -lib ggee -stdpath ggee;
#X declare -lib libdir -lib ggee -stdpath ggee;
#X declare -lib libdir -lib ggee -stdpath ggee;
#X declare -lib libdir -lib ggee -stdpath ggee;
#X declare -lib libdir -lib ggee -stdpath ggee;
#X obj 103 28 declare -path Infernal/Decoupeur -path Decoupeur;
#X obj 401 117 decoupeur cris decA;
#X obj 104 50 declare -path AutoPreset -path ../AutoPreset;
#X obj 795 28 bng 15 250 50 0 empty empty empty 17 7 0 10 -258113 -1
-1;
#X obj 377 49 apmaster ENFER-SETTING;
#X obj 519 49 apmasterfile ENFER-SETTING ENFER-SETTING.preset;
#X obj 519 27 bng 15 250 50 0 empty empty empty 17 7 0 10 -4034 -1
-1;
#X obj 519 4 loadbang;
#X obj 399 155 decoupeur rales decA;
#X obj 400 187 decoupeur rires decA;
#X obj 711 114 decoupeur_ctl ENFER decA;
#X obj 712 210 decoupeur_ctl ENFER decB;
#X obj 400 222 decoupeur blong1 decB;
#X obj 90 251 sample blong2 blong2;
#X obj 94 119 sample cris cris;
#X obj 92 151 sample rales rales;
#X obj 91 181 sample rires rires;
#X obj 400 248 decoupeur blong2 decB;
#X obj 400 276 decoupeur blong3 decB;
#X obj 90 221 sample blong1 blong1-B;
#X obj 92 281 sample blong3 blong3-B;
#X obj -18 420 hip~ 90;
#X obj 39 421 hip~ 90;
#X obj 651 626 dac~;
#X obj 650 592 *~ 0.2;
#X obj 703 593 *~ 0.2;
#X obj 862 47 pow 3;
#X obj 862 68 s \$0-Master;
#X obj 863 28 r \$1-EnferMaster-snd;
#X floatatom 823 76 5 0 0 0 - - -;
#X obj 36 625 ../lout \$0 \$1 1;
#X obj 143 627 ../lout \$0 \$1 2;
#X obj 241 631 ../lout \$0 \$1 3;
#X obj 335 633 ../lout \$0 \$1 4;
#X obj 143 528 lop~ 1000;
#X obj 207 532 lop~ 1000;
#X obj 158 565 rev3~ 100 92 1000 60;
#X obj 423 472 submaster \$0-cris;
#X obj 427 454 hsl 128 15 0 1 0 1 empty empty empty -2 -8 0 10 -262144
-1 -1 2540 1;
#X obj 927 186 loadbang;
#X obj 927 210 tgl 15 0 empty empty empty 17 7 0 10 -262144 -1 -1 1
1;
#X obj 927 255 s \$0-metro;
#X obj 475 381 hsl 128 15 0 1 0 1 \$0-cris-proba empty cris-proba -2
-8 0 10 -262144 -1 -1 0 1;
#X obj 472 324 r \$1-Comp-speed;
#X floatatom 410 370 5 0 0 0 - - -;
#X floatatom 428 342 5 0 0 0 - - -;
#X obj 471 348 * 0.5;
#X obj 424 406 * 0.4;
#X obj 424 428 + 0.2;
#X obj 647 378 hsl 128 15 0 1 0 1 \$0-rires-proba empty rires-proba
-2 -8 0 10 -262144 -1 -1 0 1;
#X obj 572 455 hsl 128 15 0 1 0 1 empty empty empty -2 -8 0 10 -262144
-1 -1 7540 1;
#X obj 568 473 submaster \$0-rires;
#X obj 1012 278 playerCris \$0 cris;
#X obj 552 540 *~ 0.3;
#X obj 643 320 r \$1-debitVanne;
#X obj 790 319 hsl 128 15 0 1 0 1 \$0-blong1-proba empty blong1-proba
-2 -8 0 10 -262144 -1 -1 2300 1;
#X obj -13 370 hsl 128 15 0 1 0 1 empty empty empty -2 -8 0 10 -262144
-1 -1 10640 1;
#X obj 790 349 hsl 128 15 0 1 0 1 \$0-blong2-proba empty blong2-proba
-2 -8 0 10 -262144 -1 -1 2300 1;
#X obj -17 388 submaster \$0-blong1;
#X obj 139 365 hsl 128 15 0 1 0 1 empty empty empty -2 -8 0 10 -262144
-1 -1 10640 1;
#X obj 135 383 submaster \$0-blong2;
#X obj 132 412 hip~ 90;
#X obj 189 413 hip~ 90;
#X obj 646 565 l stretcher criStr rales;
#X obj 732 397 playerBlong \$0 blong1;
#X obj 902 292 r \$1-Diesel-speed;
#X floatatom 938 327 5 0 0 0 - - -;
#X obj 947 372 min 1;
#X obj -17 444 *~ 0.6;
#X obj 39 443 *~ 0.6;
#X obj 133 436 *~ 0.6;
#X obj 189 436 *~ 0.6;
#X msg 984 322 0;
#X obj 947 353 + 0.1;
#X obj 552 518 hip~ 2000;
#X obj 927 231 metro 200;
#X obj 868 436 playerBlong \$0 blong2;
#X obj 733 417 playerBlong \$0 blong1;
#X obj 734 439 playerBlong \$0 blong1;
#X obj 868 397 playerBlong \$0 blong2;
#X obj 867 417 playerBlong \$0 blong2;
#X obj 733 458 playerBlong \$0 blong1;
#X obj 734 478 playerBlong \$0 blong1;
#X obj 735 500 playerBlong \$0 blong1;
#X obj 869 458 playerBlong \$0 blong2;
#X obj 868 478 playerBlong \$0 blong2;
#X obj 869 497 playerBlong \$0 blong2;
#X obj 1013 406 playerCris \$0 rires;
#X obj 1012 297 playerCris \$0 cris;
#X obj 1013 316 playerCris \$0 cris;
#X obj 1013 335 playerCris \$0 cris;
#X obj 1013 426 playerCris \$0 rires;
#X obj 1013 447 playerCris \$0 rires;
#X obj 1014 467 playerCris \$0 rires;
#X obj 1014 487 playerCris \$0 rires;
#X obj 1014 508 playerCris \$0 rires;
#X obj 1014 355 playerCris \$0 cris;
#X obj 1014 374 playerCris \$0 cris;
#X obj 840 536 playerCris \$0 rales;
#X obj 274 415 hsl 128 15 0 1 0 1 empty empty empty -2 -8 0 10 -262144
-1 -1 9240 1;
#X obj 270 433 submaster \$0-rales;
#X obj 845 584 hsl 128 15 0 1 0 1 \$0-rales-proba empty rales-proba
-2 -8 0 10 -262144 -1 -1 2200 1;
#X obj 302 462 hip~ 2000;
#X obj 301 486 *~ 0.1;
#X connect 3 0 5 1;
#X connect 6 0 5 0;
#X connect 7 0 6 0;
#X connect 21 0 68 0;
#X connect 22 0 69 0;
#X connect 24 0 23 0;
#X connect 25 0 23 1;
#X connect 26 0 27 0;
#X connect 26 0 29 0;
#X connect 28 0 26 0;
#X connect 34 0 36 0;
#X connect 35 0 36 1;
#X connect 36 0 30 0;
#X connect 36 1 31 0;
#X connect 36 2 32 0;
#X connect 36 3 33 0;
#X connect 37 0 31 0;
#X connect 37 1 32 0;
#X connect 37 2 35 0;
#X connect 38 0 37 0;
#X connect 39 0 40 0;
#X connect 40 0 75 0;
#X connect 43 0 45 0;
#X connect 43 0 46 0;
#X connect 46 0 42 0;
#X connect 46 0 44 0;
#X connect 46 0 47 0;
#X connect 47 0 48 0;
#X connect 48 0 38 0;
#X connect 50 0 51 0;
#X connect 51 0 33 0;
#X connect 51 1 32 0;
#X connect 51 2 74 0;
#X connect 53 0 36 1;
#X connect 54 0 49 0;
#X connect 55 0 57 0;
#X connect 56 0 58 0;
#X connect 58 0 21 0;
#X connect 58 1 22 0;
#X connect 58 2 34 0;
#X connect 59 0 60 0;
#X connect 60 0 61 0;
#X connect 60 1 62 0;
#X connect 60 2 35 0;
#X connect 61 0 70 0;
#X connect 62 0 71 0;
#X connect 65 0 66 0;
#X connect 65 0 73 0;
#X connect 67 0 55 0;
#X connect 68 0 30 0;
#X connect 69 0 33 0;
#X connect 70 0 31 0;
#X connect 71 0 32 0;
#X connect 72 0 73 0;
#X connect 73 0 67 0;
#X connect 74 0 53 0;
#X connect 75 0 41 0;
#X connect 99 0 100 0;
#X connect 100 0 30 0;
#X connect 100 2 102 0;
#X connect 102 0 103 0;
#X connect 103 0 36 0;
