#N canvas 0 80 450 152 10;
#X obj 24 31 catch~ \$1-l;
#X obj 129 32 catch~ \$1-r;
#X obj 235 32 catch~ \$1-rev;
#X obj 23 66 *~;
#X obj 129 61 *~;
#X obj 236 59 *~;
#X obj 331 36 inlet vol;
#X obj 332 60 pow 2;
#X obj 23 91 outlet~;
#X obj 129 86 outlet~;
#X obj 235 85 outlet~;
#X connect 0 0 3 0;
#X connect 1 0 4 0;
#X connect 2 0 5 0;
#X connect 3 0 8 0;
#X connect 4 0 9 0;
#X connect 5 0 10 0;
#X connect 6 0 7 0;
#X connect 7 0 5 1;
#X connect 7 0 4 1;
#X connect 7 0 3 1;
