#N canvas 839 371 819 674 12;
#X msg 414 415 c 30 i \$1 c \$2;
#X obj 22 37 fruit/fruit 1 sapin1 100 sapinFw;
#X obj 164 483 fruit/send2 sapin1;
#X obj 618 52 r 2DMX;
#X obj 651 84 s \$0-chans;
#X obj 164 119 tgl 15 0 empty empty empty 17 7 0 10 -262144 -1 -1 1
1;
#X obj 164 139 metro 10;
#X obj 595 26 table \$0-chans 513;
#X obj 195 188 f 20;
#X obj 250 242 +;
#X obj 284 219 moses 64;
#X obj 284 244 f;
#X obj 218 243 i;
#X obj 195 215 t f b f;
#X obj 195 275 until;
#X obj 195 300 i;
#X obj 231 301 + 1;
#X obj 195 327 tabread \$0-chans;
#X obj 164 404 list store;
#X msg 195 352 append c \$1;
#X obj 164 165 t b b;
#X msg 337 243 1;
#X obj 164 429 list trim;
#X obj 164 92 loadbang;
#X obj 618 124 list prepend 0;
#X obj 618 149 route 0 1;
#X obj 87 496 print;
#X msg 460 85 1 255 \, 2 0 \, 3 0;
#X obj 570 344 tabread \$0-chans;
#X msg 572 317 3;
#X floatatom 570 369 5 0 0 0 - - -;
#X msg 357 186 64;
#X msg 302 172 5;
#X msg 262 380 list c 31 c \$1;
#X msg 238 180 20;
#X msg 238 149 26;
#X floatatom 410 11 5 0 255 0 - - -;
#X obj 378 70 s 2DMX;
#X msg 410 43 35 \$1;
#X obj 481 205 print;
#X connect 0 0 2 0;
#X connect 3 0 24 0;
#X connect 3 0 4 0;
#X connect 5 0 6 0;
#X connect 5 0 24 1;
#X connect 6 0 20 0;
#X connect 8 0 13 0;
#X connect 9 0 10 0;
#X connect 10 0 11 0;
#X connect 10 1 21 0;
#X connect 11 0 12 1;
#X connect 12 0 9 0;
#X connect 12 0 15 1;
#X connect 12 0 33 0;
#X connect 13 0 14 0;
#X connect 13 1 12 0;
#X connect 13 2 9 1;
#X connect 14 0 15 0;
#X connect 15 0 16 0;
#X connect 15 0 17 0;
#X connect 16 0 15 1;
#X connect 17 0 19 0;
#X connect 18 0 22 0;
#X connect 19 0 18 0;
#X connect 20 0 18 0;
#X connect 20 1 8 0;
#X connect 21 0 11 0;
#X connect 22 0 2 0;
#X connect 23 0 5 0;
#X connect 24 0 25 0;
#X connect 25 0 0 0;
#X connect 28 0 30 0;
#X connect 29 0 28 0;
#X connect 31 0 10 1;
#X connect 32 0 10 1;
#X connect 33 0 18 1;
#X connect 34 0 8 1;
#X connect 35 0 8 1;
#X connect 36 0 38 0;
#X connect 38 0 37 0;
