#N canvas 543 62 1268 684 12;
#X obj 33 20 inlet;
#X obj 33 51 separator;
#X obj 65 533 text2d, f 18;
#X floatatom 255 527 5 0 0 0 - - - 0;
#X msg 105 476 font lcd-bold.ttf;
#X obj 145 37 route text show;
#X obj 208 374 loadbang;
#X obj 941 572 loadbang;
#X msg 811 653 10;
#X obj 811 678 list tosymbol;
#X obj 325 49 del 2000;
#X msg 325 74 0;
#X obj 331 12 bng 20 250 50 0 empty empty empty 0 -10 0 12 #fcfcfc #000000 #000000;
#X msg 290 75 1;
#X obj 290 100 change;
#X obj 290 125 t f f;
#X obj 290 182 tgl 20 0 empty empty empty 0 -10 0 12 #fcfcfc #000000 #000000 0 1;
#X msg 371 181 0;
#X obj 371 156 b;
#X obj 290 157 metro 200;
#X obj 145 12 r Warning;
#X obj 631 336 list prepend text;
#X obj 631 361 list trim;
#X obj 610 428 r fromAudio;
#X obj 603 496 s Warning;
#X obj 603 471 route warning diesel gene comp, f 52;
#X obj 783 499 * 2;
#X obj 873 500 * 4;
#X obj 705 536 +;
#X obj 737 535 t b f;
#X obj 783 533 +;
#X obj 815 532 t b f;
#X obj 705 561 moses 1;
#X obj 769 564 moses 2;
#X obj 831 564 moses 4;
#X msg 705 586 0;
#X msg 770 589 1;
#X msg 830 589 2;
#X msg 876 590 3;
#X obj 705 625 change;
#X obj 705 679 list append;
#X obj 705 708 route 0 1 2, f 31;
#X obj 705 829 symbol;
#X obj 705 652 hradio 20 1 0 3 empty empty empty 0 -10 0 12 #fcfcfc #000000 #000000 0;
#X obj 776 786 symbol;
#X obj 705 881 t a;
#X obj 847 740 symbol;
#X msg 705 856 text MOTEUR DIESEL A L'ARRET !\$1\$1VEUILLEZ LE DEMARRER.;
#X msg 776 813 text PUISSANCE ELECTRIQUE INSUFFISANTE !\$1\$1VEUILLEZ DEMARRER LA TURBINE.;
#X msg 847 767 text CA MANQUE DE PRESSION !\$1\$1VEUILLEZ DEMARRER LE COMPRESSEUR.;
#X obj 811 626 t b b;
#X msg 773 628 0;
#X msg 145 442 font VCR_OSD_MONO_1.001.ttf;
#N canvas 239 542 436 195 shader 0;
#X obj 37 37 inlet;
#X obj 37 101 outlet;
#N canvas 601 276 804 667 _glsl 0;
#X obj 80 426 glsl_program;
#X obj 343 250 bng 15 250 50 0 empty empty empty 0 -6 0 8 #fcfcfc #000000 #000000;
#N canvas 0 22 450 300 open 0;
#X obj 75 103 openpanel;
#X obj 75 173 outlet;
#X obj 75 127 t b s;
#X msg 105 152 set open \$1;
#X obj 75 80 inlet;
#X connect 0 0 2 0;
#X connect 2 0 1 0;
#X connect 2 1 3 0;
#X connect 3 0 1 0;
#X connect 4 0 0 0;
#X restore 286 249 pd open;
#X msg 33 296 print;
#X obj 166 331 change;
#X msg 34 420 print;
#X obj 80 310 glsl_fragment;
#X floatatom 166 355 2 0 0 0 ID - - 0;
#X obj 184 400 print linking;
#X obj 13 52 inlet;
#X obj 80 462 outlet;
#X msg 286 273 open \$1;
#X obj 422 77 inlet;
#X obj 13 75 route bang;
#X obj 140 83 bng 15 250 50 0 empty empty empty 17 7 0 10 #fcfcfc #000000 #000000;
#X obj 140 109 t b b;
#X obj 255 11 gemhead 1;
#X msg 255 33 1;
#X obj 255 57 change;
#X obj 255 81 t b;
#X obj 161 452 change;
#X obj 161 473 t b;
#X obj 161 496 outlet;
#X msg 166 379 link \$1;
#X obj 80 193 t a a;
#X obj 140 133 symbol VCR;
#X msg 93 273 open ../shaders/\$1.frag;
#X connect 0 0 10 0;
#X connect 0 1 20 0;
#X connect 1 0 2 0;
#X connect 2 0 11 0;
#X connect 3 0 6 0;
#X connect 4 0 7 0;
#X connect 5 0 0 0;
#X connect 6 0 0 0;
#X connect 6 1 4 0;
#X connect 7 0 23 0;
#X connect 9 0 13 0;
#X connect 11 0 6 0;
#X connect 12 0 0 0;
#X connect 13 0 15 0;
#X connect 13 1 24 0;
#X connect 14 0 15 0;
#X connect 15 0 25 0;
#X connect 16 0 17 0;
#X connect 17 0 18 0;
#X connect 18 0 19 0;
#X connect 19 0 15 0;
#X connect 20 0 21 0;
#X connect 21 0 22 0;
#X connect 23 0 0 0;
#X connect 23 0 8 0;
#X connect 24 1 6 0;
#X connect 25 0 26 0;
#X connect 26 0 6 0;
#X restore 37 70 pd _glsl;
#X obj 218 105 t a;
#X obj 131 32 r toShader;
#X obj 90 32 bng 20 250 50 0 empty empty empty 0 -10 0 12 #fcfcfc #000000 #000000;
#X msg 218 79 delta \$1;
#X obj 219 55 / 1000;
#X floatatom 219 31 5 0 0 0 - - - 0;
#X connect 0 0 2 0;
#X connect 2 0 1 0;
#X connect 3 0 2 1;
#X connect 4 0 2 1;
#X connect 5 0 2 0;
#X connect 6 0 3 0;
#X connect 7 0 6 0;
#X connect 8 0 7 0;
#X restore 55 358 pd shader;
#X obj 65 169 gemframebuffer;
#X obj 65 201 translateXYZ 0 0 -4;
#X obj 55 385 pix_texture;
#X floatatom 267 240 5 0 0 0 - - - 0;
#X obj 194 279 circle 1;
#X obj 65 233 colorRGB 1 1 1 0;
#X obj 33 90 alpha;
#X msg 99 137 dimen 640 480 \, format RGBA;
#X floatatom 193 301 5 0 0 0 - - - 0;
#X obj 33 118 t a a a;
#X obj 16 600 pix_texture;
#X obj 55 409 rectangle 4 4;
#X obj 56 305 gemframebuffer;
#X obj 55 331 translateXYZ 0 0 -4;
#X obj 98 109 loadbang;
#X msg 295 314 dimen 320 240 \, format RGB;
#X obj 16 624 rectangle 1.4 1;
#X obj 631 23 r fromAudio;
#X obj 631 48 route warning;
#X obj 631 73 fudiformat -u;
#X obj 631 97 t b a b;
#X obj 654 125 list split 1;
#X obj 694 149 t a;
#X text 703 175 #;
#X msg 654 198 10;
#X obj 654 248 t a a;
#X obj 631 283 list;
#X obj 654 223 list append;
#X obj 654 173 sel 35;
#X obj 631 308 list tosymbol;
#X msg 240 475 40;
#X connect 0 0 1 0;
#X connect 1 0 60 0;
#X connect 3 0 2 1;
#X connect 4 0 2 0;
#X connect 5 1 12 0;
#X connect 6 0 84 0;
#X connect 6 0 52 0;
#X connect 7 0 50 0;
#X connect 8 0 9 0;
#X connect 9 0 40 1;
#X connect 10 0 11 0;
#X connect 11 0 14 0;
#X connect 12 0 10 0;
#X connect 12 0 13 0;
#X connect 13 0 14 0;
#X connect 14 0 15 0;
#X connect 15 0 19 0;
#X connect 15 1 18 0;
#X connect 16 0 59 4;
#X connect 17 0 16 0;
#X connect 18 0 17 0;
#X connect 19 0 16 0;
#X connect 20 0 5 0;
#X connect 21 0 22 0;
#X connect 22 0 2 0;
#X connect 22 0 12 0;
#X connect 25 0 24 0;
#X connect 25 1 28 0;
#X connect 25 2 26 0;
#X connect 25 3 27 0;
#X connect 26 0 30 0;
#X connect 27 0 31 0;
#X connect 28 0 32 0;
#X connect 29 0 28 0;
#X connect 29 1 28 1;
#X connect 30 0 29 0;
#X connect 31 0 30 0;
#X connect 31 1 30 1;
#X connect 32 0 35 0;
#X connect 32 1 33 0;
#X connect 33 0 36 0;
#X connect 33 1 34 0;
#X connect 34 0 37 0;
#X connect 34 1 38 0;
#X connect 35 0 39 0;
#X connect 36 0 39 0;
#X connect 37 0 39 0;
#X connect 38 0 39 0;
#X connect 39 0 43 0;
#X connect 40 0 41 0;
#X connect 41 0 42 0;
#X connect 41 1 44 0;
#X connect 41 2 46 0;
#X connect 42 0 47 0;
#X connect 43 0 40 0;
#X connect 44 0 48 0;
#X connect 45 0 2 0;
#X connect 46 0 49 0;
#X connect 47 0 45 0;
#X connect 48 0 45 0;
#X connect 49 0 45 0;
#X connect 50 0 51 0;
#X connect 50 1 8 0;
#X connect 51 0 43 0;
#X connect 52 0 2 0;
#X connect 53 0 56 0;
#X connect 54 0 55 0;
#X connect 54 1 56 1;
#X connect 55 0 59 0;
#X connect 56 0 65 0;
#X connect 57 0 58 1;
#X connect 59 0 2 0;
#X connect 60 0 63 0;
#X connect 61 0 54 0;
#X connect 61 0 66 0;
#X connect 62 0 65 2;
#X connect 63 0 64 0;
#X connect 63 1 66 0;
#X connect 63 2 54 0;
#X connect 64 0 70 0;
#X connect 66 0 67 0;
#X connect 66 1 64 1;
#X connect 67 0 53 0;
#X connect 68 0 61 0;
#X connect 69 0 66 0;
#X connect 69 0 54 0;
#X connect 71 0 72 0;
#X connect 72 0 73 0;
#X connect 73 0 74 0;
#X connect 74 0 80 0;
#X connect 74 1 75 0;
#X connect 74 2 81 1;
#X connect 75 0 82 0;
#X connect 75 1 76 0;
#X connect 76 0 75 0;
#X connect 78 0 81 0;
#X connect 79 0 80 1;
#X connect 79 1 81 1;
#X connect 80 0 83 0;
#X connect 81 0 79 0;
#X connect 82 0 78 0;
#X connect 82 1 81 0;
#X connect 83 0 21 0;
#X connect 84 0 3 0;
