#N canvas 696 54 1105 813 12;
#X obj 33 20 inlet;
#X obj 33 51 separator;
#X obj 79 364 text2d, f 18;
#X floatatom 222 370 5 0 0 0 - - - 0;
#X obj 145 37 route text show;
#X obj 100 289 loadbang;
#X obj 365 50 del 2000;
#X msg 365 75 0;
#X obj 371 13 bng 20 250 50 0 empty empty empty 0 -10 0 12 #fcfcfc #000000 #000000;
#X msg 330 76 1;
#X obj 330 101 change;
#X obj 330 126 t f f;
#X obj 330 212 tgl 20 0 empty empty empty 0 -10 0 12 #fcfcfc #000000 #000000 0 1;
#X obj 145 12 r Warning;
#X obj 631 379 list prepend text;
#X obj 631 404 list trim;
#N canvas 239 542 436 195 shader 0;
#X obj 37 37 inlet;
#X obj 37 101 outlet;
#N canvas 601 276 804 667 _glsl 0;
#X obj 80 426 glsl_program;
#X obj 343 250 bng 15 250 50 0 empty empty empty 0 -6 0 8 #fcfcfc #000000 #000000;
#N canvas 0 22 450 300 open 0;
#X obj 75 103 openpanel;
#X obj 75 173 outlet;
#X obj 75 127 t b s;
#X msg 105 152 set open \$1;
#X obj 75 80 inlet;
#X connect 0 0 2 0;
#X connect 2 0 1 0;
#X connect 2 1 3 0;
#X connect 3 0 1 0;
#X connect 4 0 0 0;
#X restore 286 249 pd open;
#X msg 33 296 print;
#X obj 166 331 change;
#X msg 34 420 print;
#X obj 80 310 glsl_fragment;
#X floatatom 166 355 2 0 0 0 ID - - 0;
#X obj 184 400 print linking;
#X obj 13 52 inlet;
#X obj 80 462 outlet;
#X msg 286 273 open \$1;
#X obj 422 77 inlet;
#X obj 13 75 route bang;
#X obj 140 83 bng 15 250 50 0 empty empty empty 17 7 0 10 #fcfcfc #000000 #000000;
#X obj 140 109 t b b;
#X obj 255 11 gemhead 1;
#X msg 255 33 1;
#X obj 255 57 change;
#X obj 255 81 t b;
#X obj 161 452 change;
#X obj 161 473 t b;
#X obj 161 496 outlet;
#X msg 166 379 link \$1;
#X obj 80 193 t a a;
#X obj 140 133 symbol VCR;
#X msg 93 273 open ../shaders/\$1.frag;
#X connect 0 0 10 0;
#X connect 0 1 20 0;
#X connect 1 0 2 0;
#X connect 2 0 11 0;
#X connect 3 0 6 0;
#X connect 4 0 7 0;
#X connect 5 0 0 0;
#X connect 6 0 0 0;
#X connect 6 1 4 0;
#X connect 7 0 23 0;
#X connect 9 0 13 0;
#X connect 11 0 6 0;
#X connect 12 0 0 0;
#X connect 13 0 15 0;
#X connect 13 1 24 0;
#X connect 14 0 15 0;
#X connect 15 0 25 0;
#X connect 16 0 17 0;
#X connect 17 0 18 0;
#X connect 18 0 19 0;
#X connect 19 0 15 0;
#X connect 20 0 21 0;
#X connect 21 0 22 0;
#X connect 23 0 0 0;
#X connect 23 0 8 0;
#X connect 24 1 6 0;
#X connect 25 0 26 0;
#X connect 26 0 6 0;
#X restore 37 70 pd _glsl;
#X obj 218 105 t a;
#X obj 131 32 r toShader;
#X obj 90 32 bng 20 250 50 0 empty empty empty 0 -10 0 12 #fcfcfc #000000 #000000;
#X msg 218 79 delta \$1;
#X obj 219 55 / 1000;
#X floatatom 219 31 5 0 0 0 - - - 0;
#X connect 0 0 2 0;
#X connect 2 0 1 0;
#X connect 3 0 2 1;
#X connect 4 0 2 1;
#X connect 5 0 2 0;
#X connect 6 0 3 0;
#X connect 7 0 6 0;
#X connect 8 0 7 0;
#X restore 55 601 pd shader;
#X obj 79 192 gemframebuffer;
#X obj 79 224 translateXYZ 0 0 -4;
#X obj 55 628 pix_texture;
#X obj 33 115 alpha;
#X msg 783 82 dimen 640 480 \, format RGBA;
#X floatatom 162 653 5 0 0 0 - - - 0;
#X obj 33 143 t a a a;
#X obj 33 716 pix_texture;
#X obj 55 652 rectangle 4 4;
#X obj 56 494 gemframebuffer;
#X obj 55 520 translateXYZ 0 0 -4;
#X obj 783 57 loadbang;
#X obj 33 740 rectangle 1.4 1;
#X obj 564 8 r fromAudio;
#X obj 564 33 route warning;
#X obj 631 86 fudiformat -u;
#X obj 631 110 t b a b;
#X obj 654 138 list split 1;
#X obj 694 162 t a;
#X text 703 188 #;
#X msg 654 211 10;
#X obj 654 261 t a a;
#X obj 631 296 list;
#X obj 654 236 list append;
#X obj 654 186 sel 35;
#X obj 631 351 list tosymbol;
#X obj 768 348 list length;
#X obj 631 324 t a a, f 20;
#X floatatom 768 373 5 0 0 0 - - - 0;
#X obj 768 397 * 20;
#X obj 768 422 + 1500;
#X floatatom 768 447 5 0 0 0 - - - 0;
#X msg 330 183 1;
#X obj 330 158 metro 400, f 14;
#X msg 368 211 0;
#X obj 368 186 del 300;
#X msg 222 345 30;
#X obj 783 108 s \$0-fb;
#X obj 89 166 r \$0-fb;
#X obj 74 468 r \$0-fb;
#X msg 871 110 dimen 320 240 \, format RGBA;
#X obj 55 550 t a a, f 17;
#X obj 55 576 separator;
#X obj 171 574 separator;
#X obj 33 691 colorRGB 1 1 1 1;
#X obj 171 624 rectangle 2 1;
#X obj 202 450 * -1;
#X obj 202 475 +;
#X obj 264 454 * -1;
#X obj 264 479 +;
#X obj 202 421 unpack f f f f f f;
#X obj 202 524 * 0.3;
#X obj 202 500 change;
#X obj 274 516 change;
#X obj 79 256 colorRGB 1 1 1 1;
#X obj 33 83 spigot;
#X obj 171 599 colorRGB 0.4 0 0 0.9;
#X obj 403 544 unpack f f f f f f, f 31;
#X floatatom 403 569 5 0 0 0 - - - 0;
#X floatatom 446 569 5 0 0 0 - - - 0;
#X floatatom 488 569 5 0 0 0 - - - 0;
#X floatatom 531 569 5 0 0 0 - - - 0;
#X floatatom 576 570 5 0 0 0 - - - 0;
#X floatatom 619 570 5 0 0 0 - - - 0;
#X obj 403 515 spigot;
#X obj 448 479 tgl 20 0 empty empty empty 0 -10 0 12 #fcfcfc #000000 #000000 0 1;
#X floatatom 314 698 5 0 0 0 - - - 0;
#X floatatom 217 551 5 0 0 0 - - - 0;
#X msg 359 455 set -1;
#X msg 358 282 justify center center;
#X msg 100 319 font VCR_OSD_MONO_1.001.ttf \, justify center center;
#X obj 490 465 spigot;
#X obj 535 429 tgl 20 0 empty empty empty 0 -10 0 12 #fcfcfc #000000 #000000 0 1;
#X obj 490 490 print;
#X obj 202 395 route bbox height, f 43;
#X floatatom 362 649 5 0 0 0 - - - 0;
#X obj 274 566 * 0.35;
#X floatatom 256 674 5 0 0 0 - - - 0;
#X obj 115 111 tgl 20 0 empty empty empty 0 -10 0 12 #fcfcfc #000000 #000000 0 1;
#X obj 274 541 max 1;
#X obj 564 59 route stop;
#X connect 0 0 1 0;
#X connect 1 0 72 0;
#X connect 2 1 88 0;
#X connect 2 1 91 0;
#X connect 3 0 2 1;
#X connect 4 1 8 0;
#X connect 5 0 53 0;
#X connect 5 0 87 0;
#X connect 6 0 7 0;
#X connect 7 0 10 0;
#X connect 8 0 6 0;
#X connect 8 0 9 0;
#X connect 9 0 10 0;
#X connect 10 0 11 0;
#X connect 11 0 50 0;
#X connect 11 0 72 1;
#X connect 12 0 71 4;
#X connect 13 0 4 0;
#X connect 14 0 15 0;
#X connect 15 0 2 0;
#X connect 15 0 8 0;
#X connect 16 0 19 0;
#X connect 17 0 18 0;
#X connect 17 1 19 1;
#X connect 18 0 71 0;
#X connect 19 0 25 0;
#X connect 20 0 23 0;
#X connect 21 0 54 0;
#X connect 22 0 25 2;
#X connect 23 0 61 0;
#X connect 23 1 26 0;
#X connect 23 2 17 0;
#X connect 24 0 29 0;
#X connect 26 0 27 0;
#X connect 26 1 24 1;
#X connect 27 0 58 0;
#X connect 28 0 21 0;
#X connect 30 0 31 0;
#X connect 31 0 97 0;
#X connect 32 0 33 0;
#X connect 33 0 39 0;
#X connect 33 1 34 0;
#X connect 33 2 40 1;
#X connect 34 0 41 0;
#X connect 34 1 35 0;
#X connect 35 0 34 0;
#X connect 37 0 40 0;
#X connect 38 0 39 1;
#X connect 38 1 40 1;
#X connect 39 0 44 0;
#X connect 40 0 38 0;
#X connect 41 0 37 0;
#X connect 41 1 40 0;
#X connect 42 0 14 0;
#X connect 43 0 45 0;
#X connect 44 0 42 0;
#X connect 44 1 43 0;
#X connect 45 0 46 0;
#X connect 46 0 47 0;
#X connect 47 0 6 1;
#X connect 47 0 48 0;
#X connect 49 0 12 0;
#X connect 50 0 49 0;
#X connect 50 0 52 0;
#X connect 51 0 12 0;
#X connect 52 0 51 0;
#X connect 53 0 3 0;
#X connect 55 0 17 0;
#X connect 56 0 26 0;
#X connect 57 0 54 0;
#X connect 58 0 59 0;
#X connect 58 1 60 0;
#X connect 59 0 16 0;
#X connect 60 0 73 0;
#X connect 61 0 24 0;
#X connect 63 0 64 0;
#X connect 64 0 69 0;
#X connect 65 0 66 0;
#X connect 67 0 63 0;
#X connect 67 1 65 0;
#X connect 67 3 64 1;
#X connect 67 4 66 1;
#X connect 67 4 70 0;
#X connect 68 0 62 1;
#X connect 68 0 84 0;
#X connect 69 0 68 0;
#X connect 70 0 96 0;
#X connect 71 0 2 0;
#X connect 72 0 20 0;
#X connect 73 0 62 0;
#X connect 74 0 75 0;
#X connect 74 1 76 0;
#X connect 74 2 77 0;
#X connect 74 3 78 0;
#X connect 74 4 79 0;
#X connect 74 5 80 0;
#X connect 81 0 74 0;
#X connect 82 0 81 1;
#X connect 85 0 69 0;
#X connect 85 0 70 0;
#X connect 86 0 2 0;
#X connect 87 0 2 0;
#X connect 88 0 90 0;
#X connect 89 0 88 1;
#X connect 91 0 67 0;
#X connect 91 0 81 0;
#X connect 91 1 92 0;
#X connect 93 0 62 2;
#X connect 93 0 83 0;
#X connect 94 0 62 2;
#X connect 95 0 72 1;
#X connect 96 0 93 0;
#X connect 97 0 7 0;
#X connect 97 1 32 0;
