#N canvas 263 39 1012 607 12;
#X declare -path Fraise;
#X obj 37 21 declare -path Fraise;
#X obj 35 136 treuil 1 50;
#X obj 35 198 treuil 2 51;
#X obj 36 261 treuil 3 52;
#X obj 36 323 treuil 4 53;
#X obj 36 386 treuil 5 54;
#X obj 36 448 treuil 6 55;
#X obj 398 293 * 5;
#X obj 380 226 hradio 19 1 0 16 empty empty empty 0 -10 0 12 #fcfcfc #000000 #000000 0;
#X obj 398 317 * 800;
#X obj 398 412 list prepend 1;
#X obj 452 342 hradio 19 1 0 6 empty empty empty 0 -10 0 12 #fcfcfc #000000 #000000 0;
#X obj 452 366 + 1;
#X msg 398 442 \; treuil\$1-dest \$2;
#X floatatom 532 404 5 0 0 0 - - - 0;
#X obj 398 365 / 16;
#X msg 467 145 32;
#X msg 515 151 128;
#X obj 750 163 tgl 15 0 empty empty empty 17 7 0 10 #fcfcfc #000000 #000000 0 1;
#X obj 907 203 * 5;
#X obj 907 227 * 800;
#X obj 907 254 / 16;
#X obj 750 266 * 250;
#X obj 750 290 t b f, f 13;
#X msg 750 378 \; treuil\$1-dest \$2;
#X obj 750 348 list append 1;
#X obj 750 84 tgl 15 0 empty empty empty 17 7 0 10 #fcfcfc #000000 #000000 0 1;
#X obj 420 110 tgl 15 0 empty empty empty 17 7 0 10 #fcfcfc #000000 #000000 0 1;
#X obj 412 145 * 9;
#X obj 750 201 * 9;
#X obj 520 84 timer;
#X floatatom 520 108 8 0 0 0 - - - 0;
#X obj 515 55 bng 15 250 50 0 empty empty empty 17 7 0 10 #fcfcfc #000000 #000000;
#X obj 560 49 bng 15 250 50 0 empty empty empty 17 7 0 10 #fcfcfc #000000 #000000;
#X obj 750 130 metro 55000;
#X obj 600 448 bng 80 250 50 0 TREUIL_STOP TREUIL_STOP TREUILS_STOP 0 -15 0 20 #fc0400 #000000 #000000;
#X obj 747 23 r TREUIL_STOP;
#X msg 747 47 0;
#X msg 871 315 1 \, 2 \, 3 \, 4 \, 5 \, 6;
#X obj 801 449 bng 80 250 50 0 TREUIL_REWIND TREUIL_REWIND TREUILS_REWIND 0 -15 0 20 #f8fc00 #000000 #000000;
#X msg 750 318 1 \, 2 \, 3 \, 4 \, 5 \, 6;
#X msg 838 80 45000;
#X obj 33 52 rem pied/pied 0 41424;
#N canvas -9 14 526 486 interface 0;
#X obj 90 35 r toTreuils;
#X obj 90 235 s TREUIL_STOP;
#X obj 140 211 s TREUIL_REWIND;
#X obj 190 88 unpack f f;
#X obj 90 60 route STOP REWIND GOTO;
#X text 264 61 GOTO is in "tours";
#X obj 257 114 * 250;
#X obj 190 141 pack f f, f 10;
#X msg 190 165 \; treuil\$1-dest \$2;
#X obj 87 304 r Treuils-position;
#X obj 87 329 unpack f f;
#X obj 154 354 / 250;
#X obj 87 380 pack f f, f 10;
#X msg 87 405 POS \$1 \$2;
#X obj 88 430 s fromTreuils;
#X connect 0 0 4 0;
#X connect 3 0 7 0;
#X connect 3 1 6 0;
#X connect 4 0 1 0;
#X connect 4 1 2 0;
#X connect 4 2 3 0;
#X connect 6 0 7 1;
#X connect 7 0 8 0;
#X connect 9 0 10 0;
#X connect 10 0 12 0;
#X connect 10 1 11 0;
#X connect 11 0 12 1;
#X connect 12 0 13 0;
#X connect 13 0 14 0;
#X restore 272 39 pd interface;
#X connect 7 0 9 0;
#X connect 8 0 7 0;
#X connect 9 0 15 0;
#X connect 10 0 13 0;
#X connect 11 0 12 0;
#X connect 12 0 10 1;
#X connect 12 0 14 0;
#X connect 15 0 10 0;
#X connect 16 0 7 0;
#X connect 17 0 7 0;
#X connect 18 0 29 0;
#X connect 19 0 20 0;
#X connect 20 0 21 0;
#X connect 22 0 23 0;
#X connect 23 0 40 0;
#X connect 23 1 25 1;
#X connect 25 0 24 0;
#X connect 26 0 34 0;
#X connect 27 0 28 0;
#X connect 27 0 32 0;
#X connect 28 0 8 0;
#X connect 29 0 22 0;
#X connect 30 0 31 0;
#X connect 32 0 30 0;
#X connect 33 0 30 1;
#X connect 34 0 18 0;
#X connect 36 0 37 0;
#X connect 37 0 26 0;
#X connect 40 0 25 0;
#X connect 41 0 34 1;
