#N canvas 600 303 1061 677 10;
#X declare -path Fraise;
#X obj 22 207 fruit/receive fruit1;
#X msg 247 605 L\$1;
#X obj 247 582 tgl 15 0 empty empty set_LED 18 7 0 10 #00fc04 #000000 #000000 0 1;
#X obj 20 611 fruit/send2 fruit1;
#X obj 19 141 fruit/fruit 1 fruit1 10 ifTreuilFw;
#N canvas 115 75 568 419 plan 1;
#X obj 37 67 tgl 16 0 \$0-Gentree \$0-Gentree entree 0 -8 0 10 #fcfcfc #000000 #000000 0 1;
#X text 53 34 gauche;
#X obj 90 68 tgl 16 0 \$0-Gsortie \$0-Gsortie sortie 0 -8 0 10 #fcfcfc #000000 #000000 0 1;
#X obj 262 64 tgl 16 0 \$0-Dentree \$0-Dentree entree 0 -8 0 10 #fcfcfc #000000 #000000 0 1;
#X obj 315 65 tgl 16 0 \$0-Dsortie \$0-Dsortie sortie 0 -8 0 10 #fcfcfc #000000 #000000 0 1;
#X text 278 31 droit;
#X obj 168 65 tgl 16 0 \$0-stabilo \$0-stabilo stabilo 0 -8 0 10 #fcfcfc #000000 #000000 0 1;
#X obj 376 41 tgl 16 0 \$0-Gled \$0-Gled gauche 0 -8 0 10 #faff00 #000000 #000000 0 1;
#X obj 420 42 tgl 16 0 \$0-Dled \$0-Dled droit 0 -8 0 10 #faff00 #000000 #000000 0 1;
#X obj 375 83 tgl 16 0 \$0-manut \$0-manut manut 0 -8 0 10 #fcfcfc #000000 #000000 0 1;
#X obj 421 83 tgl 16 0 \$0-route \$0-route route 0 -8 0 10 #fcfcfc #000000 #000000 0 1;
#X text 372 137 inverseur;
#X obj 381 171 tgl 16 0 \$0-iav \$0-iav avant 0 -8 0 10 #fcfcfc #000000 #000000 0 1;
#X obj 381 204 tgl 16 0 \$0-iar \$0-iar arriere 0 -8 0 10 #fcfcfc #000000 #000000 0 1;
#X obj 41 161 tgl 16 0 \$0-Rled \$0-Rled route 0 -8 0 10 #faff00 #000000 #000000 0 1;
#X obj 140 161 tgl 16 0 \$0-MAled \$0-MAled marche 0 -8 0 10 #faff00 #000000 #000000 0 1;
#X obj 223 160 tgl 16 0 \$0-Mled \$0-Mled manut 0 -8 0 10 #faff00 #000000 #000000 0 1;
#X obj 52 233 tgl 16 0 \$0-MA \$0-MA marche/arret 0 -8 0 10 #fcfcfc #000000 #000000 0 1;
#X obj 176 234 tgl 16 0 \$0-MR \$0-MR manut/route 0 -8 0 10 #fcfcfc #000000 #000000 0 1;
#X text 75 327 11 switches;
#X text 77 349 5 leds;
#X restore 158 13 pd plan;
#X obj 22 228 route s;
#X obj 38 511 r \$0-Rled;
#X msg 38 532 0 \$1;
#X obj 103 512 r \$0-MAled;
#X msg 103 533 1 \$1;
#X msg 177 534 2 \$1;
#X msg 242 535 3 \$1;
#X msg 315 534 4 \$1;
#X obj 177 513 r \$0-Mled;
#X obj 242 513 r \$0-Gled;
#X obj 315 513 r \$0-Dled;
#X msg 125 584 l\$1\$2;
#X obj 22 311 route 0 1 2 3 4 5 6 7 8 9 10, f 54;
#X obj 22 249 unpack f f;
#X obj 22 290 pack f f, f 10;
#X obj 51 443 s \$0-Gentree;
#X obj 22 467 s \$0-Gsortie;
#X obj 109 399 s \$0-stabilo;
#X obj 182 248 unpack f f;
#X floatatom 182 269 5 0 0 0 - - - 0;
#X floatatom 238 270 5 0 0 0 - - - 0;
#X obj 167 350 s \$0-Dentree;
#X obj 138 372 s \$0-Dsortie;
#X obj 320 336 s \$0-manut;
#X obj 266 375 s \$0-route;
#X obj 80 422 s \$0-MA;
#X obj 226 419 s \$0-MR;
#X obj 292 355 s \$0-iav;
#X obj 248 397 s \$0-iar;
#X obj 79 270 != 0;
#X obj 429 470 i;
#X obj 429 491 + 1;
#X obj 429 512 mod 5;
#X obj 429 533 t b f, f 8;
#X msg 429 554 0 \, 1 \, 2 \, 3 \, 4;
#X obj 429 575 t f f;
#X obj 427 626 pack f f;
#X obj 443 397 tgl 16 0 empty empty empty 0 -8 0 10 #fcfcfc #000000 #000000 0 1;
#X obj 429 449 metro 80;
#X obj 455 595 !=;
#X obj 20 38 rem pied/pied 0 41424;
#X obj 21 16 declare -path Fraise;
#X obj 443 309 r IfTreuil-rcv;
#X obj 239 51 r \$0-Gsortie;
#X obj 323 50 r \$0-Gentree;
#X obj 409 51 r \$0-MA;
#X obj 463 49 r \$0-stabilo;
#X obj 548 47 r \$0-Dsortie;
#X obj 633 45 r \$0-Dentree;
#X obj 719 45 r \$0-MR;
#X obj 770 45 r \$0-iar;
#X obj 890 43 r \$0-route;
#X obj 830 45 r \$0-iav;
#X obj 964 43 r \$0-manut;
#X msg 239 74 Gsortie \$1;
#X msg 323 73 Gentree \$1;
#X msg 409 74 MA \$1;
#X msg 463 72 stabilo \$1;
#X msg 548 70 Dsortie \$1;
#X msg 633 68 Dentree \$1;
#X msg 719 68 MR \$1;
#X msg 770 68 iar \$1;
#X msg 830 68 iav \$1;
#X msg 890 66 route \$1;
#X msg 964 66 manut \$1;
#X obj 543 126 s IfTreuil-snd;
#X obj 547 405 s \$0-Rled;
#X obj 616 358 s \$0-MAled;
#X obj 581 378 s \$0-Mled;
#X obj 502 451 s \$0-Gled;
#X obj 527 428 s \$0-Dled;
#X obj 443 332 route led Gled Dled Rled Mled MAled;
#X connect 0 0 6 0;
#X connect 1 0 3 1;
#X connect 2 0 1 0;
#X connect 6 0 19 0;
#X connect 7 0 8 0;
#X connect 8 0 17 0;
#X connect 9 0 10 0;
#X connect 10 0 17 0;
#X connect 11 0 17 0;
#X connect 12 0 17 0;
#X connect 13 0 17 0;
#X connect 14 0 11 0;
#X connect 15 0 12 0;
#X connect 16 0 13 0;
#X connect 17 0 3 1;
#X connect 18 0 22 0;
#X connect 18 1 21 0;
#X connect 18 2 31 0;
#X connect 18 3 23 0;
#X connect 18 4 28 0;
#X connect 18 5 27 0;
#X connect 18 6 32 0;
#X connect 18 7 34 0;
#X connect 18 8 30 0;
#X connect 18 9 33 0;
#X connect 18 10 29 0;
#X connect 19 0 20 0;
#X connect 19 1 35 0;
#X connect 20 0 18 0;
#X connect 20 0 24 0;
#X connect 24 0 25 0;
#X connect 24 1 26 0;
#X connect 35 0 20 1;
#X connect 36 0 37 0;
#X connect 37 0 38 0;
#X connect 38 0 36 1;
#X connect 38 0 39 0;
#X connect 39 0 40 0;
#X connect 39 1 45 1;
#X connect 40 0 41 0;
#X connect 41 0 42 0;
#X connect 41 1 45 0;
#X connect 42 0 17 0;
#X connect 43 0 44 0;
#X connect 44 0 36 0;
#X connect 45 0 42 1;
#X connect 48 0 77 0;
#X connect 49 0 60 0;
#X connect 50 0 61 0;
#X connect 51 0 62 0;
#X connect 52 0 63 0;
#X connect 53 0 64 0;
#X connect 54 0 65 0;
#X connect 55 0 66 0;
#X connect 56 0 67 0;
#X connect 57 0 69 0;
#X connect 58 0 68 0;
#X connect 59 0 70 0;
#X connect 60 0 71 0;
#X connect 61 0 71 0;
#X connect 62 0 71 0;
#X connect 63 0 71 0;
#X connect 64 0 71 0;
#X connect 65 0 71 0;
#X connect 66 0 71 0;
#X connect 67 0 71 0;
#X connect 68 0 71 0;
#X connect 69 0 71 0;
#X connect 70 0 71 0;
#X connect 77 0 17 0;
#X connect 77 1 75 0;
#X connect 77 2 76 0;
#X connect 77 3 72 0;
#X connect 77 4 74 0;
#X connect 77 5 73 0;
