#N canvas 975 49 755 581 12;
#X declare -lib pmpd -path pmpd -path nusmuk-utils;
#X obj 17 66 inlet;
#X obj 17 121 separator;
#X obj 17 94 spigot;
#X obj 84 81 tgl 20 0 empty empty empty 0 -10 0 12 #fcfcfc #000000 #000000 0 1;
#X obj 17 229 s \$0-head;
#X obj 17 191 rotateXYZ;
#X floatatom 164 172 5 0 0 0 - - - 0;
#X obj 155 435 list prepend all;
#X obj 155 460 list trim;
#X msg 147 390 r \$1;
#X floatatom 149 361 5 0 0 0 - - - 0;
#X floatatom 201 357 5 0 0 0 - - - 0;
#X floatatom 257 351 5 0 0 0 - - - 0;
#X msg 199 386 w \$1;
#X msg 255 380 h \$1;
#X obj 17 152 translateXYZ 0 0 -4;
#X obj 566 134 ../../TUNES;
#X obj 565 109 bng 20 250 50 0 empty empty empty 0 -10 0 12 #fcfcfc #000000 #000000;
#X obj 565 58 loadbang;
#X obj 566 159 s \$0-tunes;
#X obj 164 275 * 360;
#X floatatom 104 196 5 0 0 0 - - - 0;
#X obj 164 221 line;
#X msg 164 196 \$1 150;
#X obj 232 173 hradio 20 1 0 8 empty empty empty 0 -10 0 12 #fcfcfc #000000 #000000 0;
#X obj 164 248 ../inertie 100 500 300;
#X obj 156 490 clone tune 6 6 \$0;
#X obj 299 8 declare -lib pmpd -path pmpd -path nusmuk-utils;
#X obj 217 302 s \$0-current;
#X msg 72 462 vis 1 1;
#X obj 164 300 / -6;
#X obj 134 22 r MODE;
#X msg 134 72 1;
#X msg 194 73 0;
#X obj 133 47 route Playlist;
#X obj 380 41 r fromAudio;
#X obj 380 66 route nexttune prevtune;
#X msg 380 91 1;
#X msg 459 90 -1;
#X obj 164 146 r \$0-goto;
#X obj 403 163 s \$0-goto;
#X obj 403 132 +;
#X obj 434 132 i;
#X obj 488 212 mod 42;
#X msg 488 293 selectedtune \$1;
#X obj 488 318 s toAudio;
#X obj 488 265 list store;
#X msg 488 237 get \$1;
#X obj 555 239 r \$0-tunes;
#X obj 565 84 del 5000;
#X connect 0 0 2 0;
#X connect 1 0 15 0;
#X connect 2 0 1 0;
#X connect 3 0 2 1;
#X connect 5 0 4 0;
#X connect 6 0 23 0;
#X connect 7 0 8 0;
#X connect 8 0 26 0;
#X connect 9 0 7 0;
#X connect 10 0 9 0;
#X connect 11 0 13 0;
#X connect 12 0 14 0;
#X connect 13 0 7 0;
#X connect 14 0 7 0;
#X connect 15 0 5 0;
#X connect 16 0 19 0;
#X connect 16 1 43 1;
#X connect 17 0 16 0;
#X connect 18 0 49 0;
#X connect 20 0 30 0;
#X connect 21 0 5 1;
#X connect 22 0 25 0;
#X connect 23 0 22 0;
#X connect 24 0 6 0;
#X connect 25 0 20 0;
#X connect 25 0 28 0;
#X connect 29 0 26 0;
#X connect 30 0 5 1;
#X connect 31 0 34 0;
#X connect 32 0 3 0;
#X connect 33 0 3 0;
#X connect 34 0 32 0;
#X connect 34 1 33 0;
#X connect 35 0 36 0;
#X connect 36 0 37 0;
#X connect 36 1 38 0;
#X connect 37 0 41 0;
#X connect 38 0 41 0;
#X connect 39 0 6 0;
#X connect 41 0 42 0;
#X connect 41 0 40 0;
#X connect 41 0 43 0;
#X connect 42 0 41 1;
#X connect 43 0 47 0;
#X connect 44 0 45 0;
#X connect 46 0 44 0;
#X connect 47 0 46 0;
#X connect 48 0 46 1;
#X connect 49 0 17 0;
