#N canvas 1239 95 755 581 12;
#X declare -lib pmpd -path pmpd -path nusmuk-utils;
#X obj 103 24 inlet;
#X obj 103 79 separator;
#X obj 103 52 spigot;
#X obj 170 39 tgl 20 0 empty empty empty 0 -10 0 12 #fcfcfc #000000 #000000 0 1;
#X obj 103 187 s \$0-head;
#X obj 103 149 rotateXYZ;
#X floatatom 299 65 5 0 0 0 - - - 0;
#X obj 463 247 list prepend all;
#X obj 463 272 list trim;
#X msg 455 202 r \$1;
#X floatatom 457 173 5 0 0 0 - - - 0;
#X floatatom 509 169 5 0 0 0 - - - 0;
#X floatatom 565 163 5 0 0 0 - - - 0;
#X msg 507 198 w \$1;
#X msg 563 192 h \$1;
#X obj 103 110 translateXYZ 0 0 -4;
#X obj 221 289 ../../TUNES;
#X obj 220 264 bng 20 250 50 0 empty empty empty 0 -10 0 12 #fcfcfc #000000 #000000;
#X listbox 220 347 22 0 0 0 - - - 0;
#X obj 221 237 loadbang;
#X obj 221 314 s \$0-tunes;
#X obj 299 168 * 360;
#X floatatom 188 154 5 0 0 0 - - - 0;
#X obj 299 114 line;
#X msg 299 89 \$1 150;
#X obj 299 39 hradio 20 1 0 8 empty empty empty 0 -10 0 12 #fcfcfc #000000 #000000 0;
#X obj 299 141 ../inertie 100 500 300;
#X obj 464 302 clone tune 6 6 \$0;
#X obj 299 8 declare -lib pmpd -path pmpd -path nusmuk-utils;
#X obj 364 83 s \$0-current;
#X msg 380 274 vis 1 1;
#X obj 299 193 / -6;
#X connect 0 0 2 0;
#X connect 1 0 15 0;
#X connect 2 0 1 0;
#X connect 3 0 2 1;
#X connect 5 0 4 0;
#X connect 6 0 24 0;
#X connect 7 0 8 0;
#X connect 8 0 27 0;
#X connect 9 0 7 0;
#X connect 10 0 9 0;
#X connect 11 0 13 0;
#X connect 12 0 14 0;
#X connect 13 0 7 0;
#X connect 14 0 7 0;
#X connect 15 0 5 0;
#X connect 16 0 20 0;
#X connect 17 0 16 0;
#X connect 19 0 17 0;
#X connect 21 0 31 0;
#X connect 22 0 5 1;
#X connect 23 0 26 0;
#X connect 24 0 23 0;
#X connect 25 0 6 0;
#X connect 26 0 21 0;
#X connect 26 0 29 0;
#X connect 30 0 27 0;
#X connect 31 0 5 1;
