#N canvas 622 49 1110 886 12;
#X obj 279 27 inlet;
#X obj 65 47 separator;
#X obj 65 111 rotateXYZ;
#X obj 65 20 r \$3-head;
#X obj 145 6 loadbang;
#X obj 145 31 list \$1 \$2;
#X obj 145 56 unpack f f;
#X obj 145 81 /;
#X obj 145 106 * 360;
#X obj 65 142 translateXYZ 0 0 1.7;
#X obj 111 202 colorRGB 1 1 1 1;
#X obj 88 302 translateXYZ 0 0 0.01;
#X obj 65 167 t a a a;
#X obj 65 454 separator;
#X obj 65 358 translateXYZ 0 0 0.01;
#X obj 65 422 colorRGB 1 1 1 1;
#X floatatom 165 451 5 0 0 0 - - - 0;
#X obj 476 229 r \$3-tunes;
#X obj 391 297 list store;
#X obj 391 244 f \$1;
#X msg 391 269 get \$1;
#X obj 476 254 t b a;
#X obj 391 208 loadbang;
#X obj 65 504 pix_image;
#X obj 65 529 pix_texture;
#X msg 391 322 open ../../../JukeBox/data/tunes/\$1/cover.jpg;
#X obj 711 488 text define \$0-tunetxt;
#X obj 679 434 t b a;
#X obj 651 513 text get \$0-tunetxt;
#X msg 651 488 0;
#X obj 443 537 translateXYZ;
#X obj 519 507 nbx 5 18 -1e+37 1e+37 0 1 empty empty empty 0 -10 0 12 #fcfcfc #000000 #000000 2.36 256;
#X obj 443 509 separator;
#X floatatom 530 612 5 0 0 0 - - - 0;
#X obj 584 519 loadbang;
#X obj 584 544 bng 20 250 50 0 empty empty empty 0 -10 0 12 #fcfcfc #000000 #000000;
#X obj 375 701 translateXYZ;
#X obj 451 671 nbx 5 18 -1e+37 1e+37 0 1 empty empty empty 0 -10 0 12 #fcfcfc #000000 #000000 -0.72 256;
#X obj 375 676 separator;
#X floatatom 503 753 5 0 0 0 - - - 0;
#X obj 570 680 loadbang;
#X obj 570 705 bng 20 250 50 0 empty empty empty 0 -10 0 12 #fcfcfc #000000 #000000;
#X obj 651 538 list prepend text;
#X obj 651 563 list trim;
#X obj 728 587 text get \$0-tunetxt;
#X obj 728 612 list prepend text;
#X obj 728 637 list trim;
#X msg 728 562 1;
#X msg 711 460 read -c ../../../JukeBox/data/tunes/\$1/tune.txt;
#X obj 268 417 separator;
#X obj 341 248 bng 20 250 50 0 empty empty empty 0 -10 0 12 #fcfcfc #000000 #000000;
#X floatatom 615 170 5 0 0 0 - - - 0;
#X obj 443 479 colorRGB 1 1 1 1;
#X obj 294 446 nbx 5 18 -1e+37 1e+37 0 1 empty empty empty 0 -10 0 12 #fcfcfc #000000 #000000 0.93 256;
#X obj 268 471 translateXYZ;
#X obj 88 272 colorRGB 0.4 0.4 0.4 1;
#X obj 88 329 rectangle 2.65 0.95;
#X obj 111 232 rectangle 2.7 0.982;
#X floatatom 167 558 5 0 0 0 - - - 0;
#X obj 65 479 translateXYZ -1.69 0 0;
#X obj 65 560 square 0.92;
#X floatatom 285 687 5 0 0 0 - - - 0;
#X obj 443 612 text2d;
#X obj 375 759 text2d;
#X obj 442 416 gemframebuffer;
#X obj 268 496 t a a;
#X obj 268 554 pix_texture;
#X obj 268 579 rectangle 1.5 0.9;
#X msg 617 116 29;
#X obj 477 360 loadbang;
#X obj 268 525 colorRGB 1 1 1 1;
#X obj 442 443 translateXYZ 0 0 -4;
#X obj 375 649 colorRGB 0.5 0.5 0.5 1;
#X msg 478 384 dimen 800 350 \, format RGB;
#X obj 412 386 once;
#X obj 371 463 spigot;
#X obj 398 430 tgl 20 0 empty empty empty 0 -10 0 12 #fcfcfc #000000 #000000 0 1;
#X msg 584 569 60;
#X msg 570 730 40;
#X obj 276 286 f;
#X obj 276 311 * 0.4;
#X obj 152 177 f;
#X obj 120 392 f;
#X obj 340 500 f;
#X obj 276 84 r \$3-current;
#X obj 276 210 abs;
#X obj 276 260 + 1;
#X obj 276 162 fmod 6;
#X obj 276 136 + 3;
#X obj 276 186 - 3;
#X listbox 645 259 20 0 0 0 - - - 0;
#X obj 276 109 - \$1;
#X obj 276 235 * -0.6;
#X connect 1 0 2 0;
#X connect 2 0 9 0;
#X connect 3 0 1 0;
#X connect 4 0 5 0;
#X connect 5 0 6 0;
#X connect 6 0 7 0;
#X connect 6 1 7 1;
#X connect 7 0 8 0;
#X connect 8 0 2 1;
#X connect 9 0 12 0;
#X connect 10 0 57 0;
#X connect 11 0 56 0;
#X connect 12 0 14 0;
#X connect 12 1 55 0;
#X connect 12 2 10 0;
#X connect 13 0 59 0;
#X connect 14 0 15 0;
#X connect 15 0 13 0;
#X connect 15 0 49 0;
#X connect 16 0 59 1;
#X connect 17 0 21 0;
#X connect 18 0 25 0;
#X connect 18 0 27 0;
#X connect 18 0 90 0;
#X connect 19 0 20 0;
#X connect 20 0 18 0;
#X connect 21 0 19 0;
#X connect 21 1 18 1;
#X connect 22 0 19 0;
#X connect 23 0 24 0;
#X connect 24 0 60 0;
#X connect 25 0 23 0;
#X connect 27 0 29 0;
#X connect 27 0 47 0;
#X connect 27 0 74 1;
#X connect 27 1 48 0;
#X connect 28 0 42 0;
#X connect 29 0 28 0;
#X connect 30 0 62 0;
#X connect 31 0 30 2;
#X connect 32 0 30 0;
#X connect 33 0 62 1;
#X connect 34 0 35 0;
#X connect 35 0 77 0;
#X connect 36 0 63 0;
#X connect 37 0 36 2;
#X connect 38 0 36 0;
#X connect 39 0 63 1;
#X connect 40 0 41 0;
#X connect 41 0 78 0;
#X connect 42 0 43 0;
#X connect 43 0 62 0;
#X connect 44 0 45 0;
#X connect 45 0 46 0;
#X connect 46 0 63 0;
#X connect 47 0 44 0;
#X connect 48 0 26 0;
#X connect 49 0 54 0;
#X connect 50 0 19 0;
#X connect 51 0 19 0;
#X connect 52 0 32 0;
#X connect 52 0 72 0;
#X connect 53 0 54 1;
#X connect 54 0 65 0;
#X connect 55 0 11 0;
#X connect 58 0 60 1;
#X connect 59 0 23 0;
#X connect 64 0 71 0;
#X connect 64 1 66 1;
#X connect 65 0 70 0;
#X connect 65 1 74 0;
#X connect 65 1 75 0;
#X connect 66 0 67 0;
#X connect 68 0 51 0;
#X connect 69 0 73 0;
#X connect 70 0 66 0;
#X connect 71 0 52 0;
#X connect 72 0 38 0;
#X connect 73 0 64 0;
#X connect 74 0 64 0;
#X connect 75 0 64 0;
#X connect 76 0 75 1;
#X connect 77 0 33 0;
#X connect 78 0 39 0;
#X connect 79 0 80 0;
#X connect 79 0 81 0;
#X connect 79 0 82 0;
#X connect 79 0 83 0;
#X connect 80 0 55 1;
#X connect 80 0 55 2;
#X connect 80 0 55 3;
#X connect 81 0 10 1;
#X connect 81 0 10 2;
#X connect 81 0 10 3;
#X connect 82 0 15 1;
#X connect 82 0 15 2;
#X connect 82 0 15 3;
#X connect 83 0 70 1;
#X connect 83 0 70 2;
#X connect 83 0 70 3;
#X connect 84 0 91 0;
#X connect 85 0 92 0;
#X connect 86 0 79 0;
#X connect 87 0 89 0;
#X connect 88 0 87 0;
#X connect 89 0 85 0;
#X connect 91 0 88 0;
#X connect 92 0 86 0;
