#N canvas 6 329 757 410 10;
#X obj 32 4 inlet;
#X text 75 3 play fragment;
#X obj 373 212 s \$0-samplelen;
#X obj 428 147 s \$0-peakstab;
#X obj 328 47 s \$0-voxsmooth;
#X obj 285 68 s \$0-voxpitch;
#X obj 519 222 s \$0-nbfrag;
#X obj 242 89 s \$0-voxvol;
#X obj 111 163 i;
#X obj 141 164 != 1;
#X obj 84 191 demux;
#X obj 32 125 t f b;
#X obj 86 71 r \$0-nbfrag;
#X obj 32 214 vox \$0;
#X obj 200 5 inlet;
#X obj 200 109 s \$0-sample;
#X obj 428 72 s \$0-sample;
#X obj 428 28 loadbang;
#X obj 492 28 bng 15 250 50 0 empty empty empty 17 7 0 10 #fcfcfc #000000 #000000;
#X obj 200 27 route sample vol pitch smooth;
#X obj 428 50 symbol \$1;
#X obj 428 100 r \$0-sample;
#X msg 428 123 symbol \$1-peaks;
#X msg 311 144 set \$1-len \, 0;
#X obj 311 166 tabread;
#X floatatom 374 258 8 0 0 0 - - - 0;
#X msg 373 170 set \$1-setlen;
#X msg 558 125 set \$1-nbfrag;
#X obj 519 198 tabread;
#X floatatom 518 264 8 0 0 0 - - - 0;
#X msg 519 176 set \$1-nbfragtab \, 0;
#X obj 374 236 r \$0-samplelen;
#X obj 518 244 r \$0-nbfrag;
#X obj 77 99 mod;
#X obj 32 261 outlet~;
#X obj 88 263 outlet~;
#X obj 176 225 s \$0-endfrag;
#X obj 28 305 r \$0-endfrag;
#X obj 172 244 r \$0-longfrag;
#X obj 28 327 s \$2-endfrag;
#X obj 172 267 s \$2-longfrag;
#X obj 270 266 s \$2-nbfrag;
#X obj 270 244 r \$0-nbfrag;
#X obj 27 352 r \$0-samplelen;
#X obj 27 373 s \$2-samplelen;
#X obj 200 61 symbol;
#X obj 32 100 random;
#X obj 32 70 sel -1;
#X obj 32 28 spigot 1;
#X msg 69 48 0;
#X msg 102 46 1;
#X obj 144 261 bng 15 250 50 0 empty empty empty 17 7 0 10 #fcfcfc #000000 #000000;
#X obj 80 126 bng 15 250 50 0 empty empty empty 17 7 0 10 #fcfcfc #000000 #000000;
#X obj 32 49 t f b;
#X obj 352 296 outlet trig;
#X obj 373 190 iem_receive;
#X obj 558 145 iem_receive;
#X connect 0 0 48 0;
#X connect 8 0 9 0;
#X connect 8 0 10 1;
#X connect 9 0 8 1;
#X connect 11 0 10 0;
#X connect 11 0 13 0;
#X connect 11 1 8 0;
#X connect 11 1 52 0;
#X connect 12 0 33 1;
#X connect 12 0 46 1;
#X connect 13 0 34 0;
#X connect 13 1 35 0;
#X connect 13 2 36 0;
#X connect 13 2 51 0;
#X connect 13 2 50 0;
#X connect 14 0 19 0;
#X connect 17 0 20 0;
#X connect 18 0 20 0;
#X connect 19 0 45 0;
#X connect 19 1 7 0;
#X connect 19 2 5 0;
#X connect 19 3 4 0;
#X connect 20 0 16 0;
#X connect 21 0 22 0;
#X connect 21 0 23 0;
#X connect 21 0 26 0;
#X connect 21 0 27 0;
#X connect 21 0 30 0;
#X connect 22 0 3 0;
#X connect 23 0 24 0;
#X connect 24 0 2 0;
#X connect 26 0 55 0;
#X connect 27 0 56 0;
#X connect 28 0 6 0;
#X connect 30 0 28 0;
#X connect 31 0 25 0;
#X connect 32 0 29 0;
#X connect 33 0 11 0;
#X connect 37 0 39 0;
#X connect 38 0 40 0;
#X connect 42 0 41 0;
#X connect 43 0 44 0;
#X connect 45 0 15 0;
#X connect 46 0 11 0;
#X connect 47 0 46 0;
#X connect 47 1 33 0;
#X connect 48 0 53 0;
#X connect 49 0 48 1;
#X connect 50 0 48 1;
#X connect 52 0 54 0;
#X connect 53 0 47 0;
#X connect 53 1 49 0;
#X connect 55 0 2 0;
#X connect 56 0 6 0;
