#N canvas 316 213 1104 854 10;
#X declare -lib pof;
#X obj 539 87 b;
#X obj 539 108 t b b;
#X obj 539 130 timer;
#X floatatom 539 198 5 0 0 0 - - - 0;
#X obj 539 152 mavg 20;
#X msg 539 219 1000 \$1;
#X obj 539 241 /;
#X floatatom 539 263 5 0 0 0 - - - 0;
#X obj 259 618 pofcolor 1 1 1 1;
#X obj 259 592 poftranslate 0 0;
#X msg 407 615 clear 0;
#X obj 407 594 loadbang;
#X floatatom 368 562 5 0 0 0 - - - 0;
#X obj 259 550 pofshader;
#X obj 420 572 tgl 15 0 empty empty empty 17 7 0 10 #fcfcfc #000000 #000000 0 1;
#X msg 273 437 play \$1;
#X obj 274 412 tgl 15 0 empty empty empty 17 7 0 10 #fcfcfc #000000 #000000 0 1;
#N canvas 115 529 730 304 drawSpectrum2 0;
#X obj 89 38 inlet pofhead;
#X obj 311 19 inlet~;
#X msg 185 107 clear 0 0 0 1;
#X obj 89 60 poftranslate 0 10000;
#X obj 369 150 s SPECINDEX;
#X obj 493 19 inlet on;
#N canvas 287 91 578 576 hiSpec 0;
#X obj 21 16 inlet~;
#X obj 228 134 block~ 64 1 0.25;
#X msg 226 67 set 64 1 0.25;
#X msg 206 46 set 64 4 0.25;
#X obj 20 88 windowing/blackman~;
#X obj 20 114 rfft~;
#X obj 19 143 *~;
#X obj 50 143 *~;
#X obj 19 169 sqrt~;
#X obj 324 188 bang~;
#X obj 324 212 t b b;
#X obj 324 234 timer;
#X floatatom 324 278 5 0 0 0 - - - 0;
#X obj 282 21 loadbang;
#X obj 216 422 outlet;
#X obj 324 256 maxlib/speedlim 100;
#X msg 268 109 set 2048 64 0.25;
#X obj 216 301 i;
#X obj 216 345 mod 1024;
#X msg 216 390 setcolors 0 \$2 1024 \$1 \$1 \$1;
#X obj 296 307 tgl 15 0 empty empty empty 17 7 0 10 #fcfcfc #000000 #000000 0 1;
#X msg 404 110 set 2048 \$1 0.25;
#X floatatom 446 49 5 1 128 0 - - - 0;
#X obj 19 196 min~ 1;
#X obj 36 61 *~ 4;
#X obj 36 39 hip~ 20000;
#X msg 254 88 set 2048 32 0.25;
#X obj 439 423 outlet;
#X obj 493 19 inlet on;
#X obj 227 160 table \$0-hiSpecII 1024;
#X obj 216 368 list prepend \$0-hiSpecII;
#X obj 19 218 tabsend~ \$0-hiSpecII;
#X msg 420 149 set 2048 8 1;
#X msg 419 202 set 2048 64 0.125;
#X msg 419 178 set 2048 16 0.5;
#X obj 216 323 - 1;
#X obj 216 275 spigot 0;
#X connect 0 0 4 0;
#X connect 0 0 25 0;
#X connect 2 0 1 0;
#X connect 3 0 1 0;
#X connect 4 0 5 0;
#X connect 5 0 6 0;
#X connect 5 0 6 1;
#X connect 5 1 7 0;
#X connect 5 1 7 1;
#X connect 6 0 8 0;
#X connect 7 0 8 0;
#X connect 8 0 23 0;
#X connect 9 0 10 0;
#X connect 9 0 36 0;
#X connect 10 0 11 0;
#X connect 10 1 11 1;
#X connect 11 0 15 0;
#X connect 13 0 34 0;
#X connect 15 0 12 0;
#X connect 16 0 1 0;
#X connect 17 0 35 0;
#X connect 18 0 17 1;
#X connect 18 0 30 0;
#X connect 18 0 27 0;
#X connect 19 0 14 0;
#X connect 20 0 36 1;
#X connect 21 0 1 0;
#X connect 22 0 21 0;
#X connect 23 0 31 0;
#X connect 24 0 4 0;
#X connect 25 0 24 0;
#X connect 26 0 1 0;
#X connect 28 0 36 1;
#X connect 30 0 19 0;
#X connect 32 0 1 0;
#X connect 33 0 1 0;
#X connect 34 0 1 0;
#X connect 35 0 18 0;
#X connect 36 0 17 0;
#X restore 309 125 pd hiSpec;
#X obj 89 82 t a a;
#X obj 89 155 pofimage HISPECIMG 1024 1024 HISPECTEX;
#X obj 310 73 lp10_butt~ 9500;
#X obj 310 95 *~ 0.03;
#X connect 0 0 3 0;
#X connect 1 0 9 0;
#X connect 2 0 8 0;
#X connect 3 0 7 0;
#X connect 5 0 6 1;
#X connect 6 0 8 0;
#X connect 6 1 4 0;
#X connect 7 0 8 0;
#X connect 9 0 10 0;
#X connect 10 0 6 0;
#X restore 323 380 pd drawSpectrum2;
#X obj 55 368 pofcolor 1 1 1 1;
#X obj 55 390 pofplane 1024 1024;
#X obj 56 252 t a a;
#X obj 91 522 pofcolor 1 1 1 1;
#X obj 91 496 poftranslate 0 0;
#X obj 91 544 pofplane 1024 1024;
#X obj 156 271 r SPECINDEX;
#X obj 157 293 spigot 1;
#X obj 432 336 tgl 15 0 empty empty empty 17 7 0 10 #fcfcfc #000000 #000000 0 1;
#X floatatom 195 354 5 0 0 0 - - - 0;
#X floatatom 108 287 5 0 0 0 - - - 0;
#X obj 56 184 pofvisible;
#X obj 56 230 poftexture HISPECTEX;
#X obj 170 99 tgl 15 0 empty empty empty 17 7 0 10 #fcfcfc #000000 #000000 0 1;
#X obj 187 123 == 0;
#X floatatom 392 675 5 0 0 0 - - - 0;
#X msg 739 517 load texturedcercle;
#X obj 438 428 r SPECINDEX;
#X obj 677 609 hsl 128 15 0 1 0 0 empty empty empty -2 -8 0 10 #fcfcfc #000000 #000000 0 1;
#X msg 680 644 f freqMax \$1;
#X msg 438 498 f specindex \$1;
#X obj 438 476 / 1024;
#X obj 827 616 hsl 128 15 0 1 0 0 empty empty empty -2 -8 0 10 #fcfcfc #000000 #000000 0 1;
#X msg 830 651 f gain \$1;
#X obj 527 670 hsl 128 15 0 2 0 0 empty empty empty -2 -8 0 10 #fcfcfc #000000 #000000 0 1;
#X msg 530 705 f compress \$1;
#X msg 716 704 f invert \$1;
#X obj 719 678 hsl 128 15 0 1 0 0 empty empty empty -2 -8 0 10 #fcfcfc #000000 #000000 0 1;
#X obj 438 450 + 8;
#X msg 854 484 f smooothExt \$1;
#X obj 842 453 hsl 128 15 0 1 0 0 empty empty empty -2 -8 0 10 #fcfcfc #000000 #000000 0 1;
#X obj 707 468 loadbang;
#X obj 707 490 t b b;
#X obj 690 426 bng 15 250 50 0 empty empty empty 17 7 0 10 #fcfcfc #000000 #000000;
#X obj 526 562 hsl 128 15 0 2 0 0 empty empty empty -2 -8 0 10 #fcfcfc #000000 #000000 0 1;
#X msg 529 597 f fcompress \$1;
#X obj 907 651 hsl 128 15 0 1 0 0 empty empty empty -2 -8 0 10 #fcfcfc #000000 #000000 0 1;
#X msg 910 686 f freqMin \$1;
#X floatatom 881 707 5 0 0 0 - - - 0;
#X floatatom 499 618 5 0 0 0 - - - 0;
#X obj 480 361 bng 15 250 50 0 empty empty empty 17 7 0 10 #fcfcfc #000000 #000000;
#X obj 375 749 hsl 128 15 0 2 0 0 empty empty empty -2 -8 0 10 #fcfcfc #000000 #000000 0 1;
#X msg 378 784 f spiGain \$1;
#X floatatom 411 709 5 0 0 0 - - - 0;
#X obj 572 735 hsl 128 15 0 2 0 0 empty empty empty -2 -8 0 10 #fcfcfc #000000 #000000 0 1;
#X msg 575 770 f spiCompress \$1;
#X floatatom 726 739 5 0 0 0 - - - 0;
#N canvas 734 539 703 425 history 0;
#X obj 241 34 inlet~;
#X obj 444 162 table \$0-lowHistory 1024;
#X obj 105 15 r SPECINDEX;
#X obj 105 241 tabwrite \$0-lowHistory;
#X obj 224 221 tabwrite \$0-hiHistory;
#X obj 443 183 table \$0-hiHistory 1024;
#N canvas 35 516 450 300 peak-divide 0;
#X obj 144 26 inlet;
#X obj 187 104 max;
#X floatatom 58 126 5 0 0 0 - - - 0;
#X obj 144 265 outlet;
#X obj 144 240 /;
#X obj 187 150 +;
#X floatatom 296 243 5 0 0 0 - - - 0;
#X floatatom 96 242 5 0 0 0 - - - 0;
#X floatatom 303 173 5 0 0 0 - - - 0;
#X obj 187 177 pow 0.5;
#X floatatom 338 41 5 0 0 0 - - - 0;
#X obj 218 104 * 0.997;
#X obj 187 128 * 0.0025;
#X obj 221 149 * 0.9975;
#X obj 187 199 * 4;
#X floatatom 258 202 5 0 0 0 - - - 0;
#X obj 294 122 +;
#X obj 328 121 * 0.9975;
#X obj 294 99 * 0.0025;
#X obj 144 77 -;
#X obj 144 48 t f f f;
#X obj 144 99 t f f;
#X connect 0 0 20 0;
#X connect 1 0 11 0;
#X connect 1 0 12 0;
#X connect 4 0 3 0;
#X connect 5 0 9 0;
#X connect 5 0 13 0;
#X connect 5 0 15 0;
#X connect 9 0 14 0;
#X connect 11 0 1 1;
#X connect 12 0 5 0;
#X connect 13 0 5 1;
#X connect 14 0 4 1;
#X connect 16 0 17 0;
#X connect 16 0 8 0;
#X connect 16 0 19 1;
#X connect 17 0 16 1;
#X connect 18 0 16 0;
#X connect 19 0 21 0;
#X connect 20 0 19 0;
#X connect 20 2 18 0;
#X connect 21 0 4 0;
#X connect 21 1 1 0;
#X restore 123 170 pd peak-divide;
#X obj 105 193 f;
#X obj 224 198 f;
#X obj 422 236 t b b;
#X obj 422 258 timer;
#X floatatom 422 280 5 0 0 0 - - - 0;
#X obj 425 83 /;
#X floatatom 425 105 5 0 0 0 - - - 0;
#X msg 425 61 256 44.1;
#X obj 123 90 lp10_butt~ 100;
#X obj 242 91 hp10_butt~ 500;
#X obj 37 53 inlet;
#X obj 37 389 pofimage HISTIMG 1024 2 HISTTEX;
#X obj 84 270 pack f f f;
#X obj 105 38 t b b f;
#X msg 240 342 setcolor \$3 0 \$1 \$1 \$1 1 \, setcolor \$3 1 \$2 \$2 \$2 1;
#X msg 192 352 0;
#X obj 37 352 poftranslate 0 10000;
#X msg 254 365 setcolor \$3 0 0 0 0 1 \, setcolor \$3 1 0 0 0 1;
#N canvas 58 525 450 300 peak-divide-old 0;
#X obj 144 26 inlet;
#X obj 176 71 max;
#X floatatom 58 126 5 0 0 0 - - - 0;
#X obj 207 71 * 0.99;
#X obj 144 235 outlet;
#X obj 144 48 t f f;
#X obj 144 212 /;
#X obj 176 117 +;
#X floatatom 210 196 5 0 0 0 - - - 0;
#X obj 176 95 * 0.005;
#X obj 210 116 * 0.995;
#X floatatom 96 242 5 0 0 0 - - - 0;
#X obj 176 144 pow 0.3;
#X floatatom 273 228 5 0 0 0 - - - 0;
#X connect 0 0 5 0;
#X connect 1 0 3 0;
#X connect 1 0 9 0;
#X connect 3 0 1 1;
#X connect 5 0 6 0;
#X connect 5 1 1 0;
#X connect 6 0 4 0;
#X connect 7 0 10 0;
#X connect 7 0 12 0;
#X connect 9 0 7 0;
#X connect 10 0 7 1;
#X connect 12 0 6 1;
#X restore 402 131 pd peak-divide-old;
#N canvas 35 516 450 300 peak-divide 0;
#X obj 144 26 inlet;
#X obj 176 71 max;
#X floatatom 58 126 5 0 0 0 - - - 0;
#X obj 144 235 outlet;
#X obj 144 48 t f f;
#X obj 144 212 /;
#X obj 176 117 +;
#X floatatom 221 196 5 0 0 0 - - - 0;
#X floatatom 96 242 5 0 0 0 - - - 0;
#X floatatom 262 143 5 0 0 0 - - - 0;
#X obj 176 144 pow 0.5;
#X floatatom 284 108 5 0 0 0 - - - 0;
#X obj 207 71 * 0.997;
#X obj 176 95 * 0.0025;
#X obj 210 116 * 0.9975;
#X obj 176 166 * 4;
#X floatatom 209 224 5 0 0 0 - - - 0;
#X connect 0 0 4 0;
#X connect 1 0 12 0;
#X connect 1 0 13 0;
#X connect 4 0 5 0;
#X connect 4 1 1 0;
#X connect 5 0 3 0;
#X connect 6 0 10 0;
#X connect 6 0 14 0;
#X connect 10 0 15 0;
#X connect 12 0 1 1;
#X connect 13 0 6 0;
#X connect 14 0 6 1;
#X connect 15 0 5 1;
#X restore 242 166 pd peak-divide;
#X obj 123 113 env~ 4096 256;
#X obj 242 113 env~ 4096 256;
#X obj 123 140 dbtorms;
#X obj 242 141 dbtorms;
#X obj 84 292 spigot;
#X obj 548 27 inlet on;
#X msg 84 315 setcolor \$3 0 \$1 \$1 \$1 1 \, setcolor \$3 1 \$2 \$2 \$2 1;
#X connect 0 0 15 0;
#X connect 0 0 16 0;
#X connect 2 0 20 0;
#X connect 6 0 7 1;
#X connect 7 0 3 0;
#X connect 7 0 19 0;
#X connect 8 0 4 0;
#X connect 8 0 19 1;
#X connect 9 0 10 0;
#X connect 9 1 10 1;
#X connect 10 0 11 0;
#X connect 12 0 13 0;
#X connect 14 0 12 0;
#X connect 15 0 27 0;
#X connect 16 0 28 0;
#X connect 17 0 23 0;
#X connect 19 0 31 0;
#X connect 20 0 7 0;
#X connect 20 1 8 0;
#X connect 20 2 3 1;
#X connect 20 2 4 1;
#X connect 20 2 19 2;
#X connect 22 0 23 2;
#X connect 23 0 18 0;
#X connect 26 0 8 1;
#X connect 27 0 9 0;
#X connect 27 0 29 0;
#X connect 28 0 30 0;
#X connect 29 0 6 0;
#X connect 30 0 26 0;
#X connect 31 0 33 0;
#X connect 32 0 31 1;
#X connect 33 0 18 0;
#X restore 241 379 pd history;
#X obj 229 126 tgl 15 0 empty empty empty 17 7 0 10 #fcfcfc #000000 #000000 0 1;
#X obj 452 804 hsl 128 15 0 1 0 0 empty empty empty -2 -8 0 10 #fcfcfc #000000 #000000 0 1;
#X obj 603 794 hsl 128 15 0 1 0 0 empty empty empty -2 -8 0 10 #fcfcfc #000000 #000000 0 1;
#X msg 797 757 tex fft_history HISPECTEX 0;
#X msg 658 546 f gain 0 \, f rMax 1 \, f freqMax 0.8 \, f compress 1.7 \, f smooothExt 0.05 \, f smooothInt 0.05 \, f invert 1 \, f freqMin 0.003 \, f fcompress 0.4 \, tex histTex HISTTEX 1 \, tex fft_history HISPECTEX 0;
#X obj 539 173 maxlib/speedlim 300;
#X obj 462 52 inlet~;
#X obj 432 240 t b b;
#X obj 432 264 del 500;
#X msg 432 286 0;
#X msg 463 286 1;
#X obj 432 313 change;
#X obj 278 468 r toShader;
#X obj 35 143 tgl 15 0 empty empty empty 17 7 0 10 #fcfcfc #000000 #000000 0 1;
#X obj 153 77 pofbang 0;
#X obj 153 50 r VISUAL_COMPUTE;
#X obj 187 152 pofvisible;
#X obj 280 48 r VISUAL_SHOW;
#X floatatom 523 454 5 0 0 0 - - - 0;
#X obj 56 142 t a a a;
#X obj 539 290 outlet FPS;
#X msg 204 738 f lowGainB \$1;
#X floatatom 241 699 5 0 0 0 - - - 0;
#X obj 726 203 s SPEC-pattern-snd;
#X obj 726 157 list prepend _all_;
#X obj 726 182 list trim;
#X obj 726 109 line3;
#X msg 726 87 \$1 100;
#X obj 726 136 presetfadelin 0 1 2 3 4 5 6 7 8 9 10;
#X obj 726 63 r SCREENPATTERN;
#X obj 24 18 pofhead;
#X obj 86 18 tgl 15 0 empty empty empty 17 7 0 10 #fcfcfc #000000 #000000 0 1;
#X obj 24 40 pofvisible 1;
#X obj 24 101 t a a;
#X obj 24 577 s spotshead;
#X obj 24 78 poftranslate;
#X obj 118 19 nbx 5 14 -1e+37 1e+37 0 1 empty empty empty 0 -8 0 10 #fcfcfc #000000 #000000 52 256;
#X obj 183 18 nbx 5 14 -1e+37 1e+37 0 1 empty empty empty 0 -8 0 10 #fcfcfc #000000 #000000 19 256;
#X msg 371 497 731;
#X obj 371 475 b;
#X floatatom 284 175 5 0 0 0 - - - 0;
#X msg 401 499 765;
#X obj 259 641 pofplane 800 865;
#X floatatom 345 677 5 0 0 0 - - - 0;
#X obj 259 210 pofrotate -90;
#X obj 348 326 tgl 18 0 empty empty empty 0 -9 0 10 #fcfcfc #000000 #000000 0 1;
#X obj 202 484 tgl 18 0 empty empty empty 0 -9 0 10 #fcfcfc #000000 #000000 0 1;
#X obj 54 342 poftranslate 0 0;
#X obj 128 321 * 1;
#X obj 184 420 * 1;
#X obj 184 442 - 1024;
#X obj 601 41 declare -lib pof;
#N canvas 895 347 541 429 POFWIN 0;
#X obj 161 277 pofwin;
#X msg 308 173 framerate \$1;
#X msg 308 133 30;
#X msg 342 133 50;
#X msg 374 133 60;
#X floatatom 308 155 5 0 0 0 - - - 0;
#X msg 310 204 cursor 0;
#X msg 161 121 background 0 0 0 1;
#X msg 104 191 build;
#X msg 203 162 666;
#X floatatom 202 189 5 0 0 0 - - - 0;
#X obj 81 78 b;
#X obj 215 385 s VISUAL_COMPUTE;
#X msg 215 342 1;
#X msg 81 337 1;
#X obj 81 380 s VISUAL_SHOW;
#X obj 81 151 del 1000;
#X obj 81 315 del 1000;
#X obj 215 320 del 1000;
#X msg 322 312 0;
#X msg 135 338 0;
#X msg 206 59 window 640 480 1 \, framerate 60 \, cursor 0;
#X obj 81 30 b;
#X msg 212 92 window 1024 1024 0 \, framerate 60 \, cursor 1;
#X obj 128 17 inlet;
#X connect 1 0 0 0;
#X connect 2 0 5 0;
#X connect 3 0 5 0;
#X connect 4 0 5 0;
#X connect 5 0 1 0;
#X connect 6 0 0 0;
#X connect 7 0 0 0;
#X connect 8 0 0 0;
#X connect 8 0 9 0;
#X connect 9 0 10 0;
#X connect 11 0 7 0;
#X connect 11 0 16 0;
#X connect 13 0 12 0;
#X connect 14 0 15 0;
#X connect 16 0 8 0;
#X connect 16 0 17 0;
#X connect 17 0 14 0;
#X connect 17 0 18 0;
#X connect 18 0 13 0;
#X connect 19 0 12 0;
#X connect 20 0 15 0;
#X connect 21 0 0 0;
#X connect 22 0 11 0;
#X connect 22 0 23 0;
#X connect 23 0 0 0;
#X connect 24 0 22 0;
#X restore 917 38 pd POFWIN;
#X obj 881 38 bng 18 250 50 0 empty empty empty 0 -9 0 10 #fcfcfc #000000 #000000;
#X connect 0 0 1 0;
#X connect 1 0 2 0;
#X connect 1 1 2 1;
#X connect 2 0 4 0;
#X connect 3 0 5 0;
#X connect 4 0 71 0;
#X connect 5 0 6 0;
#X connect 6 0 7 0;
#X connect 6 0 86 0;
#X connect 8 0 108 0;
#X connect 9 0 8 0;
#X connect 11 0 10 0;
#X connect 12 0 108 1;
#X connect 13 0 9 0;
#X connect 14 0 8 4;
#X connect 15 0 13 0;
#X connect 16 0 15 0;
#X connect 18 0 19 0;
#X connect 20 0 113 0;
#X connect 20 1 22 0;
#X connect 21 0 23 0;
#X connect 22 0 21 0;
#X connect 24 0 25 0;
#X connect 25 0 114 0;
#X connect 25 0 115 0;
#X connect 26 0 17 2;
#X connect 26 0 65 2;
#X connect 27 0 19 1;
#X connect 27 0 23 1;
#X connect 28 0 22 1;
#X connect 28 0 113 1;
#X connect 29 0 30 0;
#X connect 30 0 20 0;
#X connect 31 0 29 0;
#X connect 31 0 32 0;
#X connect 32 0 82 0;
#X connect 33 0 108 2;
#X connect 34 0 13 0;
#X connect 35 0 46 0;
#X connect 36 0 37 0;
#X connect 37 0 13 0;
#X connect 38 0 13 0;
#X connect 39 0 38 0;
#X connect 40 0 41 0;
#X connect 41 0 13 0;
#X connect 42 0 43 0;
#X connect 43 0 13 0;
#X connect 44 0 13 0;
#X connect 45 0 44 0;
#X connect 46 0 39 0;
#X connect 47 0 13 0;
#X connect 48 0 47 0;
#X connect 49 0 50 0;
#X connect 50 0 70 0;
#X connect 50 1 34 0;
#X connect 51 0 50 0;
#X connect 52 0 53 0;
#X connect 52 0 57 0;
#X connect 53 0 13 0;
#X connect 54 0 55 0;
#X connect 54 0 56 0;
#X connect 55 0 13 0;
#X connect 59 0 60 0;
#X connect 60 0 13 0;
#X connect 61 0 60 0;
#X connect 62 0 63 0;
#X connect 63 0 13 0;
#X connect 64 0 63 0;
#X connect 66 0 82 0;
#X connect 69 0 13 0;
#X connect 70 0 13 0;
#X connect 71 0 3 0;
#X connect 72 0 65 1;
#X connect 72 0 17 1;
#X connect 73 0 74 0;
#X connect 73 1 76 0;
#X connect 74 0 75 0;
#X connect 76 0 77 0;
#X connect 77 0 26 0;
#X connect 78 0 13 0;
#X connect 79 0 29 0;
#X connect 80 1 0 0;
#X connect 80 1 73 0;
#X connect 81 0 80 0;
#X connect 82 0 110 0;
#X connect 83 0 82 0;
#X connect 84 0 46 1;
#X connect 85 0 29 0;
#X connect 85 0 82 0;
#X connect 85 1 17 0;
#X connect 85 1 65 0;
#X connect 85 1 80 0;
#X connect 87 0 13 0;
#X connect 88 0 87 0;
#X connect 90 0 91 0;
#X connect 91 0 89 0;
#X connect 92 0 94 0;
#X connect 93 0 92 0;
#X connect 94 0 90 0;
#X connect 95 0 93 0;
#X connect 96 0 98 0;
#X connect 97 0 98 0;
#X connect 98 0 101 0;
#X connect 99 0 100 0;
#X connect 99 1 85 0;
#X connect 101 0 99 0;
#X connect 102 0 101 1;
#X connect 103 0 101 2;
#X connect 104 0 12 0;
#X connect 105 0 104 0;
#X connect 105 0 107 0;
#X connect 106 0 110 1;
#X connect 107 0 33 0;
#X connect 109 0 108 1;
#X connect 109 0 108 2;
#X connect 110 0 13 0;
#X connect 111 0 65 2;
#X connect 112 0 21 4;
#X connect 113 0 18 0;
#X connect 114 0 113 2;
#X connect 115 0 116 0;
#X connect 116 0 22 2;
#X connect 119 0 118 0;
