#N canvas 117 141 450 300 12;
#X obj 79 46 inlet;
#X obj 79 71 + \$1;
#X obj 79 96 outlet;
#X obj 129 70 t b f;
#X obj 129 45 inlet;
#X connect 0 0 1 0;
#X connect 1 0 2 0;
#X connect 3 0 1 0;
#X connect 3 1 1 1;
#X connect 4 0 3 0;
