#N canvas 62 250 420 421 10;
#X declare -path ../../lib/Fraise/pd/;
#X declare -path Fraise;
#X declare -path nusmuk-utils;
#X declare -path motex -path ggee -path maxlib -path zexy -lib zexy -path iemlib -lib iemlib -path hcs -path creb -lib creb -path cyclone -path moonlib;
#X obj 41 133 declare -path ../../lib/Fraise/pd/;
#N canvas 157 115 695 430 Machines 0;
#X obj 171 41 hsl 128 15 0 2 0 1 \$0-DieselMaster-snd \$0-DieselMaster-rcv DieselMaster -2 -8 0 10 #00fc04 #000000 #000000 7500 1;
#X obj 28 40 hsl 128 15 0 1 0 0 empty empty empty -2 -8 0 10 #f8fc00 #000000 #000000 0 1;
#X obj 27 58 Diesel \$0;
#X obj 170 122 hsl 128 15 0 1 0 1 \$0-GeneMaster-snd \$0-GeneMaster-rcv GeneMaster -2 -8 0 10 #00fc04 #000000 #000000 12500 1;
#X obj 28 122 hsl 128 15 0 1 0 0 empty empty empty -2 -8 0 10 #f8fc00 #000000 #000000 0 1;
#X obj 25 143 Generatrice \$0;
#X obj 172 208 hsl 128 15 0 2 0 1 \$0-CompMaster-snd \$0-CompMaster-rcv CompMaster -2 -8 0 10 #00fc04 #000000 #000000 6499 1;
#X obj 31 206 hsl 128 15 0 1 0 0 empty empty empty -2 -8 0 10 #f8fc00 #000000 #000000 0 1;
#X obj 28 228 Compresseur \$0;
#N canvas 12 124 450 300 Tank 0;
#X obj 132 99 r \$0-Diesel-speed;
#X obj 117 64 metro 50;
#X obj 117 123 f;
#X obj 149 189 clip 0 1;
#X obj 117 38 tgl 15 0 empty empty empty 17 7 0 10 #fcfcfc #000000 #000000 0 1;
#X obj 117 189 +;
#X obj 230 186 +;
#X obj 233 50 hsl 128 15 0 1 0 0 empty empty empty -2 -8 0 10 #fcfcfc #000000 #000000 0 1;
#X floatatom 81 247 5 0 0 0 - - - 0;
#X obj 149 240 s \$0-Tank;
#X obj 274 13 inlet;
#X obj 254 254 r \$0-filltank;
#X msg 302 231 1;
#X obj 250 80 t f f;
#X obj 253 109 -;
#X obj 252 131 abs;
#X obj 345 11 inlet;
#X obj 401 13 inlet;
#X obj 353 111 spigot;
#X msg 349 153 1;
#X msg 191 163 0;
#X obj 119 10 init 1;
#X obj 117 149 * -0.001;
#X obj 244 152 * 2;
#X msg 345 181 0;
#X msg 63 163 -0.02;
#X connect 0 0 2 1;
#X connect 1 0 2 0;
#X connect 1 0 18 0;
#X connect 2 0 22 0;
#X connect 3 0 5 1;
#X connect 3 0 8 0;
#X connect 3 0 9 0;
#X connect 4 0 1 0;
#X connect 5 0 3 0;
#X connect 5 0 6 1;
#X connect 6 0 3 0;
#X connect 7 0 13 0;
#X connect 10 0 7 0;
#X connect 11 0 3 0;
#X connect 12 0 3 0;
#X connect 13 0 14 1;
#X connect 13 1 14 0;
#X connect 14 0 15 0;
#X connect 15 0 23 0;
#X connect 16 0 12 0;
#X connect 17 0 18 1;
#X connect 18 0 12 0;
#X connect 20 0 3 0;
#X connect 21 0 4 0;
#X connect 22 0 5 0;
#X connect 23 0 6 0;
#X connect 25 0 22 1;
#X restore 29 -12 pd Tank;
#X obj 30 -31 hsl 128 15 0 1 0 0 \$0-pump-snd \$0-pump-rcv pump -2 -8 0 10 #fc8000 #000000 #000000 0 1;
#X obj 78 -16 bng 15 250 50 0 empty empty empty 17 7 0 10 #fcfcfc #000000 #000000;
#X obj 95 -14 tgl 15 0 empty empty empty 17 7 0 10 #fcfcfc #000000 #000000 0 1;
#X obj 24 101 r \$0-Gene-comm;
#X obj 27 185 r \$0-Comp-comm;
#X obj 26 21 r \$0-Diesel-comm;
#N canvas 12 146 484 296 General 0;
#X obj 120 46 r \$0-General;
#X obj 120 83 tgl 15 0 empty empty empty 17 7 0 10 #fcfcfc #000000 #000000 0 1;
#X obj 120 146 s \$0-tapestop-snd;
#X obj 273 70 sel 0 1;
#X msg 292 103 stop;
#X obj 273 127 del 6000;
#X obj 265 161 bng 15 250 50 0 empty empty empty 17 7 0 10 #fcfcfc #000000 #000000;
#X obj 292 169 s \$0-ALLSTOP;
#X obj 111 203 hum1;
#X obj 203 261 throw~ \$0-out2;
#X obj 202 210 hum1;
#X obj 281 215 sel 1;
#X obj 112 227 *~ 0.2;
#X obj 203 234 *~ 0.2;
#X obj 118 177 hsl 128 15 0 2 0 1 empty empty empty -2 -8 0 10 #fcfcfc #000000 #000000 5500 1;
#X obj 161 201 pow 2;
#X obj 110 259 throw~ \$0-out4;
#X obj 348 222 s \$0-clock;
#X msg 349 201 -1;
#X connect 0 0 1 0;
#X connect 1 0 3 0;
#X connect 1 0 2 0;
#X connect 3 0 5 0;
#X connect 3 1 4 0;
#X connect 4 0 5 0;
#X connect 5 0 6 0;
#X connect 5 0 7 0;
#X connect 5 0 18 0;
#X connect 8 0 12 0;
#X connect 10 0 13 0;
#X connect 12 0 16 0;
#X connect 13 0 9 0;
#X connect 14 0 15 0;
#X connect 15 0 12 1;
#X connect 15 0 13 1;
#X connect 18 0 17 0;
#X restore 206 -28 pd General;
#N canvas 61 214 478 524 Vanne 0;
#X obj 210 241 noise~;
#X obj 159 357 osc~;
#X obj 156 274 mtof;
#X obj 167 406 *~;
#X obj 231 393 hsl 128 15 0 1 0 1 empty empty empty -2 -8 0 10 #fcfcfc #000000 #000000 10500 1;
#X obj 226 414 pow 3;
#X obj 196 317 +~ 1;
#X obj 156 306 sig~;
#X floatatom 322 158 5 0 0 0 - - - 0;
#X obj 168 336 *~;
#X obj 230 269 bp~ 1000 6;
#X obj 205 354 *~ 4;
#X obj 250 349 *~ 2;
#X obj 158 463 clip~ -1 1;
#X obj 250 324 lp4_cheb~ 1000 6;
#X obj 378 246 * 2;
#X msg 149 224 \$1 100;
#X obj 149 248 line;
#X obj 73 306 * -1;
#X obj 27 374 hp4_butt~ 1000 6;
#X obj 73 352 mtof;
#X obj 28 346 noise~;
#X obj 414 298 * 4;
#X obj 73 330 + 130;
#X obj 396 322 bp~ 1000 10;
#X obj 397 364 *~ 4;
#X obj 349 265 bp~ 1000 10;
#X obj 355 342 *~ 4;
#X obj 195 295 *~ 5;
#X obj 148 110 -;
#X obj 148 157 gamme 90 40 1 0 1 0 1 1 0 1 0 1 0 1;
#X obj 149 201 +;
#X obj 181 110 r \$0-note;
#X obj 148 18 r \$0-Vanne;
#X obj 231 15 r \$0-Pressure;
#X obj 230 40 pow 0.5;
#X obj 148 45 *;
#X obj 180 44 t b f;
#X obj 148 85 * 128;
#X obj 252 93 hsl 128 15 0 1 0 0 empty empty empty -2 -8 0 10 #fcfcfc #000000 #000000 0 1;
#X obj 310 189 s \$0-note;
#X floatatom 72 220 5 0 0 0 - - - 0;
#X obj 147 65 change;
#X floatatom 90 88 5 0 0 0 - - - 0;
#X obj 319 40 hsl 128 15 0 1 0 0 empty empty empty -2 -8 0 10 #fcfcfc #000000 #000000 0 1;
#X obj 308 64 s \$0-Vanne;
#X floatatom 250 70 5 0 0 0 - - - 0;
#X floatatom 117 349 5 0 0 0 - - - 0;
#X obj 54 447 line~;
#X obj 27 470 *~;
#X obj 54 405 pow 0.2;
#X msg 55 426 \$1 100;
#X obj 54 44 init 0;
#X obj 159 431 hip~ 200;
#X obj 247 126 r Gammes;
#X obj 247 148 route 0;
#X obj 247 170 unpack f f;
#X msg 260 194 setb \$1;
#X obj 157 487 throw~ \$0-out4;
#X obj 32 136 s \$0-debitVanne;
#X msg 149 133 round \$1 10;
#X connect 0 0 10 0;
#X connect 0 0 14 0;
#X connect 0 0 24 0;
#X connect 0 0 26 0;
#X connect 1 0 3 0;
#X connect 2 0 7 0;
#X connect 2 0 10 1;
#X connect 2 0 14 1;
#X connect 2 0 15 0;
#X connect 2 0 22 0;
#X connect 3 0 53 0;
#X connect 4 0 5 0;
#X connect 5 0 3 1;
#X connect 6 0 9 1;
#X connect 7 0 9 0;
#X connect 8 0 40 0;
#X connect 9 0 1 0;
#X connect 10 0 11 0;
#X connect 10 0 28 0;
#X connect 11 0 3 0;
#X connect 12 0 3 0;
#X connect 13 0 58 0;
#X connect 14 0 12 0;
#X connect 15 0 26 1;
#X connect 16 0 17 0;
#X connect 17 0 2 0;
#X connect 17 0 18 0;
#X connect 18 0 23 0;
#X connect 19 0 49 0;
#X connect 20 0 19 1;
#X connect 21 0 19 0;
#X connect 22 0 24 1;
#X connect 23 0 20 0;
#X connect 23 0 47 0;
#X connect 24 0 25 0;
#X connect 25 0 3 0;
#X connect 26 0 27 0;
#X connect 27 0 3 0;
#X connect 28 0 6 0;
#X connect 29 0 60 0;
#X connect 30 0 31 0;
#X connect 31 0 16 0;
#X connect 31 0 41 0;
#X connect 32 0 29 1;
#X connect 32 0 31 1;
#X connect 33 0 36 0;
#X connect 34 0 35 0;
#X connect 35 0 37 0;
#X connect 35 0 46 0;
#X connect 36 0 42 0;
#X connect 36 0 43 0;
#X connect 37 0 36 0;
#X connect 37 1 36 1;
#X connect 38 0 29 0;
#X connect 39 0 42 0;
#X connect 42 0 38 0;
#X connect 42 0 50 0;
#X connect 42 0 59 0;
#X connect 44 0 45 0;
#X connect 48 0 49 1;
#X connect 49 0 3 0;
#X connect 50 0 51 0;
#X connect 51 0 48 0;
#X connect 52 0 38 0;
#X connect 53 0 13 0;
#X connect 54 0 55 0;
#X connect 55 0 56 0;
#X connect 56 0 57 0;
#X connect 57 0 30 0;
#X connect 60 0 30 0;
#X restore 30 268 pd Vanne;
#X obj 127 85 init 0.2;
#X obj 126 60 bng 15 250 50 0 empty empty empty 17 7 0 10 #fcfcfc #000000 #000000;
#X obj 402 124 Infernal/main \$0;
#X obj 537 125 hsl 128 15 0 2 0 1 \$0-EnferMaster-snd \$0-EnferMaster-rcv EnferMaster -2 -8 0 10 #00fc04 #000000 #000000 0 1;
#X obj 30 311 Turntable \$0;
#X obj 123 313 hsl 128 15 0 2 0 1 \$0-TurntableMaster-snd \$0-TurntableMaster-rcv TurntableMaster -2 -8 0 10 #00fc04 #000000 #000000 10400 1;
#N canvas 428 55 1403 927 GemCtl 0;
#X obj 344 547 s toGem;
#X obj 22 261 hsl 153 18 0 1 0 0 empty empty empty -2 -9 0 10 #fcfcfc #000000 #000000 0 1;
#X obj 232 155 r \$0-Diesel-speed;
#X obj 19 191 clip 0 1;
#X msg 19 312 light \$1;
#X obj 41 21 r \$0-Diesel-gears-speed;
#X floatatom 94 55 5 0 0 0 - - - 0;
#X obj 415 19 r \$0-Gene-speed;
#X floatatom 380 55 5 0 0 0 - - - 0;
#X obj 232 209 clip 0 1;
#X obj 235 237 hsl 153 18 0 1 0 0 empty empty empty -2 -9 0 10 #fcfcfc #000000 #000000 0 1;
#X msg 232 328 speed \$1;
#X obj 587 13 r \$0-Comp-speed;
#X floatatom 607 50 5 0 0 0 - - - 0;
#X obj 419 130 sel 0 1, f 11;
#X obj 1168 27 r \$0-Panneau2-switchs;
#X text 1245 60 lum;
#X obj 780 45 r \$0-Panneau1-switchs;
#X text 854 131 eff2;
#X obj 780 132 route m1 a1;
#X obj 419 262 tgl 18 0 empty empty empty 0 -9 0 10 #fcfcfc #000000 #000000 0 1;
#X msg 432 167 stop;
#X msg 419 213 0;
#X msg 485 163 stop;
#X msg 479 214 1;
#X obj 419 190 del 1000;
#X obj 478 190 del 4000;
#X obj 19 214 change;
#X msg 378 468 disquepos \$1;
#X msg 553 468 disquealpha \$1;
#X obj 381 439 hsl 153 18 0 1 0 0 empty empty empty -2 -9 0 10 #fcfcfc #000000 #000000 0 1;
#X obj 556 443 hsl 153 18 0 1 0 0 empty empty empty -2 -9 0 10 #fcfcfc #000000 #000000 0 1;
#X obj 788 436 hsl 153 18 0 1 0 0 empty empty empty -2 -9 0 10 #fcfcfc #000000 #000000 0 1;
#X msg 758 468 shader \$1;
#X obj 553 420 line;
#X obj 378 416 line3;
#X obj 378 353 sel 1 0, f 12;
#X msg 378 379 1 3000;
#X obj 1055 396 hsl 153 18 0 1 0 0 empty empty empty -2 -9 0 10 #fcfcfc #000000 #000000 0 1;
#X msg 1052 430 vinyl \$1;
#X obj 1034 504 s Turntable-ctl;
#X msg 994 427 start;
#X msg 956 428 stop;
#X obj 1226 395 hsl 153 18 1 10 1 0 empty empty empty -2 -9 0 10 #fcfcfc #000000 #000000 0 1;
#X msg 1223 431 speed \$1;
#X obj 232 283 * 1;
#X obj 264 285 t b f;
#X obj 304 272 r Turntable-ctl;
#X obj 304 295 route speed;
#X obj 19 622 line;
#X obj 19 645 pow 2;
#X obj 100 618 hsl 153 18 0 1 0 0 empty empty empty -2 -9 0 10 #fcfcfc #000000 #000000 0 1;
#X obj 19 670 s \$0-MachinesMaster-snd;
#X obj 1168 106 sel 1;
#X obj 1216 109 sel 1;
#X msg 778 278 1 2000;
#X msg 722 277 0 2000;
#X obj 778 301 line;
#X obj 780 159 tgl 18 0 empty empty empty 0 -9 0 10 #fcfcfc #000000 #000000 0 1;
#X obj 811 159 tgl 18 0 empty empty empty 0 -9 0 10 #fcfcfc #000000 #000000 0 1;
#X obj 895 321 line;
#X msg 839 297 0 800;
#X msg 895 298 1 800;
#X obj 839 258 sel 0 1;
#X obj 1233 171 t b f;
#X obj 1223 200 &&;
#X obj 1223 223 change;
#X obj 1223 246 sel 0 1;
#X msg 1270 274 1 2000;
#X obj 1223 297 line;
#X obj 1223 320 pow 3;
#X obj 1223 369 + 1;
#X obj 1223 344 * 10;
#X msg 1223 273 0 600;
#X msg 553 397 \$1 800;
#X msg 426 378 0 1500;
#X obj 552 374 min 0.9;
#X obj 780 72 list prepend 0;
#X obj 780 102 route 1 0;
#X msg 968 292 warning show;
#X obj 968 315 s toGem;
#X obj 525 293 s \$0-motrun;
#X obj 935 41 r \$0-motrun;
#X obj 515 529 sel 0;
#X obj 474 559 bng 18 250 50 0 empty empty empty 0 -9 0 10 #fcfcfc #000000 #000000;
#X obj 419 236 change -1;
#X obj 419 106 change -1;
#X obj 515 562 s NEW_TUNE;
#X obj 1168 82 change;
#X obj 1217 84 change;
#X obj 903 117 change;
#X obj 949 116 change;
#X obj 903 140 bng 18 250 50 0 empty empty empty 0 -9 0 10 #fcfcfc #000000 #000000;
#X obj 419 83 > 0.05;
#X obj 1168 58 route a0 m0;
#X obj 40 75 * 4;
#X obj 415 55 * 3;
#X obj 42 52 - 0.05;
#X obj 19 165 r GLum;
#X obj 146 310 sel 0 1;
#X obj 146 360 del 1500;
#X msg 165 335 stop;
#X text 747 137 eff1;
#X obj 903 94 route m0 a0 m1 a1, f 32;
#X obj 997 118 change;
#X obj 1043 117 change;
#X obj 676 136 route a0 m0;
#X obj 232 183 * 2.5;
#X obj 548 123 sel 0 1, f 11;
#X obj 548 255 tgl 18 0 empty empty empty 0 -9 0 10 #fcfcfc #000000 #000000 0 1;
#X msg 561 160 stop;
#X msg 548 206 0;
#X msg 614 156 stop;
#X msg 608 207 1;
#X obj 548 183 del 1000;
#X obj 607 183 del 4000;
#X obj 548 229 change -1;
#X obj 548 99 change -1;
#X obj 548 76 > 0.05;
#X obj 956 397 sel 0 1;
#X obj 1009 681 s \$0-Comp-stop;
#X msg 959 643 1 \, 0;
#X obj 675 163 sel 1;
#X obj 716 162 sel 1;
#X msg 716 185 0;
#X msg 675 186 1;
#X obj 722 214 tgl 18 0 empty empty empty 0 -9 0 10 #fcfcfc #000000 #000000 0 1;
#X obj 780 184 sel 1;
#X obj 821 183 sel 1;
#X msg 821 206 0;
#X msg 780 207 1;
#X obj 820 229 tgl 18 0 empty empty empty 0 -9 0 10 #fcfcfc #000000 #000000 0 1;
#X obj 722 239 sel 0 1;
#X obj 959 735 s \$0-Diesel-stop;
#X obj 991 710 s \$0-Gene-stop;
#X obj 19 482 r toGem;
#X obj 19 505 route disque;
#X obj 19 528 route down;
#X obj 19 574 + 1;
#X obj 19 551 * -0.5;
#X obj 863 757 s \$0-Panneau1-switchs;
#X obj 77 366 del 1500;
#X msg 77 337 stop;
#X msg 146 385 changeset;
#X msg 77 389 1;
#X msg 114 389 0;
#X msg 114 420 vzoom \$1;
#X floatatom 71 431 5 0 0 0 - - - 0;
#X floatatom 99 216 5 0 0 0 - - - 0;
#X obj 959 526 r ENDOFTUNE;
#X obj 959 605 b;
#X obj 959 549 b;
#X obj 959 572 del 5000;
#X msg 920 572 stop;
#X msg 863 696 1 \, 0;
#X msg 863 733 a0 \$1 \, a1 \$1;
#X msg 388 698 diesel \$1;
#X msg 505 696 gene \$1;
#X obj 388 624 r \$0-Diesel-speed;
#X obj 505 624 r \$0-Gene-speed;
#X msg 19 599 \$1 3000;
#X obj 613 623 r \$0-Comp-speed;
#X msg 613 695 comp \$1;
#X obj 505 745 s toGem;
#X obj 388 670 change;
#X obj 505 669 change;
#X obj 613 668 change;
#X obj 388 647 > 0.05;
#X obj 505 647 > 0.05;
#X obj 613 646 > 0.05;
#X msg 169 815 warning show;
#X obj 169 838 s toGem;
#X obj 169 788 spigot 1;
#X obj 269 788 < 0.05;
#X obj 169 765 r \$0-Gene-start;
#X obj 269 765 r \$0-Diesel-gears-speed;
#X msg 424 828 warning show;
#X obj 424 851 s toGem;
#X obj 424 801 spigot 1;
#X obj 424 778 r \$0-Comp-start;
#X obj 524 778 r \$0-Amperes;
#X obj 524 801 < 0.05;
#X obj 882 233 s eff-stop;
#X obj 995 201 change;
#X obj 1041 200 change;
#X obj 995 224 bng 18 250 50 0 empty empty empty 0 -9 0 10 #fcfcfc #000000 #000000;
#X obj 995 178 route m0 a0 m1 a1, f 32;
#X obj 1089 202 change;
#X obj 1135 201 change;
#X obj 994 156 spigot 1;
#X obj 1055 153 == 0;
#X connect 1 0 4 0;
#X connect 2 0 107 0;
#X connect 3 0 27 0;
#X connect 4 0 0 0;
#X connect 5 0 6 0;
#X connect 5 0 97 0;
#X connect 7 0 8 0;
#X connect 7 0 96 0;
#X connect 9 0 10 0;
#X connect 10 0 45 0;
#X connect 11 0 0 0;
#X connect 12 0 13 0;
#X connect 12 0 118 0;
#X connect 14 0 23 0;
#X connect 14 0 25 0;
#X connect 14 0 42 0;
#X connect 14 1 21 0;
#X connect 14 1 26 0;
#X connect 15 0 94 0;
#X connect 17 0 77 0;
#X connect 19 0 58 0;
#X connect 19 1 59 0;
#X connect 20 0 36 0;
#X connect 20 0 76 0;
#X connect 20 0 81 0;
#X connect 21 0 25 0;
#X connect 22 0 85 0;
#X connect 23 0 26 0;
#X connect 24 0 85 0;
#X connect 25 0 22 0;
#X connect 26 0 24 0;
#X connect 27 0 1 0;
#X connect 27 0 99 0;
#X connect 27 0 148 0;
#X connect 28 0 0 0;
#X connect 29 0 0 0;
#X connect 30 0 28 0;
#X connect 31 0 29 0;
#X connect 31 0 83 0;
#X connect 32 0 33 0;
#X connect 33 0 0 0;
#X connect 34 0 31 0;
#X connect 35 0 30 0;
#X connect 36 0 37 0;
#X connect 36 1 75 0;
#X connect 37 0 35 0;
#X connect 38 0 39 0;
#X connect 39 0 40 0;
#X connect 41 0 40 0;
#X connect 41 0 153 0;
#X connect 42 0 40 0;
#X connect 43 0 44 0;
#X connect 44 0 40 0;
#X connect 45 0 11 0;
#X connect 46 0 45 0;
#X connect 46 1 45 1;
#X connect 47 0 48 0;
#X connect 48 0 46 0;
#X connect 49 0 50 0;
#X connect 50 0 52 0;
#X connect 51 0 50 0;
#X connect 55 0 57 0;
#X connect 56 0 57 0;
#X connect 57 0 38 0;
#X connect 58 0 65 0;
#X connect 58 0 127 0;
#X connect 59 0 64 0;
#X connect 59 0 128 0;
#X connect 60 0 32 0;
#X connect 61 0 60 0;
#X connect 62 0 60 0;
#X connect 63 0 61 0;
#X connect 63 1 62 0;
#X connect 64 0 65 0;
#X connect 64 1 65 1;
#X connect 65 0 66 0;
#X connect 66 0 67 0;
#X connect 67 0 73 0;
#X connect 67 1 68 0;
#X connect 68 0 69 0;
#X connect 69 0 70 0;
#X connect 70 0 72 0;
#X connect 71 0 43 0;
#X connect 72 0 71 0;
#X connect 73 0 69 0;
#X connect 74 0 34 0;
#X connect 75 0 35 0;
#X connect 76 0 74 0;
#X connect 77 0 78 0;
#X connect 78 0 19 0;
#X connect 78 0 106 0;
#X connect 78 0 189 0;
#X connect 78 1 103 0;
#X connect 79 0 80 0;
#X connect 82 0 77 1;
#X connect 83 0 84 0;
#X connect 83 0 87 0;
#X connect 85 0 20 0;
#X connect 86 0 14 0;
#X connect 88 0 53 0;
#X connect 89 0 54 0;
#X connect 90 0 92 0;
#X connect 91 0 92 0;
#X connect 92 0 79 0;
#X connect 92 0 182 0;
#X connect 93 0 86 0;
#X connect 94 0 88 0;
#X connect 94 1 89 0;
#X connect 96 0 93 0;
#X connect 97 0 95 0;
#X connect 98 0 3 0;
#X connect 99 0 100 0;
#X connect 99 0 142 0;
#X connect 99 1 101 0;
#X connect 99 1 141 0;
#X connect 100 0 143 0;
#X connect 100 0 145 0;
#X connect 101 0 100 0;
#X connect 103 0 90 0;
#X connect 103 1 91 0;
#X connect 103 2 104 0;
#X connect 103 3 105 0;
#X connect 104 0 92 0;
#X connect 105 0 92 0;
#X connect 106 0 122 0;
#X connect 106 1 123 0;
#X connect 107 0 9 0;
#X connect 108 0 112 0;
#X connect 108 0 114 0;
#X connect 108 1 110 0;
#X connect 108 1 115 0;
#X connect 109 0 119 0;
#X connect 109 0 190 0;
#X connect 110 0 114 0;
#X connect 111 0 116 0;
#X connect 112 0 115 0;
#X connect 113 0 116 0;
#X connect 114 0 111 0;
#X connect 115 0 113 0;
#X connect 116 0 109 0;
#X connect 117 0 108 0;
#X connect 118 0 117 0;
#X connect 119 0 42 0;
#X connect 119 1 41 0;
#X connect 121 0 120 0;
#X connect 121 0 133 0;
#X connect 121 0 134 0;
#X connect 122 0 125 0;
#X connect 123 0 124 0;
#X connect 124 0 126 0;
#X connect 125 0 126 0;
#X connect 126 0 132 0;
#X connect 127 0 130 0;
#X connect 128 0 129 0;
#X connect 129 0 131 0;
#X connect 130 0 131 0;
#X connect 131 0 63 0;
#X connect 132 0 56 0;
#X connect 132 1 55 0;
#X connect 135 0 136 0;
#X connect 136 0 137 0;
#X connect 137 0 139 0;
#X connect 138 0 160 0;
#X connect 139 0 138 0;
#X connect 141 0 144 0;
#X connect 142 0 141 0;
#X connect 143 0 0 0;
#X connect 144 0 146 0;
#X connect 144 0 147 0;
#X connect 145 0 146 0;
#X connect 145 0 147 0;
#X connect 146 0 0 0;
#X connect 149 0 151 0;
#X connect 150 0 121 0;
#X connect 150 0 154 0;
#X connect 151 0 152 0;
#X connect 152 0 150 0;
#X connect 153 0 150 0;
#X connect 154 0 155 0;
#X connect 155 0 140 0;
#X connect 156 0 163 0;
#X connect 157 0 163 0;
#X connect 158 0 167 0;
#X connect 159 0 168 0;
#X connect 160 0 49 0;
#X connect 161 0 169 0;
#X connect 162 0 163 0;
#X connect 164 0 156 0;
#X connect 165 0 157 0;
#X connect 166 0 162 0;
#X connect 167 0 164 0;
#X connect 168 0 165 0;
#X connect 169 0 166 0;
#X connect 170 0 171 0;
#X connect 172 0 170 0;
#X connect 173 0 172 1;
#X connect 174 0 172 0;
#X connect 175 0 173 0;
#X connect 176 0 177 0;
#X connect 178 0 176 0;
#X connect 179 0 178 0;
#X connect 180 0 181 0;
#X connect 181 0 178 1;
#X connect 183 0 185 0;
#X connect 184 0 185 0;
#X connect 185 0 79 0;
#X connect 186 0 183 0;
#X connect 186 1 184 0;
#X connect 186 2 187 0;
#X connect 186 3 188 0;
#X connect 187 0 185 0;
#X connect 188 0 185 0;
#X connect 189 0 186 0;
#X connect 190 0 189 1;
#X restore 321 285 pd GemCtl;
#N canvas 782 29 376 722 TUNE 0;
#X obj 72 32 r NEW_TUNE;
#X obj 111 141 file glob;
#X msg 111 114 symbol data/tunes/*/;
#X obj 111 84 t b b, f 13;
#X obj 111 265 list store, f 13;
#X obj 28 34 bng 18 250 50 0 empty empty empty 0 -9 0 10 #fcfcfc #000000 #000000;
#X obj 111 294 t a;
#X obj 111 173 list split 1;
#X obj 111 354 list length;
#X obj 72 563 list store, f 13;
#X obj 111 324 t a a, f 13;
#X msg 72 538 get \$1;
#X listbox 142 605 32 0 0 0 - - - 0;
#X obj 72 512 shuffle 0 1 0.5;
#X obj 92 459 t b f, f 7;
#X obj 92 434 change -1;
#X obj 111 381 - 1;
#X msg 92 486 0;
#X floatatom 14 564 5 0 0 0 - - - 0;
#X obj 92 405 f, f 4;
#X obj 72 55 t a b b;
#X obj 72 604 s TUNE;
#X obj 111 197 basedir;
#X obj 111 224 list split 1;
#X floatatom 208 402 5 0 0 0 - - - 0;
#X obj 238 437 i;
#X obj 269 438 + 1;
#X obj 301 438 mod 26;
#X floatatom 238 479 5 0 0 0 - - - 16;
#X obj 257 333 bng 18 250 50 0 empty empty empty 0 -9 0 10 #fcfcfc #000000 #000000;
#X msg 238 369 0;
#X obj 199 480 i;
#X obj 189 439 bng 18 250 50 0 empty empty empty 0 -9 0 10 #fcfcfc #000000 #000000;
#X floatatom 282 361 5 0 0 0 - - - 0;
#X connect 0 0 20 0;
#X connect 1 0 7 0;
#X connect 2 0 1 0;
#X connect 3 0 2 0;
#X connect 3 1 4 1;
#X connect 4 0 6 0;
#X connect 5 0 20 0;
#X connect 6 0 4 1;
#X connect 6 0 10 0;
#X connect 7 0 22 0;
#X connect 8 0 16 0;
#X connect 8 0 24 0;
#X connect 8 0 27 1;
#X connect 9 0 12 0;
#X connect 9 0 21 0;
#X connect 10 0 8 0;
#X connect 10 1 9 1;
#X connect 11 0 9 0;
#X connect 13 0 11 0;
#X connect 13 0 18 0;
#X connect 14 0 17 0;
#X connect 14 1 13 1;
#X connect 15 0 14 0;
#X connect 16 0 19 1;
#X connect 17 0 13 0;
#X connect 19 0 15 0;
#X connect 20 0 13 0;
#X connect 20 1 19 0;
#X connect 20 2 3 0;
#X connect 22 0 23 0;
#X connect 23 0 4 0;
#X connect 25 0 26 0;
#X connect 25 0 28 0;
#X connect 25 0 31 0;
#X connect 26 0 27 0;
#X connect 27 0 25 1;
#X connect 29 0 25 0;
#X connect 30 0 25 0;
#X connect 31 0 11 0;
#X connect 32 0 31 0;
#X connect 33 0 25 0;
#X restore 425 285 pd TUNE;
#X connect 1 0 2 0;
#X connect 4 0 5 0;
#X connect 7 0 8 0;
#X connect 10 0 9 0;
#X connect 11 0 9 1;
#X connect 12 0 9 2;
#X connect 13 0 4 0;
#X connect 14 0 7 0;
#X connect 15 0 1 0;
#X connect 18 0 4 0;
#X connect 18 0 1 0;
#X connect 18 0 7 0;
#X connect 19 0 18 0;
#X restore 40 103 pd Machines;
#N canvas 487 735 645 252 Interfaces 0;
#N canvas 12 206 612 497 DIESEL 0;
#X floatatom 1 163 5 0 0 0 - - - 0;
#X obj 27 151 hsl 128 15 0 1 0 0 empty empty empty -2 -8 0 10 #fcfcfc #000000 #000000 0 1;
#X msg 49 330 c 11 i \$1;
#X floatatom -3 200 5 0 0 0 - - - 0;
#X obj 42 310 speedlim 100;
#X obj 45 273 i;
#X obj 148 268 i;
#X obj 142 126 line;
#X obj 44 252 * 110;
#X obj 44 291 change;
#X obj 125 84 tgl 15 0 empty empty empty 17 7 0 10 #fcfcfc #000000 #000000 0 1;
#X obj 137 60 r \$0-beat;
#X obj 149 308 speedlim 20;
#X obj 243 42 r \$0-Diesel-speed;
#X obj 244 65 swap 1;
#X obj 243 86 /;
#X floatatom 289 83 5 0 0 0 - - - 0;
#X obj 136 103 pack f 80;
#X obj 181 127 * 40;
#X obj 336 78 r \$0-sign;
#X obj 243 141 +;
#X obj 268 141 mod 4;
#X floatatom 294 172 5 0 0 0 - - - 0;
#X msg 243 121 1;
#X obj 246 168 == 0;
#X obj 246 256 line;
#X obj 246 234 pack f 80;
#X obj 148 248 * 500;
#X obj 249 321 i;
#X obj 250 367 speedlim 20;
#X obj 249 301 * 500;
#X msg 250 392 c 14 i \$1;
#X obj 335 100 + 1;
#X obj 184 174 spigot;
#X obj 197 85 sel 1 0;
#X obj 207 153 == 1;
#X msg 209 197 0;
#X obj 316 155 * 80;
#X obj 504 90 route 0 6;
#X obj 431 56 r \$0-Panneau2-switchs;
#X obj 431 79 route a1 m1;
#X obj 462 113 s \$0-Diesel-start;
#X obj 439 176 s \$0-Diesel-stop;
#X floatatom 184 261 5 0 0 0 - - - 0;
#X msg 151 328 c 10 i \$1;
#X obj 355 142 != 0;
#X obj 355 168 change;
#X obj 246 207 *;
#X obj 272 207 t b f;
#X obj 148 291 change;
#X obj 250 345 change;
#X obj 26 33 r \$0-Diesel-gears-speed;
#N canvas 1 82 450 300 bounce 0;
#X obj 153 43 inlet;
#X obj 153 73 sel 0 1;
#X msg 153 128 0;
#X obj 186 128 del 50;
#X msg 196 104 stop;
#X obj 165 182 change;
#X msg 185 151 1;
#X obj 165 207 outlet;
#X connect 0 0 1 0;
#X connect 1 0 2 0;
#X connect 1 0 4 0;
#X connect 1 1 3 0;
#X connect 2 0 5 0;
#X connect 3 0 6 0;
#X connect 4 0 3 0;
#X connect 5 0 7 0;
#X connect 6 0 5 0;
#X restore 399 114 pd bounce;
#X obj 68 418 spigot 1;
#X obj 113 367 r \$0-tofaise-enable;
#X obj 112 391 tgl 15 0 empty empty empty 17 7 0 10 #fcfcfc #000000 #000000 0 1;
#X obj 197 421 spigot 1;
#X obj 491 160 tgl 15 0 empty empty empty 17 7 0 10 #fcfcfc #000000 #000000 0 1;
#X obj 30 221 LumMaster \$0;
#X obj 130 218 LumMaster \$0;
#X obj 247 282 LumMaster \$0;
#X floatatom 364 396 5 0 0 0 - - - 0;
#X floatatom 346 436 5 0 0 0 - - - 0;
#X obj 68 440 fruit/send2 Panneau1;
#X obj 197 447 fruit/send2 Panneau2;
#X connect 1 0 58 0;
#X connect 2 0 53 0;
#X connect 4 0 2 0;
#X connect 5 0 9 0;
#X connect 6 0 49 0;
#X connect 7 0 59 0;
#X connect 8 0 5 0;
#X connect 9 0 4 0;
#X connect 10 0 17 0;
#X connect 11 0 10 0;
#X connect 11 0 34 0;
#X connect 12 0 44 0;
#X connect 13 0 14 0;
#X connect 13 0 45 0;
#X connect 14 0 15 0;
#X connect 14 1 15 1;
#X connect 15 0 16 0;
#X connect 15 0 18 0;
#X connect 15 0 37 0;
#X connect 17 0 7 0;
#X connect 18 0 17 1;
#X connect 19 0 32 0;
#X connect 20 0 21 0;
#X connect 21 0 20 1;
#X connect 21 0 22 0;
#X connect 21 0 24 0;
#X connect 23 0 20 0;
#X connect 24 0 47 0;
#X connect 25 0 60 0;
#X connect 26 0 25 0;
#X connect 27 0 6 0;
#X connect 28 0 50 0;
#X connect 29 0 31 0;
#X connect 30 0 28 0;
#X connect 31 0 53 0;
#X connect 32 0 21 1;
#X connect 32 0 35 0;
#X connect 33 0 36 0;
#X connect 34 0 23 0;
#X connect 34 1 33 0;
#X connect 35 0 33 1;
#X connect 36 0 26 0;
#X connect 37 0 26 1;
#X connect 39 0 40 0;
#X connect 40 0 52 0;
#X connect 40 1 41 0;
#X connect 40 1 57 0;
#X connect 43 0 6 0;
#X connect 44 0 56 0;
#X connect 45 0 46 0;
#X connect 46 0 48 0;
#X connect 47 0 26 0;
#X connect 48 0 47 0;
#X connect 48 1 47 1;
#X connect 49 0 12 0;
#X connect 50 0 29 0;
#X connect 51 0 0 0;
#X connect 51 0 1 0;
#X connect 52 0 42 0;
#X connect 53 0 63 0;
#X connect 54 0 55 0;
#X connect 55 0 53 1;
#X connect 55 0 56 1;
#X connect 56 0 64 0;
#X connect 58 0 8 0;
#X connect 59 0 27 0;
#X connect 60 0 30 0;
#X restore 33 111 pd DIESEL;
#N canvas 228 549 606 320 GENERATRICE 0;
#X obj 35 45 hsl 128 15 0 1 0 0 empty empty empty -2 -8 0 10 #fcfcfc #000000 #000000 0 1;
#X obj 21 151 speedlim 100;
#X obj 24 111 i;
#X obj 23 129 change;
#X msg 22 173 c 12 i \$1;
#X obj 23 90 * 200;
#X obj 416 56 r \$0-Panneau2-switchs;
#X obj 416 123 s \$0-Gene-stop;
#X obj 447 101 s \$0-Gene-start;
#X obj 416 79 route a2 m2;
#X obj 217 15 r \$0-Gene-speed;
#X obj 209 146 i;
#X obj 209 166 speedlim 20;
#X obj 209 126 * 500;
#X floatatom 157 142 5 0 0 0 - - - 0;
#X msg 208 189 c 12 i \$1;
#X floatatom 300 148 5 0 0 0 - - - 0;
#X obj 40 231 spigot 1;
#X obj 85 180 r \$0-tofaise-enable;
#X obj 84 204 tgl 15 0 empty empty empty 17 7 0 10 #fcfcfc #000000 #000000 0 1;
#X obj 168 233 spigot 1;
#X obj 45 13 r \$0-Amperes;
#X obj 217 40 t f f;
#X obj 217 61 pow 2;
#X obj 217 84 +;
#X obj 257 76 / 450;
#X floatatom 334 41 5 0 0 0 - - - 0;
#X obj 24 69 LumMaster \$0;
#X obj 208 104 LumMaster \$0;
#X obj 261 56 > 0.001;
#X obj 168 257 fruit/send2 Panneau2;
#X obj 40 253 fruit/send2 Panneau1;
#X connect 0 0 27 0;
#X connect 1 0 4 0;
#X connect 2 0 3 0;
#X connect 3 0 1 0;
#X connect 4 0 17 0;
#X connect 5 0 2 0;
#X connect 6 0 9 0;
#X connect 9 0 7 0;
#X connect 9 1 8 0;
#X connect 10 0 22 0;
#X connect 10 0 26 0;
#X connect 11 0 12 0;
#X connect 12 0 15 0;
#X connect 13 0 11 0;
#X connect 13 0 16 0;
#X connect 14 0 11 0;
#X connect 15 0 20 0;
#X connect 17 0 31 0;
#X connect 18 0 19 0;
#X connect 19 0 17 1;
#X connect 19 0 20 1;
#X connect 20 0 30 0;
#X connect 21 0 0 0;
#X connect 22 0 23 0;
#X connect 22 1 29 0;
#X connect 23 0 24 0;
#X connect 24 0 28 0;
#X connect 25 0 24 1;
#X connect 27 0 5 0;
#X connect 28 0 13 0;
#X connect 29 0 25 0;
#X restore 33 134 pd GENERATRICE;
#N canvas 79 156 793 560 tests 0;
#X msg 224 404 E Coucou;
#X msg 80 355 c \$1 i \$2;
#X obj 132 87 hsl 128 15 0 1 0 0 empty empty empty -2 -8 0 10 #fcfcfc #000000 #000000 0 1;
#X obj 134 165 pow 2;
#X obj 129 218 i;
#X obj 130 237 change;
#X floatatom 262 232 5 0 0 0 - - - 0;
#X obj 201 65 tgl 15 0 empty empty empty 17 7 0 10 #fcfcfc #000000 #000000 0 1;
#X obj 142 52 tgl 15 0 empty empty empty 17 7 0 10 #fcfcfc #000000 #000000 0 1;
#X obj 181 41 metro 60;
#X msg 252 44 20;
#X obj 134 144 line3;
#X msg 56 327 10 \$1;
#X obj 97 329 pack f f;
#X msg 92 302 10 \, 11 \, 12 \, 13 \, 14 \, 15 \, 16 \, 17 \, 18;
#X obj 101 282 t b f;
#X msg 270 67 1000;
#X obj 135 256 speedlim 15;
#X obj 188 159 * 12;
#X msg 132 120 \$1 4;
#X msg 283 97 400;
#X obj 188 180 / 12;
#X obj 184 370 pack f f;
#X obj 202 318 t b f;
#X msg 193 343 14 \, 15 \, 16 \, 17 \, 18;
#X msg 188 437 c \$1 i \$2;
#X obj 129 195 * 505;
#X obj 363 284 unpack f f;
#X obj 363 305 * 256;
#X obj 363 329 +;
#X obj 363 355 / 8192;
#X obj 361 387 vsl 15 128 0 1 0 0 empty empty empty 0 -9 0 10 #fcfcfc #000000 #000000 0 1;
#X obj 430 285 unpack f f;
#X obj 430 306 * 256;
#X obj 430 330 +;
#X obj 430 356 / 8192;
#X obj 428 388 vsl 15 128 0 1 0 0 empty empty empty 0 -9 0 10 #fcfcfc #000000 #000000 0 1;
#X obj 501 281 unpack f f;
#X obj 501 302 * 256;
#X obj 501 326 +;
#X obj 501 352 / 8192;
#X obj 499 384 vsl 15 128 0 1 0 0 empty empty empty 0 -9 0 10 #fcfcfc #000000 #000000 0 1;
#X obj 568 282 unpack f f;
#X obj 568 303 * 256;
#X obj 568 327 +;
#X obj 568 353 / 8192;
#X obj 566 385 vsl 15 128 0 1 0 0 empty empty empty 0 -9 0 10 #fcfcfc #000000 #000000 0 1;
#X obj 410 244 route 100 101 102 103;
#X obj 643 403 mtof;
#X obj 643 428 osc~;
#X obj 646 481 dac~;
#X obj 645 461 *~ 0.1;
#X obj 367 74 route 101;
#X obj 366 94 unpack f f;
#X obj 366 115 * 256;
#X obj 366 139 +;
#X floatatom 346 177 5 0 0 0 - - - 0;
#X obj 479 103 print;
#X obj 398 159 > 4000;
#X obj 639 377 maxlib/scale 0 1 70 110;
#X obj 365 47 fruit/receive Panneau1;
#X obj 410 190 fruit/receive Comm;
#X obj 101 400 fruit/send2 Panneau2;
#X obj 172 459 fruit/send2 Panneau1;
#X connect 0 0 62 1;
#X connect 1 0 62 0;
#X connect 2 0 19 0;
#X connect 3 0 18 0;
#X connect 4 0 5 0;
#X connect 5 0 17 0;
#X connect 7 0 2 0;
#X connect 8 0 9 0;
#X connect 9 0 7 0;
#X connect 10 0 9 1;
#X connect 11 0 3 0;
#X connect 12 0 1 0;
#X connect 13 0 1 0;
#X connect 14 0 13 0;
#X connect 15 0 14 0;
#X connect 15 1 13 1;
#X connect 16 0 9 1;
#X connect 17 0 6 0;
#X connect 17 0 23 0;
#X connect 17 0 15 0;
#X connect 18 0 21 0;
#X connect 19 0 11 0;
#X connect 20 0 9 1;
#X connect 21 0 26 0;
#X connect 22 0 25 0;
#X connect 23 0 24 0;
#X connect 23 1 22 1;
#X connect 24 0 22 0;
#X connect 25 0 63 0;
#X connect 26 0 4 0;
#X connect 27 0 28 0;
#X connect 27 1 29 1;
#X connect 28 0 29 0;
#X connect 29 0 30 0;
#X connect 30 0 31 0;
#X connect 32 0 33 0;
#X connect 32 1 34 1;
#X connect 33 0 34 0;
#X connect 34 0 35 0;
#X connect 35 0 36 0;
#X connect 37 0 38 0;
#X connect 37 1 39 1;
#X connect 38 0 39 0;
#X connect 39 0 40 0;
#X connect 40 0 41 0;
#X connect 42 0 43 0;
#X connect 42 1 44 1;
#X connect 43 0 44 0;
#X connect 44 0 45 0;
#X connect 45 0 46 0;
#X connect 46 0 59 0;
#X connect 47 0 27 0;
#X connect 47 1 32 0;
#X connect 47 2 37 0;
#X connect 47 3 42 0;
#X connect 48 0 49 0;
#X connect 51 0 50 0;
#X connect 52 0 53 0;
#X connect 53 0 54 0;
#X connect 53 1 55 1;
#X connect 54 0 55 0;
#X connect 59 0 48 0;
#X connect 60 0 52 0;
#X restore 393 78 pd tests;
#N canvas 110 280 407 425 SIGN 0;
#X obj 94 44 route 100;
#X obj 94 68 unpack f f;
#X obj 94 89 * 256;
#X obj 94 113 +;
#X obj 94 139 / 8192;
#X obj 92 165 * 6;
#X obj 93 197 + 0.5;
#X obj 93 220 i;
#X obj 93 241 change;
#X obj 93 265 t b f;
#X obj 92 309 f;
#X obj 94 289 del 50;
#X obj 89 353 s \$0-sign;
#N canvas 1 92 450 300 trouver7 0;
#X obj 158 52 t f f;
#X obj 184 95 sel 0;
#X msg 200 199 7;
#X obj 155 26 inlet;
#X obj 175 229 outlet;
#X obj 184 165 demux;
#X msg 171 192 0;
#X obj 219 138 > 2;
#X connect 0 0 7 0;
#X connect 0 1 1 0;
#X connect 1 0 5 0;
#X connect 1 1 4 0;
#X connect 2 0 4 0;
#X connect 3 0 0 0;
#X connect 5 0 6 0;
#X connect 5 1 2 0;
#X connect 6 0 4 0;
#X connect 7 0 5 1;
#X restore 91 330 pd trouver7;
#X obj 94 22 fruit/receive Panneau1;
#X floatatom 199 305 5 0 0 0 - - - 36;
#X connect 0 0 1 0;
#X connect 1 0 2 0;
#X connect 1 1 3 1;
#X connect 2 0 3 0;
#X connect 3 0 4 0;
#X connect 4 0 5 0;
#X connect 5 0 6 0;
#X connect 6 0 7 0;
#X connect 7 0 8 0;
#X connect 8 0 9 0;
#X connect 9 0 11 0;
#X connect 9 1 10 1;
#X connect 10 0 13 0;
#X connect 11 0 10 0;
#X connect 13 0 12 0;
#X connect 13 0 15 0;
#X connect 14 0 0 0;
#X restore 34 80 pd SIGN;
#N canvas 535 349 375 394 2_switchs 0;
#X obj 264 150 print;
#X obj 108 173 route s;
#X obj 97 258 == 0;
#X obj 140 259 == 0;
#X obj 195 256 == 0;
#X obj 95 286 tgl 15 0 empty empty empty 17 7 0 10 #fcfcfc #000000 #000000 0 1;
#X obj 140 285 tgl 15 0 empty empty empty 17 7 0 10 #fcfcfc #000000 #000000 0 1;
#X obj 120 284 tgl 15 0 empty empty empty 17 7 0 10 #fcfcfc #000000 #000000 0 1;
#X obj 165 283 tgl 15 0 empty empty empty 17 7 0 10 #fcfcfc #000000 #000000 0 1;
#X obj 186 284 tgl 15 0 empty empty empty 17 7 0 10 #fcfcfc #000000 #000000 0 1;
#X obj 215 287 tgl 15 0 empty empty empty 17 7 0 10 #fcfcfc #000000 #000000 0 1;
#X obj 109 213 route 0 1 2 3 4 5 6;
#X obj 34 62 route 100;
#X obj 36 85 unpack f f;
#X obj 36 106 * 256;
#X obj 38 127 +;
#X obj 44 150 > 4000;
#X obj 45 170 change;
#X msg 70 315 a0 \$1;
#X msg 117 314 m0 \$1;
#X msg 168 315 a1 \$1;
#X msg 206 318 m1 \$1;
#X obj 154 354 s \$0-Panneau2-switchs;
#X msg 246 316 m2 \$1;
#X msg 284 319 a2 \$1;
#X obj 193 52 r \$0-Panneau2-switchs;
#X obj 207 76 spigot;
#X obj 257 73 tgl 15 0 empty empty empty 17 7 0 10 #fcfcfc #000000 #000000 0 1;
#X obj 191 99 print panneau2-sw;
#X obj 34 36 fruit/receive Panneau2;
#X connect 1 0 11 0;
#X connect 2 0 5 0;
#X connect 3 0 6 0;
#X connect 4 0 9 0;
#X connect 5 0 18 0;
#X connect 6 0 20 0;
#X connect 7 0 19 0;
#X connect 8 0 21 0;
#X connect 9 0 23 0;
#X connect 10 0 24 0;
#X connect 11 0 2 0;
#X connect 11 2 3 0;
#X connect 11 3 8 0;
#X connect 11 4 9 0;
#X connect 11 6 7 0;
#X connect 12 0 13 0;
#X connect 12 1 1 0;
#X connect 13 0 14 0;
#X connect 13 1 15 1;
#X connect 14 0 15 0;
#X connect 15 0 16 0;
#X connect 16 0 17 0;
#X connect 17 0 10 0;
#X connect 18 0 22 0;
#X connect 19 0 22 0;
#X connect 20 0 22 0;
#X connect 21 0 22 0;
#X connect 23 0 22 0;
#X connect 24 0 22 0;
#X connect 25 0 26 0;
#X connect 26 0 28 0;
#X connect 27 0 26 1;
#X connect 29 0 12 0;
#X restore 138 110 pd 2_switchs;
#N canvas 698 388 487 355 1_switchs 0;
#X obj 116 36 route s;
#X obj 101 134 tgl 15 0 empty empty empty 17 7 0 10 #fcfcfc #000000 #000000 0 1;
#X obj 146 133 tgl 15 0 empty empty empty 17 7 0 10 #fcfcfc #000000 #000000 0 1;
#X obj 126 132 tgl 15 0 empty empty empty 17 7 0 10 #fcfcfc #000000 #000000 0 1;
#X obj 171 131 tgl 15 0 empty empty empty 17 7 0 10 #fcfcfc #000000 #000000 0 1;
#X obj 216 132 tgl 15 0 empty empty empty 17 7 0 10 #fcfcfc #000000 #000000 0 1;
#X obj 245 135 tgl 15 0 empty empty empty 17 7 0 10 #fcfcfc #000000 #000000 0 1;
#X obj 115 61 route 0 1 2 3 4 5 6;
#X obj 120 214 s \$0-Panneau1-switchs;
#X obj 78 104 != 0;
#X obj 112 107 == 0;
#X obj 146 107 != 0;
#X obj 216 109 != 0;
#X obj 252 109 == 0;
#X obj 181 105 == 0;
#X msg 134 175 m1 \$1;
#X msg 172 178 a1 \$1;
#X msg 212 176 m2 \$1;
#X obj 268 66 print;
#X msg 261 177 a2 \$1;
#X obj 128 253 r \$0-Panneau1-switchs;
#X obj 141 300 print panneau1-sw;
#X obj 137 278 spigot;
#X obj 186 279 tgl 15 0 empty empty empty 17 7 0 10 #fcfcfc #000000 #000000 0 1;
#X msg 36 175 m0 \$1;
#X msg 83 174 a0 \$1;
#X obj 115 13 fruit/receive Panneau1;
#X connect 0 0 7 0;
#X connect 1 0 24 0;
#X connect 2 0 15 0;
#X connect 3 0 25 0;
#X connect 4 0 16 0;
#X connect 5 0 17 0;
#X connect 6 0 19 0;
#X connect 7 0 9 0;
#X connect 7 2 11 0;
#X connect 7 3 14 0;
#X connect 7 4 12 0;
#X connect 7 5 13 0;
#X connect 7 6 10 0;
#X connect 9 0 1 0;
#X connect 10 0 3 0;
#X connect 11 0 2 0;
#X connect 12 0 5 0;
#X connect 13 0 6 0;
#X connect 14 0 4 0;
#X connect 15 0 8 0;
#X connect 16 0 8 0;
#X connect 17 0 8 0;
#X connect 19 0 8 0;
#X connect 20 0 22 0;
#X connect 22 0 21 0;
#X connect 23 0 22 1;
#X connect 24 0 8 0;
#X connect 25 0 8 0;
#X connect 26 0 0 0;
#X restore 137 88 pd 1_switchs;
#N canvas 160 550 606 404 COMPRESSEUR 0;
#X obj 56 47 hsl 128 15 0 1 0 0 empty empty empty -2 -8 0 10 #fcfcfc #000000 #000000 0 1;
#X obj 53 169 speedlim 100;
#X obj 54 115 i;
#X obj 53 133 change;
#X obj 414 58 r \$0-Panneau1-switchs;
#X obj 445 103 s \$0-Comp-start;
#X obj 414 125 s \$0-Comp-stop;
#X obj 268 51 pow 0.5;
#X obj 287 165 i;
#X obj 287 185 speedlim 20;
#X floatatom 320 161 5 0 0 0 - - - 0;
#X msg 53 198 c 13 i \$1;
#X floatatom 142 150 5 0 0 0 - - - 0;
#X obj 53 94 * 300;
#X obj 268 22 r \$0-Comp-speed;
#X msg 286 208 c 11 i \$1;
#X obj 414 81 route a2 m2;
#X obj 96 251 spigot 1;
#X obj 141 200 r \$0-tofaise-enable;
#X obj 140 224 tgl 15 0 empty empty empty 17 7 0 10 #fcfcfc #000000 #000000 0 1;
#X obj 224 253 spigot 1;
#X obj 51 17 r \$0-Pressure;
#X obj 54 72 LumMaster \$0;
#X obj 266 74 LumMaster \$0;
#X floatatom 375 172 5 0 0 0 - - - 0;
#X obj 279 118 - 50;
#X obj 267 94 * 550;
#X obj 281 138 max 0;
#X obj 96 273 fruit/send2 Panneau1;
#X obj 225 280 fruit/send2 Panneau2;
#X obj 50 348;
#X obj 428 243 r~ TuneAudio;
#X floatatom 369 334 5 0 0 0 - - - 0;
#X obj 441 314 / 100;
#X obj 428 266 env~;
#X obj 342 250 * 2.6;
#X connect 0 0 22 0;
#X connect 1 0 11 0;
#X connect 1 0 12 0;
#X connect 2 0 3 0;
#X connect 4 0 16 0;
#X connect 7 0 23 0;
#X connect 8 0 9 0;
#X connect 9 0 15 0;
#X connect 9 0 24 0;
#X connect 10 0 8 0;
#X connect 11 0 17 0;
#X connect 13 0 2 0;
#X connect 14 0 7 0;
#X connect 15 0 20 0;
#X connect 16 0 6 0;
#X connect 16 1 5 0;
#X connect 17 0 28 0;
#X connect 18 0 19 0;
#X connect 19 0 17 1;
#X connect 19 0 20 1;
#X connect 20 0 29 0;
#X connect 21 0 0 0;
#X connect 22 0 13 0;
#X connect 23 0 26 0;
#X connect 25 0 27 0;
#X connect 26 0 25 0;
#X connect 27 0 8 0;
#X connect 31 0 34 0;
#X connect 34 0 32 0;
#X connect 34 0 35 0;
#X connect 35 0 1 0;
#X restore 35 156 pd COMPRESSEUR;
#N canvas 1 201 658 325 TANK 0;
#X obj 77 8 r \$0-Tank;
#X floatatom 259 29 5 0 0 0 - - - 0;
#X obj 241 45 hsl 128 15 0 1 0 0 empty empty empty -2 -8 0 10 #fcfcfc #000000 #000000 0 1;
#X obj 72 182 speedlim 100;
#X obj 78 50 i;
#X obj 78 74 change;
#X msg 79 202 c 10 i \$1;
#X obj 77 29 * 250;
#X obj 227 149 s \$0-filltank;
#X obj 233 81 r \$0-Panneau2-switchs;
#X obj 233 104 route a0 m1;
#X obj 80 276 spigot 1;
#X obj 125 225 r \$0-tofaise-enable;
#X obj 124 249 tgl 15 0 empty empty empty 17 7 0 10 #fcfcfc #000000 #000000 0 1;
#X obj 208 278 spigot 1;
#X floatatom 457 162 5 0 0 0 - - - 0;
#X obj 412 105 unpack f f;
#X obj 412 126 * 256;
#X obj 412 150 +;
#X obj 412 176 / 8192;
#X obj 412 82 route 101;
#X msg 226 127 1;
#X msg 259 128 0;
#X obj 416 210 s \$0-pump-rcv;
#X msg 78 95 \$1 5000;
#X obj 77 135 i;
#X obj 77 159 change;
#X obj 78 115 line3;
#X obj 412 60 fruit/receive Panneau2;
#X obj 80 298 fruit/send2 Panneau1;
#X obj 209 305 fruit/send2 Panneau2;
#X connect 0 0 7 0;
#X connect 2 0 7 0;
#X connect 3 0 6 0;
#X connect 4 0 5 0;
#X connect 5 0 24 0;
#X connect 6 0 11 0;
#X connect 7 0 4 0;
#X connect 10 0 21 0;
#X connect 10 1 22 0;
#X connect 11 0 29 0;
#X connect 12 0 13 0;
#X connect 13 0 11 1;
#X connect 13 0 14 1;
#X connect 14 0 30 0;
#X connect 16 0 17 0;
#X connect 16 1 18 1;
#X connect 17 0 18 0;
#X connect 18 0 19 0;
#X connect 19 0 23 0;
#X connect 20 0 16 0;
#X connect 21 0 8 0;
#X connect 22 0 8 0;
#X connect 24 0 27 0;
#X connect 25 0 26 0;
#X connect 26 0 3 0;
#X connect 27 0 25 0;
#X connect 28 0 20 0;
#X restore 39 185 pd TANK;
#N canvas 236 146 915 631 COMMANDES 0;
#X obj 87 284 vsl 15 128 0 1 0 0 empty empty empty 0 -9 0 10 #fcfcfc #000000 #000000 0 1;
#X obj 551 409 / 8192;
#X obj 157 292 vsl 15 128 0 1 0 0 empty empty empty 0 -9 0 10 #fcfcfc #000000 #000000 0 1;
#X obj 545 315 / 8192;
#X obj 233 286 vsl 15 128 0 1 0 0 empty empty empty 0 -9 0 10 #fcfcfc #000000 #000000 0 1;
#X obj 534 335 / 8192;
#X obj 434 194 vsl 15 128 0 1 0 0 empty empty empty 0 -9 0 10 #fcfcfc #000000 #000000 0 1;
#X floatatom 547 354 5 0 0 0 - - - 0;
#X obj 611 194 speedlim 100;
#X obj 609 368 spigot 1;
#X obj 620 15 vsl 15 128 0 1 0 0 empty empty empty 0 -9 0 10 #fcfcfc #000000 #000000 0 1;
#X msg 585 268 10 \$1 \, 11 \$1 \, 12 \$1 \, 13 \$1;
#X msg 625 234 14 \$1 \, 15 \$1 \, 16 \$1 \, 17 \$1;
#X obj 696 123 random 10;
#X obj 699 147 == 0;
#X obj 700 174 change;
#X obj 702 77 tgl 15 0 empty empty empty 17 7 0 10 #fcfcfc #000000 #000000 0 1;
#X obj 671 365 tgl 15 0 empty empty empty 17 7 0 10 #fcfcfc #000000 #000000 0 1;
#X obj 649 124 tgl 15 0 empty empty empty 17 7 0 10 #fcfcfc #000000 #000000 0 1;
#X obj 552 282 tgl 15 0 empty empty empty 17 7 0 10 #fcfcfc #000000 #000000 0 500;
#X obj 684 442 bng 15 250 50 0 empty empty empty 17 7 0 10 #fcfcfc #000000 #000000;
#X obj 628 162 * 500;
#X msg 609 344 c \$1 i \$2;
#X obj 707 197 * 500;
#X obj 696 99 metro 10;
#X obj 764 122 random 10;
#X obj 767 146 == 0;
#X obj 768 173 change;
#X obj 775 196 * 500;
#X obj 764 98 metro 10;
#X msg 687 304 14 \$1;
#X msg 729 298 15 \$1 \, 16 \$1;
#X obj 84 521 s \$0-Diesel-comm;
#X obj 188 542 s \$0-Gene-comm;
#X obj 303 577 s \$0-Comp-comm;
#X floatatom 741 466 5 0 0 0 - - - 0;
#X obj 183 455 clip 0 1;
#X obj 185 518 change;
#X obj 303 490 clip 0 1;
#X obj 305 552 change;
#X floatatom 746 457 5 0 0 0 - - - 0;
#X obj 726 373 vsl 15 128 0 1 0 0 empty empty empty 0 -9 0 10 #fcfcfc #000000 #000000 0 1;
#X floatatom 810 409 5 0 0 0 - - - 0;
#X obj 72 228 speedlim 100;
#X msg 72 249 set \$1;
#X obj 155 247 speedlim 100;
#X msg 155 268 set \$1;
#X obj 238 243 speedlim 100;
#X msg 238 264 set \$1;
#X obj 431 150 speedlim 100;
#X msg 433 170 set \$1;
#X floatatom 206 156 5 0 0 0 - - - 0;
#X obj 30 448 clip 0 1;
#X obj 31 474 change;
#X obj 235 194 maxlib/scale 3800 8100 0.05 1;
#X obj 2 203 maxlib/scale 4590 6800 0.05 1;
#N canvas 752 340 357 365 analog 0;
#X obj 51 12 inlet;
#X obj 113 303 outlet;
#X obj 51 57 unwonk f;
#X obj 140 176 l;
#X obj 51 108 moses 100;
#X obj 113 131 - 100;
#X obj 113 154 t f b;
#X obj 140 199 unwonk f f;
#X obj 140 222 * 256;
#X obj 140 245 +;
#X obj 113 278 pack f f;
#X obj 51 34 route list;
#X obj 113 108 moses 150;
#X connect 0 0 11 0;
#X connect 2 0 4 0;
#X connect 2 1 3 1;
#X connect 3 0 7 0;
#X connect 4 1 12 0;
#X connect 5 0 6 0;
#X connect 6 0 10 0;
#X connect 6 1 3 0;
#X connect 7 0 8 0;
#X connect 7 1 9 1;
#X connect 7 2 2 0;
#X connect 8 0 9 0;
#X connect 9 0 10 1;
#X connect 10 0 1 0;
#X connect 11 0 2 0;
#X connect 12 0 5 0;
#X restore 80 41 pd analog;
#X obj 361 72 / 8192;
#X obj 364 112 clip 0 1;
#X obj 355 174 s \$0-Vanne;
#X obj 389 428 hsl 500 100 0 1 0 0 empty empty empty -2 -8 0 10 #fcfcfc #000000 #000000 0 1;
#X obj 80 68 route 0 1 2 3;
#X obj 384 45 maxlib/scale 0.002 0.8 0 1;
#X obj 366 93 maxlib/scale 0.002 0.7 0 1;
#X floatatom 146 155 5 0 0 0 - - - 0;
#X obj 221 106 print;
#X obj 148 221 maxlib/scale 5700 8100 0.05 1;
#X obj 80 14 fruit/receive Comm;
#X obj 609 390 fruit/send2 Comm;
#X connect 0 0 32 0;
#X connect 2 0 36 0;
#X connect 4 0 38 0;
#X connect 8 0 12 0;
#X connect 8 0 19 0;
#X connect 9 0 68 0;
#X connect 10 0 21 0;
#X connect 11 0 22 0;
#X connect 12 0 22 0;
#X connect 13 0 14 0;
#X connect 14 0 15 0;
#X connect 15 0 23 0;
#X connect 16 0 24 0;
#X connect 16 0 29 0;
#X connect 17 0 9 1;
#X connect 18 0 21 0;
#X connect 21 0 8 0;
#X connect 22 0 9 0;
#X connect 23 0 30 0;
#X connect 24 0 13 0;
#X connect 25 0 26 0;
#X connect 26 0 27 0;
#X connect 27 0 28 0;
#X connect 28 0 31 0;
#X connect 29 0 25 0;
#X connect 30 0 22 0;
#X connect 31 0 22 0;
#X connect 36 0 37 0;
#X connect 37 0 33 0;
#X connect 38 0 39 0;
#X connect 39 0 34 0;
#X connect 43 0 44 0;
#X connect 44 0 0 0;
#X connect 45 0 46 0;
#X connect 46 0 2 0;
#X connect 47 0 48 0;
#X connect 48 0 4 0;
#X connect 49 0 50 0;
#X connect 50 0 6 0;
#X connect 52 0 53 0;
#X connect 53 0 32 0;
#X connect 54 0 38 0;
#X connect 54 0 47 0;
#X connect 55 0 43 0;
#X connect 55 0 52 0;
#X connect 56 0 61 0;
#X connect 57 0 63 0;
#X connect 58 0 49 0;
#X connect 58 0 59 0;
#X connect 61 0 55 0;
#X connect 61 1 66 0;
#X connect 61 2 54 0;
#X connect 61 3 57 0;
#X connect 63 0 58 0;
#X connect 66 0 45 0;
#X connect 66 0 36 0;
#X connect 67 0 56 0;
#X restore 43 210 pd COMMANDES;
#N canvas 12 396 450 300 GENERAL 0;
#X obj 139 74 route 101;
#X obj 138 94 unpack f f;
#X obj 138 115 * 256;
#X obj 138 139 +;
#X obj 138 189 change;
#X obj 138 164 < 4000;
#X obj 207 198 tgl 15 0 empty empty empty 17 7 0 10 #fcfcfc #000000 #000000 0 1;
#X obj 136 223 s \$0-General;
#X obj 287 68 r \$0-General;
#X obj 287 143 line;
#X msg 286 99 \$1 1000;
#X obj 286 181 s \$0-LumMaster;
#X obj 102 198 tgl 15 0 empty empty empty 17 7 0 10 #fcfcfc #000000 #000000 0 1;
#X obj 137 47 fruit/receive Panneau1;
#X connect 0 0 1 0;
#X connect 1 0 2 0;
#X connect 1 1 3 1;
#X connect 2 0 3 0;
#X connect 3 0 5 0;
#X connect 4 0 6 0;
#X connect 4 0 7 0;
#X connect 5 0 4 0;
#X connect 8 0 10 0;
#X connect 9 0 11 0;
#X connect 10 0 9 0;
#X connect 12 0 7 0;
#X connect 13 0 0 0;
#X restore 148 155 pd GENERAL;
#N canvas 148 125 636 477 VANNE 0;
#X obj 95 102 unpack f f;
#X obj 95 123 * 256;
#X obj 95 147 +;
#X obj 95 173 / 8192;
#X obj 95 77 route 103;
#X obj 95 217 clip 0 1;
#X floatatom 265 230 5 0 0 0 - - - 0;
#X obj 215 134 hsl 128 15 0 1 0 0 empty empty empty -2 -8 0 10 #fcfcfc #000000 #000000 0 1;
#X obj 95 238 s \$0-Vanne;
#X floatatom 45 209 5 0 0 0 - - - 0;
#X obj 32 84 bng 15 250 50 0 empty empty empty 17 7 0 10 #fcfcfc #000000 #000000;
#X obj 96 197 maxlib/scale 0.002 0.8 0 1;
#X obj 208 89 hsl 128 15 0 127 0 0 empty empty empty -2 -8 0 10 #fcfcfc #000000 #000000 0 1;
#X floatatom 25 160 5 0 0 0 - - - 0;
#X obj 92 16 fruit/receive Comm;
#X obj 391 114 loadbang;
#X msg 391 137 0;
#X connect 0 0 1 0;
#X connect 0 1 2 1;
#X connect 1 0 2 0;
#X connect 2 0 3 0;
#X connect 2 0 13 0;
#X connect 3 0 11 0;
#X connect 3 0 9 0;
#X connect 4 0 0 0;
#X connect 5 0 8 0;
#X connect 7 0 5 0;
#X connect 7 0 6 0;
#X connect 10 0 2 0;
#X connect 11 0 5 0;
#X connect 15 0 16 0;
#X connect 16 0 8 0;
#X restore 156 200 pd VANNE;
#N canvas 1102 433 731 657 LUM/EFFETS 0;
#X obj 22 12 r \$0-Panneau2-switchs;
#X obj 22 38 route m0 a0;
#X text 109 42 lum;
#X obj 335 39 route m0 a0;
#X obj 334 19 r \$0-Panneau1-switchs;
#X text 406 35 eff1;
#X text 546 126 eff2;
#X obj 472 127 route m1 a1;
#X msg 43 130 0;
#X msg 13 103 1;
#X obj 14 127 tgl 15 0 empty empty empty 17 7 0 10 #fcfcfc #000000 #000000 0 1;
#X msg 342 138 stop;
#X msg 404 200 0;
#X msg 305 179 1;
#X obj 348 205 tgl 15 0 empty empty empty 17 7 0 10 #fcfcfc #000000 #000000 0 1;
#X obj 368 296 line;
#X obj 349 229 sel 0 1;
#X msg 347 270 130 500;
#X msg 413 268 70 500;
#X obj 365 322 mtof;
#X obj 311 96 sel 1 0;
#X obj 12 60 sel 1;
#X obj 71 64 sel 1;
#X obj 382 114 sel 1;
#X obj 332 164 del 2000;
#X obj 51 281 * 500;
#X msg 48 305 c 15 i \$1;
#X msg 517 193 stop;
#X msg 581 218 0;
#X msg 466 222 1;
#X obj 509 248 tgl 15 0 empty empty empty 17 7 0 10 #fcfcfc #000000 #000000 0 1;
#X obj 529 339 line;
#X obj 510 272 sel 0 1;
#X msg 574 311 70 500;
#X obj 526 388 s \$0-hpf;
#X obj 526 365 mtof;
#X obj 472 167 sel 1 0;
#X obj 543 157 sel 1;
#X obj 500 217 del 2000;
#X obj 365 345 s \$0-lpf;
#X msg 508 313 0 500;
#X msg 258 229 \$1 500;
#X obj 257 251 line;
#X msg 438 311 \$1 500;
#X obj 437 333 line;
#X obj 252 322 i;
#X obj 252 302 * 500;
#X obj 252 345 change;
#X obj 435 408 i;
#X obj 435 388 * 500;
#X obj 435 431 change;
#X msg 439 472 c 13 i \$1;
#X obj 254 366 speedlim 50;
#X obj 437 452 speedlim 20;
#X msg 256 386 c 17 i \$1;
#X msg 108 303 c 16 i \$1;
#X obj 255 279 LumMaster \$0;
#X obj 435 357 LumMaster \$0;
#X obj 51 247 LumMaster \$0;
#X obj 360 622 pack f f;
#X msg 56 608 c \$1 i \$2;
#X obj 367 577 t b f;
#X floatatom 365 555 5 0 0 0 - - - 0;
#X msg 353 507 10 \, 11 \, 12 \, 13;
#X obj 367 530 hsl 128 15 0 500 0 0 empty empty empty -2 -8 0 10 #fcfcfc #000000 #000000 0 1;
#X msg 102 90 stop;
#X obj 43 107 del 150;
#X obj 28 218 pow 2;
#X obj 146 178 s \$0-lum1;
#X obj 149 160 hsl 128 15 0 1 0 0 empty empty empty -2 -8 0 10 #fcfcfc #000000 #000000 0 1;
#X obj 146 118 maxlib/scale 0 1 0.15 0.5;
#X obj 165 69 tgl 15 0 empty empty empty 17 7 0 10 #fcfcfc #000000 #000000 0 1;
#X obj 146 138 LumMaster \$0;
#X msg 362 596 14 \, 15 \, 16;
#X obj 35 452 ++;
#X obj 51 428 * 300;
#X obj 52 407 pow 2;
#X msg 37 564 14 \$1;
#X obj 35 503 i;
#X obj 34 523 change;
#X obj 35 545 speedlim 20;
#X obj 116 475 ++;
#X obj 132 451 * 300;
#X obj 132 430 pow 2;
#X obj 115 519 i;
#X obj 114 539 change;
#X obj 115 561 speedlim 20;
#X obj 197 533 ++;
#X obj 213 509 * 300;
#X obj 214 488 pow 2;
#X obj 196 578 i;
#X obj 195 598 change;
#X obj 196 620 speedlim 20;
#X obj 198 556 LumMaster \$0;
#X obj 115 496 LumMaster \$0;
#X obj 36 477 LumMaster \$0;
#X msg 117 580 15 \$1;
#X msg 198 639 16 \$1;
#X obj 34 362 * 10;
#X floatatom 102 413 5 0 0 0 - - - 0;
#X obj 50 385 r \$0-Diesel-speed;
#X obj 131 408 r \$0-Gene-speed;
#X obj 212 466 r \$0-Comp-speed;
#X obj 133 232 s \$0-lum2;
#X obj 133 212 maxlib/scale 0 1 0.4 1;
#X obj 82 194 f;
#N canvas 1165 136 450 352 clign 0;
#X obj 113 38 inlet;
#X obj 53 88 sel 0 1;
#X obj 107 184 random 100;
#X obj 23 180 bng 15 250 50 0 empty empty empty 17 7 0 10 #fcfcfc #000000 #000000;
#X obj 105 290 outlet;
#X obj 108 212 <;
#X obj 144 106 * 100;
#X obj 70 193 f;
#X obj 58 146 b;
#X obj 97 108 b;
#X obj 107 158 sel 0;
#X obj 106 132 random 3;
#X obj 113 61 t f f f;
#X obj 108 257 *, f 15;
#X obj 108 235 change;
#X connect 0 0 12 0;
#X connect 1 0 8 0;
#X connect 1 1 8 0;
#X connect 1 2 9 0;
#X connect 2 0 5 0;
#X connect 5 0 14 0;
#X connect 6 0 5 1;
#X connect 7 0 4 0;
#X connect 8 0 7 0;
#X connect 9 0 11 0;
#X connect 10 0 2 0;
#X connect 11 0 10 0;
#X connect 12 0 1 0;
#X connect 12 1 6 0;
#X connect 12 1 7 1;
#X connect 12 2 13 1;
#X connect 13 0 4 0;
#X connect 14 0 13 0;
#X restore 80 171 pd clign;
#X msg 15 148 \$1 2000;
#X floatatom 228 432 5 0 0 0 - - - 0;
#X obj 48 331 fruit/send2 Panneau1;
#X obj 262 414 fruit/send2 Panneau1;
#X obj 445 500 fruit/send2 Panneau2;
#X obj 56 628 fruit/send2 Comm;
#X obj 87 355 fruit/send2 Panneau2;
#X obj 76 219 s GLum;
#X floatatom 180 265 5 0 0 0 - - - 0;
#X obj 16 169 line 0 10;
#X obj 528 47 r eff-stop;
#X connect 0 0 1 0;
#X connect 1 0 21 0;
#X connect 1 1 22 0;
#X connect 3 0 20 0;
#X connect 3 1 23 0;
#X connect 3 2 7 0;
#X connect 4 0 3 0;
#X connect 7 0 36 0;
#X connect 7 1 37 0;
#X connect 8 0 10 0;
#X connect 9 0 10 0;
#X connect 10 0 107 0;
#X connect 11 0 24 0;
#X connect 12 0 14 0;
#X connect 13 0 14 0;
#X connect 14 0 16 0;
#X connect 14 0 41 0;
#X connect 15 0 19 0;
#X connect 16 0 17 0;
#X connect 16 1 18 0;
#X connect 17 0 15 0;
#X connect 18 0 15 0;
#X connect 19 0 39 0;
#X connect 20 0 13 0;
#X connect 20 0 11 0;
#X connect 20 1 24 0;
#X connect 21 0 9 0;
#X connect 22 0 66 0;
#X connect 22 1 65 0;
#X connect 23 0 11 0;
#X connect 23 0 12 0;
#X connect 25 0 26 0;
#X connect 25 0 55 0;
#X connect 26 0 109 0;
#X connect 27 0 38 0;
#X connect 28 0 30 0;
#X connect 29 0 30 0;
#X connect 30 0 32 0;
#X connect 30 0 43 0;
#X connect 31 0 35 0;
#X connect 32 0 40 0;
#X connect 32 1 33 0;
#X connect 33 0 31 0;
#X connect 35 0 34 0;
#X connect 36 0 29 0;
#X connect 36 0 27 0;
#X connect 36 1 38 0;
#X connect 37 0 27 0;
#X connect 37 0 28 0;
#X connect 40 0 31 0;
#X connect 41 0 42 0;
#X connect 42 0 56 0;
#X connect 43 0 44 0;
#X connect 44 0 57 0;
#X connect 45 0 47 0;
#X connect 46 0 45 0;
#X connect 47 0 52 0;
#X connect 48 0 50 0;
#X connect 49 0 48 0;
#X connect 50 0 53 0;
#X connect 51 0 111 0;
#X connect 52 0 54 0;
#X connect 53 0 51 0;
#X connect 54 0 110 0;
#X connect 55 0 109 0;
#X connect 56 0 46 0;
#X connect 57 0 49 0;
#X connect 58 0 25 0;
#X connect 60 0 112 0;
#X connect 61 0 73 0;
#X connect 61 1 59 1;
#X connect 62 0 61 0;
#X connect 64 0 62 0;
#X connect 65 0 66 0;
#X connect 66 0 8 0;
#X connect 67 0 58 0;
#X connect 67 0 98 0;
#X connect 69 0 68 0;
#X connect 70 0 72 0;
#X connect 71 0 70 0;
#X connect 72 0 69 0;
#X connect 73 0 59 0;
#X connect 74 0 95 0;
#X connect 75 0 74 1;
#X connect 76 0 75 0;
#X connect 77 0 60 0;
#X connect 78 0 79 0;
#X connect 79 0 80 0;
#X connect 80 0 77 0;
#X connect 81 0 94 0;
#X connect 82 0 81 1;
#X connect 83 0 82 0;
#X connect 84 0 85 0;
#X connect 85 0 86 0;
#X connect 86 0 96 0;
#X connect 87 0 93 0;
#X connect 88 0 87 1;
#X connect 89 0 88 0;
#X connect 90 0 91 0;
#X connect 91 0 92 0;
#X connect 92 0 97 0;
#X connect 93 0 90 0;
#X connect 94 0 84 0;
#X connect 95 0 78 0;
#X connect 96 0 60 0;
#X connect 97 0 60 0;
#X connect 98 0 74 0;
#X connect 98 0 81 0;
#X connect 98 0 87 0;
#X connect 100 0 76 0;
#X connect 100 0 99 0;
#X connect 101 0 83 0;
#X connect 102 0 89 0;
#X connect 104 0 103 0;
#X connect 105 0 67 0;
#X connect 105 0 104 0;
#X connect 105 0 70 0;
#X connect 105 0 114 0;
#X connect 105 0 115 0;
#X connect 106 0 105 0;
#X connect 107 0 116 0;
#X connect 116 0 106 0;
#X connect 117 0 12 0;
#X connect 117 0 28 0;
#X restore 239 202 pd LUM/EFFETS;
#N canvas 349 94 1016 649 DMX 0;
#X msg 232 214 35 \$1;
#X obj 108 -11 vsl 15 128 0 255 0 0 empty empty empty 0 -9 0 10 #fcfcfc #000000 #000000 0 1;
#X obj 107 128 i;
#X obj 233 48 vsl 15 128 0 255 0 0 empty empty empty 0 -9 0 10 #fcfcfc #000000 #000000 0 1;
#X obj 232 187 i;
#X msg 160 265 c 5 i \$1 c \$2;
#X obj 178 6 metro 1000;
#X obj 176 -24 tgl 15 0 empty empty empty 17 7 0 10 #fcfcfc #000000 #000000 0 1;
#X obj 181 30 tgl 15 0 empty empty empty 17 7 0 10 #fcfcfc #000000 #000000 0 1;
#X obj 176 52 * 255;
#X msg 122 208 9 \$1 \, 10 \$1;
#X obj 438 -15 tgl 15 0 empty empty empty 17 7 0 10 #fcfcfc #000000 #000000 0 1;
#X obj 458 75 sel 0;
#X obj 423 96 bng 15 250 50 0 empty empty empty 17 7 0 10 #fcfcfc #000000 #000000;
#X obj 418 133 == 0;
#X obj 414 223 line3 0 50;
#X obj 307 123 r \$0-dmx;
#X obj 408 400 s \$0-dmx;
#X msg 411 376 0 \$1;
#X obj 296 158 unpack f f;
#X obj 296 212 pack f f;
#X obj 488 226 line3 0 50;
#X obj 488 395 s \$0-dmx;
#X obj 571 228 line3 0 50;
#X obj 571 397 s \$0-dmx;
#X obj 645 231 line3 0 50;
#X obj 645 400 s \$0-dmx;
#X obj 493 143 == 1;
#X obj 576 145 == 2;
#X obj 650 140 == 3;
#X obj 473 -20 init 1;
#X floatatom 345 267 5 0 0 0 - - - 0;
#X msg 497 374 1 \$1;
#X msg 572 372 2 \$1;
#X msg 646 375 3 \$1;
#X obj 358 410 s \$0-dmx;
#X msg 357 387 4 \$1;
#X floatatom 754 204 5 0 255 0 - - - 0;
#X obj 821 305 s \$0-dmx;
#X floatatom 813 207 5 0 255 0 - - - 0;
#X obj 414 246 i;
#X obj 414 265 change;
#X obj 488 250 i;
#X obj 488 269 change;
#X obj 571 251 i;
#X obj 571 270 change;
#X obj 645 255 i;
#X obj 645 274 change;
#X floatatom 390 322 5 0 0 0 - - - 0;
#X floatatom 457 328 5 0 0 0 - - - 0;
#X floatatom 537 343 5 0 0 0 - - - 0;
#X floatatom 673 360 5 0 0 0 - - - 0;
#X floatatom 531 99 5 0 0 0 - - - 0;
#X obj 442 48 random 7;
#X obj 730 138 i;
#X obj 730 157 change;
#X obj 730 110 * 255;
#X obj 729 179 speedlim 30;
#X obj 805 134 i;
#X obj 805 153 change;
#X obj 805 106 * 255;
#X obj 804 175 speedlim 30;
#X obj 458 102 random 4;
#X floatatom 370 190 5 0 0 0 - - - 0;
#X floatatom 321 287 5 0 255 0 - - - 0;
#X obj 419 159 * 190;
#X obj 420 180 + 10;
#X obj 493 162 * 190;
#X obj 494 183 + 10;
#X obj 575 164 * 190;
#X obj 577 185 + 10;
#X obj 649 166 * 190;
#X obj 651 188 + 10;
#X obj 531 41 bng 15 250 50 0 empty empty empty 17 7 0 10 #fcfcfc #000000 #000000;
#X obj 440 15 metro 500;
#X msg 418 200 \$1 10000;
#X msg 491 204 \$1 10000;
#X msg 574 206 \$1 10000;
#X msg 648 209 \$1 10000;
#X obj 411 301 clip 0 255;
#X obj 493 301 clip 0 255;
#X obj 574 296 clip 0 255;
#X obj 653 304 clip 0 255;
#X text 633 -20 1:par led entree;
#X text 632 -5 5 : par led kem;
#X text 631 10 10: 1er bloc;
#X text 632 24 15: 2e bloc;
#X floatatom 835 238 5 0 255 0 - - - 0;
#X floatatom 738 229 5 0 255 0 - - - 0;
#X msg 734 264 20 \$1;
#X obj 296 186 + 0;
#X msg 821 282 21 \$1;
#X text 634 61 20: decoupe_master;
#X text 636 74 21: decoupes;
#X msg 836 329 R \$1 \, V \$1 \, B \$1;
#X msg 777 347 W \$1 \, R \$1 \, V \$1 \, B \$1;
#X msg 820 7 W \$1 \, R \$1 \, V \$1 \, B \$1;
#X floatatom 818 -21 5 0 255 0 - - - 0;
#X obj 732 86 r \$0-lum2;
#X obj 807 83 r \$0-lum1;
#X msg 731 369 W \$1 \, R \$1 \, V \$1 \, B \$1;
#X obj 70 305 bng 15 250 50 0 empty empty empty 17 7 0 10 #fcfcfc #000000 #000000;
#N canvas 579 479 490 429 Chenillard1 0;
#X floatatom -67 87 5 0 0 0 - - - 0;
#X msg -56 290 R \$1;
#X msg -24 291 B \$1;
#X obj 83 128 == 0;
#X obj 45 134 == 4;
#X msg 13 290 V \$1 \, W \$1;
#X obj -59 143 % 2;
#X obj -86 177 tgl 15 0 empty empty empty 17 7 0 10 #fcfcfc #000000 #000000 0 1;
#X obj -59 118 div 2;
#X obj 8 186 tgl 15 0 empty empty empty 17 7 0 10 #fcfcfc #000000 #000000 0 11;
#X obj 114 169 tgl 15 0 empty empty empty 17 7 0 10 #fcfcfc #000000 #000000 0 11;
#X obj -60 166 == 0;
#X obj -61 187 * 0;
#X obj 21 163 * 0;
#X obj 83 162 * 0;
#X obj 100 78 * 255;
#X obj 101 36 tgl 15 0 empty empty empty 17 7 0 10 #fcfcfc #000000 #000000 0 1;
#X obj -77 34 r \$0-ChenClock;
#X obj -76 57 spigot;
#X obj 249 16 sel 1;
#X obj 240 63 s \$0-toChenClock;
#X msg 251 37 nd 8 4;
#X msg 299 35 nd 8 8;
#X obj -29 347 t a;
#X msg 172 349 R \$1;
#X msg 215 355 B \$1;
#X msg 97 350 V \$1 \, W \$1;
#X obj 98 8 inlet;
#X obj -29 371 ParLedDMX8 \$0 5 Kem;
#X obj 94 387 ParLedDMX8 \$0 1 Entree;
#X obj 94 102 % 2;
#X obj -53 209 pack f f;
#X obj -53 232 line;
#X obj 13 204 pack f f;
#X obj 13 227 line;
#X obj 91 204 pack f f;
#X obj 91 227 line;
#X floatatom 334 138 5 0 1000 0 line - - 0;
#X obj 305 121 tgl 15 0 empty empty empty 17 7 0 10 #fcfcfc #000000 #000000 0 1;
#X floatatom 349 112 5 0 255 0 amp - - 0;
#X obj 113 56 t b f;
#X obj 123 141 t b f;
#X obj 45 160 t b f;
#X obj -30 186 t b f;
#X floatatom 283 227 5 0 0 0 - - - 0;
#X msg 303 258 10000;
#X msg 288 199 0;
#X msg 322 199 255;
#X connect 1 0 23 0;
#X connect 2 0 23 0;
#X connect 3 0 14 0;
#X connect 4 0 13 0;
#X connect 5 0 23 0;
#X connect 6 0 11 0;
#X connect 8 0 6 0;
#X connect 11 0 7 0;
#X connect 11 0 12 0;
#X connect 12 0 31 0;
#X connect 13 0 9 0;
#X connect 13 0 33 0;
#X connect 14 0 10 0;
#X connect 14 0 35 0;
#X connect 15 0 41 0;
#X connect 15 0 42 0;
#X connect 15 0 43 0;
#X connect 16 0 15 0;
#X connect 16 0 19 0;
#X connect 16 0 18 1;
#X connect 17 0 18 0;
#X connect 18 0 0 0;
#X connect 18 0 4 0;
#X connect 18 0 8 0;
#X connect 18 0 30 0;
#X connect 19 0 21 0;
#X connect 21 0 20 0;
#X connect 22 0 20 0;
#X connect 23 0 28 0;
#X connect 24 0 29 0;
#X connect 25 0 29 0;
#X connect 26 0 29 0;
#X connect 27 0 16 0;
#X connect 30 0 3 0;
#X connect 31 0 32 0;
#X connect 32 0 1 0;
#X connect 32 0 26 0;
#X connect 33 0 34 0;
#X connect 34 0 2 0;
#X connect 34 0 24 0;
#X connect 35 0 36 0;
#X connect 36 0 5 0;
#X connect 36 0 25 0;
#X connect 37 0 35 1;
#X connect 37 0 33 1;
#X connect 37 0 31 1;
#X connect 38 0 16 0;
#X connect 39 0 40 0;
#X connect 40 0 15 0;
#X connect 40 1 15 1;
#X connect 41 0 14 0;
#X connect 41 1 14 1;
#X connect 42 0 13 0;
#X connect 42 1 13 1;
#X connect 43 0 12 0;
#X connect 43 1 12 1;
#X connect 44 0 35 0;
#X connect 44 0 33 0;
#X connect 44 0 31 0;
#X connect 45 0 35 1;
#X connect 45 0 33 1;
#X connect 45 0 31 1;
#X connect 46 0 44 0;
#X connect 47 0 44 0;
#X coords 0 -1 1 1 85 60 1 300 100;
#X restore 37 405 pd Chenillard1;
#N canvas 6 247 450 300 ChenillardClock 0;
#X obj 117 82 r \$0-clock;
#X obj 141 110 ndmetro;
#X msg 59 82 nd 8 8;
#X obj 59 53 loadbang;
#X msg 60 114 nd 8 4;
#X obj 215 55 r \$0-toChenClock;
#X obj 141 169 s \$0-ChenClock;
#X connect 0 0 1 0;
#X connect 1 0 6 0;
#X connect 2 0 1 0;
#X connect 3 0 2 0;
#X connect 4 0 1 0;
#X connect 5 0 1 0;
#X restore 39 372 pd ChenillardClock;
#N canvas 445 260 585 511 Chenillard2 0;
#X floatatom -130 168 5 0 0 0 - - - 0;
#X obj -22 271 * 255;
#X obj 113 131 tgl 15 0 empty empty empty 17 7 0 10 #fcfcfc #000000 #000000 0 1;
#X obj -141 93 r \$0-ChenClock;
#X obj -139 138 spigot;
#X obj 60 179 sel 1;
#X obj 58 244 s \$0-toChenClock;
#X obj -207 442 ParLedDMX8 \$0 5 Kem;
#X obj -207 418 t a;
#X msg 109 401 R \$1;
#X msg 120 375 B \$1;
#X msg 50 363 V \$1 \, W \$1;
#X obj 3 74 inlet;
#X obj -81 210 abs;
#X obj -77 315 *;
#X obj -34 139 sel 0;
#X obj -25 163 bng 15 250 50 0 empty empty empty 17 7 0 10 #fcfcfc #000000 #000000;
#X obj -77 283 pow 2;
#X msg -79 348 R \$1;
#X obj -220 261 == 0;
#X obj -82 187 - 15;
#X obj -79 236 / 15;
#X obj -220 234 % 4;
#X msg 62 200 nd 16 32;
#X msg -33 313 0;
#X obj -189 162 t f f;
#X obj -220 287 *;
#X msg -218 321 V \$1 \, B \$1 \, W \$1;
#X msg -120 406 V \$1 \, R \$1 \, W \$1;
#X obj 19 426 ParLedDMX8 \$0 1 Entree;
#X msg -20 366 B \$1;
#X obj -157 214 tgl 15 0 empty empty empty 17 7 0 10 #fcfcfc #000000 #000000 0 1;
#X obj -14 232 tgl 15 0 empty empty empty 17 7 0 10 #fcfcfc #000000 #000000 0 1;
#X floatatom 190 135 5 0 255 0 strobe - - 0;
#X obj -126 236 t b f;
#X obj -166 262 * 15;
#X floatatom 189 116 5 0 255 0 pulse - - 0;
#X obj 0 249 t b f;
#X obj 225 138 tgl 15 0 empty empty C 17 7 0 10 #fcfcfc #000000 #000000 0 1;
#X obj 210 216 r \$0-clock;
#X obj 208 235 unpack f;
#X floatatom 199 298 5 0 0 0 - - - 0;
#X obj 207 263 % 16;
#X obj 215 350 max 0;
#X floatatom 176 461 5 0 0 0 - - - 0;
#X obj 215 325 - 11;
#X obj 219 375 / 4;
#X obj 218 398 pow 3;
#X obj 219 420 spigot;
#X obj 218 442 * 255;
#X msg 136 214 nd 16 64;
#X connect 1 0 14 1;
#X connect 2 0 1 0;
#X connect 2 0 5 0;
#X connect 2 0 4 1;
#X connect 2 0 35 0;
#X connect 3 0 4 0;
#X connect 4 0 15 0;
#X connect 4 0 25 0;
#X connect 5 0 23 0;
#X connect 8 0 7 0;
#X connect 9 0 29 0;
#X connect 10 0 29 0;
#X connect 11 0 29 0;
#X connect 12 0 2 0;
#X connect 13 0 21 0;
#X connect 14 0 18 0;
#X connect 14 0 30 0;
#X connect 15 0 16 0;
#X connect 17 0 14 0;
#X connect 18 0 8 0;
#X connect 19 0 26 0;
#X connect 20 0 13 0;
#X connect 21 0 17 0;
#X connect 22 0 19 0;
#X connect 23 0 6 0;
#X connect 24 0 18 0;
#X connect 25 0 20 0;
#X connect 25 1 22 0;
#X connect 26 0 27 0;
#X connect 26 0 28 0;
#X connect 27 0 8 0;
#X connect 28 0 29 0;
#X connect 30 0 29 0;
#X connect 31 0 35 0;
#X connect 32 0 1 0;
#X connect 33 0 34 0;
#X connect 34 0 35 0;
#X connect 34 1 35 1;
#X connect 35 0 26 1;
#X connect 36 0 37 0;
#X connect 37 0 1 0;
#X connect 37 1 1 1;
#X connect 38 0 48 1;
#X connect 39 0 40 0;
#X connect 40 0 42 0;
#X connect 41 0 45 0;
#X connect 42 0 41 0;
#X connect 43 0 46 0;
#X connect 45 0 43 0;
#X connect 46 0 47 0;
#X connect 47 0 48 0;
#X connect 48 0 49 0;
#X connect 49 0 44 0;
#X connect 49 0 33 0;
#X connect 50 0 6 0;
#X coords 0 -1 1 1 150 60 1 100 100;
#X restore 38 473 pd Chenillard2;
#X obj 800 60 ParLedDMX8 \$0 5 Kem;
#X obj 712 419 ParLedDMX8 \$0 10 Fen1;
#X obj 780 395 ParLedDMX8 \$0 15 Fen2;
#X obj 821 36 ParLedDMX8 \$0 1 Entree;
#X msg 468 507 0;
#X obj 443 543 s \$0-lum2;
#X obj 518 540 s \$0-lum1;
#X obj 602 552 ParLedDMX8 \$0 5 Kem;
#X obj 726 556 ParLedDMX8 \$0 1 Entree;
#X msg 612 522 W \$1 \, R \$1 \, V \$1 \, B \$1;
#X floatatom 593 472 5 0 0 0 - - - 0;
#X obj 616 494 clip 0 255;
#X obj 524 430 tgl 15 0 empty empty empty 17 7 0 10 #fcfcfc #000000 #000000 0 1;
#X obj 518 463 sel 0;
#X obj 558 464 * 100;
#X obj 440 441 r LIGHTON;
#X msg 728 497 W 0 \, R 20 \, V 10 \, B 0;
#X obj 729 448 r \$0-General;
#X obj 728 472 change;
#X floatatom 687 468 5 0 0 0 - - - 0;
#X obj 786 478 bng 15 250 50 0 empty empty empty 17 7 0 10 #fcfcfc #000000 #000000;
#X obj 160 294 fruit/send2 Comm;
#X connect 0 0 5 0;
#X connect 1 0 2 0;
#X connect 2 0 10 0;
#X connect 3 0 4 0;
#X connect 4 0 0 0;
#X connect 5 0 126 0;
#X connect 6 0 8 0;
#X connect 7 0 6 0;
#X connect 8 0 9 0;
#X connect 9 0 1 0;
#X connect 10 0 5 0;
#X connect 11 0 74 0;
#X connect 12 0 13 0;
#X connect 12 0 62 0;
#X connect 14 0 65 0;
#X connect 15 0 40 0;
#X connect 16 0 19 0;
#X connect 18 0 17 0;
#X connect 19 0 90 0;
#X connect 19 1 20 1;
#X connect 20 0 5 0;
#X connect 21 0 42 0;
#X connect 23 0 44 0;
#X connect 25 0 46 0;
#X connect 27 0 67 0;
#X connect 28 0 69 0;
#X connect 29 0 71 0;
#X connect 32 0 22 0;
#X connect 33 0 24 0;
#X connect 34 0 26 0;
#X connect 36 0 35 0;
#X connect 39 0 91 0;
#X connect 39 0 100 0;
#X connect 39 0 95 0;
#X connect 40 0 41 0;
#X connect 41 0 48 0;
#X connect 41 0 79 0;
#X connect 42 0 43 0;
#X connect 43 0 49 0;
#X connect 43 0 80 0;
#X connect 44 0 45 0;
#X connect 45 0 50 0;
#X connect 45 0 81 0;
#X connect 46 0 47 0;
#X connect 47 0 51 0;
#X connect 47 0 82 0;
#X connect 53 0 12 0;
#X connect 54 0 55 0;
#X connect 55 0 57 0;
#X connect 56 0 54 0;
#X connect 57 0 88 0;
#X connect 58 0 59 0;
#X connect 59 0 61 0;
#X connect 60 0 58 0;
#X connect 61 0 39 0;
#X connect 62 0 14 0;
#X connect 62 0 27 0;
#X connect 62 0 28 0;
#X connect 62 0 29 0;
#X connect 62 0 52 0;
#X connect 64 0 18 0;
#X connect 65 0 66 0;
#X connect 66 0 75 0;
#X connect 66 0 63 0;
#X connect 67 0 68 0;
#X connect 68 0 76 0;
#X connect 69 0 70 0;
#X connect 70 0 77 0;
#X connect 71 0 72 0;
#X connect 72 0 78 0;
#X connect 73 0 62 0;
#X connect 74 0 53 0;
#X connect 75 0 15 0;
#X connect 76 0 21 0;
#X connect 77 0 23 0;
#X connect 78 0 25 0;
#X connect 80 0 32 0;
#X connect 81 0 33 0;
#X connect 82 0 34 0;
#X connect 87 0 91 0;
#X connect 88 0 89 0;
#X connect 89 0 38 0;
#X connect 90 0 20 0;
#X connect 91 0 38 0;
#X connect 95 0 107 0;
#X connect 96 0 105 0;
#X connect 96 0 108 0;
#X connect 97 0 96 0;
#X connect 98 0 56 0;
#X connect 99 0 60 0;
#X connect 100 0 106 0;
#X connect 109 0 110 0;
#X connect 109 0 111 0;
#X connect 114 0 112 0;
#X connect 114 0 113 0;
#X connect 115 0 116 0;
#X connect 116 0 114 0;
#X connect 117 0 118 0;
#X connect 117 0 119 0;
#X connect 118 0 109 0;
#X connect 119 0 115 0;
#X connect 120 0 117 0;
#X connect 121 0 112 0;
#X connect 121 0 113 0;
#X connect 122 0 124 0;
#X connect 122 0 123 0;
#X connect 122 0 125 0;
#X connect 123 0 121 0;
#X restore 244 119 pd DMX;
#X obj 16 20 fruit/fruit 1 Panneau1 10 Panneau;
#X obj 223 19 fruit/fruit 1 Panneau2 11 Panneau;
#X obj 434 18 fruit/fruit 1 Comm 12 Commandes;
#X restore 116 104 pd Interfaces;
#N canvas 1398 89 450 620 Master 0;
#X obj 102 120 vsl 15 120 0 1 0 1 \$0-Master-snd \$0-Master-rcv empty 0 -9 0 10 #fc0400 #000000 #000000 3400 1;
#X obj 216 120 vu 15 120 \$0-vu6 empty -1 -8 0 10 #404040 #000000 1 0;
#X obj 178 120 vu 15 120 \$0-vu4 empty -1 -8 0 10 #404040 #000000 0 0;
#X obj 159 120 vu 15 120 \$0-vu3 empty -1 -8 0 10 #404040 #000000 0 0;
#X obj 140 120 vu 15 120 \$0-vu2 empty -1 -8 0 10 #404040 #000000 0 0;
#X obj 121 120 vu 15 120 \$0-vu1 empty -1 -8 0 10 #404040 #000000 0 0;
#X obj 197 120 vu 15 120 \$0-vu5 empty -1 -8 0 10 #404040 #000000 0 0;
#X obj 312 87 r \$0-Master-snd;
#X obj 312 108 pow 3;
#X msg 310 128 \$1 10;
#X obj 311 148 line~;
#X obj 310 177 s~ \$0-Mastersig;
#X obj 315 64 s \$0-tapestop-snd;
#X obj 325 43 tgl 15 0 empty empty empty 17 7 0 10 #fcfcfc #000000 #000000 0 1;
#X obj 304 252 s \$0-hpf;
#X obj 304 229 mtof;
#X obj 307 209 hsl 128 15 0 130 0 0 empty empty empty -2 -8 0 10 #fcfcfc #000000 #000000 0 1;
#X floatatom 384 248 5 0 0 0 - - - 0;
#X obj 305 302 mtof;
#X obj 308 282 hsl 128 15 0 130 0 0 empty empty empty -2 -8 0 10 #fcfcfc #000000 #000000 0 1;
#X obj 305 325 s \$0-lpf;
#X obj 27 297 *~;
#X obj 43 276 pow 3;
#X obj 44 256 hsl 128 15 0 1 0 1 empty empty empty -2 -8 0 10 #fcfcfc #000000 #000000 0 1;
#X obj 74 330 *~;
#X obj 90 309 pow 3;
#X obj 91 289 hsl 128 15 0 1 0 1 empty empty empty -2 -8 0 10 #fcfcfc #000000 #000000 0 1;
#X obj 123 359 *~;
#X obj 139 338 pow 3;
#X obj 140 318 hsl 128 15 0 1 0 1 empty empty empty -2 -8 0 10 #fcfcfc #000000 #000000 0 1;
#X obj 47 492 dac~;
#X obj 174 395 *~;
#X obj 190 374 pow 3;
#X obj 191 354 hsl 128 15 0 1 0 1 empty empty empty -2 -8 0 10 #fcfcfc #000000 #000000 0 1;
#X obj 223 424 *~;
#X obj 239 403 pow 3;
#X obj 240 383 hsl 128 15 0 1 0 1 empty empty empty -2 -8 0 10 #fcfcfc #000000 #000000 0 1;
#X obj 123 491 pow 3;
#X obj 124 471 hsl 128 15 0 1 0 1 empty empty empty -2 -8 0 10 #fcfcfc #000000 #000000 9800 1;
#X obj 55 461 *~;
#X obj 35 10 Mout \$0 2 1;
#X obj 108 10 Mout \$0 3 2;
#X obj 92 72 MoutS \$0 1 6;
#X obj 184 9 Mout \$0 4 1;
#X obj 258 11 Mout \$0 5 2;
#X obj 331 8 Mout \$0 6 2;
#X connect 7 0 8 0;
#X connect 8 0 9 0;
#X connect 9 0 10 0;
#X connect 10 0 11 0;
#X connect 13 0 12 0;
#X connect 15 0 14 0;
#X connect 16 0 15 0;
#X connect 16 0 17 0;
#X connect 18 0 20 0;
#X connect 19 0 18 0;
#X connect 21 0 39 0;
#X connect 22 0 21 1;
#X connect 23 0 22 0;
#X connect 24 0 39 0;
#X connect 25 0 24 1;
#X connect 26 0 25 0;
#X connect 27 0 39 0;
#X connect 28 0 27 1;
#X connect 29 0 28 0;
#X connect 31 0 39 0;
#X connect 32 0 31 1;
#X connect 33 0 32 0;
#X connect 34 0 39 0;
#X connect 35 0 34 1;
#X connect 36 0 35 0;
#X connect 37 0 39 1;
#X connect 38 0 37 0;
#X connect 39 0 30 0;
#X connect 39 0 30 1;
#X connect 40 0 21 0;
#X connect 40 0 42 0;
#X connect 41 0 24 0;
#X connect 41 0 42 0;
#X connect 43 0 27 0;
#X connect 43 0 42 0;
#X connect 44 0 31 0;
#X connect 44 0 42 0;
#X connect 45 0 34 0;
#X connect 45 0 42 0;
#X coords 0 -1 1 1 160 145 1 100 100;
#X restore 39 166 pd Master;
#X obj 125 337 switch~;
#X obj 104 336 tgl 15 0 empty empty empty 17 7 0 10 #fcfcfc #000000 #000000 0 1;
#X msg 229 211 \; pd dsp 1;
#X obj 229 160 loadbang;
#N canvas 528 558 450 300 shutdown 0;
#X msg 153 182 echo "sudo /sbin/halt" | at now;
#X obj 153 209 system;
#X obj 154 87 bng 50 250 50 0 empty empty ETEINDRE_TOUR3_SALLE_DES_MACHINES 17 -10 0 10 #fc0400 #000000 #000000;
#X connect 0 0 1 0;
#X connect 2 0 0 0;
#X restore 332 235 pd shutdown;
#X obj 330 190 keys \$0;
#X obj 41 -1 r PiedFraiseOn;
#X obj 229 185 del 1000;
#N canvas 83 552 602 438 simul 0;
#X obj 34 248 s \$0-Diesel-start;
#X obj 34 298 s \$0-Diesel-stop;
#X obj 34 192 tgl 15 0 empty empty empty 17 7 0 10 #fcfcfc #000000 #000000 0 1;
#X obj 16 123 tgl 15 0 empty empty empty 17 7 0 10 #fcfcfc #000000 #000000 0 1;
#X obj 18 156 s \$0-General;
#X obj 42 381 s \$0-Diesel-comm;
#X obj 177 384 s \$0-Gene-comm;
#X obj 310 380 s \$0-Comp-comm;
#X obj 28 362 hsl 128 15 0 1 0 0 empty empty empty -2 -8 0 10 #fcfcfc #000000 #000000 0 1;
#X obj 171 358 hsl 128 15 0 1 0 0 empty empty empty -2 -8 0 10 #fcfcfc #000000 #000000 0 1;
#X obj 310 357 hsl 128 15 0 1 0 0 empty empty empty -2 -8 0 10 #fcfcfc #000000 #000000 0 1;
#X obj 32 271 tgl 15 0 empty empty empty 17 7 0 10 #fcfcfc #000000 #000000 0 1;
#X obj 159 153 s \$0-pump-rcv;
#X msg 161 125 1 \, -1 \, 1 \, -1 \, 1 \, -1;
#X obj 69 76 s \$0-simul-on;
#X obj 70 56 tgl 15 0 empty empty empty 17 7 0 10 #fcfcfc #000000 #000000 0 1;
#X obj 23 97 r \$0-simul-on;
#X obj 157 78 r \$0-simul-on;
#X obj 157 98 metro 1000;
#X obj 175 202 tgl 15 0 empty empty empty 17 7 0 10 #fcfcfc #000000 #000000 0 1;
#X obj 170 278 tgl 15 0 empty empty empty 17 7 0 10 #fcfcfc #000000 #000000 0 1;
#X obj 321 195 tgl 15 0 empty empty empty 17 7 0 10 #fcfcfc #000000 #000000 0 1;
#X obj 308 265 tgl 15 0 empty empty empty 17 7 0 10 #fcfcfc #000000 #000000 0 1;
#X obj 175 258 s \$0-Gene-start;
#X obj 175 308 s \$0-Gene-stop;
#X obj 61 173 r \$0-simul-on;
#X obj 183 178 r \$0-simul-on;
#X obj 319 173 r \$0-simul-on;
#X obj 315 244 s \$0-Comp-start;
#X obj 315 294 s \$0-Comp-stop;
#X obj 38 334 simul-rnd \$0;
#X obj 361 17 r \$0-simul-on;
#X obj 361 37 metro 1000;
#X obj 360 57 random 4;
#X obj 359 80 sel 0;
#X obj 360 107 random 8;
#X obj 335 77 bng 15 250 50 0 empty empty empty 17 7 0 10 #fcfcfc #000000 #000000;
#X floatatom 305 142 5 0 0 0 - - - 0;
#X msg 295 103 5;
#X obj 358 138 s \$0-sign;
#X obj 95 4 loadbang;
#X msg 94 53 1;
#X msg 196 48 \; pd dsp \$1;
#X msg 215 26 0 \, 1;
#X obj 94 34 del 15000;
#X obj 168 334 simul-rnd \$0;
#X obj 307 331 simul-rnd \$0;
#X msg 211 223 0 \, 1;
#X msg 344 216 0 \, 1;
#X msg 65 224 0 \, 1;
#X obj 344 197 metro 100000;
#X obj 211 204 metro 110000;
#X obj 65 205 metro 90000;
#X obj 127 107 tgl 18 0 empty empty empty 0 -9 0 10 #fcfcfc #000000 #000000 0 1;
#X obj 483 84 tgl 15 0 empty empty empty 17 7 0 10 #fcfcfc #000000 #000000 0 1;
#X obj 482 104 s \$0-auto-on;
#X obj 483 47 loadbang;
#X connect 2 0 0 0;
#X connect 3 0 4 0;
#X connect 8 0 5 0;
#X connect 9 0 6 0;
#X connect 10 0 7 0;
#X connect 11 0 1 0;
#X connect 13 0 12 0;
#X connect 15 0 14 0;
#X connect 16 0 3 0;
#X connect 17 0 18 0;
#X connect 18 0 13 0;
#X connect 19 0 23 0;
#X connect 20 0 24 0;
#X connect 21 0 28 0;
#X connect 22 0 29 0;
#X connect 25 0 2 0;
#X connect 25 0 52 0;
#X connect 26 0 19 0;
#X connect 26 0 51 0;
#X connect 27 0 21 0;
#X connect 27 0 50 0;
#X connect 30 0 8 0;
#X connect 31 0 32 0;
#X connect 32 0 33 0;
#X connect 33 0 34 0;
#X connect 34 0 35 0;
#X connect 35 0 37 0;
#X connect 35 0 39 0;
#X connect 36 0 35 0;
#X connect 38 0 39 0;
#X connect 40 0 44 0;
#X connect 40 0 53 0;
#X connect 43 0 42 0;
#X connect 44 0 41 0;
#X connect 44 0 43 0;
#X connect 45 0 9 0;
#X connect 46 0 10 0;
#X connect 47 0 19 0;
#X connect 48 0 21 0;
#X connect 49 0 2 0;
#X connect 50 0 48 0;
#X connect 51 0 47 0;
#X connect 52 0 49 0;
#X connect 53 0 18 0;
#X connect 54 0 55 0;
#X connect 56 0 54 0;
#X restore 331 213 pd simul;
#N canvas 330 333 500 635 Gem+Kem 0;
#X obj 25 79 pack s s;
#X obj 127 55 getdir;
#X obj 127 33 loadbang;
#X obj 186 33 bng 15 250 50 0 empty empty empty 17 7 0 10 #fcfcfc #000000 #000000;
#X obj 25 52 getenv DISPLAY;
#X obj 25 24 bng 15 250 50 0 empty empty empty 17 7 0 10 #fcfcfc #000000 #000000;
#X msg 17 330 DSp \$1;
#X obj 159 436 list prepend Gem;
#X obj 159 458 s \$0-toclients;
#X obj 217 351 r \$0-sign;
#X msg 216 373 sign \$1;
#X obj 17 306 r \$0-Diesel-speed;
#X obj 288 351 r \$0-clock;
#X msg 280 375 clock \$1 \$2;
#X obj 60 330 r \$0-Gene-speed;
#X msg 61 349 GSp \$1;
#X obj 115 351 r \$0-Comp-speed;
#X msg 116 370 CSp \$1;
#X obj 59 8 loadbang;
#X obj 313 406 r \$0-General;
#X msg 312 427 general \$1;
#X obj 58 29 del 4000;
#X obj 90 597 s \$0-toclients;
#X obj 101 523 r \$0-clock;
#X msg 93 547 clock \$1 \$2;
#X obj 90 575 list prepend KEM;
#X obj 218 514 r \$0-fromclients;
#X obj 218 538 route KEM;
#X obj 220 559 route Gammes;
#X obj 222 582 s Gammes;
#X obj 25 221 system;
#X obj 25 104 t a b;
#X msg 25 137 screen -S ScreenGem -d -m \$2 \$1;
#X msg 127 77 symbol \$1/GemPart/runGem.sh;
#X obj 19 3 inlet;
#X msg 53 184 pkill -f "pd -lib Gem" \, pkill -f runGem.sh \, screen -wipe;
#X connect 0 0 31 0;
#X connect 1 0 33 0;
#X connect 2 0 1 0;
#X connect 3 0 1 0;
#X connect 4 0 0 0;
#X connect 5 0 4 0;
#X connect 6 0 7 0;
#X connect 7 0 8 0;
#X connect 9 0 10 0;
#X connect 10 0 7 0;
#X connect 11 0 6 0;
#X connect 12 0 13 0;
#X connect 13 0 7 0;
#X connect 14 0 15 0;
#X connect 15 0 7 0;
#X connect 16 0 17 0;
#X connect 17 0 7 0;
#X connect 18 0 21 0;
#X connect 19 0 20 0;
#X connect 20 0 7 0;
#X connect 21 0 5 0;
#X connect 23 0 24 0;
#X connect 24 0 25 0;
#X connect 25 0 22 0;
#X connect 26 0 27 0;
#X connect 27 0 28 0;
#X connect 28 0 29 0;
#X connect 31 0 32 0;
#X connect 31 1 35 0;
#X connect 32 0 30 0;
#X connect 33 0 0 1;
#X connect 34 0 5 0;
#X connect 35 0 30 0;
#X restore 216 294 pd Gem+Kem;
#X obj 279 74 tgl 60 0 LIGHTON empty LIGHTS_ON 2 30 0 10 #f8fc00 #000000 #000000 0 1;
#N canvas 1108 660 450 300 declares 0;
#X obj 41 15 declare -path Fraise;
#X obj 42 54 declare -path nusmuk-utils;
#X obj 41 77 declare -path motex -path ggee -path maxlib -path zexy -lib zexy -path iemlib -lib iemlib -path hcs -path creb -lib creb -path cyclone -path moonlib, f 24;
#X restore 326 33 pd declares;
#X obj 41 20 pied/pied 0 12346;
#X obj 216 315 GemPart/audioVisu/fftProcess;
#X obj 42 336 loadbang;
#N canvas 143 135 450 300 network 0;
#X obj 176 34 loadbang;
#X msg 176 57 connect localhost 23477;
#X obj 176 117 netsend -u;
#X obj 56 25 r toGem;
#X obj 56 48 list prepend send;
#X obj 56 71 list trim;
#X obj 85 200 netreceive -u 23478;
#X obj 85 223 s fromGem;
#X connect 0 0 1 0;
#X connect 1 0 2 0;
#X connect 3 0 4 0;
#X connect 4 0 5 0;
#X connect 5 0 2 0;
#X connect 6 0 7 0;
#X restore 216 270 pd network;
#X obj 293 293 bng 18 250 50 0 empty empty empty 0 -9 0 10 #ff8300 #000000 #000000;
#X obj 173 385 speedlim;
#X obj 204 18 r PdServeur \$0 21456;
#X connect 5 0 4 0;
#X connect 7 0 11 0;
#X connect 10 0 16 0;
#X connect 11 0 6 0;
#X connect 18 0 5 0;
#X connect 20 0 13 0;
#X coords 0 0 0.00203252 0.00161812 280 45 0;
