#N canvas 397 111 378 611 10;
#X obj 13 8 inlet~;
#X obj 45 566 outlet~;
#X obj 43 489 vd~ \$0-delline;
#X obj 206 39 s \$0-stop;
#X obj 206 18 r \$1-tapestop-snd;
#X obj 44 64 r \$0-stop;
#X obj 44 95 tgl 15 0 empty empty empty 0 -6 0 8 #fcfcfc #000000 #000000 0 1;
#X obj 44 115 t b f;
#X obj 44 192 line~;
#X obj 44 241 *~;
#X obj 175 270 *~;
#X obj 190 227 * -1;
#X obj 190 246 + 1;
#X text 26 246 on;
#X text 103 252 off;
#X msg 122 82 0;
#X msg 149 82 1;
#X obj 177 334 *~ -1;
#X obj 176 302 cos~;
#X obj 178 361 +~ 1;
#X obj 121 217 *~ 0.25;
#X obj 43 357 sin~;
#X obj 42 311 *~ 0.25;
#X obj 13 34 delwrite~ \$0-delline 2000;
#X obj 181 78 tgl 15 0 empty empty empty 17 7 0 10 #fcfcfc #000000 #000000 0 1;
#X obj 183 99 metro 100;
#X floatatom 103 390 5 0 0 0 - - - 0;
#X obj 102 336 / 3.14159;
#X obj 102 364 * 2;
#X msg 44 148 0 \, 1 1000;
#X msg 103 315 1000;
#X obj 43 460 *~ 636.6;
#X obj 231 378 sel 0 1;
#X msg 284 409 1;
#X msg 250 412 stop;
#X msg 231 458 0;
#X obj 230 438 del 950;
#X msg 231 481 \$1 50;
#X msg 199 409 stop;
#X obj 228 503 line~;
#X obj 45 537 *~;
#X msg 301 472 0;
#X obj 304 517 bng 15 250 50 0 empty empty empty 17 7 0 10 #fcfcfc #000000 #000000;
#X obj 301 448 del 1100;
#N canvas 1 82 564 693 olds 0;
#X obj 317 420 lp2~ 10 0.7;
#X obj 339 368 mull~ 0 100;
#X obj 98 72 r \$0-stop;
#X obj 98 114 sel 1 0;
#X obj 379 339 < 0.5;
#X obj 100 93 tgl 15 0 empty empty empty 0 -6 0 8 #fcfcfc #000000 #000000 0 1;
#X obj 279 172 b;
#X msg 279 216 0 \, 1 \$1;
#X obj 279 97 b;
#X obj 279 118 2000;
#X obj 302 87 r \$0-restarttime;
#X obj 321 192 r \$0-stoptime;
#X msg 279 137 0 \$1;
#X msg 375 222 2000;
#X floatatom 380 309 5 0 0 0 - - - 0;
#X msg 97 181 0 \, 8000 8000;
#X obj 97 225 line~;
#X obj 279 193 2000;
#X obj 223 272 line~;
#X obj 97 282 *~;
#X obj 228 182 b;
#X obj 228 203 2000;
#X obj 98 324 +~;
#X msg 275 255 0;
#X msg 217 232 1 \, 0 \$1;
#X msg 183 81 0;
#X msg 210 81 1;
#X obj 275 282 line~;
#X obj 328 289 *~ -1;
#X obj 328 308 +~ 1;
#X obj 151 116 sel 1 0;
#X obj 112 712 vd~ \$0-delline;
#X obj 200 401 sel 1 0;
#X obj 113 367 t b f;
#X obj 113 444 line~;
#X obj 112 512 *~;
#X obj 198 512 *~;
#X obj 213 469 * -1;
#X obj 213 488 + 1;
#X text 95 498 on;
#X text 172 504 off;
#X obj 168 535 r \$0-alpha;
#X obj 122 580 *~ 0.001;
#X obj 122 604 +~ 1;
#X obj 111 640 /~;
#X obj 263 566 r \$0-alpha;
#X obj 218 589 *~ 0.001;
#X obj 217 610 +~ 1;
#X obj 188 678 /~;
#X obj 188 591 *~;
#X obj 234 630 r \$0-alpha;
#X obj 189 653 *~ 0.001;
#X msg 113 400 0 \, 2000 2000;
#X obj 96 62 *~ 0.2;
#X obj 96 34 osc~ 20000;
#X obj 225 19 switch~;
#X connect 2 0 5 0;
#X connect 3 0 15 0;
#X connect 3 0 6 0;
#X connect 3 1 15 0;
#X connect 3 1 20 0;
#X connect 4 0 1 1;
#X connect 5 0 3 0;
#X connect 6 0 17 0;
#X connect 7 0 18 0;
#X connect 8 0 9 0;
#X connect 9 0 12 0;
#X connect 10 0 9 1;
#X connect 11 0 17 1;
#X connect 12 0 16 0;
#X connect 12 0 18 0;
#X connect 13 0 17 1;
#X connect 15 0 16 0;
#X connect 16 0 19 0;
#X connect 17 0 7 0;
#X connect 18 0 19 1;
#X connect 19 0 22 0;
#X connect 20 0 21 0;
#X connect 21 0 24 0;
#X connect 23 0 27 0;
#X connect 24 0 18 0;
#X connect 25 0 5 0;
#X connect 26 0 5 0;
#X connect 27 0 22 1;
#X connect 28 0 29 0;
#X connect 33 0 52 0;
#X connect 33 1 35 1;
#X connect 33 1 37 0;
#X connect 34 0 35 0;
#X connect 34 0 36 0;
#X connect 35 0 42 0;
#X connect 35 0 44 0;
#X connect 36 0 49 0;
#X connect 36 0 49 1;
#X connect 36 0 46 0;
#X connect 37 0 38 0;
#X connect 38 0 36 1;
#X connect 41 0 42 1;
#X connect 42 0 43 0;
#X connect 43 0 44 1;
#X connect 44 0 31 0;
#X connect 45 0 46 1;
#X connect 46 0 47 0;
#X connect 47 0 48 1;
#X connect 48 0 31 0;
#X connect 49 0 51 0;
#X connect 50 0 51 1;
#X connect 51 0 48 0;
#X connect 52 0 34 0;
#X connect 54 0 53 0;
#X restore 316 144 pd olds;
#X obj 277 91 loadbang;
#X msg 277 114 1;
#X connect 0 0 23 0;
#X connect 2 0 40 0;
#X connect 4 0 3 0;
#X connect 5 0 6 0;
#X connect 6 0 7 0;
#X connect 6 0 32 0;
#X connect 7 0 29 0;
#X connect 7 1 9 1;
#X connect 7 1 11 0;
#X connect 8 0 20 0;
#X connect 8 0 9 0;
#X connect 9 0 22 0;
#X connect 10 0 18 0;
#X connect 11 0 12 0;
#X connect 12 0 10 1;
#X connect 15 0 6 0;
#X connect 16 0 6 0;
#X connect 17 0 19 0;
#X connect 18 0 17 0;
#X connect 19 0 31 0;
#X connect 20 0 10 0;
#X connect 21 0 31 0;
#X connect 22 0 21 0;
#X connect 24 0 25 0;
#X connect 25 0 16 0;
#X connect 27 0 28 0;
#X connect 28 0 26 0;
#X connect 29 0 8 0;
#X connect 30 0 27 0;
#X connect 31 0 2 0;
#X connect 32 0 36 0;
#X connect 32 0 38 0;
#X connect 32 1 34 0;
#X connect 32 1 33 0;
#X connect 32 1 43 0;
#X connect 33 0 37 0;
#X connect 34 0 36 0;
#X connect 35 0 37 0;
#X connect 36 0 35 0;
#X connect 37 0 39 0;
#X connect 38 0 43 0;
#X connect 39 0 40 1;
#X connect 40 0 1 0;
#X connect 41 0 8 0;
#X connect 41 0 42 0;
#X connect 43 0 41 0;
#X connect 45 0 46 0;
#X connect 46 0 6 0;
#X coords 0 0 0.00289855 0.00581395 135 47 0;
