#N canvas 361 111 1249 546 12;
#X obj 214 336 s toBorne;
#X obj 26 33 r \$1-Diesel-gears-speed;
#X obj 26 134 / 2;
#X obj 26 244 list prepend jauge;
#X msg 26 159 Tr/min \$1;
#X obj 211 30 r \$1-Gene-speed;
#X msg 211 119 Amperes \$1;
#X msg 346 109 Pression \$1;
#X obj 346 24 r \$1-Comp-speed;
#X floatatom 490 51 5 0 0 0 - - - 0;
#X obj 154 159 r \$1-Tank;
#X obj 154 184 change;
#X msg 154 209 Tank \$1;
#X obj 280 193 change;
#X obj 401 256 list prepend inter;
#X msg 280 218 Moteur \$1;
#X obj 280 168 > 0.07;
#X obj 364 192 change;
#X obj 364 167 > 0.07;
#X msg 362 216 Turbine \$1;
#X obj 449 189 change;
#X obj 449 164 > 0.07;
#X msg 447 213 Compresseur \$1;
#X obj 594 25 r toGem;
#X obj 594 50 route shader;
#X obj 594 75 > 0.5;
#X obj 594 100 change;
#X obj 718 30 r Turntable-ctl;
#X obj 718 55 route vinyl;
#X obj 718 80 > 0.5;
#X obj 718 105 change;
#X msg 594 159 Filtr.basse \$1;
#X obj 616 132 tgl 20 0 empty empty empty 0 -10 0 12 #fcfcfc #000000 #000000 0 1;
#X obj 740 132 tgl 20 0 empty empty empty 0 -10 0 12 #fcfcfc #000000 #000000 0 1;
#X msg 718 159 Filtr.haute \$1;
#X obj 490 26 r \$1-Pressure;
#X obj 837 28 r GLum;
#X obj 859 129 tgl 20 0 empty empty empty 0 -10 0 12 #fcfcfc #000000 #000000 0 1;
#X msg 837 156 Eclairage \$1;
#X obj 939 36 r TUNE;
#X obj 1015 35 r TUNE_TIME;
#X obj 1124 35 r ENDOFTUNE;
#X obj 1088 119 change;
#X obj 1054 65 sel 0;
#X msg 1087 90 1;
#X msg 1124 92 0;
#X msg 1088 144 playing \$1;
#X msg 1015 145 secs \$1;
#X msg 951 146 dir \$1;
#X obj 951 213 list prepend tune;
#X obj 215 368 r fromBorne;
#X obj 215 445 s NEXT_TUNE;
#X obj 215 419 symbol;
#X obj 215 393 route selectedtune;
#X obj 26 103 speedlim 100;
#X obj 26 77 change;
#X obj 211 89 speedlim 100;
#X obj 211 63 change;
#X obj 347 84 speedlim 100;
#X obj 347 58 change;
#X connect 1 0 16 0;
#X connect 1 0 55 0;
#X connect 2 0 4 0;
#X connect 3 0 0 0;
#X connect 4 0 3 0;
#X connect 5 0 18 0;
#X connect 5 0 57 0;
#X connect 6 0 3 0;
#X connect 7 0 3 0;
#X connect 8 0 21 0;
#X connect 8 0 59 0;
#X connect 10 0 11 0;
#X connect 11 0 12 0;
#X connect 12 0 3 0;
#X connect 13 0 15 0;
#X connect 14 0 0 0;
#X connect 15 0 14 0;
#X connect 16 0 13 0;
#X connect 17 0 19 0;
#X connect 18 0 17 0;
#X connect 19 0 14 0;
#X connect 20 0 22 0;
#X connect 21 0 20 0;
#X connect 22 0 14 0;
#X connect 23 0 24 0;
#X connect 24 0 25 0;
#X connect 25 0 26 0;
#X connect 26 0 31 0;
#X connect 27 0 28 0;
#X connect 28 0 29 0;
#X connect 29 0 30 0;
#X connect 30 0 34 0;
#X connect 31 0 14 0;
#X connect 32 0 31 0;
#X connect 33 0 34 0;
#X connect 34 0 14 0;
#X connect 35 0 9 0;
#X connect 36 0 38 0;
#X connect 37 0 38 0;
#X connect 38 0 14 0;
#X connect 39 0 48 0;
#X connect 40 0 43 0;
#X connect 40 0 47 0;
#X connect 41 0 45 0;
#X connect 42 0 46 0;
#X connect 43 1 44 0;
#X connect 44 0 42 0;
#X connect 45 0 42 0;
#X connect 46 0 49 0;
#X connect 47 0 49 0;
#X connect 48 0 49 0;
#X connect 49 0 0 0;
#X connect 50 0 53 0;
#X connect 52 0 51 0;
#X connect 53 0 52 0;
#X connect 54 0 2 0;
#X connect 55 0 54 0;
#X connect 56 0 6 0;
#X connect 57 0 56 0;
#X connect 58 0 7 0;
#X connect 59 0 58 0;
