#N canvas 379 311 1102 588 10;
#X obj 411 30 inlet;
#X obj 458 135 r \$1-note;
#X obj 414 140 ftom;
#X obj 436 217 gamme 90 40 1 0 1 0 1 1 0 1 0 1 0 1;
#X obj 436 297 mtof;
#N canvas 231 82 698 693 engine 0;
#X obj 374 72 hsl 128 12 0 1 0 1 \$0-speed empty engine-speed 6 6 1 8 #fcfcfc #000000 #000000 2700 1;
#N canvas 390 92 733 539 fourstroke 0;
#X obj 51 336 outlet~;
#X obj 168 336 outlet~;
#X obj 287 338 outlet~;
#X obj 399 340 outlet~;
#X obj 97 95 -~ 0.75;
#X obj 215 87 -~ 0.5;
#X obj 334 87 -~ 0.25;
#X obj 50 285 sig~ 1;
#X obj 51 311 /~;
#X obj 98 286 +~ 1;
#X obj 98 265 *~;
#X obj 98 243 *~;
#X obj 167 285 sig~ 1;
#X obj 166 311 /~;
#X obj 215 286 +~ 1;
#X obj 215 265 *~;
#X obj 215 243 *~;
#X obj 286 287 sig~ 1;
#X obj 287 313 /~;
#X obj 334 288 +~ 1;
#X obj 334 267 *~;
#X obj 334 245 *~;
#X obj 398 291 sig~ 1;
#X obj 399 317 /~;
#X obj 446 292 +~ 1;
#X obj 446 271 *~;
#X obj 446 249 *~;
#X obj 576 -13 noise~;
#X obj 461 226 +~;
#X obj 351 223 +~;
#X obj 232 222 +~;
#X obj 115 221 +~;
#X obj 446 65 +~;
#X obj 334 62 +~;
#X obj 215 62 +~;
#X obj 97 61 +~;
#X obj 576 8 lop~ 20;
#X obj 576 30 lop~ 20;
#X obj 606 63 *~ 0.5;
#X obj 98 117 cos~;
#X obj 215 113 cos~;
#X obj 334 111 cos~;
#X obj 446 111 cos~;
#X obj 43 9 swap 1;
#X obj 43 31 -;
#X obj 43 -13 inlet;
#X obj 42 74 + 2;
#X obj 43 53 * 3;
#X obj 277 30 inlet~;
#X obj 547 62 *~ 10;
#X obj 277 157 line~;
#X msg 277 137 \$1 250;
#X obj 606 88 delwrite~ \$0-a 20;
#X obj 547 112 delwrite~ \$0-b 20;
#X obj 462 -13 delread~ \$0-a 20;
#X obj 349 -14 delread~ \$0-a 15;
#X obj 230 -14 delread~ \$0-a 10;
#X obj 112 -15 delread~ \$0-a 5;
#X obj 130 193 vd~ \$0-b 5;
#X obj 247 194 vd~ \$0-b 10;
#X obj 366 195 vd~ \$0-b 15;
#X obj 476 196 vd~ \$0-b 20;
#X connect 4 0 39 0;
#X connect 5 0 40 0;
#X connect 6 0 41 0;
#X connect 7 0 8 0;
#X connect 8 0 0 0;
#X connect 9 0 8 1;
#X connect 10 0 9 0;
#X connect 11 0 10 0;
#X connect 11 0 10 1;
#X connect 12 0 13 0;
#X connect 13 0 1 0;
#X connect 14 0 13 1;
#X connect 15 0 14 0;
#X connect 16 0 15 0;
#X connect 16 0 15 1;
#X connect 17 0 18 0;
#X connect 18 0 2 0;
#X connect 19 0 18 1;
#X connect 20 0 19 0;
#X connect 21 0 20 0;
#X connect 21 0 20 1;
#X connect 22 0 23 0;
#X connect 23 0 3 0;
#X connect 24 0 23 1;
#X connect 25 0 24 0;
#X connect 26 0 25 0;
#X connect 26 0 25 1;
#X connect 27 0 36 0;
#X connect 28 0 26 1;
#X connect 29 0 21 1;
#X connect 30 0 16 1;
#X connect 31 0 11 1;
#X connect 32 0 42 0;
#X connect 33 0 6 0;
#X connect 34 0 5 0;
#X connect 35 0 4 0;
#X connect 36 0 37 0;
#X connect 37 0 38 0;
#X connect 37 0 49 0;
#X connect 38 0 52 0;
#X connect 39 0 11 0;
#X connect 40 0 16 0;
#X connect 41 0 21 0;
#X connect 42 0 26 0;
#X connect 43 0 44 0;
#X connect 43 1 44 1;
#X connect 44 0 47 0;
#X connect 45 0 43 0;
#X connect 46 0 51 0;
#X connect 47 0 46 0;
#X connect 48 0 35 0;
#X connect 48 0 34 0;
#X connect 48 0 33 0;
#X connect 48 0 32 0;
#X connect 49 0 53 0;
#X connect 50 0 28 0;
#X connect 50 0 31 0;
#X connect 50 0 30 0;
#X connect 50 0 29 0;
#X connect 51 0 50 0;
#X connect 54 0 32 1;
#X connect 55 0 33 1;
#X connect 56 0 34 1;
#X connect 57 0 35 1;
#X connect 58 0 31 1;
#X connect 59 0 30 1;
#X connect 60 0 29 1;
#X connect 61 0 28 1;
#X restore 10 135 pd fourstroke engine;
#N canvas 0 0 276 452 overtone 0;
#X obj 73 65 max~;
#X obj 73 87 -~;
#X obj 103 96 sig~ 1;
#X obj 103 118 -~;
#X obj 88 140 sig~ 1;
#X obj 88 163 /~;
#X obj 72 185 *~;
#X obj 72 206 *~;
#X obj 71 250 -~ 0.5;
#X obj 71 274 *~;
#X obj 71 293 *~ -4;
#X obj 71 312 +~ 1;
#X obj 71 331 *~ 0.5;
#X obj 71 229 wrap~;
#X obj 71 361 *~;
#X obj 119 290 sig~ 1;
#X obj 119 331 -~;
#X obj 71 405 *~;
#X obj 88 383 *~ 12;
#X obj 149 118 *~;
#X obj 165 98 *~ 12;
#X obj 34 2 inlet~ drive;
#X obj 149 2 inlet~ phase;
#X obj 165 77 inlet~ freq;
#X obj 177 330 inlet~ amp;
#X obj 71 428 outlet~;
#X obj 3 64 s~ \$0-env;
#X obj 135 309 r~ \$0-env;
#X connect 0 0 1 0;
#X connect 1 0 6 0;
#X connect 2 0 3 0;
#X connect 3 0 5 1;
#X connect 4 0 5 0;
#X connect 5 0 6 1;
#X connect 6 0 7 0;
#X connect 7 0 13 0;
#X connect 8 0 9 0;
#X connect 8 0 9 1;
#X connect 9 0 10 0;
#X connect 10 0 11 0;
#X connect 11 0 12 0;
#X connect 12 0 14 0;
#X connect 13 0 8 0;
#X connect 14 0 17 0;
#X connect 15 0 16 0;
#X connect 16 0 14 1;
#X connect 17 0 25 0;
#X connect 18 0 17 1;
#X connect 19 0 7 1;
#X connect 20 0 19 1;
#X connect 21 0 0 0;
#X connect 21 0 26 0;
#X connect 22 0 0 1;
#X connect 22 0 1 1;
#X connect 22 0 3 1;
#X connect 22 0 19 0;
#X connect 23 0 20 0;
#X connect 24 0 18 0;
#X connect 27 0 16 1;
#X restore 372 527 pd overtone;
#N canvas 0 0 1000 760 overtone 0;
#X obj 459 157 max~;
#X obj 459 185 -~;
#X obj 495 215 sig~ 1;
#X obj 500 239 -~;
#X obj 479 253 sig~ 1;
#X obj 485 281 /~;
#X obj 458 323 *~;
#X obj 458 361 *~;
#X obj 452 428 -~ 0.5;
#X obj 451 452 *~;
#X obj 450 475 *~ -4;
#X obj 449 500 +~ 1;
#X obj 452 530 *~ 0.5;
#X obj 457 390 wrap~;
#X obj 450 557 *~;
#X obj 504 391 sig~ 1;
#X obj 509 415 -~;
#X obj 449 580 *~;
#X obj 689 431 *~ 12;
#X obj 506 328 *~;
#X obj 581 321 *~ 12;
#X obj 338 29 inlet~ drive;
#X obj 546 79 inlet~ phase;
#X obj 579 294 inlet~ freq;
#X obj 692 384 inlet~ amp;
#X obj 449 609 outlet~;
#X connect 0 0 1 0;
#X connect 1 0 6 0;
#X connect 2 0 3 0;
#X connect 3 0 5 1;
#X connect 4 0 5 0;
#X connect 5 0 6 1;
#X connect 6 0 7 0;
#X connect 7 0 13 0;
#X connect 8 0 9 0;
#X connect 8 0 9 1;
#X connect 9 0 10 0;
#X connect 10 0 11 0;
#X connect 11 0 12 0;
#X connect 12 0 14 0;
#X connect 13 0 8 0;
#X connect 14 0 17 0;
#X connect 15 0 16 0;
#X connect 16 0 14 1;
#X connect 17 0 25 0;
#X connect 18 0 17 1;
#X connect 19 0 7 1;
#X connect 20 0 19 1;
#X connect 21 0 0 0;
#X connect 21 0 16 1;
#X connect 22 0 0 1;
#X connect 22 0 1 1;
#X connect 22 0 3 1;
#X connect 22 0 19 0;
#X connect 23 0 20 0;
#X connect 24 0 18 0;
#X restore 511 865 pd overtone;
#N canvas 0 0 1000 760 overtone 0;
#X obj 459 157 max~;
#X obj 459 185 -~;
#X obj 495 215 sig~ 1;
#X obj 500 239 -~;
#X obj 479 253 sig~ 1;
#X obj 485 281 /~;
#X obj 458 323 *~;
#X obj 458 361 *~;
#X obj 452 428 -~ 0.5;
#X obj 451 452 *~;
#X obj 450 475 *~ -4;
#X obj 449 500 +~ 1;
#X obj 452 530 *~ 0.5;
#X obj 457 390 wrap~;
#X obj 450 557 *~;
#X obj 504 391 sig~ 1;
#X obj 509 415 -~;
#X obj 449 580 *~;
#X obj 689 431 *~ 12;
#X obj 506 328 *~;
#X obj 581 321 *~ 12;
#X obj 338 29 inlet~ drive;
#X obj 546 79 inlet~ phase;
#X obj 579 294 inlet~ freq;
#X obj 692 384 inlet~ amp;
#X obj 449 609 outlet~;
#X connect 0 0 1 0;
#X connect 1 0 6 0;
#X connect 2 0 3 0;
#X connect 3 0 5 1;
#X connect 4 0 5 0;
#X connect 5 0 6 1;
#X connect 6 0 7 0;
#X connect 7 0 13 0;
#X connect 8 0 9 0;
#X connect 8 0 9 1;
#X connect 9 0 10 0;
#X connect 10 0 11 0;
#X connect 11 0 12 0;
#X connect 12 0 14 0;
#X connect 13 0 8 0;
#X connect 14 0 17 0;
#X connect 15 0 16 0;
#X connect 16 0 14 1;
#X connect 17 0 25 0;
#X connect 18 0 17 1;
#X connect 19 0 7 1;
#X connect 20 0 19 1;
#X connect 21 0 0 0;
#X connect 21 0 16 1;
#X connect 22 0 0 1;
#X connect 22 0 1 1;
#X connect 22 0 3 1;
#X connect 22 0 19 0;
#X connect 23 0 20 0;
#X connect 24 0 18 0;
#X restore 441 697 pd overtone;
#N canvas 1 87 450 300 parabola 0;
#X obj 193 88 -~ 0.5;
#X obj 192 112 *~;
#X obj 191 135 *~ -4;
#X obj 190 160 +~ 1;
#X obj 192 58 inlet~;
#X obj 190 211 outlet~;
#X obj 190 185 *~ 3;
#X connect 0 0 1 0;
#X connect 0 0 1 1;
#X connect 1 0 2 0;
#X connect 2 0 3 0;
#X connect 3 0 6 0;
#X connect 4 0 0 0;
#X connect 6 0 5 0;
#X restore 166 235 pd parabola;
#X obj 145 111 phasor~;
#X obj 235 389 -~;
#X obj 235 449 *~;
#X obj 304 451 *~;
#X obj 304 472 +~ 0.5;
#X obj 235 472 +~ 0.5;
#X obj 235 364 sig~ 1;
#X obj 251 332 cos~;
#N canvas 697 275 579 456 spacewarping 0;
#X obj 263 429 outlet~;
#X obj 9 33 hip~ 30;
#X obj 263 385 hip~ 200;
#X obj 263 407 hip~ 200;
#X obj 428 133 +~;
#X obj 300 17 inlet~ b;
#X obj 161 171 +~;
#X obj 9 12 inlet~ a;
#X obj 444 89 inlet~ c;
#X obj 337 207 +~;
#X obj 352 185 inlet~ d;
#X obj 125 275 *~;
#X obj 322 319 *~;
#X obj 161 99 *~;
#X obj 335 130 *~;
#X obj 142 19 inlet~ fm1;
#X obj 221 18 inlet~ fm2;
#X obj 25 96 *~;
#X obj 41 74 r \$0-wg-fb;
#X obj 125 230 r \$0-wg-l1;
#X obj 338 279 r \$0-wg-l2;
#X obj 351 90 r \$0-wg-w1;
#X obj 161 58 r \$0-wg-w2;
#X obj 125 251 * 40;
#X obj 338 299 * 40;
#X obj 351 110 * 40;
#X obj 161 79 * 40;
#X obj 25 53 r~ \$0-ewgfb2;
#X obj 9 123 delwrite~ \$0-e1a 50;
#X obj 162 125 vd~ \$0-e1a;
#X obj 336 155 vd~ \$0-e1b 12;
#X obj 428 154 delwrite~ \$0-e1b 50;
#X obj 428 111 r~ \$0-ewgfb1;
#X obj 336 240 delwrite~ \$0-e2b 50;
#X obj 323 343 vd~ \$0-e2b 12;
#X obj 323 364 s~ \$0-ewgfb2;
#X obj 161 313 vd~ \$0-e2a 12;
#X obj 161 334 s~ \$0-ewgfb1;
#X obj 161 276 delwrite~ \$0-e2a 50;
#X connect 1 0 28 0;
#X connect 2 0 3 0;
#X connect 3 0 0 0;
#X connect 4 0 31 0;
#X connect 5 0 6 1;
#X connect 6 0 2 0;
#X connect 6 0 38 0;
#X connect 7 0 1 0;
#X connect 8 0 4 1;
#X connect 9 0 2 0;
#X connect 9 0 33 0;
#X connect 10 0 9 1;
#X connect 11 0 36 0;
#X connect 12 0 34 0;
#X connect 13 0 29 0;
#X connect 14 0 30 0;
#X connect 15 0 14 0;
#X connect 15 0 11 1;
#X connect 16 0 13 1;
#X connect 16 0 12 0;
#X connect 17 0 28 0;
#X connect 18 0 17 1;
#X connect 19 0 23 0;
#X connect 20 0 24 0;
#X connect 21 0 25 0;
#X connect 22 0 26 0;
#X connect 23 0 11 0;
#X connect 24 0 12 1;
#X connect 25 0 14 1;
#X connect 26 0 13 0;
#X connect 27 0 17 0;
#X connect 29 0 6 0;
#X connect 30 0 9 0;
#X connect 32 0 4 0;
#X connect 34 0 2 0;
#X connect 34 0 35 0;
#X connect 36 0 2 0;
#X connect 36 0 37 0;
#X restore 166 885 pd spacewarping nonlinear waveguide exhaust system;
#X obj 511 791 wrap~;
#X obj 372 448 wrap~;
#X obj 441 623 wrap~;
#X obj 511 772 *~ 8;
#X obj 372 428 *~ 16;
#X obj 441 604 *~ 4;
#X obj 72 889 hip~ 2;
#X obj 10 110 r \$0-speed;
#X obj 320 331 r \$0-speed;
#X obj 374 96 hsl 128 12 0 1 0 1 \$0-transmission_delay2 empty transmission_delay2 6 6 1 8 #fcfcfc #000000 #000000 2500 1;
#X obj 372 389 * 100;
#X obj 396 467 r \$0-ot1-phase;
#X obj 420 486 r \$0-ot1-freq;
#X obj 444 505 r \$0-ot1-amp;
#X obj 535 809 r \$0-ot2-phase;
#X obj 559 827 r \$0-ot2-freq;
#X obj 583 845 r \$0-ot2-amp;
#X obj 465 641 r \$0-ot3-phase;
#X obj 489 659 r \$0-ot3-freq;
#X obj 513 678 r \$0-ot3-amp;
#X obj 320 390 sig~;
#X obj 133 935 s~ diagnostic;
#X obj 374 156 hsl 128 12 0 1 0 1 \$0-wg-fb empty waveguide-feedback 6 6 1 8 #fcfcfc #000000 #000000 4700 1;
#X obj 374 168 hsl 128 12 0 1 0 1 \$0-wg-l1 empty wguide-length1 6 6 1 8 #fcfcfc #000000 #000000 3800 1;
#X obj 374 180 hsl 128 12 0 1 0 1 \$0-wg-l2 empty wguide-length2 6 6 1 8 #fcfcfc #000000 #000000 7900 1;
#X obj 374 192 hsl 128 12 0 1 0 1 \$0-wg-w1 empty wguide-width1 6 6 1 8 #fcfcfc #000000 #000000 4800 1;
#X obj 374 204 hsl 128 12 0 1 0 1 \$0-wg-w2 empty wguide-width2 6 6 1 8 #fcfcfc #000000 #000000 3500 1;
#X obj 374 216 hsl 128 12 0 1 0 1 \$0-ot1-phase empty overtone1-phase 6 6 1 8 #fcfcfc #000000 #000000 8200 1;
#X obj 374 228 hsl 128 12 0 1 0 1 \$0-ot1-freq empty overtone1-freq 6 6 1 8 #fcfcfc #000000 #000000 3500 1;
#X obj 374 240 hsl 128 12 0 1 0 1 \$0-ot1-amp empty overtone1-amp 6 6 1 8 #fcfcfc #000000 #000000 1100 1;
#X obj 374 252 hsl 128 12 0 1 0 1 \$0-ot2-phase empty overtone2-phase 6 6 1 8 #fcfcfc #000000 #000000 3700 1;
#X obj 374 264 hsl 128 12 0 1 0 1 \$0-ot2-freq empty overtone2-freq 6 6 1 8 #fcfcfc #000000 #000000 2800 1;
#X obj 374 276 hsl 128 12 0 1 0 1 \$0-ot2-amp empty overtone2-amp 6 6 1 8 #fcfcfc #000000 #000000 6200 1;
#X obj 374 288 hsl 128 12 0 1 0 1 \$0-ot3-phase empty overtone3-phase 6 6 1 8 #fcfcfc #000000 #000000 9300 1;
#X obj 374 300 hsl 128 12 0 1 0 1 \$0-ot3-freq empty overtone3-freq 6 6 1 8 #fcfcfc #000000 #000000 4700 1;
#X obj 374 312 hsl 128 12 0 1 0 1 \$0-ot3-amp empty overtone3-amp 6 6 1 8 #fcfcfc #000000 #000000 2700 1;
#X obj 320 370 *;
#X obj 374 144 hsl 128 12 0 1 0 1 \$0-waveguide-warping empty waveguide-warp 6 6 1 8 #fcfcfc #000000 #000000 8000 1;
#X obj 166 279 *~;
#X obj 182 253 r \$0-mix-para;
#X obj 374 60 hsl 128 12 0 1 0 1 \$0-mix-para empty mix-parabolic 6 6 1 8 #fcfcfc #000000 #000000 11300 1;
#X obj 374 48 hsl 128 12 0 1 0 1 \$0-mix-cylinders empty mix-cylinders 6 6 1 8 #fcfcfc #000000 #000000 11900 1;
#X obj 72 178 *~;
#X obj 88 157 r \$0-mix-cylinders;
#X obj 336 350 r \$0-waveguide-warping;
#X obj 374 84 hsl 128 12 0 1 0 1 \$0-transmission_delay1 empty transmission_delay1 6 6 1 8 #fcfcfc #000000 #000000 1600 1;
#X obj 441 566 * 100;
#X obj 511 734 * 100;
#X obj 511 715 r \$0-transmission_delay1;
#X obj 374 120 hsl 128 12 0 1 0 1 \$0-parabola-delay empty parabola-delay 6 6 1 8 #fcfcfc #000000 #000000 1800 1;
#X obj 372 369 r \$0-transmission_delay2;
#X obj 441 546 r \$0-transmission_delay3;
#X obj 251 292 * 100;
#X obj 251 272 r \$0-warp-delay;
#X obj 374 132 hsl 128 12 0 1 0 1 \$0-warp-delay empty warp-delay 6 6 1 8 #fcfcfc #000000 #000000 4300 1;
#X obj 166 196 * 100;
#X obj 166 176 r \$0-parabola-delay;
#X obj 374 108 hsl 128 12 0 1 0 1 \$0-transmission_delay3 empty transmission_delay3 6 6 1 8 #fcfcfc #000000 #000000 4900 1;
#X obj 141 63 line~;
#X obj 319 411 lop~ 0.2;
#X obj 73 939 outlet~;
#X obj 139 19 inlet;
#X msg 141 44 \$1 1000;
#X obj 209 30 noise~;
#X obj 205 94 +~ 1;
#X obj 207 51 lop~ 2;
#X obj 208 71 *~ 1;
#X obj 144 90 *~;
#X obj 156 134 delwrite~ \$0-td 300;
#X obj 166 216 delread~ \$0-td;
#X obj 251 312 delread~ \$0-td;
#X obj 372 408 delread~ \$0-td;
#X obj 441 585 delread~ \$0-td;
#X obj 511 753 delread~ \$0-td;
#X obj 101 661 r \$0-on;
#X obj 101 815 lop~ 10;
#X obj 101 789 * 0.5;
#X obj 72 914 *~;
#X obj 102 689 sel 0 1;
#X obj 102 736 del 1100;
#X msg 110 710 stop;
#X msg 99 761 0;
#X msg 135 764 1;
#X connect 1 0 57 0;
#X connect 1 1 57 0;
#X connect 1 2 57 0;
#X connect 1 3 57 0;
#X connect 2 0 14 3;
#X connect 3 0 14 5;
#X connect 4 0 14 4;
#X connect 5 0 53 0;
#X connect 6 0 1 1;
#X connect 6 0 83 0;
#X connect 7 0 8 0;
#X connect 8 0 11 0;
#X connect 9 0 10 0;
#X connect 10 0 14 2;
#X connect 11 0 14 1;
#X connect 12 0 7 0;
#X connect 13 0 7 1;
#X connect 13 0 9 0;
#X connect 14 0 92 0;
#X connect 15 0 3 0;
#X connect 16 0 2 0;
#X connect 17 0 4 0;
#X connect 18 0 15 0;
#X connect 19 0 16 0;
#X connect 20 0 17 0;
#X connect 21 0 92 0;
#X connect 22 0 1 0;
#X connect 23 0 51 0;
#X connect 25 0 86 0;
#X connect 26 0 2 1;
#X connect 27 0 2 2;
#X connect 28 0 2 3;
#X connect 29 0 3 1;
#X connect 30 0 3 2;
#X connect 31 0 3 3;
#X connect 32 0 4 1;
#X connect 33 0 4 2;
#X connect 34 0 4 3;
#X connect 35 0 74 0;
#X connect 51 0 35 0;
#X connect 53 0 14 0;
#X connect 54 0 53 1;
#X connect 57 0 21 0;
#X connect 58 0 57 1;
#X connect 59 0 51 1;
#X connect 61 0 87 0;
#X connect 62 0 88 0;
#X connect 63 0 62 0;
#X connect 65 0 25 0;
#X connect 66 0 61 0;
#X connect 67 0 85 0;
#X connect 68 0 67 0;
#X connect 70 0 84 0;
#X connect 71 0 70 0;
#X connect 73 0 82 0;
#X connect 74 0 9 1;
#X connect 74 0 8 1;
#X connect 76 0 77 0;
#X connect 77 0 73 0;
#X connect 78 0 80 0;
#X connect 79 0 82 1;
#X connect 80 0 81 0;
#X connect 81 0 79 0;
#X connect 82 0 6 0;
#X connect 84 0 5 0;
#X connect 85 0 13 0;
#X connect 86 0 19 0;
#X connect 87 0 20 0;
#X connect 88 0 18 0;
#X connect 89 0 93 0;
#X connect 90 0 92 1;
#X connect 91 0 90 0;
#X connect 92 0 36 0;
#X connect 92 0 75 0;
#X connect 93 0 94 0;
#X connect 93 1 95 0;
#X connect 93 1 97 0;
#X connect 94 0 96 0;
#X connect 95 0 94 0;
#X connect 96 0 91 0;
#X connect 97 0 91 0;
#X restore 345 338 pd engine;
#X obj 463 440 s \$1-CompEffort;
#X obj 68 172 bng 15 250 50 0 empty empty empty 17 7 0 10 #fcfcfc #000000 #000000;
#X obj 36 321 bng 15 250 50 0 empty empty empty 17 7 0 10 #fcfcfc #000000 #000000;
#X obj 89 230 bng 15 250 50 0 empty empty empty 17 7 0 10 #fcfcfc #000000 #000000;
#X obj 132 180 bng 15 250 50 0 empty empty empty 17 7 0 10 #fcfcfc #000000 #000000;
#X obj 36 432 *~ 40;
#X obj 36 242 del 30;
#X obj 131 157 del 60;
#X obj 37 407 bp~ 9000 40;
#X obj 189 350 *~ 40;
#X obj 189 325 lop~ 40;
#X obj 281 141 osc~ 100;
#X obj 280 165 clip~ -0.8 0.3;
#X obj 154 81 hradio 15 1 0 3 empty empty empty 0 -8 0 10 #fcfcfc #000000 #000000 0;
#X obj 153 101 s \$0-demarreur;
#X obj 341 193 r \$0-demarreur;
#X obj 340 215 != 0;
#X obj 36 118 r \$0-demarreur;
#X obj 37 139 sel 0 1;
#X obj 280 189 hip~ 500;
#X obj 339 240 * 0.3;
#X obj 408 86 *;
#X obj 428 63 t b f;
#X obj 463 15 r \$0-demarreur;
#X obj 464 34 != 0;
#X obj 496 38 change;
#X msg 499 60 \$1 1500;
#X obj 497 81 line3;
#X obj 520 104 != 0;
#X obj 522 142 s \$0-on;
#X obj 523 123 change;
#X obj 611 436 sel 1;
#X obj 641 204 r \$0-demarreur;
#X obj 611 228 demux 0 1 2;
#X obj 584 341 s \$0-demarreur;
#X obj 701 347 del;
#X msg 663 303 stop;
#X obj 600 270 sel 1;
#X obj 647 270 sel 0;
#X msg 701 366 2;
#X msg 617 320 0;
#X obj 613 481 s \$0-demarreur;
#X msg 613 459 0;
#X obj 701 302 random 500;
#X obj 701 322 + 500;
#X obj 611 183 r \$1-Comp-start;
#X obj 611 412 r \$1-Comp-stop;
#X msg 583 316 1;
#X obj 482 409 s \$1-Comp-speed;
#X msg 481 366 \$1 1000;
#X obj 481 385 line;
#X obj 392 412 s \$0-speed;
#N canvas 587 123 551 404 Pressure 0;
#X obj 123 19 metro 50;
#X obj 123 -1 tgl 15 0 empty empty empty 17 7 0 10 #fcfcfc #000000 #000000 0 1;
#X obj 123 -24 init 1;
#X obj 171 169 +;
#X obj 34 273 -;
#X obj 7 84 moses 0;
#X obj 123 46 f;
#X floatatom 179 215 5 0 0 0 - - - 0;
#X obj 243 -11 hsl 128 15 0 1 0 0 empty empty empty -2 -8 0 10 #fcfcfc #000000 #000000 0 1;
#X msg 167 259 \$1 100;
#X obj 213 -30 / 4;
#X msg 235 69 0;
#X obj 99 214 * 4;
#X obj 97 241 / 10;
#X floatatom 41 216 5 0 0 0 - - - 0;
#X obj -63 133 sel 0;
#X msg -65 157 0.001;
#X obj 64 105 * 0.02;
#X obj 245 262 s \$1-Pressure;
#X obj 198 -65 r \$0-speed;
#X obj 212 23 s \$0-speed;
#X obj -64 110 r \$0-speed;
#X msg -24 155 0.005;
#X obj 43 140 * 0.001;
#X obj 286 24 r \$1-Vanne;
#X obj 202 169 * 1;
#X obj 304 57 hsl 128 15 0 1 0 0 empty empty empty -2 -8 0 10 #fcfcfc #000000 #000000 0 1;
#X obj 280 131 + 1;
#X obj 283 86 pow 2;
#X floatatom 205 290 14 0 0 0 - - - 0;
#X obj -72 195 * 0.001;
#X msg 1 115 0;
#X obj 238 169 clip 0 1;
#X obj 130 105 * 0.002;
#X obj 239 226 change;
#X msg 299 189 0;
#X obj 300 210 f;
#X obj 300 167 moses 0.001;
#X obj 282 108 * -0.001;
#X floatatom 378 121 5 0 0 0 - - - 0;
#X connect 0 0 6 0;
#X connect 1 0 0 0;
#X connect 2 0 1 0;
#X connect 3 0 25 0;
#X connect 5 0 23 0;
#X connect 5 0 31 0;
#X connect 5 1 17 0;
#X connect 6 0 33 0;
#X connect 8 0 20 0;
#X connect 11 0 25 0;
#X connect 12 0 13 0;
#X connect 15 0 16 0;
#X connect 15 1 22 0;
#X connect 19 0 6 1;
#X connect 19 0 14 0;
#X connect 21 0 15 0;
#X connect 24 0 28 0;
#X connect 24 0 39 0;
#X connect 25 0 32 0;
#X connect 26 0 28 0;
#X connect 27 0 25 1;
#X connect 28 0 38 0;
#X connect 32 0 29 0;
#X connect 32 0 34 0;
#X connect 32 0 37 0;
#X connect 33 0 3 0;
#X connect 34 0 18 0;
#X connect 35 0 36 0;
#X connect 36 0 3 1;
#X connect 37 0 35 0;
#X connect 37 1 36 0;
#X connect 38 0 27 0;
#X restore 608 25 pd Pressure;
#X obj 866 268 r \$1-CompMaster-snd;
#X obj 866 289 pow 3;
#X obj 866 362 s \$0-Master;
#X obj 187 401 +~;
#X obj 205 432 lop~ 400;
#X obj 411 113 * 60;
#X obj 463 339 / 60;
#X obj 155 36 r \$1-ALLSTOP;
#X msg 155 57 0;
#X obj 783 81 pow 2;
#X obj 781 123 clip 0 1;
#X obj 781 146 change;
#X obj 782 101 - 0.2;
#X obj 665 71 sel 0;
#X msg 663 93 0;
#X obj 782 31 r \$1-Amperes;
#X obj 781 58 * 8;
#X obj 446 111 t b f;
#X floatatom 722 65 8 0 0 0 - - - 0;
#X obj 447 92 * 60;
#X msg 818 188 set -1;
#N canvas 609 102 624 620 schpm 1;
#X obj 301 345 vd~ \$0-scmp1;
#X obj 204 271 bng 15 250 50 0 empty empty empty 17 7 0 10 #fcfcfc #000000 #000000;
#X obj 179 496 delwrite~ \$0-scmp1 500;
#X obj 42 158 noise~;
#X obj 157 326 *~;
#X obj 140 224 lop~ 1000;
#X obj 201 322 *~;
#X obj 41 304 vcf~;
#X obj 106 280 bng 15 250 50 0 empty empty empty 17 7 0 10 #fcfcfc #000000 #000000;
#X floatatom 113 348 5 0 0 0 - - - 0;
#X msg 112 119 0 \, 1 \$1 0 \, 0 0 \$1;
#X msg 126 44 2000;
#X obj 112 145 vline~;
#X obj 66 337 *~;
#X obj 111 169 *~;
#X obj 204 249 del;
#X obj 162 360 *~ 10;
#X obj 374 170 random 1000;
#X obj 374 193 / 1000;
#X obj 317 122 t b b;
#X obj 284 171 random 1000;
#X obj 284 194 / 1000;
#X obj 281 274 *~;
#X obj 305 310 +~;
#X obj 251 131 line~;
#X obj 232 184 *~;
#X msg 251 107 0 \, 1 \$1;
#X obj 66 266 /~;
#X obj 180 74 t f b;
#X msg 189 38 1000;
#X msg 227 39 300;
#X obj 49 220 sig~ 15000;
#X obj 299 405 *~ 0.99;
#X obj 298 376 lop~ 400;
#X msg 69 51 5000;
#X obj 84 306 init 90;
#X obj 201 399 subecho;
#X obj 366 431 hip~ 500;
#X obj 220 359 bp~ 600 3;
#X obj 18 369 subdisto;
#X obj 47 434 lop~ 1000;
#X obj 117 394 hip~ 5000;
#X obj 284 215 * -2;
#X obj 374 215 * 2;
#X obj 374 242 + 23;
#X obj 66 22 r \$0-schpom;
#X obj 201 292 ead~ 0 500;
#X obj 481 77 r \$1-note;
#X obj 481 97 mtof;
#X obj 481 123 / 20;
#X floatatom 562 136 5 0 0 0 - - - 0;
#X msg 521 243 tempo \$1 \, bang;
#X floatatom 521 205 5 0 0 0 - - - 0;
#X floatatom 543 373 5 0 0 0 - - - 0;
#X obj 483 149 swap 1000;
#X obj 482 170 /;
#X msg 543 77 4;
#X floatatom 555 181 5 0 0 0 - - - 0;
#X obj 473 388 sel 0;
#X obj 406 9 r \$1-beat;
#X obj 398 121 sel 0;
#X msg 270 43 500;
#X obj 340 84 bng 15 250 50 0 empty empty empty 17 7 0 10 #fcfcfc #000000 #000000;
#X obj 408 40 tgl 15 0 empty empty empty 17 7 0 10 #fcfcfc #000000 #000000 0 1;
#X obj 367 49 sel 1;
#X obj 478 319 ndmetro 4 1;
#X obj 387 148 bng 15 250 50 0 empty empty empty 17 7 0 10 #fcfcfc #000000 #000000;
#X floatatom 357 111 5 0 0 0 - - - 0;
#X obj 366 81 counter 7;
#X obj 474 345 sel 0;
#X obj 473 368 random 3;
#X obj 470 20 r \$1-sign;
#X obj 452 53 hradio 15 1 0 8 empty empty empty 0 -8 0 10 #fcfcfc #000000 #000000 0;
#X obj 467 241 /;
#X floatatom 466 268 5 0 0 0 - - - 0;
#X obj 440 194 t b b;
#X msg 422 248 4;
#X obj 442 293 -;
#X obj 120 420 *~ 1;
#X obj 424 461 r \$0-speed;
#X obj 427 566 i;
#X floatatom 385 604 5 0 0 0 - - - 0;
#X obj 437 443 hsl 128 15 0 1 0 0 empty empty empty -2 -8 0 10 #fcfcfc #000000 #000000 0 1;
#X floatatom 503 484 5 0 0 0 - - - 0;
#X obj 424 507 maxlib/scale 0 1 16 1.5;
#X obj 367 503 outlet~;
#X obj 425 484 pow 0.2;
#X obj 428 598 change;
#X obj 216 3 inlet;
#X obj 473 414 spigot;
#X obj 498 458 != 0;
#N canvas 1 82 450 300 note 0;
#X obj 177 96 r \$1-note;
#X obj 152 125 -;
#X obj 155 178 gamme 90 40 1 0 1 1 0 1 0 1 0 1 0 1;
#X obj 155 230 +;
#X msg 155 148 round \$1 20;
#X floatatom 264 133 5 0 0 0 - - - 0;
#X obj 142 58 inlet;
#X obj 159 267 outlet;
#X connect 0 0 1 1;
#X connect 0 0 3 1;
#X connect 1 0 4 0;
#X connect 2 0 3 0;
#X connect 3 0 7 0;
#X connect 4 0 2 0;
#X connect 6 0 1 0;
#X restore 374 305 pd note;
#X floatatom 583 310 5 0 0 0 - - - 0;
#X floatatom 331 250 5 0 0 0 - - - 0;
#X obj 385 348 mtof;
#X obj 388 373 swap 1000;
#X obj 387 394 /;
#X floatatom 414 409 5 0 0 0 - - - 0;
#X obj 349 292 tgl 15 0 empty empty empty 17 7 0 10 #fcfcfc #000000 #000000 0 1;
#X obj 347 313 * 9;
#X obj 366 461 *~ 0.7;
#X obj 283 236 - 5;
#X obj 374 283 random 10;
#X obj 382 325 + 30;
#X msg 315 41 100;
#X msg 466 222 100;
#X obj 285 9 maxlib/speedlim 102;
#X connect 0 0 33 0;
#X connect 1 0 46 0;
#X connect 3 0 5 0;
#X connect 3 0 7 0;
#X connect 4 0 16 0;
#X connect 5 0 4 0;
#X connect 6 0 16 0;
#X connect 7 0 13 0;
#X connect 8 0 35 0;
#X connect 9 0 7 2;
#X connect 10 0 12 0;
#X connect 11 0 28 0;
#X connect 12 0 14 0;
#X connect 12 0 14 1;
#X connect 13 0 41 0;
#X connect 13 0 40 0;
#X connect 14 0 13 1;
#X connect 15 0 1 0;
#X connect 16 0 38 0;
#X connect 16 0 2 0;
#X connect 17 0 18 0;
#X connect 18 0 43 0;
#X connect 19 0 20 0;
#X connect 19 1 17 0;
#X connect 19 1 102 0;
#X connect 20 0 21 0;
#X connect 21 0 42 0;
#X connect 22 0 23 0;
#X connect 23 0 0 0;
#X connect 23 0 27 1;
#X connect 24 0 25 0;
#X connect 24 0 25 1;
#X connect 25 0 22 0;
#X connect 26 0 24 0;
#X connect 27 0 7 1;
#X connect 28 0 26 0;
#X connect 28 0 10 0;
#X connect 28 0 15 0;
#X connect 28 1 19 0;
#X connect 29 0 28 0;
#X connect 30 0 28 0;
#X connect 31 0 27 0;
#X connect 32 0 2 0;
#X connect 33 0 32 0;
#X connect 33 0 37 0;
#X connect 34 0 28 0;
#X connect 35 0 7 2;
#X connect 36 0 2 0;
#X connect 37 0 100 0;
#X connect 38 0 36 0;
#X connect 40 0 2 0;
#X connect 41 0 78 0;
#X connect 42 0 101 0;
#X connect 43 0 44 0;
#X connect 44 0 93 0;
#X connect 45 0 28 0;
#X connect 46 0 6 0;
#X connect 46 0 6 1;
#X connect 47 0 48 0;
#X connect 48 0 49 0;
#X connect 49 0 50 0;
#X connect 49 0 54 0;
#X connect 51 0 65 0;
#X connect 52 0 51 0;
#X connect 54 0 55 0;
#X connect 54 1 55 1;
#X connect 55 0 51 0;
#X connect 55 0 57 0;
#X connect 55 0 73 1;
#X connect 56 0 54 0;
#X connect 58 0 89 0;
#X connect 59 0 64 0;
#X connect 60 0 75 0;
#X connect 61 0 28 0;
#X connect 64 0 68 0;
#X connect 65 0 53 0;
#X connect 65 0 69 0;
#X connect 68 0 60 0;
#X connect 68 0 67 0;
#X connect 69 0 70 0;
#X connect 70 0 58 0;
#X connect 71 0 68 4;
#X connect 72 0 68 4;
#X connect 73 0 74 0;
#X connect 73 0 77 1;
#X connect 75 0 76 0;
#X connect 75 1 105 0;
#X connect 76 0 77 0;
#X connect 77 0 65 0;
#X connect 78 0 2 0;
#X connect 79 0 83 0;
#X connect 79 0 86 0;
#X connect 79 0 90 0;
#X connect 80 0 87 0;
#X connect 82 0 86 0;
#X connect 84 0 80 0;
#X connect 86 0 84 0;
#X connect 87 0 81 0;
#X connect 87 0 70 1;
#X connect 88 0 104 0;
#X connect 89 0 106 0;
#X connect 90 0 89 1;
#X connect 91 0 103 0;
#X connect 94 0 95 0;
#X connect 95 0 96 0;
#X connect 95 1 96 1;
#X connect 96 0 97 0;
#X connect 96 0 23 1;
#X connect 98 0 99 0;
#X connect 99 0 91 0;
#X connect 100 0 85 0;
#X connect 101 0 22 1;
#X connect 102 0 91 0;
#X connect 103 0 94 0;
#X connect 104 0 28 0;
#X connect 105 0 73 0;
#X connect 106 0 104 0;
#X restore 355 446 pd schpm;
#X msg 831 72 1;
#X obj 356 421 sel 1;
#X obj 740 444 s \$1-Comp-start;
#X msg 715 406 1;
#X obj 372 483 lout \$0 \$1 2;
#X obj 280 241 *~ 0.3;
#X obj 348 375 bp~ 500 2;
#X obj 309 421 hip~ 50;
#X obj 310 377 *~ 1;
#X obj 887 121 t b b;
#X msg 911 147 set -1;
#X obj 923 85 bng 15 250 50 0 empty empty empty 17 7 0 10 #fcfcfc #000000 #000000;
#X obj 871 87 del 2;
#X obj 131 198 wavplayertab agraf-12 2;
#X obj 238 324 hip~ 4000;
#X obj 238 349 *~ 0.5;
#X obj 88 254 wavplayertab agraf-09 0.8;
#X obj 35 355 wavplayertab bing-03 1.3;
#X obj 52 478 bp~ 900 4;
#X obj 55 500 *~ 7;
#X obj 57 282 *~ 0.2;
#X obj 67 326 *~ 0.3;
#X obj 117 321 *~ 7;
#X obj 114 299 bp~ 1200 4;
#X obj 870 62 sel 0;
#X obj 870 39 r \$1-Comp-start;
#X obj 167 532 lout \$0 \$1 4;
#X obj 280 482 lout \$0 \$1 3;
#X obj 250 393 osc~ 200;
#X obj 530 165 r Gammes;
#X obj 530 187 route 0;
#X obj 530 209 unpack f f;
#X msg 543 233 setb \$1;
#X obj 433 164 -;
#X obj 436 273 +;
#X msg 434 187 round \$1 10;
#X obj 897 319 t b f;
#X obj 916 295 r \$1-MachinesMaster-snd;
#X obj 866 320 * 1;
#X connect 0 0 27 0;
#X connect 2 0 114 0;
#X connect 3 0 115 0;
#X connect 4 0 5 0;
#X connect 4 0 65 0;
#X connect 5 0 87 0;
#X connect 5 0 89 0;
#X connect 7 0 9 0;
#X connect 7 0 12 0;
#X connect 7 0 13 0;
#X connect 8 0 98 0;
#X connect 9 0 97 0;
#X connect 10 0 94 0;
#X connect 11 0 62 0;
#X connect 12 0 8 0;
#X connect 13 0 10 0;
#X connect 14 0 11 0;
#X connect 15 0 62 0;
#X connect 16 0 15 0;
#X connect 17 0 18 0;
#X connect 18 0 25 0;
#X connect 19 0 20 0;
#X connect 21 0 22 0;
#X connect 22 0 26 0;
#X connect 23 0 24 0;
#X connect 24 0 9 0;
#X connect 24 1 7 0;
#X connect 25 0 86 0;
#X connect 26 0 86 1;
#X connect 27 0 64 0;
#X connect 28 0 27 0;
#X connect 28 1 27 1;
#X connect 29 0 30 0;
#X connect 30 0 31 0;
#X connect 31 0 32 0;
#X connect 32 0 33 0;
#X connect 33 0 28 0;
#X connect 33 0 34 0;
#X connect 34 0 36 0;
#X connect 36 0 35 0;
#X connect 37 0 48 0;
#X connect 38 0 39 1;
#X connect 39 0 43 0;
#X connect 39 1 44 0;
#X connect 39 2 82 0;
#X connect 41 0 45 0;
#X connect 42 0 41 0;
#X connect 43 0 49 0;
#X connect 43 0 53 0;
#X connect 44 0 42 0;
#X connect 44 0 46 0;
#X connect 45 0 40 0;
#X connect 46 0 40 0;
#X connect 48 0 47 0;
#X connect 49 0 50 0;
#X connect 50 0 41 0;
#X connect 51 0 39 0;
#X connect 52 0 37 0;
#X connect 53 0 40 0;
#X connect 55 0 56 0;
#X connect 56 0 54 0;
#X connect 59 0 60 0;
#X connect 60 0 119 0;
#X connect 62 0 63 0;
#X connect 62 0 107 0;
#X connect 63 0 108 0;
#X connect 64 0 2 0;
#X connect 65 0 6 0;
#X connect 65 0 55 0;
#X connect 65 0 57 0;
#X connect 66 0 67 0;
#X connect 67 0 19 0;
#X connect 68 0 71 0;
#X connect 69 0 70 0;
#X connect 70 0 72 0;
#X connect 70 0 78 0;
#X connect 71 0 69 0;
#X connect 72 0 73 0;
#X connect 73 0 31 0;
#X connect 73 0 26 0;
#X connect 73 0 39 1;
#X connect 74 0 75 0;
#X connect 74 0 77 0;
#X connect 75 0 68 0;
#X connect 76 0 64 0;
#X connect 76 1 64 1;
#X connect 78 0 76 0;
#X connect 79 0 70 0;
#X connect 80 0 85 0;
#X connect 80 0 108 0;
#X connect 80 0 107 0;
#X connect 81 0 75 0;
#X connect 82 0 80 0;
#X connect 84 0 83 0;
#X connect 86 0 108 0;
#X connect 87 0 89 0;
#X connect 88 0 108 0;
#X connect 89 0 88 0;
#X connect 90 0 71 0;
#X connect 90 1 91 0;
#X connect 91 0 70 0;
#X connect 92 0 90 0;
#X connect 93 0 90 0;
#X connect 94 0 16 0;
#X connect 94 0 62 0;
#X connect 94 0 95 0;
#X connect 95 0 96 0;
#X connect 96 0 62 0;
#X connect 97 0 62 0;
#X connect 97 0 102 0;
#X connect 97 0 104 0;
#X connect 98 0 14 0;
#X connect 98 0 62 0;
#X connect 98 0 99 0;
#X connect 99 0 100 0;
#X connect 100 0 62 0;
#X connect 102 0 14 0;
#X connect 103 0 107 0;
#X connect 104 0 103 0;
#X connect 105 0 93 0;
#X connect 106 0 105 0;
#X connect 110 0 111 0;
#X connect 111 0 112 0;
#X connect 112 0 113 0;
#X connect 113 0 3 0;
#X connect 114 0 116 0;
#X connect 115 0 4 0;
#X connect 116 0 3 0;
#X connect 117 0 119 0;
#X connect 117 1 119 1;
#X connect 118 0 117 0;
#X connect 119 0 61 0;
