#N canvas 593 29 1004 682 10;
#X obj 12 74 cnv 15 200 100 empty empty motor 20 12 1 16 #e0e0e0 #fc2828 0;
#X obj 212 74 cnv 15 200 100 empty empty gears 20 12 1 16 #e0e0e0 #fc2828 0;
#X obj 212 175 cnv 15 200 100 empty empty fan 20 12 1 16 #e0e0e0 #fc2828 0;
#X obj 12 175 cnv 15 200 100 empty empty engine 20 12 1 16 #e0e0e0 #fc2828 0;
#X obj 12 13 cnv 15 400 60 empty empty Delux-machine-o-matic 20 12 1 18 #e0e0e0 #3c50fc 0;
#X obj 182 143 tgl 22 1 \$0-motor-mute empty empty 0 -6 0 8 #fcfcfc #000000 #000000 1 1;
#X obj 179 241 tgl 22 1 \$0-engine-mute empty empty 0 -6 0 8 #fcfcfc #000000 #000000 1 1;
#X obj 361 144 tgl 22 1 \$0-throb-mute empty empty 0 -6 0 8 #fcfcfc #000000 #000000 1 1;
#X obj 240 115 hsl 100 12 0 1 0 1 \$0-throb-rattle \$0-throb-rattle-r rattle 35 6 1 8 #fcfcfc #000000 #000000 2000 1;
#X obj 240 103 hsl 100 12 0 1 0 1 \$0-throb-freq \$0-throb-freq-r speed 35 6 1 8 #fcfcfc #000000 #000000 7655 1;
#X obj 240 127 hsl 100 12 0 1 0 1 \$0-throb-harm1 \$0-throb-harm1-r harm1 35 6 1 8 #fcfcfc #000000 #000000 1700 1;
#X obj 240 137 hsl 100 12 0 1 0 1 \$0-throb-harm2 \$0-throb-harm2-r harm2 35 6 1 8 #fcfcfc #000000 #000000 5511 1;
#X obj 240 147 hsl 100 12 0 1 0 1 \$0-throb-body \$0-throb-body-r body 35 6 1 8 #fcfcfc #000000 #000000 3135 1;
#X obj 240 157 hsl 100 12 0 1 0 1 \$0-throb-vol \$0-throb-vol-r vol 35 6 1 8 #fcfcfc #000000 #000000 5700 1;
#X obj 61 113 hsl 100 12 0 1 0 1 \$0-motor-brush \$0-motor-brush-r brush 35 6 1 8 #fcfcfc #000000 #000000 2100 1;
#X obj 61 101 hsl 100 12 0 1 0 1 \$0-motor-speed \$0-motor-speed-r speed 35 6 1 8 #fcfcfc #000000 #000000 3495 1;
#X obj 61 125 hsl 100 12 0 1 0 1 \$0-motor-hard \$0-motor-hard-r hard 35 6 1 8 #fcfcfc #000000 #000000 8400 1;
#X obj 61 135 hsl 100 12 0 1 0 1 \$0-motor-res \$0-motor-res-r res 35 6 1 8 #fcfcfc #000000 #000000 9000 1;
#X obj 61 145 hsl 100 12 0 1 0 1 \$0-motor-harmonic \$0-motor-harmonic-r harmonic 35 6 1 8 #fcfcfc #000000 #000000 2600 1;
#X obj 61 157 hsl 100 12 0 1 0 1 \$0-motor-volume \$0-motor-volume-r volume 35 6 1 8 #fcfcfc #000000 #000000 8700 1;
#X obj 62 225 hsl 100 12 0 1 0 1 \$0-engine-capacity \$0-motor-capacity-r capacity 35 6 1 8 #fcfcfc #000000 #000000 5000 1;
#X obj 62 213 hsl 100 12 0 1 0 1 \$0-engine-speed \$0-engine-speed-r speed 35 6 1 8 #fcfcfc #000000 #000000 5148 1;
#X obj 62 249 hsl 100 12 0 1 0 1 \$0-engine-volume \$0-engine-volume-r volume 35 6 1 8 #fcfcfc #000000 #000000 9900 1;
#X obj 62 237 hsl 100 12 0 1 0 1 \$0-engine-jitter \$0-engine-jitter-r jitter 35 6 1 8 #fcfcfc #000000 #000000 0 1;
#X obj 367 241 tgl 22 0 \$0-fan-mute empty empty 0 -6 0 8 #fcfcfc #000000 #000000 0 1;
#X obj 247 218 hsl 100 12 0 1 0 1 \$0-fan-size \$0-fan-size-r size 35 6 1 8 #fcfcfc #000000 #000000 4600 1;
#X obj 247 206 hsl 100 12 0 1 0 1 \$0-fan-speed \$0-fan-speed-r speed 35 6 1 8 #fcfcfc #000000 #000000 3000 1;
#X obj 247 254 hsl 100 12 0 1 0 1 \$0-fan-volume \$0-fan-volume-r volume 35 6 1 8 #fcfcfc #000000 #000000 7400 1;
#X obj 247 230 hsl 100 12 0 1 0 1 \$0-fan-blade1 \$0-fan-blade1-r blade1 35 6 1 8 #fcfcfc #000000 #000000 7000 1;
#X obj 247 242 hsl 100 12 0 1 0 1 \$0-fan-blade2 \$0-fan-blade2-r blade2 35 6 1 8 #fcfcfc #000000 #000000 6400 1;
#X obj 35 45 hsl 128 15 0 1 0 1 \$0-dmom-speed \$0-dmom-speed-r masterspeed 33 7 1 8 #fcfcfc #000000 #000000 12617 1;
#X obj 35 60 hsl 128 15 0 1 0 1 \$0-dmom-inertia \$0-dmom-inertia-r inertia 33 7 1 8 #fcfcfc #000000 #000000 8099 1;
#X symbolatom 236 50 20 0 0 0 - \$0-patchname - 0;
#X obj 186 50 nbx 5 14 0 8 0 0 \$0-patchselect empty patch 0 -6 1 8 #fcfcfc #000000 #000000 0 256;
#X obj 123 342 *~ 0.4;
#N canvas 147 82 889 693 engine 0;
#X obj 215 40 *~;
#X obj 232 -24 line~;
#X obj 25 114 cos~;
#X obj 25 90 +~;
#X obj 232 -45 pack 0 50;
#X obj 232 -65 / 100;
#X obj 25 60 phasor~;
#X obj 215 18 osc~;
#X obj 232 -146 -;
#X obj 232 -126 abs;
#X obj 232 -166 line;
#X obj 25 251 clip~ 0 0.8;
#X obj 112 140 line~;
#X obj 58 185 *~;
#N canvas 0 0 450 300 (subpatch) 0;
#X array \$0-bell-curve 200 float 1;
#A 0 1.12535e-07 1.54727e-07 2.12059e-07 2.89706e-07 3.94519e-07 5.35535e-07 7.24633e-07 9.77371e-07 1.31404e-06 1.76105e-06 2.35258e-06 3.13275e-06 4.15832e-06 5.50199e-06 7.25659e-06 9.54016e-06 1.25023e-05 1.63317e-05 2.1266e-05 2.76026e-05 3.57128e-05 4.60584e-05 5.92113e-05 7.58768e-05 9.69224e-05 0.00012341 0.000156634 0.000198167 0.000249912 0.000314163 0.000393669 0.000491721 0.000612231 0.000759842 0.000940028 0.00115923 0.00142498 0.00174605 0.00213263 0.00259648 0.00315111 0.00381201 0.00459678 0.0055254 0.0066204 0.00790705 0.0094136 0.0111714 0.013215 0.0155826 0.0183156 0.0214592 0.0250621 0.0291763 0.0338573 0.0391639 0.0451575 0.0519019 0.0594631 0.0679081 0.0773047 0.0877205 0.0992216 0.111872 0.125732 0.140858 0.1573 0.1751 0.194291 0.214896 0.236928 0.260383 0.285247 0.311486 0.339053 0.367879 0.397882 0.428956 0.46098 0.493812 0.527292 0.561244 0.595473 0.62977 0.663916 0.697676 0.730811 0.763074 0.794216 0.823987 0.852144 0.878447 0.902668 0.924595 0.944027 0.960789 0.974725 0.985703 0.99362 0.998401 1 0.998401 0.99362 0.985703 0.974725 0.960789 0.944027 0.924595 0.902668 0.878447 0.852144 0.823987 0.794216 0.763074 0.730811 0.697676 0.663916 0.62977 0.595473 0.561244 0.527292 0.493812 0.46098 0.428956 0.397882 0.367879 0.339053 0.311486 0.285247 0.260383 0.236928 0.214896 0.194291 0.1751 0.1573 0.140858 0.125732 0.111872 0.0992216 0.0877205 0.0773047 0.0679081 0.0594631 0.0519019 0.0451575 0.0391639 0.0338573 0.0291763 0.0250621 0.0214592 0.0183156 0.0155826 0.013215 0.0111714 0.0094136 0.00790705 0.0066204 0.0055254 0.00459678 0.00381201 0.00315111 0.00259648 0.00213263 0.00174605 0.00142498 0.00115923 0.000940028 0.000759842 0.000612231 0.000491721 0.000393669 0.000314163 0.000249912 0.000198167 0.000156634 0.00012341 9.69224e-05 7.58768e-05 5.92113e-05 4.60584e-05 3.57128e-05 2.76026e-05 2.1266e-05 1.63317e-05 1.25023e-05 9.54016e-06 7.25659e-06 5.50199e-06 4.15832e-06 3.13275e-06 2.35258e-06 1.76105e-06 1.31404e-06 9.77371e-07 7.24633e-07 5.35535e-07 3.94519e-07 2.89706e-07 2.12059e-07 1.54727e-07;
#X coords 0 1 199 0 80 80 1;
#X restore 112 302 graph;
#N canvas 94 264 600 388 make-table 0;
#X msg 81 44 bang;
#X obj 81 73 t b b;
#X obj 159 142 f;
#X obj 197 142 + 1;
#X msg 175 112 0;
#X obj 81 102 until;
#X obj 161 177 t f f;
#X obj 52 270 expr exp(-$f1*$f1);
#X obj 63 168 sel 199;
#X obj 51 241 expr ($f1-100)/25;
#X obj 76 306 tabwrite \$0-bell-curve;
#X connect 0 0 1 0;
#X connect 1 0 5 0;
#X connect 1 1 4 0;
#X connect 2 0 3 0;
#X connect 2 0 6 0;
#X connect 2 0 8 0;
#X connect 3 0 2 1;
#X connect 4 0 2 1;
#X connect 5 0 2 0;
#X connect 6 0 9 0;
#X connect 6 1 10 1;
#X connect 7 0 10 0;
#X connect 8 0 5 1;
#X connect 9 0 7 0;
#X restore 111 269 pd make-table;
#X obj 58 162 cos~;
#X obj 58 139 -~ 0.25;
#X obj 58 208 +~ 100;
#X obj 58 113 *~ 0.5;
#X obj 24 285 *~;
#X obj 215 -3 + 0.1;
#X obj 232 -106 * 4;
#X obj 232 -86 + 10;
#X obj 112 94 / 2;
#X obj 24 312 hip~ 5;
#X obj 232 -187 pack \$1 130;
#X obj 112 117 pack 0 150;
#X text 275 -90 first difference of speed;
#X text 300 -12 advance/retard window;
#X text 86 60 primary oscil;
#X text 123 190 phase coherent window;
#X text 480 -113 <----;
#X text 481 -10 <----;
#X text 541 -61 Phase of exhaust to piston;
#X text 525 -98 |;
#X text 525 -78 |;
#X text 525 -44 |;
#X text 525 -25 |;
#X obj 24 336 *~ 0.4;
#X text 71 341 ajf;
#X obj 223 -590 inlet;
#X obj 24 362 *~;
#X obj 24 385 outlet~;
#X obj -8 -12 *~;
#X obj -67 -76 r~ \$0-enginems;
#X obj 7 -36 sig~;
#X obj 224 -567 unpack f f f f;
#X obj 232 -209 + 0;
#X obj 202 -231 t f f;
#X obj 154 -315 line;
#X obj 204 -278 +;
#X obj 148 -383 env~;
#X msg 149 -338 \$1 20;
#X obj 148 -361 / 100;
#X obj 149 -406 lop~ 3;
#X obj 150 -428 noise~;
#X obj 227 -470 swap 1;
#X obj 229 -448 -;
#X obj 229 -423 * 1000;
#X obj 192 -500 t f f;
#X obj 185 -456 + 0.5;
#X obj 187 -476 * 3;
#X obj 192 -523 min 0.94;
#X text 204 -385 jitter machine;
#X obj -51 75 sqrt~;
#X obj -51 140 *~;
#X obj 204 -254 * 180;
#X obj 58 231 tabread4~ \$0-bell-curve;
#X obj -40 -215 line~;
#X obj -39 -238 pack f f;
#X obj 31 -320 r \$0-dmom-speed;
#X obj 13 -282 r \$0-dmom-inertia;
#X obj 12 -260 * 100;
#X obj 29 -200 line;
#X obj 33 -174 * 180;
#X floatatom 45 -234 5 0 0 0 - - - 0;
#X obj 430 150 switch~;
#X obj 422 89 r \$0-engine-mute;
#X obj -37 -388 r \$0-freq;
#X obj -37 -362 / 10;
#X obj 35 -370 / 200;
#X obj 67 -415 mtof;
#X floatatom 86 -366 5 0 0 0 - - - 0;
#X obj 78 -445 r \$1-note;
#X msg -48 -281 0;
#X floatatom -13 -426 5 0 0 0 - - - 0;
#X obj 31 -515 r \$0-freq;
#X obj 32 -488 * 20;
#X floatatom -3 -442 5 0 0 0 - - - 0;
#X connect 0 0 3 1;
#X connect 1 0 0 1;
#X connect 2 0 11 0;
#X connect 3 0 2 0;
#X connect 4 0 1 0;
#X connect 5 0 4 0;
#X connect 6 0 3 0;
#X connect 6 0 19 0;
#X connect 7 0 0 0;
#X connect 8 0 9 0;
#X connect 9 0 22 0;
#X connect 10 0 8 0;
#X connect 10 0 21 0;
#X connect 11 0 20 0;
#X connect 12 0 13 1;
#X connect 13 0 18 0;
#X connect 16 0 13 0;
#X connect 17 0 16 0;
#X connect 18 0 68 0;
#X connect 19 0 17 0;
#X connect 20 0 25 0;
#X connect 21 0 7 0;
#X connect 22 0 23 0;
#X connect 23 0 24 0;
#X connect 23 0 5 0;
#X connect 24 0 27 0;
#X connect 25 0 39 0;
#X connect 26 0 10 0;
#X connect 27 0 12 0;
#X connect 39 0 42 0;
#X connect 41 0 47 0;
#X connect 42 0 43 0;
#X connect 46 0 44 1;
#X connect 47 0 51 1;
#X connect 47 2 63 0;
#X connect 47 3 66 1;
#X connect 48 0 26 0;
#X connect 48 0 8 1;
#X connect 49 0 46 0;
#X connect 49 0 6 0;
#X connect 49 1 48 0;
#X connect 50 0 51 0;
#X connect 51 0 67 0;
#X connect 52 0 54 0;
#X connect 53 0 50 0;
#X connect 54 0 53 0;
#X connect 55 0 52 0;
#X connect 56 0 55 0;
#X connect 57 0 58 0;
#X connect 57 1 58 1;
#X connect 58 0 59 0;
#X connect 59 0 54 1;
#X connect 60 0 62 0;
#X connect 60 1 57 0;
#X connect 61 0 55 1;
#X connect 62 0 61 0;
#X connect 63 0 60 0;
#X connect 65 0 66 0;
#X connect 66 0 42 1;
#X connect 67 0 49 0;
#X connect 68 0 20 1;
#X connect 69 0 65 0;
#X connect 70 0 69 0;
#X connect 70 0 74 0;
#X connect 72 0 73 0;
#X connect 73 0 70 1;
#X connect 73 0 76 0;
#X connect 74 0 75 0;
#X connect 75 0 67 1;
#X connect 78 0 77 0;
#X connect 79 0 80 0;
#X connect 81 0 70 0;
#X connect 84 0 83 0;
#X connect 84 0 82 0;
#X connect 85 0 70 0;
#X connect 87 0 88 0;
#X connect 88 0 81 0;
#X restore 211 315 pd engine;
#N canvas 660 95 514 611 motor 0;
#X obj 245 462 vcf~ 1000 10009;
#X obj 245 414 +~;
#X obj 332 366 osc~ 100;
#X obj 243 331 *~;
#X obj 244 391 vcf~ 100 10;
#X obj 333 342 *~ 100;
#X obj 245 436 cos~;
#X obj 258 236 *~ 0.125;
#X obj 257 258 phasor~;
#X obj 258 284 *~;
#X obj 159 268 *~;
#X obj 160 293 +~;
#X obj 244 365 clip~ -1 1;
#X obj 258 306 *~;
#X obj 332 389 *~ 0.5;
#X obj 276 492 sqrt~;
#X obj 247 512 *~;
#X obj 247 557 *~;
#X obj 276 337 * -1;
#X obj 246 486 +~;
#X obj 187 268 sig~ 0.2;
#N canvas 0 0 906 686 metalnoise 0;
#X obj 351 143 noise~;
#X obj 351 164 hip~ 100;
#X obj 403 333 outlet~;
#X obj 339 103 * 6500;
#X obj 284 104 * 4200;
#X obj 399 105 * 9600;
#X obj 224 105 * 3300;
#X obj 165 105 * 2200;
#X obj 452 103 * 12000;
#X obj 123 231 bp~ 1 30;
#X obj 211 230 bp~ 1 30;
#X obj 295 229 bp~ 1 30;
#X obj 403 229 bp~ 1 30;
#X obj 496 229 bp~ 1 30;
#X obj 592 228 bp~ 1 30;
#X obj 318 44 inlet;
#X obj 403 306 *~ 0.15;
#X connect 0 0 1 0;
#X connect 1 0 9 0;
#X connect 1 0 10 0;
#X connect 1 0 11 0;
#X connect 1 0 12 0;
#X connect 1 0 13 0;
#X connect 1 0 14 0;
#X connect 3 0 12 1;
#X connect 4 0 11 1;
#X connect 5 0 13 1;
#X connect 6 0 10 1;
#X connect 7 0 9 1;
#X connect 8 0 14 1;
#X connect 9 0 16 0;
#X connect 10 0 16 0;
#X connect 11 0 16 0;
#X connect 12 0 16 0;
#X connect 13 0 16 0;
#X connect 14 0 16 0;
#X connect 15 0 7 0;
#X connect 15 0 6 0;
#X connect 15 0 4 0;
#X connect 15 0 3 0;
#X connect 15 0 5 0;
#X connect 15 0 8 0;
#X connect 16 0 2 0;
#X restore 158 236 pd metalnoise;
#X obj 247 534 *~ 0.2;
#X obj 161 50 inlet;
#X text 209 1 motor unit;
#X text 161 28 program params;
#X obj 161 164 * 2;
#X obj 220 176 swap 1;
#X obj 221 200 -;
#X obj 273 172 * 3;
#X obj 324 207 * 2;
#X obj 158 187 *~;
#X obj 187 152 line~;
#X msg 181 124 \$1 100;
#X obj 367 482 line~;
#X msg 367 460 \$1 100;
#X obj 366 529 *~;
#X obj 367 436 sqrt;
#X obj 160 76 unpack f f f f f f;
#X obj 247 581 outlet~;
#X obj 110 142 catch~ \$0-ms;
#X obj 91 168 *~;
#X obj 91 122 sig~ 1;
#X obj 181 99 * 10000;
#X obj 36 78 line~;
#X obj 37 55 pack f f;
#X obj 37 -8 r \$0-dmom-speed;
#X obj 89 11 r \$0-dmom-inertia;
#X obj 88 33 * 3000;
#X obj 410 130 switch~;
#X obj 401 70 r \$0-motor-mute;
#X floatatom 335 122 5 0 0 0 - - - 0;
#X floatatom 8 7 5 0 0 0 - - - 0;
#X obj 0 50 / 10;
#X obj 5 29 r \$0-freq;
#X obj 424 502 *;
#X obj 422 479 t b f;
#X obj 420 436 != 0;
#X obj 421 412 r \$0-freq;
#X connect 0 0 19 0;
#X connect 1 0 6 0;
#X connect 2 0 14 0;
#X connect 3 0 12 0;
#X connect 4 0 1 0;
#X connect 5 0 2 0;
#X connect 6 0 0 0;
#X connect 7 0 8 0;
#X connect 8 0 9 0;
#X connect 8 0 9 1;
#X connect 9 0 13 0;
#X connect 9 0 13 1;
#X connect 10 0 11 0;
#X connect 11 0 3 0;
#X connect 12 0 4 0;
#X connect 13 0 3 1;
#X connect 14 0 1 1;
#X connect 15 0 16 1;
#X connect 16 0 22 0;
#X connect 17 0 39 0;
#X connect 18 0 12 1;
#X connect 19 0 16 0;
#X connect 20 0 11 1;
#X connect 21 0 10 0;
#X connect 21 0 19 1;
#X connect 22 0 17 0;
#X connect 23 0 38 0;
#X connect 26 0 10 1;
#X connect 26 0 21 0;
#X connect 27 0 28 0;
#X connect 27 1 28 1;
#X connect 28 0 20 0;
#X connect 29 0 4 2;
#X connect 29 0 0 2;
#X connect 30 0 5 1;
#X connect 31 0 7 0;
#X connect 31 0 4 1;
#X connect 31 0 0 1;
#X connect 31 0 5 0;
#X connect 32 0 31 1;
#X connect 33 0 32 0;
#X connect 34 0 36 0;
#X connect 35 0 34 0;
#X connect 36 0 17 1;
#X connect 37 0 35 0;
#X connect 38 0 26 0;
#X connect 38 0 27 0;
#X connect 38 1 37 0;
#X connect 38 1 43 0;
#X connect 38 2 18 0;
#X connect 38 2 12 2;
#X connect 38 3 29 0;
#X connect 38 4 30 0;
#X connect 38 5 55 0;
#X connect 41 0 15 0;
#X connect 41 0 31 0;
#X connect 42 0 41 0;
#X connect 43 0 33 0;
#X connect 44 0 41 1;
#X connect 45 0 44 0;
#X connect 46 0 52 0;
#X connect 47 0 48 0;
#X connect 48 0 45 1;
#X connect 50 0 49 0;
#X connect 53 0 45 0;
#X connect 54 0 53 0;
#X connect 55 0 36 1;
#X connect 56 0 55 0;
#X connect 56 1 55 1;
#X connect 57 0 56 0;
#X connect 58 0 57 0;
#X restore 39 315 pd motor;
#N canvas 119 81 1063 662 gears 0;
#X obj 434 608 vd~ \$0-o1;
#X obj 53 526 delwrite~ \$0-o1 90;
#X obj 207 527 delwrite~ \$0-o2 90;
#X obj 506 608 vd~ \$0-o2;
#X obj 53 502 osc~ 400;
#X obj 375 516 *~ 0.5;
#X obj 376 539 +~ 0.5;
#X obj 503 513 *~ 0.5;
#X obj 504 536 +~ 0.5;
#X obj 504 493 osc~ 89;
#X obj 207 502 osc~ 240;
#X obj 504 569 *~ 2;
#X obj 375 559 *~ 2;
#X obj 376 496 osc~ 345;
#X obj 247 288 * 0.5;
#X obj 322 288 * 0.5;
#X obj 502 356 * 0.5;
#X obj 334 257 t;
#X obj 464 667 +~;
#X obj 97 314 *~;
#X obj 509 667 *~;
#X obj 97 288 clip~ -1 1;
#X obj 508 691 *~ 0.5;
#X obj 486 756 outlet~;
#X text 203 138 f;
#X text 494 179 odd;
#X obj 115 149 * 0.7;
#X obj 228 217 t f f f f;
#X obj 601 310 t f f;
#X obj 422 243 t f f;
#X obj 355 212 t f f;
#X obj 368 159 * 2;
#X obj 601 258 * 50;
#X obj 487 714 *~;
#X obj 254 -31 inlet;
#X obj 253 -7 unpack f f f f f f f;
#X obj 464 42 t b f;
#X obj 559 691 line~;
#X msg 563 663 \$1 100;
#X obj 464 74 * 1;
#X obj 487 735 *~ 0.4;
#X obj 505 463 *~;
#X obj 505 424 sig~;
#X obj 378 467 *~;
#X obj 377 428 sig~;
#X obj 208 435 sig~;
#X obj 53 437 sig~;
#X floatatom 259 336 5 0 0 0 - - - 0;
#X obj 207 478 *~;
#X obj 52 480 *~;
#X obj 242 153 * 200;
#X obj 419 754 s~ \$0-fb;
#X obj 97 260 r~ \$0-fb;
#X obj 257 365 r~ \$0-gearsms;
#X obj 263 397 +~;
#X obj 377 368 line~;
#X obj 576 110 pack f f;
#X obj 709 59 * 5000;
#X obj 576 25 r \$0-dmom-speed;
#X obj 710 37 r \$0-dmom-inertia;
#X obj 723 406 switch~;
#X obj 723 379 r \$0-throb-mute;
#X floatatom 534 48 5 0 0 0 - - - 0;
#X floatatom 538 4 5 0 0 0 - - - 0;
#X obj 537 24 mtof;
#X obj 619 168 line;
#X obj 583 52 moses;
#X obj 741 135 metro 50;
#X obj 741 115 tgl 15 0 empty empty empty 17 7 0 10 #fcfcfc #000000 #000000 0 1;
#X obj 789 285 +;
#X obj 836 77 r \$0-dmom-speed;
#X obj 743 188 -;
#X obj 743 214 moses 0;
#X obj 743 164 f;
#X floatatom 727 297 5 0 0 0 - - - 0;
#X obj 828 111 hsl 128 15 0 1 0 0 empty empty empty -2 -8 0 10 #fcfcfc #000000 #000000 0 1;
#X obj 828 286 f;
#X msg 789 327 \$1 100;
#X obj 875 -10 r \$0-freq;
#X msg 853 185 0;
#X obj 886 332 * 4;
#X obj 884 359 / 10;
#X floatatom 908 391 5 0 0 0 - - - 0;
#X obj 872 418 s \$1-Diesel-gears-speed;
#X obj 917 28 sel 0;
#X obj 661 209 r \$0-freq;
#X obj 662 232 sel 0;
#X obj 806 232 * 0.02;
#X msg 701 254 0.01;
#X obj 875 21 / 1;
#X obj 848 14 / 4;
#X obj 741 92 loadbang;
#X msg 663 285 0.001;
#X msg 660 256 0.01;
#X obj 741 238 * 0.01;
#X connect 0 0 18 0;
#X connect 0 0 20 0;
#X connect 3 0 18 1;
#X connect 3 0 20 1;
#X connect 4 0 1 0;
#X connect 5 0 6 0;
#X connect 6 0 12 0;
#X connect 7 0 8 0;
#X connect 8 0 11 0;
#X connect 9 0 7 0;
#X connect 10 0 2 0;
#X connect 11 0 3 0;
#X connect 12 0 0 0;
#X connect 13 0 5 0;
#X connect 14 0 47 0;
#X connect 14 0 45 0;
#X connect 15 0 44 0;
#X connect 16 0 42 0;
#X connect 17 0 14 0;
#X connect 17 0 15 0;
#X connect 17 0 16 0;
#X connect 18 0 33 0;
#X connect 18 0 51 0;
#X connect 19 0 1 0;
#X connect 19 0 2 0;
#X connect 20 0 22 0;
#X connect 21 0 19 0;
#X connect 22 0 51 0;
#X connect 26 0 19 1;
#X connect 27 0 46 0;
#X connect 27 1 14 0;
#X connect 27 2 15 0;
#X connect 27 3 16 0;
#X connect 28 0 12 1;
#X connect 28 1 11 1;
#X connect 29 0 17 0;
#X connect 29 1 16 1;
#X connect 30 0 17 0;
#X connect 30 1 15 1;
#X connect 31 0 30 0;
#X connect 32 0 28 0;
#X connect 33 0 40 0;
#X connect 34 0 35 0;
#X connect 35 0 26 0;
#X connect 35 1 50 0;
#X connect 35 2 31 0;
#X connect 35 3 29 0;
#X connect 35 4 32 0;
#X connect 35 5 39 0;
#X connect 35 6 36 0;
#X connect 36 0 39 0;
#X connect 36 1 39 1;
#X connect 37 0 33 1;
#X connect 38 0 37 0;
#X connect 39 0 38 0;
#X connect 40 0 23 0;
#X connect 41 0 9 0;
#X connect 42 0 41 0;
#X connect 43 0 13 0;
#X connect 44 0 43 0;
#X connect 45 0 48 0;
#X connect 46 0 49 0;
#X connect 48 0 10 0;
#X connect 49 0 4 0;
#X connect 50 0 27 0;
#X connect 52 0 21 0;
#X connect 54 0 48 1;
#X connect 54 0 49 1;
#X connect 54 0 43 1;
#X connect 54 0 41 1;
#X connect 55 0 54 0;
#X connect 56 0 65 0;
#X connect 57 0 56 1;
#X connect 58 0 56 0;
#X connect 58 0 66 0;
#X connect 59 0 57 0;
#X connect 61 0 60 0;
#X connect 62 0 56 0;
#X connect 63 0 64 0;
#X connect 64 0 62 0;
#X connect 67 0 73 0;
#X connect 68 0 67 0;
#X connect 69 0 71 1;
#X connect 69 0 76 0;
#X connect 69 0 77 0;
#X connect 69 0 80 0;
#X connect 71 0 72 0;
#X connect 72 0 94 0;
#X connect 72 1 87 0;
#X connect 73 0 71 0;
#X connect 75 0 73 1;
#X connect 76 0 69 1;
#X connect 77 0 55 0;
#X connect 78 0 89 0;
#X connect 79 0 76 0;
#X connect 80 0 81 0;
#X connect 81 0 83 0;
#X connect 81 0 82 0;
#X connect 85 0 86 0;
#X connect 86 0 93 0;
#X connect 86 1 88 0;
#X connect 87 0 69 0;
#X connect 88 0 94 1;
#X connect 89 0 73 1;
#X connect 91 0 68 0;
#X connect 93 0 94 1;
#X connect 94 0 69 0;
#X connect 94 0 74 0;
#X restore 123 315 pd gears;
#N canvas 455 82 784 693 fan 0;
#X obj 117 263 noise~;
#X obj 230 567 bp~ 1000 5;
#X obj 241 545 bp~ 4000 5;
#X obj 191 33 inlet;
#X obj 208 709 outlet~;
#X obj 145 127 sig~;
#X obj 223 595 *~ 0.5;
#X obj 289 318 *~;
#X obj 401 331 + 1;
#N canvas 570 351 569 424 mpoint-triangle 0;
#X obj 129 85 phasor~;
#X obj 99 233 *~;
#X obj 129 119 *~ -1;
#X obj 129 167 +~ 1;
#X obj 100 263 min~;
#X obj 187 118 /~;
#X obj 233 147 sig~ 1;
#X obj 234 172 -~;
#X obj 217 196 /~;
#X obj 124 324 outlet~;
#X obj 130 56 inlet~ freq;
#X obj 165 234 *~;
#X obj 194 235 *~;
#X obj 166 264 min~;
#X obj 315 118 /~;
#X obj 316 85 sig~ 0.5;
#X obj 361 147 sig~ 1;
#X obj 362 172 -~;
#X obj 345 196 /~;
#X obj 384 84 *~ 0.5;
#X obj 125 295 min~;
#X obj 1 298 outlet~ phasor;
#X obj 128 234 *~;
#X obj 188 85 sig~ 0.5;
#X obj 256 84 *~ 0.5;
#X obj 256 16 inlet~ p1;
#X obj 384 16 inlet~ p2;
#X connect 0 0 1 0;
#X connect 0 0 2 0;
#X connect 0 0 11 1;
#X connect 0 0 21 0;
#X connect 1 0 4 0;
#X connect 2 0 3 0;
#X connect 3 0 12 1;
#X connect 3 0 22 0;
#X connect 4 0 20 0;
#X connect 5 0 1 1;
#X connect 6 0 7 0;
#X connect 7 0 8 1;
#X connect 8 0 22 1;
#X connect 10 0 0 0;
#X connect 11 0 13 0;
#X connect 12 0 13 1;
#X connect 13 0 20 1;
#X connect 14 0 11 0;
#X connect 15 0 14 0;
#X connect 15 0 18 0;
#X connect 16 0 17 0;
#X connect 17 0 18 1;
#X connect 18 0 12 0;
#X connect 19 0 17 1;
#X connect 19 0 14 1;
#X connect 20 0 9 0;
#X connect 22 0 4 1;
#X connect 23 0 5 0;
#X connect 23 0 8 0;
#X connect 24 0 7 1;
#X connect 24 0 5 1;
#X connect 25 0 24 0;
#X connect 26 0 19 0;
#X restore 101 203 pd mpoint-triangle;
#X obj 225 378 vcf~ 3 3;
#X obj 216 278 wrap~;
#X obj 212 305 cos~;
#X obj 189 497 *~;
#X obj 117 286 hip~ 100;
#X obj 117 307 hip~ 100;
#X obj 216 256 *~ 2;
#X obj 222 228 hip~ 0;
#X obj 271 499 * 10000;
#X obj 271 521 * 2;
#X obj 225 408 hip~ 200;
#X obj 162 548 *~ 0.6;
#X obj 225 651 hip~;
#X obj 359 568 * 500;
#X obj 305 294 * 400;
#X obj 341 589 +;
#X obj 384 256 swap 1;
#X obj 401 285 -;
#X obj 401 308 * 5;
#X obj 191 56 unpack f f f f f;
#X obj 224 625 *~;
#X obj 427 211 swap 1;
#X obj 444 240 -;
#X obj 307 581 *;
#X obj 316 556 t b f;
#X obj 444 342 cos;
#X obj 289 341 +~ 50;
#X obj 305 266 + 0.1;
#X obj 444 264 - 1;
#X obj 445 295 * 3.14159;
#X obj 445 320 / 2;
#X obj 164 150 clip 0.001 0.9999;
#X obj 215 169 clip 0.001 0.9999;
#X obj 295 108 t f f f f f;
#X text 262 649 ajf;
#X text 246 24 2 blade fan;
#X obj 100 162 *~;
#X obj 56 131 r~ \$0-fanms;
#X obj 50 205 env~;
#X obj 209 681 *~;
#X floatatom 6 233 5 0 0 0 - - - 0;
#X obj 50 324 *~;
#X obj 50 279 /~ 30;
#X obj 48 353 *~ 1;
#X obj 50 234 - 90;
#X obj 50 298 +~ 0.05;
#X obj 50 257 max 0.05;
#X obj 144 105 * 100;
#X obj 56 98 line~;
#X obj 57 75 pack f f;
#X obj 57 12 r \$0-dmom-speed;
#X obj 109 31 r \$0-dmom-inertia;
#X obj 108 53 * 8000;
#X obj 440 160 switch~;
#X obj 431 100 r \$0-fan-mute;
#X connect 0 0 14 0;
#X connect 1 0 6 0;
#X connect 2 0 6 0;
#X connect 3 0 29 0;
#X connect 5 0 46 1;
#X connect 6 0 30 0;
#X connect 7 0 36 0;
#X connect 8 0 10 2;
#X connect 9 1 17 0;
#X connect 10 0 20 0;
#X connect 11 0 12 0;
#X connect 12 0 7 0;
#X connect 12 0 13 1;
#X connect 13 0 1 0;
#X connect 13 0 2 0;
#X connect 13 0 21 0;
#X connect 14 0 15 0;
#X connect 15 0 10 0;
#X connect 16 0 11 0;
#X connect 17 0 16 0;
#X connect 18 0 1 1;
#X connect 18 0 19 0;
#X connect 19 0 2 1;
#X connect 20 0 13 0;
#X connect 21 0 6 0;
#X connect 22 0 49 0;
#X connect 23 0 25 1;
#X connect 24 0 7 1;
#X connect 25 0 22 1;
#X connect 26 0 27 0;
#X connect 26 1 27 1;
#X connect 27 0 28 0;
#X connect 28 0 8 0;
#X connect 29 0 57 0;
#X connect 29 1 43 0;
#X connect 29 2 41 0;
#X connect 29 3 42 0;
#X connect 29 4 33 0;
#X connect 30 0 22 0;
#X connect 31 0 32 0;
#X connect 31 1 32 1;
#X connect 32 0 38 0;
#X connect 33 0 30 1;
#X connect 34 0 33 0;
#X connect 34 1 33 1;
#X connect 35 0 34 0;
#X connect 36 0 10 1;
#X connect 37 0 24 0;
#X connect 38 0 39 0;
#X connect 39 0 40 0;
#X connect 40 0 35 0;
#X connect 41 0 9 1;
#X connect 42 0 9 2;
#X connect 43 0 37 0;
#X connect 43 1 26 0;
#X connect 43 2 18 0;
#X connect 43 3 23 0;
#X connect 43 4 31 0;
#X connect 46 0 9 0;
#X connect 46 0 48 0;
#X connect 48 0 50 0;
#X connect 48 0 54 0;
#X connect 49 0 4 0;
#X connect 51 0 53 0;
#X connect 52 0 55 0;
#X connect 53 0 49 1;
#X connect 54 0 56 0;
#X connect 55 0 51 1;
#X connect 55 0 51 0;
#X connect 56 0 52 0;
#X connect 57 0 5 0;
#X connect 57 0 25 0;
#X connect 58 0 46 0;
#X connect 59 0 58 0;
#X connect 60 0 59 0;
#X connect 61 0 62 0;
#X connect 62 0 59 1;
#X connect 64 0 63 0;
#X restore 306 312 pd fan;
#N canvas 1 92 698 523 motor 0;
#X obj 42 22 r \$0-motor-brush;
#X obj 162 22 r \$0-motor-speed;
#X obj 42 82 r \$0-motor-hard;
#X obj 163 82 r \$0-motor-res;
#X obj 42 142 r \$0-motor-harmonic;
#X obj 185 142 r \$0-motor-volume;
#X obj 42 42 t b f;
#X obj 162 42 t b f;
#X obj 162 102 t b f;
#X obj 42 102 t b f;
#X obj 42 162 t b f;
#X obj 186 162 t b f;
#X obj 116 262 pack f f f f f f;
#X obj 113 294 outlet;
#X obj 301 20 r \$0-motor-mute;
#X obj 284 238 *;
#X obj 269 187 t b b f;
#X connect 0 0 6 0;
#X connect 1 0 7 0;
#X connect 2 0 9 0;
#X connect 3 0 8 0;
#X connect 4 0 10 0;
#X connect 5 0 11 0;
#X connect 6 1 12 0;
#X connect 7 0 12 0;
#X connect 7 1 12 1;
#X connect 8 0 12 0;
#X connect 8 1 12 3;
#X connect 9 0 12 0;
#X connect 9 1 12 2;
#X connect 10 0 12 0;
#X connect 10 1 12 4;
#X connect 11 0 12 0;
#X connect 11 1 15 0;
#X connect 12 0 13 0;
#X connect 14 0 16 0;
#X connect 15 0 12 5;
#X connect 16 0 12 0;
#X connect 16 1 15 0;
#X connect 16 2 15 1;
#X restore 39 294 pd motor if;
#N canvas 1 96 683 483 gears 0;
#X obj 66 43 r \$0-throb-rattle;
#X obj 80 65 r \$0-throb-freq;
#X obj 92 87 r \$0-throb-harm1;
#X obj 108 110 r \$0-throb-harm2;
#X obj 142 130 r \$0-throb-body;
#X obj 157 157 r \$0-throb-vol;
#X obj 85 183 t b;
#X obj 76 270 outlet;
#X obj 189 180 r \$0-throb-mute;
#X obj 73 237 pack f f f f f f f;
#X connect 0 0 9 0;
#X connect 1 0 6 0;
#X connect 1 0 9 1;
#X connect 2 0 6 0;
#X connect 2 0 9 2;
#X connect 3 0 6 0;
#X connect 3 0 9 3;
#X connect 4 0 6 0;
#X connect 4 0 9 4;
#X connect 5 0 6 0;
#X connect 5 0 9 5;
#X connect 6 0 9 0;
#X connect 8 0 9 6;
#X connect 8 0 6 0;
#X connect 9 0 7 0;
#X restore 123 293 pd gears if;
#N canvas 0 0 783 549 engine 0;
#X obj 32 62 r \$0-engine-speed;
#X obj 161 62 r \$0-engine-capacity;
#X obj 33 88 t b f;
#X obj 162 86 t b f;
#X obj 458 84 t b f;
#X obj 458 60 r \$0-engine-volume;
#X obj 133 296 outlet;
#X obj 592 61 r \$0-engine-mute;
#X obj 507 125 *;
#X obj 592 85 t b b f;
#X obj 132 267 pack f f f f;
#X obj 313 91 t b f;
#X obj 310 62 r \$0-engine-jitter;
#X connect 0 0 2 0;
#X connect 1 0 3 0;
#X connect 2 1 10 0;
#X connect 3 0 10 0;
#X connect 3 1 10 1;
#X connect 4 0 10 0;
#X connect 4 1 8 0;
#X connect 5 0 4 0;
#X connect 7 0 9 0;
#X connect 8 0 10 3;
#X connect 9 0 10 0;
#X connect 9 1 8 0;
#X connect 9 2 8 1;
#X connect 10 0 6 0;
#X connect 11 0 10 0;
#X connect 11 1 10 2;
#X connect 12 0 11 0;
#X restore 211 292 pd engine if;
#N canvas 329 340 848 307 fan 0;
#X obj 33 88 t b f;
#X obj 162 86 t b f;
#X obj 559 85 t b f;
#X obj 133 296 outlet;
#X obj 608 126 *;
#X obj 693 86 t b b f;
#X obj 265 92 t b f;
#X obj 32 62 r \$0-fan-speed;
#X obj 161 62 r \$0-fan-size;
#X obj 559 61 r \$0-fan-volume;
#X obj 693 62 r \$0-fan-mute;
#X obj 262 63 r \$0-fan-blade1;
#X obj 385 93 t b f;
#X obj 382 64 r \$0-fan-blade2;
#X obj 132 267 pack f f f f f;
#X connect 0 1 14 0;
#X connect 1 0 14 0;
#X connect 1 1 14 1;
#X connect 2 0 14 0;
#X connect 2 1 4 0;
#X connect 4 0 14 4;
#X connect 5 0 14 0;
#X connect 5 1 4 0;
#X connect 5 2 4 1;
#X connect 6 0 14 0;
#X connect 6 1 14 2;
#X connect 7 0 0 0;
#X connect 8 0 1 0;
#X connect 9 0 2 0;
#X connect 10 0 5 0;
#X connect 11 0 6 0;
#X connect 12 0 14 0;
#X connect 12 1 14 3;
#X connect 13 0 12 0;
#X connect 14 0 3 0;
#X restore 306 291 pd fan if;
#N canvas 473 140 450 300 mainif 0;
#X obj 163 135 line~;
#X obj 13 172 throw~ \$0-ms;
#X obj 113 171 s~ \$0-gearsms;
#X obj 211 170 s~ \$0-enginems;
#X obj 315 170 s~ \$0-fanms;
#X obj 164 112 pack f f;
#X obj 215 90 * 5000;
#X obj 164 49 r \$0-dmom-speed;
#X obj 216 68 r \$0-dmom-inertia;
#X connect 0 0 1 0;
#X connect 0 0 2 0;
#X connect 0 0 3 0;
#X connect 0 0 4 0;
#X connect 5 0 0 0;
#X connect 6 0 5 1;
#X connect 7 0 5 0;
#X connect 8 0 6 0;
#X restore 378 290 pd mainif;
#X obj 257 24 inlet;
#N canvas 323 196 944 584 explomotor 0;
#X obj 95 65 pack f f;
#X obj 95 2 r \$0-dmom-speed;
#X obj 147 21 r \$0-dmom-inertia;
#X obj 146 43 * 3000;
#X obj 95 172 phasor~;
#X obj 399 45 switch~;
#X obj 399 10 tgl 15 1 empty empty empty 17 7 0 10 #fcfcfc #000000 #000000 1 1;
#X obj 179 546 outlet~;
#X obj 178 461 *~;
#X obj 213 438 hsl 128 15 0 1 0 1 empty empty empty -2 -8 0 10 #fcfcfc #000000 #000000 7200 1;
#X obj 206 459 pow 3;
#N canvas 656 102 450 300 rev 0;
#X obj 153 217 fdn~ 8 5000;
#X msg 180 132 lines 3.321 5.237 7.71 4.62147;
#X obj 177 68 loadbang;
#X obj 190 200 nbx 5 14 -1e+37 1e+37 0 1 empty empty lf_time 0 -8 1 10 #fcfcfc #000000 #000000 0.61 256;
#X obj 242 200 nbx 5 14 -1e+37 1e+37 0 1 empty empty hf_time 0 -8 1 10 #fcfcfc #000000 #000000 0.3 256;
#X msg 210 161 lines 12.321 15.237 23.71 4.1235;
#X msg 158 107 lines 9.321 11.237 7.71 8.2541;
#X obj 91 90 inlet~;
#X obj 149 283 outlet~;
#X obj 163 249 *~;
#X obj 226 247 hsl 128 15 0 1 0 1 empty empty empty -2 -8 0 10 #fcfcfc #000000 #000000 5400 1;
#X obj 221 268 pow 3;
#X connect 0 0 9 0;
#X connect 1 0 0 0;
#X connect 2 0 5 0;
#X connect 3 0 0 1;
#X connect 4 0 0 2;
#X connect 5 0 0 0;
#X connect 6 0 0 0;
#X connect 7 0 0 0;
#X connect 9 0 8 0;
#X connect 10 0 11 0;
#X connect 11 0 9 1;
#X restore 501 286 pd rev;
#N canvas 788 145 450 419 palin_pet 0;
#X obj 130 94 table \$0-palinpet 48000;
#X obj 264 256 tabwrite~ \$0-palinpet;
#X obj 328 30 noise~;
#X obj 333 126 *~ 100;
#X obj 332 194 clip~ 0 1;
#X obj 281 193 bng 15 250 50 0 empty empty empty 17 7 0 10 #fcfcfc #000000 #000000;
#X floatatom 400 66 5 0 0 0 - - - 0;
#X obj 334 90 -~ 0.005;
#X obj 51 270 outlet~;
#X obj 227 174 * 1000;
#X text 45 2 freq;
#X obj 49 109 phasor~;
#X obj 65 139 *~ 2;
#X obj 65 164 -~ 1;
#X obj 66 187 abs~;
#X obj 50 214 *~;
#X obj 121 165 /~;
#X obj 50 243 tabread~ \$0-palinpet;
#X obj 397 92 / 1000;
#X floatatom 388 20 5 0 0 0 - - - 0;
#X msg 145 11 6;
#X msg 173 13 12;
#X msg 199 29 3;
#X obj 144 133 sig~ 44100;
#X msg 187 56 5;
#X obj 334 156 pow~ 2;
#X obj 46 21 inlet;
#X obj 47 81 sig~;
#X obj 192 261 /;
#X obj 46 50 / 8;
#X obj 82 49 t b f;
#X obj 158 289 tgl 15 0 empty empty empty 17 7 0 10 #fcfcfc #000000 #000000 0 1;
#X obj 140 372 bng 15 250 50 0 empty empty empty 17 7 0 10 #fcfcfc #000000 #000000;
#X floatatom 269 300 5 0 0 0 - - - 0;
#X floatatom 229 136 5 0 0 0 - - - 0;
#X msg 193 237 1000 \$1;
#X obj 105 303 init 1;
#X obj 168 354 metro 4000;
#X obj 192 284 * 8;
#X msg 104 10 8;
#X obj 210 323 min 30000;
#X obj 280 118 *~ 20;
#X obj 327 54 lop~ 40;
#X msg 131 65 2;
#X obj 234 46 r \$0-sign;
#X obj 235 72 * 2;
#X connect 2 0 42 0;
#X connect 3 0 25 0;
#X connect 4 0 1 0;
#X connect 5 0 1 0;
#X connect 6 0 18 0;
#X connect 7 0 3 0;
#X connect 11 0 15 0;
#X connect 12 0 13 0;
#X connect 13 0 14 0;
#X connect 15 0 17 0;
#X connect 16 0 15 1;
#X connect 17 0 8 0;
#X connect 18 0 7 1;
#X connect 19 0 42 1;
#X connect 20 0 30 0;
#X connect 21 0 30 0;
#X connect 22 0 30 0;
#X connect 23 0 16 0;
#X connect 24 0 30 0;
#X connect 25 0 4 0;
#X connect 26 0 29 0;
#X connect 27 0 11 0;
#X connect 27 0 16 1;
#X connect 28 0 38 0;
#X connect 29 0 27 0;
#X connect 29 0 35 0;
#X connect 29 0 34 0;
#X connect 30 0 29 0;
#X connect 30 1 29 1;
#X connect 31 0 37 0;
#X connect 35 0 28 0;
#X connect 36 0 31 0;
#X connect 37 0 32 0;
#X connect 37 0 5 0;
#X connect 38 0 33 0;
#X connect 38 0 40 0;
#X connect 39 0 30 0;
#X connect 40 0 37 1;
#X connect 41 0 1 0;
#X connect 42 0 41 0;
#X connect 43 0 30 0;
#X connect 44 0 45 0;
#X connect 45 0 30 0;
#X restore 227 171 pd palin_pet;
#X obj 95 90 line;
#X obj 9 281 *~ -1;
#X obj 9 307 +~ 1;
#X obj 9 336 Gunsulike2 \$0;
#N canvas 1 146 666 374 metal 0;
#N canvas 1 143 354 265 band2 0;
#X obj 88 189 para_bp2~ 450 10 5 50;
#X obj 114 117 nbx 5 14 -1e+37 1e+37 0 1 empty empty empty 0 -8 0 10 #fcfcc4 #000000 #000000 115.112 256;
#X obj 40 114 mtof;
#X obj 192 118 nbx 4 14 -1e+37 1e+37 0 1 empty empty Q -8 7 0 10 #c4fcc4 #000000 #000000 42.2 256;
#X obj 192 135 nbx 4 14 0 200 0 1 empty empty dB -12 7 0 10 #fcc4c4 #000000 #000000 12 256;
#X obj 114 134 nbx 5 14 -1e+37 1e+37 0 0 empty empty Hz -12 7 0 10 #fcfcc4 #000000 #000000 0 256;
#X obj 36 52 ftom;
#X msg 40 135 set \$1;
#X msg 36 71 set \$1;
#X obj 281 167 switch~;
#X obj 281 128 > 0;
#X obj 281 147 change;
#X obj 89 43 inlet~;
#X obj 181 47 inlet;
#X obj 225 47 inlet;
#X obj 270 47 inlet;
#X obj 88 227 outlet~;
#X connect 0 0 16 0;
#X connect 1 0 2 0;
#X connect 2 0 7 0;
#X connect 2 0 0 1;
#X connect 3 0 0 2;
#X connect 4 0 0 3;
#X connect 4 0 10 0;
#X connect 5 0 6 0;
#X connect 6 0 8 0;
#X connect 7 0 5 0;
#X connect 8 0 1 0;
#X connect 10 0 11 0;
#X connect 11 0 9 0;
#X connect 12 0 0 0;
#X connect 13 0 1 0;
#X connect 14 0 3 0;
#X connect 15 0 4 0;
#X coords 0 -1 1 1 140 50 1 100 100;
#X restore 173 112 pd band2;
#X obj 140 37 inlet~;
#X obj 121 202 outlet~;
#N canvas 1 143 354 265 band2 0;
#X obj 88 189 para_bp2~ 450 10 5 50;
#X obj 114 117 nbx 5 14 -1e+37 1e+37 0 1 empty empty empty 0 -8 0 10 #fcfcc4 #000000 #000000 31.7216 256;
#X obj 40 114 mtof;
#X obj 192 118 nbx 4 14 -1e+37 1e+37 0 1 empty empty Q -8 7 0 10 #c4fcc4 #000000 #000000 12.2 256;
#X obj 192 135 nbx 4 14 0 200 0 1 empty empty dB -12 7 0 10 #fcc4c4 #000000 #000000 1 256;
#X obj 114 134 nbx 5 14 -1e+37 1e+37 0 0 empty empty Hz -12 7 0 10 #fcfcc4 #000000 #000000 0 256;
#X obj 36 52 ftom;
#X msg 40 135 set \$1;
#X msg 36 71 set \$1;
#X obj 281 167 switch~;
#X obj 281 128 > 0;
#X obj 281 147 change;
#X obj 89 43 inlet~;
#X obj 181 47 inlet;
#X obj 225 47 inlet;
#X obj 270 47 inlet;
#X obj 88 227 outlet~;
#X connect 0 0 16 0;
#X connect 1 0 2 0;
#X connect 2 0 7 0;
#X connect 2 0 0 1;
#X connect 3 0 0 2;
#X connect 4 0 0 3;
#X connect 4 0 10 0;
#X connect 5 0 6 0;
#X connect 6 0 8 0;
#X connect 7 0 5 0;
#X connect 8 0 1 0;
#X connect 10 0 11 0;
#X connect 11 0 9 0;
#X connect 12 0 0 0;
#X connect 13 0 1 0;
#X connect 14 0 3 0;
#X connect 15 0 4 0;
#X coords 0 -1 1 1 140 50 1 100 100;
#X restore 14 107 pd band2;
#N canvas 1 143 354 265 band2 0;
#X obj 88 189 para_bp2~ 450 10 5 50;
#X obj 114 117 nbx 5 14 -1e+37 1e+37 0 1 empty empty empty 0 -8 0 10 #fcfcc4 #000000 #000000 90.112 256;
#X obj 40 114 mtof;
#X obj 192 118 nbx 4 14 -1e+37 1e+37 0 1 empty empty Q -8 7 0 10 #c4fcc4 #000000 #000000 12.2 256;
#X obj 192 135 nbx 4 14 0 200 0 1 empty empty dB -12 7 0 10 #fcc4c4 #000000 #000000 19 256;
#X obj 114 134 nbx 5 14 -1e+37 1e+37 0 0 empty empty Hz -12 7 0 10 #fcfcc4 #000000 #000000 0 256;
#X obj 36 52 ftom;
#X msg 40 135 set \$1;
#X msg 36 71 set \$1;
#X obj 281 167 switch~;
#X obj 281 128 > 0;
#X obj 281 147 change;
#X obj 89 43 inlet~;
#X obj 181 47 inlet;
#X obj 225 47 inlet;
#X obj 270 47 inlet;
#X obj 88 227 outlet~;
#X connect 0 0 16 0;
#X connect 1 0 2 0;
#X connect 2 0 7 0;
#X connect 2 0 0 1;
#X connect 3 0 0 2;
#X connect 4 0 0 3;
#X connect 4 0 10 0;
#X connect 5 0 6 0;
#X connect 6 0 8 0;
#X connect 7 0 5 0;
#X connect 8 0 1 0;
#X connect 10 0 11 0;
#X connect 11 0 9 0;
#X connect 12 0 0 0;
#X connect 13 0 1 0;
#X connect 14 0 3 0;
#X connect 15 0 4 0;
#X coords 0 -1 1 1 140 50 1 100 100;
#X restore 327 112 pd band2;
#X connect 0 0 2 0;
#X connect 1 0 0 0;
#X connect 1 0 4 0;
#X connect 1 0 3 0;
#X connect 3 0 2 0;
#X connect 4 0 2 0;
#X restore 98 510 pd metal;
#X obj 10 250 wrap~;
#X obj 95 112 * 10;
#X obj 348 466 pow 0.1;
#X obj 348 486 clip 0 1;
#X obj 178 486 *~;
#X obj 348 507 lop~ 10;
#X obj 349 444 r \$0-freq;
#N canvas 299 299 726 531 boom 0;
#X obj 92 17 inlet~;
#X obj 120 373 outlet~;
#X obj 264 137 osc~ 80;
#X floatatom 232 64 5 0 0 0 - - - 0;
#X obj 232 84 mtof;
#X obj 118 325 *~;
#X obj 356 64 noise~;
#X obj 356 134 +~ 1;
#X obj 264 116 *~;
#X obj 399 115 bp~ 800 2;
#X floatatom 418 42 5 0 0 0 - - - 0;
#X obj 92 112 wrap~;
#X obj 92 62 *~ -1;
#X obj 357 88 lop~ 0.2;
#X obj 45 232 /~;
#X obj 195 -47 + 30;
#X obj 195 -24 i;
#X obj 195 -94 r \$0-dmom-speed;
#X obj 198 41 line3;
#X obj 197 -2 change;
#X obj 678 224 *~ -1;
#X obj 681 251 +~ 1.05;
#X msg 198 20 \$1 3000;
#X obj 139 112 hsl 128 15 0 2 0 0 empty empty empty -2 -8 0 10 #fcfcfc #000000 #000000 0 1;
#X obj 92 159 clip~ 0 0.5;
#X obj 195 -74 * 14;
#X obj 319 -85 r \$0-freq;
#X floatatom 320 -14 5 0 0 0 - - - 0;
#X obj 628 253 cos~;
#X obj 356 110 *~ 0.2;
#X obj 398 137 *~ 0.2;
#X obj 393 -36 ftom;
#X floatatom 389 -7 5 0 0 0 - - - 0;
#X obj 62 292 lop~ 100;
#X obj 16 276 *~ 3;
#X floatatom 54 338 5 0 0 0 - - - 0;
#X obj 301 261 *~ 10;
#X obj 301 304 sin~;
#X obj 300 283 clip~ 0 0.5;
#X floatatom 337 231 5 0 0 0 - - - 0;
#X obj 399 197 r \$0-freq;
#X msg 399 218 1 \$1;
#X obj 398 238 /;
#X floatatom 469 231 5 0 0 0 - - - 0;
#X obj 263 163 *~ 1;
#X msg 142 50 0.5;
#X obj 91 204 +~ 0.01;
#X obj 91 133 *~ 0.5;
#X obj 92 184 sin~;
#X obj 174 196 mtof;
#X floatatom 212 196 5 0 0 0 - - - 0;
#X floatatom 176 167 5 0 0 0 - - - 0;
#X obj 193 263 hp2_butt~ 100;
#X obj 193 285 clip~ -3 3;
#X obj 488 145 r \$1-beat;
#X obj 489 169 sel 1;
#X msg 490 189 0.15;
#X obj 535 164 hsl 128 15 0 1 0 0 empty empty empty -2 -8 0 10 #fcfcfc #000000 #000000 0 1;
#X floatatom 550 197 5 0 0 0 - - - 0;
#X obj 519 210 0.66;
#X obj 63 266 clip~ -5 5;
#X obj 25 189 sig~ 0.4;
#X obj 192 219 bp~ 6000 50;
#X obj 192 243 *~ 3;
#X obj 92 84 +~ 0.25;
#X floatatom 412 297 5 0 0 0 - - - 0;
#X obj 386 -57 * 20;
#X obj 321 -57 * 20;
#X floatatom 350 318 5 0 0 0 - - - 0;
#X obj 119 345 hip~ 50;
#X obj 298 230 wrap~;
#X obj 298 206 *~ 2;
#X obj 397 260 * 20;
#X floatatom 386 339 5 0 0 0 - - - 0;
#X obj 300 350 hp8_butt~ 40;
#X obj 299 325 *~ 5;
#X connect 0 0 12 0;
#X connect 0 0 71 0;
#X connect 2 0 44 0;
#X connect 3 0 4 0;
#X connect 5 0 69 0;
#X connect 6 0 9 0;
#X connect 6 0 13 0;
#X connect 7 0 8 1;
#X connect 8 0 2 0;
#X connect 9 0 30 0;
#X connect 10 0 9 1;
#X connect 11 0 47 0;
#X connect 12 0 64 0;
#X connect 13 0 29 0;
#X connect 14 0 34 0;
#X connect 14 0 60 0;
#X connect 14 0 62 0;
#X connect 15 0 16 0;
#X connect 16 0 19 0;
#X connect 17 0 25 0;
#X connect 18 0 3 0;
#X connect 19 0 22 0;
#X connect 20 0 21 0;
#X connect 22 0 18 0;
#X connect 23 0 47 1;
#X connect 24 0 48 0;
#X connect 25 0 15 0;
#X connect 26 0 67 0;
#X connect 29 0 7 0;
#X connect 30 0 7 0;
#X connect 31 0 32 0;
#X connect 33 0 5 0;
#X connect 35 0 34 1;
#X connect 36 0 38 0;
#X connect 37 0 75 0;
#X connect 38 0 37 0;
#X connect 39 0 36 1;
#X connect 40 0 41 0;
#X connect 41 0 42 0;
#X connect 42 0 72 0;
#X connect 45 0 64 1;
#X connect 46 0 14 1;
#X connect 47 0 24 0;
#X connect 48 0 46 0;
#X connect 49 0 50 0;
#X connect 49 0 62 1;
#X connect 51 0 49 0;
#X connect 52 0 53 0;
#X connect 53 0 5 0;
#X connect 54 0 55 0;
#X connect 55 0 56 0;
#X connect 55 0 59 0;
#X connect 58 0 59 1;
#X connect 59 0 2 1;
#X connect 60 0 33 0;
#X connect 61 0 14 0;
#X connect 62 0 63 0;
#X connect 63 0 52 0;
#X connect 64 0 11 0;
#X connect 67 0 8 0;
#X connect 67 0 27 0;
#X connect 67 0 31 0;
#X connect 68 0 75 1;
#X connect 69 0 1 0;
#X connect 70 0 36 0;
#X connect 71 0 70 0;
#X connect 72 0 65 0;
#X connect 72 0 36 1;
#X connect 73 0 74 1;
#X connect 74 0 1 0;
#X connect 75 0 74 0;
#X restore 100 275 pd boom;
#N canvas 338 121 659 434 paf 0;
#X obj 175 222 *~;
#X obj 175 247 *~;
#X obj 217 248 *~;
#X obj 176 361 *~;
#X obj 349 228 noise~;
#X obj 348 253 *~;
#X obj 175 100 wrap~;
#X obj 174 199 *~;
#X obj 339 324 +~ 1;
#X obj 396 296 *~ 10;
#X floatatom 467 245 5 0 0 0 - - - 0;
#X obj 383 180 hsl 128 15 0 1 0 0 empty empty empty -2 -8 0 10 #fcfcfc #000000 #000000 0 1;
#X obj 159 299 lop~ 1000;
#X obj 174 74 +~ 0.5;
#X obj 174 122 *~ -1;
#X obj 174 148 +~ 1;
#X obj 177 173 +~;
#X floatatom 405 227 5 0 0 0 - - - 0;
#X obj 405 247 mtof;
#X obj 341 293 lop~ 500;
#X obj 406 203 init 87;
#X obj 233 197 noise~;
#X obj 255 265 *~;
#X obj 229 297 *~;
#X obj 219 272 *~;
#X obj 173 32 *~ 2;
#X obj 174 52 wrap~;
#X obj 396 272 bp~ 800 5;
#X obj 467 223 init 3;
#X obj 280 216 pow~;
#X obj 302 191 sig~ 5;
#X obj 280 239 clip~ 0 2;
#X obj 281 150 r~ \$0-palinpet;
#X obj 172 6 inlet~;
#X obj 176 409 outlet~;
#X obj 280 172 *~ 1;
#X obj 175 386 *~ 2;
#X connect 0 0 1 0;
#X connect 0 0 1 1;
#X connect 1 0 2 0;
#X connect 1 0 2 1;
#X connect 1 0 12 0;
#X connect 2 0 24 0;
#X connect 2 0 24 1;
#X connect 3 0 36 0;
#X connect 4 0 5 0;
#X connect 4 0 5 1;
#X connect 5 0 19 0;
#X connect 5 0 27 0;
#X connect 6 0 14 0;
#X connect 7 0 0 0;
#X connect 7 0 0 1;
#X connect 8 0 3 1;
#X connect 9 0 8 0;
#X connect 10 0 9 1;
#X connect 10 0 27 2;
#X connect 11 0 8 1;
#X connect 12 0 3 0;
#X connect 13 0 6 0;
#X connect 14 0 15 0;
#X connect 15 0 16 0;
#X connect 16 0 7 1;
#X connect 16 0 7 0;
#X connect 17 0 18 0;
#X connect 18 0 27 1;
#X connect 19 0 8 0;
#X connect 20 0 17 0;
#X connect 21 0 22 0;
#X connect 22 0 23 1;
#X connect 23 0 3 0;
#X connect 24 0 23 0;
#X connect 25 0 26 0;
#X connect 26 0 13 0;
#X connect 27 0 9 0;
#X connect 28 0 10 0;
#X connect 29 0 31 0;
#X connect 30 0 29 1;
#X connect 31 0 22 1;
#X connect 32 0 35 0;
#X connect 33 0 25 0;
#X connect 35 0 29 0;
#X connect 36 0 34 0;
#X restore 269 228 pd paf;
#X obj 227 193 s~ \$0-palinpet;
#N canvas 1 91 450 300 pshiit 0;
#X obj 224 40 inlet~;
#X obj 257 276 outlet~;
#X obj 224 109 *~;
#X obj 223 133 *~;
#X obj 223 153 *~;
#X obj 222 177 *~;
#X obj 260 227 *~;
#X obj 290 138 noise~;
#X obj 291 164 *~;
#X obj 292 186 lop~ 5000;
#X obj 291 207 hip~ 50;
#X obj 225 202 lop~ 1000;
#X obj 260 252 *~ 1;
#X obj 225 65 *~ 2;
#X obj 226 85 wrap~;
#X connect 0 0 13 0;
#X connect 2 0 3 0;
#X connect 2 0 3 1;
#X connect 3 0 4 0;
#X connect 3 0 4 1;
#X connect 4 0 5 0;
#X connect 4 0 5 1;
#X connect 5 0 11 0;
#X connect 6 0 12 0;
#X connect 7 0 8 0;
#X connect 7 0 8 1;
#X connect 8 0 9 0;
#X connect 9 0 10 0;
#X connect 10 0 6 1;
#X connect 11 0 6 0;
#X connect 12 0 1 0;
#X connect 13 0 14 0;
#X connect 14 0 2 1;
#X connect 14 0 2 0;
#X restore 174 245 pd pshiit;
#X obj 12 219 *~ 4;
#X msg 64 214 1;
#X msg 57 257 4;
#X msg 61 235 2;
#X obj 358 127 r \$0-freq;
#X floatatom 343 162 5 0 0 0 - - - 0;
#X floatatom 402 361 5 0 0 0 - - - 0;
#X obj 392 183 log;
#X obj 400 332 pow;
#X msg 396 303 2 \$1;
#X obj 392 282 i;
#X obj 390 261 clip 0 2;
#X floatatom 458 236 5 0 0 0 - - - 0;
#X obj 393 232 + 4;
#X obj 392 207 * -1.5;
#X obj 313 27 r \$0-freq;
#X obj 243 66 * 200;
#X obj 243 87 ftom;
#X obj 243 107 i;
#X obj 243 128 mtof;
#X obj 159 122 r \$0-freq;
#X obj 14 359 lop~ 2000;
#X msg 97 377 10000;
#X floatatom 230 378 5 0 0 0 - - - 0;
#X obj 230 407 hsl 128 15 0 1 0 0 empty empty empty -2 -8 0 10 #fcfcfc #000000 #000000 0 1;
#X obj 285 257 envrms~ 32 32;
#X obj 288 345 change;
#X obj 293 374 tgl 15 0 empty empty empty 17 7 0 10 #fcfcfc #000000 #000000 0 1;
#X obj 288 320 < 0.5;
#X obj 310 373 s \$1-beat;
#X obj 315 277 r \$0-freq;
#X obj 284 285 +;
#X obj 314 297 == 0;
#X obj 204 358 hp2_butt~ 130;
#X obj 537 391 r \$0-freq;
#X obj 466 387 r \$1-beat;
#X obj 467 413 sel 1;
#X obj 467 465 pack f f;
#X obj 537 413 swap 1000;
#X obj 537 437 /;
#X obj 467 499 s \$1-clock;
#X obj 480 438 counter 65536;
#X obj 54 416 *~ 6;
#X obj 127 323 hip~ 15;
#X obj 97 484 hip~ 100;
#X connect 0 0 13 0;
#X connect 1 0 0 0;
#X connect 2 0 3 0;
#X connect 3 0 0 1;
#X connect 4 0 25 0;
#X connect 4 0 26 0;
#X connect 4 0 28 0;
#X connect 4 0 29 0;
#X connect 4 0 54 0;
#X connect 6 0 5 0;
#X connect 8 0 22 0;
#X connect 9 0 10 0;
#X connect 10 0 8 1;
#X connect 12 0 27 0;
#X connect 13 0 19 0;
#X connect 14 0 15 0;
#X connect 15 0 16 0;
#X connect 16 0 50 0;
#X connect 17 0 7 0;
#X connect 18 0 14 0;
#X connect 20 0 21 0;
#X connect 21 0 23 0;
#X connect 22 0 7 0;
#X connect 22 0 73 0;
#X connect 23 0 22 1;
#X connect 24 0 20 0;
#X connect 25 0 72 0;
#X connect 26 0 62 0;
#X connect 28 0 62 0;
#X connect 29 0 18 0;
#X connect 30 0 29 1;
#X connect 31 0 29 1;
#X connect 32 0 29 1;
#X connect 33 0 34 0;
#X connect 33 0 36 0;
#X connect 36 0 43 0;
#X connect 37 0 35 0;
#X connect 37 0 29 1;
#X connect 38 0 37 0;
#X connect 39 0 38 0;
#X connect 40 0 39 0;
#X connect 42 0 40 0;
#X connect 43 0 41 0;
#X connect 43 0 42 0;
#X connect 45 0 46 0;
#X connect 46 0 47 0;
#X connect 47 0 48 0;
#X connect 49 0 4 0;
#X connect 49 0 12 0;
#X connect 50 0 71 0;
#X connect 51 0 50 1;
#X connect 52 0 53 0;
#X connect 54 0 60 0;
#X connect 55 0 56 0;
#X connect 55 0 58 0;
#X connect 57 0 55 0;
#X connect 59 0 61 0;
#X connect 60 0 57 0;
#X connect 61 0 60 1;
#X connect 62 0 8 0;
#X connect 63 0 67 0;
#X connect 64 0 65 0;
#X connect 65 0 70 0;
#X connect 66 0 69 0;
#X connect 67 0 68 0;
#X connect 67 1 68 1;
#X connect 68 0 66 1;
#X connect 70 0 66 0;
#X connect 71 0 8 0;
#X connect 72 0 8 0;
#X connect 73 0 17 0;
#X restore 18 362 pd explomotor;
#X obj 489 172 pack f f;
#X obj 489 13 r \$0-dmom-speed;
#X obj 534 128 r \$0-dmom-inertia;
#X obj 534 150 * 3000;
#X obj 489 84 * 200;
#X obj 489 105 ftom;
#X obj 489 125 i;
#X obj 489 146 mtof;
#X obj 489 194 line;
#X obj 426 173 s \$1-note;
#X obj 645 9 r \$1-GeneEffort;
#X obj 519 33 t b f;
#X obj 489 60 clip 0 1;
#X obj 644 29 pow 2;
#X obj 644 77 + 1;
#X obj 489 34 * 1;
#X floatatom 706 82 5 0 0 0 - - - 0;
#X obj 644 55 * -0.2;
#X floatatom 418 196 5 0 0 0 - - - 0;
#X obj 489 251 *;
#X obj 528 226 tgl 15 0 empty empty empty 17 7 0 10 #fcfcfc #000000 #000000 0 1;
#X obj 516 251 t b f;
#X obj 162 416 *~;
#X obj 274 361 r \$0-freq;
#X obj 274 385 != 0;
#X msg 272 406 \$1 1;
#X obj 274 429 line~;
#X obj 570 218 == 2;
#X obj 392 80 hradio 15 1 0 3 empty empty empty 0 -8 0 10 #fcfcfc #000000 #000000 0;
#X obj 651 213 == 1;
#X obj 487 275 +;
#X obj 580 195 t f f;
#X obj 705 287 hsl 128 15 0 20 0 1 empty empty empty -2 -8 0 10 #fcfcfc #000000 #000000 2587 1;
#X obj 652 311 *;
#X obj 677 311 t b f;
#X floatatom 728 316 5 0 0 0 - - - 0;
#X obj 391 100 s \$0-demarreur;
#X obj 581 169 r \$0-demarreur;
#X obj 488 319 line;
#X msg 488 298 \$1 500;
#X obj 513 274 t b f;
#X obj 651 279 line;
#X obj 652 235 sel 1 0;
#X msg 650 257 1 2000;
#X msg 702 257 0 400;
#N canvas 614 203 650 570 demarreur 0;
#X obj 124 513 outlet~;
#X obj 122 418 *~;
#X obj 157 396 hsl 128 15 0 1 0 1 empty empty empty -2 -8 0 10 #fcfcfc #000000 #000000 5600 1;
#X obj 153 416 pow 3;
#X obj 122 61 cos~;
#X obj 178 58 *~;
#X obj 122 159 *~;
#X obj 195 93 *~;
#X obj 196 147 +~ 300;
#X obj 120 177 phasor~;
#X obj 197 173 osc~;
#X obj 195 122 *~ 80.3;
#X obj 185 196 sig~ 1;
#X obj 121 86 +~ 1;
#X obj 123 27 phasor~ 4;
#X obj 122 114 *~ 200;
#X obj 101 347 bp~ 2000 5;
#X obj 128 326 mtof;
#X floatatom 160 326 0 0 0 0 - - - 0;
#X obj 134 309 hsl 128 15 0 127 0 1 empty empty empty -2 -8 0 10 #fcfcfc #000000 #000000 9300 1;
#N canvas 1 209 354 265 band2 0;
#X obj 88 189 para_bp2~ 450 10 5 50;
#X obj 114 117 nbx 5 14 -1e+37 1e+37 0 1 empty empty empty 0 -8 0 10 #fcfcc4 #000000 #000000 91.112 256;
#X obj 40 114 mtof;
#X obj 192 118 nbx 4 14 -1e+37 1e+37 0 1 empty empty Q -8 7 0 10 #c4fcc4 #000000 #000000 3.02 256;
#X obj 192 135 nbx 4 14 0 200 0 1 empty empty dB -12 7 0 10 #fcc4c4 #000000 #000000 35 256;
#X obj 114 134 nbx 5 14 -1e+37 1e+37 0 0 empty empty Hz -12 7 0 10 #fcfcc4 #000000 #000000 0 256;
#X obj 36 52 ftom;
#X msg 40 135 set \$1;
#X msg 36 71 set \$1;
#X obj 281 167 switch~;
#X obj 281 128 > 0;
#X obj 281 147 change;
#X obj 89 43 inlet~;
#X obj 181 47 inlet;
#X obj 225 47 inlet;
#X obj 270 47 inlet;
#X obj 88 227 outlet~;
#X connect 0 0 16 0;
#X connect 1 0 2 0;
#X connect 2 0 7 0;
#X connect 2 0 0 1;
#X connect 3 0 0 2;
#X connect 4 0 0 3;
#X connect 4 0 10 0;
#X connect 5 0 6 0;
#X connect 6 0 8 0;
#X connect 7 0 5 0;
#X connect 8 0 1 0;
#X connect 10 0 11 0;
#X connect 11 0 9 0;
#X connect 12 0 0 0;
#X connect 13 0 1 0;
#X connect 14 0 3 0;
#X connect 15 0 4 0;
#X coords 0 -1 1 1 140 50 1 100 100;
#X restore 272 226 pd band2;
#X obj 121 250 lop~ 2000;
#X obj 120 202 *~;
#X obj 120 231 *~;
#N canvas 1 209 354 265 band2 0;
#X obj 88 189 para_bp2~ 450 10 5 50;
#X obj 114 117 nbx 5 14 -1e+37 1e+37 0 1 empty empty empty 0 -8 0 10 #fcfcc4 #000000 #000000 102.502 256;
#X obj 40 114 mtof;
#X obj 192 118 nbx 4 14 -1e+37 1e+37 0 1 empty empty Q -8 7 0 10 #c4fcc4 #000000 #000000 4.02 256;
#X obj 192 135 nbx 4 14 0 200 0 1 empty empty dB -12 7 0 10 #fcc4c4 #000000 #000000 34 256;
#X obj 114 134 nbx 5 14 -1e+37 1e+37 0 0 empty empty Hz -12 7 0 10 #fcfcc4 #000000 #000000 0 256;
#X obj 36 52 ftom;
#X msg 40 135 set \$1;
#X msg 36 71 set \$1;
#X obj 281 167 switch~;
#X obj 281 128 > 0;
#X obj 281 147 change;
#X obj 89 43 inlet~;
#X obj 181 47 inlet;
#X obj 225 47 inlet;
#X obj 270 47 inlet;
#X obj 88 227 outlet~;
#X connect 0 0 16 0;
#X connect 1 0 2 0;
#X connect 2 0 7 0;
#X connect 2 0 0 1;
#X connect 3 0 0 2;
#X connect 4 0 0 3;
#X connect 4 0 10 0;
#X connect 5 0 6 0;
#X connect 6 0 8 0;
#X connect 7 0 5 0;
#X connect 8 0 1 0;
#X connect 10 0 11 0;
#X connect 11 0 9 0;
#X connect 12 0 0 0;
#X connect 13 0 1 0;
#X connect 14 0 3 0;
#X connect 15 0 4 0;
#X coords 0 -1 1 1 140 50 1 100 100;
#X restore 271 285 pd band2;
#N canvas 1 82 1000 693 overtone 0;
#X obj 459 157 max~;
#X obj 459 185 -~;
#X obj 495 215 sig~ 1;
#X obj 500 239 -~;
#X obj 479 253 sig~ 1;
#X obj 485 281 /~;
#X obj 458 323 *~;
#X obj 458 361 *~;
#X obj 452 428 -~ 0.5;
#X obj 451 452 *~;
#X obj 450 475 *~ -4;
#X obj 449 500 +~ 1;
#X obj 452 530 *~ 0.5;
#X obj 457 390 wrap~;
#X obj 450 557 *~;
#X obj 504 391 sig~ 1;
#X obj 509 415 -~;
#X obj 449 580 *~;
#X obj 506 328 *~;
#X obj 581 321 *~ 12;
#X obj 338 29 inlet~ drive;
#X obj 546 79 inlet~ phase;
#X obj 579 294 inlet~ freq;
#X obj 692 384 inlet~ amp;
#X obj 449 609 outlet~;
#X obj 689 431 *~ 20;
#X connect 0 0 1 0;
#X connect 1 0 6 0;
#X connect 2 0 3 0;
#X connect 3 0 5 1;
#X connect 4 0 5 0;
#X connect 5 0 6 1;
#X connect 6 0 7 0;
#X connect 7 0 13 0;
#X connect 8 0 9 0;
#X connect 8 0 9 1;
#X connect 9 0 10 0;
#X connect 10 0 11 0;
#X connect 11 0 12 0;
#X connect 12 0 14 0;
#X connect 13 0 8 0;
#X connect 14 0 17 0;
#X connect 15 0 16 0;
#X connect 16 0 14 1;
#X connect 17 0 24 0;
#X connect 18 0 7 1;
#X connect 19 0 18 1;
#X connect 20 0 0 0;
#X connect 20 0 16 1;
#X connect 21 0 0 1;
#X connect 21 0 1 1;
#X connect 21 0 3 1;
#X connect 21 0 18 0;
#X connect 22 0 19 0;
#X connect 23 0 25 0;
#X connect 25 0 17 1;
#X restore -10 427 pd overtone;
#X obj 0 353 wrap~;
#X obj 0 334 *~ 4;
#X obj 9 379 hsl 50 10 0 1 0 1 empty empty empty -2 -8 0 10 #fcfcfc #000000 #000000 1597 1;
#X obj 23 393 hsl 50 10 0 1 0 1 empty empty empty -2 -8 0 10 #fcfcfc #000000 #000000 3290 1;
#X obj 44 408 hsl 50 10 0 1 0 1 empty empty empty -2 -8 0 10 #fcfcfc #000000 #000000 4400 1;
#X obj 120 273 hip~ 100;
#X obj 444 366 gears-demar;
#X obj 446 323 +~ 1;
#X obj 446 343 *~ 0.5;
#X obj 15 32 tgl 15 0 empty empty empty 17 7 0 10 #fcfcfc #000000 #000000 0 1;
#X obj 21 193 line~;
#X msg 188 27 0.5;
#X obj 429 115 sel 0 1;
#X msg 461 154 1 1;
#X obj 123 446 *~;
#X obj 439 186 line~;
#X obj 188 6 sel 1;
#X msg 418 155 0 50;
#X obj 313 20 noise~;
#X obj 313 108 +~ 1;
#X obj 296 129 *~;
#X obj 311 41 lop~ 6;
#X obj 16 147 * 5;
#X obj 14 -10 r \$0-demarreur;
#X obj 14 12 == 1;
#X obj 513 78 *~;
#X obj 122 136 +~ 0;
#N canvas 385 153 884 622 lanceur 0;
#X obj 177 82 bng 15 250 50 0 empty empty empty 0 -6 0 8 #fcfcfc #000000 #000000;
#X obj 507 244 vline~;
#X obj 508 269 *~;
#X obj 513 99 vline~;
#X obj 514 124 *~;
#X obj 332 196 vline~;
#X obj 333 221 *~;
#X obj 236 198 vline~;
#X obj 237 223 *~;
#X obj 139 198 vline~;
#X obj 140 223 *~;
#X obj 51 200 *~;
#X obj 269 457 *~;
#X obj 307 430 hsl 128 15 0 1 0 1 empty empty empty -2 -8 0 10 #fcfcfc #000000 #000000 8900 1;
#X obj 303 448 pow 3;
#X obj 226 555 outlet~;
#X obj 49 174 vline~;
#X msg 50 152 1 0.1 0 \, 0 20 2;
#N canvas 1 209 354 265 band2 0;
#X obj 88 189 para_bp2~ 450 10 5 50;
#X obj 114 117 nbx 5 14 -1e+37 1e+37 0 1 empty empty empty 0 -8 0 10 #fcfcc4 #000000 #000000 108.112 256;
#X obj 40 114 mtof;
#X obj 192 118 nbx 4 14 -1e+37 1e+37 0 1 empty empty Q -8 7 0 10 #c4fcc4 #000000 #000000 82.02 256;
#X obj 192 135 nbx 4 14 0 200 0 1 empty empty dB -12 7 0 10 #fcc4c4 #000000 #000000 42 256;
#X obj 114 134 nbx 5 14 -1e+37 1e+37 0 0 empty empty Hz -12 7 0 10 #fcfcc4 #000000 #000000 0 256;
#X obj 36 52 ftom;
#X msg 40 135 set \$1;
#X msg 36 71 set \$1;
#X obj 281 167 switch~;
#X obj 281 128 > 0;
#X obj 281 147 change;
#X obj 89 43 inlet~;
#X obj 181 47 inlet;
#X obj 225 47 inlet;
#X obj 270 47 inlet;
#X obj 88 227 outlet~;
#X connect 0 0 16 0;
#X connect 1 0 2 0;
#X connect 2 0 7 0;
#X connect 2 0 0 1;
#X connect 3 0 0 2;
#X connect 4 0 0 3;
#X connect 4 0 10 0;
#X connect 5 0 6 0;
#X connect 6 0 8 0;
#X connect 7 0 5 0;
#X connect 8 0 1 0;
#X connect 10 0 11 0;
#X connect 11 0 9 0;
#X connect 12 0 0 0;
#X connect 13 0 1 0;
#X connect 14 0 3 0;
#X connect 15 0 4 0;
#X coords 0 -1 1 1 140 50 1 100 100;
#X restore 168 350 pd band2;
#X msg 139 175 1 0.1 5 \, 0 20 6;
#N canvas 1 209 354 265 band2 0;
#X obj 88 189 para_bp2~ 450 10 5 50;
#X obj 114 117 nbx 5 14 -1e+37 1e+37 0 1 empty empty empty 0 -8 0 10 #fcfcc4 #000000 #000000 116.112 256;
#X obj 40 114 mtof;
#X obj 192 118 nbx 4 14 -1e+37 1e+37 0 1 empty empty Q -8 7 0 10 #c4fcc4 #000000 #000000 155.02 256;
#X obj 192 135 nbx 4 14 0 200 0 1 empty empty dB -12 7 0 10 #fcc4c4 #000000 #000000 41 256;
#X obj 114 134 nbx 5 14 -1e+37 1e+37 0 0 empty empty Hz -12 7 0 10 #fcfcc4 #000000 #000000 0 256;
#X obj 36 52 ftom;
#X msg 40 135 set \$1;
#X msg 36 71 set \$1;
#X obj 281 167 switch~;
#X obj 281 128 > 0;
#X obj 281 147 change;
#X obj 89 43 inlet~;
#X obj 181 47 inlet;
#X obj 225 47 inlet;
#X obj 270 47 inlet;
#X obj 88 227 outlet~;
#X connect 0 0 16 0;
#X connect 1 0 2 0;
#X connect 2 0 7 0;
#X connect 2 0 0 1;
#X connect 3 0 0 2;
#X connect 4 0 0 3;
#X connect 4 0 10 0;
#X connect 5 0 6 0;
#X connect 6 0 8 0;
#X connect 7 0 5 0;
#X connect 8 0 1 0;
#X connect 10 0 11 0;
#X connect 11 0 9 0;
#X connect 12 0 0 0;
#X connect 13 0 1 0;
#X connect 14 0 3 0;
#X connect 15 0 4 0;
#X coords 0 -1 1 1 140 50 1 100 100;
#X restore 327 347 pd band2;
#X obj 91 235 noise~;
#X obj 67 310 *~;
#X obj 91 256 hip~ 500;
#X obj 186 316 *~;
#N canvas 1 209 354 265 band2 0;
#X obj 88 189 para_bp2~ 450 10 5 50;
#X obj 114 117 nbx 5 14 -1e+37 1e+37 0 1 empty empty empty 0 -8 0 10 #fcfcc4 #000000 #000000 62.312 256;
#X obj 40 114 mtof;
#X obj 192 118 nbx 4 14 -1e+37 1e+37 0 1 empty empty Q -8 7 0 10 #c4fcc4 #000000 #000000 53.02 256;
#X obj 192 135 nbx 4 14 0 200 0 1 empty empty dB -12 7 0 10 #fcc4c4 #000000 #000000 41 256;
#X obj 114 134 nbx 5 14 -1e+37 1e+37 0 0 empty empty Hz -12 7 0 10 #fcfcc4 #000000 #000000 0 256;
#X obj 36 52 ftom;
#X msg 40 135 set \$1;
#X msg 36 71 set \$1;
#X obj 281 167 switch~;
#X obj 281 128 > 0;
#X obj 281 147 change;
#X obj 89 43 inlet~;
#X obj 181 47 inlet;
#X obj 225 47 inlet;
#X obj 270 47 inlet;
#X obj 88 227 outlet~;
#X connect 0 0 16 0;
#X connect 1 0 2 0;
#X connect 2 0 7 0;
#X connect 2 0 0 1;
#X connect 3 0 0 2;
#X connect 4 0 0 3;
#X connect 4 0 10 0;
#X connect 5 0 6 0;
#X connect 6 0 8 0;
#X connect 7 0 5 0;
#X connect 8 0 1 0;
#X connect 10 0 11 0;
#X connect 11 0 9 0;
#X connect 12 0 0 0;
#X connect 13 0 1 0;
#X connect 14 0 3 0;
#X connect 15 0 4 0;
#X coords 0 -1 1 1 140 50 1 100 100;
#X restore 491 351 pd band2;
#X obj 91 290 bp~ 4432 12;
#X obj 200 295 bp~ 7000 12;
#X obj 340 288 *~;
#X obj 376 484 *~;
#X obj 375 530 *~;
#X obj 413 503 hsl 128 15 0 1 0 1 empty empty empty -2 -8 0 10 #fcfcfc #000000 #000000 9800 1;
#X obj 409 521 pow 3;
#N canvas 1 209 354 265 band2 0;
#X obj 88 189 para_bp2~ 450 10 5 50;
#X obj 114 117 nbx 5 14 -1e+37 1e+37 0 1 empty empty empty 0 -8 0 10 #fcfcc4 #000000 #000000 71.112 256;
#X obj 40 114 mtof;
#X obj 192 118 nbx 4 14 -1e+37 1e+37 0 1 empty empty Q -8 7 0 10 #c4fcc4 #000000 #000000 58.02 256;
#X obj 192 135 nbx 4 14 0 200 0 1 empty empty dB -12 7 0 10 #fcc4c4 #000000 #000000 34 256;
#X obj 114 134 nbx 5 14 -1e+37 1e+37 0 0 empty empty Hz -12 7 0 10 #fcfcc4 #000000 #000000 0 256;
#X obj 36 52 ftom;
#X msg 40 135 set \$1;
#X msg 36 71 set \$1;
#X obj 281 167 switch~;
#X obj 281 128 > 0;
#X obj 281 147 change;
#X obj 89 43 inlet~;
#X obj 181 47 inlet;
#X obj 225 47 inlet;
#X obj 270 47 inlet;
#X obj 88 227 outlet~;
#X connect 0 0 16 0;
#X connect 1 0 2 0;
#X connect 2 0 7 0;
#X connect 2 0 0 1;
#X connect 3 0 0 2;
#X connect 4 0 0 3;
#X connect 4 0 10 0;
#X connect 5 0 6 0;
#X connect 6 0 8 0;
#X connect 7 0 5 0;
#X connect 8 0 1 0;
#X connect 10 0 11 0;
#X connect 11 0 9 0;
#X connect 12 0 0 0;
#X connect 13 0 1 0;
#X connect 14 0 3 0;
#X connect 15 0 4 0;
#X coords 0 -1 1 1 140 50 1 100 100;
#X restore 567 291 pd band2;
#X obj 577 439 *~;
#X obj 614 163 noise~;
#X obj 519 290 *~;
#X msg 332 173 1 0.1 0 \, 0 20 2;
#X obj 563 478 *~;
#X obj 561 534 *~;
#X obj 599 507 hsl 128 15 0 1 0 1 empty empty empty -2 -8 0 10 #fcfcfc #000000 #000000 5300 1;
#X obj 595 525 pow 3;
#X obj 611 255 bp~ 700 5;
#X obj 660 383 sig~ 1;
#X obj 613 234 hip~ 200;
#X obj 648 448 osc~ 3600;
#X obj 721 352 hip~ 500;
#X obj 678 413 osc~ 2333;
#X obj 359 245 lop~ 200;
#X obj 359 267 hip~ 200;
#X obj 721 373 bp~ 700 12;
#X obj 421 117 del 30;
#X obj 190 114 del 40;
#X msg 236 152 1 0.1 8 \, 0 100 9;
#X obj 29 381 bp~ 70 90;
#X obj 140 115 del 35;
#X msg 507 219 1 0.1 8 \, 0 10 9;
#X obj 695 261 *~;
#X obj 735 242 hsl 128 15 0 1 0 1 empty empty empty -2 -8 0 10 #fcfcfc #000000 #000000 9700 1;
#X obj 731 260 pow 3;
#X obj 698 158 noise~;
#X obj 698 182 hip~ 200;
#X obj 696 229 *~;
#X obj 696 203 bp~ 5000 5;
#X obj 339 507 clip~ -1 1;
#X obj 723 454 osc~ 360;
#X obj 721 482 *~ 0.3;
#X msg 513 76 1 80 0 \, 0 0 100;
#X obj 312 33 bng 15 250 50 0 empty empty empty 0 -6 0 8 #fcfcfc #000000 #000000;
#X obj 434 194 bng 15 250 50 0 empty empty empty 17 7 0 10 #fcfcfc #000000 #000000;
#X obj 426 257 ead~ 10 100;
#X obj 177 59 del 100;
#X obj 79 56 bng 15 250 50 0 empty empty empty 17 7 0 10 #fcfcfc #000000 #000000;
#X obj 46 18 inlet start;
#X obj 191 16 inlet stop;
#X obj 71 89 del 35;
#X obj 632 24 bng 15 250 50 0 empty empty empty 17 7 0 10 #fcfcfc #000000 #000000;
#X obj 88 462 bng 15 250 50 0 empty empty empty 17 7 0 10 #fcfcfc #000000 #000000;
#X obj 30 411 *~ 30;
#X obj 641 111 *~ 2;
#X obj 88 520 *~ 2.5;
#X obj 88 495 wavplayertab agraf-08 0.7;
#X obj 640 63 wavplayertab bing-03 0.3;
#X obj 666 88 hip~ 3000;
#X connect 0 0 51 0;
#X connect 0 0 52 0;
#X connect 0 0 55 0;
#X connect 0 0 77 0;
#X connect 1 0 2 0;
#X connect 1 0 2 1;
#X connect 2 0 36 0;
#X connect 3 0 4 0;
#X connect 3 0 4 1;
#X connect 4 0 62 1;
#X connect 5 0 6 0;
#X connect 5 0 6 1;
#X connect 6 0 28 0;
#X connect 7 0 8 0;
#X connect 7 0 8 1;
#X connect 8 0 34 0;
#X connect 8 0 34 1;
#X connect 9 0 10 0;
#X connect 9 0 10 1;
#X connect 10 0 24 0;
#X connect 11 0 22 0;
#X connect 11 0 54 0;
#X connect 12 0 15 0;
#X connect 13 0 14 0;
#X connect 14 0 12 1;
#X connect 16 0 11 0;
#X connect 16 0 11 1;
#X connect 17 0 16 0;
#X connect 18 0 12 0;
#X connect 18 0 29 0;
#X connect 19 0 9 0;
#X connect 20 0 12 0;
#X connect 20 0 29 1;
#X connect 21 0 23 0;
#X connect 21 0 48 0;
#X connect 22 0 18 0;
#X connect 23 0 26 0;
#X connect 23 0 27 0;
#X connect 24 0 20 0;
#X connect 25 0 29 1;
#X connect 25 0 29 0;
#X connect 25 0 34 0;
#X connect 26 0 22 1;
#X connect 27 0 24 1;
#X connect 28 0 25 0;
#X connect 29 0 64 0;
#X connect 30 0 15 0;
#X connect 31 0 32 0;
#X connect 32 0 30 1;
#X connect 33 0 34 1;
#X connect 34 0 38 0;
#X connect 35 0 44 0;
#X connect 35 0 46 0;
#X connect 36 0 33 0;
#X connect 37 0 5 0;
#X connect 38 0 39 0;
#X connect 39 0 15 0;
#X connect 40 0 41 0;
#X connect 41 0 39 1;
#X connect 42 0 36 1;
#X connect 44 0 42 0;
#X connect 45 0 38 1;
#X connect 46 0 50 0;
#X connect 47 0 34 1;
#X connect 48 0 49 0;
#X connect 49 0 28 1;
#X connect 50 0 34 1;
#X connect 51 0 37 0;
#X connect 51 0 56 0;
#X connect 52 0 19 0;
#X connect 52 0 53 0;
#X connect 53 0 7 0;
#X connect 54 0 78 0;
#X connect 55 0 17 0;
#X connect 55 0 19 0;
#X connect 55 0 53 0;
#X connect 56 0 1 0;
#X connect 57 0 15 0;
#X connect 58 0 59 0;
#X connect 59 0 57 1;
#X connect 60 0 61 0;
#X connect 61 0 63 0;
#X connect 62 0 57 0;
#X connect 63 0 62 0;
#X connect 64 0 30 0;
#X connect 65 0 66 0;
#X connect 66 0 38 1;
#X connect 67 0 3 0;
#X connect 68 0 67 0;
#X connect 68 0 69 0;
#X connect 68 0 71 0;
#X connect 69 0 70 0;
#X connect 70 0 15 0;
#X connect 71 0 0 0;
#X connect 72 0 75 0;
#X connect 72 0 82 0;
#X connect 73 0 68 0;
#X connect 74 0 72 0;
#X connect 75 0 19 0;
#X connect 76 0 82 0;
#X connect 77 0 81 0;
#X connect 78 0 12 0;
#X connect 79 0 15 0;
#X connect 80 0 15 0;
#X connect 81 0 80 0;
#X connect 82 0 79 0;
#X connect 82 0 83 0;
#X connect 83 0 79 0;
#X restore 404 58 pd lanceur;
#X obj 314 87 *~ 30;
#X obj 22 56 sel 0 1;
#X obj 46 103 del 100;
#X msg 29 77 stop;
#X msg 47 123 1;
#X msg 17 106 0;
#X obj 312 62 lop~ 6;
#X obj 126 482 *~;
#X obj 161 460 hsl 128 15 0 1 0 1 empty empty empty -2 -8 0 10 #fcfcfc #000000 #000000 8900 1;
#X obj 157 480 pow 3;
#X obj 406 9 r \$0-demarreur;
#X obj 406 31 sel 1;
#X obj 244 32 line;
#X msg 240 -7 35 \, 15 2000;
#X msg 22 170 \$1 30;
#X obj 368 506 outlet~;
#X connect 1 0 40 0;
#X connect 2 0 3 0;
#X connect 3 0 1 1;
#X connect 4 0 5 0;
#X connect 4 0 5 1;
#X connect 4 0 13 0;
#X connect 4 0 33 0;
#X connect 5 0 7 0;
#X connect 5 0 7 1;
#X connect 5 0 11 0;
#X connect 6 0 9 0;
#X connect 7 0 11 0;
#X connect 8 0 10 0;
#X connect 9 0 22 0;
#X connect 9 0 22 1;
#X connect 9 0 27 0;
#X connect 11 0 8 0;
#X connect 12 0 6 1;
#X connect 13 0 15 0;
#X connect 14 0 4 0;
#X connect 15 0 52 0;
#X connect 16 0 1 0;
#X connect 17 0 16 1;
#X connect 17 0 18 0;
#X connect 19 0 17 0;
#X connect 20 0 1 0;
#X connect 21 0 31 0;
#X connect 22 0 23 0;
#X connect 22 0 23 1;
#X connect 23 0 21 0;
#X connect 24 0 1 0;
#X connect 25 0 1 0;
#X connect 26 0 25 0;
#X connect 27 0 26 0;
#X connect 28 0 25 1;
#X connect 29 0 25 2;
#X connect 30 0 25 3;
#X connect 31 0 16 0;
#X connect 31 0 20 0;
#X connect 31 0 24 0;
#X connect 32 0 40 0;
#X connect 33 0 34 0;
#X connect 34 0 32 0;
#X connect 35 0 38 0;
#X connect 35 0 42 0;
#X connect 35 0 55 0;
#X connect 35 0 67 0;
#X connect 36 0 46 0;
#X connect 37 0 14 1;
#X connect 38 0 43 0;
#X connect 38 1 39 0;
#X connect 39 0 41 0;
#X connect 40 0 61 0;
#X connect 41 0 40 1;
#X connect 42 0 37 0;
#X connect 43 0 41 0;
#X connect 44 0 47 0;
#X connect 45 0 46 1;
#X connect 46 0 14 0;
#X connect 47 0 60 0;
#X connect 48 0 68 0;
#X connect 49 0 50 0;
#X connect 50 0 35 0;
#X connect 52 0 6 0;
#X connect 53 0 69 0;
#X connect 54 0 45 0;
#X connect 55 0 57 0;
#X connect 55 0 59 0;
#X connect 55 1 56 0;
#X connect 56 0 58 0;
#X connect 57 0 56 0;
#X connect 58 0 48 0;
#X connect 59 0 48 0;
#X connect 60 0 54 0;
#X connect 61 0 0 0;
#X connect 62 0 63 0;
#X connect 63 0 61 1;
#X connect 64 0 65 0;
#X connect 65 0 53 0;
#X connect 65 1 53 1;
#X connect 66 0 54 1;
#X connect 67 0 66 0;
#X connect 68 0 36 0;
#X restore 22 398 pd demarreur;
#X obj 340 477 s \$0-sign;
#X floatatom 341 455 5 0 0 0 - - - 0;
#X obj 342 389 hradio 15 1 0 7 empty empty empty 0 -8 0 10 #fcfcfc #000000 #000000 0;
#X obj 344 414 + 1;
#X msg 394 421 8;
#X obj 641 398 r \$1-Diesel-start;
#X obj 796 391 r \$1-Diesel-stop;
#X obj 796 415 sel 1;
#X obj 671 419 r \$0-demarreur;
#X obj 641 443 demux 0 1 2;
#X obj 614 556 s \$0-demarreur;
#X msg 614 534 1;
#X obj 731 537 + 2000;
#X obj 731 562 del;
#X msg 693 518 stop;
#X obj 630 485 sel 1;
#X obj 677 485 sel 0;
#X msg 731 581 2;
#X msg 647 535 0;
#X obj 833 414 r \$0-demarreur;
#X obj 826 441 demux 0 1 2;
#X obj 821 555 s \$0-demarreur;
#X msg 821 533 0;
#X obj 862 465 random 3000;
#X obj 862 485 + 2000;
#X obj 862 510 del;
#X msg 824 466 stop;
#X msg 862 529 2;
#X obj 345 358 r \$1-sign;
#X obj 447 521 / 10;
#X floatatom 485 517 5 0 0 0 - - - 0;
#X obj 444 548 s \$1-Diesel-speed;
#X obj 489 345 * 1;
#X obj 515 345 t b f;
#N canvas 1 92 450 300 tank2speed 0;
#X obj 210 48 r \$1-Tank;
#X obj 210 118 sel 0;
#X obj 259 162 random 2;
#X msg 211 162 0;
#X msg 323 162 1;
#X obj 253 214 outlet;
#X obj 252 187 change;
#X obj 261 140 b;
#X obj 261 119 moses 0.1;
#X connect 0 0 1 0;
#X connect 1 0 3 0;
#X connect 1 1 8 0;
#X connect 2 0 6 0;
#X connect 3 0 6 0;
#X connect 4 0 6 0;
#X connect 6 0 5 0;
#X connect 7 0 2 0;
#X connect 8 0 7 0;
#X connect 8 1 4 0;
#X restore 565 334 pd tank2speed;
#X obj 483 389 f;
#X obj 564 380 line;
#X msg 564 359 \$1 100;
#X obj 761 150 change;
#X obj 761 204 sel 0;
#X msg 762 232 0;
#X obj 784 259 bng 15 250 50 0 empty empty empty 17 7 0 10 #fcfcfc #000000 #000000;
#X obj 760 130 r \$1-Tank;
#X obj 768 582 r \$1-Tank;
#X obj 768 602 != 0;
#X obj 732 608 *;
#X obj 216 463 hsl 128 15 0 1 0 0 empty empty empty -2 -8 0 10 #fcfcfc #000000 #000000 0 1;
#X obj 125 416 +~;
#X floatatom 407 528 5 0 0 0 - - - 0;
#X obj 488 413 moses 1e-06;
#X msg 488 436 0;
#X obj 447 488 r \$0-freq;
#X obj 528 497 s \$0-freq;
#X obj 527 476 change;
#X floatatom 438 353 5 0 0 0 - - - 0;
#X obj 646 98 change;
#X obj 766 37 pow 3;
#X obj 765 97 s \$0-Master;
#X obj 766 15 r \$1-DieselMaster-snd;
#X obj 393 26 r \$1-ALLSTOP;
#X msg 394 56 0;
#X obj 311 559 switch~;
#X obj 312 531 tgl 15 0 empty empty empty 17 7 0 10 #fcfcfc #000000 #000000 0 1;
#X obj 424 150 change;
#X obj 342 524 init 1;
#X obj 154 533 lout \$0 \$1 2;
#X obj 292 75 loadbang;
#X obj 211 338 *~ 6;
#X obj 731 517 random 1500;
#X obj 762 176 f;
#X obj 871 227 r \$0-demarreur;
#X obj 837 191 del 2;
#X obj 865 253 b;
#X obj 838 143 r \$1-Diesel-start;
#X obj 838 166 sel 0;
#X obj 190 363 hip~ 50;
#X obj 122 374 hip~ 20;
#X obj 455 219 / 20;
#X obj 489 220 / 40;
#X obj 797 74 t b f;
#X obj 816 50 r \$1-MachinesMaster-snd;
#X obj 766 75 * 1;
#X floatatom 869 100 5 0 0 0 - - - 0;
#X obj 31 541 lout \$0 \$1 1;
#X connect 34 0 168 0;
#X connect 35 0 159 0;
#X connect 36 0 68 0;
#X connect 37 0 34 0;
#X connect 38 0 68 0;
#X connect 39 0 36 0;
#X connect 40 0 37 0;
#X connect 41 0 35 0;
#X connect 42 0 38 0;
#X connect 44 0 30 0;
#X connect 45 0 68 0;
#X connect 46 0 54 0;
#X connect 47 0 61 0;
#X connect 48 0 49 0;
#X connect 49 0 46 1;
#X connect 50 0 51 0;
#X connect 51 0 52 0;
#X connect 52 0 53 0;
#X connect 52 0 155 0;
#X connect 53 0 46 0;
#X connect 54 0 170 0;
#X connect 56 0 59 0;
#X connect 57 0 61 0;
#X connect 57 1 61 1;
#X connect 58 0 50 0;
#X connect 59 0 63 0;
#X connect 60 0 62 0;
#X connect 60 0 147 0;
#X connect 61 0 58 0;
#X connect 63 0 60 0;
#X connect 65 0 76 0;
#X connect 66 0 67 0;
#X connect 67 0 65 0;
#X connect 67 1 65 1;
#X connect 68 0 157 0;
#X connect 69 0 70 0;
#X connect 70 0 71 0;
#X connect 71 0 72 0;
#X connect 72 0 68 1;
#X connect 73 0 66 0;
#X connect 74 0 82 0;
#X connect 75 0 88 0;
#X connect 76 0 85 0;
#X connect 77 0 73 0;
#X connect 77 1 75 0;
#X connect 78 0 80 0;
#X connect 78 0 81 0;
#X connect 79 0 86 0;
#X connect 80 0 79 0;
#X connect 80 1 79 1;
#X connect 83 0 77 0;
#X connect 84 0 124 0;
#X connect 85 0 84 0;
#X connect 86 0 76 0;
#X connect 86 1 76 1;
#X connect 87 0 79 0;
#X connect 88 0 89 0;
#X connect 88 1 90 0;
#X connect 89 0 87 0;
#X connect 90 0 87 0;
#X connect 91 0 157 0;
#X connect 91 1 157 0;
#X connect 91 1 175 0;
#X connect 93 0 92 0;
#X connect 94 0 95 0;
#X connect 95 0 93 0;
#X connect 96 0 93 0;
#X connect 97 0 101 0;
#X connect 98 0 99 0;
#X connect 99 0 112 0;
#X connect 99 0 114 0;
#X connect 100 0 101 1;
#X connect 101 0 107 0;
#X connect 101 1 108 0;
#X connect 103 0 102 0;
#X connect 104 0 105 0;
#X connect 105 0 109 0;
#X connect 106 0 105 0;
#X connect 107 0 103 0;
#X connect 107 0 160 0;
#X connect 107 1 106 0;
#X connect 107 1 110 0;
#X connect 108 0 106 0;
#X connect 108 0 110 0;
#X connect 109 0 137 0;
#X connect 110 0 102 0;
#X connect 111 0 112 1;
#X connect 114 0 113 0;
#X connect 115 0 116 0;
#X connect 116 0 117 0;
#X connect 117 0 119 0;
#X connect 118 0 117 0;
#X connect 120 0 94 0;
#X connect 121 0 122 0;
#X connect 121 0 123 0;
#X connect 124 0 127 0;
#X connect 124 0 146 0;
#X connect 125 0 124 0;
#X connect 125 1 124 1;
#X connect 126 0 129 0;
#X connect 127 0 141 0;
#X connect 128 0 125 0;
#X connect 129 0 128 0;
#X connect 130 0 161 0;
#X connect 131 0 132 0;
#X connect 132 0 77 0;
#X connect 132 0 101 1;
#X connect 134 0 130 0;
#X connect 135 0 136 0;
#X connect 136 0 137 1;
#X connect 137 0 102 0;
#X connect 138 0 37 0;
#X connect 139 0 157 0;
#X connect 139 0 175 0;
#X connect 141 0 142 0;
#X connect 141 1 145 0;
#X connect 142 0 145 0;
#X connect 143 0 121 0;
#X connect 143 0 140 0;
#X connect 145 0 144 0;
#X connect 147 0 57 0;
#X connect 148 0 173 0;
#X connect 150 0 148 0;
#X connect 151 0 152 0;
#X connect 152 0 74 0;
#X connect 154 0 153 0;
#X connect 155 0 55 0;
#X connect 155 0 64 0;
#X connect 156 0 154 0;
#X connect 158 0 9 0;
#X connect 158 0 21 0;
#X connect 159 0 167 0;
#X connect 160 0 104 0;
#X connect 161 0 131 0;
#X connect 162 0 164 0;
#X connect 163 0 161 0;
#X connect 165 0 166 0;
#X connect 166 0 163 0;
#X connect 167 0 68 0;
#X connect 168 0 139 0;
#X connect 170 0 65 0;
#X connect 171 0 173 0;
#X connect 171 1 173 1;
#X connect 172 0 171 0;
#X connect 173 0 149 0;
