#N canvas 1 247 236 239 10;
#X obj 37 49 hsl 100 12 0 1 0 1 \$0-throb-rattle \$0-throb-rattle-r rattle 35 6 1 8 #fcfcfc #000000 #000000 0 1;
#X obj 37 37 hsl 100 12 0 1 0 1 \$0-throb-freq \$0-throb-freq-r speed 35 6 1 8 #fcfcfc #000000 #000000 9900 1;
#X obj 37 61 hsl 100 12 0 1 0 1 \$0-throb-harm1 \$0-throb-harm1-r harm1 35 6 1 8 #fcfcfc #000000 #000000 4200 1;
#X obj 37 71 hsl 100 12 0 1 0 1 \$0-throb-harm2 \$0-throb-harm2-r harm2 35 6 1 8 #fcfcfc #000000 #000000 2900 1;
#X obj 37 81 hsl 100 12 0 1 0 1 \$0-throb-body \$0-throb-body-r body 35 6 1 8 #fcfcfc #000000 #000000 8700 1;
#X obj 37 91 hsl 100 12 0 1 0 1 \$0-throb-vol \$0-throb-vol-r vol 35 6 1 8 #fcfcfc #000000 #000000 6400 1;
#X obj 36 173 *~ 0.4;
#N canvas 185 82 1063 693 gears 0;
#X obj 434 608 vd~ \$0-o1;
#X obj 53 526 delwrite~ \$0-o1 90;
#X obj 207 527 delwrite~ \$0-o2 90;
#X obj 506 608 vd~ \$0-o2;
#X obj 53 502 osc~ 400;
#X obj 375 516 *~ 0.5;
#X obj 376 539 +~ 0.5;
#X obj 503 513 *~ 0.5;
#X obj 504 536 +~ 0.5;
#X obj 504 493 osc~ 89;
#X obj 207 502 osc~ 240;
#X obj 504 569 *~ 2;
#X obj 375 559 *~ 2;
#X obj 376 496 osc~ 345;
#X obj 247 288 * 0.5;
#X obj 322 288 * 0.5;
#X obj 502 356 * 0.5;
#X obj 334 257 t;
#X obj 464 667 +~;
#X obj 97 314 *~;
#X obj 505 663 *~;
#X obj 97 288 clip~ -1 1;
#X obj 504 687 *~ 0.5;
#X obj 486 756 outlet~;
#X text 203 138 f;
#X text 494 179 odd;
#X obj 115 149 * 0.7;
#X obj 228 217 t f f f f;
#X obj 536 278 t f f;
#X obj 422 243 t f f;
#X obj 355 212 t f f;
#X obj 368 159 * 2;
#X obj 564 188 * 50;
#X obj 495 716 *~;
#X obj 254 -31 inlet;
#X obj 253 -7 unpack f f f f f f f;
#X obj 559 691 line~;
#X msg 563 663 \$1 100;
#X obj 487 735 *~ 0.4;
#X obj 505 463 *~;
#X obj 505 424 sig~;
#X obj 378 467 *~;
#X obj 377 428 sig~;
#X obj 208 435 sig~;
#X obj 53 437 sig~;
#X floatatom 259 336 5 0 0 0 - - - 0;
#X obj 207 478 *~;
#X obj 52 480 *~;
#X obj 242 153 * 200;
#X obj 419 754 s~ \$0-fb;
#X obj 97 260 r~ \$0-fb;
#X obj 263 397 +~;
#X obj 518 -15 inlet~;
#X floatatom 152 212 5 0 0 0 - - - 0;
#X obj 464 74 * 1;
#X connect 0 0 18 0;
#X connect 0 0 20 0;
#X connect 3 0 18 1;
#X connect 3 0 20 1;
#X connect 4 0 1 0;
#X connect 5 0 6 0;
#X connect 6 0 12 0;
#X connect 7 0 8 0;
#X connect 8 0 11 0;
#X connect 9 0 7 0;
#X connect 10 0 2 0;
#X connect 11 0 3 0;
#X connect 12 0 0 0;
#X connect 13 0 5 0;
#X connect 14 0 45 0;
#X connect 14 0 43 0;
#X connect 15 0 42 0;
#X connect 16 0 40 0;
#X connect 17 0 14 0;
#X connect 17 0 15 0;
#X connect 17 0 16 0;
#X connect 18 0 33 0;
#X connect 18 0 49 0;
#X connect 19 0 1 0;
#X connect 19 0 2 0;
#X connect 20 0 22 0;
#X connect 21 0 19 0;
#X connect 22 0 49 0;
#X connect 26 0 19 1;
#X connect 27 0 44 0;
#X connect 27 1 14 0;
#X connect 27 2 15 0;
#X connect 27 3 16 0;
#X connect 28 0 12 1;
#X connect 28 1 11 1;
#X connect 29 0 17 0;
#X connect 29 1 16 1;
#X connect 30 0 17 0;
#X connect 30 1 15 1;
#X connect 31 0 30 0;
#X connect 32 0 28 0;
#X connect 33 0 38 0;
#X connect 34 0 35 0;
#X connect 35 0 26 0;
#X connect 35 1 48 0;
#X connect 35 2 31 0;
#X connect 35 3 29 0;
#X connect 35 4 32 0;
#X connect 35 5 54 0;
#X connect 36 0 33 1;
#X connect 37 0 36 0;
#X connect 38 0 23 0;
#X connect 39 0 9 0;
#X connect 40 0 39 0;
#X connect 41 0 13 0;
#X connect 42 0 41 0;
#X connect 43 0 46 0;
#X connect 44 0 47 0;
#X connect 46 0 10 0;
#X connect 47 0 4 0;
#X connect 48 0 27 0;
#X connect 50 0 21 0;
#X connect 51 0 46 1;
#X connect 51 0 47 1;
#X connect 51 0 41 1;
#X connect 51 0 39 1;
#X connect 52 0 51 0;
#X connect 54 0 37 0;
#X restore 36 146 pd gears;
#N canvas 212 182 683 483 gears 0;
#X obj 66 43 r \$0-throb-rattle;
#X obj 80 65 r \$0-throb-freq;
#X obj 92 87 r \$0-throb-harm1;
#X obj 108 110 r \$0-throb-harm2;
#X obj 142 130 r \$0-throb-body;
#X obj 157 157 r \$0-throb-vol;
#X obj 85 183 t b;
#X obj 76 270 outlet;
#X obj 189 180 r \$0-throb-mute;
#X obj 73 237 pack f f f f f f f;
#X connect 0 0 9 0;
#X connect 1 0 6 0;
#X connect 1 0 9 1;
#X connect 2 0 6 0;
#X connect 2 0 9 2;
#X connect 3 0 6 0;
#X connect 3 0 9 3;
#X connect 4 0 6 0;
#X connect 4 0 9 4;
#X connect 5 0 6 0;
#X connect 5 0 9 5;
#X connect 6 0 9 0;
#X connect 8 0 9 6;
#X connect 8 0 6 0;
#X connect 9 0 7 0;
#X restore 36 124 pd gears if;
#X obj 136 124 inlet~;
#X obj 37 197 outlet~;
#X connect 6 0 10 0;
#X connect 7 0 6 0;
#X connect 8 0 7 0;
#X connect 9 0 7 1;
