#N canvas 714 111 525 335 10;
#X obj 79 87 inlet gemhead;
#X obj 79 146 gemframebuffer;
#X obj 79 194 translateXYZ 0 0 -4;
#X obj 79 169 alpha;
#X obj 79 223 s \$1-head;
#X obj 160 167 s \$1-tex;
#X obj 231 74 init \$2 \$3;
#X obj 231 96 route 0;
#X obj 231 54 bng 15 250 50 0 empty empty empty 17 7 0 10 -262144 -1
-1;
#X msg 270 118 dimen \$1 \$2;
#X obj 99 112 r \$1-rcv;
#X obj 270 139 s \$1-rcv;
#X obj 344 55 bng 15 250 50 0 empty empty empty 17 7 0 10 -262144 -1
-1;
#X obj 344 75 init \$4;
#X obj 344 95 route 0;
#X msg 383 136 type \$1;
#X obj 383 115 symbol;
#X obj 383 157 s \$1-rcv;
#X obj 232 167 bng 15 250 50 0 empty empty empty 17 7 0 10 -262144
-1 -1;
#X obj 232 207 route 0;
#X obj 271 227 symbol;
#X obj 271 269 s \$1-rcv;
#X obj 232 186 init \$5;
#X msg 271 248 format \$1;
#X obj 344 177 bng 15 250 50 0 empty empty empty 17 7 0 10 -262144
-1 -1;
#X obj 344 240 s \$1-rcv;
#X text 72 25 gemFB name sizex sizey type format R G B A;
#X obj 344 197 init \$6 \$7 \$8 \$9;
#X msg 344 219 color \$1 \$2 \$3 \$4;
#X connect 0 0 1 0;
#X connect 1 0 3 0;
#X connect 1 1 5 0;
#X connect 2 0 4 0;
#X connect 3 0 2 0;
#X connect 6 0 7 0;
#X connect 7 1 9 0;
#X connect 8 0 6 0;
#X connect 9 0 11 0;
#X connect 10 0 1 0;
#X connect 12 0 13 0;
#X connect 13 0 14 0;
#X connect 14 1 16 0;
#X connect 15 0 17 0;
#X connect 16 0 15 0;
#X connect 18 0 22 0;
#X connect 19 1 20 0;
#X connect 20 0 23 0;
#X connect 22 0 19 0;
#X connect 23 0 21 0;
#X connect 24 0 27 0;
#X connect 27 0 28 0;
#X connect 28 0 25 0;
