#N canvas 563 104 707 639 10;
#X obj 82 205 system;
#X obj 82 101 getdir;
#X obj 80 22 loadbang;
#X msg 82 125 symbol \$1/0Keys.pd;
#X obj 82 80 bng 15 250 50 0 empty empty empty 17 7 0 10 #fcfcfc #000000 #000000;
#X obj 80 288 route Keys;
#X obj 78 309 route 1;
#X obj 75 331 route F5 F6 F7 F8;
#X obj 69 360 bng 15 250 50 0 empty empty empty 17 7 0 10 #fcfcfc #000000 #000000;
#X obj 100 361 bng 15 250 50 0 empty empty empty 17 7 0 10 #fcfcfc #000000 #000000;
#X obj 123 357 bng 15 250 50 0 empty empty empty 17 7 0 10 #fcfcfc #000000 #000000;
#X obj 154 357 bng 15 250 50 0 empty empty empty 17 7 0 10 #fcfcfc #000000 #000000;
#X msg 82 153 echo "export DISPLAY=:0.0 && pd-extended -noaudio -nrt -open \$1" |at now;
#X msg 42 427 0;
#X msg 90 425 1;
#X obj 42 400 del 10;
#X obj 64 457 change -1;
#X obj 90 400 del 10;
#X obj 61 484 s PiedFraiseOn;
#X obj 258 325 t b b;
#X obj 248 414 i;
#X obj 275 414 + 1;
#X msg 279 377 0;
#X obj 242 447 sel 6;
#X obj 242 480 bng 15 250 50 0 empty empty empty 17 7 0 10 #fcfcfc #000000 #000000;
#X obj 287 352 del 2000;
#X obj 150 388 del 50;
#X floatatom 299 444 5 0 0 0 - - - 0;
#X obj 356 462 phasor~;
#X obj 356 483 *~;
#X obj 358 511 hip~ 50;
#X obj 364 378 bng 15 250 50 0 empty empty empty 17 7 0 10 #fcfcfc #000000 #000000;
#X obj 361 437 *~ 1000;
#X obj 363 407 ead~ 10 2000;
#X obj 80 262 r \$1-fromclients;
#X obj 219 573 s \$1-doshutdown;
#X obj 366 599 out \$1 2;
#X msg 235 82 echo "sudo /sbin/halt" | at now;
#X obj 236 120 system;
#X obj 235 59 bng 15 250 50 0 empty empty empty 17 7 0 10 #fcfcfc #000000 #000000;
#X obj 234 30 r \$1-doshutdown;
#X obj 323 193 loadbang;
#X obj 356 318 system;
#X msg 354 260 0 \, 1;
#X msg 353 293 nohup sudo /usr/bin/cpufreq-set -c \$1 -g performance;
#X obj 83 58 del 3000;
#X msg 293 112 echo "sudo /sbin/reboot" | at now;
#X obj 425 599 out \$1 3;
#X obj 482 598 out \$1 4;
#X obj 310 601 out \$1 1;
#X obj 357 535 *~ 0.4;
#X obj 380 232 del 30000;
#X connect 1 0 3 0;
#X connect 3 0 12 0;
#X connect 4 0 1 0;
#X connect 5 0 6 0;
#X connect 6 0 7 0;
#X connect 7 0 8 0;
#X connect 7 1 9 0;
#X connect 7 2 10 0;
#X connect 7 3 11 0;
#X connect 8 0 15 0;
#X connect 9 0 17 0;
#X connect 11 0 26 0;
#X connect 12 0 0 0;
#X connect 13 0 16 0;
#X connect 14 0 16 0;
#X connect 15 0 13 0;
#X connect 16 0 18 0;
#X connect 17 0 14 0;
#X connect 19 0 20 0;
#X connect 19 1 25 0;
#X connect 20 0 21 0;
#X connect 20 0 23 0;
#X connect 20 0 27 0;
#X connect 21 0 20 1;
#X connect 22 0 20 1;
#X connect 23 0 24 0;
#X connect 23 0 31 0;
#X connect 23 0 35 0;
#X connect 25 0 22 0;
#X connect 26 0 19 0;
#X connect 28 0 29 0;
#X connect 29 0 30 0;
#X connect 30 0 50 0;
#X connect 31 0 33 0;
#X connect 32 0 28 0;
#X connect 33 0 29 1;
#X connect 33 0 32 0;
#X connect 34 0 5 0;
#X connect 37 0 38 0;
#X connect 39 0 37 0;
#X connect 40 0 39 0;
#X connect 41 0 43 0;
#X connect 41 0 51 0;
#X connect 44 0 42 0;
#X connect 45 0 4 0;
#X connect 46 0 38 0;
#X connect 50 0 36 0;
#X connect 50 0 47 0;
#X connect 50 0 48 0;
#X connect 50 0 49 0;
#X connect 51 0 43 0;
