#N canvas 266 418 301 467 10;
#X obj 14 -1 catch~ \$1-out\$2;
#X obj 93 275 prvu~;
#X obj 55 231 limiter~;
#X obj 16 205 *~;
#X obj 30 181 r~ \$1-Mastersig;
#X obj 15 232 z~ 64;
#X obj 14 254 *~;
#X obj 17 154 AudioDelayStop \$1;
#X obj 34 70 lp2_cheb~ 22000 50;
#X obj 177 72 outlet~;
#X obj 174 133 r \$1-hpf;
#X obj 131 157 hp2_cheb~ 10 50;
#X obj 77 93 r \$1-hpf;
#X obj 34 117 hp2_cheb~ 10 50;
#X obj 100 28 r \$1-lpf;
#X obj 13 286 dac~ \$3;
#X obj 93 295 s \$1-vu\$3;
#X obj 15 41 hp4_butt~ 15;
#X connect 0 0 9 0;
#X connect 0 0 17 0;
#X connect 1 0 16 0;
#X connect 2 0 6 1;
#X connect 3 0 5 0;
#X connect 3 0 2 0;
#X connect 4 0 3 1;
#X connect 5 0 6 0;
#X connect 6 0 1 0;
#X connect 6 0 15 0;
#X connect 7 0 3 0;
#X connect 8 0 13 0;
#X connect 10 0 11 1;
#X connect 12 0 13 1;
#X connect 14 0 8 1;
#X connect 17 0 7 0;
