#N canvas 467 139 594 313 10;
#X obj 44 171 s \$0-dmx;
#X msg 47 147 0 \$1;
#X floatatom 48 116 5 0 255 0 - - -;
#X obj 100 167 s \$0-dmx;
#X floatatom 115 110 5 0 255 0 - - -;
#X obj 179 165 s \$0-dmx;
#X floatatom 183 110 5 0 255 0 - - -;
#X obj 270 159 s \$0-dmx;
#X floatatom 247 110 5 0 255 0 - - -;
#X obj 339 149 s \$0-dmx;
#X floatatom 343 94 5 0 255 0 - - -;
#X obj 395 145 s \$0-dmx;
#X floatatom 399 90 5 0 255 0 - - -;
#X obj 456 146 s \$0-dmx;
#X floatatom 460 91 5 0 255 0 - - -;
#X obj 512 142 s \$0-dmx;
#X floatatom 516 87 5 0 255 0 - - -;
#X msg 102 141 1 \$1;
#X msg 182 141 2 \$1;
#X msg 273 135 3 \$1;
#X msg 342 125 4 \$1;
#X msg 398 121 5 \$1;
#X msg 459 122 6 \$1;
#X msg 515 118 7 \$1;
#X obj 82 207 r \$0-dmx;
#X obj 82 293 s \$1-dmx;
#X obj 83 229 unpack f f;
#X obj 83 251 + \$2;
#X obj 83 271 pack f f;
#X obj 99 7 r parled\$3;
#X obj 99 27 route R V B W;
#X obj 166 -5 inlet;
#X obj 45 59 change;
#X obj 116 59 change;
#X obj 194 65 change;
#X obj 277 62 change;
#X obj 29 89 speedlim 10;
#X obj 109 90 speedlim 10;
#X obj 193 88 speedlim 10;
#X obj 272 89 speedlim 10;
#X connect 1 0 0 0;
#X connect 2 0 1 0;
#X connect 4 0 17 0;
#X connect 6 0 18 0;
#X connect 8 0 19 0;
#X connect 10 0 20 0;
#X connect 12 0 21 0;
#X connect 14 0 22 0;
#X connect 16 0 23 0;
#X connect 17 0 3 0;
#X connect 18 0 5 0;
#X connect 19 0 7 0;
#X connect 20 0 9 0;
#X connect 21 0 11 0;
#X connect 22 0 13 0;
#X connect 23 0 15 0;
#X connect 24 0 26 0;
#X connect 26 0 27 0;
#X connect 26 1 28 1;
#X connect 27 0 28 0;
#X connect 28 0 25 0;
#X connect 29 0 30 0;
#X connect 30 0 32 0;
#X connect 30 1 33 0;
#X connect 30 2 34 0;
#X connect 30 3 35 0;
#X connect 31 0 30 0;
#X connect 32 0 36 0;
#X connect 33 0 37 0;
#X connect 34 0 38 0;
#X connect 35 0 39 0;
#X connect 36 0 1 0;
#X connect 37 0 17 0;
#X connect 38 0 18 0;
#X connect 39 0 19 0;
