#N canvas 418 260 604 490 10;
#X obj 98 236 list prepend broadcast;
#X obj 98 214 a2l;
#X obj 98 190 spigot;
#X obj 152 190 > 0;
#X floatatom 134 313 5 0 0 0 - - -;
#X obj 71 395 print clients_echo;
#X obj 98 260 route list;
#X obj 71 369 nroute echo 2;
#X obj 98 164 r \$1-toclients;
#X obj 98 341 s \$1-fromclients;
#X obj 101 114 cnv 15 100 15 empty \$0-crcv Connected:2 2 8 0 12 -261682
-66577 0;
#X msg 248 343 label Connected:\$1;
#X obj 248 367 s \$0-crcv;
#X obj 252 303 init 0;
#N canvas 514 167 332 178 DMX 0;
#X obj 63 119 list prepend DDMX;
#X obj 65 3 r \$1-fromclients;
#X obj 63 143 s \$1-toclients;
#X obj 218 118 print;
#X obj 65 25 nroute DMX 2;
#X obj 65 68 unwonk s s;
#X obj 65 45 a2l;
#X connect 0 0 2 0;
#X connect 1 0 4 0;
#X connect 4 0 6 0;
#X connect 5 2 0 0;
#X connect 6 0 5 0;
#X restore 229 103 pd DMX;
#X obj 98 288 netserver \$2;
#X connect 0 0 6 0;
#X connect 1 0 0 0;
#X connect 2 0 1 0;
#X connect 3 0 2 1;
#X connect 4 0 11 0;
#X connect 6 0 15 0;
#X connect 7 0 5 0;
#X connect 8 0 2 0;
#X connect 11 0 12 0;
#X connect 13 0 11 0;
#X connect 15 0 9 0;
#X connect 15 1 4 0;
#X connect 15 1 3 0;
#X coords 0 -1 1 1 102 30 1 100 100;
