#N canvas 6 311 450 346 10;
#X obj 167 34 inlet;
#X obj 220 286 outlet;
#X obj 221 25 r \$1-simul-on;
#X obj 226 94 random 3;
#X obj 226 121 sel 0;
#X obj 273 218 clip 0 1;
#X obj 221 170 - 1000;
#X floatatom 124 191 5 0 0 0 - - - 0;
#X obj 222 195 / 100000;
#X obj 226 64 metro 100;
#X obj 220 222 + 0.5;
#X obj 222 148 random 2002;
#X obj 313 29 r \$1-auto-on;
#X obj 220 254 max 0.12;
#X connect 2 0 9 0;
#X connect 3 0 4 0;
#X connect 4 0 11 0;
#X connect 5 0 10 1;
#X connect 6 0 8 0;
#X connect 8 0 7 0;
#X connect 8 0 10 0;
#X connect 9 0 3 0;
#X connect 10 0 5 0;
#X connect 10 0 13 0;
#X connect 11 0 6 0;
#X connect 12 0 9 0;
#X connect 13 0 1 0;
