#N canvas 381 104 1023 671 10;
#X obj 33 260 world_light;
#X msg 289 127 bang;
#X obj 289 107 metro 500;
#X obj 289 89 tgl 15 0 empty empty empty 0 -6 0 8 -262144 -1 -1 0 1
;
#X obj 810 28 gemhead -1;
#X obj 810 149 pix_snap2tex;
#X msg 855 125 0 0;
#X msg 901 124 500 500;
#X obj 855 102 t b b;
#X obj 810 109 t b a;
#X obj 810 187 alpha;
#X floatatom 983 177 5 0 0 0 - - -;
#X obj 988 29 vsl 15 128 0 1 0 0 empty empty empty 0 -8 0 8 -262144
-1 -1 0 1;
#X msg 47 118 frame \$1;
#X floatatom 47 100 5 0 0 0 - - -;
#X obj 810 211 colorRGB 1 1 1 0.888;
#X obj 33 236 gemhead;
#X obj 855 83 loadbang;
#N canvas 511 165 749 590 moving 0;
#X obj 193 81 gemhead;
#X obj 276 67 t b b;
#X obj 276 104 random 100;
#X obj 230 109 inlet;
#X obj 96 442 teapot;
#X obj 276 181 / 100;
#X obj 276 201 * 8;
#X obj 276 221 - 4;
#X obj 375 104 random 100;
#X obj 375 181 / 100;
#X obj 375 201 * 8;
#X obj 375 221 - 4;
#X obj 276 159 line 50 10;
#X obj 375 159 line 50 10;
#X obj 480 151 gemhead;
#X obj 485 223 b;
#X obj 485 291 +;
#X floatatom 431 372 5 0 0 0 - - -;
#X obj 528 361 *;
#X obj 554 303 pi;
#X obj 523 288 wrap;
#X obj 554 327 * 2;
#X obj 556 282 loadbang;
#X obj 560 260 bng 15 250 50 0 empty empty empty 17 7 0 10 -262144
-1 -1;
#X obj 529 381 cos;
#X obj 619 295 +;
#X obj 662 365 *;
#X obj 688 307 pi;
#X obj 657 292 wrap;
#X obj 688 331 * 2;
#X obj 690 286 loadbang;
#X obj 694 264 bng 15 250 50 0 empty empty empty 17 7 0 10 -262144
-1 -1;
#X obj 663 385 sin;
#X floatatom 489 470 5 0 0 0 - - -;
#X obj 486 260 f 0.001;
#X obj 619 261 f 0.001;
#X obj 586 215 unpack f f;
#X msg 599 152 0.001 0.00314159;
#X msg 562 120 0.001 0.001;
#X msg 584 76 0.002 0.00314159;
#X obj 169 43 inlet;
#X msg 463 45 0.005 0.0071416;
#X obj 531 408 * 2;
#X obj 661 407 * 2;
#X msg 567 40 0.01 0.0191416;
#X obj 229 425 circle 0.15;
#X obj 193 389 translateXYZ 0 0 0;
#X msg 502 9 0.02 0.0271416;
#X msg 352 451 0.3;
#X obj 456 181 spigot 1;
#X obj 518 192 tgl 15 0 empty empty empty 17 7 0 10 -262144 -1 -1 0
1;
#X msg 333 497 0.03;
#X msg 369 356 0;
#X obj 195 570 rectangle 0.01 0.1;
#X msg 314 347 0.2;
#X obj 20 365 rotateXYZ 0 0 180;
#X obj 217 309 t a a;
#X obj 234 344 separator;
#X obj 144 331 separator;
#X obj 197 458 rectangle 0.01 0.04;
#X obj 392 29 inlet;
#X obj 359 254 del 200;
#X obj 276 135 pack 0 50;
#X obj 375 135 pack 0 50;
#X obj 192 269 colorRGB 1 1 1;
#X msg 308 256 0;
#X msg 350 276 1;
#X connect 1 0 2 0;
#X connect 1 1 8 0;
#X connect 2 0 62 0;
#X connect 3 0 61 0;
#X connect 3 0 65 0;
#X connect 5 0 6 0;
#X connect 5 0 64 1;
#X connect 6 0 7 0;
#X connect 8 0 63 0;
#X connect 9 0 10 0;
#X connect 9 0 64 2;
#X connect 10 0 11 0;
#X connect 12 0 5 0;
#X connect 13 0 9 0;
#X connect 14 0 49 0;
#X connect 15 0 34 0;
#X connect 15 0 35 0;
#X connect 16 0 20 0;
#X connect 18 0 24 0;
#X connect 19 0 21 0;
#X connect 20 0 16 1;
#X connect 20 0 18 0;
#X connect 21 0 18 1;
#X connect 22 0 19 0;
#X connect 23 0 22 0;
#X connect 24 0 42 0;
#X connect 25 0 28 0;
#X connect 26 0 32 0;
#X connect 27 0 29 0;
#X connect 28 0 25 1;
#X connect 28 0 26 0;
#X connect 29 0 26 1;
#X connect 30 0 27 0;
#X connect 31 0 30 0;
#X connect 32 0 43 0;
#X connect 34 0 16 0;
#X connect 35 0 25 0;
#X connect 36 0 34 1;
#X connect 36 1 35 1;
#X connect 37 0 36 0;
#X connect 38 0 36 0;
#X connect 39 0 36 0;
#X connect 40 0 64 0;
#X connect 41 0 36 0;
#X connect 42 0 33 0;
#X connect 42 0 46 1;
#X connect 43 0 46 2;
#X connect 44 0 36 0;
#X connect 46 0 59 0;
#X connect 47 0 36 0;
#X connect 48 0 45 1;
#X connect 49 0 15 0;
#X connect 50 0 49 1;
#X connect 51 0 45 1;
#X connect 52 0 46 2;
#X connect 54 0 46 1;
#X connect 55 0 46 0;
#X connect 56 0 58 0;
#X connect 56 1 57 0;
#X connect 57 0 46 0;
#X connect 58 0 55 0;
#X connect 61 0 66 0;
#X connect 62 0 12 0;
#X connect 63 0 13 0;
#X connect 64 0 56 0;
#X connect 65 0 64 1;
#X connect 66 0 64 1;
#X restore 247 154 pd moving object;
#X text 267 31 FullScreen Motion Blur:;
#N canvas 257 387 414 208 Gem.init 0;
#X obj 81 28 loadbang;
#X obj 118 113 outlet;
#X msg 118 81 reset \, frame 100 \, lighting 1;
#X msg 80 63 reset \, dimen 1024 768 \, frame 30 \, lighting 0;
#X connect 0 0 3 0;
#X connect 2 0 1 0;
#X connect 3 0 1 0;
#X restore 100 130 pd Gem.init;
#N canvas 338 112 682 322 gemwin 0;
#X obj 102 122 tgl 15 0 \$0-gemstart \$0-gemstart empty 17 7 0 10 -262144
-1 -1 1 1;
#X obj 102 161 r \$0-gemstart;
#X obj 102 182 select 1 0;
#X msg 102 214 create \, 1;
#X msg 177 215 destroy;
#X obj 102 239 t a;
#X obj 318 54 inlet;
#X obj 318 255 gemwin;
#X obj 318 100 t a a;
#X obj 318 287 outlet;
#X obj 350 128 route create destroy;
#X obj 350 150 t b;
#X msg 350 172 1;
#X obj 390 150 t b;
#X msg 390 172 0;
#X obj 350 195 t f;
#X msg 350 219 set \$1;
#X text 118 122 rendering;
#X connect 1 0 2 0;
#X connect 2 0 3 0;
#X connect 2 1 4 0;
#X connect 3 0 5 0;
#X connect 4 0 5 0;
#X connect 5 0 8 0;
#X connect 6 0 8 0;
#X connect 7 0 9 0;
#X connect 8 0 7 0;
#X connect 8 1 10 0;
#X connect 10 0 11 0;
#X connect 10 1 13 0;
#X connect 11 0 12 0;
#X connect 12 0 15 0;
#X connect 13 0 14 0;
#X connect 14 0 15 0;
#X connect 15 0 16 0;
#X connect 16 0 0 0;
#X coords 0 -1 1 1 85 40 1 100 100;
#X restore 47 160 pd gemwin;
#X obj 740 190 t a a;
#X obj 741 227 separator;
#X obj 722 293 separator;
#X obj 415 98 gemframebuffer;
#X obj 542 88 gemhead;
#X obj 494 192 pix_texture;
#X obj 388 45 gemhead 20;
#X obj 542 140 alpha;
#X obj 494 231 colorRGB 1 1 1;
#X obj 320 250 t a a;
#X obj 391 233 separator;
#X obj 239 306 separator;
#X obj 384 307 pix_texture;
#X obj 321 227 alpha;
#X obj 397 438 gemframebuffer;
#X msg 397 413 dimen 1024 768;
#X obj 397 524 pix_texture;
#X obj 291 565 colorRGB 1 1 1;
#X obj 396 471 translateXYZ 0 0 -4;
#X obj 382 392 gemhead 15;
#X obj 385 357 square 4;
#X obj 385 287 rotateXYZ 0 0 -0.5;
#X obj 812 289 circle 4;
#X obj 396 566 square 4.01;
#X obj 385 329 colorRGB 1 0.99 0.99 0.99;
#X obj 253 366 separator;
#X obj 174 424 spigot;
#X obj 263 409 tgl 15 0 empty empty empty 17 7 0 10 -262144 -1 -1 0
1;
#X obj 393 160 translateXYZ 0 0 -4;
#X obj 170 452 colorRGB 1 1 0;
#X msg 290 436 0;
#X msg 193 378 1;
#X obj 157 335 metro 500;
#X obj 147 315 tgl 15 0 empty empty empty 17 7 0 10 -262144 -1 -1 1
1;
#X msg 512 547 3.99;
#X obj 592 492 * 2;
#X obj 593 511 - 1;
#X obj 588 530 * 0.01;
#X obj 577 383 tgl 15 0 empty empty empty 17 7 0 10 -262144 -1 -1 0
1;
#X obj 667 457 hsl 128 15 0 1 0 0 empty empty empty -2 -8 0 10 -262144
-1 -1 0 1;
#X obj 662 494 pow 3;
#X obj 620 428 line3;
#X floatatom 512 409 5 0 0 0 - - -;
#X obj 197 286 f;
#X obj 614 404 pack f 500;
#X msg 174 239 300;
#X msg 144 255 150;
#X obj 504 615 rotateXYZ 0 0 0;
#X msg 555 348;
#X obj 469 306 unpack f f f f;
#X obj 620 265 t a;
#X msg 646 187 1 0 1 1;
#X msg 415 73 dimen 1024 1024;
#X obj 818 257 rotateXYZ 0 0 0;
#X floatatom 941 246 5 0 0 0 - - -;
#X obj 710 362 rotateXYZ 0 0 0;
#X floatatom 891 496 5 0 0 0 - - -;
#X obj 802 428 line;
#X obj 710 385 square 7;
#X msg 626 221 1 0.999 0.999 1;
#X msg 512 517 4.05;
#X obj 587 554 + 4.1;
#X obj 16 619 rectangle 1 6;
#X obj 26 574 colorRGB 1 0 0;
#X obj 34 522 gemhead;
#X floatatom 104 428 5 0 0 0 - - -;
#X floatatom 60 597 5 0 0 0 - - -;
#X obj 139 613 hsl 128 15 0 127 0 0 empty empty empty -2 -8 0 10 -262144
-1 -1 0 1;
#X msg 497 266 -2;
#X obj 160 536 circle 0.03;
#X floatatom 215 140 5 0 0 0 - - -;
#X obj 245 122 sel 0;
#X obj 213 95 counter 4;
#X msg 822 390 0 \, -40000 1e+06;
#X obj 162 501 translateXYZ -0.5 0 0;
#X connect 1 0 18 1;
#X connect 2 0 1 0;
#X connect 3 0 2 0;
#X connect 5 0 10 0;
#X connect 6 0 5 1;
#X connect 7 0 5 2;
#X connect 8 0 6 0;
#X connect 8 1 7 0;
#X connect 9 0 5 0;
#X connect 9 1 5 0;
#X connect 10 0 15 0;
#X connect 11 0 15 4;
#X connect 12 0 11 0;
#X connect 13 0 21 0;
#X connect 14 0 13 0;
#X connect 15 0 75 0;
#X connect 16 0 0 0;
#X connect 17 0 8 0;
#X connect 20 0 21 0;
#X connect 22 0 24 0;
#X connect 22 1 23 0;
#X connect 23 0 9 0;
#X connect 25 0 50 0;
#X connect 25 1 27 1;
#X connect 25 1 38 1;
#X connect 26 0 29 0;
#X connect 27 0 30 0;
#X connect 28 0 25 0;
#X connect 29 0 27 0;
#X connect 30 0 77 0;
#X connect 31 0 33 0;
#X connect 31 0 47 0;
#X connect 31 1 32 0;
#X connect 32 0 43 0;
#X connect 33 0 18 0;
#X connect 34 0 46 0;
#X connect 35 0 31 0;
#X connect 36 0 40 0;
#X connect 36 1 34 1;
#X connect 37 0 36 0;
#X connect 38 0 45 0;
#X connect 39 0 45 0;
#X connect 40 0 38 0;
#X connect 41 0 36 0;
#X connect 43 0 34 0;
#X connect 46 0 42 0;
#X connect 47 0 48 0;
#X connect 48 0 51 0;
#X connect 48 0 52 0;
#X connect 49 0 48 1;
#X connect 50 0 35 0;
#X connect 51 0 96 0;
#X connect 52 0 48 1;
#X connect 53 0 48 1;
#X connect 54 0 53 0;
#X connect 54 0 60 0;
#X connect 54 0 94 0;
#X connect 55 0 54 0;
#X connect 56 0 45 1;
#X connect 57 0 58 0;
#X connect 58 0 59 0;
#X connect 59 0 83 0;
#X connect 60 0 66 0;
#X connect 61 0 62 0;
#X connect 62 0 59 1;
#X connect 63 0 57 0;
#X connect 64 0 40 1;
#X connect 65 0 54 1;
#X connect 65 0 66 1;
#X connect 66 0 63 0;
#X connect 67 0 65 0;
#X connect 68 0 65 0;
#X connect 70 0 46 4;
#X connect 71 0 46 1;
#X connect 71 1 46 2;
#X connect 71 2 46 3;
#X connect 71 3 46 4;
#X connect 72 0 71 0;
#X connect 73 0 72 0;
#X connect 74 0 25 0;
#X connect 74 0 36 0;
#X connect 75 0 44 0;
#X connect 76 0 75 3;
#X connect 77 0 80 0;
#X connect 79 0 77 3;
#X connect 81 0 72 0;
#X connect 82 0 45 1;
#X connect 85 0 84 0;
#X connect 87 0 84 2;
#X connect 88 0 84 1;
#X connect 90 0 43 3;
#X connect 93 0 18 1;
#X connect 94 0 92 0;
#X connect 94 0 93 0;
#X connect 95 0 79 0;
#X connect 96 0 91 0;
