#N canvas 198 93 1848 993 12;
#X obj 105 595 hsl 170 20 0 1 0 0 empty empty empty -2 -10 0 12 #fcfcfc #000000 #000000 0 1;
#X obj 102 620 pow 2;
#X msg 102 645 \$1 20;
#X obj 102 670 line~;
#X obj 148 113 noise~;
#X obj 148 138 lop~ 1000;
#X obj 148 163 abs~;
#X obj 149 226 max~ 0;
#X obj 310 145 hsl 170 20 0 1 0 0 empty empty empty -2 -10 0 12 #fcfcfc #000000 #000000 0 1;
#X obj 307 170 pow 4;
#X obj 180 468 hip~ 5;
#X floatatom 307 195 5 0 0 0 - - - 0;
#X obj 148 188 -~ 0.32;
#X obj 365 195 tgl 20 0 empty empty empty 0 -10 0 12 #fcfcfc #000000 #000000 0 1;
#X obj 148 348 *~;
#X obj 365 220 bob~ 40;
#X obj 418 186 sig~ 100;
#X obj 489 187 sig~ 2.8;
#X obj 33 222 bp~ 340 10;
#X obj 21 256 bp~ 120 10;
#X obj 30 297 bp~ 700 5;
#X obj 180 524 atan~;
#X obj 691 431 bng 18 250 50 0 empty empty empty 0 -9 0 10 #fcfcfc #000000 #000000;
#X obj 148 301 bp~ 1000 0.2;
#X obj 365 245 *~ 1;
#X obj 339 304 lop~ 100;
#X obj 148 269 *~ 1;
#X obj 445 458 hip~ 700;
#X obj 717 129 beatFollower~/beatFollower~;
#X floatatom 717 154 5 0 0 0 - - - 0;
#X msg 732 186 60000 \$1;
#X obj 732 211 /;
#X floatatom 732 236 5 0 0 0 - - - 0;
#X obj 445 427 hip~ 300;
#X floatatom 262 170 5 0 0 0 - - - 0;
#X msg 650 104 0.72 1000;
#X obj 515 144 line;
#X obj 457 41 bng 20 250 50 0 empty empty empty 0 -10 0 12 #fcfcfc #000000 #000000;
#X msg 406 107 1;
#X msg 674 496 0;
#X obj 568 25 b;
#X msg 561 104 0.82 30000;
#X msg 457 103 0.8 \, 0.72 500;
#X msg 531 463 2;
#X obj 446 494 bp~ 1200 2;
#X obj 830 221 bng 20 250 50 0 empty empty empty 0 -10 0 12 #fcfcfc #000000 #000000;
#X obj 891 85 bng 20 250 50 0 empty empty empty 0 -10 0 12 #fcfcfc #000000 #000000;
#X obj 718 465 del 2000;
#X obj 889 557 s toGem;
#X msg 831 487 disque down \$1;
#X obj 834 388 hsl 170 20 0 1 0 0 empty empty empty -2 -10 0 12 #fcfcfc #000000 #000000 0 1;
#X msg 1028 507 disque pos \$1;
#X obj 1108 152 bng 20 250 50 0 empty empty empty 0 -10 0 12 #fcfcfc #000000 #000000;
#X msg 1055 362 0 2000;
#X obj 1078 412 line, f 11;
#X msg 1116 361 0.25 1500;
#X obj 1087 264 sel 0 1 2 3 4 5;
#X msg 1196 360 1 2000;
#X obj 865 419 line, f 10;
#X msg 1257 385 \$2;
#X obj 1257 410 del;
#X msg 1196 386 \$2;
#X obj 1196 448 del;
#X obj 759 374 == 1;
#X obj 759 399 change;
#X obj 759 424 sel 0 1;
#X msg 964 362 0 2000;
#X obj 597 162 del 1000;
#X msg 1342 358 0.5 1000;
#X msg 1134 443 \$2;
#X obj 1134 505 del;
#X obj 1134 474 + 800;
#X msg 964 430 \$2;
#X obj 964 492 del;
#X obj 964 461 + 1200;
#X obj 447 549 *~;
#X obj 220 694 *~;
#X obj 179 496 *~ 2;
#X msg 1138 44 symbol /home/metalu/Documents/10ans_99bis/JukeBox/GemPart/audioVisu/meiteisho3.wav;
#X msg 1090 -14 symbol /home/metalu/Documents/10ans_99bis/JukeBox/GemPart/audioVisu/OpenEyesSignal.wav;
#X obj 1224 170 sfread2~ 2;
#X obj 1090 106 symbol;
#X msg 1080 179 0;
#X floatatom 1287 225 8 0 0 0 - - - 0;
#X obj 1454 329 vsl 15 128 -1.1 1.1 0 0 empty empty speed 0 -8 1 8 #fcac44 #000000 #000000 0 1;
#X floatatom 1332 172 8 0 0 0 - - - 0;
#X msg 1224 143 open \$1;
#X obj 1303 250 /;
#X obj 1435 129 metro 100;
#X obj 1435 101 tgl 20 0 empty empty empty 0 -10 0 12 #fcfcfc #000000 #000000 0 1;
#X msg 1454 465 \$1 30;
#X obj 1454 490 line;
#X obj 1517 331 r fromGem;
#X obj 1517 356 route excentre;
#X obj 1517 406 + 1;
#X obj 445 395 +~;
#X obj 1517 381 * 0.04;
#X obj 1196 417 + 100;
#X msg 1257 360 0.5 1000;
#X msg 542 54 0.76 1000;
#X obj 591 79 del 1100;
#X obj 1080 207 bng 20 250 50 0 empty empty empty 0 -10 0 12 #fcfcfc #000000 #000000;
#X obj 552 581 f;
#X obj 552 606 * -1;
#X obj 552 631 + 1;
#X msg 309 616 \$1 10;
#X obj 309 641 line~;
#X msg 483 529 \$1 10;
#X obj 483 554 line~;
#X obj 555 552 hsl 170 20 0 1 0 0 empty empty empty -2 -10 0 12 #fcfcfc #000000 #000000 0 1;
#X obj 1586 391 * 0.02;
#X msg 625 661 disque vinyl \$1;
#X obj 1590 34 r TUNE;
#X obj 1590 59 symbol;
#X obj 1670 168 s toGem;
#X msg 1670 137 tune \$1;
#X obj 1674 328 s TUNE;
#X msg 1674 299 aldebert;
#X msg 1590 84 symbol data/tunes/\$1/tune.wav;
#X obj 1303 279 change;
#X obj 1303 304 * 0.25;
#X obj 1303 329 + 0.5;
#X floatatom 1330 560 5 0 0 0 - - - 0;
#X obj 1563 477 hsl 170 20 1 20 1 0 empty empty empty -2 -10 0 12 #fcfcfc #000000 #000000 0 1;
#X msg 1138 145 1;
#X obj 1202 316 t b b;
#X msg 1254 314 0;
#X obj 1164 304 bng 20 250 50 0 empty empty empty 0 -10 0 12 #fcfcfc #000000 #000000;
#X floatatom 1241 252 5 0 0 0 - - - 0;
#X msg 1333 129 index \, state;
#X obj 1287 200 route index;
#X obj 1417 198 route float;
#X obj 1417 223 change;
#X obj 1460 271 print STATUS;
#X obj 1417 248 sel 0;
#X obj 71 774 lout \$0 \$1 2;
#X obj 182 776 lout \$0 \$1 3;
#X obj 70 475 hip~ 5;
#X obj 70 531 atan~;
#X obj 69 503 *~ 2;
#X obj 148 380 +~;
#X obj 253 694 *~;
#X obj 99 34 pow 3;
#X obj 99 57 s \$0-Master;
#X obj 100 10 r \$1-TurntableMaster-snd;
#X obj 29 323 *~ 0.7;
#X obj 25 356 bp~ 2200 5;
#X obj 3 334 tgl 20 0 empty empty empty 0 -10 0 12 #fcfcfc #000000 #000000 0 1;
#X obj 24 382 *~ 0.7;
#X obj 1225 672 throw~ TuneAudio;
#X obj 1225 643 hip~ 10;
#X obj 881 663 r Turntable-ctl;
#X obj 881 688 route start stop vinyl speed;
#X obj 1197 709 s~ TuneAudio;
#X obj 70 740 *~ 1;
#X obj 181 746 *~ 1;
#X obj 647 756 loadbang;
#X msg 647 781 1;
#X obj 1058 597 del;
#X msg 1058 572 \$2;
#X obj 1092 572 r \$0-stopdels;
#X obj 1248 458 r \$0-stopdels;
#X obj 1058 622 s ENDOFTUNE;
#X connect 0 0 1 0;
#X connect 1 0 2 0;
#X connect 2 0 3 0;
#X connect 4 0 5 0;
#X connect 5 0 6 0;
#X connect 6 0 12 0;
#X connect 7 0 26 0;
#X connect 8 0 9 0;
#X connect 8 0 34 0;
#X connect 9 0 11 0;
#X connect 9 0 12 1;
#X connect 10 0 77 0;
#X connect 12 0 7 0;
#X connect 13 0 15 0;
#X connect 13 0 18 0;
#X connect 13 0 19 0;
#X connect 13 0 20 0;
#X connect 13 0 25 0;
#X connect 13 0 146 0;
#X connect 14 0 140 0;
#X connect 15 0 24 0;
#X connect 16 0 15 1;
#X connect 17 0 15 2;
#X connect 18 0 140 0;
#X connect 19 0 140 0;
#X connect 20 0 145 0;
#X connect 21 0 155 0;
#X connect 22 0 35 0;
#X connect 22 0 47 0;
#X connect 23 0 14 0;
#X connect 24 0 14 0;
#X connect 25 0 14 1;
#X connect 26 0 23 0;
#X connect 27 0 44 0;
#X connect 28 0 29 0;
#X connect 28 0 45 0;
#X connect 29 0 30 0;
#X connect 30 0 31 0;
#X connect 31 0 32 0;
#X connect 33 0 27 0;
#X connect 35 0 36 0;
#X connect 36 0 8 0;
#X connect 37 0 42 0;
#X connect 37 0 38 0;
#X connect 38 0 13 0;
#X connect 39 0 13 0;
#X connect 40 0 99 0;
#X connect 40 0 67 0;
#X connect 40 0 100 0;
#X connect 41 0 36 0;
#X connect 42 0 36 0;
#X connect 43 0 44 2;
#X connect 44 0 75 0;
#X connect 46 0 28 1;
#X connect 49 0 48 0;
#X connect 50 0 49 0;
#X connect 51 0 48 0;
#X connect 52 0 80 0;
#X connect 52 0 124 0;
#X connect 53 0 54 0;
#X connect 53 0 159 0;
#X connect 54 0 51 0;
#X connect 55 0 54 0;
#X connect 55 0 69 0;
#X connect 57 0 58 0;
#X connect 57 0 61 0;
#X connect 58 0 49 0;
#X connect 58 0 63 0;
#X connect 59 0 60 0;
#X connect 60 0 40 0;
#X connect 61 0 97 0;
#X connect 62 0 98 0;
#X connect 63 0 64 0;
#X connect 64 0 65 0;
#X connect 65 0 39 0;
#X connect 65 0 82 0;
#X connect 65 1 37 0;
#X connect 66 0 58 0;
#X connect 66 0 72 0;
#X connect 66 0 82 0;
#X connect 67 0 52 0;
#X connect 69 0 71 0;
#X connect 70 0 57 0;
#X connect 71 0 70 0;
#X connect 72 0 74 0;
#X connect 73 0 53 0;
#X connect 74 0 73 0;
#X connect 75 0 14 0;
#X connect 76 0 154 0;
#X connect 77 0 21 0;
#X connect 78 0 81 0;
#X connect 79 0 81 0;
#X connect 80 0 95 0;
#X connect 80 0 150 0;
#X connect 80 1 141 0;
#X connect 80 1 150 0;
#X connect 80 2 130 0;
#X connect 80 3 85 0;
#X connect 81 0 86 0;
#X connect 82 0 80 0;
#X connect 82 0 101 0;
#X connect 83 0 87 0;
#X connect 84 0 90 0;
#X connect 85 0 87 1;
#X connect 86 0 80 0;
#X connect 87 0 119 0;
#X connect 88 0 129 0;
#X connect 89 0 88 0;
#X connect 90 0 91 0;
#X connect 91 0 80 1;
#X connect 92 0 93 0;
#X connect 93 0 96 0;
#X connect 94 0 84 0;
#X connect 95 0 33 0;
#X connect 95 0 76 0;
#X connect 96 0 94 0;
#X connect 97 0 62 0;
#X connect 98 0 54 0;
#X connect 98 0 59 0;
#X connect 99 0 36 0;
#X connect 100 0 41 0;
#X connect 102 0 103 0;
#X connect 102 0 107 0;
#X connect 102 0 110 0;
#X connect 102 0 111 0;
#X connect 103 0 104 0;
#X connect 104 0 105 0;
#X connect 105 0 106 0;
#X connect 106 0 76 1;
#X connect 106 0 141 1;
#X connect 107 0 108 0;
#X connect 108 0 75 1;
#X connect 109 0 102 0;
#X connect 110 0 96 1;
#X connect 111 0 48 0;
#X connect 112 0 113 0;
#X connect 113 0 118 0;
#X connect 113 0 115 0;
#X connect 115 0 114 0;
#X connect 117 0 116 0;
#X connect 118 0 81 0;
#X connect 119 0 120 0;
#X connect 119 0 128 0;
#X connect 120 0 121 0;
#X connect 121 0 122 0;
#X connect 121 0 54 0;
#X connect 123 0 94 1;
#X connect 124 0 89 0;
#X connect 125 0 66 0;
#X connect 125 1 126 0;
#X connect 126 0 89 0;
#X connect 129 0 80 0;
#X connect 130 0 83 0;
#X connect 130 1 131 0;
#X connect 131 0 132 0;
#X connect 132 0 134 0;
#X connect 134 0 125 0;
#X connect 137 0 139 0;
#X connect 138 0 154 0;
#X connect 139 0 138 0;
#X connect 140 0 10 0;
#X connect 140 0 137 0;
#X connect 141 0 155 0;
#X connect 142 0 143 0;
#X connect 144 0 142 0;
#X connect 145 0 140 0;
#X connect 146 0 148 0;
#X connect 147 0 146 0;
#X connect 148 0 140 0;
#X connect 150 0 149 0;
#X connect 150 0 153 0;
#X connect 151 0 152 0;
#X connect 152 0 55 0;
#X connect 152 1 66 0;
#X connect 152 2 109 0;
#X connect 152 3 94 1;
#X connect 154 0 135 0;
#X connect 155 0 136 0;
#X connect 156 0 157 0;
#X connect 157 0 109 0;
#X connect 158 0 162 0;
#X connect 159 0 158 0;
#X connect 160 0 158 0;
