#N canvas 231 336 390 426 10;
#X obj 51 234 outlet~;
#X obj 50 0 inlet;
#X obj 102 140 symbol wavs/\$1.wav;
#X msg 102 161 stop \, open \$1;
#X msg 50 62 start;
#X obj 132 68 loadbang;
#X obj 50 87 readsfv~ 2;
#X obj 130 45 bng 15 250 50 0 empty empty empty 17 7 0 10 -262144 -1
-1;
#X obj 247 53 init \$2;
#X obj 247 78 sel 0;
#X obj 274 104 f;
#X obj 306 7 inlet speed;
#X obj 206 9 inlet file;
#X msg 274 125 speed \$1;
#X msg 247 98 1;
#X obj 107 109 t b b;
#X connect 1 0 4 0;
#X connect 2 0 3 0;
#X connect 3 0 6 0;
#X connect 4 0 6 0;
#X connect 5 0 15 0;
#X connect 6 0 0 0;
#X connect 6 1 0 0;
#X connect 6 2 15 0;
#X connect 7 0 5 0;
#X connect 8 0 9 0;
#X connect 9 0 14 0;
#X connect 9 1 10 0;
#X connect 10 0 13 0;
#X connect 11 0 10 0;
#X connect 12 0 2 1;
#X connect 13 0 6 0;
#X connect 14 0 10 0;
#X connect 15 0 10 0;
#X connect 15 1 2 0;
