#N canvas 842 497 629 479 10;
#X declare -stdlib zexy;
#X declare -stdpath AutoPreset;
#X declare -stdpath nusmuk-utils;
#X declare -stdpath moonlib;
#X declare -lib creb;
#X declare -path AutoPreset;
#X declare -lib iemlib1 -stdpath iemlib;
#X declare -lib iemlib -path iemlib -path creb -lib creb -path zexy -lib zexy -path nusmuk-utils -path ggee -path moonlib;
#N canvas 663 76 675 271 DECLARES/AP/PATHS 0;
#X obj 37 43 declare -stdlib zexy;
#X obj 37 62 declare -stdpath AutoPreset;
#X obj 37 24 declare -stdpath nusmuk-utils;
#X obj 37 81 declare -stdpath moonlib;
#X obj 41 164 apmaster ALL;
#X obj 41 235 apmasterfile ALL preset.txt;
#X obj 225 216 bng 15 250 50 0 empty empty empty 17 7 0 10 #fc0400 #000000 #000000;
#X obj 41 214 bng 15 250 50 0 empty empty empty 17 7 0 10 #00fc04 #000000 #000000;
#X obj 41 190 loadbang;
#X obj 292 161 bng 15 250 50 0 empty empty empty 17 7 0 10 #fcfcfc #000000 #000000;
#X obj 292 138 loadbang;
#X msg 292 183 \; pd dsp 1;
#X obj 37 101 declare -lib creb;
#X obj 272 44 declare -path AutoPreset;
#X obj 272 22 declare -lib iemlib1 -stdpath iemlib;
#X obj 265 75 declare -lib iemlib -path iemlib -path creb -lib creb -path zexy -lib zexy -path nusmuk-utils -path ggee -path moonlib;
#X connect 6 0 5 1;
#X connect 7 0 5 0;
#X connect 8 0 7 0;
#X connect 9 0 11 0;
#X connect 10 0 9 0;
#X restore 261 10 pd DECLARES/AP/PATHS;
#X obj 47 147 specCtl SPEC;
#X obj 315 216 s spotsAngleOffset;
#X floatatom 315 197 5 0 0 0 - - - 0;
#X obj 315 153 loadbang;
#X msg 315 175 80;
#X obj 46 116 gemVisual;
#X obj 46 33 inlet;
#X obj 97 68 r fromAudio;
#X obj 97 91 route fft;
#X obj 258 47 inlet;
#X obj 258 70 route settings;
#X msg 258 91 vis 1;
#X obj 258 113 s pd-SPEC-settings;
#X obj 47 312 s audioVisu-toShader;
#X obj 449 128 loadbang;
#X obj 449 151 tgl 18 0 empty empty empty 0 -9 0 10 #fcfcfc #000000 #000000 0 1;
#X obj 449 243 s SPEC-fadeToScene;
#X obj 449 198 random 8;
#X obj 449 174 metro 5000;
#X msg 449 220 \$1 15000;
#X connect 1 0 14 0;
#X connect 3 0 2 0;
#X connect 4 0 5 0;
#X connect 5 0 3 0;
#X connect 7 0 6 0;
#X connect 8 0 9 0;
#X connect 9 0 6 1;
#X connect 10 0 11 0;
#X connect 11 0 12 0;
#X connect 12 0 13 0;
#X connect 15 0 16 0;
#X connect 16 0 19 0;
#X connect 18 0 20 0;
#X connect 19 0 18 0;
#X connect 20 0 17 0;
