#N canvas 121 39 532 454 10;
#X declare -stdlib zexy;
#X declare -stdpath AutoPreset;
#X declare -stdpath nusmuk-utils;
#X declare -stdpath moonlib;
#X declare -lib pof -lib iemlib1 -stdpath iemlib;
#X declare -lib creb;
#X declare -path AutoPreset;
#X declare -lib pof -lib iemlib -path iemlib -path creb -lib creb -path zexy -lib zexy -path nusmuk-utils -path ggee -path moonlib;
#X obj 128 134 dac~;
#N canvas 895 347 541 429 POFWIN 0;
#X obj 161 277 pofwin;
#X msg 308 173 framerate \$1;
#X msg 308 133 30;
#X msg 342 133 50;
#X msg 374 133 60;
#X floatatom 308 155 5 0 0 0 - - - 0;
#X msg 310 204 cursor 0;
#X msg 161 121 background 0 0 0 1;
#X msg 104 191 build;
#X msg 203 162 666;
#X floatatom 202 189 5 0 0 0 - - - 0;
#X obj 81 78 b;
#X obj 215 385 s VISUAL_COMPUTE;
#X msg 215 342 1;
#X msg 81 337 1;
#X obj 81 380 s VISUAL_SHOW;
#X obj 81 151 del 1000;
#X obj 81 315 del 1000;
#X obj 215 320 del 1000;
#X msg 322 312 0;
#X msg 135 338 0;
#X msg 206 59 window 640 480 1 \, framerate 60 \, cursor 0;
#X obj 81 30 b;
#X msg 212 92 window 1024 1024 0 \, framerate 60 \, cursor 1;
#X obj 128 17 inlet;
#X connect 1 0 0 0;
#X connect 2 0 5 0;
#X connect 3 0 5 0;
#X connect 4 0 5 0;
#X connect 5 0 1 0;
#X connect 6 0 0 0;
#X connect 7 0 0 0;
#X connect 8 0 0 0;
#X connect 8 0 9 0;
#X connect 9 0 10 0;
#X connect 11 0 7 0;
#X connect 11 0 16 0;
#X connect 13 0 12 0;
#X connect 14 0 15 0;
#X connect 16 0 8 0;
#X connect 16 0 17 0;
#X connect 17 0 14 0;
#X connect 17 0 18 0;
#X connect 18 0 13 0;
#X connect 19 0 12 0;
#X connect 20 0 15 0;
#X connect 21 0 0 0;
#X connect 22 0 11 0;
#X connect 22 0 23 0;
#X connect 23 0 0 0;
#X connect 24 0 22 0;
#X restore 233 51 pd POFWIN;
#N canvas 663 76 675 271 DECLARES/AP/PATHS 0;
#X obj 37 43 declare -stdlib zexy;
#X obj 37 62 declare -stdpath AutoPreset;
#X obj 37 24 declare -stdpath nusmuk-utils;
#X obj 37 81 declare -stdpath moonlib;
#X obj 41 164 apmaster ALL;
#X obj 41 235 apmasterfile ALL preset.txt;
#X obj 225 216 bng 15 250 50 0 empty empty empty 17 7 0 10 #fc0400 #000000 #000000;
#X obj 41 214 bng 15 250 50 0 empty empty empty 17 7 0 10 #00fc04 #000000 #000000;
#X obj 41 190 loadbang;
#X obj 295 125 bng 15 250 50 0 empty empty empty 17 7 0 10 #fcfcfc #000000 #000000;
#X obj 295 102 loadbang;
#X msg 295 147 \; pd dsp 1;
#X obj 272 22 declare -lib pof -lib iemlib1 -stdpath iemlib;
#X obj 37 101 declare -lib creb;
#X obj 272 44 declare -path AutoPreset;
#X obj 359 87 declare -lib pof -lib iemlib -path iemlib -path creb -lib creb -path zexy -lib zexy -path nusmuk-utils -path ggee -path moonlib;
#X connect 6 0 5 1;
#X connect 7 0 5 0;
#X connect 8 0 7 0;
#X connect 9 0 11 0;
#X connect 10 0 9 0;
#X restore 233 22 pd DECLARES/AP/PATHS;
#N canvas 76 333 715 587 AUDIO_SRC 0;
#X obj 162 232 osc~;
#X obj 233 32 tgl 15 0 empty empty empty 17 7 0 10 #fcfcfc #000000 #000000 0 1;
#X obj 233 102 + 10;
#X obj 233 55 metro 5;
#X obj 233 80 random 20000;
#X obj 233 122 f;
#X msg 277 29 5;
#X msg 317 26 500;
#X msg 162 321 stop;
#X obj 164 71 mtof;
#X floatatom 162 53 5 0 0 0 - - - 0;
#X obj 162 116 line~;
#X msg 162 94 \$1 50;
#X floatatom 292 54 5 0 0 0 - - - 0;
#X obj 162 255 *~;
#X obj 288 127 metro 500;
#X obj 361 167 del 100;
#X msg 376 190 0;
#X msg 296 160 1;
#X obj 303 104 tgl 15 0 empty empty empty 17 7 0 10 #fcfcfc #000000 #000000 0 1;
#X floatatom 117 122 5 0 0 0 - - - 0;
#X obj 333 187 bng 15 250 50 0 empty empty empty 17 7 0 10 #fcfcfc #000000 #000000;
#X obj 47 45 adc~;
#X obj 163 434 outlet~;
#X obj 380 107 motex/getenv HOME;
#X obj 380 50 bng 15 250 50 0 empty empty empty 17 7 0 10 #fcfcfc #000000 #000000;
#X msg 380 128 symbol \$1/Datas/FTBOPEV/;
#X obj 380 150 s DATASDIR;
#X obj 380 27 loadbang;
#X obj 493 214 r CLOCK;
#X obj 551 214 r MANUAL;
#X obj 493 236 spigot;
#X obj 493 260 bng 15 250 50 0 empty empty empty 17 7 0 10 #fcfcfc #000000 #000000;
#X obj 227 158 *~;
#X obj 227 181 *~;
#X obj 227 201 *~;
#X obj 227 224 *~;
#X obj 355 520 outlet~;
#X obj 285 233 ead~ 1 100;
#X obj 163 203 +~ 40;
#X obj 162 181 *~ 1000, f 8;
#X obj 57 290 osc~;
#X obj 57 313 *~;
#X obj 58 261 +~ 40;
#X obj 57 239 *~ 10000;
#N canvas 225 301 484 444 testsig 0;
#X obj 123 35 inlet~;
#X obj 123 57 env~;
#X obj 123 79 t f f;
#X obj 124 106 -;
#X obj 124 147 == 0;
#X obj 124 189 sel 1 0;
#X obj 124 237 del 3000;
#X msg 147 214 stop;
#X msg 190 214 0;
#X msg 124 260 1;
#X obj 124 282 change;
#X obj 124 169 change;
#X obj 248 270 del 30000;
#X msg 248 292 set -1;
#X msg 124 394 \; pd dsp \$1;
#X msg 124 371 0 \, 1;
#X obj 85 334 bng 15 250 50 0 empty empty empty 17 7 0 10 #fcfcfc #000000 #000000;
#X obj 124 304 metro 5000;
#X connect 0 0 1 0;
#X connect 1 0 2 0;
#X connect 2 0 3 1;
#X connect 2 1 3 0;
#X connect 3 0 4 0;
#X connect 4 0 11 0;
#X connect 5 0 6 0;
#X connect 5 1 7 0;
#X connect 5 1 8 0;
#X connect 6 0 9 0;
#X connect 7 0 6 0;
#X connect 8 0 10 0;
#X connect 9 0 10 0;
#X connect 10 0 17 0;
#X connect 11 0 5 0;
#X connect 12 0 13 0;
#X connect 13 0 11 0;
#X connect 15 0 14 0;
#X connect 17 0 15 0;
#X connect 17 0 16 0;
#X restore 27 138 pd testsig;
#X obj 180 391 readsf~ 2 1e+06;
#X obj 180 345 openpanel;
#X msg 180 368 stop \, open \$1 \, start;
#X msg 250 319 symbol /home/antoine/Documents/MetaluNetProjects/10ans_9.9bis/audioVisu/OpenEyesSignal.wav;
#X msg 250 296 set symbol \$1;
#X obj 363 402 bng 18 250 50 0 empty empty empty 0 -9 0 10 #fcfcfc #000000 #000000;
#X obj 283 391 del 50;
#X obj 238 507 *~;
#X obj 233 533 dac~;
#X obj 260 469 hsl 153 18 0.001 1 1 0 empty empty empty -2 -9 0 10 #fcfcfc #000000 #000000 0 1;
#X obj 208 296 bng 18 250 50 0 empty empty empty 0 -9 0 10 #fcfcfc #000000 #000000;
#X connect 0 0 14 0;
#X connect 1 0 3 0;
#X connect 2 0 5 0;
#X connect 3 0 4 0;
#X connect 4 0 2 0;
#X connect 5 0 11 0;
#X connect 6 0 3 1;
#X connect 7 0 3 1;
#X connect 8 0 48 0;
#X connect 9 0 12 0;
#X connect 9 0 20 0;
#X connect 10 0 9 0;
#X connect 12 0 11 0;
#X connect 13 0 3 1;
#X connect 14 0 37 0;
#X connect 15 0 16 0;
#X connect 15 0 18 0;
#X connect 15 0 38 0;
#X connect 16 0 17 0;
#X connect 19 0 15 0;
#X connect 21 0 38 0;
#X connect 22 0 23 0;
#X connect 22 0 45 0;
#X connect 24 0 26 0;
#X connect 25 0 24 0;
#X connect 26 0 27 0;
#X connect 28 0 25 0;
#X connect 29 0 31 0;
#X connect 30 0 31 1;
#X connect 31 0 32 0;
#X connect 32 0 21 0;
#X connect 33 0 34 0;
#X connect 33 0 34 1;
#X connect 34 0 35 0;
#X connect 34 0 35 1;
#X connect 35 0 36 0;
#X connect 35 0 36 1;
#X connect 36 0 40 0;
#X connect 36 0 44 0;
#X connect 38 0 14 1;
#X connect 38 0 33 0;
#X connect 38 0 33 1;
#X connect 38 0 42 1;
#X connect 39 0 0 0;
#X connect 40 0 39 0;
#X connect 41 0 42 0;
#X connect 42 0 23 0;
#X connect 43 0 41 0;
#X connect 44 0 43 0;
#X connect 46 0 23 0;
#X connect 46 0 53 0;
#X connect 46 1 23 0;
#X connect 46 2 52 0;
#X connect 47 0 48 0;
#X connect 47 0 50 0;
#X connect 48 0 46 0;
#X connect 49 0 48 0;
#X connect 50 0 49 0;
#X connect 51 0 49 0;
#X connect 52 0 51 0;
#X connect 53 0 54 0;
#X connect 53 0 54 1;
#X connect 55 0 53 1;
#X connect 56 0 47 0;
#X restore 47 38 pd AUDIO_SRC;
#X obj 40 254 specCtl SPEC;
#X obj 40 419 s toShader;
#X floatatom 47 132 5 0 0 1 FPS - - 0;
#N canvas 8 74 450 300 ANALYS 0;
#X obj 76 141 outlet~;
#N canvas 63 245 681 293 autogain 0;
#X obj 57 31 inlet~;
#N canvas 445 456 450 300 peak-divide 0;
#X obj 176 30 inlet;
#X obj 176 71 max;
#X floatatom 58 126 5 0 0 0 - - - 0;
#X obj 176 237 outlet;
#X obj 176 117 +;
#X floatatom 376 169 5 0 0 0 - - - 0;
#X floatatom 46 242 5 0 0 0 - - - 0;
#X floatatom 264 155 5 0 0 0 - - - 0;
#X floatatom 125 102 5 0 0 0 - - - 0;
#X obj 207 71 * 0.997;
#X floatatom 277 279 5 0 0 0 - - - 0;
#X msg 299 46 0;
#X floatatom 132 236 5 0 0 0 - - - 0;
#X msg 176 190 1 \$1;
#X obj 176 212 /;
#X obj 176 170 + 0.05;
#X obj 176 145 pow 0.7;
#X obj 176 95 * 0.1;
#X obj 210 116 * 0.9;
#X msg 271 233 1 \$1;
#X obj 271 255 /;
#X obj 271 213 + 0.05;
#X obj 271 188 pow 0.7;
#X connect 0 0 1 0;
#X connect 1 0 9 0;
#X connect 1 0 17 0;
#X connect 1 0 8 0;
#X connect 4 0 16 0;
#X connect 4 0 18 0;
#X connect 7 0 22 0;
#X connect 9 0 1 1;
#X connect 11 0 9 0;
#X connect 11 0 18 0;
#X connect 13 0 14 0;
#X connect 14 0 3 0;
#X connect 14 0 12 0;
#X connect 15 0 13 0;
#X connect 16 0 15 0;
#X connect 17 0 4 0;
#X connect 18 0 4 1;
#X connect 19 0 20 0;
#X connect 20 0 10 0;
#X connect 21 0 19 0;
#X connect 22 0 21 0;
#X connect 22 0 5 0;
#X restore 99 103 pd peak-divide;
#X obj 99 79 envrms~;
#X obj 58 189 *~;
#X obj 99 155 line~;
#X msg 99 133 \$1 500;
#X obj 58 211 outlet~;
#X floatatom 166 180 5 0 0 0 - - - 0;
#X obj 166 155 maxlib/speedlim 300;
#X connect 0 0 2 0;
#X connect 0 0 3 0;
#X connect 1 0 5 0;
#X connect 1 0 8 0;
#X connect 2 0 1 0;
#X connect 3 0 6 0;
#X connect 4 0 3 1;
#X connect 5 0 4 0;
#X connect 8 0 7 0;
#X restore 76 77 pd autogain;
#X obj 323 42 env~;
#X obj 323 91 change;
#X obj 323 213 s SOUND-ACTIVE;
#X obj 323 122 sel 0 1;
#X obj 323 144 del 1500;
#X obj 323 191 change;
#X msg 323 166 0;
#X msg 356 166 1;
#X obj 287 216 tgl 15 0 empty empty empty 17 7 0 10 #fcfcfc #000000 #000000 0 1;
#X msg 391 143 stop;
#X obj 323 64 > 58;
#X obj 75 16 inlet~;
#X connect 1 0 0 0;
#X connect 2 0 12 0;
#X connect 3 0 5 0;
#X connect 5 0 6 0;
#X connect 5 1 9 0;
#X connect 5 1 11 0;
#X connect 6 0 8 0;
#X connect 7 0 4 0;
#X connect 7 0 10 0;
#X connect 8 0 7 0;
#X connect 9 0 7 0;
#X connect 11 0 6 0;
#X connect 12 0 3 0;
#X connect 13 0 1 0;
#X connect 13 0 2 0;
#X restore 47 63 pd ANALYS;
#X obj 308 323 s spotsAngleOffset;
#X floatatom 308 304 5 0 0 0 - - - 0;
#X obj 308 260 loadbang;
#X msg 308 282 80;
#X obj 127 70 hip~ 30;
#X obj 128 102 *~ 0.7;
#X obj 197 51 bng 18 250 50 0 empty empty empty 0 -9 0 10 #fcfcfc #000000 #000000;
#X obj 16 182 gemVisual;
#X obj 47 102 pofVisual;
#X connect 3 0 7 0;
#X connect 3 1 12 0;
#X connect 4 0 5 0;
#X connect 7 0 15 0;
#X connect 7 0 16 0;
#X connect 9 0 8 0;
#X connect 10 0 11 0;
#X connect 11 0 9 0;
#X connect 12 0 13 0;
#X connect 13 0 0 0;
#X connect 13 0 0 1;
#X connect 14 0 1 0;
#X connect 16 0 6 0;
