#N canvas 0 0 526 373 12;
#X declare -path iemlib -lib iemlib -path zexy -lib zexy;
#N canvas 639 51 715 587 AUDIO_SRC 0;
#X obj 162 232 osc~;
#X obj 233 32 tgl 15 0 empty empty empty 17 7 0 10 #fcfcfc #000000 #000000 0 1;
#X obj 233 102 + 10;
#X obj 233 55 metro 5;
#X obj 233 80 random 20000;
#X obj 233 122 f;
#X msg 277 29 5;
#X msg 317 26 500;
#X msg 162 321 stop;
#X obj 164 71 mtof;
#X floatatom 162 53 5 0 0 0 - - - 0;
#X obj 162 116 line~;
#X msg 162 94 \$1 50;
#X floatatom 292 54 5 0 0 0 - - - 0;
#X obj 162 255 *~;
#X obj 288 127 metro 500;
#X obj 361 167 del 100;
#X msg 376 190 0;
#X msg 296 160 1;
#X obj 303 104 tgl 15 0 empty empty empty 17 7 0 10 #fcfcfc #000000 #000000 0 1;
#X floatatom 117 122 5 0 0 0 - - - 0;
#X obj 333 187 bng 15 250 50 0 empty empty empty 17 7 0 10 #fcfcfc #000000 #000000;
#X obj 47 45 adc~;
#X obj 163 434 outlet~;
#X obj 380 107 motex/getenv HOME;
#X obj 380 50 bng 15 250 50 0 empty empty empty 17 7 0 10 #fcfcfc #000000 #000000;
#X msg 380 128 symbol \$1/Datas/FTBOPEV/;
#X obj 380 150 s DATASDIR;
#X obj 380 27 loadbang;
#X obj 493 214 r CLOCK;
#X obj 551 214 r MANUAL;
#X obj 493 236 spigot;
#X obj 493 260 bng 15 250 50 0 empty empty empty 17 7 0 10 #fcfcfc #000000 #000000;
#X obj 227 158 *~;
#X obj 227 181 *~;
#X obj 227 201 *~;
#X obj 227 224 *~;
#X obj 355 520 outlet~;
#X obj 285 233 ead~ 1 100;
#X obj 163 203 +~ 40;
#X obj 162 181 *~ 1000, f 8;
#X obj 57 290 osc~;
#X obj 57 313 *~;
#X obj 58 261 +~ 40;
#X obj 57 239 *~ 10000;
#N canvas 225 301 484 444 testsig 0;
#X obj 123 35 inlet~;
#X obj 123 57 env~;
#X obj 123 79 t f f;
#X obj 124 106 -;
#X obj 124 147 == 0;
#X obj 124 189 sel 1 0;
#X obj 124 237 del 3000;
#X msg 147 214 stop;
#X msg 190 214 0;
#X msg 124 260 1;
#X obj 124 282 change;
#X obj 124 169 change;
#X obj 248 270 del 30000;
#X msg 248 292 set -1;
#X msg 124 394 \; pd dsp \$1;
#X msg 124 371 0 \, 1;
#X obj 85 334 bng 15 250 50 0 empty empty empty 17 7 0 10 #fcfcfc #000000 #000000;
#X obj 124 304 metro 5000;
#X connect 0 0 1 0;
#X connect 1 0 2 0;
#X connect 2 0 3 1;
#X connect 2 1 3 0;
#X connect 3 0 4 0;
#X connect 4 0 11 0;
#X connect 5 0 6 0;
#X connect 5 1 7 0;
#X connect 5 1 8 0;
#X connect 6 0 9 0;
#X connect 7 0 6 0;
#X connect 8 0 10 0;
#X connect 9 0 10 0;
#X connect 10 0 17 0;
#X connect 11 0 5 0;
#X connect 12 0 13 0;
#X connect 13 0 11 0;
#X connect 15 0 14 0;
#X connect 17 0 15 0;
#X connect 17 0 16 0;
#X restore 27 138 pd testsig;
#X obj 180 391 readsf~ 2 1e+06;
#X obj 180 345 openpanel;
#X msg 180 368 stop \, open \$1 \, start;
#X msg 250 319 symbol /home/metalu/Documents/10ans_99bis/JukeBox/GemPart/audioVisu/meiteisho3.wav;
#X msg 250 296 set symbol \$1;
#X obj 363 402 bng 18 250 50 0 empty empty empty 0 -9 0 10 #fcfcfc #000000 #000000;
#X obj 283 391 del 50;
#X obj 238 507 *~;
#X obj 233 533 dac~;
#X obj 260 469 hsl 153 18 0.001 1 1 0 empty empty empty -2 -9 0 10 #fcfcfc #000000 #000000 0 1;
#X obj 208 296 bng 18 250 50 0 empty empty empty 0 -9 0 10 #fcfcfc #000000 #000000;
#X obj 9 391 catch~ TuneAudio;
#X obj 10 429 *~ 2;
#X connect 0 0 14 0;
#X connect 1 0 3 0;
#X connect 2 0 5 0;
#X connect 3 0 4 0;
#X connect 4 0 2 0;
#X connect 5 0 11 0;
#X connect 6 0 3 1;
#X connect 7 0 3 1;
#X connect 8 0 48 0;
#X connect 9 0 12 0;
#X connect 9 0 20 0;
#X connect 10 0 9 0;
#X connect 12 0 11 0;
#X connect 13 0 3 1;
#X connect 14 0 37 0;
#X connect 15 0 16 0;
#X connect 15 0 18 0;
#X connect 15 0 38 0;
#X connect 16 0 17 0;
#X connect 19 0 15 0;
#X connect 21 0 38 0;
#X connect 22 0 23 0;
#X connect 22 0 45 0;
#X connect 24 0 26 0;
#X connect 25 0 24 0;
#X connect 26 0 27 0;
#X connect 28 0 25 0;
#X connect 29 0 31 0;
#X connect 30 0 31 1;
#X connect 31 0 32 0;
#X connect 32 0 21 0;
#X connect 33 0 34 0;
#X connect 33 0 34 1;
#X connect 34 0 35 0;
#X connect 34 0 35 1;
#X connect 35 0 36 0;
#X connect 35 0 36 1;
#X connect 36 0 40 0;
#X connect 36 0 44 0;
#X connect 38 0 14 1;
#X connect 38 0 33 0;
#X connect 38 0 33 1;
#X connect 38 0 42 1;
#X connect 39 0 0 0;
#X connect 40 0 39 0;
#X connect 41 0 42 0;
#X connect 42 0 23 0;
#X connect 43 0 41 0;
#X connect 44 0 43 0;
#X connect 46 0 23 0;
#X connect 46 0 53 0;
#X connect 46 1 23 0;
#X connect 46 2 52 0;
#X connect 47 0 48 0;
#X connect 47 0 50 0;
#X connect 48 0 46 0;
#X connect 49 0 48 0;
#X connect 50 0 49 0;
#X connect 51 0 49 0;
#X connect 52 0 51 0;
#X connect 53 0 54 0;
#X connect 53 0 54 1;
#X connect 55 0 53 1;
#X connect 56 0 47 0;
#X connect 57 0 58 0;
#X connect 58 0 23 0;
#X restore 104 101 pd AUDIO_SRC;
#X obj 22 24 declare -path iemlib -lib iemlib -path zexy -lib zexy;
#N canvas 655 244 681 293 autogain 0;
#X obj 57 31 inlet~;
#N canvas 214 213 450 300 peak-divide 0;
#X obj 176 30 inlet;
#X obj 176 71 max;
#X floatatom 58 126 5 0 0 0 - - - 0;
#X obj 176 237 outlet;
#X obj 176 117 +;
#X floatatom 376 169 5 0 0 0 - - - 0;
#X floatatom 46 242 5 0 0 0 - - - 0;
#X floatatom 264 155 5 0 0 0 - - - 0;
#X floatatom 107 148 5 0 0 0 - - - 0;
#X obj 207 71 * 0.997;
#X floatatom 277 279 5 0 0 0 - - - 0;
#X msg 299 46 0;
#X floatatom 132 236 5 0 0 0 - - - 0;
#X msg 176 190 1 \$1;
#X obj 176 212 /;
#X obj 176 95 * 0.1;
#X obj 210 116 * 0.9;
#X msg 271 233 1 \$1;
#X obj 271 255 /;
#X obj 271 213 + 0.05;
#X obj 271 188 pow 0.7;
#X obj 176 145 pow 1;
#X obj 176 170 + 0.15;
#X connect 0 0 1 0;
#X connect 1 0 9 0;
#X connect 1 0 15 0;
#X connect 4 0 16 0;
#X connect 4 0 21 0;
#X connect 7 0 20 0;
#X connect 9 0 1 1;
#X connect 11 0 9 0;
#X connect 11 0 16 0;
#X connect 13 0 14 0;
#X connect 14 0 3 0;
#X connect 15 0 4 0;
#X connect 16 0 4 1;
#X connect 17 0 18 0;
#X connect 18 0 10 0;
#X connect 19 0 17 0;
#X connect 20 0 19 0;
#X connect 20 0 5 0;
#X connect 21 0 22 0;
#X connect 22 0 13 0;
#X restore 99 103 pd peak-divide;
#X obj 99 79 envrms~;
#X obj 58 189 *~;
#X obj 99 155 line~;
#X msg 99 133 \$1 500;
#X obj 58 211 outlet~;
#X floatatom 166 180 5 0 0 0 - - - 0;
#X obj 166 155 maxlib/speedlim 300;
#X connect 0 0 2 0;
#X connect 0 0 3 0;
#X connect 1 0 5 0;
#X connect 1 0 8 0;
#X connect 2 0 1 0;
#X connect 3 0 6 0;
#X connect 4 0 3 1;
#X connect 5 0 4 0;
#X connect 8 0 7 0;
#X restore 103 138 pd autogain;
#X obj 353 132 env~;
#X obj 353 181 change;
#X obj 353 309 s SOUND-ACTIVE;
#X obj 353 212 sel 0 1;
#X obj 353 234 del 1500;
#X obj 353 281 change;
#X msg 353 256 0;
#X msg 386 256 1;
#X obj 317 306 tgl 15 0 empty empty empty 17 7 0 10 #fcfcfc #000000 #000000 0 1;
#X msg 421 233 stop;
#X obj 353 154 > 58;
#X obj 104 210 *~ 0.03;
#X obj 230 189 tgl 20 0 empty empty empty 0 -10 0 12 #fcfcfc #000000 #000000 0 1;
#X obj 231 162 loadbang;
#X obj 103 182 lp10_butt~ 9500;
#N canvas 1320 72 582 316 FFT 0;
#X obj 21 16 inlet~;
#X msg 226 67 set 64 1 0.25;
#X msg 206 46 set 64 4 0.25;
#X obj 20 88 windowing/blackman~;
#X obj 20 114 rfft~;
#X obj 19 143 *~;
#X obj 50 143 *~;
#X obj 19 169 sqrt~;
#X obj 282 21 loadbang;
#X obj 19 265 outlet;
#X msg 268 109 set 2048 64 0.25;
#X msg 404 110 set 2048 \$1 0.25;
#X floatatom 417 77 5 1 128 0 - - - 0;
#X obj 19 196 min~ 1;
#X obj 36 61 *~ 4;
#X obj 36 39 hip~ 20000;
#X msg 254 88 set 2048 32 0.25;
#X obj 493 19 inlet on;
#X obj 227 160 table \$0-hiSpecII 1024;
#X msg 420 149 set 2048 8 1;
#X msg 419 202 set 2048 64 0.125;
#X msg 419 178 set 2048 16 0.5;
#X obj 228 134 switch~ 64 1 0.25;
#X obj 171 136 tgl 15 0 empty empty empty 17 7 0 10 #fcfcfc #000000 #000000 0 1;
#X obj 19 226 pack~;
#X connect 0 0 3 0;
#X connect 0 0 15 0;
#X connect 1 0 22 0;
#X connect 2 0 22 0;
#X connect 3 0 4 0;
#X connect 4 0 5 0;
#X connect 4 0 5 1;
#X connect 4 1 6 0;
#X connect 4 1 6 1;
#X connect 5 0 7 0;
#X connect 6 0 7 0;
#X connect 7 0 13 0;
#X connect 8 0 21 0;
#X connect 10 0 22 0;
#X connect 11 0 22 0;
#X connect 12 0 11 0;
#X connect 13 0 24 0;
#X connect 14 0 3 0;
#X connect 15 0 14 0;
#X connect 16 0 22 0;
#X connect 17 0 22 0;
#X connect 19 0 22 0;
#X connect 20 0 22 0;
#X connect 21 0 22 0;
#X connect 23 0 22 0;
#X connect 24 0 9 0;
#X restore 103 240 pd FFT;
#X obj 103 292 s toGem;
#X obj 103 265 list prepend fft;
#X floatatom 403 102 5 0 0 0 - - - 0;
#X floatatom 420 133 5 0 0 0 - - - 0;
#X connect 0 0 2 0;
#X connect 0 0 3 0;
#X connect 2 0 17 0;
#X connect 3 0 13 0;
#X connect 4 0 6 0;
#X connect 6 0 7 0;
#X connect 6 1 10 0;
#X connect 6 1 12 0;
#X connect 7 0 9 0;
#X connect 8 0 5 0;
#X connect 8 0 11 0;
#X connect 9 0 8 0;
#X connect 10 0 8 0;
#X connect 12 0 7 0;
#X connect 13 0 4 0;
#X connect 14 0 18 0;
#X connect 15 0 18 1;
#X connect 16 0 15 0;
#X connect 17 0 14 0;
#X connect 18 0 20 0;
#X connect 20 0 19 0;
#X connect 22 0 13 1;
