#N canvas 246 73 822 923 12;
#X declare -path Gem -lib Gem;
#X obj 611 560 s GEMSPECINDEX;
#X obj 352 43 declare -path Gem -lib Gem;
#X obj 26 277 t a a a, f 9;
#X obj 56 358 gemframebuffer;
#X obj 406 497 pix_roi;
#X obj 406 592 pix_texture;
#X obj 406 558 pix_set 1024 1024;
#X obj 513 432 loadbang;
#X msg 513 457 GREY;
#X obj 406 266 r GEMSPECINDEX;
#X obj 696 522 print;
#X msg 568 461 RGB;
#X obj 407 675 rectangle 4 4;
#X msg 603 460 RGBA;
#X floatatom 484 648 5 0 0 0 - - - 0;
#X obj 406 344 / 1024;
#X msg 646 461 set 1024 1024;
#N canvas 151 484 714 378 accum 0;
#X obj 49 11 inlet feed;
#X obj 236 13 inlet flush;
#X obj 49 36 t a b, f 7;
#X obj 95 64 i;
#X obj 130 65 + 1;
#X msg 162 32 0;
#X obj 259 149 f;
#X obj 385 15 table \$0-accumtab 32768;
#X obj 49 188 array set \$0-accumtab;
#X obj 121 162 * 1024;
#X obj 331 222 * 1024;
#X obj 259 249 array get \$0-accumtab;
#X msg 259 225 0;
#X obj 259 274 outlet;
#X obj 551 170 i;
#X obj 551 214 mod 1024;
#X obj 533 242 f;
#X obj 236 38 t b b b;
#X obj 533 267 outlet;
#X obj 259 197 t b f, f 10;
#X obj 551 192 + 1;
#X connect 0 0 2 0;
#X connect 1 0 17 0;
#X connect 2 0 8 0;
#X connect 2 1 3 0;
#X connect 2 1 14 0;
#X connect 3 0 4 0;
#X connect 3 0 9 0;
#X connect 4 0 3 1;
#X connect 4 0 6 1;
#X connect 5 0 3 1;
#X connect 5 0 6 1;
#X connect 6 0 19 0;
#X connect 9 0 8 1;
#X connect 10 0 11 1;
#X connect 11 0 13 0;
#X connect 12 0 11 0;
#X connect 14 0 20 0;
#X connect 15 0 14 1;
#X connect 15 0 16 1;
#X connect 16 0 18 0;
#X connect 17 0 5 0;
#X connect 17 1 6 0;
#X connect 17 2 16 0;
#X connect 19 0 12 0;
#X connect 19 1 10 0;
#X connect 20 0 15 0;
#X restore 558 524 pd accum;
#X obj 381 458 t a b;
#X msg 406 373 roi 0 \$1 1 1;
#N canvas 238 139 804 667 _glsl 0;
#X obj 80 426 glsl_program;
#X obj 261 238 bng 15 250 50 0 empty empty empty 0 -6 0 8 #fcfcfc #000000 #000000;
#N canvas 0 22 450 300 open 0;
#X obj 75 103 openpanel;
#X obj 75 173 outlet;
#X obj 75 127 t b s;
#X msg 105 152 set open \$1;
#X obj 75 80 inlet;
#X connect 0 0 2 0;
#X connect 2 0 1 0;
#X connect 2 1 3 0;
#X connect 3 0 1 0;
#X connect 4 0 0 0;
#X restore 204 237 pd open;
#X msg 33 296 print;
#X obj 166 331 change;
#X msg 34 420 print;
#X obj 80 310 glsl_fragment;
#X floatatom 166 355 2 0 0 0 ID - - 0;
#X obj 184 400 print linking;
#X obj 13 52 inlet;
#X obj 80 462 outlet;
#X msg 93 273 open \$1.frag;
#X msg 204 261 open \$1;
#X obj 422 77 inlet;
#X obj 13 75 route bang;
#X obj 140 83 bng 15 250 50 0 empty empty empty 17 7 0 10 #fcfcfc #000000 #000000;
#X obj 140 109 t b b;
#X msg 140 202 symbol \$1/\$2;
#X obj 255 11 gemhead 1;
#X msg 255 33 1;
#X obj 255 57 change;
#X obj 255 81 t b;
#X obj 159 447 change;
#X obj 159 468 t b;
#X obj 159 491 outlet;
#X msg 166 379 link \$1;
#X obj 140 133 symbol gemtexturedcercle;
#X connect 0 0 10 0;
#X connect 0 1 22 0;
#X connect 1 0 2 0;
#X connect 2 0 12 0;
#X connect 3 0 6 0;
#X connect 4 0 7 0;
#X connect 5 0 0 0;
#X connect 6 0 0 0;
#X connect 6 1 4 0;
#X connect 7 0 25 0;
#X connect 9 0 14 0;
#X connect 11 0 6 0;
#X connect 12 0 6 0;
#X connect 13 0 0 0;
#X connect 14 0 16 0;
#X connect 14 1 6 0;
#X connect 15 0 16 0;
#X connect 16 0 26 0;
#X connect 17 0 11 0;
#X connect 18 0 19 0;
#X connect 19 0 20 0;
#X connect 20 0 21 0;
#X connect 21 0 16 0;
#X connect 22 0 23 0;
#X connect 23 0 24 0;
#X connect 25 0 0 0;
#X connect 25 0 8 0;
#X connect 26 0 11 0;
#X restore 111 606 pd _glsl;
#X msg 199 580 fft_history 0;
#X obj 214 435 / 1024;
#X msg 214 457 specindex \$1;
#X obj 265 224 r GEMSPECINDEX;
#X obj 204 525 route f;
#X obj 204 550 list trim;
#X obj 111 556 pix_texture;
#X obj 111 641 rectangle 4 4;
#X obj 155 492 tgl 20 0 empty empty empty 0 -10 0 12 #fcfcfc #000000 #000000 0 1;
#X floatatom 148 690 5 0 0 0 - - - 0;
#X obj 68 605 bng 20 250 50 0 empty empty empty 0 -10 0 12 #fcfcfc #000000 #000000;
#X msg 199 608 histTex 0;
#X obj 278 267 * -1;
#X obj 278 294 + 1024;
#X obj 78 304 loadbang;
#X obj 112 527 spigot 1;
#X obj 26 389 pix_texture;
#X obj 57 415 alpha;
#X msg 77 329 format RGB \, dimen 1024 1024;
#X obj 57 444 translateXYZ 0 0 -4;
#X floatatom 280 396 5 0 0 0 - - - 0;
#X obj 72 525 tgl 20 0 empty empty empty 0 -10 0 12 #fcfcfc #000000 #000000 0 1;
#X obj 26 560 spigot 1;
#X obj 214 410 + 8;
#X obj 214 385 * 1;
#X floatatom 88 810 5 0 0 0 - - - 0;
#X obj 26 211 inlet;
#X obj 26 244 separator;
#X obj 406 617 spigot;
#X obj 461 616 tgl 20 0 empty empty empty 0 -10 0 12 #fcfcfc #000000 #000000 0 1;
#X obj 57 470 t a a;
#X obj 242 701 tgl 20 0 empty empty empty 0 -10 0 12 #fcfcfc #000000 #000000 0 1;
#X obj 189 727 spigot 0;
#X obj 242 672 r ALL_WHITE;
#X obj 189 786 rectangle 4 4;
#X obj 558 276 inlet fftVector;
#X obj 26 763 rectangle 1 1;
#X obj 204 500 r audioVisu-toShader;
#X obj 26 735 rotate 90 0 0 1;
#X obj 26 648 separator;
#X obj 26 692 colorRGB 1 1 1 1;
#X obj 141 836 hsl 170 20 0 1 0 0 empty empty empty -2 -10 0 12 #fcfcfc #000000 #000000 0 1;
#X obj 549 718 r fromAudio;
#X obj 549 743 route light;
#X obj 549 829 * 0.9;
#X obj 549 854 + 0.15;
#X msg 412 762 0;
#X obj 549 793 line;
#X msg 549 768 \$1 20;
#X connect 2 0 37 0;
#X connect 2 1 3 0;
#X connect 2 2 18 0;
#X connect 3 0 38 0;
#X connect 3 1 37 1;
#X connect 4 0 6 0;
#X connect 5 0 49 0;
#X connect 5 1 27 1;
#X connect 6 0 5 0;
#X connect 7 0 8 0;
#X connect 8 0 6 0;
#X connect 9 0 15 0;
#X connect 11 0 6 0;
#X connect 13 0 6 0;
#X connect 14 0 12 1;
#X connect 14 0 12 2;
#X connect 15 0 19 0;
#X connect 16 0 6 0;
#X connect 17 0 6 1;
#X connect 17 1 0 0;
#X connect 18 0 4 0;
#X connect 18 1 17 1;
#X connect 19 0 4 0;
#X connect 20 0 28 0;
#X connect 21 0 20 1;
#X connect 22 0 23 0;
#X connect 23 0 20 1;
#X connect 24 0 33 0;
#X connect 25 0 26 0;
#X connect 26 0 20 1;
#X connect 27 0 20 0;
#X connect 29 0 36 1;
#X connect 30 0 28 1;
#X connect 30 0 28 2;
#X connect 31 0 20 0;
#X connect 32 0 20 1;
#X connect 33 0 34 0;
#X connect 34 0 45 0;
#X connect 35 0 39 0;
#X connect 36 0 27 0;
#X connect 37 0 43 0;
#X connect 38 0 40 0;
#X connect 39 0 3 0;
#X connect 40 0 51 0;
#X connect 41 0 44 1;
#X connect 42 0 43 1;
#X connect 43 0 60 0;
#X connect 44 0 22 0;
#X connect 45 0 44 0;
#X connect 46 0 57 1;
#X connect 46 0 57 2;
#X connect 47 0 48 0;
#X connect 48 0 2 0;
#X connect 49 0 12 0;
#X connect 50 0 49 1;
#X connect 51 0 53 0;
#X connect 51 1 36 0;
#X connect 52 0 53 1;
#X connect 53 0 55 0;
#X connect 54 0 52 0;
#X connect 56 0 17 0;
#X connect 58 0 25 0;
#X connect 59 0 57 0;
#X connect 60 0 61 0;
#X connect 61 0 59 0;
#X connect 62 0 61 1;
#X connect 62 0 61 2;
#X connect 62 0 61 3;
#X connect 63 0 64 0;
#X connect 64 0 69 0;
#X connect 65 0 66 0;
#X connect 66 0 62 0;
#X connect 67 0 65 0;
#X connect 68 0 65 0;
#X connect 69 0 68 0;
