#N canvas 613 267 1084 515 12;
#X obj 33 20 inlet;
#X obj 33 45 separator;
#X obj 33 471 text2d;
#X floatatom 208 439 5 0 0 0 - - - 0;
#X msg 73 414 font lcd-bold.ttf;
#X obj 145 37 route text show;
#X obj 73 387 loadbang;
#X obj 756 146 loadbang;
#X msg 626 227 10;
#X obj 626 252 list tosymbol;
#X obj 325 49 del 2000;
#X msg 325 74 0;
#X obj 331 12 bng 20 250 50 0 empty empty empty 0 -10 0 12 #fcfcfc #000000 #000000;
#X msg 290 75 1;
#X obj 290 100 change;
#X obj 290 125 t f f;
#X obj 290 182 tgl 20 0 empty empty empty 0 -10 0 12 #fcfcfc #000000 #000000 0 1;
#X msg 371 181 0;
#X obj 371 156 b;
#X obj 290 157 metro 200;
#X obj 145 12 r Warning;
#X obj 145 70 list prepend text;
#X obj 145 95 list trim;
#X obj 418 20 r fromAudio;
#X obj 418 70 s Warning;
#X obj 33 205 colorRGB 0.4 0 0 0;
#X obj 418 45 route warning diesel gene comp, f 52;
#X obj 598 73 * 2;
#X obj 688 74 * 4;
#X obj 520 110 +;
#X obj 552 109 t b f;
#X obj 598 107 +;
#X obj 630 106 t b f;
#X obj 520 135 moses 1;
#X obj 584 138 moses 2;
#X obj 646 138 moses 4;
#X msg 520 160 0;
#X msg 585 163 1;
#X msg 645 163 2;
#X msg 691 164 3;
#X obj 520 199 change;
#X obj 520 253 list append;
#X obj 520 282 route 0 1 2, f 31;
#X obj 520 403 symbol;
#X obj 520 226 hradio 20 1 0 3 empty empty empty 0 -10 0 12 #fcfcfc #000000 #000000 0;
#X obj 591 360 symbol;
#X obj 520 455 t a;
#X obj 662 314 symbol;
#X msg 208 413 45;
#X msg 520 430 text MOTEUR DIESEL A L'ARRET !\$1\$1VEUILLEZ LE DEMARRER.;
#X msg 591 387 text PUISSANCE ELECTRIQUE INSUFFISANTE !\$1\$1VEUILLEZ DEMARRER LA TURBINE.;
#X msg 662 341 text CA MANQUE DE PRESSION !\$1\$1VEUILLEZ DEMARRER LE COMPRESSEUR.;
#X obj 626 200 t b b;
#X msg 588 202 0;
#X connect 0 0 1 0;
#X connect 1 0 25 0;
#X connect 3 0 2 1;
#X connect 4 0 2 0;
#X connect 5 0 21 0;
#X connect 5 1 12 0;
#X connect 6 0 4 0;
#X connect 6 0 48 0;
#X connect 7 0 52 0;
#X connect 8 0 9 0;
#X connect 9 0 41 1;
#X connect 10 0 11 0;
#X connect 11 0 14 0;
#X connect 12 0 10 0;
#X connect 12 0 13 0;
#X connect 13 0 14 0;
#X connect 14 0 15 0;
#X connect 15 0 19 0;
#X connect 15 1 18 0;
#X connect 16 0 25 4;
#X connect 17 0 16 0;
#X connect 18 0 17 0;
#X connect 19 0 16 0;
#X connect 20 0 5 0;
#X connect 21 0 22 0;
#X connect 22 0 2 0;
#X connect 23 0 26 0;
#X connect 25 0 2 0;
#X connect 26 0 24 0;
#X connect 26 1 29 0;
#X connect 26 2 27 0;
#X connect 26 3 28 0;
#X connect 27 0 31 0;
#X connect 28 0 32 0;
#X connect 29 0 33 0;
#X connect 30 0 29 0;
#X connect 30 1 29 1;
#X connect 31 0 30 0;
#X connect 32 0 31 0;
#X connect 32 1 31 1;
#X connect 33 0 36 0;
#X connect 33 1 34 0;
#X connect 34 0 37 0;
#X connect 34 1 35 0;
#X connect 35 0 38 0;
#X connect 35 1 39 0;
#X connect 36 0 40 0;
#X connect 37 0 40 0;
#X connect 38 0 40 0;
#X connect 39 0 40 0;
#X connect 40 0 44 0;
#X connect 41 0 42 0;
#X connect 42 0 43 0;
#X connect 42 1 45 0;
#X connect 42 2 47 0;
#X connect 43 0 49 0;
#X connect 44 0 41 0;
#X connect 45 0 50 0;
#X connect 46 0 2 0;
#X connect 47 0 51 0;
#X connect 48 0 3 0;
#X connect 49 0 46 0;
#X connect 50 0 46 0;
#X connect 51 0 46 0;
#X connect 52 0 53 0;
#X connect 52 1 8 0;
#X connect 53 0 44 0;
