#N canvas 1105 65 709 616 10;
#X declare -path Fraise;
#X obj 472 32 tgl 40 0 \$0-bgui1-snd \$0-bgui1-rcv 1 13 20 0 20 #fcfcfc #000000 #000000 0 1;
#X obj 472 74 tgl 40 0 \$0-bgui2-snd \$0-bgui2-rcv 2 13 20 0 20 #fcfcfc #000000 #000000 0 1;
#X obj 472 116 tgl 40 0 \$0-bgui3-snd \$0-bgui3-rcv 3 13 20 0 20 #fcfcfc #000000 #000000 0 1;
#X obj 472 158 tgl 40 0 \$0-bgui4-snd \$0-bgui4-rcv 4 13 20 0 20 #fcfcfc #000000 #000000 0 1;
#X obj 472 200 tgl 40 0 \$0-bgui5-snd \$0-bgui5-rcv 5 13 20 0 20 #fcfcfc #000000 #000000 0 1;
#N canvas 1 84 450 300 BOUTONS_GUI 0;
#X obj 98 61 dispatch \$0-bgui 1 5;
#X obj 203 131 r \$0-bgui-snd;
#X obj 203 169 s \$0-boutons;
#X obj 326 129 r \$0-boutons;
#X msg 326 156 \$1 set \$2;
#X obj 326 181 s \$0-bgui-rcv;
#X connect 1 0 2 0;
#X connect 3 0 4 0;
#X connect 4 0 5 0;
#X restore 373 34 pd BOUTONS_GUI;
#X obj 196 18 declare -path Fraise;
#X obj 35 109 route s;
#X obj 30 462 route 0 1 2 3 4 5;
#X obj 15 493 tgl 15 0 empty empty empty 17 7 0 10 #fcfcfc #000000 #000000 0 1;
#X obj 41 493 tgl 15 0 empty empty empty 17 7 0 10 #fcfcfc #000000 #000000 0 1;
#X obj 65 491 tgl 15 0 empty empty empty 17 7 0 10 #fcfcfc #000000 #000000 0 1;
#X obj 96 491 tgl 15 0 empty empty empty 17 7 0 10 #fcfcfc #000000 #000000 0 1;
#X obj 124 490 tgl 15 0 empty empty empty 17 7 0 10 #fcfcfc #000000 #000000 0 1;
#X obj 155 490 tgl 15 0 empty empty empty 17 7 0 10 #fcfcfc #000000 #000000 0 1;
#X obj 35 266 s \$0-boutons;
#X msg 200 345 c \$1 i \$2;
#X obj 200 320 pack f f;
#X obj 202 56 r \$0-leds;
#X obj 200 197 unpack f f;
#X obj 257 294 * 505;
#X obj 35 298 r \$0-boutons;
#X obj 35 320 route 0 1 2;
#X obj 35 379 s \$0-boutons-etage;
#X msg 24 352 0 \$1;
#X msg 61 353 1 \$1;
#X msg 100 350 2 \$1;
#X obj 200 294 + 10;
#X msg 182 258 0;
#X msg 209 258 7;
#X msg 236 258 4;
#X msg 265 257 5;
#X msg 292 257 6;
#X obj 30 439 r \$0-boutons;
#X obj 184 437 r \$0-boutons;
#X obj 184 508 s \$0-leds;
#X obj 220 457 tgl 15 0 empty empty empty 17 7 0 10 #fcfcfc #000000 #000000 0 1;
#X obj 184 480 spigot 1;
#X obj 35 156 unpack f f;
#X obj 34 177 sel 0 1 2 3 4;
#X msg 117 201 1;
#X msg 86 201 2;
#X msg 55 199 3;
#X msg 24 199 4;
#X msg -9 201 5;
#X obj 37 238 pack f f;
#X obj 200 223 sel 5 4 3 2 1;
#X obj 31 16 fruit/fruit 1 Asc1 1 Asc;
#X obj 35 80 fruit/receive Asc1;
#X obj 200 369 fruit/send2 Asc1;
#X obj 428 429 r IfAscenceur-rcv;
#X obj 428 452 route led;
#X obj 277 431 r \$0-boutons;
#X obj 277 454 list prepend button;
#X obj 277 477 list trim;
#X obj 277 500 s IfAscenceur-snd;
#X obj 428 525 s \$0-leds;
#X obj 340 85 table \$0-ledtab;
#X obj 202 79 unpack f f;
#X obj 202 102 t f f;
#X obj 230 125 tabread \$0-ledtab;
#X obj 230 148 ||;
#X obj 202 173 pack f f;
#X obj 428 475 t a a;
#X obj 455 500 s \$0-ledtab;
#X obj 35 179;
#X obj 35 133 route list;
#X connect 7 0 66 0;
#X connect 8 0 9 0;
#X connect 8 1 10 0;
#X connect 8 2 11 0;
#X connect 8 3 12 0;
#X connect 8 4 13 0;
#X connect 8 5 14 0;
#X connect 16 0 49 0;
#X connect 17 0 16 0;
#X connect 18 0 58 0;
#X connect 19 0 46 0;
#X connect 19 1 20 0;
#X connect 20 0 17 1;
#X connect 21 0 22 0;
#X connect 22 0 24 0;
#X connect 22 1 25 0;
#X connect 22 2 26 0;
#X connect 24 0 23 0;
#X connect 25 0 23 0;
#X connect 26 0 23 0;
#X connect 27 0 17 0;
#X connect 28 0 27 0;
#X connect 29 0 27 0;
#X connect 30 0 27 0;
#X connect 31 0 27 0;
#X connect 32 0 27 0;
#X connect 33 0 8 0;
#X connect 34 0 37 0;
#X connect 36 0 37 1;
#X connect 37 0 35 0;
#X connect 38 0 39 0;
#X connect 38 0 65 0;
#X connect 38 1 45 1;
#X connect 39 0 44 0;
#X connect 39 1 43 0;
#X connect 39 2 42 0;
#X connect 39 3 41 0;
#X connect 39 4 40 0;
#X connect 40 0 45 0;
#X connect 41 0 45 0;
#X connect 42 0 45 0;
#X connect 43 0 45 0;
#X connect 44 0 45 0;
#X connect 45 0 15 0;
#X connect 46 0 28 0;
#X connect 46 1 29 0;
#X connect 46 2 30 0;
#X connect 46 3 31 0;
#X connect 46 4 32 0;
#X connect 48 0 7 0;
#X connect 50 0 51 0;
#X connect 51 0 63 0;
#X connect 52 0 53 0;
#X connect 53 0 54 0;
#X connect 54 0 55 0;
#X connect 58 0 59 0;
#X connect 58 1 61 1;
#X connect 59 0 62 0;
#X connect 59 1 60 0;
#X connect 60 0 61 0;
#X connect 61 0 62 1;
#X connect 62 0 19 0;
#X connect 63 0 56 0;
#X connect 63 1 64 0;
#X connect 66 0 38 0;
#X coords 0 0 0.00203252 0.00161812 280 45 0;
